<svg height="210" viewBox="0 0 306 210" width="306" xmlns="http://www.w3.org/2000/svg" xmlns:xlink="http://www.w3.org/1999/xlink"><mask id="a" fill="#fff"><path d="m.4242.14087286h11.5178v12.24152714h-11.5178z" fill="#fff" fill-rule="evenodd"/></mask><mask id="b" fill="#fff"><path d="m.03929999 0h167.67546301v203.787598h-167.67546301z" fill="#fff" fill-rule="evenodd"/></mask><g fill="none" fill-rule="evenodd"><path d="m104.0167 94.8577-1.196.339c-.049-.175-5.183-17.703-24.76-40.517-19.773-23.038-27.094-47.457-27.166-47.702l1.193-.35c.071.241 7.326 24.416 26.916 47.243 19.773 23.041 24.963 40.81 25.013 40.987" fill="#9fc4ff"/><path d="m50.3853 2.2869c6.853-3.499 5.21 15.283 5.21 15.283s-14.251-10.666-5.21-15.283" fill="#9fc4ff"/><path d="m65.8248 17.4915c4.796 2.37-6.36 9.25-6.36 9.25s.032-12.375 6.36-9.25" fill="#9fc4ff"/><path d="m48.8668 25.5296c-.48-5.328 11.21.602 11.21.602s-10.576 6.427-11.21-.602" fill="#9fc4ff"/><path d="m78.5704 29.491c7.319 3.001-8.432 14.3-8.432 14.3s-1.224-18.261 8.432-14.3" fill="#9fc4ff"/><path d="m88.2222 40.3635c7.757 3.182-8.938 15.157-8.938 15.157s-1.297-19.355 8.938-15.157" fill="#9fc4ff"/><path d="m98.3238 54.5315c7.406 3.038-8.532 14.471-8.532 14.471s-1.239-18.479 8.532-14.471" fill="#9fc4ff"/><path d="m104.8458 69.3679c7.833 1.649-5.777 15.775-5.777 15.775s-4.558-17.951 5.777-15.775" fill="#9fc4ff"/><path d="m56.5914 44.1316c-1.081-6.661 14.159-.246 14.159-.246s-12.733 9.034-14.159.246" fill="#9fc4ff"/><path d="m66.2081 59.6477c-3.213-5.934 13.289-4.893 13.289-4.893s-9.049 12.722-13.289 4.893" fill="#9fc4ff"/><path d="m75.8223 71.0481c-2.058-6.426 13.965-2.345 13.965-2.345s-11.25 10.824-13.965 2.345" fill="#9fc4ff"/><path d="m85.3072 81.7371c.384-6.737 13.877 2.821 13.877 2.821s-14.384 6.068-13.877-2.821" fill="#9fc4ff"/><path d="m4.7701 157.0906c17.055-14.713 48.268 32.937 47.603 36.505-3.929-3.491-9.703-8.611-18.158-16.092-14.196-12.557-23.947-18.038-29.445-20.413" fill="#76abff"/><path d="m33.6588 178.1316c8.253 7.301 13.947 12.35 17.867 15.833-7.202.246-58.165-18.154-50.8-31.65 1.028-1.884 2.151-3.389 3.35-4.573 5.366 2.279 15.237 7.699 29.583 20.39" fill="#4a75ff"/><path d="m51.526 193.9646c-3.92-3.483-9.614-8.532-17.867-15.833-14.346-12.691-24.217-18.111-29.584-20.39.23-.226.46-.448.695-.651 5.498 2.374 15.249 7.856 29.445 20.413 8.456 7.481 14.229 12.601 18.158 16.092-.009.047-.018.093-.038.125-.097.152-.38.229-.809.244" fill="#fff"/><path d="m49.1436 195.0242c-12.812-2.626-33.306-5.427-40.526-6.382 4.644-17.85 37.226 2.385 40.526 6.382" fill="#76abff"/><path d="m8.2608 190.4368c.055-.396.125-.773.203-1.14 7.208.953 28.039 3.796 40.832 6.441-2.47 2.48-43.321 11.107-41.035-5.301" fill="#4a75ff"/><path d="m49.4171 195.5471c-.008.058-.053.123-.121.19-12.794-2.644-33.625-5.487-40.833-6.44.048-.224.099-.442.155-.655 7.22.955 27.714 3.756 40.526 6.382.19.231.289.411.273.523" fill="#fff"/><path d="m45.7125 185.8499c-4.047-12.437-11.738-31.638-14.475-38.387 17.813-4.782 16.32 33.543 14.475 38.387" fill="#76abff"/><path d="m29.5011 148.0393c.372-.148.734-.273 1.091-.387 2.733 6.738 10.554 26.253 14.576 38.682-3.377-.921-31.062-32.175-15.667-38.295" fill="#4a75ff"/><path d="m45.3931 186.346c-.055.021-.133.014-.226-.011-4.022-12.429-11.842-31.945-14.575-38.683.218-.069.433-.132.646-.189 2.737 6.749 10.427 25.95 14.474 38.387-.106.28-.214.455-.319.496" fill="#fff"/><path d="m48.5216 113.2039c1.021 3.174 2.139 6.591 3.321 10.196 1.125 3.436 2.318 7.084 3.536 10.857l16.354-17.711c-.879-10.471 1.402-21.498 1.021-28.684-.076-1.447-.53-4.041-1.482-7.024l-25.274 17.01c.192 5.174.937 10.413 2.524 15.356" fill="#c0edff"/><path d="m49.5147 63.0974c-12.569 1.1-18.991 9.603-22.08 19.652l16.913 13.045c-.136-14.24 3.554-27.571 5.167-32.697" fill="#c0edff"/><path d="m50.3136 123.9011c-1.182-3.608-2.302-7.027-3.323-10.206-1.639-5.102-2.402-10.505-2.595-15.832l-17.439-13.451c-1.259 4.699-1.849 9.656-2.034 14.299-.31 7.779 2.224 16.442 5.299 24.699 9.117 3.175 19.371 8.527 23.426 10.722-1.147-3.55-2.271-6.985-3.334-10.231" fill="#c0edff"/><path d="m45.9542 95.9382 24.777-16.676c-2.721-7.476-8.468-16.461-18.969-16.288-.18.003-.35.018-.528.024-1.461 4.522-5.454 18.278-5.28 32.94" fill="#c0edff"/><path d="m67.505 176.1663c3.186-5.51 13.135-22.871 17.951-32.96-3.702-4.228-7.312-8.106-10.11-13.307-1.86-3.458-2.87-7.286-3.378-11.234l-16.023 17.35c4.037 12.567 8.314 26.577 11.56 40.151" fill="#c0edff"/><path d="m100.546 171.0789c-3.293-13.158-8.636-20.386-13.939-26.549-5.602 11.596-17.049 31.318-18.572 33.93 1.715 7.415 3.097 14.662 3.933 21.431 14.239-.178 27.188-.461 27.9-.444 1.597.038 6.516-5.042.678-28.368" fill="#c0edff"/><path d="m54.3658 136.3591c-1.892-1.046-13.257-7.249-23.399-10.976 3.549 9.226 7.555 17.8 8.737 23.852 1.511 7.729 1.262 12.562-.185 17.17 7.903 5.903 22.27 9.756 26.582 10.818-3.264-13.786-7.626-28.075-11.735-40.864" fill="#c0edff"/><path d="m38.9737 167.9822c-.799 2.142-1.839 4.3-3.077 6.747-4.196 8.295-2.947 22.917-1.986 24.539.517.872 19.117.846 36.437.642-.825-6.612-2.173-13.687-3.844-20.932-3.111-.724-18.612-4.557-27.53-10.996" fill="#c0edff"/><g fill="#fff"><path d="m55.3785 134.2571c-1.218-3.773-2.411-7.421-3.536-10.857-1.182-3.605-2.3-7.022-3.321-10.196-1.587-4.943-2.331-10.182-2.524-15.356l-.866.582-.736-.567c.193 5.327.956 10.73 2.595 15.832 1.021 3.179 2.141 6.598 3.323 10.206 1.063 3.246 2.187 6.681 3.334 10.231.497.269.932.506 1.228.67z"/><path d="m44.3482 95.7942.848.654.758-.51c-.174-14.662 3.819-28.418 5.28-32.94-.585.019-1.159.05-1.719.099-1.613 5.126-5.304 18.457-5.167 32.697"/><path d="m67.505 176.1663c-3.246-13.574-7.523-27.584-11.56-40.151l-.748.81-.553-.312c-.013-.007-.112-.062-.278-.154 4.109 12.788 8.471 27.078 11.735 40.864.267.065.508.124.695.168.169-.291.413-.713.709-1.225"/><path d="m67.8868 178.7151-.295.506-.573-.126c-.073-.016-.25-.056-.515-.117 1.671 7.245 3.019 14.32 3.843 20.932.542-.006 1.082-.013 1.622-.02-.836-6.768-2.219-14.015-3.934-21.43-.067.117-.121.209-.148.255"/><path d="m45.9971 97.8479 25.275-17.01c-.164-.515-.346-1.042-.541-1.576l-24.777 16.676c.008.636.02 1.272.043 1.91"/><path d="m44.3482 95.7942-16.914-13.045c-.169.55-.329 1.105-.478 1.663l17.439 13.451c-.025-.692-.041-1.381-.047-2.069"/><path d="m45.9971 97.8479c-.023-.638-.035-1.274-.043-1.91l-.758.511-.848-.655c.006.688.023 1.378.047 2.069l.736.568z"/><path d="m55.9454 136.0149 16.022-17.35c-.09-.704-.175-1.409-.234-2.119l-16.355 17.711c.189.586.377 1.166.567 1.758"/><path d="m53.6475 134.1321c-4.055-2.195-14.309-7.547-23.426-10.722.246.66.493 1.319.745 1.973 10.142 3.727 21.507 9.93 23.399 10.976-.24-.749-.479-1.488-.718-2.227"/><path d="m55.1969 136.825.749-.81c-.191-.592-.378-1.172-.567-1.758l-.504.545c-.295-.164-.731-.401-1.227-.67.238.739.477 1.478.718 2.227.166.092.265.147.278.154z"/><path d="m66.1007 177.2229c-4.312-1.062-18.679-4.915-26.582-10.818-.165.527-.349 1.052-.545 1.577 8.919 6.44 24.419 10.272 27.53 10.996-.135-.586-.264-1.168-.403-1.755"/><path d="m68.0352 178.4597c1.522-2.612 12.97-22.333 18.571-33.93-.384-.446-.767-.886-1.15-1.323-4.817 10.089-14.766 27.449-17.951 32.96.183.768.353 1.528.53 2.293"/><path d="m66.7955 177.3914c-.186-.044-.428-.103-.695-.168.139.587.268 1.169.403 1.754.265.062.442.101.515.118l.573.126.295-.506c.027-.047.081-.138.149-.256-.177-.764-.347-1.525-.531-2.293-.295.512-.54.933-.709 1.225"/></g><path d="m252.8228 147.0374-.818-.829c.121-.119 12.196-12.25 22.09-38.625 9.99-26.637 26.735-43.674 26.903-43.844l.827.822c-.166.167-16.741 17.039-26.64 43.431-9.992 26.64-22.239 38.924-22.362 39.045" fill="#a4e2ff"/><path d="m10.6202 1.2034c5.967 4.047-10.196 11.179-10.196 11.179s2.323-16.518 10.196-11.179" fill="#a4e2ff" mask="url(#a)" transform="translate(294 60)"/><path d="m299.106 80.7459c.22 5.008-10.467-1.046-10.467-1.046s10.177-5.561 10.467 1.046" fill="#a4e2ff"/><path d="m284.8497 70.4505c4.158-2.8 4.567 9.477 4.567 9.477s-10.053-5.783-4.567-9.477" fill="#a4e2ff"/><path d="m295.0084 96.6296c.839 7.365-15.549-.467-15.549-.467s14.441-9.25 15.549.467" fill="#a4e2ff"/><path d="m290.4381 109.4636c.89 7.807-16.481-.495-16.481-.495s15.307-9.805 16.481.495" fill="#a4e2ff"/><path d="m283.3653 124.1555c.85 7.453-15.735-.473-15.735-.473s14.614-9.36 15.735.473" fill="#a4e2ff"/><path d="m274.127 136.2097c2.183 7.177-15.561 2.378-15.561 2.378s12.682-11.847 15.561-2.378" fill="#a4e2ff"/><path d="m273.0626 85.1921c4.981-3.895 6.595 11.516 6.595 11.516s-13.167-6.377-6.595-11.516" fill="#a4e2ff"/><path d="m264.6637 100.0945c3.422-5.317 10.018 8.703 10.018 8.703s-14.532-1.687-10.018-8.703" fill="#a4e2ff"/><path d="m259.6436 113.136c4.348-4.591 8.231 10.409 8.231 10.409s-13.967-4.351-8.231-10.409" fill="#a4e2ff"/><path d="m255.149 125.7502c5.706-2.726 3.949 12.669 3.949 12.669s-11.477-9.072-3.949-12.669" fill="#a4e2ff"/><path d="m291.3341 139.9363c-25.51-13.173-52.536 48.052-50.752 51.992 4.062-4.839 10.035-11.937 18.788-22.312 14.694-17.417 25.617-25.782 31.964-29.68" fill="#76abff"/><path d="m260.2403 170.2156c-8.543 10.126-14.434 17.125-18.488 21.953 9.2-1.265 68.988-33.261 56.088-47.123-1.8-1.935-3.622-3.416-5.454-4.513-6.205 3.76-17.296 12.081-32.146 29.683" fill="#4a75ff"/><path d="m241.7525 192.1687c4.054-4.828 9.944-11.827 18.488-21.953 14.85-17.602 25.941-25.923 32.146-29.683-.35-.21-.701-.415-1.052-.596-6.348 3.898-17.27 12.263-31.965 29.68-8.752 10.375-14.725 17.473-18.787 22.311.023.053.047.103.081.135.162.153.541.181 1.089.106" fill="#fff"/><path d="m247.2955 191.2781c15.557-5.756 40.812-13.36 49.717-16.004-10.594-19.427-46.585 10.722-49.717 16.004" fill="#76abff"/><path d="m297.9381 177.2517c-.174-.442-.362-.858-.557-1.261-8.891 2.638-34.562 10.364-50.091 16.137 3.787 2.308 57.873 3.408 50.648-14.876" fill="#4a75ff"/><path d="m247.0865 191.9358c.026.064.1.128.204.192 15.528-5.773 41.199-13.499 50.09-16.137-.119-.246-.242-.485-.368-.717-8.905 2.644-34.16 10.248-49.717 16.004-.181.306-.259.533-.209.658" fill="#fff"/><path d="m256.8985 182.3211c-.004 0-.008 0-.012 0-3.058-.05-5.531.837-7.35 2.636-2.451 2.424-3.25 5.999-3.492 8.537.727.015 1.507.025 2.329.033.307-1.708.987-3.706 2.468-5.17 1.402-1.387 3.291-2.07 5.617-2.032h.009c3.956.067 6.789 1.494 8.421 4.242.555.934.89 1.908 1.091 2.792 1.373-.033 2.675-.068 3.871-.106-.202-1.754-.814-4.256-2.48-6.424-2.237-2.912-5.761-4.429-10.472-4.508" fill="#99d3ff"/><path d="m257.0992 172.7996c-17.313-.282-16.598 19.272-16.615 20.248-.002.159.954.273 2.551.352.122-3.235.908-9.08 4.739-12.869 2.447-2.42 5.753-3.613 9.826-3.547h.017c6.956.117 11.932 2.618 14.793 7.433 1.9 3.198 2.367 6.655 2.406 8.632 1.158-.069 1.846-.138 1.88-.203.253-.482 1.308-19.705-19.597-20.046" fill="#99d3ff"/><path d="m249.0787 184.4944c1.948-1.927 4.579-2.877 7.818-2.824h.013c5.525.093 9.48 2.081 11.754 5.91 1.173 1.975 1.654 4.073 1.825 5.652 1.431-.047 2.685-.098 3.684-.149-.047-2.048-.568-6.148-3.177-9.611-2.842-3.772-7.347-5.736-13.39-5.838h-.015c-3.892-.063-7.041 1.067-9.359 3.36-3.675 3.635-4.43 9.296-4.547 12.434.52.02 1.091.038 1.707.052.249-2.643 1.083-6.411 3.687-8.986" fill="#99d3ff"/><path d="m263.756 190.0632c-1.572-1.994-4.028-3.032-7.299-3.087h-.009c-2.144-.035-3.876.585-5.149 1.843-1.335 1.321-1.969 3.132-2.267 4.713 4.867.032 11.021-.039 16.292-.158-.258-1.049-.726-2.243-1.568-3.311" fill="#76c1ff"/><path d="m257.6168 176.9837h-.016c-4.073-.066-7.38 1.127-9.827 3.547-3.83 3.789-4.617 9.634-4.739 12.869.206.01.423.02.65.028.117-3.137.871-8.798 4.547-12.434 2.318-2.292 5.467-3.423 9.359-3.359h.015c6.043.101 10.548 2.066 13.389 5.837 2.61 3.464 3.131 7.563 3.178 9.612.229-.012.442-.024.643-.036-.039-1.976-.505-5.433-2.406-8.631-2.86-4.815-7.837-7.316-14.793-7.433" fill="#76c1ff"/><path d="m249.5362 184.9568c1.819-1.799 4.292-2.686 7.35-2.636l.005-.325-.005.325h.012c4.712.079 8.235 1.596 10.472 4.509 1.666 2.168 2.278 4.669 2.48 6.423.217-.006.429-.013.638-.02-.171-1.58-.651-3.677-1.825-5.652-2.274-3.829-6.229-5.817-11.753-5.911h-.014c-3.239-.052-5.87.897-7.818 2.825-2.604 2.575-3.438 6.342-3.686 8.986.212.005.43.01.652.014.242-2.538 1.041-6.114 3.492-8.538" fill="#76c1ff"/><path d="m256.4674 186.3255c-.003 0-.006 0-.009 0l-.005.325.005-.325c-2.325-.038-4.215.645-5.617 2.031-1.48 1.465-2.161 3.462-2.468 5.17.217.002.436.004.659.006.297-1.581.932-3.392 2.267-4.713 1.272-1.258 3.004-1.878 5.148-1.844h.009c3.272.056 5.728 1.094 7.3 3.088.842 1.068 1.31 2.262 1.567 3.311.22-.005.439-.01.656-.015-.2-.884-.536-1.859-1.091-2.793-1.631-2.748-4.464-4.175-8.421-4.241" fill="#76c1ff"/><path d="m166.6319 199.3469c-5.045 4.617-158.273 5.65-161.06 3.023-2.335-2.2-8.576-195.579-3.747-199.599 5.083-4.231 125.653-2.358 125.653-2.358l36.161 39.461s6.612 156.162 2.993 159.473" fill="#ebfaff" mask="url(#b)" transform="translate(86)"/><path d="m213.4781.41281763c3.39-.05391763 33.015 26.45508237 36.161 39.46108237.599 2.48-29.811-6.618-32.002-8.188-2.405-1.722-4.159-31.27308237-4.159-31.27308237" fill="#a4e2ff"/><path d="m218.6187 42.9583-97.059 1.822c-.242.005-.442-.188-.446-.43l-.087-4.624c-.005-.242.188-.442.429-.447l97.059-1.821c.243-.005.442.188.447.429l.087 4.625c.004.242-.188.442-.43.446" fill="#a4e2ff"/><path d="m167.9293 32.4607-46.584.874c-.243.005-.442-.187-.447-.43l-.087-4.624c-.004-.242.188-.442.43-.446l46.584-.875c.242-.004.442.188.447.43l.087 4.625c.004.241-.188.441-.43.446" fill="#a4e2ff"/><path d="m218.8345 54.4563-97.059 1.822c-.242.004-.442-.188-.446-.43l-.087-4.625c-.005-.242.188-.441.429-.446l97.059-1.822c.243-.004.442.188.447.43l.087 4.625c.004.241-.188.441-.43.446" fill="#a4e2ff"/><path d="m219.4762 88.6438-97.059 1.822c-.242.005-.441-.188-.446-.43l-.49-26.08c-.005-.242.188-.442.43-.446l97.059-1.823c.242-.004.442.188.446.43l.49 26.081c.004.242-.188.442-.43.446" fill="#a4e2ff"/><path d="m219.8209 106.9988-97.059 1.822c-.242.005-.442-.188-.446-.43l-.203-10.76c-.004-.241.188-.441.43-.445l97.059-1.822c.242-.005.442.187.447.429l.202 10.76c.004.242-.188.442-.43.446" fill="#a4e2ff"/><path d="m220.1178 122.8313-97.059 1.822c-.242.005-.441-.188-.446-.43l-.087-4.624c-.005-.242.188-.442.43-.447l97.059-1.821c.242-.005.441.188.446.429l.087 4.625c.005.242-.188.442-.43.446" fill="#a4e2ff"/><path d="m219.8878 157.0354-95.315 1.789c-.724.014-1.321-.561-1.335-1.285l-.442-23.58c-.014-.723.561-1.32 1.285-1.334l95.315-1.789c.723-.014 1.321.561 1.335 1.285l.442 23.58c.014.723-.561 1.32-1.285 1.334" fill="#a4e2ff"/><path d="m220.9678 168.1248-97.059 1.822c-.242.005-.441-.188-.446-.429l-.087-4.625c-.004-.242.188-.442.43-.447l97.059-1.821c.242-.005.441.188.446.429l.087 4.625c.005.242-.188.442-.43.446" fill="#a4e2ff"/><path d="m164.9019 180.9568-39.9.749c-.724.013-1.321-.562-1.334-1.286l-.055-2.88c-.013-.724.562-1.321 1.286-1.335l39.899-.749c.724-.014 1.321.562 1.335 1.285l.054 2.882c.013.723-.562 1.32-1.285 1.334" fill="#a4e2ff"/><path d="m252.9376 202.2869s1.047 3.167.061 3.248-11.524 2.189-11.55.852c-.025-1.337 10.327-4.524 11.159-4.094z" fill="#1a2982"/><path d="m270.6563 202.5701s-6.806 6.384-5.642 7.318c1.164.933 8.899-4.275 8.899-4.275s.341-2.203-.058-3.103-3.199.06-3.199.06" fill="#1a2982"/><path d="m251.8038 136.3098s-2.622 22.339-3.256 29.229c-.636 6.889-.342 36.438.058 37.063.574.896 3.216 1.659 4.457.772.96-.686.374-21.624 2.033-28.278 1.658-6.655 6.368-27.122 6.368-27.122s5.584 19.255 5.854 26.892c.271 7.637 2.254 27.621 2.949 28.185.696.564 3.327.794 3.82-.071.493-.866-1.772-67.278-2.973-70.201-1.202-2.923-19.31 3.531-19.31 3.531" fill="#2560f2"/><path d="m252.2457 100.9167s-5.178 2.748-9.017 6.928c-3.837 4.179-6.743 10.438-9.118 12.971-3.371 3.598-9.921 8.354-9.72 8.876.201.521 1.648 3.013 2.077 2.957.429-.055 10.087-6.338 13.121-10.12 3.033-3.783 7.047-8.778 7.047-8.778s2.917 5.247 2.911 10.024c-.006 4.776-.302 7.679 1.089 10.519.979 1.999 1.896 5.998 11.266 3.912s9.622-4.782 9.747-5.739c.125-.958-3.528-16.635-3.528-16.635s5.371 6.252 5.993 8.819c.621 2.567 2.078 14.051 2.606 14.184.528.134 1.437.212 2.149-.04.711-.252-.384-15.373-1.287-17.648-.902-2.276-12.297-19.662-19.911-20.838-3.967-.613-5.425.608-5.425.608" fill="#1e41d3"/><path d="m250.7579 101.7795c-.226.772.59 3.016.934 3.081.343.065 1.408-2.964 1.428-3.179s-.275-1.444-.275-1.444-1.879.83-2.087 1.542" fill="#5f91ff"/><path d="m258.2057 100.344s-.055.909-2.022 2.952c-1.883 1.954-2.812 2.118-2.992 2.133-.273.023-.562-3.314-.344-3.79.216-.476 3.877-2.581 4.646-2.357.768.225.712 1.062.712 1.062" fill="#5f91ff"/><path d="m256.3185 95.7234.206 4.477s-.94 1.054-2.014 1.516c-2.041.879-2.383-.291-2.383-.291l-.421-3.36s-2.008.221-2.82-1.639c-.812-1.859-1.825-5.886-.419-6.507s5.019-1.74 5.019-1.74l3.343 2.703.817 3.322z" fill="#ffebd2"/><path d="m256.8043 98.0613c.744.099 1.87-2.78 1.796-4.149-.177-3.312-1.97-6.991-5.219-7.159-3.25-.168-5.862.215-6.976 1.146-1.035.866-.908 2.144.931 2.659.929.259 3.429-.019 4.519-.405s.157 3.487 1.555 3.697c.967.145.965-2.19 2.119-1.618 1.153.573.693 1.656.693 1.656s-.521 4.026.582 4.173" fill="#1a2982"/><path d="m237.1436 130.2556-2.194 6.785-20.534-6.639 2.194-6.786z" fill="#1ac1f3"/><path d="m233.5054 138.0925c.992 1.192 40.032 13.424 40.743 12.776.712-.648 4.174-9.184 3.318-10.259-.857-1.076-40.387-12.342-41.024-11.91-.637.433-3.764 8.519-3.037 9.393" fill="#00a8fc"/><path d="m212.1881 124.4607c-7.487 23.154-32.327 35.855-55.481 28.368-23.155-7.488-35.855-32.327-28.368-55.482 7.487-23.154 32.327-35.855 55.481-28.367 23.155 7.487 35.855 32.327 28.368 55.481m-90.756-29.347c-8.721 26.969 6.072 55.9 33.041 64.621 26.968 8.721 55.901-6.072 64.621-33.041 8.721-26.968-6.072-55.9-33.04-64.621-26.969-8.721-55.901 6.072-64.622 33.041" fill="#1ac1f3"/><path d="m278.443 148.6604c.941-.03-.006-9.919-.006-9.919l-1.267.077s-2.656 4.088-2.605 4.951c.051.864 2.179-1.918 2.179-1.918s.392 6.85 1.699 6.809" fill="#ffebd2"/><path d="m222.4747 130.5027c.593.333 1.357 3.423.746 3.619-.613.196-3.997-.468-4.027-1.279-.031-.812 2.223-2.936 3.281-2.34" fill="#ffebd2"/><path d="m49.3126 80.3767c-.224 1.676 5.821 16.913 8.354 17.058 4.297.245 78.103-38.739 80.238-39.816 1.192-.603 6.868-6.756 11.696-12.345-4.328-2.555 4.474-6.873.716-8.16-1.071-.008-1.986-.099-2.789-.301-6.124 1.072-13.632 2.744-17.139 3.86-3.199 1.017-80.852 38.028-81.076 39.704" fill="#ffd4b3"/><path d="m54.3194 93.3064c1.264 2.346 2.501 4.08 3.347 4.128 4.297.245 78.103-38.738 80.238-39.816.921-.466 4.522-4.249 8.339-8.523-31.471 13.042-62.376 27.242-91.924 44.211" fill="#4a75ff"/><path d="m49.3126 80.3767c-.08.598.642 2.926 1.714 5.675 31.807-13.306 62.364-29.165 91.336-48.259-4.727.957-9.416 2.066-11.974 2.88-3.199 1.017-80.852 38.028-81.076 39.704" fill="#4a75ff"/><path d="m51.0269 86.052c.929 2.383 2.121 5.081 3.292 7.254 29.977-16.108 60.863-29.741 91.924-44.211 1.122-1.255 2.262-2.552 3.358-3.821-4.328-2.555 4.474-6.873.716-8.16-1.071-.009-1.986-.099-2.789-.301-1.656.29-3.413.624-5.166.979-30.469 18.733-59.937 32.275-91.335 48.26" fill="#76abff"/><path d="m130.1265 43.8684c1.996 2.432 5.609-.691 6.847 1.836 1.857 3.791-4.128 4.665-1.787 8.097 1.066 1.563 4.203.836 5.594 1.196 2.383-2.439 5.77-6.192 8.82-9.724 3.859-4.466 7.175-8.571 7.228-9.194.054-.65-4.13-.172-9.301.733-5.784 1.013-12.799 2.56-16.514 3.669-.667 1.31-1.448 2.704-.887 3.387" fill="#eef7ff"/><path d="m152.7887 41.513c2.334-2.813 4.002-4.994 4.04-5.434.043-.524-2.676-.313-6.445.264.819 1.894 1.282 3.847 2.405 5.17" fill="#5f8dff"/><path d="m44.3497 103.6604c1.116.382 7.496-2.888 7.739-3.79s-7.851-16.032-8.596-16.155c-.746-.123-6.117 2.506-6.792 3.325-.675.821 5.061 15.733 7.649 16.62" fill="#5f8dff"/><path d="m51.2154 100.8855c1.092.146 8.589-3.338 7.714-4.07-1.516-1.266-9.245-14.705-8.353-17.057.57-1.505-7.315 3.485-7.83 3.834-.514.348 6.269 17 8.469 17.293" fill="#eef7ff"/><path d="m62.0792 99.3611c.909 2.705 3.593 10.581 4.047 10.623.548.05 8.949-2.116 9.442-2.122.493-.007 3.261 4.05 3.286 5.104 0 0-13.733 1.778-14.528 1.489-.645-.235-3.833-10.133-5.08-13.976 1.004-.17 1.933-.492 2.833-1.118" fill="#78b5ff"/><path d="m64.7481 196.491c-.799.123-3.709-7.285-3.285-8.812s2.786-1.693 2.793-1.329c.007.365 1.846 9.933.492 10.141" fill="#1a2982"/><path d="m96.1739 205.6687c-.58.563-7.246-3.785-7.786-5.275-.54-1.491 1.288-2.995 1.505-2.702s7.264 7.022 6.281 7.977" fill="#1a2982"/><path d="m95.9322 137.8796s-1.472 31.676-2.3 39.349c-.829 7.674-2.506 21.928-2.506 21.928-.649 1.076-2.552.048-2.552.048s-1.131-24.99-.792-26.333c.34-1.344-.981-16.301-.981-16.301s-.731 14.479-2.7 16.461c-1.968 1.982-18.816 15.913-20.038 15.571s-1.008-1.926-1.008-1.926 14.272-16.8 15.239-17.061c.968-.261-3.686-28.011-1.212-32.191 2.474-4.179 10.523-2.813 10.523-2.813z" fill="#1e41d3"/><path d="m96.3331 136.4866s.458 4.079-.562 4.785c-1.021.706-3.977 2.806-11.904 1.436-6.647-1.15-9.157-2.108-7.16-6.582 1.869-4.192 19.626.361 19.626.361" fill="#78b5ff"/><path d="m110.9971 64.5828c.653-.153 1.478 1.005 1.554 1.855.077.85.151 8.02.151 8.02l-1.762.033s-2.485-9.313.057-9.908" fill="#e5cfba"/><path d="m108.8184 67.9363c-.647.247.527 3.538 1.184 4.05s1.196 1.345 1.196 1.345-1.626-5.683-2.38-5.395" fill="#e5cfba"/><path d="m113.1427 73.6594-2.673.05s-2.161 14.385-3.111 15.618c-.949 1.233-6.822 8.911-10.456 11.227-2.664 1.7-4.37 1.937-4.37 1.937s-1.88 3.438.128 6.804 2.21 1.175 2.21 1.175 13.994-13.301 15.689-19.015c1.486-5.012 3.106-15.861 2.583-17.796" fill="#78b5ff"/><path d="m89.9215 90.5359s5.782 2.049 5.617 4.575c-.165 2.525-2.101 3.017-2.101 3.017l-.5 5.571-1.917.036-3.717-3.729s.842-5.364.901-5.456c.058-.093 1.717-4.014 1.717-4.014" fill="#e5cfba"/><path d="m93.1539 101.5676s-.185 2.328-3.113 1.745-4.451-1.603-4.451-1.603l-5.073 11.491 1.586 1.925s.989 4.135-2.196 9.3c-1.464 2.375-6.681 13.163.371 14.854 7.051 1.691 14.093 2.835 16.102-1.852 2.008-4.687 1.774-17.173.818-22.747-.296-1.73-2.902-12.896-4.044-13.113" fill="#3369f0"/><path d="m92.2574 88.6687c-1.366-2.397-7.074-1.113-8.392 1.525-1.318 2.639-1.113 5.461-1.682 5.897-.57.436-5.082 2.891-6.13 6.953-1.048 4.061-.991 10.351 2.681 11.68 3.671 1.329 10.533-.623 11.854-4.751 1.32-4.127-.708-10.283-1.149-12.651s-.213-3.247.058-3.374 4.8-1.701 2.76-5.279" fill="#1a2982"/><path d="m58.7476 98.9768c-.125-.218-1.226-.562-1.437-2.077-.21-1.516.56-1.766 2.2-1.797s2.555.006 2.673 1.221c.128 1.336-.407 2.133-.407 2.133s.114.344.303.904c-.9.627-1.829.948-2.833 1.118-.29-.894-.475-1.461-.499-1.502" fill="#e5cfba"/></g></svg>