<svg height="160" viewBox="0 0 230 160" width="230" xmlns="http://www.w3.org/2000/svg" xmlns:xlink="http://www.w3.org/1999/xlink"><linearGradient id="a" x1="17.422574%" x2="100.207218%" y1="44.014892%" y2="58.738063%"><stop offset="0" stop-color="#c8d8ff"/><stop offset="1" stop-color="#f6f9f9"/></linearGradient><mask id="b" fill="#fff"><path d="m0 .11954286h226.706514v33.40419044h-226.706514z" fill="#fff" fill-rule="evenodd"/></mask><mask id="c" fill="#fff"><path d="m.32571429 0h22.34133331v16.4737524h-22.34133331z" fill="#fff" fill-rule="evenodd"/></mask><mask id="d" fill="#fff"><path d="m0 160h229.936762v-160h-229.936762z" fill="#fff" fill-rule="evenodd"/></mask><mask id="e" fill="#fff"><path d="m2.97447619 3.86971429c-1.80952381 12.36800001-2.40152381 20.64685711-2.41371428 20.81371431 3.31885714 1.2060952 5.73257142 1.2060952 7.54209523 1.2060952.02895238-.1287619 3.61904766-11.4620952 2.92419046-20.12038094-.2514286-3.14209524-2.69714284-5.06666667-4.83961903-5.06666667-1.52228571-.0007619-2.89066667.97066667-3.21295238 3.1672381" fill="#fff" fill-rule="evenodd"/></mask><mask id="f" fill="#fff"><path d="m0 160h229.936762v-160h-229.936762z" fill="#fff" fill-rule="evenodd"/></mask><g fill="none" fill-rule="evenodd"><g><path d="m53.4520381 52.7952c-.0655238 0-.128-.0365714-.1584762-.0990476-.0434286-.0868572-.007619-.1935238.08-.2361905.5318095-.2620952 1.0780952-.5059048 1.624381-.7253333.0906666-.0358096.1935238.0083809.2300952.0990476.0358095.0899048-.008381.1927619-.0990476.2293333-.5371429.2148572-1.0758095.4556191-1.5984762.7139048-.0259048.0121905-.0525714.0182857-.0784762.0182857m-3.0361905 1.7958095c-.0563809 0-.1112381-.0266666-.1455238-.0754285-.055619-.080762-.0358095-.1897143.0441905-.2453334.487619-.3405714.9912381-.663619 1.495619-.9622857.0838096-.0502857.1927619-.0220952.2415238.0617143.0502858.0838095.0220953.1927619-.0617142.2415238-.4967619.2948571-.9935239.6140952-1.4742858.9478095-.0304761.0220953-.0647619.032-.0998095.032m-2.7497143 2.2133334c-.0472381 0-.0944762-.0190477-.1295238-.0571429-.0662857-.0708571-.0617143-.1828571.0099048-.2491429.4365714-.4038095.8899047-.7946666 1.3455238-1.1619047.0754286-.0609524.1874286-.0487619.2483809.0266666.0609524.0761905.048762.1874286-.0266666.248381-.4495238.3626667-.896.7481905-1.328 1.1459048-.0327619.0312381-.0761905.0472381-.1196191.0472381m-2.4342857 2.5554285c-.0403809 0-.0807619-.0129524-.1135238-.0403809-.0746667-.064-.0845714-.1744762-.0220952-.2499048.3824762-.4540952.7817143-.8998095 1.1847619-1.3241905.0670476-.0708571.1790476-.0731428.2499047-.0060952.0708572.0670476.0731429.1798095.0060953.2499048-.3992381.4190476-.792381.8586666-1.1695238 1.3081904-.0350477.0419048-.0853334.0624762-.1356191.0624762m-2.1097143 2.832c-.0335238 0-.0670476-.0099047-.0967619-.0297143-.0815238-.0533333-.103619-.1630476-.0502857-.2438095.3268572-.496.6697143-.9851428 1.0194286-1.4552381.0579047-.0784762.1691428-.0944762.2468571-.0358095.0784762.0579048.0944762.168381.0365715.2468571-.3459048.4647619-.6849524.9485715-1.0072381 1.4384762-.0342858.0510477-.0906667.0792381-.1485715.0792381m-1.7782857 3.0499048c-.0266666 0-.0540952-.0060952-.08-.0190476-.0868571-.0449524-.1211428-.1516191-.0769524-.2384762.2704762-.5257143.5569524-1.0499048.8525715-1.5573334.0487619-.0838095.1577143-.1127619.2415238-.064.0838095.0495239.1127619.1577143.064.2415239-.2925715.5028571-.5767619 1.0201904-.8441905 1.5413333-.0312381.0609524-.0929524.096-.1569524.096m-1.4430476 3.2220952c-.0213333 0-.0426667-.0030476-.064-.0114285-.0906667-.0358096-.136381-.1379048-.1005714-.2285715.2118095-.5508571.4419047-1.1017143.6834285-1.6388571.0388572-.0891429.144-.1287619.232381-.0891429.0891429.0396191.1295238.1447619.0891429.2339048-.2377143.5310476-.4655239 1.0765714-.6758096 1.6213333-.0266666.0700953-.0937143.1127619-.1645714.1127619m-1.1001905 3.3554286c-.016 0-.0312381-.0022857-.0464762-.0060952-.0944762-.0259048-.1500952-.1226667-.1241904-.2171429.1539047-.567619.3253333-1.1398095.5089523-1.7005714.0304762-.0929524.1302858-.1424762.2232381-.1127619.0921905.0304762.1424762.1302857.112.2232381-.1813333.5539047-.3512381 1.1207619-.503619 1.6830476-.0213333.0777143-.0929524.1302857-.1699048.1302857m-.7626666 3.4460952c-.0106667 0-.0205715-.0007619-.0304762-.0022857-.096-.0167619-.1607619-.1081905-.144-.2041905.1020952-.583619.2179047-1.1687619.343619-1.7401904.0220953-.0952381.1158095-.1554286.2110476-.1340953.0952381.0205715.1554286.1150477.1340953.2102857-.1249524.5660953-.2392381 1.1466667-.3405715 1.7249524-.0152381.0853334-.0899047.1455238-.1737142.1455238m-.4632381 3.5009524c-.0053334 0-.0114286 0-.016-.0007619-.0975238-.0091428-.1691429-.0944762-.16-.192.0540952-.5904762.1203809-1.184.1965714-1.7622857.0121905-.096.0998095-.1645714.1973333-.151619.0967619.0129523.1653334.1013333.152381.1980952-.0754286.5737143-.1409524 1.1611428-.1942857 1.7478095-.008381.0921905-.0860953.1607619-.176.1607619m-.1889524 3.5268572h-.0038095c-.0975239-.0022858-.1744762-.0830477-.1729524-.1805715.0099047-.5935238.0312381-1.1893333.0624762-1.7714285.0053333-.0967619.0883809-.1706667.1859047-.1660953.0967619.0045715.1714286.088381.1668572.1859048-.0304762.5767619-.0518096 1.1687619-.0617143 1.7577143-.0015238.0967619-.0807619.1744762-.1767619.1744762m.0548571 3.5314285c-.0929524 0-.1706666-.0739047-.1752381-.1683809-.0289524-.5942857-.048-1.1908572-.0571428-1.7706667-.0015238-.0975238.0761904-.1782857.1737143-.1805714h.0030476c.096 0 .1752381.0777143.1767619.1744762.0083809.5767619.0281905 1.1687619.0563809 1.7592381.0045715.0975238-.0708571.1805714-.1683809.1851428-.0030476.0007619-.0060953.0007619-.0091429.0007619m.2704762 3.5215238c-.0891428 0-.1660952-.0678095-.176-.1584761-.0617143-.592-.1150476-1.1855239-.16-1.7638096-.0068571-.0975238.0655238-.1820952.1622857-.1897143.0975238-.007619.1828572.0647619.1897143.1622858.0449524.5752381.0982857 1.1657142.16 1.7546666.0099048.0967619-.0601905.1836191-.1577143.1935238-.0060952.0007619-.0121904.0015238-.0182857.0015238m.4556191 3.5017143c-.0868572 0-.1615238-.0624762-.1752381-.1493333-.0899048-.5866667-.1744762-1.1771429-.2491429-1.7531429-.0129524-.0967619.0556191-.1851428.152381-.1980952.0967619-.0114286.1851428.056381.1980952.1531429.0739048.5729523.1577143 1.159619.247619 1.7447619.0152381.096-.0502857.1859047-.1470476.2003809-.0091428.0015238-.0182857.0022857-.0266666.0022857m.6110476 3.4788572c-.0822857 0-.1561905-.0579048-.1721905-.1424762-.1158095-.584381-.2247619-1.1695238-.3253333-1.7394286-.0175238-.096.0472381-.1874286.1432381-.2049524.096-.016.1874285.0472381.2049523.1432381.0998096.5676191.208 1.1512381.3230477 1.7325715.0190476.096-.0434286.1889523-.1394286.208-.0106667.0022857-.0228571.0030476-.0342857.0030476m.7443809 3.4529524c-.0807619 0-.1523809-.0548572-.1721904-.1371429-.1348572-.5790476-.2651429-1.160381-.3878096-1.7249524-.0198095-.096.040381-.1897143.1356191-.2102857s.1897143.039619.2102857.1348571c.1219048.5638096.2514286 1.1428572.3862857 1.720381.0220952.0952381-.0365714.1904762-.1318095.2118095-.0137143.0038095-.0274286.0053334-.040381.0053334" fill="#4a75ff"/><path d="m59.4966857 151.345067-.5965714-.681143c.0998095-.086857 10.0289524-8.946286 18.9211428-28.961524 8.9782858-20.214857 22.7580949-32.6681905 22.8967619-32.791619l.604191.6750476c-.137143.1226666-13.7775243 12.4548574-22.6735243 32.4838094-8.9805714 20.215619-19.0506667 29.18781-19.152 29.275429" fill="#69def9"/><path d="m103.645486 87.108419c4.444952 3.4148572-8.4281908 8.2064762-8.4281908 8.2064762s2.5638096-12.7123809 8.4281908-8.2064762" fill="#69def9"/><path d="m98.4668952 102.022857c-.0594285 3.896381-8.0761904-1.293714-8.0761904-1.293714s8.1554285-3.8483811 8.0761904 1.293714" fill="#69def9"/><path d="m87.8754286 93.3763048c3.3554285-1.9824762 3.1093333 7.5649522 3.1093333 7.5649522s-7.5375238-4.9500951-3.1093333-7.5649522" fill="#69def9"/><path d="m94.5561905 114.161981c.3131428 5.754667-12.0472381-1.077333-12.0472381-1.077333s11.6342857-6.51581 12.0472381 1.077333" fill="#69def9"/><path d="m90.4192762 123.912762c.3321905 6.099809-12.7695238-1.142095-12.7695238-1.142095s12.3321905-6.905905 12.7695238 1.142095" fill="#69def9"/><path d="m84.2540952 134.990171c.3169524 5.824-12.1904762-1.090285-12.1904762-1.090285s11.7721905-6.592762 12.1904762 1.090285" fill="#69def9"/><path d="m76.5301333 143.920914c1.3638096 5.670857-12.1874285 1.130667-12.1874285 1.130667s10.3878095-8.61181 12.1874285-1.130667" fill="#69def9"/><path d="m78.0495238 104.27581c4.0457143-2.793905 4.5881905 9.241142 4.5881905 9.241142s-9.9260953-5.554285-4.5881905-9.241142" fill="#69def9"/><path d="m70.8456381 115.455924c2.8998095-3.970286 7.3752381 7.215238 7.3752381 7.215238s-11.2015238-1.977143-7.3752381-7.215238" fill="#69def9"/><path d="m66.3493333 125.347276c3.5855238-3.363809 5.9100953 8.457143 5.9100953 8.457143s-10.6407619-4.019809-5.9100953-8.457143" fill="#69def9"/><path d="m62.2809143 134.93059c4.5539047-1.853714 2.4830476 10.014477 2.4830476 10.014477s-8.4914286-7.568762-2.4830476-10.014477" fill="#69def9"/><path d="m46.9624381 124.133714-1.2198095.028953c-.0030476-.177524-2.6689524-20.879238-16.8076191-44.0708575-15.5139047-25.4468571-14.1226666-51.7523809-14.1318095-52.0030476l1.2205714-.0403809c.0076191.2468571-1.3523809 26.2841904 14.0053334 51.5047619 15.5580952 25.5504761 16.9295238 44.4007621 16.9333333 44.5805711" fill="#c0edff"/><path d="m14.978819 24.3926857c7.3714286-1.6464762 1.2076191 15.8041905 1.2076191 15.8041905s-10.93333334-13.632-1.2076191-15.8041905" fill="#c0edff"/><path d="m25.4721524 42.2006857c3.9786666 3.4278095-8.3131429 7.2342857-8.3131429 7.2342857s3.064381-11.7569524 8.3131429-7.2342857" fill="#c0edff"/><path d="m7.34712381 46.321981c.84952381-5.1824762 10.50895239 3.3188571 10.50895239 3.3188571s-11.62895239 3.5184762-10.50895239-3.3188571" fill="#c0edff"/><path d="m34.9907048 56.8852571c6.2217142 4.6476191-11.52 11.5268572-11.52 11.5268572s3.312-17.6586667 11.52-11.5268572" fill="#c0edff"/><path d="m40.3374476 69.0489143c7.5657143 3.2419047-9.0041905 14.7405714-9.0041905 14.7405714s-.9782857-19.0179047 9.0041905-14.7405714" fill="#c0edff"/><path d="m48.9036952 84.715581c7.8125715 3.6274285-9.8788571 15.1382857-9.8788571 15.1382857s-.4289524-19.9230477 9.8788571-15.1382857" fill="#c0edff"/><path d="m56.3218286 103.127771c6.183619 4.848-11.9268572 11.388191-11.9268572 11.388191s3.7676191-17.785143 11.9268572-11.388191" fill="#c0edff"/><path d="m10.415619 64.8026667c.6049524-6.5958096 13.5192381 3.2373333 13.5192381 3.2373333s-14.31771424 5.4666667-13.5192381-3.2373333" fill="#c0edff"/><path d="m18.2184381 81.9365333c-.5401905-6.6026666 13.8750476.8594286 13.8750476.8594286s-13.1619047 7.8514286-13.8750476-.8594286" fill="#c0edff"/><path d="m25.1685333 96.3517714c.4899048-7.2198095 14.848 3.1847619 14.848 3.1847619s-15.4948571 6.3413337-14.848-3.1847619" fill="#c0edff"/><path d="m32.0859429 108.199924c2.0167619-6.310095 12.4998095 6.082286 12.4998095 6.082286s-15.160381 2.243047-12.4998095-6.082286" fill="#c0edff"/><path d="m226.706514 16.822019c0 9.2236191-50.749714 16.7017143-113.353143 16.7017143-62.6034281 0-113.35390433-7.4780952-113.35390433-16.7017143 0-9.2243809 50.75047623-16.70247614 113.35390433-16.70247614 62.603429 0 113.353143 7.47809524 113.353143 16.70247614" fill="#ebfaff" mask="url(#b)" transform="translate(0 126.47619)"/><path d="m9.80990476 109.012419c14.17752384-12.2300952 40.12266664 27.379048 39.57028574 30.344381-3.2662857-2.902095-8.0655238-7.158095-15.0940953-13.376-11.799619-10.438857-19.9055238-14.994286-24.47619044-16.968381" fill="#76abff"/><path d="m33.8240762 126.502781c6.8609524 6.069333 11.5931428 10.265905 14.8518095 13.160381-5.9862857.204952-48.35047618-15.089524-42.22780951-26.308572.85409524-1.565714 1.78895238-2.816761 2.78476191-3.80038 4.4609524 1.893333 12.6659048 6.398476 24.5912381 16.948571" fill="#4a75ff"/><path d="m48.6760381 139.663467c-3.2586667-2.895238-7.9908571-7.09181-14.8518095-13.160381-11.9260953-10.550096-20.1302857-15.055238-24.59200003-16.949334.1912381-.18819.38247619-.373333.57752381-.541714 4.57066662 1.974095 12.67657142 6.530286 24.47619052 16.968381 7.0285714 6.217905 11.8285714 10.473905 15.0940952 13.376762-.0076191.038095-.016.076952-.032.102857-.0807619.126476-.3146667.191238-.672.203429" fill="#fff"/><path d="m40.2198857 136.946971c-10.6499047-2.182857-27.6845714-4.511238-33.68685713-5.305142 3.86057143-14.837334 30.94400003 1.983238 33.68685713 5.305142" fill="#76abff"/><path d="m6.23626667 133.133714c.04647619-.329904.10438095-.643047.16914285-.947809 5.99161908.792381 23.30666668 3.155809 33.94209528 5.353905-2.0540953 2.061714-36.0106667 9.232761-34.11123813-4.406096" fill="#4a75ff"/><path d="m40.4475429 137.381486c-.0068572.048-.0449524.102095-.1005715.158476-10.6346666-2.198095-27.9497143-4.561524-33.94209521-5.353905.03961905-.185905.08228571-.368.128-.544 6.00228571.793905 23.03771431 3.121524 33.68685711 5.305143.1592381.192.2415238.341333.2278096.434286" fill="#fff"/><path d="m44.5718095 129.3376c-4.3291428-9.972571-12.2057143-25.255619-15.0011428-30.6255238 14.3634285-5.36 16.1455238 26.4723808 15.0011428 30.6255238" fill="#76abff"/><path d="m28.1782095 99.3264762c.296381-.1516191.5866667-.2841905.8731429-.4068572 2.7923809 5.360762 10.8 20.893714 15.1078095 30.862476-2.8670476-.497524-28.2377143-24.179809-15.9809524-30.4556188" fill="#4a75ff"/><path d="m44.3463619 129.773638c-.0441905.022095-.1097143.022095-.1874286.008381-4.3070476-9.968762-12.3154285-25.501714-15.1078095-30.8624761.1744762-.0746667.3481905-.144.5188572-.208 2.7961904 5.3699051 10.6727619 20.6537141 15.0019047 30.6262861-.0662857.24-.1424762.393142-.2255238.435809" fill="#fff"/><path d="m52.5316571 126.121067c-.0060952-.000762-.0114285-.000762-.0167619-.001524-4.3801904-.212572-7.9657142.944-10.656 3.438476-3.6243809 3.36-4.9333333 8.447238-5.3980952 12.072381 1.04.054857 2.1592381.105143 3.335619.154667.520381-2.434286 1.5870477-5.264762 3.776762-7.295238 2.0723809-1.921524 4.8121904-2.812953 8.1424761-2.651429.0045715 0 .008381.000762.0129524.000762 5.6670476.278095 9.6601905 2.454095 11.8712381 6.467048.7527619 1.364571 1.1885714 2.777142 1.4346667 4.052571 1.9687619.016762 3.8369524.025905 5.5527619.027429-.2087619-2.523429-.9699048-6.137143-3.2571429-9.321143-3.0712381-4.27581-8.0502857-6.612572-14.7984762-6.944" fill="#94ebff"/><path d="m53.2593524 112.485714c-24.7961905-1.204571-24.6765714 26.849524-24.7451429 28.247619-.0106666.22781 1.3539048.43581 3.6380953.622477.3245714-4.630096 1.7226666-12.969905 7.3866666-18.221715 3.6182857-3.355428 8.4114286-4.913524 14.2453334-4.630095.0083809.000762.0167619.000762.023619.001524 9.9626667.489143 16.9790476 4.302476 20.856381 11.334857 2.5752381 4.672 3.0834285 9.647238 3.047619 12.480762 1.6624762-.044191 2.6529524-.110476 2.7047619-.202667.3832381-.678857 2.7855238-28.178286-27.1573333-29.632762" fill="#94ebff"/><path d="m41.2251429 128.873295c2.88-2.671238 6.6940952-3.910857 11.3340952-3.685333.0060952 0 .0129524 0 .0182857.000762 7.9131429.388571 13.4887619 3.42019 16.5706667 9.013333 1.5900952 2.88381 2.1820952 5.912381 2.3535238 8.183619 2.0540952-.002286 3.8537143-.016 5.2868571-.043428.0274286-2.937905-.5295238-8.83581-4.1089524-13.920762-3.8979047-5.535238-10.2628571-8.558476-18.9180952-8.984381-.007619 0-.0137143-.000762-.0213333-.000762-5.5756191-.270476-10.1394286 1.203809-13.5664762 4.381714-5.4354286 5.039238-6.7779048 13.117714-7.0910476 17.609143.743619.052571 1.5603809.104381 2.4441904.153905.4769524-3.776762 1.8468572-9.136762 5.6982858-12.70781" fill="#94ebff"/><path d="m62.000381 137.532571c-2.16-2.929523-5.632-4.531047-10.3177143-4.761142-.0045715-.000762-.008381-.000762-.0121905-.000762-3.0704762-.149334-5.5817143.659047-7.4628572 2.403809-1.9748571 1.830857-2.967619 4.396953-3.4666666 6.648381 6.9714286.272 15.7950476.454095 23.3539047.526476-.3215238-1.514666-.9363809-3.246476-2.0944761-4.816762" fill="#1ac1f3"/><path d="m53.8076952 118.505752c-.0068571-.000762-.0152381-.000762-.0228571-.001523-5.8339048-.283429-10.6278095 1.274666-14.2460952 4.629333-5.664 5.252571-7.0620953 13.592381-7.3866667 18.221714.295619.024381.6049524.048.9310476.071619.312381-4.491428 1.6556191-12.569143 7.0902857-17.608381 3.4278095-3.177904 7.9916191-4.652952 13.5664762-4.381714.0076191 0 .0144762.000762.0213333.000762 8.656.425143 15.0201905 3.448381 18.9188572 8.984381 3.5794286 5.08419 4.135619 10.982857 4.1081905 13.92.3291428-.006095.6346666-.012953.9234285-.020572.0358096-2.833523-.4723809-7.808761-3.047619-12.480761-3.8773333-7.033143-10.8937143-10.845715-20.856381-11.334858" fill="#1ac1f3"/><path d="m41.8590476 129.557867c2.6902857-2.493715 6.2750476-3.651048 10.6552381-3.438477l.0228572-.465523-.0228572.465523c.0060953.000762.0114286.000762.0175238.001524 6.7481905.331429 11.7264762 2.668191 14.7984762 6.944762 2.2872381 3.183238 3.048381 6.796953 3.2571429 9.320381h.9142857c-.1714286-2.272-.7634286-5.299809-2.3535238-8.183619-3.0826667-5.593143-8.6575238-8.625524-16.5706667-9.013333-.0053333-.000762-.0121905-.000762-.0182857-.000762-4.64-.225524-8.4540952 1.014095-11.3340952 3.685333-3.8514286 3.570286-5.2213334 8.930286-5.6982858 12.707048.304.017524.6148572.033524.9340953.050286.464-3.625905 1.7737143-8.713143 5.3980952-12.073143" fill="#1ac1f3"/><path d="m51.7288381 131.839086c-.0045714 0-.0091429-.000762-.0137143-.000762l-.0220952.465524.0220952-.465524c-3.3302857-.161524-6.0693333.729905-8.1417143 2.651428-2.1897143 2.031238-3.2571428 4.860953-3.7767619 7.295238.3108572.012191.6247619.025143.944.038096.4990476-2.252191 1.4918095-4.818286 3.4674286-6.648381 1.8811428-1.744762 4.3923809-2.553905 7.4628571-2.40381.0038096 0 .0076191 0 .0114286.000762 4.6864762.229333 8.1577143 1.831619 10.3177143 4.761143 1.1580952 1.569524 1.7737143 3.302095 2.0944762 4.816762.3154286.003809.6300952.006095.9401905.009143-.2460953-1.275429-.6826667-2.688-1.4346667-4.052572-2.2110476-4.012952-6.2049524-6.188952-11.8712381-6.467047" fill="#1ac1f3"/><path d="m194.598629 50.4403048c-1.013334 3.184-2.124953 6.6095238-3.297524 10.2247619-1.118476 3.4445714-2.303238 7.1032381-3.512381 10.8868571l-16.43581-17.6975238c.85181-10.4921905-1.464381-21.5337143-1.104-28.7329524.073143-1.4506666.520381-4.0510476 1.465143-7.0422857l25.369905 16.9699048c-.179048 5.184-.909714 10.4350476-2.485333 15.3912381" fill="#c0edff"/><path d="m193.460952.24457143c12.595048 1.06590476 19.053715 9.56647619 22.176 19.62514287l-16.906666 13.1177143c.096-14.2666667-3.638857-27.61295241-5.269334-32.74285717" fill="#c0edff"/><path d="m192.833752 61.1627429c1.173334-3.6182858 2.286477-7.0468572 3.300572-10.2346667 1.627428-5.1154286 2.374857-10.5310476 2.554666-15.8689524l17.432381-13.5245714c1.274667 4.7047619 1.879619 9.6678095 2.078477 14.3192381.332952 7.7927619-2.181334 16.4792381-5.238096 24.759619-9.126095 3.2068572-19.382857 8.5973334-23.439238 10.808381 1.139048-3.5596191 2.255238-7.0049524 3.311238-10.2590476" fill="#c0edff"/><path d="m197.121676 33.136-24.870857-16.6369524c2.705524-7.49790474 8.438095-16.5150476 18.957714-16.3718095.181334.00304761.351238.01752381.529524.02285714 1.476572 4.52571428 5.516953 18.29638096 5.383619 32.98590476" fill="#c0edff"/><path d="m175.758629 113.573486c-3.206858-5.511619-13.222858-22.8754289-18.078477-32.969905 3.698286-4.2460953 7.302858-8.1424762 10.091429-13.36 1.853714-3.4697143 2.854857-7.3074286 3.353143-11.2655239l16.101333 17.336381c-4.008381 12.6019048-8.253714 26.6506667-11.467428 40.2590479" fill="#c0edff"/><path d="m142.642514 108.570514c3.261715-13.1908569 8.594286-20.4479997 13.889524-26.6384759 5.644191 11.6022857 17.170286 31.3272379 18.701714 33.9405719-1.695238 7.433904-3.060571 14.697904-3.878857 21.481142-14.265143-.136381-27.239619-.384762-27.952-.365714-1.601524.043429-6.543238-5.031619-.760381-28.417524" fill="#c0edff"/><path d="m188.809219 73.6553143c1.892571-1.0537143 13.260952-7.3005714 23.411048-11.0628572-3.529143 9.2533334-7.518477 17.8544762-8.685715 23.9215239-1.491047 7.7462857-1.227428 12.5874285.234667 17.2-7.900952 5.936762-22.283429 9.836952-26.600381 10.913524 3.231238-13.819429 7.560381-28.1485717 11.640381-40.9721907" fill="#c0edff"/><path d="m204.319619 105.292952c.806857 2.143238 1.855238 4.302477 3.101714 6.750477 4.22781 8.298666 3.017905 22.950095 2.060191 24.578285-.515048.876191-19.149714.902857-36.502857.747429.807619-6.627048 2.137904-13.718095 3.791238-20.982095 3.114666-.732953 18.633143-4.617143 27.549714-11.094096" fill="#c0edff"/><g fill="#fff"><path d="m187.789105 71.5518476c1.209143-3.783619 2.393905-7.4422857 3.511619-10.8868571 1.172571-3.6152381 2.28419-7.0407619 3.298286-10.2247619 1.575619-4.9561905 2.306285-10.2072381 2.484571-15.3912381l.869333.5813333.736-.5706667c-.179809 5.3371429-.927238 10.7527619-2.554666 15.8689524-1.014096 3.1870476-2.127238 6.6156191-3.300572 10.2339048-1.056 3.2548571-2.171428 6.6994286-3.311238 10.2590476-.496762.2712381-.931809.5104762-1.22819.6750476z"/><path d="m198.730362 32.9872-.848.6575238-.760381-.5089524c.132571-14.6895238-3.907048-28.46019045-5.384381-32.98590473.585905.01752381 1.161905.04723809 1.723429.09447619 1.630476 5.13066666 5.365333 18.47619044 5.269333 32.74285714"/><path d="m175.758629 113.573486c3.213714-13.6083812 7.459047-27.6571431 11.467428-40.2590479l.752.8099048.553905-.3139048c.011428-.0068571.110476-.0624762.277333-.1554286-4.080762 12.8236191-8.409143 27.1527615-11.640381 40.9729525-.267428.066286-.508952.125714-.696381.170667-.169904-.29181-.415238-.713143-.713904-1.225143"/><path d="m175.383619 116.127771.297143.505905.573714-.128c.073143-.016.250667-.056381.515048-.118857-1.653334 7.264-2.983619 14.35581-3.790476 20.982095-.543238-.004571-1.084191-.009904-1.624381-.015238.818285-6.783238 2.183619-14.047238 3.879619-21.481143.068571.116572.122666.208762.149333.255238"/><path d="m197.083733 35.0489143-25.369904-16.9691429c.163047-.5165714.343619-1.0453333.537142-1.5809524l24.870858 16.6369524c-.006096.6361905-.016 1.2739048-.038096 1.9131429"/><path d="m198.730362 32.9872 16.906667-13.1177143c.171428.5508572.333714 1.1055238.484571 1.6655238l-17.433143 13.5245715c.023619-.6918096.037333-1.3836191.041905-2.072381"/><path d="m197.083733 35.0489143c.022096-.6392381.032-1.2769524.038096-1.9131429l.760381.5089524.848-.6575238c-.004572.6887619-.018286 1.3798095-.041905 2.072381l-.735238.5706666z"/><path d="m187.225829 73.3145143-16.101334-17.336381c.088381-.7047619.171429-1.4110476.228572-2.1234285l16.435809 17.6975238c-.18819.5866666-.374095 1.1687619-.563047 1.7622857"/><path d="m189.522743 71.4217143c4.055619-2.2102857 14.313143-7.6015238 23.439238-10.808381-.245333.6628572-.491429 1.3234286-.742095 1.9794286-10.149334 3.7622857-21.517715 10.0091429-23.411048 11.0628571.239238-.752.476191-1.4925714.713905-2.2339047"/><path d="m187.978057 74.1240381-.752-.8091429c.188953-.5942857.374857-1.175619.563048-1.7630476l.505143.5447619c.296381-.1645714.731428-.4038095 1.22819-.6750476-.236952.7413333-.474667 1.4819048-.713143 2.2339048-.166857.0929523-.265905.1478095-.277333.1546666z"/><path d="m177.168533 114.62781c4.316953-1.076572 18.699429-4.976762 26.600381-10.913524.166857.527238.352762 1.053714.550857 1.578666-8.916571 6.476953-24.435809 10.361143-27.549714 11.094096.133333-.586667.260572-1.171048.398476-1.759238"/><path d="m175.234057 115.87261c-1.53219-2.613334-13.058286-22.3382862-18.701714-33.9405719.383238-.448.766476-.8899048 1.14819-1.3287619 4.854857 10.0944762 14.870857 27.4582858 18.077715 32.9699048-.181334.770286-.349715 1.532952-.524191 2.299429"/><path d="m176.472914 114.798933c.186667-.045714.428191-.105143.695619-.171428-.137904.588952-.265143 1.172571-.398476 1.759238-.265143.062476-.441905.102857-.515809.118857l-.573715.128-.297143-.505905c-.026666-.045714-.080761-.138666-.149333-.255238.175238-.766476.342857-1.529143.524953-2.298667.297904.511239.543238.932572.713904 1.225143"/></g><path d="m190.382095 109.982705c2.049524-.813715 3.871238.987428 4.900572 2.746666.792381 1.355429 1.44 2.838096 2.816762 3.736381.522666.342096 1.139047.550858 1.766095.534858 2.305524-.059429 2.938666-2.639239 2.190476-4.413715-.627048-1.486476-1.921524-2.571428-3.06819-3.714285-3.007239-2.99962-5.226667-6.768-6.383239-10.8396195-.729904-2.5691429-.992761-5.5352381.982858-7.6114286 1.026285-1.0788571 2.612571-1.5352381 3.999238-.9805714 1.702857.6803809 2.024381 2.3245714 2.294095 3.8369524.224762 1.2624761.505905 2.6179047 1.598476 3.4011428.701714.5028572 1.670857.5805714 2.328381.0205714.662095-.5622857.584381-1.4057142.537905-2.1752381-.288762-4.8099047 1.410286-9.7074285 4.622476-13.328 1.753143-1.9771428 4.761143-3.6495238 6.916571-1.8590476.552381.4601905.937143 1.0971429 1.145905 1.7828572.49981 1.6472381.121143 3.2982857-.254476 4.9089524l-2.057143 8.8129523c-.195047.8388572.753524 1.4758096 1.467429.9859048l6.141714-4.2156191c.569905-.391619 1.228952-.6575238 1.920762-.6994285 2.268952-.1417143 2.913524 1.8102857 2.940952 3.4780952.059429 3.6746667-1.907047 7.1489523-4.52419 9.7569523-2.616381 2.608-5.856762 4.495238-9.016381 6.424381-.982095.599619-2.009905 1.256381-2.361905 2.411429-.198857.656762-.062476 1.401142.458667 1.852952.877714.760381 2.110476.235429 3.021714-.36419 2.822095-1.860572 5.170286-4.483048 8.607238-5.26781 1.219048-.279619 2.512762-.229333 3.670095.239238 3.608381 1.461333 3.420191 5.309714 1.710477 7.779048-1.800381 2.601143-4.488381 4.309333-7.038477 6.109714-5.121523 3.616762-12.241523 10.143238-19.117714 8.075429-4.025905-1.206096-7.563428-4.262096-10.117333-7.488762-1.883429-2.378667-3.244953-5.145143-3.900953-8.101334-.326857-1.494095-.481523-3.088.309334-4.492952.334476-.595048.854095-1.088762 1.491809-1.342476" fill="#1e41d3"/><path d="m209.732571 91.3569524c.098286.0182857.161524.1127619.142477.2095238-3.078858 16.0297138-3.999238 32.4479998-2.735238 48.7992378.006857.099048-.067048.185143-.165334.192-.004571.001524-.009905.001524-.014476.001524-.092952 0-.170667-.072381-.178286-.166095-1.266285-16.382476-.343619-32.832762 2.741334-48.8937144.018285-.0967619.113523-.16.209523-.1424762" fill="#5f8dff"/><path d="m196.147733 94.5146667c.092953-.0358096.196572.0106666.232381.103619.779429 2.0373333 1.663238 4.3466667 2.969905 6.3375243.996571 1.517714 2.706286 3.525333 5.193143 4.467809 3.088762 1.17181 7.075048.435048 10.402286-1.923809 3.043809-2.159239 5.256381-5.2243814 7.396571-8.1889529.057905-.08.170667-.0990476.250667-.0403809.080762.0579048.099047.1706667.041143.2499048-2.157715 2.9881904-4.38781 6.078476-7.481905 8.272-2.341334 1.66019-5.006476 2.537905-7.480381 2.537905-1.143619 0-2.245333-.186667-3.256381-.570667-2.576-.976762-4.33981-3.044571-5.364572-4.606476-1.329523-2.0236192-2.22019-4.352762-3.005714-6.4060954-.035809-.0929524.010667-.1965714.102857-.2323809" fill="#5f8dff"/><path d="m193.344914 116.654552c.086096-.048762.196572-.017523.244572.068572 1.686095 3.001905 4.423619 7.158857 8.711619 8.590476 3.659428 1.222857 8.14019.27581 11.985524-2.529524l.736-.535619c3.26019-2.371809 6.339809-4.612571 9.566476-7.923809.069333-.070096.182095-.071619.252952-.003048.071619.069333.073143.183619.00381.253714-3.247238 3.333334-6.339048 5.582476-9.611429 7.963429l-.736.535619c-2.800762 2.042667-5.938286 3.121524-8.871619 3.121524-1.191619 0-2.350476-.178286-3.44-.540953-4.405333-1.471238-7.195429-5.702095-8.909714-8.755809-.048762-.086857-.018286-.196572.067809-.244572" fill="#5f8dff"/><path d="m186.368 112.151619c.403048-.130286.838857-.124952 1.251048-.027429l4.447238 1.050667c.516571.121905.913524-.456381.613333-.895238l-3.156571-4.608c-.576762-.841143-1.165715-1.705905-1.251048-2.765714-.03581-.440381.038857-.892953.250667-1.280762.822857-1.512381 2.912762-1.223619 4.356571-.478476 2.644572 1.363047 4.715429 3.800381 5.634286 6.630095.147047.452571.292571.955428.79619 1.129905.501334.175238 1.035429-.086096 1.321905-.532572.446476-.694095.299429-1.537524.143238-2.313143-.187428-.929523-.092952-2.284952.441905-2.719238.489143-.396952 1.910857-.559238 2.498286-.330666 1.104762.428952 2.110476 2.516571 2.274285 4.156952.259048 2.599619-.155428 5.262476-1.192381 7.660952-.395428.913524-.888381 1.826286-.910476 2.822096-.025905 1.186285.916572 2.528 2.242286 2.047238.360381-.131048.664381-.388572.885333-.703238.580572-.824381.616381-1.820953.761905-2.777905.189714-1.241905.820571-2.684953 2.170667-2.675048.420571.002286.827428.170667 1.152.437334.767238.632381 1.037714 1.583238 1.189333 2.515047.291048 1.846857.139429 3.741714-.39619 5.530667-.72762 2.427428-2.053334 4.975238-4.074667 6.569143-3.448381 2.726857-8.88381 1.400381-12.614095.467047-1.858286-.464762-3.862858-1.68-5.474286-2.773333-1.529143-1.037714-2.503619-3.207619-.777905-4.854857.553143-.529524 1.278476-.846476 2.03581-.959238 2.133333-.317715 4.061714.665905 6.087619 1.103238.654476.142476 1.473524.168381 1.802666-.465524.195048-.375619.105143-.835048-.156952-1.168-.460952-.585905-1.193143-.732952-1.888-.857905-2.233143-.403047-4.503619-.763428-6.580571-1.678476-2.076953-.914286-3.980191-2.471619-4.774096-4.598095-.361143-.965333-.432762-2.230857.890667-2.657524" fill="#3369f0"/><path d="m194.670781 109.0608c.106667-.065524.246095-.034286.313905.071619 5.380571 8.553905 9.616762 17.817143 12.589714 27.529905.03581.119619-.031238.247619-.151619.28419-.012191.00381-.025143.005334-.037333.006857-.108191.014477-.214096-.050285-.246858-.158476-2.960761-9.674666-7.18019-18.899809-12.539428-27.42019-.067048-.106667-.035048-.246095.071619-.313905" fill="#76abff"/><path d="m188.509333 114.156038c1.878096 1.221333 3.820953 2.483048 6.021334 3.038476 2.387047.601905 4.781714.146286 6.247619-1.192381 1.179428-1.076571 1.691428-2.589714 1.913143-3.667809.293333-1.427048.276571-2.944762.262095-4.284191-.002286-.125714.098286-.230857.224762-.229333.125714-.001524.228571.099048.229333.224762.015238 1.362286.033524 2.906667-.270476 4.38019-.234667 1.144381-.781714 2.753524-2.05181 3.912381-.890666.812953-2.090666 1.324953-3.424 1.502477-1.029333.137904-2.137904.074666-3.241904-.204191-2.275048-.574476-4.248381-1.857524-6.158477-3.098667-.105142-.068571-.134857-.209523-.066285-.314666.067809-.105143.208762-.134857.314666-.067048" fill="#76abff"/><path d="m191.498895 125.583924c2.575238 1.178666 4.828953 1.776762 7.216762 2.410666l.535619.142477c2.784762.742857 5.509334.292571 7.287619-1.203048 2.087619-1.755429 2.703238-4.729905 2.983619-6.813714.016762-.124191.131048-.209524.256-.19581.124191.017524.21181.13181.195048.256-.291048 2.159238-.933333 5.244953-3.142095 7.101715-1.015619.854857-2.314667 1.389714-3.753905 1.580952-1.241905.165333-2.586667.074667-3.943619-.285714l-.535619-.143238c-2.406095-.639239-4.678857-1.242667-7.289143-2.437334-.113524-.051047-.164571-.186666-.112-.301714.052571-.112762.18819-.164572.301714-.111238" fill="#76abff"/><path d="m204.0064 123.33981c.199619-.132572.438857-.204191.676571-.180572.762667.072381 1.035429.924952 1.069715 1.637333.026666.548572-.011429 1.113905.268952 1.612191.105905.190476.262095.354286.457905.448762.720762.348952 1.331047-.353524 1.385143-1.025524.046476-.563048-.179048-1.10781-.348953-1.646476-.445714-1.414095-.524952-2.942476-.227047-4.394667.18819-.917333.583619-1.883428 1.526857-2.214095.489905-.173714 1.05219-.062476 1.391238.331428.416.48381.250667 1.046858.090667 1.561143-.133334.428953-.265143.896762-.053334 1.315048.135619.26819.422096.446476.714667.377905.294857-.070096.406095-.345905.515809-.592762.683429-1.544381 1.995429-2.8 3.567239-3.414857.858666-.336762 2.055619-.377905 2.432761.523428.096762.231619.112762.491429.067048.738286-.111238.592762-.493714 1.046857-.867809 1.488762l-2.050286 2.417524c-.19581.230857-.005333.579809.293333.541714l2.572191-.333714c.239238-.032.484571-.009143.704762.087619.722285.318476.608 1.028571.34819 1.553524-.572952 1.153523-1.737143 1.922285-2.963809 2.317714-1.225905.394666-2.528762.466286-3.812572.563809-.4.029715-.822857.070096-1.11619.374096-.167619.172952-.245334.427428-.156953.651428.148572.376381.612572.409143.990476.367238 1.169524-.129524 2.316191-.57219 3.501715-.26819.421333.107428.812952.329143 1.094095.660571.877714 1.029334.201143 2.199619-.723048 2.695619-.973714.522667-2.076952.627048-3.152762.780953-2.160761.310095-5.406476 1.207619-7.194666-.532572-1.048381-1.017905-1.648-2.534095-1.917715-3.947428-.198857-1.040762-.174476-2.119619.099048-3.145143.138667-.517334.347429-1.038476.816762-1.350095" fill="#b0e3ff"/><path d="m213.460952 120.377752c.063238-.080762.179048-.095238.25981-.032.08.063238.093714.178286.031238.25981-3.519238 4.495238-6.436571 9.454476-8.670476 14.739809-.029714.070858-.09981.113524-.172953.112-.022857 0-.046476-.005333-.068571-.014476-.094476-.038857-.138667-.147809-.098286-.242285 2.245334-5.315048 5.179429-10.301715 8.719238-14.822858" fill="#fff"/><path d="m208.96099 119.13821c.101334.01219.174477.103619.163048.205714-.086095.752762-.184381 1.605333-.102095 2.420571.060952.614095.259047 1.485715.852571 2.151619.738286.827429 2.044191 1.219048 3.408762 1.019429 1.264762-.184381 2.432-.781714 3.559619-1.36.090667-.045714.202667-.009905.249143.081524.045714.089904.010667.201143-.080762.248381-1.154286.590476-2.348952 1.203047-3.675428 1.395809-.291048.042667-.578286.060953-.857143.055619-1.168762-.019047-2.208-.441905-2.88-1.194666-.65981-.73981-.877715-1.692191-.944-2.360381-.086857-.854858.013714-1.729524.101333-2.500572.012191-.101333.105905-.17219.204952-.163047" fill="#fff"/><path d="m204.520533 125.588343c.099048-.006095.187429.076952.190477.178286.037333 1.184.208761 2.885333 1.27238 3.984761.904381.93562 2.397715 1.341715 3.996191 1.088l.314667-.050285c1.381333-.218667 2.686476-.423619 4.202666-.937905.096762-.031238.201143.019048.233905.11581.032762.096761-.019048.201904-.115809.233904-1.546667.523429-2.866286.732953-4.262858.953143l-.314666.049524c-.367238.058667-.729143.083809-1.081905.078476-1.296762-.022095-2.460952-.470857-3.238095-1.273905-1.151238-1.190857-1.337143-2.984381-1.375238-4.229333-.003048-.102857.07619-.187429.178285-.190476" fill="#fff"/><path d="m198.845638 132.027352h13.202286c.481524 0 .838857.448.73219.917334l-.489904 2.149333c-.076953.342095-.380953.584381-.731429.584381h-12.224c-.350476 0-.654476-.242286-.732191-.584381l-.489904-2.149333c-.106667-.469334.250666-.917334.732952-.917334" fill="#1ac1f3"/><path d="m210.316648 143.048152c-.072381.49981-.500572.870858-1.004953.870858h-7.729524c-.504381 0-.932571-.371048-1.004952-.870858l-1.062857-7.369904h11.865143z" fill="#1ac1f3"/><path d="m77.1097905 41.8412952-9.0354286 7.8765715-3.3462857-2.1630477-3.1954286-2.0655238z" fill="#4a75ff"/><path d="m77.1097905 41.8412952-18.2834286 2.1150477-5.4841905-1.5550477z" fill="#4a75ff"/><path d="m64.7280762 47.5548952-5.2 2.5272381 2.0045714-4.5927619z" fill="#164bcd"/><path d="m77.1097905 41.8412952-15.5771429 3.648-2.0045714 4.5927619-.7017143-6.1257142z" fill="#1a2982"/><path d="m2.98704762 16.4737524h17.01866668c1.463619 0 2.6613333-1.1969524 2.6613333-2.6605714v-11.15200005c0-1.46361905-1.1977143-2.66133333-2.6613333-2.66133333h-17.01866668c-1.46361905 0-2.66133333 1.19771428-2.66133333 2.66133333v11.15200005c0 1.463619 1.19771428 2.6605714 2.66133333 2.6605714" fill="#69def9" mask="url(#c)" transform="translate(110.47619)"/><path d="m125.984 16.0898286v3.9558095l-9.983238-3.9740952z" fill="#69def9"/><path d="m115.105524 5.44914286h13.734095v-1.52609524h-13.734095z" fill="#fff" mask="url(#d)"/><path d="m115.104762 8.99961905h7.630476v-1.52609524h-7.630476z" fill="#fff" mask="url(#d)"/><path d="m115.104762 12.5508571h10.682667v-1.5260952h-10.682667z" fill="#fff" mask="url(#d)"/><path d="m121.347886 26.481981c-.090667 0-.168381-.0700953-.175238-.1630477-.008381-.0967619.064-.1820952.160762-.1897143.291047-.023619.585904-.0502857.876952-.08.097524-.0099047.182857.0609524.193524.1577143.009143.0975238-.060953.1836191-.157715.1935238-.293333.0297143-.591238.0571429-.883047.0807619-.005334 0-.009905.000762-.015238.000762" fill="#4a75ff" mask="url(#d)"/><path d="m99.2109714 16.3986286c-.0739047 0-.1424762-.0464762-.1668571-.1196191-.032-.0921905.0175238-.1927619.1097143-.224.3939047-.1363809.8129524-.2049524 1.2434284-.2049524h.000762c.199619 0 .401524.0152381.598095.0457143.096762.0144762.162286.1059048.147048.2011429-.014476.0967619-.105143.1630476-.201905.1478095-.178286-.0274286-.361143-.0419048-.543238-.0419048h-.000762c-.391619 0-.7710475.0624762-1.1291427.1859048-.0182857.0060952-.0388572.0099048-.0571429.0099048zm4.4746666 1.9375238c-.064 0-.125714-.0350476-.156952-.096-.272762-.5310476-.629334-.976-1.05981-1.3219048-.075428-.0609524-.088381-.1729524-.027428-.2491428.061714-.0754286.172952-.0876191.248381-.0266667.469333.3771429.857142.8601905 1.152761 1.4361905.044953.0868571.010667.1935238-.07619.2384762-.025905.0129523-.053333.0190476-.080762.0190476zm-6.3779047.768c-.0952381 0-.1737143-.0754286-.176-.1706667-.0015238-.039619-.0022857-.0777143-.0022857-.1165714 0-.4274286.0822857-.8312381.2460953-1.2022857.0731428-.1653334.1638095-.3245715.2681904-.4716191.0579048-.08.1676191-.0975238.2468572-.0411428.0792381.0563809.0982857.1668571.0411428.2460952-.0914285.128-.1699047.2659048-.2331428.4091429-.144.3253333-.216381.6819047-.216381 1.0590476 0 .0350476 0 .0700952.0015238.1051428.0038096.0967619-.0723809.1790477-.1699047.1828572zm6.9074287 2.6994286c-.007619 0-.016762-.000762-.025905-.0015239-.096-.0144761-.163047-.1043809-.148571-.2011428.005333-.0358095.010666-.072381.015238-.1081905.032762-.2499048.049524-.5059048.049524-.7611428 0-.2857143-.021334-.5729524-.062477-.8548572-.014476-.096.052572-.1859048.149334-.199619.096762-.0144762.185905.0525714.200381.1485714.043428.2979048.066285.6026667.066285.9059048 0 .2704761-.018285.5417142-.053333.8068571-.004571.0380952-.009905.0761905-.015238.1142857-.012952.088381-.088381.1508572-.175238.1508572zm-5.2655239.3428571c-.0396191 0-.0784762-.0137143-.1112381-.040381-.192-.1569523-.3718095-.3245714-.5333333-.496-.2544762-.2712381-.4761905-.5737142-.6582857-.9020952-.0472381-.0853333-.016762-.1927619.0685714-.24.0853333-.0472381.1927619-.0167619.2407619.0693333.1668571.3017143.3710476.5813334.6049524.8297143.1531428.1615238.3207619.3184762.5013333.4662857.0746667.0617143.0860952.1721905.024381.248381-.0350477.0426667-.0853334.0647619-.1371429.0647619zm3.1474289 1.6358095c-.020572 0-.041905-.0030476-.062477-.0106666l-.121142-.0464762c-.429715-.1630477-.991238-.3847619-1.536-.6521905-.086858-.0434286-.123429-.1493333-.08-.2369524.042666-.0868571.149333-.1234286.23619-.08.531048.2613333 1.083429.4792381 1.505524.6392381l.120381.0449524c.090667.0342857.137143.1363809.102857.2278095-.026667.0708571-.093714.1142857-.165333.1142857zm3.382095 1.1184762c-.016 0-.032-.0022857-.048762-.0068571-.571429-.1630477-1.146667-.3413334-1.708952-.5272381-.092953-.0304762-.143238-.1302857-.112762-.2232381.030476-.0921905.131047-.1417143.223238-.1112381.558476.1843809 1.129143.359619 1.696.5219047.093714.0266667.147809.1249524.121143.2186667-.022096.0777143-.092953.128-.169905.128zm-2.492191.2255238c-.029714 0-.059428-.007619-.086857-.0228571-.085333-.0487619-.115047-.1561905-.066285-.2415238.313904-.552381.561523-1.0697143.757333-1.5809524.035048-.0906667.137143-.136381.227809-.1020953.091429.0350477.137143.1371429.102096.2285715-.201905.528-.457143 1.0605714-.780191 1.6297143-.032762.0571428-.09219.0891428-.153905.0891428zm5.953524.6179048c-.011428 0-.023619-.0015238-.035047-.0038095-.582858-.1180953-1.170286-.2476191-1.745524-.3885715-.095238-.0228571-.153905-.1180952-.130286-.2133333.022857-.0944762.118095-.152381.213333-.1295238.571429.1386667 1.154286.2681905 1.73181.3855238.095238.0190476.156952.112.137905.2072381-.016.0838095-.089905.1424762-.172191.1424762zm3.516953.5638095c-.006858 0-.014477 0-.021334-.0007619-.589714-.0708571-1.184762-.1539048-1.771428-.248381-.096-.016-.161524-.1059047-.145524-.2026666.014476-.096.105143-.1622857.201905-.1462857.581333.0937143 1.172571.176 1.756952.2460952.096762.0121905.166095.0998095.154667.1965714-.010667.0899048-.086857.1554286-.175238.1554286zm3.551238.2834286h-.007619c-.592762-.0236191-1.193905-.0594286-1.785905-.1074286-.096762-.0068571-.169143-.0921905-.161524-.1897143s.092191-.1699047.189714-.1622857c.587429.0472381 1.183238.0830476 1.772191.1059048.097524.0045714.172952.0860952.169143.183619-.004572.0952381-.082286.1699048-.176.1699048zm1.780571.0350476c-.097524 0-.176762-.0792381-.176762-.1767619s.079238-.1767619.176762-.1767619c.588953 0 1.185524-.0121905 1.773714-.0365714.096762-.0030477.17981.0723809.183619.1699047.00381.0975238-.07238.1798095-.169904.1836191-.592.023619-1.193143.0365714-1.787429.0365714zm-16.810667 1.4392381c-.037333 0-.075428-.0114286-.107428-.0365714-.077714-.0594286-.091429-.1706667-.031238-.248381.336-.4335238.665143-.88.977524-1.328l.070095-.1005714c.055619-.08.164571-.0998095.245333-.0441905.08.0556191.100572.1660952.044953.2453333l-.070096.1020953c-.31619.4525714-.649143.903619-.988952 1.3424762-.035048.0441904-.086857.0678095-.140191.0678095zm-2.3283805 2.695619c-.0441905 0-.0883809-.0167619-.1219047-.0502857-.0708572-.0670476-.0731429-.1790476-.0053334-.2491428.408381-.4259048.8099048-.8662857 1.1931429-1.3104762.064-.0731429.176-.0815238.2491428-.0175238.0739049.064.0822859.1752381.0190477.2491428-.3885715.4487619-.7939048.8937143-1.2060953 1.3234286-.0350476.0358095-.0815238.0548571-.128.0548571zm-2.5965714 2.4373334c-.0495238 0-.0990476-.0213334-.1340952-.0624762-.0632381-.0746667-.0540953-.1859048.0205714-.248381.4495238-.3809524.8944762-.7779047 1.3219047-1.1801904.0716191-.0662858.1836191-.0632381.2506667.0083809.0662857.0708571.0632381.1828571-.0083809.2491429-.4327619.4068571-.8815238.8068571-1.3356191 1.191619-.0335238.0281905-.0746667.0419048-.1150476.0419048zm-2.8304762 2.16c-.0571429 0-.112-.0266667-.1462857-.0769524-.0548572-.08-.0350476-.1904762.0457143-.2453333.4853333-.3329524.9683809-.6826667 1.4361905-1.0384762.0769523-.0594286.1881904-.0441905.247619.0335238.0586667.0769524.0434286.1881905-.0335238.247619-.472381.3596191-.96.712381-1.4506667 1.0491429-.0304762.0205714-.0647619.0304762-.0990476.0304762zm-3.0369524 1.8620952c-.0624762 0-.1226666-.0335238-.1546666-.0921905-.0464762-.0853333-.0152381-.1927619.0700952-.2392381.5158095-.2819047 1.031619-.5798095 1.5344762-.887619.0830476-.0518095.192-.0259048.2422857.0579048.0510476.0830476.0251429.192-.0579048.2430476-.5074285.3108571-1.0285714.6125714-1.5489523.8967619-.0281905.0144762-.0571429.0213333-.0853334.0213333zm-3.2099047 1.5428572c-.0685715 0-.1340953-.0396191-.1622858-.1074286-.0380952-.0899048.0038096-.1935238.0944762-.2316191.5409524-.2270476 1.0849524-.471619 1.6167619-.7268571.0876191-.0426667.1935239-.0053333.2346667.0822857.0426667.088381.0060952.1935238-.0822857.2361905-.5356191.2582857-1.0857143.5051428-1.6327619.7344762-.0220952.0091428-.0449524.0129524-.0685714.0129524zm-3.3516191 1.2045714c-.0761905 0-.1455238-.0502857-.1691428-.1257143-.0281905-.0944762.0251428-.192.1188571-.2209524.5615238-.1683809 1.127619-.3550476 1.6822857-.5546667.0921905-.0327619.1927619.0144762.2255238.1066667s-.0144762.1935238-.1059047.2255238c-.5615238.2019048-1.1329524.3900953-1.7013334.5615238-.016.0053334-.0335238.0076191-.0502857.0076191z" fill="#4a75ff" mask="url(#d)"/><path d="m81.0361143 40.6345143c-.0815238 0-.1546667-.056381-.1729524-.1401905-.0205714-.0952381.040381-.1889524.1356191-.2095238.2841904-.0609524.5721904-.1272381.8563809-.1958095.0944762-.0228572.1904762.0350476.2133333.1295238.0236191.0952381-.0342857.1904762-.1295238.2133333-.2864762.0700953-.5782857.136381-.8655238.1980953-.0129524.0030476-.0251428.0045714-.0373333.0045714" fill="#4a75ff" mask="url(#d)"/><path d="m162.5696 108.612876h-18.612571c-.399239 0-.723048-.323809-.723048-.722286v-3.35238h20.057905v3.35238c0 .398477-.32381.722286-.722286.722286" fill="#1a2982" mask="url(#d)"/><path d="m150.608 131.993143h5.309714v-23.865143h-5.309714z" fill="#1a2982" mask="url(#d)"/><path d="m136.64701 148.295238-.98362-.891428 15.633524-17.25562.983619.891429z" fill="#1a2982" mask="url(#d)"/><path d="m155.041295 148.02659-2.728381-17.329523 1.311238-.206477 2.728381 17.329524z" fill="#1a2982" mask="url(#d)"/><path d="m170.0272 148.295238-15.633524-17.255619.983619-.891429 15.633524 17.25562z" fill="#1a2982" mask="url(#d)"/><path d="m137.924495 148.881524c0 .896-.726095 1.622857-1.622095 1.622857s-1.622095-.726857-1.622095-1.622857.726095-1.622095 1.622095-1.622095 1.622095.726095 1.622095 1.622095" fill="#1a2982" mask="url(#d)"/><path d="m168.748952 148.881524c0 .896.726096 1.622857 1.622096 1.622857.896762 0 1.622857-.726857 1.622857-1.622857s-.726095-1.622095-1.622857-1.622095c-.896 0-1.622096.726095-1.622096 1.622095" fill="#1a2982" mask="url(#d)"/><path d="m156.802514 148.881524c0 .896-.726095 1.622857-1.622095 1.622857s-1.622095-.726857-1.622095-1.622857.726095-1.622095 1.622095-1.622095 1.622095.726095 1.622095 1.622095" fill="#1a2982" mask="url(#d)"/><path d="m139.715429 104.538514h27.017904c.502857 0 .914286-.411428.914286-.914285v-6.1356195c0-.5028571-.411429-.9142857-.914286-.9142857h-27.017904c-.502858 0-.914286.4114286-.914286.9142857v6.1356195c0 .502857.411428.914285.914286.914285" fill="#1e41d3" mask="url(#d)"/><path d="m71.5078095 150.49981h2.5272381l2.8647619-81.5550481h-9.7729524z" fill="#1e41d3" mask="url(#d)"/><path d="m112.101562 150.49981h2.527238l2.864762-81.5550481h-9.772952z" fill="#1e41d3" mask="url(#d)"/><path d="m138.438629 17.9945905c1.764571-.848 10.003809-3.7074286 13.712761 3.0354285 8.614858 15.664 16.352 21.9161905 12.64381 28.9965715-2.910476 5.5550476-14.83581 4.72-21.241905-2.192-5.107047-5.5100953-8.681143-28.1264762-5.114666-29.84" fill="#1a2982" mask="url(#d)"/><path d="m124.254857 66.9291429s-2.217905.1401904-2.586667.1897142c-.866285.1135239-2.620952.5226667-3.536761 0-1.962667-1.1207619-4.906667.5645715-5.405715.232381-.368-.2468571.035048-.6544762.123429-.7375238-1.179429.3923809-2.484572.9561905-2.636953.7420952-.182857-.2567619.088381-.5074285.424381-.7420952.218667-.1539048.589715-.3352381.860191-.4921905-1.171048.5775238-2.558476 1.2769524-2.796952.8792381-.012191-.0198095-.020572-.0419048-.024381-.064-.048-.2201905.66819-.7893333.928761-.9668571 1.400381-.9546667 3.222858-2.3413334 4.208762-2.6377143 1.12381-.3367619 9.936 1.3203809 9.936 1.3203809z" fill="#f4cfb0" mask="url(#d)"/><path d="m111.558476 66.0600381c.234667-.1881905.482286-.3580952.733714-.5226667.249905-.1653333.510477-.3169524.773334-.4617143.264381-.1424761.535619-.2750476.816-.3862857.278857-.1104762.570666-.2102857.873143-.2278095-.072381.0228571-.144762.0396191-.215619.0624762-.070096.0266667-.139429.0510476-.208762.0792381l-.205715.0860952-.201142.0952381c-.266667.1318095-.532572.2666667-.793143.4099048l-.785524.432c-.261333.1447619-.521143.2918095-.786286.4335238" fill="#f4cfb0" mask="url(#d)"/><path d="m112.9104 66.5518476c.416-.3108571.870857-.5645714 1.340952-.7824762.471619-.2118095.968381-.3923809 1.486477-.4464762-.492953.1592381-.963048.3558096-1.430858.5691429-.467047.2125714-.927238.4403809-1.396571.6598095" fill="#f4cfb0" mask="url(#d)"/><path d="m149.81661 63.2230095c-.21181.1066667-.904381 3.9207619-3.317334 4.5241905-3.955047.9889524-10.359619.7154286-15.305905.2529524-.650666-.0632381-1.240381-.1264762-1.750857-.1980953-4.42819-.6201904-5.187809-.8731428-5.187809-.8731428s-.632381-1.6312381-.505905-2.2765714c.296381 0 2.009143-.2910477 4.182857-.5089524 5.283048-.5333334 12.193524-1.9474286 14.344381-2.1264762 0 0 2.714667-.6034286 7.540572 1.2060952" fill="#f4cfb0" mask="url(#d)"/></g><path d="m2.97447619 3.86971429c-1.80952381 12.36800001-2.40152381 20.64685711-2.41371428 20.81371431 3.31885714 1.2060952 5.73257142 1.2060952 7.54209523 1.2060952.02895238-.1287619 3.61904766-11.4620952 2.92419046-20.12038094-.2514286-3.14209524-2.69714284-5.06666667-4.83961903-5.06666667-1.52228571-.0007619-2.89066667.97066667-3.21295238 3.1672381" fill="url(#a)" mask="url(#e)" transform="translate(141.714286 37.333333)"/><g><path d="m94.3888 128.711848c-1.1748571.50819-4.5112381 1.001904-4.7847619 1.823238-.2735238.819809 1.6403809 3.007238 4.1020952 2.733714 2.4601905-.273524 8.7489527-4.101333 10.6636187-4.648381 1.913143-.547048 4.100572-.819809 4.647619-1.640381.547048-.820571.064-3.677714.064-3.677714l-3.007238-1.640381s-8.365714 5.613714-11.685333 7.049905" fill="#1a2982"/><path d="m112.636571 101.427657s-6.353523 14.341333-7.720381 16.802286c-1.367619 2.460952-7.1093329 8.202667-8.2026662 9.023238-1.0940952.820571-4.1013333 2.460952-4.1013333 2.460952s-.5470476.820572 1.9131428.820572c2.4609524 0 5.1954286-1.914667 7.1100957-3.281524 1.913142-1.366857 4.985142-3.403429 7.446095-3.950476 0 0-.396953-3.540572-.064-3.979429 3.619047-4.770286 8.540952-9.965714 10.728381-13.246476 0 0-3.04381-5.559619-7.109334-4.649143" fill="#fcdfc3"/><path d="m134.446095 145.62781c-.559238 1.152-2.766476 3.702095-2.438095 4.502857.326857.8 3.205333 1.209143 4.89219-.603429 1.686858-1.812571 3.956572-8.816 5.050667-10.479238 1.093333-1.662476 2.573714-3.297524 2.452572-4.27581-.120381-.978285-2.349715-2.82819-2.349715-2.82819l-3.350095.717714s-2.678857 9.712-4.257524 12.966096" fill="#1a2982"/><path d="m130.478857 113.044419s4.539429 15.014095 5.108572 17.771429c.569142 2.756571-.038096 10.854857-.331429 12.189714-.294095 1.335619-1.503238 4.540952-1.503238 4.540952s.120381.978286 1.985524-.626285c1.865143-1.606096 2.689524-4.840381 3.248-7.125334.558476-2.28419 1.558857-5.831619 3.067428-7.850666 0 0-2.610285-2.425143-2.643809-2.975239-.369524-5.975619-.027429-13.124571-.510476-17.038476 0 0-5.932953-2.228571-8.420572 1.113905" fill="#fcdfc3"/><path d="m148.022705 78.0853333s-13.493334-3.1702857-21.65181-1.9870476c-6.699428.9714286-12.924952 19.6868572-17.572571 32.2651433 0 0 1.366857 1.914666 7.109333 4.649142 0 0 8.958476-12.182095 10.599619-20.3855234 1.640381-8.2034286 6.289524-3.5550476 7.929905-2.7344762 1.640381.8198096 8.912762 6.0182857 16.842667 7.6594286 7.929904 1.640381 15.670857-1.9611429 15.640381-8.6201905-.025905-5.8133333-2.231619-8.8060952-6.059429-13.1809524z" fill="#1ac1f3"/><path d="m156.596419 97.9455238s-13.777524-.5241905-21.037714-1.0872381c0 0 4.848762 15.3127623 4.575238 22.4220953 0 0-3.82781 3.281524-8.202667 2.187429 0 0-9.252571-26.380191-9.252571-30.2080005 0-3.8285714 4.675047-5.4323809 8.763428-3.399619 4.089143 2.0327619 15.497905 8.0411428 25.154286 10.0853333" fill="#06b3ef"/><path d="m136.755581 26.7074286s.082286 2.1241904-.786286 3.1603809c-.458666.5455238 1.470476 1.6853334 1.470476 1.6853334z" fill="#fcdfc3"/><path d="m143.117943 39.0355048c1.183238-2.5874286-.274286-7.1222858-.274286-7.1222858s5.566476-3.6746666 5.628191-2.656c.281142 4.6156191 1.827047 8.0845715 1.827047 8.0845715l-.067809 1.9885714-4.278857 4.512-5.488 2.2354286-.420572-1.496381s1.890286-2.9584762 3.074286-5.5459047" fill="#fcdfc3"/><path d="m140.183467 35.0585905c-3.387429-.0312381-3.377524-8.5241905-3.926096-11.2617143-.485333-2.4182857 1.855239-4.3375238 1.855239-4.3375238s9.275428-5.3074286 10.394666 7.7287619c.216381 2.519619-3.382095 7.9154286-8.323809 7.8704762" fill="#fcdfc3"/><path d="m136.161829 51.1270095c1.545142-2.8091428 3.881904-6.5455238 3.881904-6.5455238s.665905.1881905 1.809524-.3009524c4.223238-1.8102857 7.239619-5.1283809 8.445714-6.9386666 7.613715 7.8415238 7.034667 11.6053333 7.866667 24.976.712381 11.4567619 3.573333 11.1207619 4.478476 12.6293333.774857 1.2937143-2.938666 3.6586667-5.501714 4.0533333-3.76381.5790477-12.450286 0-13.029333-2.3161904-1.408-5.6312381-4.846477-12.4358096-5.449905-14.8495239-5.456-7.3683809-3.828572-8.2963809-2.501333-10.7078095" fill="#80e7ff"/><path d="m126.23779 66.9291429s-2.217904.1401904-2.587428.1897142c-.865524.1135239-2.620191.5226667-3.536 0-1.963429-1.1207619-4.906667.5645715-5.405714.232381-.368762-.2468571.034285-.6544762.122666-.7375238-1.178666.3923809-2.483809.9561905-2.636952.7420952-.182095-.2567619.089143-.5074285.424381-.7420952.218667-.1539048.589714-.3352381.860952-.4921905-1.171809.5775238-2.558476 1.2769524-2.796952.8792381-.012191-.0198095-.020572-.0419048-.024381-.064-.048-.2201905.66819-.7893333.928762-.9668571 1.400381-.9546667 3.222857-2.3413334 4.208762-2.6377143 1.123809-.3367619 9.936 1.3203809 9.936 1.3203809z" fill="#fcdfc3"/><path d="m150.378362 63.2230095c-.212572.1066667-.905143 3.9207619-3.318095 4.5241905-3.954286.9889524-9.328762.7154286-14.275048.2529524-.649905-.0632381-1.239619-.1264762-1.750857-.1980953-4.427429-.6201904-4.796952-.8731428-4.796952-.8731428s-.632381-1.6312381-.505905-2.2765714c.296381 0 1.619047-.2910477 3.792762-.5089524 5.283047-.5333334 11.955047-1.9718095 13.417904-2.1668572 0 0 2.609524-.5630476 7.436191 1.2464762" fill="#fcdfc3"/><path d="m84.3002667 45.0585905-1.5405715-.2201905c-.1653333-.0228571-.2834285.1546667-.1942857.295619 1.9611429 3.1116191 14.3687619 22.0099048 16.4099048 23.8041905 3.3881907.016 27.5192377.016 29.2579047 0 .548571-.2986666.867048-.8860952 1.068191-1.2830476.118857-.2339048-.054096-.5112381-.316953-.5112381h-29.2205713c-.1158095 0-.2247619-.0563809-.2910476-.151619l-14.9325714-21.7851429c-.0556191-.0807619-.1424762-.1340952-.24-.1485714" fill="#c0ddff"/><path d="m142.9424 61.9767619c3.317333 1.2060952 5.069714 3.3150476 6.045714 4.3878095.389334-.3900952 6.764191-12.8662857 6.069334-21.5245714-.430477-5.3752381-7.020191-7.143619-8.05181-1.8986667-2.112762 10.7466667-4.052571 18.8678096-4.063238 19.0354286" fill="#80e7ff"/><path d="m143.685638 25.9678476s-1.044571.0548572-5.247238-1.3112381c-4.578286-1.4872381-3.565714-4.9485714 0-6.6620952 1.765333-.848 8.368-3.5657143 11.858286 3.0361905 3.163428 5.9832381 2.697143 13.9923809-1.685334 19.3866666-5.479619 6.7428572-7.299047 12.2948572-6.743619 6.7428572.505143-5.0567619 2.360381-9.7775238 5.030096-17.5817143.755809-2.2087619.464761-5.7394286-3.212191-3.6106667" fill="#1a2982"/><path d="m64.3508571 150.49981h2.5272381l2.8647619-81.5550481h-9.7729523z" fill="#4a75ff"/><path d="m119.107581 150.49981h2.527238l2.864762-81.5550481h-9.772952z" fill="#4a75ff"/><path d="m52.7908571 74h81.9870479v-5.0552381h-81.9870479z" fill="#4a75ff" mask="url(#f)"/><g fill="#1ac1f3"><path d="m147.939429 29.8629333-2.05181.8845715c-.684952.2948571-1.486476-.0236191-1.781333-.7093334l-1.652572-3.8354285c-.295619-.6841905.023619-1.4864762.70781-1.7813334l2.051809-.8838095c.684953-.2948571 1.486477.023619 1.781334.7085714l1.653333 3.8354286c.294095.6857143-.024381 1.4864762-.708571 1.7813333" mask="url(#f)"/><path d="m137.9424 33.2848c-.112762 0-.22781-.0015238-.343619-.0053333-.073143-.0022857-.130286-.0632381-.128-.136381.002286-.0731428.064762-.1302857.136381-.128 2.961524.0906667 4.931048-1.0217143 6.060952-1.9695238 1.225905-1.0300952 1.757715-2.096 1.763048-2.1066667.032762-.0662857.112762-.0929523.178286-.0609523.064762.032.09219.1112381.06019.1767619-.022857.0457142-.556952 1.1192381-1.821714 2.1843809-1.122286.9447619-3.043048 2.0457143-5.905524 2.0457143" mask="url(#f)"/><path d="m137.692343 33.7654095h-.973714c-.193524 0-.352-.1584762-.352-.352v-.4441905c0-.1935238.158476-.352.352-.352h.973714c.193524 0 .352.1584762.352.352v.4441905c0 .1935238-.158476.352-.352.352" mask="url(#f)"/><path d="m144.446095 24.8465524c-.28419 0-.547047-.184381-.633143-.4708572-1.532952-5.0674285-4.356571-6.5158095-4.384762-6.5295238-.327619-.1622857-.461714-.56-.299428-.8883809.162286-.3268572.56-.4609524.887619-.2986667.136381.0678095 3.367619 1.7234286 5.064381 7.3333333.105905.3504762-.092191.72-.442667.8259048-.064.0190476-.128.0281905-.192.0281905" mask="url(#f)"/></g></g></g></svg>