<svg height="160" viewBox="0 0 233 160" width="233" xmlns="http://www.w3.org/2000/svg" xmlns:xlink="http://www.w3.org/1999/xlink"><mask id="a" fill="#fff"><path d="m0 .7339338h11.0967619v13.267971h-11.0967619z" fill="#fff" fill-rule="evenodd"/></mask><mask id="b" fill="#fff"><path d="m.29767619.00937143h212.55085681v29.70491427h-212.55085681z" fill="#fff" fill-rule="evenodd"/></mask><mask id="c" fill="#fff"><path d="m0 160h232.047238v-160h-232.047238z" fill="#fff" fill-rule="evenodd"/></mask><mask id="d" fill="#fff"><path d="m.04342857 9.45219048c0 5.16342852 4.18590476 9.34933332 9.34933333 9.34933332 5.1634286 0 9.3500952-4.1859048 9.3500952-9.34933332 0-5.16419048-4.1866666-9.35009524-9.3500952-9.35009524-5.16342857 0-9.34933333 4.18590476-9.34933333 9.35009524" fill="#fff" fill-rule="evenodd"/></mask><mask id="e" fill="#fff"><path d="m.04342857 9.45219048c0 5.16342852 4.18590476 9.34933332 9.34933333 9.34933332 5.1634286 0 9.3500952-4.1859048 9.3500952-9.34933332 0-5.16419048-4.1866666-9.35009524-9.3500952-9.35009524-5.16342857 0-9.34933333 4.18590476-9.34933333 9.35009524" fill="#fff" fill-rule="evenodd"/></mask><mask id="f" fill="#fff"><path d="m.04342857 9.45219048c0 5.16342852 4.18590476 9.34933332 9.34933333 9.34933332 5.1634286 0 9.3500952-4.1859048 9.3500952-9.34933332 0-5.16419048-4.1866666-9.35009524-9.3500952-9.35009524-5.16342857 0-9.34933333 4.18590476-9.34933333 9.35009524z" fill="#fff" fill-rule="evenodd"/></mask><mask id="g" fill="#fff"><path d="m.04342857 9.45219048c0 5.16342852 4.18590476 9.34933332 9.34933333 9.34933332 5.1634286 0 9.3500952-4.1859048 9.3500952-9.34933332 0-5.16419048-4.1866666-9.35009524-9.3500952-9.35009524-5.16342857 0-9.34933333 4.18590476-9.34933333 9.35009524" fill="#fff" fill-rule="evenodd"/></mask><mask id="h" fill="#fff"><path d="m.04342857 9.45219048c0 5.16342852 4.18590476 9.34933332 9.34933333 9.34933332 5.1634286 0 9.3500952-4.1859048 9.3500952-9.34933332 0-5.16419048-4.1866666-9.35009524-9.3500952-9.35009524-5.16342857 0-9.34933333 4.18590476-9.34933333 9.35009524" fill="#fff" fill-rule="evenodd"/></mask><mask id="i" fill="#fff"><path d="m.04342857 9.45219048c0 5.16342852 4.18590476 9.34933332 9.34933333 9.34933332 5.1634286 0 9.3500952-4.1859048 9.3500952-9.34933332 0-5.16419048-4.1866666-9.35009524-9.3500952-9.35009524-5.16342857 0-9.34933333 4.18590476-9.34933333 9.35009524z" fill="#fff" fill-rule="evenodd"/></mask><mask id="j" fill="#fff"><path d="m.04342857 9.45219048c0 5.16342852 4.18590476 9.34933332 9.34933333 9.34933332 5.1634286 0 9.3500952-4.1859048 9.3500952-9.34933332 0-5.16419048-4.1866666-9.35009524-9.3500952-9.35009524-5.16342857 0-9.34933333 4.18590476-9.34933333 9.35009524z" fill="#fff" fill-rule="evenodd"/></mask><mask id="k" fill="#fff"><path d="m.04342857 9.45219048c0 5.16342852 4.18590476 9.34933332 9.34933333 9.34933332 5.1634286 0 9.3500952-4.1859048 9.3500952-9.34933332 0-5.16419048-4.1866666-9.35009524-9.3500952-9.35009524-5.16342857 0-9.34933333 4.18590476-9.34933333 9.35009524" fill="#fff" fill-rule="evenodd"/></mask><g fill="none" fill-rule="evenodd"><path d="m60.5055238 49.0196571c.0220952-.1219047 2.2529524-12.3451428 2.9287619-18.2460952 2.3527619-20.551619 9.3211429-26.10285714 9.3912381-26.15695238l-.3626667-.47619047c-.2940952.22323809-7.2365714 5.712-9.623619 26.56533335-.6727619 5.8811428-2.9005714 18.0838095-2.9219048 18.2064762z" fill="#1ac1f3"/><path d="m74.0880762.3136c4.9881905 1.82171429-5.2807619 9.8125714-5.2807619 9.8125714s-1.2998095-12.21638092 5.2807619-9.8125714" fill="#1ac1f3"/><path d="m73.3790476 15.105981c1.0544762 3.5382857-7.6655238 1.127619-7.6655238 1.127619s6.2742857-5.7958095 7.6655238-1.127619" fill="#1ac1f3"/><path d="m61.3492571 10.3061333c2.4685715-2.74590473 4.9615239 5.9512381 4.9615239 5.9512381s-8.2179048-2.3291428-4.9615239-5.9512381" fill="#1ac1f3"/><path d="m74.7056762 23.6982857c1.92 5.1100953-11.1916191 2.4525714-11.1916191 2.4525714s8.6590477-9.1961904 11.1916191-2.4525714" fill="#1ac1f3"/><path d="m57.1401905 19.0970667c2.8609524-3.6746667 6.7748571 7.0445714 6.7748571 7.0445714s-10.5485714-2.1958095-6.7748571-7.0445714" fill="#1ac1f3"/><path d="m47.5122286 115.953448.9158095-.783238c-.1142857-.134096-11.5139048-13.695239-19.4247619-41.7592386-7.9870476-28.343619-23.77752382-47.3721904-23.93600001-47.5619047l-.92419048.775619c.15695239.1866667 15.78514289 19.0300953 23.70057139 47.1131429 7.9885715 28.3451424 19.5527619 42.0800004 19.6685715 42.2156194" fill="#a4e2ff"/><path d="m1.55238095 1.58514286c-6.50666666 3.65485714 9.54438095 12.41676194 9.54438095 12.41676194s-.96-17.23885718-9.54438095-12.41676194" fill="#a4e2ff" mask="url(#a)" transform="translate(0 21.333333)"/><path d="m5.53973333 43.5546667c-.66209523 5.1459047 10.88761907-.1691429 10.88761907-.1691429s-10.0137143-6.6201905-10.88761907.1691429" fill="#a4e2ff"/><path d="m21.1401905 34.1759238c-4.0457143-3.2502857-5.5352381 9.3767619-5.5352381 9.3767619s10.871619-5.0895238 5.5352381-9.3767619" fill="#a4e2ff"/><path d="m8.38499048 60.2934857c-1.50628572 7.5230476 16.07923812.8708572 16.07923812.8708572s-14.0914286-10.7969524-16.07923812-.8708572" fill="#a4e2ff"/><path d="m11.9824762 73.9281524c-1.5969524 7.9748571 17.0422857.9226666 17.0422857.9226666s-14.9348571-11.4438095-17.0422857-.9226666" fill="#a4e2ff"/><path d="m18.0003048 89.6967619c-1.5245715 7.6129524 16.2697142.8807619 16.2697142.8807619s-14.2582857-10.9257143-16.2697142-.8807619" fill="#a4e2ff"/><path d="m26.4802286 102.932648c-2.8746667 7.212952 15.8430476 3.806476 15.8430476 3.806476s-12.0495238-13.321905-15.8430476-3.806476" fill="#a4e2ff"/><path d="m32.0151619 50.4058667c-4.7992381-4.4510477-7.8034286 11.303619-7.8034286 11.303619s14.1356191-5.431619 7.8034286-11.303619" fill="#a4e2ff"/><path d="m39.382019 66.5062857c-3.0666666-5.7820952-11.0902857 8.1051429-11.0902857 8.1051429s15.136-.4754286 11.0902857-8.1051429" fill="#a4e2ff"/><path d="m43.4251429 80.3939048c-4.0845715-5.1139048-9.3950477 10.0198095-9.3950477 10.0198095s14.7847619-3.2731429 9.3950477-10.0198095" fill="#a4e2ff"/><path d="m46.9645714 93.7957333c-5.648-3.3081904-5.175619 12.7230477-5.175619 12.7230477s12.6262857-8.3580953 5.175619-12.7230477" fill="#a4e2ff"/><path d="m12.1952762 108.280838c13.0567619-9.9801904 33.7333333 26.071619 33.095619 28.641524-2.7108571-2.712381-6.695619-6.690286-12.5310476-12.502857-9.7973333-9.759238-16.6628571-14.171429-20.5645714-16.138667" fill="#76abff"/><path d="m32.3276952 124.852267c5.6967619 5.673904 9.6259048 9.59619 12.3306667 12.301714-5.2563809-.130286-41.58095238-15.730286-35.63428571-25.242667.83047619-1.328 1.71352381-2.375619 2.63695241-3.185524 3.8102857 1.891048 10.7657143 6.264381 20.6666666 16.126477" fill="#4a75ff"/><path d="m44.6580571 137.154362c-2.7047619-2.706286-6.6339047-6.62781-12.3306666-12.301714-9.9009524-9.862858-16.856381-14.235429-20.6666667-16.127238.1775238-.154667.3542857-.307048.5348572-.444191 3.9017142 1.967238 10.7664761 6.379429 20.5645714 16.137905 5.8354286 5.812571 9.8194286 9.791238 12.5302857 12.502857-.008381.034286-.0167619.067809-.0327619.089905-.0769524.106666-.2864762.150857-.5996191.142476" fill="#fff"/><path d="m38.807619 134.556876c-10.5775238-2.454857-27.527619-5.218286-33.50019043-6.166857 4.23771429-14.714667 30.84723813 2.778667 33.50019043 6.166857" fill="#76abff"/><path d="m4.9728 129.873067c.05485714-.328381.12038095-.64.1927619-.941715 5.9626667.945524 23.1908571 3.751619 33.7539048 6.221715-2.1036191 2.005333-36.19580956 8.289523-33.9466667-5.28" fill="#4a75ff"/><path d="m39.0233905 134.997333c-.008381.047238-.0472381.100572-.104381.155429-10.5622857-2.469333-27.7904762-5.276191-33.75314283-6.221714.04419047-.185143.09142857-.364953.14171428-.540953 5.97257145.948572 22.92266665 3.712 33.50019045 6.166857.1531429.19581.2316191.347429.2156191.440381" fill="#fff"/><path d="m212.848533 14.8619429c0 8.2026666-47.580952 14.8525714-106.275047 14.8525714-58.6940955 0-106.27580981-6.6499048-106.27580981-14.8525714 0-8.20342861 47.58171431-14.85257147 106.27580981-14.85257147 58.694095 0 106.275047 6.64914286 106.275047 14.85257147" fill="#ebfaff" mask="url(#b)" transform="translate(6.857143 130.285714)"/><path d="m60.370819 123.498819h.0198096c5.0438095-.122667 9.136 1.308952 12.16 4.252952 4.0746666 3.967239 5.4384762 9.855239 5.8712381 14.038858-1.1984762.032761-2.4860953.06019-3.8415238.083047-.5295239-2.812952-1.6777143-6.099809-4.1394286-8.496762-2.3299048-2.26819-5.456-3.370666-9.2921905-3.278476-.0045714 0-.0099048.000762-.0144762.000762-6.5257143.161524-11.1817143 2.552381-13.8369524 7.106286-.903619 1.54819-1.4445714 3.161143-1.7638095 4.621714-2.2651428-.03581-4.4144762-.078476-6.3870476-.12419.3108571-2.896762 1.287619-7.032381 4.0068571-10.630858 3.6525715-4.832762 9.4460953-7.381333 17.2175238-7.573333" fill="#94ebff"/><path d="m59.9162667 107.79421c28.5554285-.690286 27.632 31.57638 27.671619 33.187047.0060953.262095-1.5687619.463238-4.2019047.613333-.2438096-5.334857-1.6175239-14.966857-7.9862858-21.168-4.0685714-3.96038-9.5382857-5.886476-16.2575238-5.72419-.0083809.000762-.0175238.000762-.0266666.000762-11.4727619.28419-19.6502858 4.473143-24.3070477 12.454095-3.0940952 5.302095-3.8179047 11.011048-3.8567619 14.271238-1.9108571-.097524-3.0483809-.202666-3.1047619-.309333-.4228571-.791619-2.4144762-32.490667 32.0693334-33.324952" fill="#94ebff"/><path d="m73.2994286 126.982476c-3.2388572-3.153524-7.5908572-4.685714-12.9348572-4.556952-.0060952 0-.0137143 0-.0205714.000762-9.1139048.224-15.6114286 3.556571-19.3142857 9.903238-1.9093333 3.272381-2.6750476 6.739047-2.936381 9.347047-2.3626666-.059428-4.4312381-.126476-6.08-.198857.0518096-3.379047.8571429-10.148571 5.1169524-15.896381 4.6384762-6.259047 12.0449524-9.558095 22.0129524-9.80419.0083809 0 .016-.000762.0251429-.000762 6.4198095-.154667 11.6289523 1.668571 15.4819047 5.42019 6.1112381 5.948953 7.4285714 15.279239 7.6624762 20.454096-.8563809.040381-1.7973333.076952-2.8152381.108952-.4434286-4.358095-1.8681905-10.562286-6.1980952-14.777143" fill="#94ebff"/><path d="m49.158781 136.360457c2.5668571-3.308952 6.6057142-5.054476 12.0015238-5.188571h.0144762c3.536-.085334 6.4022857.915809 8.5165714 2.974476 2.2209524 2.162286 3.2906666 5.141333 3.8019047 7.744762-8.0274285.117333-18.1820952.079238-26.8784761-.048.4121904-1.733334 1.168-3.709714 2.544-5.482667" fill="#1ac1f3"/><path d="m59.1156571 114.703467c.0091429 0 .0175239 0 .0266667-.000762 6.7192381-.162286 12.1889524 1.763047 16.2575238 5.72419 6.368 6.200381 7.7424762 15.833143 7.9855238 21.168-.3405714.019048-.6971428.038095-1.0727619.055619-.2331428-5.174857-1.5512381-14.505143-7.6617143-20.454095-3.8537142-3.750857-9.0628571-5.574857-15.4826666-5.42019-.008381 0-.0167619.000761-.0251429.000761-9.968.246096-17.3744762 3.545143-22.0121905 9.804191-4.2605714 5.747809-5.0659047 12.517333-5.1169523 15.897143-.3779048-.016762-.7299048-.032762-1.0620953-.050286.0388572-3.259428.7626667-8.968381 3.8567619-14.270476 4.6567619-7.980952 12.8335238-12.169905 24.3070476-12.454095" fill="#1ac1f3"/><path d="m72.5509333 127.751848c-3.0247619-2.944-7.1161904-4.375619-12.16-4.252953l-.0129523-.537143.0129523.537143h-.0198095c-7.7721905.192-13.5649524 2.740572-17.2175238 7.573334-2.7192381 3.598476-3.6967619 7.734095-4.007619 10.630857-.3573334-.009143-.7078096-.017524-1.0529524-.026667.2613333-2.607238 1.0270476-6.073905 2.9371428-9.347048 3.7020953-6.346666 10.200381-9.678476 19.3142857-9.903238.0060953-.000762.0137143-.000762.0205715-.000762 5.344-.128761 9.6952381 1.404191 12.9340952 4.556953 4.3299048 4.214857 5.7546667 10.419047 6.1980952 14.777143-.3504761.010666-.7078095.021333-1.0750476.031238-.4327619-4.183619-1.7965714-10.071619-5.8712381-14.038857" fill="#1ac1f3"/><path d="m61.1342476 130.099276c.0045714 0 .0099048-.000762.0152381-.000762l.0121905.537143-.0121905-.537143c3.8354286-.09219 6.9615238 1.010286 9.2914286 3.278476 2.4617143 2.396953 3.6099047 5.68381 4.1394286 8.496762-.3573334.006096-.72.012191-1.0864762.017524-.512-2.603428-1.5817143-5.583238-3.8026667-7.744762-2.1142857-2.059428-4.9805714-3.059809-8.5165714-2.974476h-.0144762c-5.3958095.134095-9.4346667 1.879619-12.0015238 5.188572-1.3752381 1.772952-2.1318096 3.749333-2.544 5.482666-.3619048-.006095-.7238096-.011428-1.0811429-.016.3192381-1.460571.8601905-3.073524 1.7638095-4.621714 2.6552381-4.553905 7.3112381-6.944762 13.8369524-7.106286" fill="#1ac1f3"/><path d="m220.977981 112.459429c-14.079238-13.4224766-34.343619 26.310857-33.573333 29.415619 2.734476-2.839619 6.756571-7.004953 12.646095-13.088762 9.889524-10.213334 16.913524-14.516572 20.927238-16.326857" fill="#76abff"/><path d="m200.521143 129.351543c-5.750095 5.938286-9.715048 10.044952-12.444953 12.878476 5.505524.524191 42.974477-13.136 36.368-25.091048-.921904-1.669333-1.888761-3.014857-2.889142-4.087619-3.92 1.733334-11.040762 5.978667-21.033905 16.300191" fill="#4a75ff"/><path d="m188.07619 142.230248c2.729905-2.834286 6.694858-6.940191 12.444953-12.878477 9.993143-10.321523 17.113905-14.566857 21.033905-16.30019-.192-.204952-.383238-.406857-.576762-.592-4.013715 1.810286-11.038476 6.113524-20.927238 16.326095-5.890286 6.084572-9.911619 10.249905-12.646858 13.089524.010667.041143.021334.081524.038096.109714.084571.134857.305524.214096.633904.245334" fill="#fff"/><path d="m194.4192 138.291276c9.452952-1.749333 24.554667-3.518476 29.875048-4.118857-3.161143-13.184-27.393524 1.227429-29.875048 4.118857" fill="#76abff"/><path d="m224.530819 135.497371c-.035048-.292571-.080762-.570666-.133333-.841142-5.311238.598857-20.660572 2.393904-30.101334 4.157714 1.780572 1.856762 31.682286 8.774095 30.234667-3.316572" fill="#4a75ff"/><path d="m194.210133 138.671467c.006096.043428.038096.090666.086096.142476 9.440761-1.76381 24.790095-3.558857 30.101333-4.158476-.031238-.164572-.066286-.325334-.103619-.483048-5.320381.600381-20.421333 2.369524-29.875048 4.118857-.143238.166857-.218666.297905-.208762.380191" fill="#fff"/><path d="m191.271162 57.968381c-.911238 3.1306666-1.912381 6.5005714-2.968381 10.0563809-1.006476 3.3881905-2.073143 6.9866667-3.161905 10.7078095l-15.247238-17.3409524c.715429-10.3131428-1.489524-21.1550476-1.205333-28.2308571.057905-1.4247619.452571-3.9809524 1.302095-6.9226667l23.46819 16.5996191c-.130285 5.0940952-.768761 10.2567619-2.187428 15.1306667" fill="#c0edff"/><path d="m189.894629 8.64914286c11.603047 1.01028571 17.603809 9.34400004 20.545523 19.21904764l-15.479619 12.9379047c-.004571-14.0175238-3.530666-27.1207619-5.065904-32.15695234" fill="#c0edff"/><path d="m189.7168 68.5092571c1.057524-3.5588571 2.059429-6.9310476 2.971429-10.0662857 1.464381-5.031619 2.118095-10.3550476 2.247619-15.6l15.961142-13.3401904c1.20381 4.6179047 1.793524 9.4940952 2.006858 14.064.357333 7.6563809-1.900191 16.1980952-4.660572 24.343619-8.379428 3.1786667-17.787428 8.5051429-21.507047 10.6895238 1.025523-3.5017143 2.030476-6.8899048 2.980571-10.0906667" fill="#c0edff"/><path d="m193.481122 40.9579429-23.005846-16.2742858c2.441905-7.3752381 7.659429-16.25295234 17.345524-16.14323805.166095.00228571.323048.0167619.486857.02057143 1.388953 4.44342852 5.199238 17.96266662 5.173465 32.39695242" fill="#c0edff"/><path d="m174.341867 120.0576c-2.988191-5.406476-12.324572-22.4380952-16.859429-32.3428571 3.376762-4.1820953 6.669714-8.0220953 9.202286-13.1573334 1.683809-3.4148571 2.580571-7.1885714 3.012571-11.0788571l14.937143 16.9874286c-3.607619 12.3946666-7.423238 26.211048-10.292571 39.591619" fill="#c0edff"/><path d="m131.800914 114.414781c2.234667-11.916952 16.758096-20.8548572 24.633143-25.3904762 5.272381 11.3828572 16.012191 30.7314282 17.44 33.2944762-1.513143 7.309714-2.722286 14.451048-3.430095 21.119238-13.134476-.092952-36.870095-.298667-37.526095-.277333-1.473524.046476-5.460572-5.579429-1.116953-28.745905" fill="#c0edff"/><path d="m186.094095 80.796419c1.735619-1.0415238 12.160762-7.2129523 21.479619-10.9386666-3.187809 9.1024762-6.803809 17.5649524-7.838476 23.5291428-1.321905 7.6167618-1.047619 12.3733338.328381 16.9013338-7.234286 5.856761-20.449524 9.731047-24.416762 10.801523 2.88381-13.588571 6.775619-27.6807615 10.447238-40.293333" fill="#c0edff"/><path d="m200.58141 111.838095c.756571 2.103619 1.735619 4.221715 2.900571 6.624 3.945905 8.140953 2.928 22.541715 2.057143 24.144-.468572.862476-17.624381.943238-33.6.841143.699428-6.513524 1.878095-13.484952 3.352381-20.627809 2.861714-.729905 17.123047-4.591239 25.289905-10.981334" fill="#c0edff"/><g fill="#fff"><path d="m185.140952 78.7324952c1.088762-3.7211428 2.155429-7.3188571 3.161143-10.7078095 1.056762-3.5558095 2.057905-6.9257143 2.969143-10.0563809 1.418667-4.8739048 2.057143-10.0365715 2.187429-15.1306667l.803809.5683809.672762-.5622857c-.128762 5.2441905-.782476 10.5676191-2.246857 15.5992381-.912 3.1352381-1.913905 6.5074286-2.971429 10.0662857-.950095 3.2007619-1.955809 6.5889524-2.980571 10.0906667-.455619.2674286-.854857.5036191-1.126095.6659048z"/><path d="m194.960914 40.8061714-.777143.6499048-.702476-.4982857c.025905-14.4342857-3.784381-27.9535238-5.173333-32.3961905.539428.0152381 1.069714.04266667 1.587048.08761905 1.534476 5.03619045 5.060571 18.13942855 5.065904 32.15695235"/><path d="m174.341867 120.0576c2.869333-13.380571 6.684952-27.1969524 10.292571-39.591619l.697905.7931428.507428-.3093333c.010667-.0076191.102096-.0617143.254477-.1531429-3.672381 12.6118095-7.563429 26.7047624-10.447238 40.2925714-.245334.066286-.46781.126476-.639239.170667-.159238-.286476-.387809-.699429-.665904-1.202286"/><path d="m174.013714 122.568762.276572.496.527238-.127238c.067809-.016.230095-.056381.473905-.118095-1.474286 7.142857-2.652953 14.115047-3.352381 20.627809-.49981-.003048-.998096-.006095-1.495619-.009143.708571-6.66819 1.917714-13.809524 3.430095-21.119238.064.114286.115047.204191.14019.249905"/><path d="m193.458667 42.8374095-23.468191-16.599619c.147048-.5074286.310095-1.0278095.484572-1.5542857l23.005714 16.2742857c-.001524.6255238-.006095 1.2518095-.022095 1.879619"/><path d="m194.960914 40.8061714 15.478857-12.9379047c.160762.5409523.313905 1.0849523.457143 1.6342857l-15.961143 13.3409524c.016762-.6811429.025143-1.36.025143-2.0373334"/><path d="m193.458667 42.8374095c.016-.6278095.020571-1.2540952.022095-1.879619l.703238.4982857.777143-.6499048c0 .6773334-.008381 1.3561905-.025905 2.0373334l-.672762.5622857z"/><path d="m184.63421 80.4661333-14.936381-16.9874285c.07619-.6925715.147809-1.3874286.195809-2.0868572l15.247238 17.3409524c-.169143.5767619-.336 1.1489524-.506666 1.7333333"/><path d="m186.736152 78.6c3.719619-2.184381 13.127619-7.5108571 21.50781-10.6895238-.221714.6514286-.444191 1.3013333-.669714 1.9466667-9.319619 3.7264761-19.744 9.8979047-21.480381 10.9394285.215619-.7398095.428952-1.4681904.642285-2.1965714"/><path d="m185.33219 81.2592762-.697904-.7931429c.170666-.5843809.337524-1.1565714.506666-1.7333333l.469334.5333333c.271238-.1622857.670476-.3992381 1.126095-.6659047-.214095.7283809-.426667 1.4567619-.642286 2.1965714-.152381.0914286-.243047.1455238-.254476.1531429z"/><path d="m175.646857 121.0896c3.967238-1.069714 17.182476-4.944762 24.416762-10.801524.157714.518095.331429 1.034667.518095 1.549714-8.166857 6.390096-22.42819 10.251429-25.290666 10.982096.119619-.577524.233142-1.151238.355809-1.730286"/><path d="m173.873829 122.318781c-1.42781-2.563048-12.167619-21.911619-17.44-33.2944762.349714-.4419048.699428-.8777143 1.048381-1.3097143 4.534857 9.9047619 13.871238 26.9371425 16.859428 32.3428575-.162286.757333-.311619 1.507809-.467809 2.261333"/><path d="m175.007771 121.259962c.171429-.044952.393905-.104381.639239-.170667-.122667.579048-.236191 1.152762-.35581 1.730286-.243048.061714-.406095.102095-.473905.118095l-.526476.127238-.277333-.496c-.025143-.045714-.075429-.135619-.139429-.249904.156191-.754286.305524-1.504.46781-2.261334.278095.502857.506666.91581.665904 1.202286"/></g><path d="m47.8269714 15.9951238c0 2.2377143-1.8095238 4.0502857-4.0419047 4.0502857-2.2308572 0-4.040381-1.8125714-4.040381-4.0502857s1.8095238-4.0502857 4.040381-4.0502857c2.2323809 0 4.0419047 1.8125714 4.0419047 4.0502857" fill="#ebfaff"/><path d="m96.9475048 5.82247619c3.6434282 1.79733333 4.3367622 6.89600001 1.5504762 11.38742861-2.7870477 4.4929523-8 6.6773333-11.6426667 4.8807619-3.6434286-1.7973334-4.3367619-6.896-1.5504762-11.3881905 2.7870476-4.49219049 8-6.67657144 11.6426667-4.88000001" fill="#ebfaff"/><path d="m74.1528381 65.9586286c0 2.9135238-1.9969524 5.2761904-3.544381 5.2761904-1.5489523 0-4.1226666-2.0327619-4.1226666-4.9462857 0-2.9142857 2.5737143-5.6060952 4.1226666-5.6060952 1.5474286 0 3.544381 2.3626667 3.544381 5.2761905" fill="#c8eefc"/><path d="m133.652876 137.527848v-15.011048h-11.314286-15.069714-11.398095v14.83581c0 1.654095-.8815239 3.19238-2.3192381 4.012952-2.0700953 1.182476-5.5710477 1.846095-5.5710477 1.846095v1.407238h9.7447619 34.1577139 9.744762v-1.407238s-3.641143-.696381-5.796571-1.933714c-1.342476-.77181-2.178286-2.201143-2.178286-3.750095" fill="#4a75ff"/><path d="m95.9702857 128.187429h37.6350473v-9.689143h-37.6350473z" fill="#1e41d3" mask="url(#c)"/><path d="m188.141714 113.899124v-77.2853335c0-4.6605715-3.778285-8.4388572-8.438857-8.4388572h-129.7980951c-4.6605714 0-8.4388571 3.7782857-8.4388571 8.4388572v77.2853335z" fill="#4a75ff" mask="url(#c)"/><path d="m188.141714 113.899124v1.075809c0 4.660572-3.778285 8.438857-8.438857 8.438857h-129.7980951c-4.6605714 0-8.4388571-3.778285-8.4388571-8.438857v-1.075809z" fill="#4a75ff" mask="url(#c)"/><path d="m49.000381 106.36419h131.606095v-70.6544757h-131.606095z" fill="#fff" mask="url(#c)"/><path d="m57.6335238 54.2436571c0-4.7337142 3.8369524-8.5706666 8.5706667-8.5706666 4.7329524 0 8.5699047 3.8369524 8.5699047 8.5706666 0 4.7337143-3.8369523 8.5706667-8.5699047 8.5706667-4.7337143 0-8.5706667-3.8369524-8.5706667-8.5706667" fill="#c0ddff" mask="url(#c)"/><path d="m81.9687619 52.4708571h14.024381v-3.1161904h-14.024381z" fill="#c0ddff" mask="url(#c)"/><path d="m81.968 59.1337143h19.061333v-3.1169524h-19.061333z" fill="#c0ddff" mask="url(#c)"/><path d="m57.6335238 75.6335238h13.7973333v-3.1161905h-13.7973333z" fill="#c0ddff" mask="url(#c)"/><path d="m57.6335238 82.776381h62.3314282v-3.1169524h-62.3314282z" fill="#c0ddff" mask="url(#c)"/><path d="m57.6335238 89.9192381h62.3314282v-3.1169524h-62.3314282z" fill="#c0ddff" mask="url(#c)"/><path d="m174.216838 21.690819h-61.756952c-.041905-.0007619-.084572-.0060952-.128-.0060952-.042667 0-.084572.0053333-.128.0060952-1.548953.0434286-2.915048.8579048-3.720381 2.0731429-.48381.728381-.766476 1.6-.766476 2.536381l-.009143 96.7283811h48.037333c0 3.850666 3.151238 7.000381 7.001143 7.000381 3.851428 0 7.001905-3.149715 7.001905-7.000381l-.01981-96.7283811c0-2.496 2.008381-4.5401905 4.488381-4.6095239" fill="#eef7ff" mask="url(#c)"/><path d="m116.178895 45.8180571c.159238.1462858.324572.2857143.493715.4205715.017523-.0495238.034285-.0990476.053333-.1470476-.150095-.1188572-.320762-.2171429-.547048-.2735239" fill="#b9ddff" mask="url(#c)"/><path d="m126.225752 102.297219c0 .073905-.003047.152381-.007619.234667.004572-.082286.007619-.160762.007619-.234667" fill="#fff" mask="url(#c)"/><path d="m118.84701 102.536762c-.004572-.083048-.00762-.164572-.00762-.239238 0 .074666.003048.15619.00762.239238" fill="#fff" mask="url(#c)"/><g fill="#0f3872"><path d="m119.74141 99.7823238c-.018286.0213333-.040381.0419048-.057905.064-.048762.0579048-.090667.1196191-.135619.1805712.060952-.0845712.125714-.166095.193524-.2445712" mask="url(#c)"/><path d="m126.225752 102.296457c0-.022857-.000762-.044952-.001523-.067047.000761-.011429.001523-.022096.001523-.034286 0 .01219-.000762.022857-.001523.034286.000761.022095.001523.04419.001523.067047" mask="url(#c)"/><path d="m121.452724 98.664-.017524.0045714c-.054095.016-.105143.0388572-.156952.0571429.057904-.0205714.115047-.0441905.174476-.0617143" mask="url(#c)"/><path d="m125.090362 99.5353143c.070095.0678095.137143.1394286.202667.2118095-.065524-.0723809-.132572-.144-.202667-.2118095" mask="url(#c)"/><path d="m122.708648 101.841067c-.766477 0-1.480381-.101334-2.082286-.27581-.002286.018286-.008381.038095-.011429.056381.003048-.018286.009143-.038095.011429-.056381.601905.174476 1.315809.27581 2.082286.27581.646095 0 1.254095-.072381 1.789714-.198857-.535619.126476-1.143619.198857-1.789714.198857" mask="url(#c)"/><path d="m120.606705 99.0486857c.065524-.0403809.131047-.08.198857-.1158095-.06781.0358095-.133333.0754286-.198857.1158095" mask="url(#c)"/><path d="m120.931886 98.871619c.062476-.0304761.12419-.0609523.188952-.087619-.064762.0259048-.126476.0571429-.188952.087619" mask="url(#c)"/><path d="m123.265219 98.5754667c.053333.0114285.105143.0266666.156952.039619-.051809-.0129524-.103619-.0281905-.156952-.039619" mask="url(#c)"/><path d="m122.905067 98.5211429c.041904.0045714.080762.0129523.122666.0182857-.041904-.0053334-.080762-.0137143-.122666-.0182857" mask="url(#c)"/><path d="m125.323962 99.7823238c.067809.0784762.132571.16.193524.2445712-.061715-.0845712-.125715-.166095-.193524-.2445712" mask="url(#c)"/><path d="m124.259962 98.9326476c.067809.0358095.133333.0761905.198857.1158095-.065524-.039619-.131048-.08-.198857-.1158095" mask="url(#c)"/><path d="m124.556876 99.1081905c.070095.0472381.137905.0967619.204953.1470476-.067048-.0502857-.134858-.0998095-.204953-.1470476" mask="url(#c)"/><path d="m118.849295 102.010743c.023619-.488381.142476-.951619.337524-1.372191-.195048.421334-.313905.883048-.337524 1.372191" mask="url(#c)"/><path d="m123.944533 98.7837714c.064762.0259048.126477.0571429.189715.0876191-.063238-.0304762-.124953-.0617143-.189715-.0876191" mask="url(#c)"/><path d="m119.35299 100.324724c.054858-.095238.115048-.186667.178286-.275048-.064.088381-.122666.180572-.178286.275048" mask="url(#c)"/><path d="m119.18781 100.637943c.048-.103619.101333-.204953.158476-.302476-.057143.097523-.110476.198857-.158476.302476" mask="url(#c)"/><path d="m123.612648 98.664c.059428.0175238.116571.0411429.175238.0624762-.058667-.0213333-.11581-.0449524-.175238-.0624762" mask="url(#c)"/><path d="m124.834362 99.3106286c.070857.0563809.138667.1165714.205714.1782857-.067047-.0617143-.134857-.1219048-.205714-.1782857" mask="url(#c)"/><path d="m120.230933 99.3106286c-.071619.0563809-.139428.1173333-.206476.1790476.067048-.0617143.135619-.1226667.206476-.1790476" mask="url(#c)"/><path d="m125.53379 100.049448c.063239.088381.123429.179809.178286.275047-.055619-.094476-.114286-.186666-.178286-.275047" mask="url(#c)"/><path d="m120.508495 99.1081905c-.013714.0091428-.027428.016-.041143.0251428-.056381.0380953-.108952.0815238-.163809.1219048.067047-.0502857.134857-.0998095.204952-.1470476" mask="url(#c)"/><path d="m118.839619 102.195276c0-.010666.001524-.020571.001524-.032 0 .011429-.001524.021334-.001524.032 0 .012191.000762.022857.000762.034286 0-.011429-.000762-.022095-.000762-.034286" mask="url(#c)"/><path d="m119.97501 99.5353143c-.070858.0678095-.137143.1394286-.202667.2118095.064762-.0723809.132571-.144.202667-.2118095" mask="url(#c)"/><path d="m122.160305 98.5211429c-.001524.0007619-.00381 0-.005334.0007619-.039619.0038095-.076952.0129523-.116571.0175238.041143-.0053334.080762-.0137143.121905-.0182857" mask="url(#c)"/><path d="m125.878324 100.638705c.195047.420571.313905.883809.337524 1.37219-.023619-.489143-.141715-.950857-.337524-1.37219" mask="url(#c)"/><path d="m125.719086 100.335162c.057143.098286.110476.199619.158476.302476-.048-.102857-.101333-.20419-.158476-.302476" mask="url(#c)"/><path d="m121.800152 98.5754667c-.053333.0114285-.105142.0266666-.156952.039619.05181-.0137143.103619-.0281905.156952-.039619" mask="url(#c)"/><path d="m126.2176 102.554667-.009905.659047.009905-.659047c.000762-.008381 0-.015238.000762-.022857.004571-.082286.007619-.160762.007619-.234667 0 .081524-.003048.166857-.008381.257524" mask="url(#c)"/><path d="m120.16701 102.731733c-.049524.071619-.102858.139429-.157715.202667.054857-.063238.108191-.130286.157715-.202667" mask="url(#c)"/><path d="m120.312838 102.498057c-.034286.061714-.071619.118857-.109714.175238.038095-.057143.075428-.113524.109714-.175238" mask="url(#c)"/><path d="m125.063543 102.860419c-.048-.057905-.095238-.118857-.139429-.183619.044191.064762.091429.125714.139429.183619" mask="url(#c)"/><path d="m125.232457 103.042743c-.054857-.052572-.108952-.110476-.160762-.172191.05181.061715.105905.119619.160762.172191" mask="url(#c)"/><path d="m124.881981 102.609676c-.032-.050286-.064762-.101333-.094476-.155428.029714.054095.062476.104381.094476.155428" mask="url(#c)"/><path d="m120.440076 102.235429c.000762-.000762.000762-.001524.001524-.003048.018286-.044191.029714-.088381.045714-.132571-.016.04419-.027428.08838-.045714.132571-.000762.001524-.000762.002286-.001524.003048" mask="url(#c)"/><path d="m119.832152 103.114895c.060191-.054095.118858-.113524.175238-.178285-.05638.064-.115047.12419-.175238.178285" mask="url(#c)"/><path d="m124.565029 101.92c.027428.092952.06019.186667.099809.280381.001524.003048.003048.005333.00381.008381-.000762-.003048-.002286-.005333-.00381-.008381-.039619-.093714-.072381-.187429-.099809-.280381" mask="url(#c)"/><path d="m118.847771 102.543467c-.005333-.086096-.008381-.169143-.008381-.246096 0-.023619.000762-.045714.000762-.067809 0 .022095-.000762.04419-.000762.067809 0 .074667.003048.156191.00762.239239 0 .002285 0 .004571.000761.006857l.041143 2.909714c-.003047.150857.020572.294095.067048.425143-.046476-.131048-.070095-.274286-.067048-.425143z" mask="url(#c)"/><path d="m118.839619 102.008533.001524.112z" mask="url(#c)"/><path d="m118.849295 102.010743-.003047-.000762z" mask="url(#c)"/><path d="m119.832152 106.548724c-.33219 0-.622476-.193524-.790857-.484572.165334.286477.450286.476953.774857.483048.005334 0 .010667.001524.016.001524" mask="url(#c)"/><path d="m125.233219 106.548724c.012952 0 .024381-.00381.037333-.00381.277334-.01219.520381-.16.685715-.386285-.172191.23619-.429715.390095-.723048.390095" mask="url(#c)"/><path d="m126.219048 102.009981-.003048.000762z" mask="url(#c)"/><path d="m126.225752 102.008533v.001524z" mask="url(#c)"/></g><path d="m155.745143 121.533029h-55.114667v1.418666c0 3.909334 3.168 7.077334 7.077334 7.077334h55.038476c-3.849905 0-7.001143-2.631619-7.001143-8.496" fill="#1a2982" mask="url(#c)"/><path d="m169.728762 26.3001905v1.8750476h.243048 8.98819v-1.8750476c0-2.5386667-2.07619-4.6156191-4.614857-4.6156191-.043429 0-.086095.0053334-.128.0060953-2.48.0693333-4.488381 2.1142857-4.488381 4.6095238" fill="#1a2982" mask="url(#c)"/><path d="m186.809067 115.319543c-.009143.009143-.016.018286-.024381.027428.003047-.003047.006857-.004571.009143-.007619.006095-.005333.009142-.013714.015238-.019809" fill="#0f3872" mask="url(#c)"/><path d="m89.8224762 147.749562v-7.248h-3.6220952v5.923048 1.324952 1.32419c2.1767619-.278095 3.6220952-.767238 3.6220952-1.32419" fill="#1e41d3" mask="url(#c)"/><path d="m77.8619429 149.073981v-1.324191-1.325714-5.922286h-3.6220953v7.248c0 .556953 1.4460953 1.046096 3.6220953 1.324191" fill="#1e41d3" mask="url(#c)"/><path d="m83.5181714 62.9281524c-.5790476-.0137143-.7390476-1.720381-1.3287619-2.0030476l2.7870476 10.6026666.5546667 2.1081905.2986667 1.1390476c.2963809-.2422857.5318095-.6841905.7824762-1.1390476.3878095-.7085714.8114285-1.4506667 1.5497143-1.5268571.327619-.0335238.6948571.0685714 1.0300952.2430476l-.4053333-.824381-4.5729524-9.3097143c-.1935238.4091429-.4487619.7154286-.6956191.7100953" fill="#cfe7ff" mask="url(#c)"/><path d="m75.9006476 71.7979429c.7184762.0990476 1.080381.999619 1.4308572 1.8377142.2445714.5866667.4853333 1.1405715.8388571 1.3744762l.3611429-1.3744762.5546666-2.1074285 2.7900953-10.6148572c-.6605715.2438096-1.1398096 2.0761905-1.7554286 2.0144762-.1668571-.0167619-.3108571-.1706666-.4266667-.3946666l-4.4190476 8.9950476-.2171428.4426666c.2933333-.1394285.5859047-.208.8426666-.1729523" fill="#cfe7ff" mask="url(#c)"/><path d="m80.0121905 73.6357333c.4685714-.8091428.9363809-1.7203809 1.4948571-2.1081904.1790476-.1249524.3672381-.1965715.5691429-.1927619.1889524.0038095.3626666.0754285.5249524.1927619.544.3923809.9622857 1.3158095 1.3973333 2.1081904.4015238.7299048.8182857 1.3470477 1.3622857 1.3295238.1752381-.0053333.3291429-.0754285.4693333-.1904761l-.2994285-1.1390477-.5539048-2.1081904-2.7878095-10.6026667c-.0441905-.0213333-.0921905-.0350476-.1424762-.0380952-.0586667-.0045715-.1150476.0053333-.1706667.0266666l-2.7900952 10.6140953-.5539048 2.1081904-.3611428 1.3744762c.0990476.0655238.2064762.1059048.3268571.1142857.5699048.0373334 1.0430476-.6735238 1.5146667-1.4887619" fill="#cfe7ff" mask="url(#c)"/><path d="m82.0308571 149.318019c1.5344762 0 2.9638096-.089905 4.1699048-.243809v-1.324953-1.324952-5.922286h-8.3390476v5.922286 1.324952 1.324953c1.2060952.153904 2.6346667.243809 4.1691428.243809" fill="#1e41d3" mask="url(#c)"/><path d="m84.9512381 63.7488-2.920381-5.9733333-2.9630476 6.0121904c2.8076191.4609524 1.784381-1.703619 2.9257143-1.6944761.9478095-.0708572.3047619 2.1165714 2.9577143 1.655619" fill="#1e41d3" mask="url(#c)"/><path d="m88.1617524 72.1089524c-.7382857.0769524-1.1611429.8182857-1.5497143 1.5268571-.2499048.4556191-.4860952.8975238-.7824762 1.1390476l.2140952.8114286.1569524.5965714v57.3912379h3.6220953v-59.2426664-.6956191l-.6300953-1.2838095c-.336-.1744762-.7024762-.2765714-1.0308571-.2430476" fill="#1a2982" mask="url(#c)"/><path d="m86.200381 140.502095h3.6220952v-6.928h-3.6220952z" fill="#cfe7ff" mask="url(#c)"/><path d="m74.24 140.502095h3.6220952v-6.928h-3.6220952z" fill="#cfe7ff" mask="url(#c)"/><path d="m77.8619429 133.574019v-57.391238l.0198095-.0769524.2887619-1.0956191c-.3542857-.2339047-.5942857-.7878095-.8388572-1.3744762-.3504761-.8388571-.7123809-1.7386666-1.4308571-1.8377143-.2567619-.0350476-.5493333.0335239-.8434286.1729524l-.8175238 1.6647619v1.7897143 58.1485714z" fill="#1a2982" mask="url(#c)"/><path d="m86.2004571 76.1826286-.1569523-.5958096-.2133334-.8121904c-.1401904.1158095-.2940952.1859047-.4700952.1904762-.5432381.0175238-.96-.5996191-1.3615238-1.3295238-.4350476-.792381-.8533334-1.7158096-1.3973334-2.1074286-.1622857-.1180953-.336-.1889524-.5249523-.1927619-.2019048-.0045715-.3900953.0678095-.5691429.1927619-.5592381.3870476-1.0262857 1.2982857-1.4948571 2.1074286-.4716191.816-.9447619 1.5260952-1.5146667 1.4887619-.120381-.0076191-.2278095-.0487619-.3268571-.1142858l-.2887619 1.0956191-.0198096.0769524v57.3912384h8.3382857z" fill="#1e41d3" mask="url(#c)"/><path d="m77.8620952 140.502095h8.3382858v-6.928h-8.3382858z" fill="#cfe7ff" mask="url(#c)"/><path d="m186.954895 142.761524 1.292953.144762c.022095-.188953 2.31619-19.179429 18.624762-46.1112384 16.47238-27.1977143 19.843809-53.6830476 19.875809-53.9481905l-1.292952-.1577142c-.032.2620952-3.376 26.4838095-19.696 53.4308571-16.472381 27.200762-18.784 46.450286-18.804572 46.641524" fill="#69def9" mask="url(#c)"/><path d="m226.469029 37.9132952c-7.68-2.4388571-2.758858 16.6834286-2.758858 16.6834286s12.892191-13.4659048 2.758858-16.6834286" fill="#69def9" mask="url(#c)"/><path d="m213.12899 56.2726857c-4.548571 3.2716191 8.159239 8.4647619 8.159239 8.4647619s-2.158477-12.7801905-8.159239-8.4647619" fill="#69def9" mask="url(#c)"/><path d="m232.029333 61.6655238c-.419047-5.5870476-11.478095 2.5462857-11.478095 2.5462857s12.030476 4.8251429 11.478095-2.5462857" fill="#69def9" mask="url(#c)"/><path d="m202.020419 70.8582095c-7.046095 4.3580953 11.167238 13.3264762 11.167238 13.3264762s-1.870476-19.0765714-11.167238-13.3264762" fill="#69def9" mask="url(#c)"/><path d="m193.916267 83.7488c-7.468953 4.6186667 11.83619 14.1249524 11.83619 14.1249524s-1.982476-20.2201905-11.83619-14.1249524" fill="#69def9" mask="url(#c)"/><path d="m185.911771 100.120838c-7.129904 4.409905 11.300572 13.485714 11.300572 13.485714s-1.892572-19.3043806-11.300572-13.485714" fill="#69def9" mask="url(#c)"/><path d="m181.721295 116.569524c-7.809524 3.049143 8.677334 15.305905 8.677334 15.305905s1.626666-19.328762-8.677334-15.305905" fill="#69def9" mask="url(#c)"/><path d="m227.242133 82.2108952c-.026666-7.0674285-14.670476 2.1767619-14.670476 2.1767619s14.706286 7.1474286 14.670476-2.1767619" fill="#69def9" mask="url(#c)"/><path d="m219.971276 99.892419c2.300953-6.6826666-14.569905-2.7733333-14.569905-2.7733333s11.533715 11.5900953 14.569905 2.7733333" fill="#69def9" mask="url(#c)"/><path d="m211.99581 113.321752c1.023238-6.993523-14.832-.025142-14.832-.025142s13.482666 9.251047 14.832.025142" fill="#69def9" mask="url(#c)"/><path d="m204.031543 125.9936c-1.553524-6.894476-13.852953 5.296762-13.852953 5.296762s15.903239 3.798857 13.852953-5.296762" fill="#69def9" mask="url(#c)"/><path d="m136.517333 69.495619h9.538286v-1.376h-9.538286z" fill="#c0ddff" mask="url(#c)"/><path d="m136.517333 73.1001905h15.628191v-1.3767619h-15.628191z" fill="#c0ddff" mask="url(#c)"/><path d="m136.518095 76.7032381h15.572572v-1.376h-15.572572z" fill="#c0ddff" mask="url(#c)"/><path d="m136.517333 80.3070476h25.515429v-1.376h-25.515429z" fill="#c0ddff" mask="url(#c)"/><path d="m.04350476 9.4519619c0-5.16342857 4.18590476-9.34933333 9.34933334-9.34933333 5.1641905 0 9.3500952 4.18590476 9.3500952 9.34933333 0 5.1634286-4.1859047 9.3493333-9.3500952 9.3493333-5.16342858 0-9.34933334-4.1859047-9.34933334-9.3493333" fill="#d2e3ff" mask="url(#d)" transform="translate(114.285714 64.761905)"/><path d="m11.6729143 9.6112s-3.6944762-.09447619-4.25066668-2.95771429l-.67809524 1.32114286s-1.19390476-.84952381-.57295238-1.83314286c.62247619-.98438095 2.19428571-2.832 5.0224762-2.10590476 1.1603809.29714286 2.2529524.80609524 2.8121905 1.70438095.8030476 1.29219048.8304762 3.27695239 1.1375238 5.6487619.551619 4.2666667-2.0137143 3.2266667-5.20990479 2.3862857-1.46971428-.3870476 1.69219049-1.3348571 1.73942859-4.1638095" fill="#1a2982" mask="url(#e)" transform="translate(114.285714 64.761905)"/><path d="m12.0955429 8.27634286s.0838095 3.85523814-.9859048 4.09676194l.0175238 1.6921904 1.4445714.3260953s-.9249523 2.5043809-3.54361901 2.0921905c-2.61942858-.4121905-2.00533334-2.776381-2.00533334-2.776381l-1.46971428-4.55466667.55923809-1.89333333 2.95161905-.77714286 1.65714289-.624 1.3401904.33980953z" fill="#ffebd2" mask="url(#f)" transform="translate(114.285714 64.761905)"/><path d="m12.2496 14.2496c1.2342857.1180952 3.1314286.6689524 3.6693333 1.8453333-5.8620952 6.7192381-12.22780949.904381-12.22780949.904381s-.06095238-1.8971429 3.30438095-2.7542857c.12342857 1.7752381 4.04038094 2.3260952 5.25409524.0045714" fill="#3369f0" mask="url(#g)" transform="translate(114.285714 64.761905)"/><path d="m8.92594286 5.81508571s-4.71695238-3.94971428-.24152381-4.61866666c4.47466665-.66819048 5.84380955 1.97257143 3.61523805 3.53752381-2.2293333 1.56495238-3.37371424 1.08114285-3.37371424 1.08114285" fill="#1a2982" mask="url(#h)" transform="translate(114.285714 64.761905)"/><path d="m8.04944762 14.1930667s-4.60038095.5409523-4.16152381-2.1272381c.28723809-1.7470476.91428571-4.89447622 1.97028571-6.67428574.55619048-.93714286 1.51390477-1.12609524 1.99009524-1.33180953.31314286-.13561904 3.49104764.24 4.71619044 1.55276191.8746667.93714286-.064 2.76495238-.0175238 3.344.0144762.17066666-.4137143-.74819048-1.2624762-.81676191-.4099047-.03352381-.1249523-1.00114285-.2377142-1.07504762-.1295239-.08533333-.2186667 1.07580953-.3558096 1.008-.4731428-.23466666-.84647616-.27961904-1.58095235-.18819047-.27352381.03352381-.50133334.05257143-.69180953.06552381-.08685714.00533333-.13257142-.5752381-.20495238-.57066667-.07314285.00380952-.17142857.592-.23009524.59580952-.31238095.01752381-.42895238.03961905-.45180952.18438096-.5447619 3.57180954.78552381 4.33295234.78552381 4.33295234z" fill="#1a2982" mask="url(#i)" transform="translate(114.285714 64.761905)"/><path d="m3.82102857 28.9430095c0-.1508571.11276191-5.6533333.11276191-5.6533333h11.94819052v6.256l-5.7668572 2.0358095z" fill="#b9ddff" mask="url(#j)" transform="translate(114.285714 64.761905)"/><path d="m9.51222857 26.4556952c0-.2293333.18514286-.4144762.41447619-.4144762.22933334 0 .41447624.1851429.41447624.4144762 0 .2285715-.1851429.4144762-.41447624.4144762-.22933333 0-.41447619-.1859047-.41447619-.4144762" fill="#0b52ff" mask="url(#k)" transform="translate(114.285714 64.761905)"/><g transform="translate(114.285714 35.809524)"><g fill="#c0ddff"><path d="m22.231619 5.3127619h15.6281905v-1.376h-15.6281905z"/><path d="m22.231619 8.91657143h15.6281905v-1.376h-15.6281905z"/><path d="m22.231619 12.519619h25.5154286v-1.376h-25.5154286z"/><path d="m22.231619 16.1241905h25.5154286v-1.376h-25.5154286z"/></g><path d="m14.9281524 12.9095619.1546666 1.5047619c.0853334-.7619048.1150477-1.3874286-.1546666-1.5047619" fill="#0062c7"/><path d="m12.5092571 9.73028571c.8685715-.65142857.8068572-1.86209523.3405715-1.89257142-.4647619-.0312381-2.6377143.18590476-3.56800003-2.70019048 0 0-.18590476 1.17942857-.74514286 1.92380952-.53257142.71085715-.92266666 2.12571429-.82361904 3.49333337.59352381 1.0331428 1.31504762 1.7805714 2.09371428 1.7805714.19961905 0 .39466665-.0495238.58438095-.1401905-.3169524.3428572-.71161904.5836191-1.19695238.5889524-.36114285.0038095-.66895238-.128-.928-.336.31542858.784.68419048 1.6472381.86552381 2.4289524.37180953.247619.8152381.3923809 1.28990477.3923809.4655238 0 .9013333-.1394285 1.2678095-.3786666-.2041905-.3017143-.3390476-.6438096-.359619-1.0331429-.1241905-2.2659048.3100952-3.4758095 1.1794285-4.12723809" fill="#fff"/><path d="m14.0285714 5.85302857-.0525714-.00380952c.016.04723809.0342857.09447619.0495238.14171428.0015238-.04647619.0030476-.09371428.0030476-.13790476" fill="#fff"/><path d="m.04350476 10.0300952c0-5.16342853 4.18590476-9.34933329 9.34933334-9.34933329 5.1641905 0 9.3500952 4.18590476 9.3500952 9.34933329 0 5.1634286-4.1859047 9.3493334-9.3500952 9.3493334-5.16342858 0-9.34933334-4.1859048-9.34933334-9.3493334" fill="#d2e3ff"/><path d="m7.17142857 9.00998095c.224-1.56952381 1.76990476-4.91657143 2.65447619-5.11314285.98361904.78628571.88533334 2.16380952 2.06552384 2.65447619 1.1801904.49219047.6270476.35428571 1.6899047 1.20990476.0807619 1.34780952-.9028571 2.92038095-1.0011428 4.10057145s0 2.4586666.5897143 2.8518095c-.9836191.7870476-2.8518096 1.1801905-5.01485718-.1965714-.88533333-2.6552381-1.08190476-4.81828574-.98361905-5.50704765" fill="#ffebd2"/><path d="m9.2376381 12.8061714c.48533333-.0053333.8792381-.2460952 1.1961905-.5874285-.1904762.0891428-.3855238.1394285-.58361908.1394285-.77942857 0-1.50095238-.7474285-2.09371428-1.7813333.00457143.0670476.00914286.1333333.0167619.2003809.04876191.4464762.27352381 1.0422858.53561905 1.6937143.25980952.208.56685714.3390477.92876191.3352381" fill="#e5cfba"/><path d="m15.498819 16.9475048s-2.7809523-.5790477-3.7660952-2.0335238c-.3672381.2384761-.8022857.3779047-1.2685714.3779047-.47390478 0-.91733335-.1447619-1.28914288-.3923809-.80685714.4205714-5.28838095 2.4297142-5.30590476 2.4784762 1.51085714 1.2007619 3.54057143 1.903238 5.61904762 1.8742857 4.00000002-.0556191 6.01066662-2.3047619 6.01066662-2.3047619" fill="#69def9"/><path d="m5.78674286 18.2555429c1.552.247619 2.5447619-.248381 3.32038095-1.6754286.24152381-.4441905.21866667-1.0346667.06780952-1.68-.18209523-.7832381-.54171428-1.6495238-.86552381-2.4297143-.46857142-1.1222857-1.28152381-2.79771429.27047619-5.38590476.47847619-.79847619.74514286-1.92380953.74514286-1.92380953.93028573 2.88533334 3.10247623 2.66742858 3.56800003 2.69866667.4655238.0312381.528 1.24114286-.3413334 1.89333333-.8693333.65142859-1.3028571 1.86209529-1.1794285 4.12723809.0213333.3893333.1554285.7321905.3603809 1.0339048.9851429 1.4544762 3.2685714 2.3558095 3.7180953 2.0335238 2.4411428-1.7706667-1.3881905-1.6274286-1.5794286-4.8815238-.0784762-1.3409524.5980952-4.05180955.1965714-6.05180955-.2925714-1.46133334-2.0114286-3.84380953-4.64990475-3.6472381-5.39961905.40380953-4.688 5.344-4.688 8.93333335 0 2.9744762-2.61257143 4.4830476-1.80038095 5.3767619.85104762.7733333 1.82780952 1.4140952 2.85714286 1.5786667" fill="#1a2982"/><g fill="#c0ddff"><path d="m22.231619 62.0609524h18.6994286v-1.376h-18.6994286z"/><path d="m22.232381 65.664h10.9074285v-1.376h-10.9074285z"/><path d="m22.231619 69.2678095h25.5154286v-1.376h-25.5154286z"/><path d="m22.231619 72.871619h21.8156191v-1.376h-21.8156191z"/></g><path d="m.04350476 66.7778286c0-5.1634286 4.18590476-9.3493334 9.34933334-9.3493334 5.1641905 0 9.3500952 4.1859048 9.3500952 9.3493334 0 5.1634285-4.1859047 9.3493333-9.3500952 9.3493333-5.16342858 0-9.34933334-4.1859048-9.34933334-9.3493333" fill="#d2e3ff"/><path d="m9.50704762 71.4229333c-1.392.016-1.98704762-1.9375238-2.16533333-2.6933333.61714285 1.1314286 1.38285714 1.9702857 2.21180952 1.9702857.82133329 0 1.57942859-.8213333 2.19199999-1.9352381-.2125714.7718095-.8685714 2.6438095-2.23847618 2.6582857m2.74666668-3.5779047v-.0007619-.1615238c.0533333-.0228572.1142857-.0556191.1866667-.1036191.5203809-.343619.6034285-1.7554286.3489523-1.8491428-.2544762-.0944762-.2323809.2773333-.2605714.8525714-.0137143.2834286-.1455238.3961905-.2750476.4380952v-2.6819047h-.0007619c-.0548572-.0533334-.1081905-.1097143-.16-.1714286-.0030476-.0038095-.0053334-.0076191-.008381-.0114286-.0487619-.0579047-.0952381-.1180952-.1394285-.183619-.0144762-.0220953-.0281905-.0449524-.0419048-.0670477-.032-.0510476-.0647619-.1005714-.0944762-.1554285-.0434286-.0784762-.0830476-.16-.119619-.2460953-.0007619-.0022857-.0022858-.0045714-.0038096-.007619-.0388571-.0937143-.071619-.1874286-.0990476-.280381-.0289524-.0937142-.0502857-.1866666-.0670476-.2780952-.5356191.1272381-1.1436191.199619-1.78971429.199619-.7672381 0-1.48038095-.1020952-2.08228571-.2758095-.00228572.0182857-.00838096.0373334-.01142858.056381-.02514285.1561905-.06933333.3169524-.12723809.4777143-.01676191.0441904-.02742857.0883809-.04647619.1333333-.00076191.0007619-.00076191.0015238-.00152381.0030476-.03809524.0914286-.08076191.1782857-.1272381.2613333-.03352381.0624762-.07085714.1196191-.10895238.176762-.01295238.0182857-.02361905.039619-.03657143.0571428-.04952381.072381-.10285714.1394286-.15771428.2026667-.00076191.0007619-.00152381.0015238-.00152381.0022857-.05638095.064-.11504762.1241905-.1752381.1790476v2.6095238c-.13028571-.0419047-.26133333-.1546666-.27580952-.4380952-.02742857-.5752381-.00533333-.9470476-.25980952-.8525714-.25447619.0937142-.17142858 1.5055238.34895238 1.8491428.07238095.048.13333333.0807619.18666666.1036191v.1615238.0007619c-.00533333 0-.01066666-.0022857-.016-.0022857l.37028572 2.7230476.06780952.4982857c.15847619 1.1657143 1.15352381 2.0335238 2.32914286 2.0335238 1.19771427 0 2.20419047-.9005714 2.33599997-2.0914286l.0822857-.7420952.2681905-2.4236191c-.0121905.0007619-.0243809.0045715-.0373333.0045715" fill="#ffebd2"/><path d="m9.55314286 70.6997333c-.82895238 0-1.59466667-.8388571-2.21104762-1.9702857.17752381.7558095.77257143 2.7093334 2.16457143 2.6933334 1.36990473-.0137143 2.02666663-1.8857143 2.23923813-2.6582858-.6133334 1.1139048-1.3714286 1.9352381-2.19276194 1.9352381" fill="#e5cfba"/><path d="m6.85302857 67.8440381v-.1615238c-.05257143-.0228572-.11352381-.0556191-.18590476-.1036191-.52114286-.343619-.60342857-1.7546666-.34895238-1.8483809.25447619-.0944762.23238095.2765714.25980952.8525714.01371429.2826667.14476191.3954286.27504762.4373333v-2.6095238c.06019048-.0548571.11885714-.1142857.1752381-.1790476 0-.0007619.0007619-.0015238.00152381-.0022857.05561904-.0632381.10819047-.1302857.15771428-.2026667.01295238-.0175238.02438095-.0388571.03657143-.0571428.03809524-.0571429.07542857-.1142857.10971429-.176.04571428-.0838095.08838095-.1706667.12723809-.2620953.00076191-.0015238.00076191-.0022857.00152381-.0030476.01828572-.0449524.02971429-.0883809.04571429-.1333333.05866666-.1607619.10209523-.3215238.12723809-.4777143.00304762-.0182857.00914286-.0380952.01142857-.0563809.60190477.1737142 1.31580953.2758095 2.08228572.2758095.64609525 0 1.25485715-.0716191 1.78971425-.1988572.0167619.0914286.0388572.184381.0670477.2773334.0274285.0929523.0601904.1866666.0998095.2803809.0015238.0030476.0030476.0053334.0038095.008381.0365714.0853333.0754286.1668571.1188571.2453333.0297143.0540952.0624762.1051429.0944762.1554286.0137143.0220952.0274286.0457143.0426667.0670476.0434286.0647619.0906667.1257143.1386667.183619.0030476.0038096.0053333.0076191.0083809.0114286.0518095.0609524.1059048.1180953.1607619.1714286h.0007619v2.6819047c.1295238-.0419047.2613334-.1546666.2742857-.4373333.0281905-.576.0060953-.9470476.2605715-.8525714.2544762.0937143.1721904 1.5047619-.3489524 1.8483809-.072381.048-.1333333.0807619-.1859048.1036191v.1615238c.2933334 0 .5508572-.1531429.7230476-.3893333.1409524-.192.2262858-.4365715.2194286-.7055238l.032-2.2392381.0099048-.6598096c.0053333-.0899047.0083809-.1767619.0083809-.2575238v-.0007619c0-.0228571-.0007619-.0449524-.0015238-.0662857.0007619-.0121905.0015238-.0228571.0015238-.0350476 0-.0129524-.0022857-.0266667-.0022857-.0411429l.0022857-.144v-.0015238l-.0068571.0015238-.0030476.0007619c-.0236191-.4883809-.1432381-.9508571-.3375238-1.3714285-.0007619-.0007619-.0007619-.0007619-.0007619-.0015238-.0487619-.1036191-.1013334-.2041905-.1584762-.3024762-.0022857-.0030477-.0045715-.0068572-.0068572-.0106667-.055619-.0944762-.1158095-.1866667-.1790476-.2750476-.0045714-.0076191-.0106667-.0152381-.016-.0228572-.0617143-.0838095-.1257143-.1653333-.1935238-.2445714-.0106667-.0114286-.0213333-.0228571-.032-.0342857-.0647619-.0731429-.1318095-.1447619-.2019048-.2125714-.016-.016-.0342857-.0297143-.0502857-.0457143-.0670476-.0617143-.1348571-.1226667-.2057143-.1790476-.023619-.0190477-.0487619-.0365715-.0731428-.0540953-.0662857-.0518095-.1340953-.1013333-.2041905-.1478095-.032-.0205714-.0655238-.0388571-.0982857-.0594286-.0655238-.0403809-.1310476-.08-.1980953-.1165714-.0411428-.0213333-.0845714-.040381-.1264761-.0609524-.0632381-.0297143-.1249524-.0609524-.1897143-.087619-.0510476-.0220953-.1036191-.0388572-.1561905-.0579048-.0586667-.0213333-.1158095-.0434286-.1752381-.0624762-.0624762-.0190476-.1264762-.0327619-.1904762-.0487619-.0518095-.0129524-.103619-.0281905-.1569524-.0388571-.0784762-.0152381-.1577143-.0259048-.2377143-.0365715-.0411428-.0053333-.08152377-.0137142-.12342853-.0175238-.12190476-.0129524-.24609524-.0198095-.37180952-.0198095-.12571429 0-.24914286.0068571-.37180953.0198095-.04114285.0038096-.08152381.0121905-.12190476.0175238-.08.0106667-.16.0213334-.23847619.0365715-.05333333.0106666-.10514286.0259047-.15695238.0388571-.064.016-.128.0297143-.19047619.0487619-.05942857.0190476-.11657143.0411429-.1752381.0624762-.05257142.0190476-.10514285.0358095-.15695238.0579048-.0647619.0266666-.12647619.0579047-.18971428.087619-.04114286.0205714-.08457143.0396191-.12571429.0609524-.06780952.0365714-.13257143.0761905-.19809524.1165714-.0327619.0205715-.06628571.0388572-.09828571.0594286-.07009524.0464762-.13790476.096-.20495238.1470476-.02361905.0182857-.04876191.0358095-.07314286.0548572-.07009524.0563809-.13866666.1173333-.20571428.1790476-.01676191.016-.03352381.0297143-.05028572.0457143-.06933333.0678095-.13714286.1394285-.20190476.2125714-.01066667.0114286-.02057143.0228571-.0312381.0342857-.06780952.0792381-.13257142.1607619-.1935238.2445714-.00533334.0076191-.01142858.0152381-.01676191.0228572-.06323809.0883809-.12342857.1805714-.17828571.2750476-.00228572.0038095-.00457143.007619-.00685715.0106667-.05714285.0982857-.10971428.1988571-.15847619.3024762 0 .0007619-.0007619.0007619-.0007619.0015238-.19504762.4205714-.31390476.8830476-.33752381 1.3714285l-.00304762-.0007619-.00685714-.0015238.00152381.112.0007619.0335238c0 .0030476 0 .0060953-.0007619.0091429 0 .0114286-.00152381.0213333-.00152381.032 0 .0121905.0007619.0228571.0007619.0350476 0 .0213333-.0007619.0441905-.0007619.0670476 0 .0769524.00304762.1607619.00838095.2460953l.04114286 2.9104762c-.00304762.1500952.02057142.2933333.06704762.4243809.02285714.0655238.05180952.1272381.08533333.1859048.16838095.2918095.45866667.4845714.79085714.4845714" fill="#1a2982"/><path d="m15.9497143 72.9913905c-.6209524-1.6365715-.8007619-2.4327619-1.7805714-2.2697143-.0182858-.0091429-.0373334-.0175238-.0579048-.0220952-.5066667-.1089524-1.2700952-.2796191-2.088381-.4350477l-.0822857.7420953c-.1318095 1.1900952-1.1382857 2.0914285-2.33599997 2.0914285-1.17561905 0-2.17066667-.8685714-2.32914286-2.0335238l-.06780952-.4990476c-.99885715.5295238-2.36495238 1.2426667-2.96838095 1.5573333-.10361905.0411429-.20495239.0914286-.30171429.1577143-.00228571.0007619-.00533333.0030477-.00533333.0030477v.0015238c-.05104762.0342857-.10133334.0708571-.15009524.1135238-.32228572.2826666-.64533334.6232381-.94552381 1.0323809 1.60838095 1.6624762 3.86133333 2.696381 6.35733333 2.696381 2.70857144 0 5.13219044-1.2182857 6.75580954-3.136" fill="#1ac1f3"/></g></g></svg>