<svg height="160" viewBox="0 0 223 160" width="223" xmlns="http://www.w3.org/2000/svg" xmlns:xlink="http://www.w3.org/1999/xlink"><mask id="a" fill="#fff"><path d="m.20670103.39496354h219.59367997v36.17646506h-219.59367997z" fill="#fff" fill-rule="evenodd"/></mask><mask id="b" fill="#fff"><path d="m0 .0871619h35.5044571v9.43248076h-35.5044571z" fill="#fff" fill-rule="evenodd"/></mask><mask id="c" fill="#fff"><path d="m0 160h222.848v-160h-222.848z" fill="#fff" fill-rule="evenodd"/></mask><g fill="none" fill-rule="evenodd"><path d="m62.5027048 103.889295-1.1832381.060191c-.008381-.172953-1.0361905-17.5603812-14.3558096-42.9440003-13.4529523-25.6350476-15.0407619-49.8933333-15.0552381-50.1348571l1.1832381-.0716191c.0144762.24 1.592381 24.256 14.9211429 49.6556191 13.4544762 25.6373333 14.4815238 43.2601904 14.4899048 43.4346664" fill="#a4e2ff"/><path d="m32.4368762 6.40198095c7.1154286-1.78819047 1.5771428 15.31657145 1.5771428 15.31657145s-10.9653333-12.9569524-1.5771428-15.31657145" fill="#a4e2ff"/><path d="m43.5372952 23.8305524c3.9512381 3.2266666-7.8872381 7.2380952-7.8872381 7.2380952s2.6742858-11.4948571 7.8872381-7.2380952" fill="#a4e2ff"/><path d="m26.0599619 27.678019c.6918095-5.0537142 10.2895238 2.9539048 10.2895238 2.9539048s-11.2022857 3.7142857-10.2895238-2.9539048" fill="#a4e2ff"/><path d="m52.8188952 37.7047619c6.16 4.3535238-10.8906666 11.4887619-10.8906666 11.4887619s2.7626666-17.232 10.8906666-11.4887619" fill="#a4e2ff"/><path d="m59.4659048 49.8714667c6.5295238 4.6140952-11.5436191 12.1767619-11.5436191 12.1767619s2.928-18.264381 11.5436191-12.1767619" fill="#a4e2ff"/><path d="m65.8271238 65.1965714c6.2339048 4.4045715-11.0209524 11.6259048-11.0209524 11.6259048s2.7961905-17.4384762 11.0209524-11.6259048" fill="#a4e2ff"/><path d="m68.7188571 80.3781333c6.9272381 3.2060953-8.7390476 13.4255238-8.7390476 13.4255238s-.4007619-17.6563809 8.7390476-13.4255238" fill="#a4e2ff"/><path d="m29.2649905 46.6162286c.4182857-6.4213334 13.2114285 2.7961904 13.2114285 2.7961904s-13.7630476 5.6754286-13.2114285-2.7961904" fill="#a4e2ff"/><path d="m34.8877714 63.0902095c-1.7188571-6.2011428 13.3958096-1.7081905 13.3958096-1.7081905s-11.128381 9.8895239-13.3958096 1.7081905" fill="#a4e2ff"/><path d="m41.3869714 75.7389714c-.5394285-6.4121904 13.4796191.8038096 13.4796191.8038096s-12.7672381 7.6563809-13.4796191-.8038096" fill="#a4e2ff"/><path d="m47.9178667 87.698819c1.7965714-6.1782857 12.2948571 5.5862858 12.2948571 5.5862858s-14.6651428 2.5660952-12.2948571-5.5862858" fill="#a4e2ff"/><path d="m219.800686 19.2806857c-.072381 9.9801905-49.289143 17.7135238-109.928381 17.2731429-60.6392383-.440381-109.737905-8.888381-109.66552405-18.8685715.07238096-9.97942853 49.28914285-17.71276186 109.92761905-17.27238091 60.64.44038095 109.738667 8.88761905 109.666286 18.86780951" fill="#ebfaff" mask="url(#a)" transform="translate(3.047619 123.428571)"/><path d="m130.175314 59.3253333-.565333-.5424762c.08-.0822857 7.987809-8.4579047 14.175238-26.3763809 6.248381-18.0975238 17.210667-29.85676191 17.321143-29.97333334l.570667.53790476c-.108953.11580952-10.96 11.76076188-17.151239 29.69142858-6.249142 18.0982857-14.269714 26.5798095-14.350476 26.6628571" fill="#1ac1f3"/><path d="m163.497829.66308571c4.086095 2.61638096-6.661334 7.70057143-6.661334 7.70057143s1.270095-11.1527619 6.661334-7.70057143" fill="#1ac1f3"/><path d="m160.135162 13.9078857c.236952 3.3653333-7.060572-.5180952-7.060572-.5180952s6.748191-3.92152383 7.060572.5180952" fill="#1ac1f3"/><path d="m150.361295 7.23451429c2.747429-1.95657143 3.241143 6.29409521 3.241143 6.29409521s-6.865524-3.71123807-3.241143-6.29409521" fill="#1ac1f3"/><path d="m157.660419 24.6660571c.695619 4.9394286-10.469333-.0388571-10.469333-.0388571s9.551238-6.4792381 10.469333.0388571" fill="#1ac1f3"/><path d="m154.813714 33.3811048c.737524 5.2358095-11.096381-.0411429-11.096381-.0411429s10.123429-6.8670476 11.096381.0411429" fill="#1ac1f3"/><path d="m150.316343 43.390019c.704 4.9988572-10.593524-.0388571-10.593524-.0388571s9.664762-6.5561905 10.593524.0388571" fill="#1ac1f3"/><path d="m144.315581 51.6630857c1.595429 4.7893333-10.426667 1.8765714-10.426667 1.8765714s8.321524-8.1950476 10.426667-1.8765714" fill="#1ac1f3"/><path d="m142.693562 17.3609905c3.282286-2.7085715 4.640762 7.6304762 4.640762 7.6304762s-8.970667-4.056381-4.640762-7.6304762" fill="#1ac1f3"/><path d="m137.308114 27.5358476c2.207238-3.6380952 6.893715 5.6761905 6.893715 5.6761905s-9.805715-.8761905-6.893715-5.6761905" fill="#1ac1f3"/><path d="m134.162286 36.3982476c2.843428-3.1657143 5.722666 6.8556191 5.722666 6.8556191s-9.474285-2.6788572-5.722666-6.8556191" fill="#1ac1f3"/><path d="m131.362438 44.9637333c3.790476-1.9352381 2.881524 8.4533334 2.881524 8.4533334s-7.881905-5.8994286-2.881524-8.4533334" fill="#1ac1f3"/><path d="m4.62918095 102.916114c14.72380955-12.701714 41.66857145 28.433524 41.09409525 31.513905-3.3912381-3.014095-8.3756191-7.434667-15.6746667-13.891809-12.2552381-10.840381-20.67276188-15.572572-25.41942855-17.622096" fill="#76abff"/><path d="m29.5685333 121.080533c7.1253334 6.302477 12.0396191 10.660572 15.424 13.66781-6.2171428.213333-50.2133333-15.671619-43.85447616-27.322667.88761905-1.626666 1.85752381-2.925714 2.89142857-3.947428 4.63314286 1.967238 13.15428569 6.646095 25.53904759 17.602285" fill="#4a75ff"/><path d="m44.9926857 134.748648c-3.3843809-3.007238-8.2994286-7.365334-15.424-13.66781-12.3855238-10.95619-20.90666665-15.635048-25.5390476-17.602286.19809523-.195809.39695238-.387809.59961904-.562285 4.74666667 2.049523 13.16419046 6.781714 25.41942856 17.622095 7.2990476 6.457143 12.2834286 10.877714 15.6746667 13.891809-.0076191.040381-.0152381.080762-.0327619.108191-.0830476.131048-.3268572.197333-.6979048.210286" fill="#fff"/><path d="m35.3728762 131.508343c-11.0605714-2.268191-28.75200001-4.684191-34.98514287-5.509333 4.00914286-15.409524 32.13638097 2.058666 34.98514287 5.509333" fill="#76abff"/><path d="m.07969524 1.07230476c.04723809-.34285714.10819047-.66819047.17447619-.98514286 6.22323809.82285715 24.20647617 3.27771429 35.25028567 5.56114286-2.1318095 2.14019048-37.3980952 9.58780954-35.42476186-4.576" fill="#4a75ff" mask="url(#b)" transform="translate(0 126.47619)"/><path d="m35.6090667 131.96c-.0068572.049524-.0464762.105905-.104381.164571-11.0445714-2.283428-29.0270476-4.738285-35.2502857-5.561142.04114286-.192762.08533333-.380953.13333333-.564572 6.23314286.825143 23.92457147 3.241905 34.98514287 5.509333.1645714.19962.2506667.355048.2361905.45181" fill="#fff"/><path d="m41.2352 119.576076h-.0182857c-4.624-.025143-8.3481905 1.356191-11.0689524 4.105905-3.6655238 3.705143-4.8137143 9.123048-5.1375238 12.964571 1.0979048.009905 2.2788571.012953 3.5207619.010667.4373333-2.587429 1.432381-5.618286 3.6472381-7.857524 2.0952381-2.118095 4.9409524-3.181714 8.4571429-3.163428h.0137142c5.9824762.035809 10.2887619 2.146285 12.8007619 6.273523.8540953 1.403429 1.3775239 2.87162 1.6952381 4.204191 2.0754286-.071619 4.0434286-.146286 5.8514286-.223238-.3352381-2.649143-1.3013333-6.421333-3.8552381-9.671619-3.4300952-4.365714-8.7817143-6.600381-15.9062857-6.643048" fill="#c0edff"/><path d="m41.3817905 105.177981c-26.1767619-.141714-24.7756191 29.408762-24.784 30.884571-.0015238.240762 1.4453333.397715 3.8605714.489905.1310476-4.891428 1.224381-13.741714 6.9531429-19.532952 3.6601904-3.698286 8.6384762-5.557334 14.7977142-5.524572.008381.000762.016762.000762.024381.000762 10.5180952.062476 18.0830476 3.760762 22.4868571 10.992762 2.9257143 4.804572 3.6876191 10.023619 3.7790477 13.009524 1.7493333-.121905 2.7893333-.237714 2.839619-.336.3733333-.732191 1.6533333-29.812571-29.9573333-29.984" fill="#c0edff"/><path d="m29.4487619 122.990476c2.9135238-2.945524 6.8746667-4.425143 11.7729524-4.398476h.0198095c8.3542857.049524 14.3657143 2.990476 17.8674286 8.742095 1.8057143 2.966095 2.5668571 6.129524 2.8510476 8.515048 2.1638095-.096 4.0586667-.192762 5.568-.287238-.1059048-3.094857-.96-9.284572-4.9622857-14.477715-4.3573333-5.655619-11.2007619-8.550857-20.3382857-8.604952h-.0228572c-5.8857143-.032-10.6270476 1.729524-14.0929524 5.232762-5.4971428 5.55581-6.5447619 14.128-6.6697142 18.873143.7855238.022095 1.6487619.039619 2.5820952.051047.3306667-4.000761 1.5306667-9.709714 5.4247619-13.645714" fill="#c0edff"/><path d="m51.7296 131.168305c-2.4091429-2.988191-6.1394286-4.518095-11.0857143-4.54781h-.0129524c-3.2419047-.016762-5.8506666.948572-7.7531428 2.872381-1.9977143 2.018286-2.9264762 4.766476-3.3500953 7.161143 7.3569524-.030476 16.6613334-.24 24.6270477-.506667-.4068572-1.580952-1.1344762-3.378285-2.4251429-4.979047" fill="#6ed9f9"/><path d="m42.2337524 111.495695c-.0076191 0-.016 0-.024381-.000762-6.1592381-.032762-11.1375238 1.826286-14.7977143 5.524572-5.7287619 5.791238-6.8220952 14.641524-6.9531428 19.532952.3123809.011429.6392381.022857.983619.032762.1249524-4.745143 1.1725715-13.317333 6.6689524-18.873143 3.4666667-3.503238 8.208-5.264762 14.0929524-5.232762h.023619c9.1367619.054096 15.9801905 2.949334 20.3382858 8.604953 4.0015238 5.193143 4.8563809 11.382095 4.9615238 14.477714.3459047-.021333.6681904-.042667.9721904-.064-.0914285-2.985905-.8533333-8.204952-3.7790476-13.009524-4.4045714-7.232-11.9687619-10.930286-22.4868571-10.992762" fill="#6ed9f9"/><path d="m30.1481905 123.681676c2.7207619-2.748952 6.4449524-4.131047 11.0689524-4.105905l.0022857-.491428-.0022857.491428h.0182857c7.1238095.042667 12.4761904 2.278096 15.9062857 6.643048 2.5531428 3.251048 3.52 7.022476 3.8544762 9.671619.3268571-.013714.6483809-.02819.9638095-.041143-.2841905-2.385524-1.0453333-5.548952-2.8510476-8.515047-3.5017143-5.751619-9.5131429-8.692572-17.8674286-8.742858h-.0198095c-4.8982857-.025904-8.8594286 1.453715-11.7729524 4.399239-3.8940952 3.936-5.0940952 9.644952-5.4247619 13.645714.3207619.003809.6491429.007619.9859048.010667.3245714-3.841524 1.4727619-9.260191 5.1382857-12.965334" fill="#6ed9f9"/><path d="m40.6496762 125.636343h-.0144762l-.0022857.49219.0022857-.49219c-3.5154286-.018286-6.3611429 1.045333-8.456381 3.163428-2.2148571 2.239239-3.2106666 5.270096-3.648 7.857524.328381-.000762.6598096-.002285.9965715-.003047.423619-2.395429 1.3531428-5.142858 3.3500952-7.161143 1.9024762-1.92381 4.5112381-2.889143 7.7531429-2.872381h.0129524c4.9470476.029714 8.6765714 1.559619 11.0857142 4.547809 1.2914286 1.6 2.0182858 3.398096 2.4259048 4.979048.3321905-.011429.6628571-.022095.9904762-.033524-.3184762-1.332571-.8411429-2.800762-1.6952381-4.20419-2.512-4.127238-6.8182857-6.237715-12.8007619-6.273524" fill="#6ed9f9"/><path d="m198.302933 56.646019c-.891428 2.9318096-1.870476 6.0860953-2.903619 9.4140953-.985143 3.1733333-2.02819 6.5409524-3.092571 10.0251428l-15.277714-16.0350476c.656761-9.6312381-1.596953-19.7287619-1.350858-26.3344762.050286-1.3302857.429715-3.7203809 1.260191-6.4739047l23.462857 15.2617143c-.102857 4.7565714-.711619 9.5801904-2.098286 14.1424761" fill="#c0edff"/><path d="m196.670476 10.6326095c11.561905.8297143 17.583238 8.5485715 20.565334 17.7348572l-15.349334 12.2262857c-.079238-13.0826667-3.660952-25.2761905-5.216-29.9611429" fill="#c0edff"/><path d="m196.810362 66.4986667c1.033905-3.3310477 2.014476-6.488381 2.905905-9.4224762 1.432381-4.7108572 2.054857-9.6853334 2.15619-14.5813334l15.827048-12.6064761c1.223619 4.2986666 1.836952 8.8434285 2.073905 13.1055238.39619 7.1413333-1.807239 15.1367619-4.512762 22.7649523-8.329905 3.0476191-17.672381 8.112-21.366096 10.1859048 1.003429-3.2769524 1.986286-6.4487619 2.91581-9.4460952" fill="#c0edff"/><path d="m200.413029 40.7494095-22.999619-14.9630476c2.39238-6.9066667 7.542095-15.2434286 17.190857-15.2350476.165333 0 .321523.0121905.484571.0152381 1.407238 4.1325714 5.273905 16.711619 5.324191 30.1828571" fill="#c0edff"/><path d="m181.769448 114.757638c-3.004953-5.016381-12.394667-20.8205713-16.96381-30.0198094 3.340952-3.936 6.600381-7.552 9.095619-12.3687619 1.659429-3.2038096 2.532572-6.7344762 2.942476-10.3687619l14.967619 15.7074285c-3.527619 11.6022857-7.255619 24.5333337-10.041904 37.0499047" fill="#c0edff"/><path d="m151.34461 110.558933c2.835809-12.1340949 7.64038-18.8502854 12.423619-24.588952 5.311238 10.5721904 16.111238 28.523429 17.546666 30.901333-1.467428 6.837334-2.633905 13.513143-3.304381 19.743238-13.082666.041905-24.982095-.032762-25.635047-.007619-1.467429.058667-6.058667-4.537143-1.030857-26.048" fill="#c0edff"/><path d="m193.2672 78.0009143c1.723429-.9881905 12.073905-6.8495238 21.336381-10.4182857-3.127619 8.5264762-6.684191 16.4601904-7.683048 22.0358095-1.27619 7.1215238-.978285 11.5573329.416762 15.7699049-7.174857 5.536-20.316952 9.281524-24.262095 10.319238 2.8-12.710095 6.601143-25.8994286 10.192-37.7066667" fill="#c0edff"/><path d="m207.860952 106.829029c.764953 1.955809 1.751619 3.923809 2.923429 6.153904 3.974095 7.559619 3.036952 21.008762 2.177524 22.512762-.462476.809905-17.548953 1.052953-33.462095 1.113905.662095-6.085333 1.798857-12.60419 3.229714-19.284571 2.847238-.708572 17.030857-4.45181 25.131428-10.496" fill="#c0edff"/><g fill="#fff"><path d="m192.306667 76.0849524c1.064381-3.4834286 2.10819-6.8518095 3.092571-10.024381 1.033143-3.328 2.012191-6.4830476 2.903619-9.4148571 1.386667-4.5622857 1.995429-9.3859048 2.098286-14.1417143l.803809.5226667.667429-.5318096c-.101333 4.896-.72381 9.8704762-2.155429 14.5813334-.89219 2.9340952-1.872762 6.0914285-2.906666 9.4224762-.929524 2.9973333-1.912381 6.1691428-2.91581 9.4460952-.451809.2537143-.848.4784762-1.117714.632381z"/><path d="m201.886629 40.5939048-.769524.6133333-.704-.4579048c-.050286-13.4712381-3.916953-26.0502857-5.324191-30.1828571.537905.0091428 1.066667.0297143 1.581715.0662857 1.555047 4.6849524 5.136761 16.8784762 5.216 29.9611429"/><path d="m181.769448 114.757638c2.786285-12.516571 6.514285-25.447619 10.041904-37.0499047l.698667.7337143.504381-.2948571c.010667-.0068572.101333-.0586667.252952-.1455238-3.590857 11.8072381-7.392 24.9958093-10.192762 37.7066663-.244571.064-.465523.121143-.63619.164572-.159238-.265905-.390095-.649143-.668952-1.114667"/><path d="m181.455467 117.103619.278095.460952.524952-.12419c.067048-.016.228572-.054857.470857-.115048-1.430857 6.680381-2.567619 13.198477-3.229714 19.284572-.497524.001524-.994286.003047-1.488762.004571.669715-6.229333 1.836191-12.905905 3.304381-19.743238.064.107429.115048.190476.140191.232381"/><path d="m200.401143 42.5038476-23.462095-15.2617143c.143238-.4754285.303238-.9630476.473904-1.4552381l23.000381 14.9622858c.002286.583619.000762 1.168-.01219 1.7546666"/><path d="m201.886629 40.5939048 15.349333-12.2262858c.163048.5028572.317714 1.0095239.463238 1.520762l-15.827048 12.6064761c.013715-.6354285.018286-1.2693333.014477-1.9009523"/><path d="m200.401143 42.5038476c.012952-.5866666.014476-1.1710476.01219-1.7546666l.703238.4579047.770286-.6133333c.00381.631619-.000762 1.2655238-.014476 1.9009524l-.667429.5325714z"/><path d="m191.811124 77.7077333-14.967619-15.7074285c.073143-.6476191.140952-1.2967619.185143-1.9504762l15.277714 16.0350476c-.164572.5401905-.329143 1.0758095-.495238 1.6228571"/><path d="m193.894781 75.9450667c3.693714-2.0746667 13.035429-7.1382857 21.365333-10.1859048-.216381.6102857-.434285 1.2182857-.656 1.8232381-9.263238 3.5687619-19.613714 9.4300952-21.337143 10.4182857.210286-.6918095.419048-1.3729524.62781-2.055619"/><path d="m192.510171 78.4413714-.698666-.7337143c.166095-.5470476.329905-1.0826666.495238-1.6228571l.470095.4929524c.269714-.1539048.665905-.3786667 1.117714-.632381-.208762.6819048-.416762 1.3638096-.627047 2.0556191-.152381.0868571-.242286.1386666-.252953.1455238z"/><path d="m183.074895 115.707733c3.945143-1.037714 17.088-4.783238 24.262095-10.319238.16.481524.336762.961524.524191 1.440762-8.100571 6.043429-22.284191 9.786667-25.131429 10.496.11581-.539428.225524-1.075809.345143-1.617524"/><path d="m181.3152 116.871467c-1.435429-2.377905-12.235429-20.3299051-17.547429-30.9020956.346667-.4152381.692572-.8251428 1.037715-1.232 4.569904 9.1992381 13.958857 25.0041906 16.963809 30.0205716-.157714.707047-.302476 1.408762-.454095 2.113524"/><path d="m182.438705 115.872152c.170666-.043428.391619-.100571.63619-.164571-.119619.541714-.229333 1.078095-.345143 1.617524-.243047.06019-.404571.099047-.471619.115809l-.52419.124191-.278857-.461715c-.025143-.041142-.075429-.124952-.140191-.231619.151619-.704761.297143-1.406476.454857-2.114285.278858.465524.509715.848762.668953 1.114666"/></g><path d="m72.1318095 67.1548952c0 2.9188572-2 5.2845715-3.5504762 5.2845715-1.5497143 0-4.128-2.0358096-4.128-4.9539048s2.5782857-5.6144762 4.128-5.6144762c1.5504762 0 3.5504762 2.3657143 3.5504762 5.2838095" fill="#c8eaf8"/><path d="m68.8959238 122.113295c.872381 2.784762-.1142857 5.572572-2.2034286 6.227048-2.0883809.653714-4.4883809-1.073524-5.3607619-3.859048-.871619-2.784762.1142857-5.571809 2.2034286-6.225524 2.088381-.654476 4.488381 1.072762 5.3607619 3.857524" fill="#c8eaf8"/><path d="m157.928305 137.961448h-99.4514288c-4.9851429 0-9.0636191-4.079238-9.0636191-9.063619v-88.1401909c0-4.1904762 3.4285715-7.6190476 7.6190477-7.6190476h102.3405712c4.190476 0 7.619048 3.4285714 7.619048 7.6190476v88.1401909c0 4.984381-4.078476 9.063619-9.063619 9.063619" fill="#3369f0"/><path d="m61.1232 134.665371h13.5649524l-21.5436191-18.729142v11.792761c0 3.814096 3.5900953 6.936381 7.9786667 6.936381" fill="#1e41d3"/><path d="m163.256076 127.72861c0 1.78819-.788571 3.424-2.079238 4.657523 1.290667-1.233523 2.079238-2.869333 2.079238-4.657523" fill="#f7f7f7"/><path d="m159.406324 133.657143c.548571-.290286 1.053714-.636953 1.506286-1.030095-.452572.393142-.957715.739809-1.506286 1.030095" fill="#f7f7f7"/><path d="m159.406324 133.657143c-1.206095.639238-2.620953 1.008-4.129524 1.008 1.508571 0 2.923429-.368762 4.129524-1.008" fill="#f7f7f7"/><path d="m53.1444571 115.936152 21.5436191 18.729143h80.5889528c1.508571 0 2.922666-.368762 4.129523-1.008.54781-.290285 1.053715-.636952 1.505524-1.030095.090667-.077714.179048-.159238.264381-.240762 1.290667-1.233524 2.079238-2.870095 2.079238-4.657524v-55.1481902h-110.1112379z" fill="#fff"/><path d="m159.075276 37.3178667h-101.750095c-2.3093334 0-4.1805715 1.8712381-4.1805715 4.1805714v31.1725714h110.1112385v-31.1725714c0-2.3093333-1.871238-4.1805714-4.180572-4.1805714" fill="#4a75ff"/><path d="m117.051429 86.5150476h7.651047v-6.6514286h-7.651047z" fill="#b8d5ff" mask="url(#c)"/><path d="m130.553143 86.5150476h7.651047v-6.6514286h-7.651047z" fill="#b8d5ff" mask="url(#c)"/><path d="m144.055619 86.5150476h7.651048v-6.6514286h-7.651048z" fill="#1ac1f3" mask="url(#c)"/><path d="m63.0415238 98.304h7.6510476v-6.6514286h-7.6510476z" fill="#b8d5ff" mask="url(#c)"/><path d="m76.5432381 98.304h7.6510476v-6.6514286h-7.6510476z" fill="#b8d5ff" mask="url(#c)"/><path d="m90.0464762 98.304h7.6510476v-6.6514286h-7.6510476z" fill="#b8d5ff" mask="url(#c)"/><path d="m103.54819 98.304h7.651048v-6.6514286h-7.651048z" fill="#b8d5ff" mask="url(#c)"/><path d="m117.051429 98.304h7.651047v-6.6514286h-7.651047z" fill="#b8d5ff" mask="url(#c)"/><path d="m130.553143 98.304h7.651047v-6.6514286h-7.651047z" fill="#b8d5ff" mask="url(#c)"/><path d="m144.055619 98.304h7.651048v-6.6514286h-7.651048z" fill="#1ac1f3" mask="url(#c)"/><path d="m63.0415238 110.09219h7.6510476v-6.651428h-7.6510476z" fill="#b8d5ff" mask="url(#c)"/><path d="m76.5432381 110.09219h7.6510476v-6.651428h-7.6510476z" fill="#b8d5ff" mask="url(#c)"/><path d="m90.0464762 110.09219h7.6510476v-6.651428h-7.6510476z" fill="#b8d5ff" mask="url(#c)"/><path d="m103.54819 110.09219h7.651048v-6.651428h-7.651048z" fill="#b8d5ff" mask="url(#c)"/><path d="m117.051429 110.09219h7.651047v-6.651428h-7.651047z" fill="#b8d5ff" mask="url(#c)"/><path d="m130.553143 110.09219h7.651047v-6.651428h-7.651047z" fill="#b8d5ff" mask="url(#c)"/><path d="m144.055619 110.09219h7.651048v-6.651428h-7.651048z" fill="#1ac1f3" mask="url(#c)"/><path d="m76.5432381 121.880381h7.6510476v-6.651429h-7.6510476z" fill="#b8d5ff" mask="url(#c)"/><path d="m63.0415238 121.880381h7.6510476v-6.651429h-7.6510476z" fill="#b8d5ff" mask="url(#c)"/><path d="m90.0464762 121.880381h7.6510476v-6.651429h-7.6510476z" fill="#b8d5ff" mask="url(#c)"/><path d="m103.54819 121.880381h7.651048v-6.651429h-7.651048z" fill="#b8d5ff" mask="url(#c)"/><path d="m117.051429 121.880381h7.651047v-6.651429h-7.651047z" fill="#b8d5ff" mask="url(#c)"/><path d="m130.553143 121.880381h7.651047v-6.651429h-7.651047z" fill="#b8d5ff" mask="url(#c)"/><path d="m144.055619 121.880381h7.651048v-6.651429h-7.651048z" fill="#1ac1f3" mask="url(#c)"/><path d="m74.688 122.872914c0-3.815619-3.5908571-6.936381-7.9794286-6.936381h-13.5641904l21.543619 18.729143z" fill="#4a75ff" mask="url(#c)"/><path d="m71.3944381 44.7717333c0 2.9752381 2.7748571 5.3881905 6.1980952 5.3881905s6.1980953-2.4129524 6.1980953-5.3881905c0-2.976-2.7748572-5.3881904-6.1980953-5.3881904s-6.1980952 2.4121904-6.1980952 5.3881904" fill="#fff" mask="url(#c)"/><path d="m71.9714286 44.2702476c0 2.6986667 2.5165714 4.8860953 5.6205714 4.8860953 3.1047619 0 5.6213333-2.1874286 5.6213333-4.8860953 0-2.6994286-2.5165714-4.8868571-5.6213333-4.8868571-3.104 0-5.6205714 2.1874285-5.6205714 4.8868571" fill="#1a2982" mask="url(#c)"/><path d="m77.592381 24.2710095c-2.3504762 0-4.2742858 1.6716191-4.2742858 3.7158095v16.0045715c0 2.0434285 1.9238096 3.7165714 4.2742858 3.7165714 2.351238 0 4.2742857-1.6731429 4.2742857-3.7165714v-16.0045715c0-2.0441904-1.9230477-3.7158095-4.2742857-3.7158095" fill="#1e41d3" mask="url(#c)"/><path d="m132.609829 44.7717333c0 2.9752381 2.774857 5.3881905 6.198095 5.3881905s6.198095-2.4129524 6.198095-5.3881905c0-2.976-2.774857-5.3881904-6.198095-5.3881904s-6.198095 2.4121904-6.198095 5.3881904" fill="#fff" mask="url(#c)"/><path d="m133.186819 44.2702476c0 2.6986667 2.516571 4.8860953 5.620571 4.8860953 3.104762 0 5.621334-2.1874286 5.621334-4.8860953 0-2.6994286-2.516572-4.8868571-5.621334-4.8868571-3.104 0-5.620571 2.1874285-5.620571 4.8868571" fill="#1a2982" mask="url(#c)"/><path d="m138.807771 24.2710095c-2.350476 0-4.274285 1.6716191-4.274285 3.7158095v16.0045715c0 2.0434285 1.923809 3.7165714 4.274285 3.7165714 2.351239 0 4.274286-1.6731429 4.274286-3.7165714v-16.0045715c0-2.0441904-1.923047-3.7158095-4.274286-3.7158095" fill="#1e41d3" mask="url(#c)"/><path d="m144.677943 117.424305c0-15.497143 12.563047-28.0594288 28.06019-28.0594288 8.54781 0 16.201905 3.8232381 21.348572 9.8529524 4.183619 4.8998094 6.710857 11.2579044 6.710857 18.2064764 0 15.497143-12.563048 28.06019-28.059429 28.06019-6.949333 0-13.306666-2.527238-18.207238-6.710857-6.028952-5.146667-9.852952-12.800762-9.852952-21.349333m28.06019-33.4400002c-18.468571 0-33.44 14.9721904-33.44 33.4400002 0 18.467809 14.971429 33.44 33.44 33.44 18.46781 0 33.439238-14.972191 33.439238-33.44 0-18.4678098-14.971428-33.4400002-33.439238-33.4400002" fill="#0b33b2" mask="url(#c)"/><path d="m172.060343 143.631086v-3.603048c0-.371809.304762-.676571.677333-.676571.372572 0 .677334.304762.677334.676571v3.603048c0 .372571-.304762.678095-.677334.678095-.372571 0-.677333-.305524-.677333-.678095zm-11.107048-4.970667-1.097143 1.899429c-.112762.196571-.366476.264381-.563047.150857-.196572-.112762-.264381-.366476-.150857-.563048l1.096381-1.899428c.113523-.196572.367238-.264381.563809-.151619.196572.114285.264381.367238.150857.563809zm-6.773333-10.598095 17.518476-12.272762c.060952-.051048.127238-.098286.196572-.142476l.842666-2.313905 3.962667-10.876952-2.378667 13.511619c.089143.098285.170667.208.24.327619.524191.90819.213334 2.070095-.694857 2.593523-.097524.056381-.197333.102096-.298667.139429l-.830476.387048zm30.492952 10.034286c.196572-.112762.450286-.044953.563048.151619l1.097143 1.899428c.113524.196572.044952.450286-.150857.563048-.196572.113524-.450286.045714-.56381-.150857l-1.096381-1.899429c-.113524-.196571-.045714-.449524.150857-.563809zm8.737524-8.736762c.113524-.196572.366476-.264381.563048-.151619l1.899428 1.097142c.196572.113524.265143.366477.151619.563048-.113523.197333-.367238.265143-.563809.150857l-1.899429-1.096381c-.196571-.113524-.264381-.367238-.150857-.563047zm.150857-24.434286 1.899429-1.096381c.196571-.114286.450286-.045714.563809.150857.113524.196572.044953.449524-.151619.563048l-1.899428 1.097143c-.196572.112761-.449524.044952-.563048-.151619-.113524-.19581-.045714-.449524.150857-.563048zm6.060953 12.499048c0 .372571-.304762.677333-.677334.677333h-3.602285c-.373334 0-.678096-.304762-.678096-.677333 0-.373334.304762-.677334.678096-.677334h3.602285c.372572 0 .677334.304.677334.677334zm1.175619 0c0-6.949334-2.527238-13.306667-6.710857-18.2072386-2.280381-1.9474285-4.876953-3.5352381-7.702096-4.6765714-.006095.055619-.022857.1097143-.051809.16l-1.097143 1.8994286c-.112762.1965714-.366476.2643809-.563048.151619-.196571-.1135238-.263619-.3672381-.150857-.5638095l1.096381-1.8994286c.007619-.0121905.017524-.023619.025905-.0358095-3.041524-1.128381-6.330667-1.7470476-9.764572-1.7470476-.830476 0-1.652571.0388571-2.464761.1097143v2.2049523c0 .3718096-.304762.6765715-.677334.6765715-.372571 0-.677333-.3047619-.677333-.6765715v-2.0540952c-1.09181.1485714-2.162286.3634286-3.209905.6339048-.071619.0182857-.144762.0335238-.215619.0525714-.653714.1737143-1.295238.375619-1.929143.5942857-.087619.0304762-.177524.0571429-.265143.088381-.106666.0388571-.211047.0822857-.317714.1211428-.250667.0929524-.502095.184381-.748952.2849524-.042667.0175238-.083048.0358095-.124953.0533333-.660571.2704762-1.310476.5638096-1.945143.8830477-.316952.1592381-.630095.3253333-.940952.496-.019048.0106666-.039619.0205714-.058667.0312381-.506666.2803809-1.000381.5813333-1.487238.8914285-.146285.0929524-.294857.1828572-.438857.2788572-.088381.0586666-.172952.1211428-.259809.1805714-.222477.151619-.446477.3024762-.664381.4601905-.203429.1478095-.402286.3017143-.601905.4540952-.097524.0746667-.198095.1462857-.294857.2224762-.135619.1066667-.267429.2194286-.401524.328381-.156191.127238-.313905.2521904-.467048.3817142-.103619.0891429-.203428.1820953-.305523.272-.179048.1561905-.358858.3116191-.533334.472381-.096762.0899048-.189714.1836188-.285714.2750478-.446476.423619-.882286.857905-1.299048 1.310476-.419047.453333-.819809.923429-1.207619 1.40419-.082285.101334-.167619.200381-.248381.302477-.086857.112-.169904.227047-.256.340571-.140952.184381-.283428.367238-.419809.556191-.14781.20419-.288762.41219-.430476.620952-.069334.100571-.142477.199619-.210286.302476-.131048.198095-.256.4-.382476.601143-.073143.116571-.150096.231619-.221715.348952-.084571.139429-.163047.282667-.245333.423619-.107429.183619-.217905.365715-.321524.552381-.054095.097524-.103619.198096-.156952.297143-.124953.233143-.252191.465524-.371048.703238-.067047.134096-.128762.270477-.193524.406096-.099047.205714-.201142.409142-.294857.617142-.10819.24-.209524.483048-.311619.727619-.04419.105905-.092952.210286-.136381.318477-.082285.20419-.157714.412952-.23619.619428-.055619.149334-.11581.297143-.169905.447238-.048762.137905-.09219.278096-.139429.416762-.07619.223238-.153904.444953-.224.671238-.04038.128762-.074666.260572-.112761.389334-.070858.238476-.142477.47619-.207239.71619-.057142.217143-.107428.436572-.16.655238-.038095.156953-.08.311619-.115047.469334-.040381.183619-.073905.368761-.111238.553142-.038857.196572-.082286.391619-.118095.589715-.031239.173714-.054858.349714-.082286.52419-.034286.210286-.071619.420572-.100572.633143 0 .00381.002286.006857.006096.006857h2.022095c.347428 0 .659047.246857.702476.590476.05181.410667-.270476.764191-.672.764191h-2.20419-.000762c-.003048 0-.005334.002286-.005334.004571-.070857.810667-.108952 1.631238-.108952 2.460191 0 3.433143.618667 6.723047 1.747048 9.764571.01219-.009143.022857-.018286.035809-.025905l1.882667-1.087238.016762-.009904c.086857-.049524.185143-.059429.277333-.042667.003048.000762.006095 0 .008381.000762.035809.006857.067809.021333.100571.037333.016762.008381.034286.014476.050286.025143.021333.013714.038857.034286.057905.052571.014476.015239.032762.025143.045714.042667.00381.005333.004572.012952.008381.019048.00381.006095.010667.009904.014476.016762.013715.023619.016762.049523.025143.073904.007619.022858.018286.043429.022095.066286.005334.033524.001524.065524-.001523.098286-.001524.021333.000761.043428-.00381.064-.009143.035047-.026667.066286-.04419.098286-.008381.016-.012953.034285-.023619.049523-.032762.044191-.073905.08381-.124953.112762l-1.899428 1.096381c-.050286.029714-.105143.046476-.16.052572 1.141333 2.825142 2.729142 5.420952 4.675809 7.701333 4.900572 4.183619 11.258667 6.711619 18.207238 6.711619 15.497143 0 28.060191-12.56381 28.060191-28.06019z" fill="#fff" mask="url(#c)"/><path d="m149.451352 103.980038c.113524-.196571.366477-.265143.563048-.150857l1.899429 1.096381c.196571.113524.265142.367238.151619.563048-.113524.196571-.367238.26438-.56381.151619l-1.899428-1.097143c-.196572-.113524-.264381-.366476-.150858-.563048m9.841524-9.8422856c.196572-.1127619.450286-.0457143.56381.1508571l1.097143 1.8994286c.112761.1965714.044952.4502857-.151619.5638095-.19581.1135238-.449524.0449524-.563048-.151619l-1.097143-1.8994286c-.113524-.1965714-.044952-.4502857.150857-.5630476m-9.841524 36.7306666c-.105904-.182857-.051809-.415238.115048-.537143-1.128381-3.041524-1.747048-6.331428-1.747048-9.764571 0-.828953.038858-1.648762.108953-2.458667 0-.003809-.002286-.006095-.005334-.006095h-1.360761c-.344381 0-.652191-.245333-.697143-.586667-.054857-.41219.268952-.768.671238-.768h1.536762.001523c.003048 0 .005334-.002286.005334-.005333.000762 0 .000762-.000762.000762-.001524.028952-.212571.066285-.422857.099809-.633143.028191-.174476.051048-.350476.082286-.52419.035809-.198096.079238-.393143.118857-.589715.037333-.184381.070095-.369523.111238-.553142.035048-.157715.076953-.312381.114286-.469334.052571-.218666.102857-.438095.160762-.655238.064-.24.136381-.477714.206476-.71619.038095-.128762.072381-.260572.112762-.389334.070095-.226285.148571-.448.224-.671238.047238-.138666.090667-.278857.14019-.416762.053334-.150095.113524-.297904.169905-.447238.077714-.206476.153143-.415238.236191-.619428.042666-.108191.091428-.212572.135619-.318477.102095-.244571.203428-.487619.311619-.727619.094476-.208.195809-.411428.294857-.617142.064762-.135619.126476-.272.193524-.406096.118857-.237714.246095-.470095.371809-.703238.052572-.099047.102095-.199619.156191-.297143.103619-.186666.214095-.368762.321523-.552381.082286-.140952.160762-.28419.245334-.423619.071619-.117333.148571-.232381.222476-.348952.125714-.201143.250667-.403048.381714-.601143.068572-.102857.140953-.201905.210286-.302476.142476-.208762.283429-.416762.430476-.620952.136381-.188953.278857-.37181.41981-.556191.086095-.113524.169143-.228571.256762-.340571.080762-.102096.165333-.201143.247619-.302477.388571-.480761.788571-.950857 1.207619-1.40419.417524-.452571.853333-.886857 1.299047-1.310476.096-.091429.188953-.185143.285715-.2750478.174476-.1607619.355047-.3161905.533333-.472381.102095-.0899047.201905-.1828571.306286-.272.152381-.1295238.310857-.2544762.466285-.3817142.134096-.1089524.265905-.2217143.401524-.328381.096762-.0761905.197334-.1478095.294857-.2224762.199619-.1523809.398477-.3062857.601905-.4540952.218667-.1577143.441905-.3085715.664381-.4601905.087619-.0594286.172191-.1219048.25981-.1805714.144-.096.293333-.1859048.438857-.2788572.487619-.3100952.981333-.6110476 1.487238-.8914285.019809-.0106667.039619-.0205715.059428-.0312381.310096-.1706667.623238-.3367619.940953-.496.634666-.3192381 1.283809-.6125715 1.944381-.8830477.042666-.0175238.083047-.0358095.124952-.0533333.246857-.1005714.498286-.192.748952-.2849524.106667-.0388571.211048-.0822857.317715-.1211428.088381-.0312381.177524-.0579048.265143-.088381.633904-.2186667 1.27619-.4205714 1.929142-.5942857.070858-.0190476.144-.0342857.21562-.0525714 1.047619-.2704762 2.118095-.4853334 3.209904-.6339048v-1.5489524c0-.3725714.304762-.6780952.677334-.6780952.372571 0 .678095.3055238.678095.6780952v1.3980953c.81219-.0708572 1.633524-.1097143 2.464-.1097143 3.433905 0 6.723809.6186666 9.764571 1.7470476.122667-.1668571.354286-.2209524.537905-.1150476.145524.0838095.220952.2453333.203429.4030476 2.824381 1.1413333 5.420952 2.7291429 7.701333 4.6765714-5.146667-6.0289524-12.800762-9.8529524-21.349333-9.8529524-15.496381 0-28.059429 12.563048-28.059429 28.060191 0 8.547809 3.823238 16.201904 9.852952 21.348571-1.947428-2.280381-3.535238-4.876191-4.676571-7.701333-.157714.017523-.319238-.057905-.403048-.203429" fill="#b8d5ff" mask="url(#c)"/><path d="m172.737829 90.539581c-.372572 0-.677334.3047619-.677334.6780952v1.5489524 2.0533333c0 .3718095.304762.6773333.677334.6773333.372571 0 .677333-.3055238.677333-.6773333v-2.2041905-1.3980952c0-.3733333-.304762-.6780952-.677333-.6780952" fill="#003ba4" mask="url(#c)"/><path d="m160.238933 96.6006095c.113524.1965715.367238.2651429.56381.1508572.196571-.1127619.263619-.3664762.150857-.5630477l-1.096381-1.8994285c-.113524-.1965715-.367238-.264381-.563809-.1508572-.196572.1127619-.264381.3664762-.150858.5630477z" fill="#0b33b2" mask="url(#c)"/><path d="m185.618743 140.559695c.113524.196572.367238.265143.563047.150857.196572-.112762.264381-.366476.150858-.563047l-1.096381-1.899429c-.112762-.196571-.366477-.264381-.563048-.150857s-.264381.366476-.150857.563048z" fill="#0b33b2" mask="url(#c)"/><path d="m149.451352 130.868495c.08381.145524.245334.220953.403048.203429.055619-.006095.109714-.022857.16-.052572l1.899429-1.096381c.051047-.028952.09219-.068571.124952-.112761.011429-.015239.015238-.033524.024381-.049524.016762-.032.035048-.063238.043428-.098286.005334-.020571.002286-.042667.004572-.064.003048-.032762.006095-.064762.000762-.098286-.00381-.022095-.014476-.04419-.022095-.066285-.008381-.024381-.011429-.050286-.024381-.073905-.004572-.006857-.010667-.010667-.015238-.016762-.015239-.023619-.035048-.042667-.054096-.061714-.019047-.018286-.036571-.038858-.057904-.052572-.015239-.011428-.033524-.016762-.050286-.025143-.032762-.016-.064762-.030476-.100572-.037333-.002285-.000762-.005333 0-.007619-.000762-.092952-.016762-.190476-.006857-.278095.042667l-.016762.009905-1.882666 1.087238c-.012953.007619-.02362.016762-.03581.025904-.166857.121905-.220952.354286-.115048.537143" fill="#0b33b2" mask="url(#c)"/><path d="m193.973714 105.640076 1.899429-1.096381c.196571-.114285.264381-.367238.150857-.563809-.113524-.196572-.366476-.264381-.563048-.150857l-1.899428 1.097142c-.196572.112762-.264381.366477-.150857.563048.113523.196571.366476.263619.563047.150857" fill="#0b33b2" mask="url(#c)"/><path d="m172.737829 139.35139c-.372572 0-.677334.304762-.677334.677334v3.602286c0 .372571.304762.678095.677334.678095.372571 0 .677333-.305524.677333-.678095v-3.602286c0-.372572-.304762-.677334-.677333-.677334" fill="#0b33b2" mask="url(#c)"/><path d="m194.664914 117.424305c0 .372571.304762.678095.677334.678095h3.602285c.372572 0 .677334-.305524.677334-.678095 0-.372572-.304762-.677334-.677334-.677334h-3.602285c-.372572 0-.677334.304762-.677334.677334" fill="#0b33b2" mask="url(#c)"/><path d="m150.108724 116.7472h-3.572572c-.402285 0-.726095.35581-.671238.768.044953.341333.352762.586667.697143.586667h1.360762.000762c.003048 0 .005333-.002286.005333-.005334 0 0 .000762 0 .000762-.000762-.000762.003048.002286.006096.005334.006096h2.20419c.400762 0 .72381-.353524.672-.764191-.043429-.343619-.35581-.590476-.702476-.590476" fill="#0b33b2" mask="url(#c)"/><path d="m149.602362 104.543314 1.899428 1.096381c.196572.113524.449524.045715.563048-.150857.113524-.196571.045714-.450286-.150857-.563048l-1.899429-1.09638c-.196571-.114286-.449523-.045715-.563047.150857-.113524.196571-.045715.449523.150857.563047" fill="#0b33b2" mask="url(#c)"/><path d="m193.561448 129.922819 1.899428 1.096381c.196572.114286.449524.046476.563048-.150857.113524-.196572.045714-.449524-.150857-.563048l-1.899429-1.096381c-.196571-.113524-.449524-.045714-.563048.150857-.113523.196572-.045714.450286.150858.563048" fill="#0b33b2" mask="url(#c)"/><path d="m160.80221 138.096914c-.196572-.112762-.449524-.045714-.563048.150857l-1.097143 1.899429c-.113524.196571-.044952.450286.151619.56381.19581.113523.449524.044952.563048-.15162l1.096381-1.899428c.113523-.196572.045714-.449524-.150857-.563048" fill="#0b33b2" mask="url(#c)"/><path d="m186.1824 94.1378286c-.183619-.1059048-.415238-.0518096-.537905.1150476-.008381.0121905-.018285.023619-.025905.0358095l-1.09638 1.8994286c-.113524.1965714-.045715.4502857.150857.5638095.196571.1127619.450285.0449524.563047-.151619l1.097143-1.8994286c.028953-.0502857.045714-.104381.05181-.16.017523-.1577143-.057143-.3192381-.202667-.4030476" fill="#0b33b2" mask="url(#c)"/><path d="m172.737829 118.88259v-.56838c-.491429 0-.889905-.398477-.889905-.889905 0-.492191.398476-.889905.889905-.889905v-1.178667-2.022095l-.842667 2.313143c-.069333.044952-.135619.091429-.196572.142476l-17.518476 12.273524 18.557715-8.647619z" fill="#1e41d3" mask="url(#c)"/><path d="m172.737829 116.5344c.491428 0 .889904.397714.889904.889905 0 .491428-.398476.889905-.889904.889905v.56838.532572l.830476-.387048c.101333-.036571.201143-.083047.297905-.138666.90819-.524191 1.219809-1.685334.695619-2.593524-.069334-.120381-.150858-.229334-.24-.327619l2.378666-13.512381-3.962666 10.877714v2.022095z" fill="#1e41d3" mask="url(#c)"/><path d="m173.627733 117.424305c0-.492191-.398476-.889905-.889904-.889905-.491429 0-.889905.397714-.889905.889905 0 .49219.398476.889905.889905.889905.491428 0 .889904-.397715.889904-.889905" fill="#e9eaee" mask="url(#c)"/><path d="m44.2754286 64.0016762c-.3047619-.1714286-2.3367619 2.6780952-2.3367619 2.6780952l-.2544762-.6270476c-.3558095-1.367619-1.1687619-.512-1.1687619-.512s.864 2.1074286.9660952 2.7916191c.0441905.2986666.0594286.7718095.0624762 1.2099047.0739048-.1165714.1386667-.1851428.1912381-.1851428l1.7013333 1.0674285c.728381-.9028571 1.744-2.2872381 2.0586667-3.3462857.5081905-1.7089524-.9150476-2.9051428-1.2198095-3.0765714" fill="#ffebd2" mask="url(#c)"/><path d="m41.544 69.5425524c-.7908571 1.2487619-2.688 8.5447619-2.688 8.5447619-2.2979048-2.4099048-6.5028571-10.5051429-8.4281905-9.8369524 0 0 2.7375238 12.5539048 2.7733334 13.3577143 1.6144761 1.7851428 5.7150476 4.0723809 5.8407619 4.1584762 4.576 3.127619 4.4205714-15.3264762 4.4205714-15.3264762l-.0259048-.016-1.7020952-1.0666667c-.0518095 0-.1165714.0685715-.1904762.1851429" fill="#4a75ff" mask="url(#c)"/><path d="m24.3583238 141.608762.1699048-1.399619c.5417143.037333 1.4125714.016762 2-.005333l.5150476 1.376z" fill="#ffebd2" mask="url(#c)"/><path d="m27.0182857 141.554514s1.1558095 2.280381.8380953 2.678096c-.3184762.396952-3.5771429.317714-3.9748572-.239239-.3977143-.55619.4769524-2.384761.4769524-2.384761z" fill="#1a2982" mask="url(#c)"/><path d="m44.9472762 140.46819c-.4693333.144762-.8.244572-.8.244572l-13.6792381-30.332191.0114286-.099047 2.112-9.977143c1.136-.153905 2.1295238-.3222858 2.7062857-.4944762.5173333-.1554286.8929524-.3009524 1.1718095-.4434286l11.5215238 40.0655238c-.2590476.128762-.9348571.361905-1.6487619.595048z" fill="#17ace0" mask="url(#c)"/><path d="m44.9472762 142.721905v-2.253715l1.3950476-.441142.5127619 1.025523" fill="#ffebd2" mask="url(#c)"/><path d="m46.8550095 141.052267s5.8826667-.714667 6.1211429.397714.0792381 2.384762-2.6232381 2.225524c-2.7032381-.159238-5.4057143-.953905-5.4057143-.953905l-.0190476-1.367619z" fill="#1a2982" mask="url(#c)"/><path d="m28.8896 67.6802286s.503619 1.0034285.4624762 1.8834285c-.0952381-.551619-.32-1.2365714-.4647619-1.8841904z" fill="#4261ab" mask="url(#c)"/><path d="m28.2531048 70.3350095.5935238.3222857c.0563809-.0015238.1043809-.0099047.1508571-.0198095-.0830476.1036191-.1447619.1142857-.2864762.5028572.0617143-.0921905-.119619-.4030477-.4579047-.8053334" fill="#4261ab" mask="url(#c)"/><path d="m27.5238857 84.3818667c-.3184762.1142857-.5424762.1500952-.6217143.071619 0 0 .2354286.0182857.6217143-.071619" fill="#4261ab" mask="url(#c)"/><path d="m30.5257905 68.3394286c-.0678095 1.0041904-.5874286 2.7657143-.8106667 2.9889524-.2514286.2514285-1.2548571.5020952-1.0041905-.1881905-.5020952.7527619-1.3798095.0632381-2.1958095-.3131429-.8152381-.3763809-3.031619-1.4544762-3.575619-1.6944762-1.8354286-.8091428-2.1820953-.0060952-2.2438096.2354286-.5767619.4929524-1.8339047.88-2.3177142 1.6540952 1.183238 2.1135238 1.9100952 9.5870477 2.2666666 15.2518096-.4419047 1.792-1.1550476 4.1158095-1.9611428 5.143619.0380952.2392381.0769523.4685714.1150476.6758095.1264762.6750477.407619 1.728.727619 2.8373334.4662857 1.6144762 1.0140953 3.3409523 1.2899048 4.2003809.6643809-.9432381 7.8034286-.832 8.647619-.9531428.864-.1226667 6.0982858-1.3394286 6.744381-1.736381-.0396191-11.7363809-3.6091429-25.5055238-5.6822857-28.1020952" fill="#1e41d3" mask="url(#c)"/><path d="m21.5875048 57.8774095c.0083809-.048.0190476-.096.0289523-.144-.0007619.0015238-.0007619.0022857-.0007619.0038095-.0099047.0472381-.0205714.0929524-.0281904.1401905" fill="#f9c4c7" mask="url(#c)"/><path d="m21.5220571 58.7494095c-.0022857-.144 0-.2864762.0106667-.4274285.0045714.0228571.0106667.0457142.0152381.0678095-.0099048.1127619-.0182857.2323809-.0259048.359619" fill="#f9c4c7" mask="url(#c)"/><path d="m31.1057524 58.5894857c0-.0121905.0007619-.0228571.0007619-.0342857-.0175238-.6940952-.1904762-1.3455238-.4716191-1.9337143l-.2300952.3405714-.1828571.0441905c-.4099048.3260953-1.1093334.4876191-2.1607619.5150476-.6308572.0152381-1.3668572-.071619-2.064762-.2354285-.9386666.5546666-1.3340952 1.3066666-1.5047619 2.0007619-.0045714.048-.071619.7969524-.0655238 1.0529524.0099048.3573333-.0571428.6910476-.1775238.9798095-.0754285-.0396191-.1531428-.0761905-.2323809-.1051429-.3078096-.1104762-.4228572-.6003809-.4662857-.9188571.0548571-.1965715.0838095-.4205715.0777142-.6605715-.0190476-.7405714-.3611428-1.3325714-.7641904-1.3219047-.4030477.0099047-.7139048.6186667-.6948572 1.36.0167619.6514286.2834286 1.1878095.6217143 1.3005714l.4899048.5660953.1302857.1508571.0220952 1.3577143c-.1203809.0998095-.2529524.1500952-.3862857.071619-.407619-.2384762-1.072-1.5542857-1.072-1.5542857-.1851428-.3192381-.3184762-.7207619-.4030476-1.1527619-.0914286-.4685714-.0830476-1.1161905-.0495238-1.6632381.007619-.1272381.0167619-.2468571.0266666-.359619-.0053333-.0220953-.0114285-.0449524-.016-.0678096v-.0015238c0-.0007619 0-.0015238.000762-.0022857.0007619-.0243809.0053333-.048.007619-.071619.0106667-.1241905.0259048-.2468572.0464762-.3695238.0083809-.0464762.0190476-.0929524.0281905-.1394286 0-.0015238 0-.0030476.0007619-.0045714.0030476-.0274286.0060952-.048.0060952-.048h.0038095c.0167619-.0792381.0350477-.1592381.0556191-.2377143.0144762-.0548572.0304762-.1097143.0472381-.1638095.0266666-.0868572.055619-.1721905.0868571-.2575239.0190476-.0510476.0365714-.103619.0579048-.1539047.0380952-.0937143.08-.1851429.1241905-.2758095.0182857-.0380953.0342857-.0769524.0540952-.1150477.0632381-.1226666.1325714-.2430476.2057143-.3588571.0251428-.0396191.0525714-.0769524.0784762-.1158095.0533333-.0784762.1066666-.1561905.1645714-.2308572.0350476-.0464762.072381-.0914285.1097143-.1363809.0525714-.0647619.1066667-.128.1630476-.1889524.0411429-.0457143.0822857-.0891429.1249524-.1325714.0586667-.0594286.1188571-.1165715.1805714-.1729524.0426667-.0396191.0853333-.08.1295238-.1180953.0777143-.0655238.1577143-.128.2392381-.1881904.0525714-.0396191.1051429-.0777143.1592381-.1142857.0891429-.0617143.1805714-.1211429.2742857-.1767619.0525715-.0312381.1074286-.0594286.1615238-.088381.0502858-.0266667.0990477-.055619.1500953-.0807619.1112381-.0784762.2354285-.1500952.3657143-.2179048l.0114285-.0213333s.0380953-.0129524.096-.0342857c.2971429-.1424762.6361905-.2575238 1.0041905-.3375238.9325714-.2940953 6.5539048.4975238 6.5539048.4975238l-1.3820953 2.0495238c.2377143.7398095.536381 1.8773333.3817143 2.5394286-.0594286.2537143-.103619.4449523-.1379047.5897143.0205714-.2979048.0289523-.5691429.0228571-.7977143-.0007619-.0198096-.0022857-.0380953-.0030476-.056381" fill="#1a2982" mask="url(#c)"/><path d="m29.352 69.5634286c-.007619.1546666-.0297143.3062857-.0769524.448-.1363809.4106666-.2133333.5462857-.2780952.6262857-.0457143.0099047-.0944762.0182857-.1500953.0198095l-.5935238-.3222857c-.6201904-.7367619-1.7752381-1.7859048-2.9927619-2.3946667-1.1405714-.5699047-1.5192381-1.0925714-1.6411428-1.4171428l-.1668572-3.1634286-.0152381.0167619-.0053333-.3291429-.0213333-1.3569523-.1310477-.1508572-.4891428-.5660952c-.3382857-.1127619-.6057143-.6491429-.6224762-1.3005714-.0190476-.7413334.2925714-1.3500953.695619-1.3607619.4030477-.0099048.744381.5820952.7634286 1.3226666.0068572.2392381-.0220952.464-.0769524.6605714.0426667.3184762.1577143.8076191.4662858.9188572.079238.0289524.1569523.0655238.2323809.1051428.120381-.2887619.1866667-.623238.1775238-.9798095-.0060952-.256.0609524-1.0057143.0655238-1.0529524.1706667-.6940952.5653334-1.4468571 1.5047619-2.0007619.6979048.1638096 1.4339048.2506667 2.0647619.2346667 1.0514286-.0274286 1.7508572-.1889524 2.1607619-.5142857l.1820953-.0441905.2308571-.3405714c.2811429.5881905.4533334 1.239619.4716191 1.9337143 0 .0106666-.0015238.0220952-.0007619.0342857.0007619.0182857.0022857.0365714.0030476.0563809.0053333.2285715-.0022857.4998096-.0228572.7977143-.1333333 1.92-.2133333 4.9013334-1.3798095 5.8087619-.1790476.1386667-.9729524.2072381-.9805714.4099048-.0358095.9089524.0342857.9638095.0342857.9638095-.0144762.3139048.0434286.6773333.1272381 1.0529524.1447619.647619.3695238 1.3325714.4647619 1.8841905" fill="#ffebd2" mask="url(#c)"/><path d="m25.8107429 101.001676c.9043809-.078476 4.2110476-.349714 6.7809523-.697143l-2.1127619 9.977143-.0106666.099048-3.3005715 29.091809-.0266666.705524s-.2544762.013714-.6133334.025905c-.5866666.021333-1.4575238.042667-2 .005333-.2758095-.019047-.4678095-.053333-.487619-.111238-.0792381-.237714-1.9078095-13.433905-1.7485714-17.011047.1348571-3.02781-.6620953-17.462858-.9104762-21.823239.9417143.248381 3.1017143-.146285 4.4297143-.262095" fill="#1ac1f3" mask="url(#c)"/><path d="m30.3289905 67.4681905c-.4365715-.6864762-1.616-1.2975238-1.616-1.2975238l.0472381.455619.1295238 1.0537143s.6438095 2.8175238.0868571 2.936381c-.8921905-.448762-2.4982857-2.0670477-3.7158095-2.6758096-1.1405714-.5699047-1.5192381-1.0925714-1.6419048-1.4171428-.08-.2118096-.0518095-.3398096-.0518095-.3398096l-.0632381-1.4422857s-2.3832381-1.5055238-3.7638095 1.5055238c-.0365714.08-.0609524.1508572-.0921905.2262858-1.1558095 2.7870476 1.0346667 2.9592381 1.0346667 2.9592381s.0038095-.0259048.0129524-.064762c.0617143-.2407619.4091428-1.0445714 2.2438095-.2346666.5447619.24 4.72 2.9980952 6.135619 2.5043809 1.2518096-.0990476 1.3828572-2.2933333 1.4506667-3.2975238.0091429-.1249524.0114286-.2392381.0045714-.336-.0129523-.1790476-.0899047-.3603809-.2011428-.535619" fill="#4a75ff" mask="url(#c)"/><path d="m29.463619 98.177981c.864-.1226667 6.0982858-1.3394286 6.744381-1.736381.0099048-.0068571.0228571-.0137143.0312381-.0198095.5013333-.376381 1.0034286 1.1291428 1.0034286 1.7561905 0 .455619-.0365715.8114285-.7733334 1.1885714-.2788571.1424762-.6544762.2872381-1.1710476.4434286-.5775238.1721904-1.5702857.340571-2.7070476.494476-2.5699048.347429-5.8758095.619429-6.7801905.697143-1.3287619.11581-3.4887619.510476-4.4297143.262095-.0815238-.021333-.1569523-.045714-.2186666-.077714-.4502857-.230095-.4860953-1.2060953-.3984762-1.9375239.0053333-.0403809.0251428-.08.0518095-.1173333.664381-.9432381 7.8034286-.832 8.647619-.9531428" fill="#4a75ff" mask="url(#c)"/><path d="m27.3356952 85.1795048-.0419047.0152381.7032381 2.3085714c.3108571-.0373333.663619-.0838095 1.0643809-.1394286.2468572-.0350476.5059048-.071619.7900953-.1142857 3.4750476-.5257143 2.4601904-1.9702857 2.4601904-2.8030476 0-.832-3.4361904-.3939048-3.4361904-.3939048s.7801904-1.6632381.5074285-1.7950476c-.1272381-.0609524-.5348571.5539048-.9333333 1.2266667-.456381.7710476-.9020952 1.6190476-.9020952 1.6190476z" fill="#ffebd2" mask="url(#c)"/><path d="m27.7965714 88.2479238c.2148572-.1866667.3367619-.2986667.3367619-.2986667l-.1363809-.4464761-.7032381-2.3085715-.2537143-.8350476-6.2224762 2.6125714c-.5958095-6.471619-1.0499048-14.9409523-1.9222857-15.9177143-.0891429-.0998095-.2521905-.3939047-.3535238-.3146666-6.6819048 5.168-2.648381 18.2415238-.5394286 21.3942857.3420953.5112381.8426667.743619 1.4377143.7786667 2.6186667.1539047 7.1009524-3.5695238 8.3565714-4.664381" fill="#4a75ff" mask="url(#c)"/><path d="m174.693562 54.9450667c-.742857.1234285-4.022095 1.2990476-4.331429 3.8354285-.309333 2.5371429-1.237333 10.5188572-1.237333 10.5188572l-3.279238-9.1573334-2.412952-.1859047s1.299047 10.6422857 4.268952 13.3645714 4.269714-1.9177143 4.269714-1.9177143l1.546667-5.1977143z" fill="#1e41d3" mask="url(#c)"/><path d="m163.927543 60.3275429s0-1.2373334-.371048-1.4224762c-.371809-.1859048-1.98019-1.4232381-2.227809-1.7950477-.247619-.3710476-1.175619-2.8457142-.556953-2.7222857.618667.1234286 2.660572 2.0419048 2.660572 2.0419048s-.432762-1.3607619-.247619-1.6091429c.185904-.2468571 1.237333 1.4857143 1.361524 1.7950477.123428.3093333.432761 3.8361904.432761 3.8361904z" fill="#ffebd2" mask="url(#c)"/><path d="m174.772038 42.3833143c-.224762.6689524-1.089524 5.8841905-.542476 7.0681905.452571.9805714 1.085714 1.984 3.123809 2.1889523l-2.486095 5.6579048 1.475048 5.5116191 5.568762-1.8819048s3.496381-3.1238095 3.271619-3.7660952c-.224-.6422858-3.852191-6.5180953-3.852191-6.5180953l-1.647238-8.2735238-4.102095-.8601905-.645333.6971429z" fill="#ffebd2" mask="url(#c)"/><path d="m179.07261 44.7472s-.590477 5.0415238 1.597714 7.5695238c.687238.7939048.988952 3.8179048 2.497524 4.9417143.990476.7390476 2.512762 6.4792381 3.511619 7.2060952 1.732571 1.2617143 5.622095.1653334 6.595047-1.5108571 2.036572-3.5078095-.565333-9.504-3.620571-11.6533333-2.111238-1.848381.264381-5.2419048-2.64-7.2411429-2.100572-1.4468571-2.652191-2.9310476-2.652191-2.9310476s-1.043809-4.4853334-6.56-3.0156191c-5.516952 1.4704762-4.297142 4.5836191-4.297142 4.5836191s-3.161143 9.4300952 2.937904 11.6883809l.910476-2.743619s-2.729904-.6841905-2.992-2.5592381c-.262095-1.8742857.410667-6.6986667.410667-6.6986667s1.150476 2.3512381 4.300953 2.3641905" fill="#1a2982" mask="url(#c)"/><path d="m176.982629 57.0485333c1.22819.4419048 2.745142-2.2529523 4.105904-3.9230476 0 0 4.252191 2.3619048 3.701334 2.1264762 0 0 .230857 5.0156191.360381 10.3969524.258285 10.7862857 1.656381 11.1093333 1.656381 11.1093333s-5.632762.9089524-5.756953.7238095c-.123428-.1859047-4.577524.3146667-4.700952-.1798095-.124191-.4952381-2.336-8.6209524-3.078857-9.7965714-.742096-1.1756191-1.794286-6.1874286-.989715-7.6731429.804572-1.4849523 2.413715-4.887619 2.413715-4.887619 1.157333-.4396191 1.529143-.8594286 2.025143-1.3066667 0 0-1.283048 2.8533334.263619 3.4102857" fill="#1e41d3" mask="url(#c)"/><path d="m162.133257 107.256152-.272 3.625905-1.812571-.181333-.181334-3.716572z" fill="#ffebd2" mask="url(#c)"/><path d="m178.940571 105.04701 1.334096 3.382095-1.711238.627047-1.781334-3.267047z" fill="#ffebd2" mask="url(#c)"/><path d="m162.677181 109.8848-2.991238.453333s-2.992 1.994667-4.169905 2.084572c-1.178667.090666-2.357333 1.178666-1.178667 1.36 1.178667.181333 8.702477-.361905 8.702477-.361905z" fill="#1a2982" mask="url(#c)"/><path d="m180.976305 77.1169524s-13.672381 5.9771428-13.21981 10.5097143c.453334 4.5325714-4.716952 19.9009523-4.716952 19.9009523l-4.25981-.090667s3.003429-19.4361901 3.003429-22.1561901c0-2.7192381 12.930286-7.856 12.930286-7.856z" fill="#17ace0" mask="url(#c)"/><path d="m180.535467 107.890819-3.081905 1.178667s-.181333 2.174476-1.36 2.447238c-1.177905.272-2.991238 1.178666-2.809905 1.904.181333.724571 5.439238-.363429 5.439238-.363429l3.444572-2.719238z" fill="#1a2982" mask="url(#c)"/><path d="m186.627352 76.6504381s3.594667 4.672-.330666 7.3767619c-3.318096 2.2857143-13.430096 2.599619-13.097905 3.3462857.725333 1.632 7.518476 18.6133333 7.518476 18.6133333l-4.079238.997333s-10.224762-14.6971425-10.859429-19.2297139c-.634666-4.5325714 11.196953-10.3725714 11.196953-10.3725714z" fill="#1ac1f3" mask="url(#c)"/><path d="m170.652267 74.6363429h-16.748953c-.409904 0-.744381-.3344762-.744381-.744381l-1.590857-11.9139048c0-.4091428.334476-.7443809.743619-.7443809h16.749715c.409142 0 .74438.3352381.74438.7443809l1.590858 11.9139048c0 .4099048-.335238.744381-.744381.744381" fill="#1ac1f3" mask="url(#c)"/><path d="m153.424914 75.5686095h28.172953c.319238 0 .580571-.2613333.580571-.5813333 0-.3192381-.261333-.5798095-.580571-.5798095h-28.172953c-.319238 0-.580571.2605714-.580571.5798095 0 .32.261333.5813333.580571.5813333" fill="#1ac1f3" mask="url(#c)"/><path d="m159.847543 68.2107429c0 .7466666.493714 1.3531428 1.104 1.3531428.609524 0 1.103238-.6064762 1.103238-1.3531428 0-.7466667-.493714-1.3531429-1.103238-1.3531429-.610286 0-1.104.6064762-1.104 1.3531429" fill="#97eef7" mask="url(#c)"/><path d="m174.9056 75.2806857c-.058667.0182857-.177524.0441905-.272762.064-.103619.0182857-.206476.0388572-.312381.0525714-.209524.0327619-.423619.0556191-.63619.0678096-.425905.0266666-.851048.0167619-1.264-.0342857-.409905-.0579048-.802286-.1645715-1.169524-.3177143-.364953-.1584762-.681143-.3870477-.973714-.6544762l-.050286-.0464762c-.278857-.256-.712381-.2369524-.968381.0419047-.230857.2521905-.237714.6293334-.032.8891429.355809.4487619.783238.8518095 1.272381 1.1527619.488381.2948572 1.011809.5158095 1.545143.6689524.533333.1455238 1.073524.2339048 1.612952.2750476.270476.0213333.540191.0312381.811429.0274286.135619.0007619.272762-.0060953.409904-.0121905.144-.0091429.265143-.0152381.444191-.0388571l.067048-.0091429c.598857-.0807619 1.019428-.631619.938666-1.2312381-.080762-.5988571-.631619-1.0194286-1.231238-.9394286-.064.0091429-.131048.0251429-.191238.0441905" fill="#ffebd2" mask="url(#c)"/><path d="m182.703238 54.7583238s-2.451809 1.0582857-.548571 7.4041905c1.904 6.3451428 4.186666 8.9104762-.164572 10.3611428-4.351238 1.4506667-8.477714 2.8495239-8.477714 2.8495239l.278095 2.223238s14.298667-.8457142 14.661334-5.5588571c.362666-4.7139048-2.004572-14.4998095-2.457905-15.4971429-.453334-.9973333-.822857-1.7820952-3.290667-1.7820952" fill="#1e41d3" mask="url(#c)"/><path d="m104.180495 119.599848s5.753905 1.404952 5.314286-2.696381c-.439619-4.102096-1.915429-9.60381-3.965714-10.628572-2.051048-1.025524-2.020572 11.174095-2.020572 11.174095z" fill="#1a2982" mask="url(#c)"/><path d="m105.495619 110.426514s.920381-1.093333 1.034667-.057904c.115047 1.034666-.804572 1.092571-.977524 1.092571 0 0 .403048 4.829714-1.206857 5.289905l.17219 2.932571 1.955048-.17219s-.920381 4.082285-4.945524 3.68c-4.0243809-.402286-3.2921904-4.057905-3.2921904-4.057905l-2.6293334-6.809905.6895238-2.931809 4.427429-1.437715 2.472381-1.093333 2.070095.403048z" fill="#ffebd2" mask="url(#c)"/><path d="m93.4208762 124.686171s-3.2205714 6.496762-1.4948572 11.614477c1.7249524 5.117714 3.5070477 6.210285 3.5070477 6.210285l-.5668572-13.856z" fill="#ffebd2" mask="url(#c)"/><path d="m115.558095 128.710705s4.772572 8.222476-2.817524 13.225143l-.46019-3.449905s3.047619-2.760381-.172191-8.509714z" fill="#ffebd2" mask="url(#c)"/><path d="m112.445029 130.094629c-.495239-.435048-.937143-.924191-1.254096-1.44381-.180571-.294857-.275047-.630857-.375619-.959238-.009143-.030476-.056381-.153143-.100571-.277333-.058667.133333-.103619.259809-.075429.192-.077714.187428-.074666.433523-.086857.630857-.029714.49219-.016762.986666-.002286 1.479619.028953 1.010286.137143 2.064-.096 3.059047-.165333.700191-.986666.777143-1.468952.387048-.776381-.627048-1.769143-1.039238-2.441143-1.756952-.956952.566095-2.000762.984381-3.030095 1.398095-.46781.18819-.933333-.206476-1.080381-.614095-.057143-.158477-.104381-.316953-.146286-.476953-.776381.490667-1.604571.746667-2.3641902.438857-.1333333.32381-.2803809.642286-.4525714.950858-.3161905.566857-1.2030476.575238-1.5177143 0-.6415238-1.176381-1.832381-1.916191-2.4739048-3.106286l.7596191 6.707047 15.2944766-.230095-.115048-5.922285z" fill="#1ac1f3" mask="url(#c)"/><path d="m111.07299 151.710705 5.577143.172952.057905-2.070095-5.462095-.977524-.690286 1.436952z" fill="#ffebd2" mask="url(#c)"/><path d="m90.8907429 150.043352 4.5424761-.287238.1721905 2.184381-4.9447619-.287238z" fill="#ffebd2" mask="url(#c)"/><path d="m117.800305 149.640762s5.462095-1.264762 6.210285-.977524c.747429.288 2.75962 1.207619 2.357334 2.760381-.402286 1.552-3.162667 1.782095-5.05981 1.437714-1.897904-.345904-4.657524-.978285-4.657524-.978285l-.230095-1.897143z" fill="#1a2982" mask="url(#c)"/><path d="m90.2430476 151.980038s-5.4620952 1.264762-6.2095238.977524c-.7474286-.288-2.7603809-1.207619-2.3580952-2.760381.4030476-1.552 3.1626666-1.782095 5.0598095-1.437714 1.8979048.345904 4.6575238.978285 4.6575238.978285l.2300952 1.897143z" fill="#1a2982" mask="url(#c)"/><path d="m97.8483048 112.496457s5.6350472.172191 6.7276192-4.14019l.919619 2.070095s1.84-1.84.977524-3.392762c-.862477-1.552-3.047619-3.852952-7.4179051-2.989714-4.3695238.862476-3.52.009904-5.5801905 9.670095-1.3691428 6.418286 5.5146667 7.285333 6.6643806 5.273143 1.150477-2.012191-2.4639996-2.178286-2.2910472-6.490667" fill="#1a2982" mask="url(#c)"/><path d="m115.558095 128.710705s-2.473143-4.772572-3.622095-6.956953c-1.150476-2.185142-5.692952-2.242285-5.692952-2.242285s-1.437715 2.414476-2.529524 3.104762c-.457905.288761-1.065143.404571-1.618286.44419-3.8659047-.024381-3.9329523-3.267809-3.9329523-3.267809s-1.2449524.878476-4.3946667 2.417523c-3.1489523 1.537524-2.9295238 8.788572-2.9295238 8.788572s3.6220953.486857 4.8251429.622476l.5752381 5.081905 15.2944758-.230096-.115047-5.922285z" fill="#1ac1f3" mask="url(#c)"/><path d="m94.5131429 142.108038c0-.230095.1729523-8.624.1729523-8.624h18.2270478v9.544381l-8.797714 3.104762z" fill="#fff" mask="url(#c)"/><path d="m103.195429 138.313371c0-.348952.283428-.632381.633142-.632381.348953 0 .632381.283429.632381.632381 0 .348953-.283428.632381-.632381.632381-.349714 0-.633142-.283428-.633142-.632381" fill="#1e41d3" mask="url(#c)"/><path d="m111.99299 148.030705-.862476 4.025143s-14.3169521-1.552762-21.1596188-3.968c-6.8426666-2.414477-12.5348571-3.622096-9.5451428-7.647238 2.9897143-4.024381 31.5672376 7.590095 31.5672376 7.590095" fill="#1e41d3" mask="url(#c)"/><path d="m95.0882286 149.698057.4022857 3.104762s20.4700957-3.967238 22.0799997-4.599619c1.609905-.632381 9.947429-3.852952 8.912762-6.554667-1.035428-2.702476-9.833143-1.724952-16.848.804572-7.014857 2.530285-14.5470474 7.244952-14.5470474 7.244952" fill="#1e41d3" mask="url(#c)"/><path d="m222.278705 94.049981c0 2.24-2.103619 4.0563809-4.698667 4.0563809-2.594286 0-4.697905-1.8163809-4.697905-4.0563809 0-2.240762 2.103619-4.0571429 4.697905-4.0571429 2.595048 0 4.698667 1.8163809 4.698667 4.0571429" fill="#ebfaff" mask="url(#c)"/><path d="m94.3088762 8.32304762c2.6331428-3.27390476 7.8864758-2.1432381 11.7325718 2.52571428 3.846857 4.6681905 4.831238 11.1078095 2.198095 14.3809524-2.633143 3.2739047-7.886476 2.1432381-11.7333335-2.5257143-3.8468571-4.6681905-4.8304762-11.1070476-2.1973333-14.38095238" fill="#ebfaff" mask="url(#c)"/></g></svg>