<svg height="160" viewBox="0 0 246 160" width="246" xmlns="http://www.w3.org/2000/svg" xmlns:xlink="http://www.w3.org/1999/xlink"><mask id="a" fill="#fff"><path d="m0 160h245.456v-160h-245.456z" fill="#fff" fill-rule="evenodd"/></mask><g fill="none" fill-rule="evenodd"><path d="m38.3958095 128.263238c-10.6887619-.228571-27.5801905.564572-33.52685712.870095 1.10095238-15.465143 30.28419052-3.674666 33.52685712-.870095" fill="#76abff"/><path d="m4.84708571 130.671695c-.01447619-.336-.01371428-.659047-.00533333-.973714 5.93600002-.305524 23.10476192-1.113905 33.78209522-.86781-1.6205714 2.425905-33.19466665 15.756953-33.77676189 1.841524" fill="#4a75ff"/><path d="m38.6930286 128.654552c.0015238.048762-.0251429.109715-.0693334.175238-10.6765714-.246095-27.8460952.563048-33.7820952.86781.00533333-.192.01447619-.38019.02742857-.564571 5.94666663-.304762 22.83809523-1.097905 33.52685713-.870096.1874286.162286.2933333.296381.2971429.391619" fill="#fff"/><path d="m190.58819 124.089143h3.822477v-80.3817144h-3.822477z" fill="#4a75ff" mask="url(#a)"/><path d="m235.44381 157.085714h3.822476v-129.5238092h-3.822476z" fill="#4a75ff" mask="url(#a)"/><path d="m226.30461 118.322743-52.694858-19.2716192 19.422477-88.4487619 52.424381 16.0937143z" fill="#1a2982" mask="url(#a)"/><path d="m223.491429 107.928381-46.389334-15.8255239 17.243429-79.3089523 45.923047 14.871619z" fill="#fff" mask="url(#a)"/><path d="m213.667352 65.3628952-2.351238 10.6308572 10.468572 3.5169524c1.299047-5.8712381-2.335238-12.2049524-8.117334-14.1478096" fill="#1ac1f3" mask="url(#a)"/><path d="m219.433371 81.5533714-10.469333-3.5161904-2.351238 10.6308571c5.782095 1.9420952 11.521524-1.2434286 12.820571-7.1146667" fill="#1a2982" mask="url(#a)"/><path d="m198.495086 74.5206857c-1.299048 5.8712381 2.335238 12.2057143 8.117333 14.1470476l2.352-10.6308571-6.474667-9.5474286c-1.953523 1.3333334-3.415619 3.4140953-3.994666 6.0312381" fill="#a4e2ff" mask="url(#a)"/><path d="m211.31581 67.4060952c-3.205334-1.0765714-6.396191-.5752381-8.825905 1.0834286l6.474666 9.5474286.783239-3.5436191z" fill="#1e41d3" mask="url(#a)"/><path d="m227.731733 26.4239238-19.673904-6.1493333c-2.014477-.6300953-3.129143-2.9135238-2.476953-5.0742857.651429-2.1615238 2.833524-3.4148572 4.847238-2.7847619l19.673905 6.1500952c2.014476.6300952 3.129143 2.9127619 2.476952 5.0742857-.651428 2.1615238-2.832761 3.4140952-4.847238 2.784" fill="#4a75ff" mask="url(#a)"/><path d="m198.395429 68.1538286-11.237334-3.4308572.551619-2.919619 11.283048 3.4262857z" fill="#d2e6ff" mask="url(#a)"/><path d="m194.253333 73.0541714-8.363428-2.5859047.551619-2.9188572 8.409143 2.5813334z" fill="#d2e6ff" mask="url(#a)"/><path d="m196.0736 85.4559238-12.342095-3.719619.550857-2.9188572 12.388571 3.7150476z" fill="#d2e6ff" mask="url(#a)"/><path d="m200.931505 93.3450667-18.507429-5.9672381.551619-2.9188572 18.553143 5.9619048z" fill="#d2e6ff" mask="url(#a)"/><path d="m219.782705 99.7676952-8.363429-2.5859047.551619-2.9196191 8.409143 2.5813334z" fill="#d2e6ff" mask="url(#a)"/><path d="m220.924038 93.6798476-4.221714-1.2304762.551619-2.919619 4.267428 1.2259047z" fill="#d2e6ff" mask="url(#a)"/><path d="m215.223543 26.6821333-17.996191-5.44-.432 2.5660953 17.929905 5.2571428z" fill="#d2e6ff" mask="url(#a)"/><path d="m190.787124 50.4507429s5.669333-4.8327619 15.644952-4.1561905c3.360762.2278095 10.11581 1.3020952 13.187048 1.0140952 5.410286-.5074286 8.28419-4.3961905 13.74019-2.6940952l-5.062095 21.5954286-38.678857-12.4624762z" fill="#76abff" mask="url(#a)"/><path d="m190.143924 53.8398476-.729143-.1683809 5.703619-24.7161905.729905.1683809z" fill="#1a2982" mask="url(#a)"/><path d="m228.66179 66.2944762-.729142-.1714286 5.859047-24.9112381.729143.1714286z" fill="#1a2982" mask="url(#a)"/><path d="m216.862324 62.4395429-.729143-.1714286 6.006095-25.6152381.728381.1714286z" fill="#1a2982" mask="url(#a)"/><path d="m202.39619 57.8524952-.729142-.1683809 6.014476-26.0617143.729905.168381z" fill="#1a2982" mask="url(#a)"/><path d="m234.013333 38.9492571-4.02819-1.2327619.489143 1.3554286-12.358857 4.0220952-11.469715-1.552c-.065524-.0091428-.131047-.0083809-.195809-.0007619l-7.020953.9020953c-.058666.0083809-.115809.0228571-.17219.0441905l-7.864381 3.008.534857 1.3980952 7.781333-2.976 6.833524-.8784762 11.542095 1.5611429c.111239.0152381.224762.0045714.332191-.0297143l12.329905-4.0121905.307809 1.432381z" fill="#1ac1f3" mask="url(#a)"/><path d="m227.036419 23.0117333c-.114286 0-.230857-.0167619-.345143-.0533333l-16.464762-5.3150476c-.590476-.1904762-.914285-.8228572-.723809-1.4125714.190476-.5904762.822095-.912 1.413333-.7245715l16.464762 5.3142857c.590476.1912381.914286.8228572.723048 1.4133334-.152381.4761904-.593524.7779047-1.067429.7779047" fill="#fff" mask="url(#a)"/><path d="m90.6777905 40.4075429c.8121905 2.5615238 1.703619 5.3188571 2.6453333 8.2293333.896 2.7718095 1.8468572 5.7165714 2.816 8.7611428l13.4400002-14.1462857c-.653714-8.4342857 1.272381-17.2944762 1.005714-23.0803809-.053333-1.1649524-.408381-3.256381-1.164952-5.6632381l-20.7070479 13.5230476c.1257143 4.1660952.7009524 8.3878095 1.9649524 12.376381" fill="#c0edff" mask="url(#a)"/><path d="m91.7908571.08464762c-10.2529523.80228571-15.5398095 7.60304762-18.1188571 15.67085718l13.7089524 10.6118095c-.0251429-11.4620953 3.063619-22.16761906 4.4099047-26.28266668" fill="#c0edff" mask="url(#a)"/><path d="m92.0736 49.0295619c-.9417143-2.912-1.8346667-5.671619-2.647619-8.2369524-1.304381-4.1173333-1.8933334-8.471619-2.0190477-12.7603809l-14.1348571-10.9409524c-1.0552381 3.7737143-1.5649524 7.7592381-1.7447619 11.4948571-.2994286 6.2598096 1.7135238 13.2495238 4.1706667 19.9146667 7.4125714 2.616381 15.7394285 6.9912381 19.031619 8.7855238-.9135238-2.8647619-1.8087619-5.6373333-2.656-8.2567619" fill="#c0edff" mask="url(#a)"/><path d="m88.6892952 26.4938667 20.2986668-13.2579048c-2.172952-6.03504761-6.80381-13.30514285-15.3645715-13.23504761-.1470476.0007619-.2849524.01219047-.4297143.01523809-1.2190476 3.62971429-4.5577143 14.67580952-4.504381 26.47771432" fill="#c0edff" mask="url(#a)"/><path d="m105.771124 91.2103619c2.630095-4.4137143 10.845714-18.3207619 14.832762-26.4099048-2.992-3.4262857-5.911619-6.5729523-8.160762-10.7771428-1.495619-2.7961905-2.295619-5.8826667-2.685714-9.064381l-13.1664767 13.8575238c3.2144762 10.1424762 6.6163807 21.4476191 9.1801907 32.3939048" fill="#c0edff" mask="url(#a)"/><path d="m132.736533 87.3346286c-2.604952-10.6118096-6.916571-16.4647619-11.203047-21.4613334-4.635429 9.2967619-14.086857 25.0940953-15.344 27.1870477 1.352381 5.9794285 2.435809 11.8209521 3.076571 17.2746671 11.607619-.048 22.166095-.191239 22.745143-.172191 1.302857.041143 5.343238-4.014476.725333-22.8281904" fill="#c0edff" mask="url(#a)"/><path d="m95.3013333 59.0831238c-1.536-.8540952-10.7626666-5.9222857-19.008-8.9889524 2.8373334 7.4491429 6.0510477 14.3771429 6.9782857 19.256381 1.184 6.2293333.9516191 10.1180952-.255238 13.8171428 6.4068571 4.8038096 18.095238 8 21.603809 8.8838096-2.577523-11.1169524-6.0464757-22.6476191-9.3188567-32.968381" fill="#c0edff" mask="url(#a)"/><path d="m82.5624381 84.4343619c-.664381 1.7180952-1.5253333 3.448381-2.5493333 5.4102857-3.4704762 6.648381-2.5409524 18.4243814-1.768381 19.7371424.4167619.706286 15.5794286.80762 29.6990472.758858-.631619-5.328-1.687619-11.0308575-3.005714-16.874667-2.531809-.6026667-15.1443808-3.7897143-22.3756189-9.0316191" fill="#c0edff" mask="url(#a)"/><g fill="#fff"><path d="m96.1395048 57.3978667c-.9691429-3.0445715-1.92-5.9885715-2.8167619-8.7611429-.9409524-2.9097143-1.832381-5.6670476-2.6445715-8.2293333-1.2647619-3.9885715-1.84-8.2102857-1.9657143-12.376381l-.7085714.4632381-.5965714-.4617143c.1257143 4.2887619.7139047 8.6430477 2.0190476 12.760381.8129524 2.5645714 1.7059048 5.3241905 2.6476191 8.2369524.8464761 2.6186666 1.7417142 5.392 2.655238 8.2567619.4030477.2194285.7573334.4129524.9973334.5462857z" mask="url(#a)"/><path d="m87.3809524 26.3673905.6872381.5318095.6209524-.4053333c-.0533334-11.8019048 3.2853333-22.84800003 4.5043809-26.47771432-.4769524.01219048-.9455238.03276191-1.4026667.06857143-1.3462857 4.11504762-4.4350476 14.82057139-4.4099047 26.28266669" mask="url(#a)"/><path d="m105.771124 91.2103619c-2.56381-10.9462857-5.9657145-22.2514286-9.1801907-32.3939048l-.6148571.6476191-.4495238-.2544762c-.0099048-.0060952-.0899048-.0502857-.2255238-.1264762 3.2723809 10.3207619 6.7413334 21.8514286 9.3188574 32.968381.217143.0548571.414476.103619.565333.1401904.140191-.2339047.341333-.5706666.585905-.9813333" mask="url(#a)"/><path d="m106.066895 93.264-.243809.4053333-.466286-.1043809c-.059429-.0137143-.203429-.0472381-.419048-.0982857 1.318096 5.8438095 2.374858 11.5459043 3.006477 16.8739043.441904-.002285.882285-.003809 1.321904-.005333-.640762-5.453714-1.72419-11.295238-3.076571-17.2754285-.056381.0937143-.100572.1676191-.122667.2041905" mask="url(#a)"/><path d="m88.7127619 28.0310857 20.7070481-13.5230476c-.131048-.4152381-.276572-.8411429-.432-1.272381l-20.2986671 13.2579048c.0022857.512.007619 1.024.023619 1.5375238" mask="url(#a)"/><path d="m87.3809524 26.3673905-13.7089524-10.6118095c-.1409524.4419047-.2750476.8868571-.4 1.335619l14.1348571 10.9417143c-.016-.5569524-.0251428-1.1116191-.0259047-1.6655238" mask="url(#a)"/><path d="m88.7127619 28.0310857c-.016-.5135238-.0213333-1.0255238-.023619-1.5375238l-.6209524.4060952-.6872381-.5325714c.0007619.5539048.0099047 1.1085714.0259047 1.6655238l.5965715.4617143z" mask="url(#a)"/><path d="m96.5910857 58.8167619 13.1664763-13.8575238c-.070095-.5676191-.134857-1.136-.179048-1.7074286l-13.4392378 14.1462857c.1508571.472381.3001905.9409524.4518095 1.4186667" mask="url(#a)"/><path d="m94.7295238 57.2862476c-3.2921905-1.7935238-11.6190476-6.1691428-19.031619-8.7855238.1965714.5333333.3946666 1.0651429.5958095 1.5939048 8.2453333 3.0659047 17.4712381 8.1340952 19.0072381 8.9881904-.1912381-.6041904-.3809524-1.2007619-.5714286-1.7965714" mask="url(#a)"/><path d="m95.9761524 59.4640762.6148571-.6476191c-.151619-.4777142-.3009524-.9462857-.4518095-1.4186666l-.4129524.4350476c-.24-.1325714-.5935238-.3268571-.9965714-.5462857.1897143.5958095.3801905 1.1923809.5714286 1.7965714.135619.0761905.215619.120381.2255238.1264762z" mask="url(#a)"/><path d="m104.620114 92.0512c-3.508571-.8830476-15.1969521-4.0792381-21.6030473-8.8830476-.1386667.4228571-.2918096.8449524-.4548572 1.2662857 7.232 5.2419048 19.8445715 8.4289524 22.3756195 9.031619-.106667-.471619-.208-.9409523-.317715-1.4148571" mask="url(#a)"/><path d="m106.189714 93.0601143c1.256381-2.0929524 10.708572-17.8895238 15.344-27.1870476-.310095-.3611429-.62019-.7184762-.929524-1.0727619-3.987047 8.0891428-12.202666 21.9961904-14.832761 26.4099047.144761.6201905.278857 1.2327619.418285 1.8499048" mask="url(#a)"/><path d="m105.185219 92.1917714c-.150857-.0365714-.34819-.0853333-.565333-.1409524.109714.4739048.211809.944.317714 1.4156191.215619.0510476.359619.0845714.41981.0982857l.465523.104381.24381-.4053334c.022095-.0365714.066286-.1097143.122667-.2034285-.139429-.6171429-.273524-1.2304762-.418286-1.8499048-.244572.4106667-.445714.7474286-.585905.9813333" mask="url(#a)"/></g><path d="m75.0070095 34.1530667s-16.1706666-.6293334-19.0659047 9.5268571-5.3455238 1.8826667-13.9779048 16.9432381c-4.6689524 8.1462857 3.0377143 18.3055238 12.9081905 19.5611429 9.8704762 1.255619 6.0655238-4.360381 10.5859047-12.5752381 4.520381-8.2148572 6.9470477-6.5295238 9.8826667-9.5352381 2.9348571-3.0041905 7.1420952-17.1695238 7.1420952-17.1695238z" fill="#0b33b2" mask="url(#a)"/><path d="m62.2723048 64.3205333c4.5203809-8.2148571 10.1325714-3.2411428 13.0674285-6.2460952 2.9348572-3.0049524 7.1420953-17.1695238 7.1420953-17.1695238-3.2426667 4.6841905-8.5333334 4.231619-10.504381 7.4201905-5.4918095 8.8830476-13.1908571 6.8091428-16.0198095 9.8697142-2.2575238 2.4426667-1.3790476 4.5973334 6.3146667 6.1257143" fill="#1a2982" mask="url(#a)"/><path d="m79.0070095 57.108419-16.6788571 2.4266667-2.9531429 20.5020953 3.8224762 18.415238 21.3180953.1340953 7.0521904-23.5428572c1.6845715-4.8518095-.7474285-7.8628571-3.0643809-10.1790476 0 0-6.6811429-7.9131428-9.496381-7.7561905" fill="#6ed9f9" mask="url(#a)"/><path d="m1.98841905 107.939581c9.74399995-16 45.69371425 14.684952 46.04114285 17.716571-3.9154286-1.847619-9.6685714-4.553142-18.0883809-8.500571-14.136381-6.627048-23.08190481-8.650667-27.95276195-9.216" fill="#76abff" mask="url(#a)"/><path d="m29.659581 117.795962c8.2194285 3.853714 13.8910476 6.521143 17.7988571 8.36419-5.5634286 1.958096-49.83085715-.378666-47.3584762-13.031619.34514286-1.765333.85638096-3.251047 1.50476191-4.494476 4.74438095.519619 13.76914289 2.464762 28.05485719 9.161905" fill="#4a75ff" mask="url(#a)"/><path d="m47.4586667 126.159771c-3.9078096-1.843047-9.5801905-4.510476-17.7988572-8.36419-14.2864762-6.697143-23.31123807-8.641524-28.05561902-9.161905.12419047-.238476.25066666-.473905.384-.694095 4.87085714.565333 13.81714282 2.588952 27.95276192 9.216 8.4205714 3.947429 14.1729524 6.652952 18.0891428 8.500571.0038096.039619.008381.079238 0 .108953-.0380952.146285-.24.278095-.5714285.394666" fill="#fff" mask="url(#a)"/><path d="m36.025219 117.508724c-6.503619-7.909334-17.5740952-19.689143-21.4895238-23.8201907 11.3104762-8.8365714 21.3950477 19.7158097 21.4895238 23.8201907" fill="#76abff" mask="url(#a)"/><path d="m13.4653714 94.6315429c.2224762-.2201905.4441905-.4205715.6659048-.6110477 3.9085714 4.1234286 15.1626667 16.0952378 21.6464762 24.0076188-2.6758095.333715-31.50933335-14.302476-22.312381-23.3965711" fill="#4a75ff" mask="url(#a)"/><path d="m35.9415619 117.96861c-.032.032-.0906667.050285-.1638095.059428-6.4838095-7.912381-17.7379048-19.8841904-21.6464762-24.007619.1348571-.1158095.2697143-.2262857.4045714-.3314285 3.9154286 4.1310476 14.9859048 15.9108575 21.4895238 23.8194285.0053334.237714-.0205714.398476-.0838095.460191" fill="#fff" mask="url(#a)"/><path d="m51.0107429 112.711848-.9851429.064762c-.0099048-.144-1.080381-14.6171433-12.4921905-35.6000005-11.5260952-21.1900952-13.1497143-41.3798095-13.1649524-41.5817143l.9851429-.0739047c.0152381.1988571 1.6274286 20.1889524 13.0468571 41.184 11.5268572 21.1923809 12.6011429 35.8613335 12.6102858 36.0068575" fill="#9fc4ff" mask="url(#a)"/><path d="m24.7532952 31.8659048c5.9062858-1.5779048 1.504 12.7405714 1.504 12.7405714s-9.296-10.6598095-1.504-12.7405714" fill="#9fc4ff" mask="url(#a)"/><path d="m34.2176 46.2483048c3.3318095 2.6392381-6.4815238 6.128-6.4815238 6.128s2.0853333-9.6099048 6.4815238-6.128" fill="#9fc4ff" mask="url(#a)"/><path d="m19.7045333 49.6702476c.5135238-4.2186666 8.6087619 2.3337143 8.6087619 2.3337143s-9.2860952 3.2327619-8.6087619-2.3337143" fill="#9fc4ff" mask="url(#a)"/><path d="m42.1223619 57.6918095c5.1862857 3.5504762-8.9310476 9.7066667-8.9310476 9.7066667s2.0883809-14.3900952 8.9310476-9.7066667" fill="#9fc4ff" mask="url(#a)"/><path d="m47.8109714 67.7453714c5.4971429 3.7630476-9.4666666 10.2887619-9.4666666 10.2887619s2.2133333-15.2540952 9.4666666-10.2887619" fill="#9fc4ff" mask="url(#a)"/><path d="m53.3005714 80.4343619c5.2487619 3.5931429-9.0377143 9.8224762-9.0377143 9.8224762s2.1135239-14.5630476 9.0377143-9.8224762" fill="#9fc4ff" mask="url(#a)"/><path d="m55.8980571 93.0467048c5.8110477 2.5859047-7.1139047 11.2937142-7.1139047 11.2937142s-.5531429-14.7047619 7.1139047-11.2937142" fill="#9fc4ff" mask="url(#a)"/><path d="m22.6092952 65.4083048c.2689524-5.3546667 11.0415238 2.1660952 11.0415238 2.1660952s-11.3958095 4.8982857-11.0415238-2.1660952" fill="#9fc4ff" mask="url(#a)"/><path d="m27.4980571 79.0638476c-1.5085714-5.1451428 11.1390477-1.5893333 11.1390477-1.5893333s-9.1481905 8.3771428-11.1390477 1.5893333" fill="#9fc4ff" mask="url(#a)"/><path d="m33.0694857 89.5206857c-.5287619-5.3348571 11.240381.5028572 11.240381.5028572s-10.5417143 6.5363809-11.240381-.5028572" fill="#9fc4ff" mask="url(#a)"/><path d="m38.6592 99.4038095c1.4201905-5.1695238 10.311619 4.5020955 10.311619 4.5020955s-12.1851428 2.319238-10.311619-4.5020955" fill="#9fc4ff" mask="url(#a)"/><path d="m120.392076 81.1612952.775619 36.7481908s17.76 1.043047 17.887238 0c.127238-1.042286-1.058285-22.9318098-1.058285-22.9318098l22.068571 14.9401908 7.454476-7.288381-2.354285-21.4681908z" fill="#4a75ff" mask="url(#a)"/><path d="m110.000686 155.212648c47.696 0 86.557714-14.767238 87.124571-33.001143-5.088762-16.806095-42.064762-29.8476193-86.931047-29.8476193-45.8971433 0-83.5390481 13.6472383-87.2327624 31.0110473 2.1432381 17.695238 40.3619048 31.837715 87.0392384 31.837715" fill="#ebfaff" mask="url(#a)"/><path d="m110.000686 156.039238c-45.0118098 0-82.226286-13.235048-87.3295241-30.233905-.0030476.124953-.0121905.249905-.0121905.376381 0 18.677334 39.1908572 33.817905 87.5352386 33.817905 48.34438 0 87.534476-15.140571 87.534476-33.817905 0-.521904-.035048-1.040762-.095238-1.556571-3.693715 17.561905-41.584 31.414095-87.632762 31.414095" fill="#ebfaff" mask="url(#a)"/><path d="m184.660648 46.1590857-12.356572 9.448381-7.232-14.5965715c-.658286-5.1794285-5.101714-9.2205714-10.452571-9.2205714h-10.299429l-3.215238 2.5554286-2.595048-2.5554286c-8.148571 0-15.083428 5.4529524-17.340952 12.8906667 0-.0007619-.000762-.0060953-.000762-.0060953l-17.209143 45.0956191 6.016 2.0708571s5.859048-8.2422857 10.416762-14.999619v4.3192381c14.073143 6.1424762 29.097143 5.4224762 44.773334 0v-12.3733334c8.355047 11.6380953 23.027047-15.1870476 23.027047-15.1870476z" fill="#1e41d3" mask="url(#a)"/><path d="m138.791619 24.5831619c-3.327238-.704-5.473524-4.0022857-4.768762-7.3295238l1.696-8.0152381c.452572-2.13333333 2.568381-3.51085714 4.702476-3.05828571l4.337524.91809523c2.134095.45180953 3.510857 2.56761905 3.059048 4.70171428l-1.696 8.0144762c-.704762 3.3272381-4.003048 5.4735238-7.330286 4.7687619" fill="#fcdfc3" mask="url(#a)"/><path d="m135.548724 18.5124571 2.955428 15.1832381 3.537524 1.4041905 6.465524-2.1310476-3.917714-19.3348571z" fill="#fcdfc3" mask="url(#a)"/><path d="m136.540114 23.6062476s1.635048.7969524 5.029334-.4525714c0 0-1.556572 3.6693333-4.576762 2.7779048z" fill="#e5cfba" mask="url(#a)"/><path d="m134.001829 2.85249524c-.989715-.15009524-1.872.64228571-1.822477 1.64266666.095238 1.936 1.036953 4.77638096 5.530667 5.624381 7.024762 1.3241904 8.878476 9.0285714 8.878476 9.0285714l1.914667-9.1100953c.551619-2.62399995-1.216-5.17180948-3.866667-5.57409519z" fill="#1a2982" mask="url(#a)"/><path d="m147.787886 18.1397333c-.178286 1.176381-1.193905 1.9984762-2.268953 1.8354286-1.075047-.1630476-1.801904-1.248-1.623619-2.4251429.178286-1.1771428 1.194667-1.9984761 2.269715-1.8369523 1.074285.1630476 1.801142 1.2495238 1.622857 2.4266666" fill="#fcdfc3" mask="url(#a)"/><path d="m138.3984 36.0957714-3.426286 33.1504762 4.326096 3.9664762 4.074666-3.2662857.282667-33.3348571-2.726095-2.5775239z" fill="#eef7ff" mask="url(#a)"/><path d="m81.924419 102.964114c.5272381-.105143 1.1824762-1.267809 2.9516191-.210285 1.7683809 1.056761 2.2628571 1.458285 1.1588571 3.37219-.9249523 1.60381-1.8727619 2.536381-3.5832381 2.108191-1.6860952-.422096-2.32-1.829334-2.32-1.829334s-1.5702857-.425143-2.3177142-.70019c.1020952-1.473524.5965714-2.386286 1.2647619-3.583238.9485714.31619 2.7832381.855619 2.8457142.842666" fill="#fcdfc3" mask="url(#a)"/><path d="m88.7615238 105.377829c-.2224762.22019-1.7843809.038857-2.6209524 1.801904-.8373333 1.76381-.1790476 2.440381 1.4750476 3.26781 1.264762.631619 2.2415239.645333 3.2678096-.527238.7375238-.843429.9142857-2.848762.9142857-2.848762s.2605714-.376381.6887619-.990476c-.7116191-1.075048-1.5779048-1.790477-2.584381-2.348953-.6712381.982096-1.0986666 1.604572-1.1405714 1.645715" fill="#fcdfc3" mask="url(#a)"/><path d="m69.0230095 58.939581s-13.2091428-2.3672381-16.6834285 12.7809523c-2.2156191 9.6579048-1.1474286 19.6312381-.0815239 25.592381.5805715 3.2518097 3.1740953 5.7668567 6.4426667 6.2399997l19.4651429 2.818286 2.3527619-4.676571s-17.0575238-3.9375242-17.4064762-4.6323814c-.3489524-.6948571 0-20.615619 0-20.615619z" fill="#6ed9f9" mask="url(#a)"/><path d="m76.8809143 56.5511619-.0396191-.0761905s.0022858.0297143.0396191.0761905" fill="#6ed9f9" mask="url(#a)"/><path d="m100.857067 90.0957714.002285-.0022857s-.002285-.0106667-.007619-.0281905c-.067809-.4510476-.166095-.8990476-.312381-1.3394285-.098285-.2971429-.201904-.5554286-.307809-.7946667-2.2003811-7.3775238-9.7645716-31.095619-16.0129525-30.8251429-6.1135238.2651429-7.1580953-.3375238-7.3379048-.5546666l12.8472381 24.6346666 2.9394286 12.7619048-3.3394286 10.0647621 3.3394286 2.358857s9.2876186-8.7238096 8.1897146-16.2758096" fill="#6ed9f9" mask="url(#a)"/><path d="m79.0617143 53.1776762c3.1900952-.7489524 5.1862857-3.9718095 4.4373333-7.1611429l-1.8049524-7.6838095c-.4807619-2.0464762-2.5478095-3.328-4.5942857-2.8472381l-4.1577143.9775238c-2.0464762.48-3.3272381 2.5470476-2.8472381 4.5942857l1.8049524 7.6830477c.7489524 3.1893333 3.9718095 5.1862857 7.1619048 4.4373333" fill="#fcdfc3" mask="url(#a)"/><path d="m80.3191619 47.7096381-1.8430476 13.2990476c-.1219048.8754286-.7847619 1.5771429-1.6518095 1.7478095-2.5447619.4998096-5.1558096-.4647619-6.7626667-2.5013333l-1.0384762-1.3158095 2.4015238-8.3542857-.0586667-7.0933334z" fill="#fcdfc3" mask="url(#a)"/><path d="m79.4928762 53.6724571s-2.0457143.5036191-4.9272381-1.4552381c0 0 1.6060952 3.6815239 4.6361905 3.552762z" fill="#e5cfba" mask="url(#a)"/><path d="m69.7350857 45.5623619s7.7234286-.8091429 6.8358095-7.5702857l-.3428571-3.6281905s-10.8144762-.6567619-6.4929524 11.1984762" fill="#0b33b2" mask="url(#a)"/><path d="m73.4891429 45.9536762c.1965714 1.1299048-.48 2.1912381-1.5116191 2.3710476-1.0323809.1805714-2.0281905-.5897143-2.2247619-1.7203809-.1973333-1.1291429.48-2.1904762 1.5116191-2.3702858 1.031619-.1798095 2.0281904.5904762 2.2247619 1.7196191" fill="#fcdfc3" mask="url(#a)"/><path d="m72.0304762 137.442514-19.2251429-8.479238 24.3466667-14.236952 19.2259048 8.478476z" fill="#b8d5ff" mask="url(#a)"/><path d="m69.3385143 134.794438-19.2251429-8.479238 24.3474286-14.236952 19.2251429 8.478476z" fill="#fff" mask="url(#a)"/><path d="m187.782705 51.1508571 2.41219-1.6540952s6.592-3.2670476 6.167619-5.0110476c-.424381-1.7432381-6.22019.3413333-6.22019.3413333s.716952-1.7904762.244571-1.8735238c-.356571-.0624762-4.342095 4.6712381-4.367238 5.0140952-.025905.3436191 1.763048 3.1832381 1.763048 3.1832381" fill="#fcdfc3" mask="url(#a)"/><path d="m105.353752 90.449981-.689523.9965714s-4.8259052 3.8300952-6.1729528 5.3638095c.1211428 1.9900952 7.0925718-.5379048 7.0925718-.5379048s-.724572 1.3942858-.306286 1.3782858c2.067809-.0761905 3.400381-5.2167619 3.370667-5.5154286-.029715-.2994286-3.294477-1.6853333-3.294477-1.6853333" fill="#fcdfc3" mask="url(#a)"/><path d="m184.95901 46.7878095 1.186285-1.0483809 2.814476 5.5466666-1.155047 1.4979048z" fill="#cfdeeb" mask="url(#a)"/><path d="m104.427429 89.9321143-.323048 1.2251428 4.82819 2.0601905.644572-1.5131428z" fill="#cfdeeb" mask="url(#a)"/><path d="m121.356343 127.176152 27.068952 1.757715 19.228953-8.938667-13.408762-7.070476h-22.986667z" fill="#009cd3" mask="url(#a)"/><path d="m121.356343 127.176152-16.003048-8.267428 23.073524-10.135619z" fill="#fff" mask="url(#a)"/><path d="m125.009219 115.101029-4.141714 2.137904c-.436572.225524-1.097905.215619-1.470476-.021333l-1.811048-1.152c-.37181-.236952-.319238-.614857.117333-.840381l4.141715-2.137905c.436571-.224762 1.097904-.215619 1.469714.021334l1.811047 1.152c.372572.236952.32.614857-.116571.840381" fill="#c0edff" mask="url(#a)"/><path d="m123.82659 106.481981 23.324953-9.8712381-1.957333 19.5649521-23.837715 11.000381z" fill="#1ac1f3" mask="url(#a)"/><path d="m138.523733 111.423162c-.486095 1.463619-1.930666 2.649905-3.225904 2.649905-1.296 0-1.952762-1.186286-1.466667-2.649905s1.930667-2.650667 3.225905-2.650667c1.296 0 1.952762 1.187048 1.466666 2.650667" fill="#fff" mask="url(#a)"/><path d="m137.646552 28.6910476-3.555047 3.6838095 2.618666 5.7074286 4.495239-3.7074286s-2.478477-2.1546666-3.558858-5.6838095" fill="#76abff" mask="url(#a)"/><path d="m141.152838 34.3628952 6.646095-5.4460952 3.469715 2.6514286-5.691429 7.7790476z" fill="#76abff" mask="url(#a)"/><path d="m150.660648 46.7185524c-.381715.2499047.047238 3.0095238 0 3.1641905-.047238.1554285 1.894857 1.5824761 2.557714 1.6449523s1.705143-1.3340952 1.846857-1.552c.142476-.2163809-.047238-3.1641904-.378667-3.2571428-.331428-.0937143-3.646476-.248381-4.025904 0" fill="#76abff" mask="url(#a)"/><path d="m40.2748952 88.108419-.7893333 18.016-3.8369524 2.228571-7.8217143-1.341714 1.1824762-22.9683808z" fill="#fcdfc3" mask="url(#a)"/><path d="m39.9560381 95.385219s-2.4076191.8396191-6.1013333-1.1939047c0 0 2.3527619 4.2537143 5.9893333 3.7531428z" fill="#e5cfba" mask="url(#a)"/><path d="m40.977981 96.4425143c3.6342857-1.5855238 5.3097142-5.8567619 3.7241904-9.4902857l-3.8194285-8.7535238c-1.0171429-2.3321905-3.7569524-3.4072381-6.0876191-2.3900953l-4.7375238 2.0670476c-2.3314286 1.0179048-3.4064762 3.7577143-2.3893333 6.088381l3.8194285 8.7535238c1.5855238 3.6342857 5.856 5.3104762 9.4902858 3.7249524" fill="#fcdfc3" mask="url(#a)"/><path d="m47.4902857 73.3785143c-1.056-2.8647619-4.2346667-4.3306667-7.0986667-3.2746667-.9180952.3382857-1.6906666.8975238-2.2841904 1.5916191l-8.6499048 3.1893333c-2.8670476 1.0567619-4.2552381 4.3070476-3.0377143 7.1085714l1.0217143 8.9630476c.2476191 2.1691429 2.664381 3.344762 4.5249524 2.2019048 2.56-1.5733333 5.5908571-5.1931428 6.8495238-13.4872381.0045714-.0297143.0129524-.0540952.0175238-.0845714 1.464381 1.1801905 3.4895238 1.5885714 5.3828572.8906667 2.864-1.0552381 4.3299047-4.2339048 3.2739047-7.0986667" fill="#1a2982" mask="url(#a)"/><path d="m39.4876952 87.2982095c.48 1.3013334-.0952381 2.7131429-1.2845714 3.1512381-1.1885714.4380953-2.5417143-.2620952-3.0217143-1.5634286-.48-1.3020952.0944762-2.7139047 1.2838095-3.152 1.1893334-.4380952 2.5424762.2620953 3.0224762 1.5641905" fill="#fcdfc3" mask="url(#a)"/><path d="m55.9650286 119.41501c.3161904-2.108191 8.2209524-1.792 10.7497143-1.896381 1.159619 1.264-5.4796191 3.267047-5.4796191 3.267047s1.8377143.426667 1.7912381.842667c-.1059048.948571-3.7660952.709333-4.0053333.527238-.2384762-.182095-2.9508572-1.369905-3.056-2.740571" fill="#fcdfc3" mask="url(#a)"/><path d="m55.8288 139.528838 14.7900952 4.303238c2.0586667.599619 4.280381.086857 5.8681905-1.354666 1.7912381-1.625143 2.4670476-4.147048 1.7287619-6.450286l-4.3611428-12.801524-4.1417143-.558476 1.1443809 11.119238-12.3283809-12.078476z" fill="#fcdfc3" mask="url(#a)"/><path d="m66.0300952 129.056381-9.1817142-11.307429c-.040381-.136381-.0769524-.275047-.120381-.409142-2.9539048-8.986667-18.184381-13.435429-18.184381-13.435429-12.1287619-.103619-10.3961904-3.119238-10.3961904-3.119238-7.1801905 3.686095-7.7874286 24.662095-4.312381 39.487238 2.2262857 9.501714 15.5878095 13.389714 24.8952381 14.95619 4.4167619.742858 8.1653333-3.252571 7.1565714-7.616761l-1.216-5.254858s.376381-1.136.864-2.971428c2.0807619.884571 4.4716191 1.849905 4.7367619 1.736381 6.8982858-2.961524 5.7584762-12.065524 5.7584762-12.065524" fill="#1ac1f3" mask="url(#a)"/><path d="m49.4977524 132.89341s7.767619-1.066667 9.9573333-11.934477l3.744 4.611048s.2544762 7.904762-10.1135238 11.577905z" fill="#d7f7ff" mask="url(#a)"/><path d="m28.2164571 99.4514286s-3.1253333.5790474-2.8525714 4.0647614c.2735238 3.485715 9.2060953 5.674667 14.9112381 2.841905l2.0281905-1.090285-2.6887619-2.08762s-12.4175238.923429-11.3980953-3.7287614" fill="#d7f7ff" mask="url(#a)"/><path d="m73.9054476 123.502781-.1668571-1.199238s2.5668571-6.366476 1.5131428-8.684953c-2.0022857-.63238-4.215619 6.112762-4.9531428 5.375239-.632381-.527239.1051428-2.635429-.632381-2.003048-1.3417143 1.150476-.2110476 6.64.6742857 7.503238.2156191.209524 3.5649524-.991238 3.5649524-.991238" fill="#fcdfc3" mask="url(#a)"/><path d="m82.6867048 42.5578667c-1.8864762-3.5893334-3.0392381-5.6632381-7.4742858-4.6979048l-.7321904-2.8571429c-.0975238-.3817142.1417143-.7657142.5264762-.8495238 2.4137142-.5264762 10.1142857-1.4887619 7.68 8.4045715" fill="#0b33b2" mask="url(#a)"/><path d="m196.925181 124.971581c1.800381-.714667 3.400381.867048 4.304762 2.412952.696381 1.190857 1.266286 2.493715 2.474667 3.283048.46019.30019 1.001142.483809 1.552.469333 2.025142-.052571 2.582095-2.318476 1.924571-3.877333-.550857-1.306667-1.688381-2.259048-2.695619-3.263238-2.642286-2.634667-4.592-5.945905-5.607619-9.522286-.641524-2.257524-.872381-4.863238.862476-6.687238.902095-.948571 2.295619-1.349333 3.514667-.862476 1.495619.598857 1.778285 2.042667 2.015238 3.371428.197333 1.109334.44419 2.300191 1.40419 2.988191.616381.441143 1.467429.509714 2.045715.019048.581333-.495239.512761-1.23581.472381-1.91162-.253715-4.225523 1.238857-8.529523 4.06019-11.7097138 1.540571-1.7371429 4.183619-3.2060952 6.076952-1.6327619.485334.4038095.823619.9638095 1.006477 1.5664762.439619 1.4468575.106666 2.8975235-.223239 4.3123805l-1.807238 7.742477c-.17219.737523.661334 1.296 1.289143.866285l5.395048-3.704381c.501333-.343619 1.080381-.576 1.688381-.614095 1.992381-.123428 2.56 1.590095 2.582857 3.056.052571 3.228191-1.675429 6.280381-3.973333 8.571429-2.299429 2.291047-5.145905 3.949714-7.922286 5.644952-.862476.525714-1.765333 1.103238-2.074667 2.117333-.175238.577524-.054095 1.232.403048 1.628953.771047.66819 1.853714.205714 2.654476-.320762 2.479238-1.634286 4.542476-3.938286 7.561143-4.62781 1.072-.245333 2.208-.201142 3.225143.210286 3.170285 1.283048 3.004952 4.664381 1.503238 6.833524-1.582476 2.285714-3.944381 3.785905-6.184381 5.368381-4.499048 3.176381-10.754286 8.910476-16.794667 7.094095-3.537524-1.059809-6.644571-3.744-8.889143-6.579809-1.654857-2.089143-2.850285-4.518858-3.427809-7.116191-.286476-1.312762-.422095-2.712381.272762-3.947428.294095-.522667.750476-.956953 1.310476-1.179429" fill="#1e41d3" mask="url(#a)"/><path d="m213.925181 108.608457c.086095.016.141714.099048.125714.183619-2.705524 14.083048-3.514666 28.506667-2.403809 42.872381.006857.086095-.058667.162286-.144762.168381-.004572.000762-.008381.000762-.012953.000762-.081523 0-.150095-.063238-.156952-.145524-1.112381-14.392381-.301714-28.84419 2.408381-42.954666.016762-.085334.100571-.140953.184381-.124953" fill="#5f8dff" mask="url(#a)"/><path d="m201.990629 111.382248c.081523-.031238.172952.009904.20419.090666.684191 1.790476 1.461333 3.819429 2.608762 5.568762.875429 1.333334 2.377143 3.096381 4.562286 3.924572 2.713904 1.030095 6.215619.381714 9.138285-1.690667 2.675048-1.896381 4.618667-4.588952 6.499048-7.193905.051048-.070095.149333-.086095.22019-.035047.070858.050285.086096.149333.03581.219428-1.895619 2.624762-3.855238 5.339429-6.57219 7.267048-2.057905 1.458285-4.398477 2.229333-6.572953 2.229333-1.00419 0-1.971809-.164571-2.860952-.501333-2.262857-.857905-3.81181-2.674286-4.713143-4.047238-1.167238-1.777524-1.948952-3.823238-2.64-5.627429-.031238-.081524.009143-.172952.090667-.20419" fill="#5f8dff" mask="url(#a)"/><path d="m199.528229 130.833143c.075428-.043429.17219-.016.214857.06019 1.481143 2.637715 3.886476 6.289524 7.653333 7.546667 3.214476 1.074286 7.151238.242286 10.529524-2.222476l.646857-.470095c2.864762-2.08381 5.569524-4.05181 8.40381-6.961524.06019-.062476.16-.064.222476-.002286.062476.060952.064.160762.003047.222476-2.851809 2.928-5.568 4.904381-8.443428 6.99581l-.646857.470857c-2.460191 1.795048-5.216762 2.742857-7.793524 2.742857-1.047619 0-2.064762-.156952-3.021714-.47619-3.870477-1.292191-6.322286-5.008762-7.828572-7.692191-.042667-.075428-.016-.171428.060191-.214095" fill="#5f8dff" mask="url(#a)"/><path d="m193.3984 126.877029c.354286-.114286.736762-.110477 1.099429-.023619l3.906285.922666c.454857.106667.803048-.401524.539429-.787047l-2.773333-4.048c-.506667-.73981-1.024-1.498667-1.098667-2.428953-.032-.387809.034286-.785524.22019-1.126857.723048-1.327238 2.559238-1.073524 3.827048-.419809 2.323809 1.196952 4.143238 3.338666 4.950095 5.824761.128762.397715.257524.838858.700191.992762.438857.153905.908952-.075428 1.160381-.467809.391619-.610286.263619-1.350095.125714-2.032-.164572-.816762-.080762-2.007619.388571-2.389334.429715-.348952 1.679238-.490666 2.194286-.290285.970667.377143 1.855238 2.211047 1.998476 3.652571.22781 2.283429-.137143 4.623238-1.047619 6.729905-.347428.802286-.78019 1.604571-.799238 2.478476-.022857 1.04381.804572 2.222476 1.968762 1.800381.317714-.115809.584381-.342095.778667-.618667.510476-.723809.541714-1.6.668952-2.440381.166095-1.091047.720762-2.359619 1.907048-2.350476.369523.002286.726857.150096 1.011809.384762.674286.555429.912 1.389714 1.044572 2.208762.256762 1.622857.123428 3.287619-.347429 4.858667-.639238 2.132571-1.80419 4.371809-3.579429 5.77219-3.030095 2.395429-7.804952 1.230476-11.082666.409905-1.632-.407619-3.392762-1.476571-4.808381-2.437333-1.344-.910477-2.199619-2.817524-.683429-4.264381.486096-.464762 1.123048-.743619 1.788191-.842667 1.874285-.278857 3.568.584381 5.348571.969905.574476.12419 1.293714.147047 1.583238-.409143.170667-.330667.092191-.733714-.137904-1.027048-.404572-.514285-1.048381-.643809-1.658667-.753523-1.961905-.353524-3.956572-.670477-5.781333-1.474286-1.824762-.803048-3.496381-2.171429-4.194286-4.039619-.316191-.848-.380191-1.960381.782476-2.334476" fill="#3369f0" mask="url(#a)"/><path d="m200.692648 124.162057c.093714-.057905.217142-.030476.275809.062476 4.726857 7.514667 8.448762 15.652572 11.05981 24.185143.032.105905-.026667.217143-.13181.249905-.011428.003048-.022095.005333-.033524.006857-.094476.012952-.187428-.04419-.217143-.139428-2.601142-8.49981-6.307047-16.604191-11.015619-24.089905-.059428-.093715-.031238-.216381.062477-.275048" fill="#76abff" mask="url(#a)"/><path d="m195.279695 128.638248c1.650286 1.072 3.356953 2.181333 5.290667 2.669714 2.096762.528762 4.200381.127238 5.488-1.048381 1.036952-.945524 1.486476-2.274286 1.681524-3.222095.256762-1.253334.242285-2.586667.229333-3.763048-.001524-.111238.086857-.20419.197333-.202667.110477-.001523.201143.087619.201905.198096.012953 1.19619.028953 2.553143-.236952 3.848381-.207238 1.004952-.688 2.418285-1.803429 3.436952-.781714.713143-1.836952 1.163429-3.008 1.319619-.904381.120381-1.878095.064762-2.848-.179048-1.998476-.504381-3.732571-1.632-5.410286-2.723047-.09219-.060191-.118857-.184381-.058666-.27581.06019-.09219.183619-.118095.276571-.058666" fill="#76abff" mask="url(#a)"/><path d="m197.90659 138.677638c2.262096 1.035429 4.242286 1.561143 6.33981 2.118095l.470095.124191c2.446476.653714 4.841143.257524 6.403048-1.056 1.834667-1.542857 2.374095-4.154667 2.620952-5.986286.014476-.108952.115048-.184381.225524-.171428.108952.014476.185143.115047.171429.224761-.256 1.896381-.820572 4.606477-2.760381 6.238477-.892953.750476-2.034286 1.221333-3.298286 1.388952-1.09181.145524-2.272762.066286-3.464381-.251429l-.470857-.125714c-2.114286-.560762-4.110476-1.091047-6.40381-2.14019-.100571-.045715-.144762-.164572-.098285-.265143.045714-.09981.164571-.145524.265142-.098286" fill="#76abff" mask="url(#a)"/><path d="m208.894705 136.705905c.174476-.11581.385524-.178286.594285-.158476.669715.064.909715.81219.940191 1.438476.022857.482285-.010667.978285.235429 1.416381.093714.167619.230857.310857.403047.394666.633143.306286 1.169524-.310857 1.216762-.901333.040381-.494476-.157714-.972952-.306286-1.446095-.392381-1.242667-.461714-2.585905-.200381-3.861334.165334-.805333.513524-1.654857 1.340953-1.945904.431238-.151619.924952-.054096 1.222857.291809.365714.425143.22019.919619.08 1.371429-.117333.377143-.233143.787047-.047238 1.155047.119619.235429.371047.392381.627809.332191.259048-.061714.357334-.303238.453334-.520381.600381-1.356952 1.753143-2.459429 3.134476-3.000381.754286-.295619 1.805714-.331429 2.136381.460952.085333.202667.099047.431238.058666.647619-.096761.521143-.432761.919619-.761904 1.308191l-1.801143 2.12419c-.171429.201905-.004572.508953.258286.475429l2.259047-.294095c.210286-.026667.425905-.006857.619429.077714.634666.279619.534095.903619.305524 1.364571-.502858 1.014096-1.526096 1.689143-2.602667 2.036572-1.077333.347428-2.222476.409905-3.350857.495238-.351238.025905-.722286.061714-.980572.329143-.147047.151619-.214857.374857-.137143.571428.130286.330667.537905.360381.870096.323048 1.027047-.113524 2.034285-.502095 3.076571-.235429.370286.094477.713143.289524.96.57981.77181.904381.177524 1.93219-.633905 2.368-.855619.46019-1.825523.551619-2.770285.687238-1.898667.272-4.749715 1.060571-6.320762-.468571-.921143-.893715-1.447619-2.226286-1.684572-3.467429-.175238-.915048-.153143-1.862095.086857-2.763429.121905-.454857.304762-.912761.717715-1.186285" fill="#b0e3ff" mask="url(#a)"/><path d="m217.200838 134.104c.055619-.071619.157714-.08381.22781-.02819.070857.055619.083047.156952.027428.227809-3.091809 3.949714-5.654857 8.306286-7.617524 12.949333-.025904.063238-.087619.100572-.151619.099048-.019809 0-.041143-.004571-.06019-.012952-.083048-.035048-.121905-.130286-.086857-.212572 1.973333-4.669714 4.550857-9.051428 7.660952-13.022476" fill="#fff" mask="url(#a)"/><path d="m213.247314 133.014705c.089143.010666.153143.090666.142476.179809-.075428.661334-.161523 1.41181-.089142 2.128.054095.538667.227809 1.304381.749714 1.889524.647619.727619 1.795048 1.071238 2.994286.896762 1.110857-.162286 2.136381-.687238 3.126857-1.195429.08-.041142.178285-.009904.218666.070858.041143.079238.009143.177523-.070095.218666-1.014857.519619-2.064 1.056762-3.228952 1.225905-.256.037333-.508191.054095-.753524.049524-1.027048-.017524-1.940571-.388572-2.530286-1.049905-.579047-.650667-.771047-1.486476-.829714-2.073905-.075429-.750476.012952-1.519238.089905-2.197333.009905-.088381.09219-.150095.179809-.142476" fill="#fff" mask="url(#a)"/><path d="m209.346286 138.681371c.086857-.005333.164571.067048.167619.156953.032 1.04.182857 2.534857 1.117714 3.500952.793905.822095 2.106667 1.178667 3.510095.955429l.277334-.044191c1.212952-.192 2.358857-.372571 3.691428-.823619.085334-.02819.176762.016.205714.101334.028953.084571-.016761.176761-.101333.204952-1.359238.460952-2.518857.644571-3.745524.838095l-.276571.043429c-.322286.051047-.64.073905-.950095.068571-1.139048-.019047-2.162286-.412952-2.844953-1.118476-1.011809-1.046095-1.174095-2.622476-1.208381-3.71581-.002285-.089904.067048-.164571.156953-.167619" fill="#fff" mask="url(#a)"/><path d="m204.360457 144.338362h11.598476c.423619 0 .737524.393905.64381.806095l-.430476 1.888c-.06781.300953-.335238.513524-.643048.513524h-10.739809c-.307048 0-.573715-.212571-.642286-.513524l-.429714-1.888c-.094477-.41219.219428-.806095.643047-.806095" fill="#1ac1f3" mask="url(#a)"/><path d="m214.43779 154.020648c-.063238.438857-.439619.764952-.883047.764952h-6.790095c-.443429 0-.81981-.326095-.883048-.764952l-.933333-6.474667h10.423619z" fill="#1ac1f3" mask="url(#a)"/></g></svg>