<svg height="160" viewBox="0 0 238 160" width="238" xmlns="http://www.w3.org/2000/svg" xmlns:xlink="http://www.w3.org/1999/xlink"><mask id="a" fill="#fff"><path d="m0 .61416103h237.903231v33.67132607h-237.903231z" fill="#fff" fill-rule="evenodd"/></mask><mask id="b" fill="#fff"><path d="m0 160h237.903238v-160h-237.903238z" fill="#fff" fill-rule="evenodd"/></mask><g fill="none" fill-rule="evenodd"><path d="m68.9753143.61417143c-74.32304763.24457143-83.368381 20.29257147-51.8415238 25.26399997 63.0133333 9.9375238 130.8091425 9.9413334 180.9279995 5.7851429 54.98362-4.5592381 49.629715-24.69257144 4.889905-27.38209525-61.700571-3.70895238-133.9763807-3.66704762-133.9763807-3.66704762" fill="#ebfaff" mask="url(#a)" transform="translate(0 125.714286)"/><path d="m232.275124 98.8210286c-16.073143-13.8651429-45.487238 31.0400004-44.860953 34.4015234 3.702096-3.289904 9.143619-8.115047 17.112381-15.16419 13.377524-11.833905 22.566858-16.999619 27.748572-19.2373334" fill="#76abff"/><path d="m205.050057 118.649905c-7.778286 6.880762-13.143619 11.638095-16.838095 14.921143 6.787048.232381 54.815238-17.10781 47.874286-29.827048-.968381-1.776-2.027429-3.193905-3.156572-4.3093333-5.057524 2.1478093-14.359619 7.2556193-27.879619 19.2152383" fill="#4a75ff"/><path d="m188.211886 133.571048c3.694476-3.283048 9.059809-8.040381 16.838095-14.921143 13.52-11.959619 22.822095-17.067429 27.879619-19.2152383-.216381-.2133334-.432762-.4228572-.654476-.6133334-5.181714 2.2369527-14.371048 7.4026667-27.748572 19.2373337-7.968762 7.049143-13.409523 11.874285-17.112381 15.16419.008381.044953.017524.088381.03581.117333.091429.144.357333.216381.761905.230858" fill="#fff"/><path d="m197.798629 130.490667c12.073904-2.474667 31.387428-5.113905 38.191238-6.015238-4.375619-16.820572-35.081143 2.249142-38.191238 6.015238" fill="#76abff"/><path d="m236.326476 126.167771c-.051809-.373333-.118095-.729142-.190476-1.074285-6.793143.898285-26.424381 3.577143-38.480762 6.070095 2.327619 2.336762 40.825905 10.467048 38.671238-4.99581" fill="#4a75ff"/><path d="m197.5408 130.984c.007619.054095.050286.115048.114286.179048 12.056381-2.492191 31.687619-5.17181 38.480762-6.069334-.044953-.211809-.092953-.416762-.145524-.617904-6.804572.901333-26.117334 3.539809-38.192 6.015238-.179048.217904-.272762.387047-.257524.492952" fill="#fff"/><path d="m198.080229 126.807619c1.354666-12.672762 5.318857-32.5043809 6.755809-39.4811428-24.612571-1.3234286-10.666667 35.1725718-6.755809 39.4811428" fill="#76abff"/><path d="m207.270324 87.5613714c-.528762-.0739047-1.038476-.128-1.537524-.1721904-1.434667 6.9653333-5.46819 27.122286-6.793143 39.784381 4.092953-1.503238 30.224-36.5630477 8.330667-39.6121906" fill="#4a75ff"/><path d="m198.650514 127.225829c.077715.010666.176762-.011429.288762-.05181 1.324953-12.662095 5.358476-32.8198095 6.793143-39.7843809-.304-.0266667-.603429-.048-.896762-.0632381-1.43619 6.9767619-5.400381 26.808381-6.755809 39.481143.226285.249143.421333.397714.570666.418286" fill="#fff"/><path d="m199.320152 120.850057c.005334-.000762.011429-.000762.016762-.000762 4.285715-.126476 7.769143 1.071238 10.352 3.560381 3.481143 3.352381 4.665905 8.350476 5.052191 11.904-1.018667.032762-2.112762.061714-3.264.087619-.462476-2.388571-1.452953-5.176381-3.55581-7.202285-1.990095-1.917715-4.651428-2.840381-7.910095-2.744381h-.012952c-5.545143.166095-9.490286 2.219428-11.727238 6.100571-.760381 1.320381-1.212953 2.692571-1.478096 3.935238-1.925333-.020571-3.751619-.045714-5.428571-.076952.251428-2.463238 1.063619-5.981715 3.358476-9.051429 3.082667-4.122667 7.993905-6.313905 14.597333-6.512" fill="#c0edff"/><path d="m198.863695 107.506286c24.263619-.713905 23.622095 26.710857 23.663238 28.078476.006096.223238-1.331809.400762-3.568.54019-.230857-4.532571-1.441523-12.711619-6.880762-17.952762-3.475047-3.347809-8.131809-4.96-13.840761-4.791619-.00762 0-.016 0-.022858.000762-9.748571.29181-16.679619 3.888-20.601142 10.691048-2.604953 4.519619-3.194667 9.374476-3.212953 12.144762-1.625143-.074667-2.591238-.158476-2.640762-.249143-.361905-.670476-2.196571-27.6 27.104-28.461714" fill="#c0edff"/><path d="m210.322057 123.75261c-2.765714-2.665905-6.471619-3.948953-11.011809-3.81562-.005334 0-.012191.000762-.018286.000762-7.743238.232381-13.250286 3.09181-16.368 8.501334-1.608381 2.790095-2.24381 5.74019-2.454095 7.957333-2.007619-.040381-3.766857-.088381-5.167238-.141714.02819-2.871619.682666-8.628572 4.277333-13.532191 3.913905-5.338666 10.192762-8.175238 18.662857-8.428952.006857-.000762.013714-.000762.020571-.000762 5.455239-.160762 9.889524 1.366095 13.180953 4.537143 5.219809 5.028571 6.381714 12.950857 6.602667 17.347047-.72762.038096-1.52762.073143-2.39162.104381-.396952-3.700571-1.635047-8.966857-5.333333-12.528761" fill="#c0edff"/><path d="m189.8496 131.829181c2.166857-2.823619 5.590095-4.324571 10.175238-4.461714.004572 0 .008381 0 .012952-.000762 3.004191-.088381 5.44381.748952 7.250286 2.489143 1.896381 1.827809 2.819048 4.354285 3.265524 6.564571-6.821333.135619-15.450667.149333-22.841143.079238.342095-1.475809.976-3.158095 2.137143-4.670476" fill="#6ed9f9"/><path d="m198.214552 113.381333c.006858-.000762.015238-.000762.022858-.000762 5.708952-.168381 10.365714 1.444572 13.840761 4.791619 5.439239 5.241143 6.649905 13.420191 6.880762 17.952762-.290285.017524-.592762.035048-.912.05181-.220952-4.396191-1.382857-12.318476-6.602666-17.347048-3.291429-3.171047-7.725715-4.697904-13.180953-4.537143-.006857 0-.013714 0-.020571.000762-8.470095.253715-14.748953 3.090286-18.662857 8.429715-3.594667 4.902857-4.249143 10.659809-4.277334 13.531428-.321523-.01219-.62019-.025143-.902095-.037333.018286-2.770286.608-7.625143 3.212953-12.144762 3.921523-6.802286 10.852571-10.399238 20.601142-10.691048" fill="#6ed9f9"/><path d="m209.689219 124.4096c-2.582857-2.489143-6.066286-3.686857-10.352-3.560381l-.012952-.455619.012952.455619c-.006095 0-.011429 0-.016762.000762-6.603428.198095-11.515428 2.389333-14.598095 6.512-2.294857 3.069714-3.107048 6.58819-3.357714 9.051429-.303238-.005334-.601905-.011429-.895238-.017524.211047-2.217143.845714-5.166476 2.454857-7.956572 3.117714-5.410285 8.624762-8.268952 16.368-8.501333.006095 0 .012952-.000762.018285-.000762 4.540191-.133333 8.245334 1.149714 11.01181 3.815619 3.697524 3.561905 4.936381 8.828191 5.332571 12.528762-.297904.011429-.601143.021333-.914285.032-.385524-3.553524-1.571048-8.551619-5.051429-11.904" fill="#6ed9f9"/><path d="m199.998019 126.454933h.012952l.012953.456381-.012953-.456381c3.258667-.096 5.920762.826667 7.910096 2.744381 2.103619 2.025905 3.093333 4.813715 3.555809 7.202286-.304.006095-.611047.012952-.923428.019048-.445715-2.210286-1.368381-4.737524-3.265524-6.564572-1.806476-1.74019-4.246095-2.577524-7.250286-2.489905-.004571.000762-.007619.000762-.01219.000762-4.585143.137905-8.009143 1.638857-10.176 4.462477-1.161143 1.51238-1.795048 3.194666-2.137143 4.670476-.308572-.003048-.615619-.006096-.919619-.009143.265904-1.242667.717714-2.615619 1.478095-3.935238 2.236952-3.881905 6.182095-5.934476 11.727238-6.100572" fill="#6ed9f9"/><path d="m117.88419 62.5234286v-40.0487619c0-2.0700953 1.677715-3.7478096 3.747048-3.7478096h37.196191c2.070095 0 3.747809 1.6777143 3.747809 3.7478096v50.496c0 2.0693333-1.677714 3.7478095-3.747809 3.7478095h-26.748953z" fill="#1ac1f3"/><path d="m127.342476 31.351619h16.636191v-3.4933333h-16.636191z" fill="#fff" mask="url(#b)"/><path d="m127.341714 39.8179048h23.035429v-3.4925715h-23.035429z" fill="#fff" mask="url(#b)"/><path d="m73.7870476 90.6022857-1.0979047.0662857c-.0099048-.1607619-1.1207619-16.2963809-13.7188572-39.7462857-12.7238095-23.6822857-14.4182857-46.19276189-14.4335238-46.4175238l1.0986667-.07695238c.0152381.22171429 1.6975238 22.50895238 14.304 45.97257148 12.7245714 23.6845714 13.8384762 40.039619 13.847619 40.2019047" fill="#a4e2ff" mask="url(#b)"/><path d="m44.9872.35078095c6.5912381-1.72495238 1.6030476 14.20723805 1.6030476 14.20723805s-10.2994286-11.93219043-1.6030476-14.20723805" fill="#a4e2ff" mask="url(#b)"/><path d="m55.4522667 16.4341333c3.6982857 2.96-7.2579048 6.7916191-7.2579048 6.7916191s2.3786667-10.6971429 7.2579048-6.7916191" fill="#a4e2ff" mask="url(#b)"/><path d="m39.2584381 20.1648c.5965714-4.6994286 9.5809524 2.6499048 9.5809524 2.6499048s-10.368 3.5497142-9.5809524-2.6499048" fill="#a4e2ff" mask="url(#b)"/><path d="m64.1966476 29.233219c5.76 3.9862858-10.0091428 10.7664762-10.0091428 10.7664762s2.4091428-16.0266666 10.0091428-10.7664762" fill="#a4e2ff" mask="url(#b)"/><path d="m70.4786286 40.4698667c6.1051428 4.2255238-10.6087619 11.4125714-10.6087619 11.4125714s2.5539047-16.9874286 10.6087619-11.4125714" fill="#a4e2ff" mask="url(#b)"/><path d="m76.524419 54.6432c5.8285715 4.0342857-10.1287619 10.8944762-10.1287619 10.8944762s2.4388572-16.2171429 10.1287619-10.8944762" fill="#a4e2ff" mask="url(#b)"/><path d="m79.3465905 68.7139048c6.4617143 2.9142857-7.9931429 12.5462857-7.9931429 12.5462857s-.5318095-16.3916191 7.9931429-12.5462857" fill="#a4e2ff" mask="url(#b)"/><path d="m42.4057143 37.7206095c.3306667-5.9664762 12.2925714 2.4777143 12.2925714 2.4777143s-12.7283809 5.3942857-12.2925714-2.4777143" fill="#a4e2ff" mask="url(#b)"/><path d="m47.7755429 52.967619c-1.6518096-5.7424761 12.423619-1.7074285 12.423619-1.7074285s-10.2438095 9.2838095-12.423619 1.7074285" fill="#a4e2ff" mask="url(#b)"/><path d="m53.9251048 64.6536381c-.5592381-5.9497143 12.5241904.624 12.5241904.624s-11.7866666 7.2251429-12.5241904-.624" fill="#a4e2ff" mask="url(#b)"/><path d="m60.0976762 75.7004952c1.6121905-5.7546666 11.4666667 5.0758096 11.4666667 5.0758096s-13.5939048 2.5150476-11.4666667-5.0758096" fill="#a4e2ff" mask="url(#b)"/><path d="m122.548952 14.1945143v40.0487619c0 2.0700952-1.677714 3.7478095-3.747809 3.7478095h-37.1954287c-2.0700953 0-3.7478095-1.6777143-3.7478095-3.7478095v-50.49600001c0-2.06933333 1.6777142-3.74704762 3.7478095-3.74704762h26.7489527z" fill="#6ed9f9" mask="url(#b)"/><path d="m84.039619 19.3729524h12.6232381v-12.62247621h-12.6232381z" fill="#fff" mask="url(#b)"/><path d="m84.039619 27.1398095h30.304v-3.4933333h-30.304z" fill="#fff" mask="url(#b)"/><path d="m84.039619 34.7939048h22.772571v-3.4925715h-22.772571z" fill="#fff" mask="url(#b)"/><path d="m100.226286 10.2430476h8.417524v-3.49257141h-8.417524z" fill="#fff" mask="url(#b)"/><path d="m100.225524 17.5847619h4.208762v-3.4925714h-4.208762z" fill="#fff" mask="url(#b)"/><path d="m122.548952 14.1945143h-12.974476c-.674286 0-1.219809-.5462857-1.219809-1.2205714v-12.97371433z" fill="#c0edff" mask="url(#b)"/><path d="m12.088 104.663314c12.6895238-10.8251426 29.3897143 24.297143 28.6331429 26.924191-2.3215239-2.574476-5.7333334-6.349715-10.7321905-11.865905-8.3931429-9.260952-14.4327619-13.305143-17.9009524-15.058286" fill="#76abff" mask="url(#b)"/><path d="m29.561981 120.18339c4.879238 5.38362 8.2445714 9.107048 10.5607619 11.675429-4.8365715.176762-37.30057147-13.414857-31.19542861-23.350857.85180952-1.386667 1.73485711-2.494476 2.63923811-3.365333 3.3889524 1.683047 9.5139047 5.682285 17.9954286 15.040761" fill="#4a75ff" mask="url(#b)"/><path d="m40.1225905 131.858971c-2.3161905-2.568381-5.6815238-6.291809-10.5607619-11.675428-8.4815238-9.358476-14.6064762-13.357714-17.9954286-15.040762.1737143-.166857.3466667-.330667.5219048-.479238 3.4681904 1.752381 9.5078095 5.797333 17.9001904 15.057524 4.9988572 5.516952 8.4114286 9.29219 10.7321905 11.866666-.0099047.034286-.0198095.068572-.0365714.092191-.0777143.112-.2735238.168381-.5615238.179047" fill="#fff" mask="url(#b)"/><path d="m34.2937905 131.808381c-8.2902857-2.997333-21.7318095-6.748952-26.47161907-8.048 5.43619047-12.900571 24.76571427 4.806095 26.47161907 8.048" fill="#76abff" mask="url(#b)"/><path d="m7.34994286 125.06659c.08838095-.290285.18438095-.565333.28419047-.832 4.73142857 1.296 18.39466667 5.10781 26.66971427 8.117334-1.984 1.64419-30.61561903 4.733714-26.95390474-7.285334" fill="#4a75ff" mask="url(#b)"/><path d="m34.4102095 132.21981c-.0129524.042666-.0518095.086857-.1059047.131809-8.2750477-3.008762-21.9390477-6.820571-26.67047623-8.116571.06095238-.163048.12342857-.320762.18895238-.475429 4.73904765 1.29981 18.18057145 5.051429 26.47085715 8.048762.0990476.187429.1417143.329905.1165714.411429" fill="#fff" mask="url(#b)"/><path d="m35.4845714 84.4452571c.5996191 1.8659048 1.2571429 3.8750477 1.952 5.9946667.6620953 2.0198095 1.3630476 4.1645714 2.0792381 6.3824762l9.6152381-10.4121905c-.5173333-6.1561905.8236191-12.6392381.5996191-16.864-.0449524-.8502857-.3116191-2.375619-.8708572-4.1295238l-14.8594285 10c.1135238 3.0430476.5508571 6.1234286 1.4841904 9.0285714" fill="#c0edff" mask="url(#b)"/><path d="m36.0683429 54.9877333c-7.3897143.6468572-11.1649524 5.6449524-12.9813334 11.5527619l9.9436191 7.6693334c-.08-8.3718096 2.0891428-16.2087619 3.0377143-19.2220953" fill="#c0edff" mask="url(#b)"/><path d="m36.5378286 90.7339429c-.6948572-2.1211429-1.3531429-4.1310477-1.9535238-6-.9638096-2.9996191-1.4118096-6.176-1.5253334-9.3081905l-10.2529524-7.9078095c-.7405714 2.7634285-1.087238 5.6769523-1.1954285 8.4068571-.1828572 4.5729524 1.3074285 9.6662857 3.1154285 14.520381 5.36 1.8666666 11.3881905 5.0133333 13.7721905 6.304-.6750476-2.0868572-1.335619-4.1066667-1.9603809-6.0152381" fill="#c0edff" mask="url(#b)"/><path d="m33.9749333 74.2950095 14.5668572-9.8041905c-1.6-4.3954285-4.9790476-9.6777142-11.1527619-9.5763809-.1051429.0015238-.2049524.0114286-.3093334.0144762-.8594285 2.6582857-3.207619 10.7459047-3.1047619 19.3660952" fill="#c0edff" mask="url(#b)"/><path d="m46.6449524 121.461638c1.8727619-3.239619 7.7219047-13.446095 10.5539047-19.378286-2.1767619-2.484571-4.2994285-4.764952-5.943619-7.8224758-1.0940952-2.0327619-1.688381-4.2834286-1.9870476-6.6049524l-9.4194286 10.200381c2.3733333 7.3881902 4.888381 15.6243812 6.7961905 23.6053332" fill="#c0edff" mask="url(#b)"/><path d="m66.0701714 118.470552c-1.9367619-7.735619-5.0773333-11.984762-8.1950476-15.608381-3.2929524 6.817524-10.023619 18.412191-10.9180952 19.947429 1.0072381 4.359619 1.8209524 8.62019 2.311619 12.598857 8.3710476-.103619 15.984-.270476 16.4022857-.260571.9394286.022857 3.8316191-2.96381.3992381-16.677334" fill="#c0edff" mask="url(#b)"/><path d="m38.9202286 98.0583619c-1.112381-.615619-7.7935238-4.2620952-13.7561905-6.4525714 2.0860952 5.4232381 4.4411429 10.4647615 5.1367619 14.0228575.887619 4.543238.7413333 7.384381-.1089524 10.094476 4.6460953 3.469714 13.0925714 5.734857 15.6274286 6.358857-1.9192381-8.103619-4.4830476-16.505143-6.8990476-24.0236191" fill="#c0edff" mask="url(#b)"/><path d="m29.8711619 116.649905c-.4700952 1.258666-1.0811429 2.528-1.8095238 3.966476-2.4662857 4.87619-1.7318095 13.472762-1.1672381 14.426667.304.512762 11.2388571.497523 21.4209524.377904-.4838095-3.888-1.2769524-8.047238-2.2590476-12.307047-1.8285715-.424381-10.9417143-2.678095-16.1851429-6.464" fill="#c0edff" mask="url(#b)"/><g fill="#fff"><path d="m39.5155048 96.8225524c-.7154286-2.2179048-1.4171429-4.3634286-2.0792381-6.3824762-.6940953-2.1196191-1.3516191-4.1287619-1.952-5.9946667-.9333334-2.9059047-1.3706667-5.9862857-1.4841905-9.0285714l-.5089524.3428571-.4327619-.3337142c.1142857 3.1314285.5622857 6.3085714 1.5253333 9.3081904.600381 1.8689524 1.2594286 3.8788572 1.9542858 6 .6247619 1.9085715 1.2853333 3.928381 1.9603809 6.0144762.2918095.1584762.5478095.2979048.7215238.3946667z" mask="url(#b)"/><path d="m33.0307048 74.2101333.4982857.3847619.4457143-.3001904c-.1028572-8.6201905 2.2460952-16.7070477 3.1047619-19.3660953-.3436191.0114286-.6819048.0297143-1.0110477.0594286-.9485714 3.0133333-3.1177142 10.8502857-3.0377142 19.2220952" mask="url(#b)"/><path d="m46.6449524 121.461638c-1.9078095-7.980952-4.4228572-16.217143-6.7961905-23.6053332l-.439619.4761904-.3253334-.183619c-.007619-.0045714-.0655238-.0365714-.1638095-.0906667 2.416 7.5184765 4.9798095 15.9200005 6.8998095 24.0236195.1569524.038857.2986667.073904.408381.099809.0990476-.171428.2422857-.419048.4167619-.72" mask="url(#b)"/><path d="m46.8692571 122.95939-.1737142.297905-.3367619-.073905c-.0426667-.009904-.1470477-.032761-.3024762-.069333.9820952 4.25981 1.7752381 8.419048 2.2590476 12.306286.3192381-.003048.6369524-.006857.9531428-.011429-.4906666-3.979428-1.3043809-8.24-2.311619-12.598857-.040381.068572-.0716191.122667-.0876191.149333" mask="url(#b)"/><path d="m34.0002286 75.4169905 14.8594285-10c-.0967619-.3024762-.2034285-.6125715-.3184761-.9264762l-14.5660953 9.8041905c.0045714.3740952.0114286.7474285.0251429 1.1222857" mask="url(#b)"/><path d="m33.0307048 74.2101333-9.9436191-7.6693333c-.0990476.3230476-.1935238.6491429-.2811428.9775238l10.2529523 7.9078095c-.0152381-.4068571-.0243809-.8121904-.0281904-1.216" mask="url(#b)"/><path d="m34.0002286 75.4169905c-.0137143-.3748572-.0205715-.7481905-.0251429-1.1222857l-.4457143.3001904-.4982857-.3847619c.0030476.4038096.0129524.8099048.0274286 1.216l.4327619.3337143z" mask="url(#b)"/><path d="m39.8488381 97.856 9.4194286-10.200381c-.0533334-.4137142-.1020953-.8281904-.1371429-1.2449523l-9.6152381 10.4121904c.1104762.344381.2217143.6849524.3329524 1.0331429" mask="url(#b)"/><path d="m38.497981 96.7488762c-2.384-1.2899048-8.4121905-4.4365714-13.7721905-6.3032381.144.3878095.2902857.775619.4380952 1.1603809 5.9626667 2.1904762 12.6438095 5.8369524 13.7561905 6.4525715-.1409524-.440381-.2819048-.8754286-.4220952-1.3097143" mask="url(#b)"/><path d="m39.4090667 98.3321905.439619-.4761905c-.1112381-.3481905-.2217143-.6887619-.3329524-1.0331429l-.2963809.32c-.1737143-.096-.4289524-.2354285-.7215238-.3939047.1401904.4342857.2811428.8693333.4220952 1.3097143.0982857.0540952.1561905.0860952.1638095.0906666z" mask="url(#b)"/><path d="m45.8194286 122.08221c-2.5348572-.624-10.9813334-2.889143-15.6274286-6.35962-.0975238.310096-.2057143.618667-.3207619.927239 5.2434286 3.785904 14.3565714 6.039619 16.1851429 6.464-.0792381-.344381-.1554286-.686477-.2369524-1.031619" mask="url(#b)"/><path d="m46.9567238 122.809905c.8944762-1.536 7.6251429-13.129905 10.9180952-19.948191-.2255238-.262095-.4510476-.520381-.6765714-.777904-2.8312381 5.931428-8.6803809 16.138666-10.5531428 19.377523.1074285.451048.208.899048.311619 1.348572" mask="url(#b)"/><path d="m46.2278857 122.181867c-.1097143-.025905-.2514286-.060953-.4083809-.09981.0815238.345143.1569523.687238.2361904 1.032381.1561905.03581.2605715.059429.3032381.068572l.3367619.073904.1737143-.297143c.0152381-.027428.0472381-.081523.0876191-.150095-.104381-.449524-.2041905-.897524-.312381-1.347809-.1737143.30019-.3177143.547809-.4167619.72" mask="url(#b)"/></g><path d="m166.392686 78.6729905-.775619-.5889524c.086857-.1135238 8.651428-11.5855238 13.726476-34.5950476 5.123809-23.2380953 16.975238-39.3249524 17.094857-39.4849524l.780952.58285714c-.117333.15771428-11.847619 16.08761906-16.924952 39.11238096-5.124571 23.239619-13.814095 34.8594286-13.901714 34.9737143" fill="#a4e2ff" mask="url(#b)"/><path d="m199.137524 1.47580952c5.419428 2.64533334-7.121526 10.46095238-7.121526 10.46095238s-.02895-13.952 7.121526-10.46095238" fill="#a4e2ff" mask="url(#b)"/><path d="m196.881524 18.3098667c.774095 4.1203809-8.790857.3702857-8.790857.3702857s7.769904-5.8072381 8.790857-.3702857" fill="#a4e2ff" mask="url(#b)"/><path d="m183.8592 11.4698667c3.111619-2.8099048 4.902095 7.3066666 4.902095 7.3066666s-9.008-3.5992381-4.902095-7.3066666" fill="#a4e2ff" mask="url(#b)"/><path d="m195.365943 31.9460571c1.565714 5.9992381-12.931048 1.4514286-12.931048 1.4514286s10.865524-9.3668571 12.931048-1.4514286" fill="#a4e2ff" mask="url(#b)"/><path d="m193.098819 43.1142095c1.659429 6.3588572-13.705905 1.5382857-13.705905 1.5382857s11.516191-9.9291428 13.705905-1.5382857" fill="#a4e2ff" mask="url(#b)"/><path d="m188.979048 56.1156571c1.584762 6.0708572-13.084953 1.4689524-13.084953 1.4689524s10.994286-9.479619 13.084953-1.4689524" fill="#a4e2ff" mask="url(#b)"/><path d="m182.754362 67.1885714c2.655238 5.6853334-12.604191 3.8095238-12.604191 3.8095238s9.100191-11.3097142 12.604191-3.8095238" fill="#a4e2ff" mask="url(#b)"/><path d="m175.841752 25.0703238c3.664762-3.8148571 6.822096 8.7550476 6.822096 8.7550476s-11.656381-3.7234285-6.822096-8.7550476" fill="#a4e2ff" mask="url(#b)"/><path d="m170.648686 38.4028952c2.204952-4.8083809 9.32419 6.0213334 9.32419 6.0213334s-12.232381.3215238-9.32419-6.0213334" fill="#a4e2ff" mask="url(#b)"/><path d="m168.033371 49.7949714c3.057524-4.3161904 8.046477 7.6457143 8.046477 7.6457143s-12.08-1.9512381-8.046477-7.6457143" fill="#a4e2ff" mask="url(#b)"/><path d="m165.802667 60.7712c4.402285-2.9318095 4.768 10.023619 4.768 10.023619s-10.576-6.1554285-4.768-10.023619" fill="#a4e2ff" mask="url(#b)"/><path d="m161.097143 51.2944762h14.240762v-3.2327619h-14.240762z" fill="#f2f2f2" mask="url(#b)"/><path d="m161.097143 60.288h17.988571v-3.232h-17.988571z" fill="#f2f2f2" mask="url(#b)"/><path d="m192.928838 51.2942476h-7.448381c-.892952 0-1.616-.7238095-1.616-1.616 0-.8929524.723048-1.6167619 1.616-1.6167619h7.448381c.892191 0 1.616.7238095 1.616 1.6167619 0 .8921905-.723809 1.616-1.616 1.616" fill="#fff" mask="url(#b)"/><path d="m183.863619 60.288h13.49181v-3.232h-13.49181z" fill="#f2f2f2" mask="url(#b)"/><path d="m161.097143 66.1904762h14.240762v-3.232h-14.240762z" fill="#f2f2f2" mask="url(#b)"/><path d="m215.253943 48.744381c.069333.007619.162286.0228571.271238.0228571.030476 0 .070095 0 .108952-.0068571-.124952 0-.248381-.008381-.38019-.016" fill="#59499e" mask="url(#b)"/><path d="m209.076876 117.602286c0 .012952.006095 0 0 0" fill="#fff" mask="url(#b)"/><path d="m209.075733 117.603048.000762-.000762c0-.000762 0-.000762 0-.000762v-.001524c-.000762.001524-.000762.002286-.000762.003048" fill="#fff" mask="url(#b)"/><path d="m198.235352 85.9557333c.006096.0099048.004572-.0038095 0 0" fill="#fff" mask="url(#b)"/><path d="m198.23459 85.956419.000762-.0007619s-.000762-.0007619-.001523-.0022857v.0007619c.000761.0007619.000761.0015238.000761.0022857" fill="#fff" mask="url(#b)"/><path d="m184.983848 115.859733c0 .877715-.72 1.598477-1.598477 1.598477h-124.5295234c-.8777143 0-1.5984762-.720762-1.5984762-1.598477v-63.3516187c0-.8784762.7207619-1.5916191 1.5984762-1.5916191h124.5295234c.878477 0 1.598477.7131429 1.598477 1.5916191zm0-72.133333h-127.7264766c-1.5504762 0-2.887619.8853333-3.5466666 2.1752381-.2811429.5417143-.4388572 1.1588571-.4388572 1.8171429v81.827048h135.7043814v-81.827048c0-2.2041905-1.787429-3.992381-3.992381-3.992381z" fill="#4a75ff" mask="url(#b)"/><path d="m184.9824 52.5092571v76.8182859h-127.7219048v-76.8182859c0-.8777142.7184762-1.5961904 1.5961905-1.5961904h124.5295243c.877714 0 1.59619.7184762 1.59619 1.5961904" fill="#fff" mask="url(#b)"/><path d="m196.624457 129.542019h-151.006476c-.4038096 0-.7306667.327619-.7306667.731429v1.428571c0 4.992762 4.048 9.040762 9.0407619 9.040762h134.3862858c4.993524 0 9.040762-4.048 9.040762-9.040762v-1.428571c0-.40381-.326857-.731429-.730667-.731429" fill="#4a75ff" mask="url(#b)"/><path d="m132.455619 135.728762h-22.66819c-3.417143 0-6.186667-2.769524-6.186667-6.186667h35.041524c0 3.417143-2.770286 6.186667-6.186667 6.186667" fill="#1e41d3" mask="url(#b)"/><path d="m68.4495238 111.50019h31.4377143v-3.493333h-31.4377143z" fill="#b8d5ff" mask="url(#b)"/><path d="m115.991314 43.7287619h-10.704762c0-2.9539048 2.394667-5.3485714 5.348572-5.3485714 2.961524 0 5.35619 2.3946666 5.35619 5.3485714" fill="#1e41d3" mask="url(#b)"/><path d="m163.29379 38.3776c-.017523 0-.034285.0022857-.051809.0030476h-52.607238c2.961524 0 5.356952 2.3939048 5.356952 5.3478095h-.003047v65.9862859c0 4.339809 3.518476 7.859047 7.859809 7.859047h41.60381c1.763047 0 3.192381-1.430095 3.192381-3.193142v-70.6521909c0-2.9546666-2.395429-5.3508571-5.350858-5.3508571" fill="#eef7ff" mask="url(#b)"/><path d="m123.077333 65.047619h15.29981v-15.3005714h-15.29981z" fill="#b8d5ff" mask="url(#b)"/><path d="m68.4495238 92.576h26.1980952v-24.4518095h-26.1980952z" fill="#b8d5ff" mask="url(#b)"/><path d="m123.076571 76.7428571h19.745524v-3.4925714h-19.745524z" fill="#b8d5ff" mask="url(#b)"/><path d="m123.077333 85.4666667h38.423619v-3.4925715h-38.423619z" fill="#b8d5ff" mask="url(#b)"/><path d="m141.753143 63.6860952h13.971809v-3.4933333h-13.971809z" fill="#b8d5ff" mask="url(#b)"/><path d="m141.753143 54.9371429h11.846857v-3.4933334h-11.846857z" fill="#b8d5ff" mask="url(#b)"/><path d="m123.077333 102.91581h31.592381v-3.4933338h-31.592381z" fill="#b8d5ff" mask="url(#b)"/><path d="m123.077333 94.1912381h26.853334v-3.4933333h-26.853334z" fill="#b8d5ff" mask="url(#b)"/><path d="m68.4495238 102.038095h17.4651429v-3.4933331h-17.4651429z" fill="#b8d5ff" mask="url(#b)"/><path d="m142.314971 146.266743c-.009142.009143-.016761.019047-.026666.028952.003047-.003047.007619-.005333.010666-.008381.006096-.005333.009905-.014476.016-.020571" fill="#0f3872" mask="url(#b)"/><path d="m130.834667 110.120914h35.565714 7.532952c0 4.099048-3.353143 7.452953-7.45219 7.452953h6.032-49.130667c4.098286 0 7.452191-3.353905 7.452191-7.452953" fill="#1e41d3" mask="url(#b)"/><path d="m190.983848 65.3411048-3.836953 2.6841904-3.013333 1.8224762-.896.5264762c-.553143.2986667-1.18781.4929524-1.828572.5196191-1.267047.0525714-2.528761-.5066667-3.318857-1.4834286-1.838476-2.7885714-3.387428-4.5798095-6.354285-13.1009524l2.943238-1.1893333c2.095238 3.1969524 6.627047 10.8030476 6.627047 10.8030476l5.559619-4.2529524z" fill="#f4dabe" mask="url(#b)"/><path d="m220.694781 30.9549714c-1.064381-1.9649524-2.969905-4.0060952-3.679238-4.0449524-3.60381-.1973333-60.574476 30.4761905-62.140953 31.728762-.736 1.1001904-3.401904 4.4937142-4.867047 6.9264761 22.165333-7.7714285 45.463619-21.1992381 70.687238-34.6102857" fill="#1e41d3" mask="url(#b)"/><path d="m225.129676 40.1610667c.065524-.5020953-.544-2.4533334-1.447619-4.7558096-26.647619 11.216-49.759238 21.7180953-70.177524 37.6449524 3.961905-.8114285 7.89181-1.7508571 10.035048-2.4373333 2.681143-.8594286 61.405714-29.0460952 61.590095-30.4518095" fill="#1e41d3" mask="url(#b)"/><path d="m222.402743 36.3686857c-.783238-1.9961905-1.787429-4.256-2.774095-6.0777143-25.107048 13.5626667-37.853715 19.3508572-63.223619 32.9965715-.950096 1.6464761-.38781 4.8632381 2.476952 5.3897142 27.021714-12.5424761 37.220571-18.8464761 63.520762-32.3085714" fill="#d2e6ff" mask="url(#b)"/><path d="m163.7536 67.9318857c-1.677714-2.0358095-4.702476.5897143-5.744762-1.5268571-1.563428-3.1756191 3.452952-3.9192381 1.483429-6.792381-.897524-1.3089524-3.525334-.6933333-4.693334-.9935238-1.993904 2.0502857-4.825904 5.2030476-7.378285 8.1699048-3.226667 3.7523809-6 7.2007619-6.043429 7.7234285-.04419.5455239 3.463619.136381 7.797333-.631619 4.848762-.8601905 10.728381-2.1706667 13.841524-3.1070476.556953-1.1001905 1.209143-2.2697143.737524-2.8419048" fill="#76abff" mask="url(#b)"/><path d="m144.754667 69.9490286c-1.952 2.3641904-3.347048 4.1942857-3.377524 4.5630476-.035048.439619 2.244571.2582857 5.40419-.2316191-.690285-1.5862857-1.082666-3.2243809-2.026666-4.3314285" fill="#1e41d3" mask="url(#b)"/><path d="m227.536686 21.7362286c-.936381-.3192381-6.280381 2.4342857-6.482286 3.191619-.202667.7580953 6.612571 13.4293334 7.238095 13.5314286.625524.1013333 5.124572-2.112 5.689143-2.8015238.564572-.6895238-4.272762-13.1832381-6.444952-13.9215238" fill="#1e41d3" mask="url(#b)"/><path d="m221.784838 24.0755048c-.915809-.120381-7.19619 2.8144762-6.460952 3.4270476 1.273143 1.0590476 7.779047 12.3139047 7.035428 14.288-.475428 1.2624762 6.128-2.9371429 6.558476-3.2297143.431239-.2933333-5.287619-14.2438095-7.132952-14.4853333" fill="#76abff" mask="url(#b)"/><path d="m183.329829 146.097067 13.927619-.211048c.834285-2.123429.873142-3.978667-.101334-5.491048-2.070095.699429-3.904762.435048-5.561904-.550095-2.798477 2.210286-5.177905 2.919619-8.313905 3.558095-.994286.773334-.662857 1.988572.049524 2.694096" fill="#1a2982" mask="url(#b)"/><path d="m210.79299 148.595581c2.98362.33219 11.712-4.640762 12.816762-5.745524-.025904-2.281143-.756571-3.814857-2.229333-4.848762-1.654095 1.427048-3.452952 1.872762-5.359238 1.584762-1.76 3.100953-3.447619 4.917333-6.112 6.689524-.422857.928762-.157714 1.766095.883809 2.32" fill="#1a2982" mask="url(#b)"/><path d="m209.541867 81.425981-8.863238 31.488762c-.155429.627809-.271239 2.02819-.405334 3.192381l-.388571 3.596952-.779429 7.196191-1.792762 13.850666c-1.325714.662857-3.651809 1.088-5.635047-.773333l.23619-13.688381.445714-7.224381.222477-3.611428c.098285-1.236572.076952-2.252953.346666-4.001524.614096-9.565715 2.217143-19.0857146 4.710857-28.5653336z" fill="#0b33b2" mask="url(#b)"/><path d="m181.511771 63.6402286s1.241905.5417143 1.910858-.5554286c.307047-.504381 1.313523-1.3980952.966095-2.9470476-.923429-4.1173334-1.733334-3.1352381-2.056381-2.6758095-1.436953 2.0388571.555428 3.239619-1.362286 4.4723809-.752.4838095-.591238 1.464381.541714 1.7059048" fill="#ffebd2" mask="url(#b)"/><path d="m213.536686 77.5219048c3.920762 9.3386666.592 31.5672382.592 31.5672382-.028953 1.426286-.08 1.745524.064 2.452571 0 0 7.364571 24.844191 7.539047 26.778667-.947809 1.158857-4.419809 2.540952-5.745523 1.657143-.331429-1.436191-9.857524-26.143238-9.857524-26.143238-.556953-1.568762-4.062476-21.1436193-4.022096-31.194667z" fill="#1e41d3" mask="url(#b)"/><path d="m215.59581 85.9907048c-1.113143 1.9603809-19.931429 5.0849523-19.897905 3.0179047 0 0 1.185524-6.8670476.71619-11.8811428-.469333-5.0064762-1.454476-6.8152381-2.132571-8.4007619-.553905-1.2952381-1.600762-2.2727619-2.511238-3.5405715-1.198476 1.1558096-2.956953 2.5333334-3.408762 2.2773334-1.188572-.0281905-3.525334-3.5535238-3.344762-4.4952381.439619-.4670476 7.807238-6.6011429 8.518857-7.0422857 1.899429-1.3142858 4.396952-2.2620953 5.964191-2.4944762 9.510857-1.0377143 17.216 30.5980952 16.096 32.5592381" fill="#1ac1f3" mask="url(#b)"/><path d="m201.236876 66.903619-3.081905 3.5253334-2.489142 2.4914286-.742858.7260952c-.465523.4220952-1.035428.7634286-1.651047.9424762-1.217524.3550476-2.576762.1135238-3.577905-.6453334-2.32-1.8323809-4.386286-3.6335238-9.308952-11.1969523l2.207238-1.0979048c2.8 2.6026667 6.176 5.0689524 9.284571 8.5881905.020572-.0380953.045714-.0609524.056381-.08l.283429-.3375238 3.744-5.704381z" fill="#ffebd2" mask="url(#b)"/><path d="m197.213029 50.8522667c1.550476 3.0445714 2.288 2.4921904 2.920381 2.5500952.054857 1.0788571-3.770667 3.5824762-7.135239 2.8899048.917334-.7832381 2.029715-1.3478096.717715-2.7398096z" fill="#f4dabe" mask="url(#b)"/><path d="m197.277029 50.9311238c-.179048.4822857-3.148191 3.4681905-4.187429 3.7081905-.85181.3222857-1.40419.2613333-2.126476-.3855238l-1.012572-1.1245715c-.364952.168381-.457904.2765715-.816762.3108572-.464.0464762-.477714-2.0327619-.855619-3.2015238l-1.676952-1.696c-.167619-.224-.308571-.4556191-.421333-.7184762l-.000762-.0076191c0-.0068571-.007619-.0060952-.007619-.0060952v-.0068571c-.735238-1.6632381-.210286-3.8064762 1.376762-5.144381 0 0 3.635047-3.4712381 6.422095-1.8864762 2.700952.8571429 3.629714 5.5100953 3.698286 5.6525714.516571 1.0689524-.03581 3.9062858-.391619 4.5059048" fill="#ffebd2" mask="url(#b)"/><path d="m185.919467 48.2644571c.576762.7230477 4.106666-1.6899047 4.420571-1.984 1.609143-1.5062857 2.217143-.4426666 2.822857.5767619.280381.472381 1.210667 1.3935239.950095-.1897142-.260571-1.5916191.459429-2.2864762 1.201524-1.4392381.879238 1.0041904 1.238857 2.5401904.440381 2.9950476.334476 1.0803809.805334 2.1523809 1.524572 2.7535238.24-.1409524 1.169523-2.0533333 1.192381-4.0929524.007619-.6864762-.655238-3.5786667-2.071619-5.1931428-.780191-.8716191-2.544762-2.4678096-4.928-2.2438096-1.184.1104762-3.405715 1.6281905-4.002286 2.0975238-3.798095 2.9706667-1.852953 6.5340953-1.550476 6.72" fill="#1a2982" mask="url(#b)"/></g></svg>