<?xml version="1.0" encoding="UTF-8"?>
<svg width="222px" height="160px" viewBox="0 0 222 160" version="1.1" xmlns="http://www.w3.org/2000/svg" xmlns:xlink="http://www.w3.org/1999/xlink">
    <!-- Generator: sketchtool 55 (78076) - https://sketchapp.com -->
    <title>9F196C8F-42E4-4731-910D-582FB0B27825@1.5x</title>
    <desc>Created with sketchtool.</desc>
    <defs>
        <polygon id="path-1" points="0 0.024446131 221.40918 0.024446131 221.40918 28.952381 0 28.952381"></polygon>
    </defs>
    <g id="Japanese-0.0" stroke="none" stroke-width="1" fill="none" fill-rule="evenodd">
        <g id="Features" transform="translate(-402.000000, -736.000000)">
            <g id="Stacked-Group-3" transform="translate(32.000000, 255.000000)">
                <g transform="translate(0.000000, 390.000000)" id="Card-5">
                    <g transform="translate(327.000000, 0.000000)">
                        <g id="Stacked-Group-7" transform="translate(24.000000, 35.000000)">
                            <g transform="translate(0.000000, 56.000000)" id="features_illustration_5">
                                <g transform="translate(19.000000, 0.000000)">
                                    <g id="Group-3" transform="translate(0.000000, 131.047619)">
                                        <mask id="mask-2" fill="white">
                                            <use xlink:href="#path-1"></use>
                                        </mask>
                                        <g id="Clip-2"></g>
                                        <path d="M64.1047808,0.25767619 C-5.06266438,1.51862857 -13.3716986,19.2039619 15.9969247,23.1140571 C74.6938767,30.9296762 137.788253,29.9780571 184.409014,25.6313905 C235.554925,20.8633905 230.461849,3.30681905 188.81024,1.58110476 C131.36774,-0.797561905 64.1047808,0.25767619 64.1047808,0.25767619" id="Fill-1" fill="#EBFAFF" mask="url(#mask-2)"></path>
                                    </g>
                                    <path d="M43.1583205,115.430324 L43.6106836,114.871848 C43.5293342,114.805562 35.3997247,108.071848 27.758211,92.4512762 C20.0421904,76.6752762 8.75516301,67.2040381 8.64188219,67.1103238 L8.18419726,67.6649905 C8.29595753,67.757181 19.4681836,77.1369905 27.1134986,92.7674667 C34.8310397,108.544229 43.076211,115.363276 43.1583205,115.430324" id="Fill-4" fill="#1AC1F3"></path>
                                    <path d="M6.26937123,65.7680762 C2.85117945,68.6115048 13.1901452,72.0294095 13.1901452,72.0294095 C13.1901452,72.0294095 10.7793164,62.0149333 6.26937123,65.7680762" id="Fill-6" fill="#1AC1F3"></path>
                                    <path d="M10.81695,77.4504381 C10.9804089,80.5414857 17.174361,76.1818667 17.174361,76.1818667 C17.174361,76.1818667 10.6010322,73.3712 10.81695,77.4504381" id="Fill-8" fill="#1AC1F3"></path>
                                    <path d="M18.9471678,70.2696381 C16.2299486,68.7968762 16.7112021,76.3679238 16.7112021,76.3679238 C16.7112021,76.3679238 22.5318596,72.2124952 18.9471678,70.2696381" id="Fill-10" fill="#1AC1F3"></path>
                                    <path d="M14.277489,86.9682286 C14.2022219,91.5449905 23.7869959,85.7514667 23.7869959,85.7514667 C23.7869959,85.7514667 14.3770849,80.9286095 14.277489,86.9682286" id="Fill-12" fill="#1AC1F3"></path>
                                    <path d="M17.846139,94.583619 C17.7663103,99.4346667 27.9250911,93.2944762 27.9250911,93.2944762 C27.9250911,93.2944762 17.9518171,88.1828571 17.846139,94.583619" id="Fill-14" fill="#1AC1F3"></path>
                                    <path d="M23.0604021,103.191467 C22.9836144,107.823086 32.6831897,101.960229 32.6831897,101.960229 C32.6831897,101.960229 23.1615185,97.0802286 23.0604021,103.191467" id="Fill-16" fill="#1AC1F3"></path>
                                    <path d="M29.445487,110.047848 C28.5346788,114.589562 39.1313774,110.579657 39.1313774,110.579657 C39.1313774,110.579657 30.6467199,104.056229 29.445487,110.047848" id="Fill-18" fill="#1AC1F3"></path>
                                    <path d="M27.0555658,78.6267429 C23.7681411,76.529981 23.6974356,86.0987429 23.6974356,86.0987429 C23.6974356,86.0987429 31.393689,81.3924571 27.0555658,78.6267429" id="Fill-20" fill="#1AC1F3"></path>
                                    <path d="M33.0957904,87.2844952 C30.6804,84.2208762 27.4705233,93.2326857 27.4705233,93.2326857 C27.4705233,93.2326857 36.2828589,91.3271619 33.0957904,87.2844952" id="Fill-22" fill="#1AC1F3"></path>
                                    <path d="M36.9528123,95.0002286 C34.0120726,92.4379429 32.5249767,101.890133 32.5249767,101.890133 C32.5249767,101.890133 40.8324904,98.3808 36.9528123,95.0002286" id="Fill-24" fill="#1AC1F3"></path>
                                    <path d="M40.4617048,102.484648 C36.8002253,101.150552 38.7951842,110.507505 38.7951842,110.507505 C38.7951842,110.507505 45.2932459,104.246171 40.4617048,102.484648" id="Fill-26" fill="#1AC1F3"></path>
                                    <path d="M5.6490637,108.363352 C18.9485363,97.1504 42.5748103,134.29021 42.027413,137.042971 C39.0296527,134.30621 34.6238651,130.291733 28.1721801,124.427352 C17.3390363,114.582781 9.86858425,110.252114 5.6490637,108.363352" id="Fill-28" fill="#76ABFF"></path>
                                    <path d="M27.7367712,124.907962 C34.0348808,130.632152 38.3798466,134.589486 41.3707644,137.320152 C35.8124014,137.441295 -3.33182466,122.728914 2.47894932,112.3632 C3.29016164,110.917105 4.17131918,109.763581 5.10721644,108.860724 C9.22562055,110.673295 16.7895863,114.958248 27.7367712,124.907962" id="Fill-30" fill="#4A75FF"></path>
                                    <path d="M41.3708404,137.320229 C38.3791623,134.589562 34.0349568,130.632229 27.7368473,124.908038 C16.7896623,114.958324 9.22569658,110.673371 5.10729247,108.860038 C5.28671712,108.687848 5.46614178,108.517181 5.64936781,108.363276 C9.86812808,110.252038 17.3393404,114.582705 28.171724,124.427276 C34.6241692,130.291657 39.0299568,134.306133 42.0277171,137.042895 C42.0201144,137.079467 42.0125116,137.114514 41.9965459,137.138895 C41.9212788,137.255467 41.7023199,137.31261 41.3708404,137.320229" id="Fill-32" fill="#FFFFFF"></path>
                                    <path d="M35.5432644,136.903543 C25.6840315,134.751162 9.89922329,132.390019 4.33781918,131.5824 C8.09053151,117.825448 33.0351205,133.781257 35.5432644,136.903543" id="Fill-34" fill="#76ABFF"></path>
                                    <path d="M4.04541781,132.966781 C4.09179452,132.660495 4.14957534,132.369448 4.21267808,132.086781 C9.76419863,132.892114 25.8090205,135.289829 35.6545685,137.457448 C33.7249932,139.350781 2.12572603,145.6304 4.04541781,132.966781" id="Fill-36" fill="#4A75FF"></path>
                                    <path d="M35.7492986,137.310552 C35.7424562,137.356267 35.7067233,137.405029 35.6542644,137.456838 C25.8087164,135.289981 9.76465479,132.892267 4.21237397,132.086933 C4.25114795,131.913981 4.29296301,131.7456 4.33781918,131.58179 C9.89922329,132.390171 25.6840315,134.751314 35.5432644,136.903695 C35.6884767,137.084267 35.7629836,137.224457 35.7492986,137.310552" id="Fill-38" fill="#FFFFFF"></path>
                                    <path d="M44.9137932,57.1200762 C45.8048342,60.1875048 46.7833068,63.4888381 47.8157589,66.9730286 C48.8003137,70.2918857 49.8426493,73.817219 50.9070329,77.4629333 L65.8122041,60.473981 C65.1127521,50.3711238 67.2681288,39.7486476 66.9906288,32.8176 C66.9343685,31.4217905 66.5481493,28.9158857 65.7171699,26.0343619 L42.7759027,42.297219 C42.9028685,47.2876952 43.5270534,52.3444571 44.9137932,57.1200762" id="Fill-40" fill="#C0EDFF"></path>
                                    <path d="M46.2598582,8.80380952 C34.9173308,9.79352381 29.0502966,17.9580952 26.1749404,27.6312381 L41.3074336,40.3078095 C41.3127555,26.5737143 44.7590774,13.7379048 46.2598582,8.80380952" id="Fill-42" fill="#C0EDFF"></path>
                                    <path d="M46.4332767,67.4473905 C45.4000644,63.9609143 44.4208315,60.6565333 43.5290301,57.5860571 C42.096674,52.6557714 41.4580438,47.4405333 41.3318384,42.3022476 L25.7287356,29.2332952 C24.5510712,33.7574857 23.9747836,38.5338667 23.7664685,43.010819 C23.4167425,50.5110095 25.6238178,58.8805333 28.3220301,66.8599619 C36.5139822,69.9738667 45.7110164,75.1929143 49.3474068,77.3331048 C48.3446055,73.9030095 47.3630918,70.5826286 46.4332767,67.4473905" id="Fill-44" fill="#C0EDFF"></path>
                                    <path d="M42.7538807,40.455619 L65.2436712,24.5112381 C62.8571712,17.2868571 57.7557329,8.58971429 48.2872808,8.69714286 C48.1245822,8.69866667 47.9717671,8.71314286 47.8113493,8.71771429 C46.4535,13.0704762 42.7289178,26.3139048 42.7538807,40.455619" id="Fill-46" fill="#C0EDFF"></path>
                                    <path d="M61.4638932,117.94819 C64.385626,112.65219 73.5119548,95.9649524 77.9451123,86.2620952 C74.644763,82.1645714 71.425763,78.4038095 68.9495507,73.3729524 C67.3035575,70.0274286 66.4269616,66.3299048 66.0042493,62.5188571 L51.4024274,79.1611429 C54.9285781,91.303619 58.6592425,104.839619 61.4638932,117.94819" id="Fill-48" fill="#C0EDFF"></path>
                                    <path d="M91.300161,113.227962 C88.4491336,100.51939 83.696661,93.5190095 78.9707979,87.5449143 C73.8161404,98.6976762 63.3167568,117.652343 61.9208938,120.163581 C63.3996267,127.324724 64.5818527,134.321295 65.2744623,140.853105 C78.1139692,140.762438 89.7925377,140.561295 90.4334486,140.581105 C91.8734075,140.627581 96.3544623,135.755962 91.300161,113.227962" id="Fill-50" fill="#C0EDFF"></path>
                                    <path d="M49.9751651,79.4846476 C48.2782336,78.4644571 38.0875212,72.4187429 28.9763979,68.7684571 C32.0935212,77.6857905 35.6280349,85.9768381 36.6399596,91.8191238 C37.9324253,99.281219 37.6640486,103.941029 36.3183637,108.3776 C43.3911925,114.113981 56.3105281,117.911314 60.1879253,118.959695 C57.3688295,105.646171 53.5651788,91.841219 49.9751651,79.4846476" id="Fill-52" fill="#C0EDFF"></path>
                                    <path d="M35.8127815,109.895314 C35.0730349,111.956267 34.11585,114.031695 32.9777199,116.385219 C29.1193295,124.360838 30.1145281,138.469029 30.9660349,140.038552 C31.4244801,140.883505 48.1953637,140.961981 63.8129116,140.862933 C63.1286651,134.481981 61.97685,127.651505 60.5353705,120.65341 C57.7375623,119.938743 43.7956582,116.155886 35.8127815,109.895314" id="Fill-54" fill="#C0EDFF"></path>
                                    <path d="M50.9068808,77.4630857 C49.8432575,73.8173714 48.8001616,70.2920381 47.8163671,66.972419 C46.7831548,63.4889905 45.8054425,60.1876571 44.9136411,57.1202286 C43.5269014,52.3446095 42.9034767,47.2878476 42.7757507,42.2973714 L41.9896274,42.8535619 L41.3312301,42.3027048 C41.4581959,47.4409905 42.096826,52.6554667 43.5284219,57.5857524 C44.4202233,60.6562286 45.4002164,63.9606095 46.4334288,67.4470857 C47.3624836,70.5830857 48.3447575,73.9027048 49.3475589,77.3328 C49.7923192,77.5948952 50.1831,77.8265143 50.4484356,77.9857524 L50.9068808,77.4630857 Z" id="Fill-56" fill="#FFFFFF"></path>
                                    <path d="M41.3073575,40.307581 L42.066111,40.9430095 L42.7541589,40.4553905 C42.7290699,26.3144381 46.4536521,13.0702476 47.8115014,8.71748571 C47.2838712,8.73272381 46.7653644,8.76015238 46.2597822,8.80358095 C44.7597616,13.7376762 41.3126795,26.5742476 41.3073575,40.307581" id="Fill-58" fill="#FFFFFF"></path>
                                    <path d="M61.4638932,117.94819 C58.6592425,104.839619 54.9285781,91.303619 51.4024274,79.1611429 L50.7204616,79.9382857 L50.2240027,79.6342857 C50.2125986,79.6274286 50.1244068,79.5740952 49.9753932,79.4849524 C53.5646466,91.8407619 57.3690575,105.646476 60.1881534,118.959238 C60.4284,119.024 60.6458384,119.081905 60.8130986,119.126095 C60.9681945,118.845714 61.1924753,118.440381 61.4638932,117.94819" id="Fill-60" fill="#FFFFFF"></path>
                                    <path d="M61.7850329,120.408 L61.5143753,120.894857 L60.9989096,120.769905 C60.9327658,120.753905 60.7738685,120.714286 60.5351425,120.653333 C61.9766219,127.651429 63.1291973,134.481905 63.8126836,140.862857 C64.3015397,140.85981 64.7888753,140.856762 65.2746904,140.852952 C64.5820808,134.321143 63.3998548,127.324571 61.9211219,120.163429 C61.8587795,120.275429 61.8093616,120.36381 61.7850329,120.408" id="Fill-62" fill="#FFFFFF"></path>
                                    <path d="M42.7759027,42.2971429 L65.7171699,26.0342857 C65.5742384,25.5375238 65.4145808,25.0278095 65.2435192,24.5112381 L42.7538548,40.455619 C42.7553753,41.0681905 42.759937,41.6815238 42.7759027,42.2971429" id="Fill-64" fill="#FFFFFF"></path>
                                    <path d="M41.3073575,40.307581 L26.1748644,27.6310095 C26.0174877,28.1612952 25.868474,28.6953905 25.7285836,29.2332952 L41.3316863,42.3022476 C41.3149603,41.635581 41.3073575,40.9704381 41.3073575,40.307581" id="Fill-66" fill="#FFFFFF"></path>
                                    <path d="M42.7759027,42.2971429 C42.759937,41.6815238 42.7553753,41.0681905 42.7538548,40.455619 L42.0658068,40.9432381 L41.3070534,40.3078095 C41.3070534,40.9706667 41.3154164,41.6358095 41.3313822,42.3024762 L41.9897795,42.8533333 L42.7759027,42.2971429 Z" id="Fill-68" fill="#FFFFFF"></path>
                                    <path d="M51.4021233,79.1609905 L66.0047055,62.5187048 C65.9286781,61.8406095 65.8594932,61.1594667 65.8123562,60.4745143 L50.9071849,77.4627048 C51.0714041,78.0288 51.2363836,78.5888 51.4021233,79.1609905" id="Fill-70" fill="#FFFFFF"></path>
                                    <path d="M49.3474068,77.3328762 C45.7110164,75.1926857 36.5139822,69.9744 28.3220301,66.8604952 C28.5379479,67.4989714 28.7553863,68.1359238 28.976626,68.7683048 C38.086989,72.4185905 48.2784616,78.4643048 49.9753932,79.4844952 C49.7647973,78.7599238 49.5557219,78.046781 49.3474068,77.3328762" id="Fill-72" fill="#FFFFFF"></path>
                                    <path d="M50.7201575,79.9385143 L51.4021233,79.1606095 C51.2363836,78.589181 51.0714041,78.028419 50.9071849,77.4630857 L50.4487397,77.9857524 C50.1826438,77.8265143 49.7926233,77.5948952 49.3471027,77.3328 C49.5561781,78.0467048 49.7644932,78.7598476 49.975089,79.484419 C50.1241027,79.5735619 50.2130548,79.6276571 50.2236986,79.6345143 L50.7201575,79.9385143 Z" id="Fill-74" fill="#FFFFFF"></path>
                                    <path d="M60.1880014,118.959314 C56.3098438,117.910933 43.3912685,114.114362 36.3184397,108.377219 C36.1648644,108.883886 35.994563,109.38979 35.8128575,109.895695 C43.7957342,116.155505 57.7376384,119.938362 60.5354466,120.65379 C60.4191247,120.088457 60.3081247,119.526171 60.1880014,118.959314" id="Fill-76" fill="#FFFFFF"></path>
                                    <path d="M61.921274,120.1632 C63.317137,117.651962 73.8165205,98.6972952 78.9704178,87.5445333 C78.6282945,87.1125333 78.2861712,86.6858667 77.9455685,86.2622476 C73.5116507,95.9651048 64.3853219,112.652343 61.463589,117.948343 C61.6224863,118.689676 61.7684589,119.424152 61.921274,120.1632" id="Fill-78" fill="#FFFFFF"></path>
                                    <path d="M60.8127185,119.126019 C60.6454582,119.081829 60.4280199,119.023924 60.1877733,118.959162 C60.3078966,119.526019 60.4188966,120.089067 60.5352185,120.653638 C60.7739445,120.71459 60.9328418,120.75421 60.9989856,120.769448 L61.5144514,120.8944 L61.7851089,120.408305 C61.8094377,120.364114 61.8580952,120.275733 61.9211979,120.162971 C61.7683829,119.424686 61.6224103,118.69021 61.463513,117.948114 C61.1920952,118.441067 60.9685747,118.845638 60.8127185,119.126019" id="Fill-80" fill="#FFFFFF"></path>
                                    <path d="M121.137569,95.2762667 C121.103357,95.145219 117.619021,82.0983619 115.542713,75.9871238 C108.313268,54.7002667 112.570042,46.0054095 112.614138,45.9200762 L112.03785,45.6206476 C111.852343,45.977219 107.593288,54.5974095 114.928412,76.1966476 C116.997117,82.2880762 120.475371,95.3136 120.511103,95.4446476 L121.137569,95.2762667 Z" id="Fill-82" fill="#69DEF9"></path>
                                    <path d="M111.85546,41.1044571 C117.590207,40.5756952 111.231275,53.201219 111.231275,53.201219 C111.231275,53.201219 104.288453,41.8031238 111.85546,41.1044571" id="Fill-84" fill="#69DEF9"></path>
                                    <path d="M118.472201,56.9184 C121.147605,59.9043048 111.480721,61.5911619 111.480721,61.5911619 C111.480721,61.5911619 114.942249,52.9793524 118.472201,56.9184" id="Fill-86" fill="#69DEF9"></path>
                                    <path d="M104.451304,57.796419 C105.597797,53.9510857 112.076092,61.3362286 112.076092,61.3362286 C112.076092,61.3362286 102.939119,62.869181 104.451304,57.796419" id="Fill-88" fill="#69DEF9"></path>
                                    <path d="M124.272255,78.8313905 C126.947659,81.8165333 117.280775,83.5041524 117.280775,83.5041524 C117.280775,83.5041524 120.742303,74.891581 124.272255,78.8313905" id="Fill-90" fill="#69DEF9"></path>
                                    <path d="M110.251358,79.7085714 C111.397851,75.8632381 117.876146,83.248381 117.876146,83.248381 C117.876146,83.248381 108.739173,84.7813333 110.251358,79.7085714" id="Fill-92" fill="#69DEF9"></path>
                                    <path d="M124.04136,66.1602286 C128.295092,70.2897524 114.207216,73.7739429 114.207216,73.7739429 C114.207216,73.7739429 118.429777,60.7133714 124.04136,66.1602286" id="Fill-94" fill="#69DEF9"></path>
                                    <path d="M104.685925,69.8075429 C105.785281,64.8673524 114.596096,73.5789714 114.596096,73.5789714 C114.596096,73.5789714 103.235322,76.3271619 104.685925,69.8075429" id="Fill-96" fill="#69DEF9"></path>
                                    <path d="M159.149823,114.299352 L160.236255,114.497448 C160.265145,114.33821 163.306241,98.3625905 178.667577,76.4662095 C194.183248,54.3526857 198.569268,32.0837333 198.611844,31.8612571 L197.526933,31.6524952 C197.484358,31.8719238 193.136351,53.9199238 177.764371,75.8292571 C162.2487,97.9450667 159.178714,114.137829 159.149823,114.299352" id="Fill-98" fill="#A4E2FF"></path>
                                    <path d="M198.661034,27.6601905 C192.302102,25.1459048 195.360684,41.6510476 195.360684,41.6510476 C195.360684,41.6510476 207.051417,30.9767619 198.661034,27.6601905" id="Fill-100" fill="#A4E2FF"></path>
                                    <path d="M186.307722,42.4585905 C182.269147,44.9698286 192.723674,50.1119238 192.723674,50.1119238 C192.723674,50.1119238 191.636482,39.1458286 186.307722,42.4585905" id="Fill-102" fill="#A4E2FF"></path>
                                    <path d="M201.992098,48.1289905 C201.960927,43.3663238 192.129824,49.6230857 192.129824,49.6230857 C192.129824,49.6230857 202.033153,54.413181 201.992098,48.1289905" id="Fill-104" fill="#A4E2FF"></path>
                                    <path d="M176.062194,54.1855238 C169.846194,57.4731429 184.742242,66.1367619 184.742242,66.1367619 C184.742242,66.1367619 184.263269,49.848 176.062194,54.1855238" id="Fill-106" fill="#A4E2FF"></path>
                                    <path d="M168.456489,64.6490667 C161.867955,68.1332571 177.657325,77.3164952 177.657325,77.3164952 C177.657325,77.3164952 177.149462,60.0509714 168.456489,64.6490667" id="Fill-108" fill="#A4E2FF"></path>
                                    <path d="M160.734918,78.0716952 C154.445172,81.3981714 169.518364,90.1646476 169.518364,90.1646476 C169.518364,90.1646476 169.034069,73.6816 160.734918,78.0716952" id="Fill-110" fill="#A4E2FF"></path>
                                    <path d="M156.236073,91.7800381 C149.449868,93.9133714 162.694601,105.26499 162.694601,105.26499 C162.694601,105.26499 165.18982,88.9655619 156.236073,91.7800381" id="Fill-112" fill="#A4E2FF"></path>
                                    <path d="M196.751834,65.2770286 C197.138053,59.2816 184.208834,66.2736 184.208834,66.2736 C184.208834,66.2736 196.24245,73.1886476 196.751834,65.2770286" id="Fill-114" fill="#A4E2FF"></path>
                                    <path d="M189.574543,79.8529524 C191.908584,74.3184762 177.403317,76.656 177.403317,76.656 C177.403317,76.656 186.494673,87.1550476 189.574543,79.8529524" id="Fill-116" fill="#A4E2FF"></path>
                                    <path d="M182.047147,90.7807238 C183.317564,84.9087238 169.495784,89.8992 169.495784,89.8992 C169.495784,89.8992 180.370742,98.5277714 182.047147,90.7807238" id="Fill-118" fill="#A4E2FF"></path>
                                    <path d="M174.573577,101.0672 C173.657447,95.1289143 162.542242,104.756343 162.542242,104.756343 C162.542242,104.756343 175.782413,108.901105 174.573577,101.0672" id="Fill-120" fill="#A4E2FF"></path>
                                    <path d="M216.449544,101.983924 C199.501516,87.6951619 169.393147,135.024686 170.090318,138.532495 C173.910695,135.044495 179.525318,129.929067 187.747681,122.455543 C201.551975,109.910019 211.072886,104.390781 216.449544,101.983924" id="Fill-122" fill="#76ABFF"></path>
                                    <path d="M188.301921,123.067962 C180.275708,130.361676 174.739393,135.405486 170.926619,138.885867 C178.010852,139.040533 227.895468,120.290057 220.48964,107.082438 C219.456427,105.238629 218.332742,103.768914 217.140633,102.617676 C211.891701,104.927771 202.252948,110.388343 188.301921,123.067962" id="Fill-124" fill="#4A75FF"></path>
                                    <path d="M170.926999,138.885638 C174.739013,135.406019 180.275328,130.361448 188.302301,123.067733 C202.252568,110.388876 211.892082,104.928305 217.140253,102.617448 C216.912171,102.396495 216.683328,102.180876 216.449164,101.983543 C211.072506,104.391162 201.552355,109.9104 187.748061,122.455924 C179.524938,129.928686 173.910314,135.044114 170.090698,138.532114 C170.099821,138.57859 170.108945,138.623543 170.129472,138.654781 C170.226027,138.804114 170.505047,138.875733 170.926999,138.885638" id="Fill-126" fill="#FFFFFF"></path>
                                    <path d="M178.243496,136.670629 C190.808544,133.926248 210.923873,130.918248 218.011147,129.888914 C213.229023,112.358248 181.439688,132.691962 178.243496,136.670629" id="Fill-128" fill="#76ABFF"></path>
                                    <path d="M218.383605,131.653562 C218.324303,131.262705 218.251317,130.892419 218.170728,130.532038 C211.095618,131.559086 190.64881,134.614324 178.102769,137.375467 C180.560735,139.789181 220.830927,147.792229 218.383605,131.653562" id="Fill-130" fill="#4A75FF"></path>
                                    <path d="M177.981049,137.189257 C177.990173,137.2464 178.035029,137.309638 178.102693,137.375162 C190.648734,134.614019 211.095542,131.558781 218.170652,130.532495 C218.121234,130.312305 218.068015,130.097448 218.010995,129.888686 C210.923721,130.918781 190.808392,133.926781 178.243344,136.6704 C178.059358,136.900495 177.964323,137.078781 177.981049,137.189257" id="Fill-132" fill="#FFFFFF"></path>
                                    <path d="M172.223342,130.308267 C177.463151,118.539124 186.965055,100.51779 190.33687,94.1871238 C173.411651,87.6591238 170.919473,125.371124 172.223342,130.308267" id="Fill-134" fill="#76ABFF"></path>
                                    <path d="M191.975945,94.9318095 C191.627739,94.7481905 191.285616,94.5881905 190.948054,94.439619 C187.581561,100.758857 177.92076,119.075048 172.70604,130.839619 C176.102945,130.284952 206.398342,102.519619 191.975945,94.9318095" id="Fill-136" fill="#4A75FF"></path>
                                    <path d="M172.484649,130.827657 C172.535587,130.854324 172.613135,130.855086 172.706649,130.839848 C177.920608,119.075276 187.581409,100.759086 190.948662,94.4390857 C190.742628,94.348419 190.538875,94.2646095 190.336642,94.1868952 C186.964827,100.518324 177.462923,118.538895 172.223114,130.308038 C172.298382,130.59299 172.385813,130.77661 172.484649,130.827657" id="Fill-138" fill="#FFFFFF"></path>
                                    <path d="M135.351879,110.536686 C135.362523,110.536686 135.372407,110.535924 135.383051,110.535924 C143.264051,110.395733 149.64503,112.924495 154.348845,118.049829 C160.686489,124.957257 162.774962,135.1424 163.421195,142.372114 C161.5494,142.411733 159.536955,142.441448 157.420352,142.461257 C156.612181,137.596495 154.842263,131.90659 151.012763,127.732876 C147.389297,123.783924 142.51366,121.836495 136.521181,121.943162 L136.497612,121.943162 C126.301578,122.13059 119.012832,126.193067 114.831325,134.01859 C113.409612,136.679924 112.553544,139.456305 112.04416,141.973638 C108.505085,141.879924 105.148475,141.777067 102.066325,141.668876 C102.572667,136.672305 104.128188,129.545448 108.401688,123.371733 C114.142516,115.0784 123.209544,110.759162 135.351879,110.536686" id="Fill-140" fill="#EBFAFF"></path>
                                    <path d="M134.752403,83.4139429 C179.366801,82.6223238 177.694958,138.322133 177.745897,141.103086 C177.75426,141.556419 175.291732,141.88099 171.17789,142.102705 C170.834246,132.889752 168.756417,116.238324 158.851568,105.442895 C152.523808,98.5476571 143.992773,95.1457524 133.495671,95.332419 C133.481986,95.332419 133.46754,95.333181 133.453855,95.333181 C115.528116,95.6615619 102.724342,102.7808 95.3930199,116.495086 C90.5227048,125.605181 89.3511226,135.4528 89.2682527,141.08099 C86.2826568,140.885943 84.5081774,140.689371 84.4192253,140.504229 C83.7653897,139.131276 80.8771089,84.3708952 134.752403,83.4139429" id="Fill-142" fill="#EBFAFF"></path>
                                    <path d="M155.524001,116.732419 C150.487186,111.242133 143.69946,108.534324 135.350891,108.682895 C135.340247,108.682895 135.328083,108.682895 135.317439,108.683657 C121.079028,108.944229 110.905042,114.605181 105.076021,125.511086 C102.069138,131.135467 100.848898,137.110324 100.421624,141.610133 C96.7320144,141.473752 93.5000897,141.32899 90.9258021,141.181943 C91.0299596,135.348038 92.3361103,123.671086 99.0310829,113.805943 C106.32211,103.06461 117.915528,97.4729905 133.48898,97.1872762 C133.501905,97.1865143 133.514829,97.1865143 133.527754,97.1865143 C143.558049,97.0082286 151.682336,100.230324 157.675576,106.761371 C167.179761,117.119467 169.173199,133.247467 169.500877,142.18461 C168.162795,142.241752 166.691665,142.292038 165.102692,142.333181 C164.440494,134.802514 162.256987,124.070324 155.524001,116.732419" id="Fill-144" fill="#EBFAFF"></path>
                                    <path d="M117.746063,132.58659 C121.780077,126.908876 128.100234,123.951162 136.530912,123.797257 C136.539275,123.796495 136.546118,123.796495 136.553721,123.796495 C142.078632,123.698971 146.547522,125.46659 149.837227,129.051352 C153.291152,132.8144 154.940947,137.973257 155.721748,142.476114 C143.181029,142.567543 127.317912,142.358781 113.733337,142.016686 C114.388693,139.029257 115.584604,135.628114 117.746063,132.58659" id="Fill-146" fill="#C0EDFF"></path>
                                    <path d="M133.453779,95.3328762 C133.467464,95.3328762 133.48191,95.3321143 133.495595,95.3321143 C143.992697,95.1462095 152.523732,98.5481143 158.851492,105.443352 C168.756341,116.238019 170.83417,132.889448 171.177814,142.103162 C170.644862,142.132114 170.087581,142.159543 169.50141,142.184686 C169.172971,133.247543 167.179533,117.119543 157.675348,106.761448 C151.682108,100.2304 143.558581,97.0083048 133.528286,97.1865905 C133.514601,97.1865905 133.501677,97.1865905 133.488752,97.1873524 C117.91606,97.4730667 106.321882,103.063924 99.0316151,113.806019 C92.3358822,123.671162 91.0297315,135.348114 90.925574,141.182019 C90.3356014,141.148495 89.7866836,141.114971 89.2681767,141.080686 C89.3510466,135.452495 90.5226288,125.604876 95.3929438,116.494781 C102.724266,102.780495 115.52804,95.662019 133.453779,95.3328762" id="Fill-148" fill="#C0EDFF"></path>
                                    <path d="M154.349073,118.050133 C149.645258,112.924038 143.263518,110.396038 135.383279,110.536229 L135.367313,109.60899 L135.383279,110.536229 C135.372635,110.536229 135.362751,110.53699 135.352108,110.53699 C123.209772,110.759467 114.141984,115.078705 108.401916,123.371276 C104.127655,129.545752 102.572135,136.671848 102.065792,141.669181 C101.509272,141.650133 100.960354,141.629562 100.42208,141.610514 C100.848594,137.110705 102.069594,131.135848 105.075717,125.511467 C110.904738,114.605562 121.078724,108.94461 135.317135,108.683276 C135.327779,108.682514 135.339943,108.682514 135.350587,108.682514 C143.699155,108.534705 150.486882,111.241752 155.523697,116.7328 C162.257443,124.069943 164.44019,134.802133 165.102388,142.3328 C164.554991,142.347276 163.995429,142.360229 163.421423,142.372419 C162.77519,135.142705 160.686717,124.9568 154.349073,118.050133" id="Fill-150" fill="#C0EDFF"></path>
                                    <path d="M136.497536,121.942933 L136.521105,121.942933 L136.537071,122.86941 L136.521105,121.942933 C142.513584,121.836267 147.389982,123.783695 151.012687,127.73341 C154.842187,131.906362 156.612105,137.596267 157.420276,142.46179 C156.861475,142.467124 156.295831,142.471695 155.721824,142.476267 C154.941023,137.97341 153.291228,132.814552 149.837303,129.051505 C146.547598,125.466743 142.078708,123.699124 136.553797,123.796648 C136.546194,123.796648 136.539351,123.796648 136.530988,123.79741 C128.10031,123.951314 121.780153,126.909029 117.746139,132.586743 C115.58468,135.628267 114.388769,139.02941 113.733413,142.016838 C113.167009,142.002362 112.602125,141.987886 112.044084,141.97341 C112.553468,139.456076 113.409536,136.680457 114.831249,134.019124 C119.012755,126.192838 126.301502,122.130362 136.497536,121.942933" id="Fill-152" fill="#C0EDFF"></path>
                                    <path d="M87.3447596,136.725714 L87.3508418,136.725714 C88.9489377,136.693714 90.242924,137.153143 91.1970678,138.091048 C92.4819308,139.35581 92.9061637,141.226286 93.0384514,142.554286 C92.6583144,142.563429 92.2508075,142.571048 91.8212527,142.576381 C91.6570336,141.682667 91.2981842,140.638095 90.5211842,139.873905 C89.7859993,139.151619 88.7976432,138.797333 87.5827253,138.821714 L87.5781637,138.821714 C85.5109788,138.864381 84.0337664,139.617143 83.186061,141.058667 C82.8979171,141.549333 82.7245747,142.060571 82.6219377,142.52381 C81.904239,142.509333 81.2237938,142.493333 80.5988486,142.476571 C80.7014856,141.556952 81.016239,140.245714 81.8821911,139.107429 C83.0454103,137.578286 84.8829925,136.776762 87.3447596,136.725714" id="Fill-154" fill="#CCF8FF"></path>
                                    <path d="M87.2207589,131.740571 C96.2657384,131.558476 95.9319781,141.798476 95.9426219,142.309714 C95.9441425,142.392762 95.4446425,142.455238 94.6106219,142.498667 C94.5399164,140.804952 94.1179644,137.746667 92.1085603,135.770286 C90.8252178,134.50781 89.0948342,133.889143 86.9675877,133.932571 L86.9584644,133.932571 C83.3243548,134.008 80.7287795,135.326857 79.2439644,137.853333 C78.2571288,139.533333 78.0206836,141.343619 78.0039575,142.378286 C77.3987795,142.344762 77.0391699,142.310476 77.0209233,142.27619 C76.8886356,142.024762 76.298663,131.960762 87.2207589,131.740571" id="Fill-156" fill="#CCF8FF"></path>
                                    <path d="M91.4349575,137.848457 C90.4131493,136.843505 89.0370534,136.350552 87.3446836,136.384838 L87.3378411,136.384838 C84.4510808,136.445029 82.3884575,137.49341 81.2077521,139.503314 C80.5987726,140.539505 80.3516836,141.639695 80.2657726,142.467124 C79.517663,142.444267 78.8623068,142.420648 78.3399986,142.395505 C78.3612863,141.323505 78.6251014,139.175695 79.9814301,137.356267 C81.4586425,135.376076 83.8086493,134.339124 86.9660671,134.2736 L86.9736699,134.2736 C89.0074027,134.232457 90.6549164,134.8176 91.8705945,136.01379 C93.797889,137.90941 94.2038753,140.873219 94.2707795,142.515124 C93.9993616,142.527314 93.7013342,142.537219 93.3789781,142.546362 C93.2444096,141.162743 92.8004096,139.191695 91.4349575,137.848457" id="Fill-158" fill="#CCF8FF"></path>
                                    <path d="M83.77725,140.793448 C84.5945445,139.74659 85.8756062,139.197257 87.5847021,139.16221 L87.5892637,139.16221 C88.7091473,139.139352 89.6161541,139.460876 90.2829144,140.116876 C90.983887,140.8064 91.3184075,141.753448 91.4773048,142.580876 C88.9349486,142.607543 85.7182295,142.5824 82.9645171,142.529829 C83.0968048,141.981257 83.3393322,141.35421 83.77725,140.793448" id="Fill-160" fill="#8CE9F9"></path>
                                    <path d="M86.9586925,133.932571 L86.9670555,133.932571 C89.0950623,133.889143 90.8246856,134.50781 92.1087884,135.770286 C94.1181925,137.746667 94.5401445,140.805714 94.6100897,142.498667 C94.5028911,142.504762 94.3896103,142.510095 94.2710075,142.515429 C94.2033432,140.872762 93.7981171,137.909714 91.8700623,136.013333 C90.6543842,134.817905 89.0076308,134.232762 86.9738979,134.273143 L86.9655349,134.273143 C83.8081171,134.338667 81.4588705,135.376381 79.9816582,137.356571 C78.6253295,139.176 78.3607541,141.323048 78.3402267,142.395048 C78.2208637,142.390476 78.1091034,142.384381 78.0041856,142.378286 C78.0209116,141.344381 78.2573568,139.533333 79.2441925,137.853333 C80.7290075,135.326857 83.3245829,134.008 86.9586925,133.932571" id="Fill-162" fill="#8CE9F9"></path>
                                    <path d="M91.1969918,138.091048 C90.2428479,137.153143 88.9488616,136.693714 87.3507658,136.725714 L87.3477247,136.555048 L87.3507658,136.725714 L87.3446836,136.725714 C84.8829164,136.776762 83.0453342,137.578286 81.8821151,139.107429 C81.016163,140.245714 80.7014096,141.556952 80.5995329,142.476571 C80.4862521,142.472762 80.3752521,142.469714 80.2657726,142.466667 C80.3516836,141.639238 80.5987726,140.53981 81.2077521,139.503619 C82.3884575,137.493714 84.4510808,136.445333 87.3378411,136.385143 L87.3446836,136.385143 C89.0370534,136.350857 90.4131493,136.843048 91.4349575,137.848762 C92.8004096,139.191238 93.2444096,141.162286 93.3789781,142.546667 C93.2679781,142.549714 93.1546973,142.552 93.0383753,142.554286 C92.9068479,141.226286 92.4818548,139.35581 91.1969918,138.091048" id="Fill-164" fill="#8CE9F9"></path>
                                    <path d="M87.5778596,138.821714 L87.5824212,138.821714 L87.5862226,138.992381 L87.5824212,138.821714 C88.797339,138.797333 89.7864555,139.151619 90.5216404,139.873905 C91.2978801,140.638095 91.6574897,141.682667 91.8217089,142.576381 C91.7084281,142.577905 91.5936267,142.579429 91.4773048,142.580952 C91.3184075,141.753524 90.9831267,140.805714 90.2829144,140.116952 C89.6161541,139.460952 88.7091473,139.139429 87.5892637,139.162286 L87.5847021,139.162286 C85.8756062,139.197333 84.5945445,139.746667 83.77725,140.793524 C83.3393322,141.354286 83.0968048,141.980571 82.9645171,142.529905 C82.8497158,142.528381 82.7349144,142.526095 82.6216336,142.52381 C82.7250308,142.060571 82.8983733,141.549333 83.1865171,141.059429 C84.0334623,139.617143 85.5106747,138.864381 87.5778596,138.821714" id="Fill-166" fill="#8CE9F9"></path>
                                    <path d="M53.8006356,54.8432762 C51.5669507,58.3198476 99.3030329,139.8048 100.90493,141.818514 C103.073992,144.545371 123.07604,145.874133 126.79454,141.852038 C130.900779,137.412419 178.808684,14.2032762 176.844136,8.74422857 C174.878827,3.28441905 153.946964,-1.67024762 150.048279,0.538514286 C146.149595,2.74651429 112.417759,111.752229 112.417759,111.752229 C112.417759,111.752229 83.0369712,44.9552762 78.6988479,44.2253714 C74.3599644,43.4954667 57.5191356,49.0535619 53.8006356,54.8432762" id="Fill-168" fill="#4A75FF"></path>
                                    <path d="M63.9020918,67.5642667 C63.9271808,67.321981 64.5794959,65.1444571 65.4325233,65.3082667 C66.2855507,65.4713143 67.5453247,66.3970286 67.0830781,66.9463619 C66.6215918,67.4964571 65.3382493,67.8324571 65.1945575,67.8240762 C65.051626,67.8164571 64.9284616,68.6294095 64.8341877,68.6248381 C64.7391534,68.6195048 63.8785233,67.7936 63.9020918,67.5642667" id="Fill-170" fill="#FFEBD2"></path>
                                    <path d="M66.6959466,84.8105143 C62.7197137,84.164419 61.055474,78.9400381 60.8631247,78.7366095 C60.6707753,78.5347048 64.9237479,69.1206095 64.9838096,68.7625143 C65.0438712,68.4036571 63.9528781,67.3126095 63.7878986,67.284419 C63.6229192,67.2569905 58.3960356,78.0897524 58.4697822,79.0055619 C58.5617753,80.1621333 64.2554671,89.1541333 64.4295699,89.2973714 C64.6036726,89.4390857 67.5314877,84.9461333 66.6959466,84.8105143" id="Fill-172" fill="#1E41D3"></path>
                                    <path d="M77.3995397,144.439238 C77.3995397,144.439238 81.8904781,146.929905 81.4753685,147.56 C80.6763205,148.773714 76.1610534,146.40419 76.0143205,145.976762 C75.8683479,145.548571 75.6645945,144.685333 76.0264849,144.548952 C76.3891356,144.412571 77.1037932,144.009524 77.3995397,144.439238" id="Fill-174" fill="#394678"></path>
                                    <path d="M65.6943616,145.605181 C66.0516904,145.875657 66.2219918,147.546514 65.8570603,147.650895 C65.4921288,147.754514 61.4064164,150.364038 60.8476151,149.435276 C60.2880534,148.508038 64.0559712,145.661562 64.3585603,145.71261 C64.6611493,145.762895 65.6943616,145.605181 65.6943616,145.605181" id="Fill-176" fill="#394678"></path>
                                    <path d="M76.9949219,104.702629 C76.9949219,104.702629 78.1695452,127.170438 78.352011,129.456914 C78.5344767,131.74339 78.2387301,144.900724 77.6403945,145.117105 C77.0412986,145.332724 76.3350041,145.249676 76.0384973,145.048533 C75.7427507,144.84739 72.1192849,111.689295 72.1192849,111.689295 L71.1735041,111.765486 C71.1735041,111.765486 66.1496137,145.699962 65.7451479,146.068724 C65.415189,146.369676 63.9729493,146.491581 63.6635178,146.123581 C63.3540863,145.755581 64.4648466,105.593295 65.0365726,105.042438 C65.6090589,104.492343 76.6573603,104.336914 76.9949219,104.702629" id="Fill-178" fill="#27D6FF"></path>
                                    <path d="M69.8673534,84.8440381 C71.5414767,85.4672762 72.7069767,84.6063238 74.6760863,92.1872762 C75.0235315,93.5236571 78.3482096,104.818895 77.3317233,105.0688 C76.315237,105.317943 64.7598329,106.130895 64.4694082,105.649371 C64.1789836,105.167848 63.8596685,86.9575619 63.8596685,86.9575619 C63.8596685,86.9575619 64.6267849,85.8528 66.4826137,84.8905143 C67.0535795,84.5941333 69.0743877,84.548419 69.8673534,84.8440381" id="Fill-180" fill="#1E41D3"></path>
                                    <path d="M70.7853842,77.8685714 C70.7853842,77.8685714 71.6429733,80.8864762 70.5458979,81.944 C69.8388432,82.6251429 69.3157747,82.4948571 69.3157747,82.4948571 L69.3507473,85.1584762 C68.9569253,85.5980952 68.5045623,86.7249524 67.5420555,85.2598095 C66.7954664,84.1238095 66.2761993,79.360381 66.2761993,79.360381 C66.2761993,79.360381 67.1740829,77.8830476 67.2212199,77.8624762 C67.2683568,77.8426667 70.7853842,77.8685714 70.7853842,77.8685714" id="Fill-182" fill="#FFEBD2"></path>
                                    <path d="M71.3552096,77.6348952 C71.6410726,77.989181 71.9649493,78.8547048 71.3871411,79.2882286 C70.8085726,79.7225143 68.2198397,79.5640381 68.1438123,79.828419 C68.0685452,80.0935619 68.3749356,80.7609905 68.1445726,81.044419 C67.9757918,81.2539429 67.0923534,80.4920381 66.8277781,80.644419 C66.3982233,80.8935619 66.8619904,82.9895619 66.8619904,82.9895619 C66.8619904,82.9895619 66.2651753,83.3628952 65.9359767,81.6600381 C65.5664836,79.749181 65.3832575,76.996419 68.0518192,76.7678476 C69.8871205,76.6108952 70.8899219,77.0573714 71.3552096,77.6348952" id="Fill-184" fill="#394678"></path>
                                    <path d="M69.7845596,84.849219 C69.8286555,85.1014095 68.9429363,86.2351238 68.6243815,86.2236952 C68.3058267,86.2115048 68.8022856,84.2160762 69.3413199,84.1833143 C69.5405116,84.1711238 69.7442651,84.6183619 69.7845596,84.849219" id="Fill-186" fill="#1AC1F3"></path>
                                    <path d="M67.0527432,84.3112381 C66.935661,84.3714286 66.6946541,84.7790476 66.7022568,84.8918095 C66.7227842,85.2057143 68.373339,86.4697143 68.5444007,86.1573333 C68.7253459,85.8274286 67.4412432,84.1108571 67.0527432,84.3112381" id="Fill-188" fill="#1AC1F3"></path>
                                    <path d="M67.6154979,89.8506667 C67.776676,89.9893333 67.7409432,91.655619 67.7667925,91.7470476 C67.7926418,91.8384762 67.1000322,92.7550476 66.8430596,92.8129524 C66.5868473,92.8708571 66.111676,92.0662857 66.0462925,91.9405714 C65.9801486,91.8148571 65.9132445,90.0434286 66.0386897,89.9771429 C66.1641349,89.9108571 67.4550801,89.7135238 67.6154979,89.8506667" id="Fill-190" fill="#1AC1F3"></path>
                                    <path d="M69.8673534,84.8440381 C73.1745452,84.8196571 78.6918534,80.7228952 78.8887644,80.5248 C79.0856753,80.3259429 74.3096342,72.3716571 74.2571753,72.0112762 C74.2047164,71.6516571 75.3177575,70.5834667 75.4842575,70.5590857 C75.649237,70.5354667 81.5003055,79.9236571 81.4083123,80.8379429 C81.2919904,81.9929905 72.5792507,88.244419 72.4021068,88.3838476 C72.224963,88.5225143 69.0211685,84.8501333 69.8673534,84.8440381" id="Fill-192" fill="#1E41D3"></path>
                                    <path d="M75.4035164,70.8045714 C75.3731055,70.5630476 74.6698521,68.4022857 73.820626,68.5851429 C72.9721603,68.768 71.733674,69.7234286 72.2088452,70.2620952 C72.6832562,70.8007619 73.9742014,71.1062857 74.1171329,71.0948571 C74.2600644,71.0834286 74.4022356,71.8940952 74.4972699,71.8864762 C74.5915438,71.8788571 75.4324068,71.0331429 75.4035164,70.8045714" id="Fill-194" fill="#FFEBD2"></path>
                                    <path d="M185.511031,82.1237333 C185.511031,82.1237333 181.840428,78.0368762 181.503627,77.6536381 C181.166065,77.2696381 184.274825,68.9801143 184.405592,68.7881143 C184.53712,68.5968762 186.269784,68.1313524 186.215045,67.3892571 C186.160305,66.6479238 185.583257,65.8608762 185.026736,65.7443048 C184.470976,65.6269714 183.180031,66.4376381 182.87136,66.8635429 C182.563449,67.2894476 182.944346,68.1229714 182.944346,68.1229714 C182.944346,68.1229714 178.839627,77.9622095 178.824421,78.5679238 C178.809976,79.1728762 182.714743,83.5149714 182.922298,83.6825905 C183.130613,83.8502095 185.396229,82.3515429 185.511031,82.1237333" id="Fill-196" fill="#FCDFC3"></path>
                                    <path d="M190.576052,85.6267429 C189.881162,87.5421714 186.757196,87.5436952 183.491819,84.6827429 C181.284744,82.7490286 180.326799,81.5863619 180.551079,81.4027429 C180.776121,81.2183619 182.726984,79.0804571 183.171744,79.1414095 C183.617264,79.2031238 191.248134,83.7737905 190.576052,85.6267429" id="Fill-198" fill="#1AC1F3"></path>
                                    <path d="M196.106285,141.708571 C195.651641,141.571429 188.381141,130.06819 187.550922,128.091048 C186.719942,126.113905 184.532634,116.58019 184.658079,114.552 C184.783525,112.525333 190.789689,104.734095 190.789689,104.734095 C190.789689,104.734095 192.409833,106.631238 192.453929,108.575619 C192.475216,109.538667 191.464052,122.708952 191.62523,123.83581 C191.786408,124.963429 197.908895,140.359238 197.925621,140.720381 C197.95071,141.269714 197.50899,142.129905 196.106285,141.708571" id="Fill-200" fill="#0B33B2"></path>
                                    <path d="M189.874091,107.621562 C189.874091,107.621562 182.201406,120.789562 181.522482,121.405181 C180.844317,122.020038 182.261468,134.76061 182.115495,137.069181 C181.969523,139.378514 182.158831,145.0128 181.763488,145.291657 C181.368146,145.571276 180.170714,145.972038 179.723673,145.517943 C179.277392,145.065371 175.834112,123.171276 175.839434,122.269943 C175.845516,121.36861 182.12842,105.8608 182.917584,105.472229 C183.706749,105.082895 189.604194,107.12099 189.874091,107.621562" id="Fill-202" fill="#1E41D3"></path>
                                    <path d="M184.23666,90.721219 L184.273153,84.9718857 C184.273153,84.9718857 187.556016,83.3063619 188.606714,83.1631238 C188.606714,83.1631238 190.708872,84.0690286 191.333817,85.8526476 C192.852845,90.1848381 192.11918,96.4050286 192.70231,99.0374095 C193.28468,101.66979 195.739605,104.540648 194.534571,105.509029 C193.328776,106.478171 191.440255,108.869029 187.62292,108.017981 C183.806345,107.167695 182.314687,105.956267 182.316208,105.730743 C182.317728,105.505219 184.513399,98.3090286 184.212331,94.4766476 L184.23666,90.721219 Z" id="Fill-204" fill="#1AC1F3"></path>
                                    <path d="M198.232239,141.088076 C198.232239,141.088076 199.046492,142.535695 198.549273,142.665981 C198.052814,142.795505 192.863184,144.905981 192.720253,144.130362 C192.577321,143.354743 197.564718,140.632457 198.032287,140.81379 L198.232239,141.088076 Z" id="Fill-206" fill="#1A2982"></path>
                                    <path d="M182.01856,145.168381 C182.01856,145.168381 182.357642,147.086857 181.844458,147.07619 C181.331273,147.066286 175.765307,147.687238 175.837533,146.900952 C175.908999,146.11619 181.446834,144.85219 181.848259,145.152381 L182.01856,145.168381 Z" id="Fill-208" fill="#1A2982"></path>
                                    <path d="M189.265264,81.2949333 L189.291873,83.9417905 C189.291873,83.9417905 188.715586,84.5436952 188.073914,84.7936 C186.852914,85.2690286 186.676531,84.5718857 186.676531,84.5718857 L186.499387,82.5795048 C186.499387,82.5795048 185.311839,82.6671238 184.873161,81.5516952 C184.434483,80.4370286 183.922818,78.0385524 184.764442,77.7017905 C185.605305,77.3657905 187.75764,76.7814095 187.75764,76.7814095 L189.668969,78.4484571 L190.079517,80.4263619 L189.265264,81.2949333 Z" id="Fill-210" fill="#FCDFC3"></path>
                                    <path d="M189.501709,82.6848 C189.938106,82.7594667 190.661887,81.0832762 190.648202,80.2741333 C190.613229,78.3160381 189.635517,76.1049905 187.725709,75.9381333 C185.81514,75.7697524 184.267983,75.9396571 183.59286,76.4661333 C182.964113,76.9545143 183.01201,77.7126095 184.084757,78.0547048 C184.626072,78.2276571 186.104045,78.116419 186.754839,77.9114667 C187.404873,77.7072762 186.773086,79.973181 187.591901,80.1270857 C188.158305,80.2329905 188.206962,78.8554667 188.874483,79.2173714 C189.542003,79.5800381 189.247777,80.2093714 189.247777,80.2093714 C189.247777,80.2093714 188.855476,82.5743238 189.501709,82.6848" id="Fill-212" fill="#1A2982"></path>
                                    <path d="M183.404692,83.9392762 C183.404692,83.9392762 178.564788,81.3503238 178.116986,81.1042286 C177.669945,80.8588952 177.775623,72.0032762 177.834164,71.7785143 C177.892705,71.5537524 179.363075,70.524419 179.059726,69.8455619 C178.756377,69.1667048 177.945925,68.6242286 177.383322,68.7042286 C176.819959,68.7834667 175.881781,69.9872762 175.737329,70.492419 C175.592116,70.9983238 176.233027,71.6512762 176.233027,71.6512762 C176.233027,71.6512762 175.717562,82.3042286 175.909911,82.8779429 C176.1015,83.452419 181.248555,86.2021333 181.500966,86.2889905 C181.753377,86.3750857 183.374281,84.1922286 183.404692,83.9392762" id="Fill-214" fill="#FCDFC3"></path>
                                    <path d="M190.63809,86.0999619 C190.63581,88.1380571 187.698871,89.2054857 183.655734,87.6306286 C180.92407,86.5647238 179.551015,85.7418667 179.699268,85.4919619 C179.848282,85.242819 181.049515,82.7292952 181.488953,82.635581 C181.928392,82.5411048 190.640371,84.1289143 190.63809,86.0999619" id="Fill-216" fill="#36CFF2"></path>
                                    <path d="M160.53299,90.8826667 C159.832777,92.3638095 157.771675,96.6754286 157.51014,96.6685714 C157.195387,96.6601905 152.559997,94.8552381 152.279455,94.8179048 C151.998914,94.7805714 150.148408,96.9062857 150.063257,97.5066667 C150.063257,97.5066667 157.760271,99.4518095 158.233161,99.3413333 C158.616339,99.2506667 161.100154,93.8198095 162.069503,91.712381 C161.509942,91.5470476 161.002839,91.3009524 160.53299,90.8826667" id="Fill-218" fill="#1AC1F3"></path>
                                    <path d="M152.442458,146.11261 C152.888739,146.2368 155.047157,142.20861 154.908787,141.308038 C154.770417,140.408229 153.437657,140.153752 153.408766,140.36099 C153.379876,140.56899 151.685225,145.902324 152.442458,146.11261" id="Fill-220" fill="#1A2982"></path>
                                    <path d="M133.931992,149.217524 C134.223937,149.578667 138.31269,147.550476 138.720958,146.736 C139.129225,145.923048 138.190286,144.94019 138.047355,145.092571 C137.903663,145.244952 133.437053,148.606476 133.931992,149.217524" id="Fill-222" fill="#1A2982"></path>
                                    <path d="M138.655802,110.561295 C138.655802,110.561295 137.350412,128.731962 137.303275,133.165486 C137.255377,137.59901 137.246254,145.845105 137.246254,145.845105 C137.542761,146.502629 138.695336,146.044724 138.695336,146.044724 C138.695336,146.044724 141.030138,131.865676 140.927501,131.076343 C140.825624,130.28701 142.588699,121.843581 142.588699,121.843581 C142.588699,121.843581 142.026097,130.153676 143.012172,131.417676 C143.998247,132.681676 152.647124,141.7712 153.365583,141.658438 C154.084042,141.5472 154.070357,140.628343 154.070357,140.628343 C154.070357,140.628343 147.082679,130.076724 146.549727,129.862629 C146.016014,129.647771 150.542686,114.132343 149.41748,111.580724 C148.291514,109.028343 143.61735,109.261486 143.61735,109.261486 L138.655802,110.561295 Z" id="Fill-224" fill="#1E41D3"></path>
                                    <path d="M138.521842,109.73981 C138.521842,109.73981 137.985088,112.03619 138.51804,112.50781 C139.050992,112.979429 140.592068,114.378286 145.197808,114.133714 C149.059239,113.928762 150.552417,113.552381 149.719157,110.864381 C148.938355,108.346286 138.521842,109.73981 138.521842,109.73981" id="Fill-226" fill="#1AC1F3"></path>
                                    <path d="M135.038951,67.7257143 C134.67706,67.5939048 134.129663,68.1988571 134.028547,68.6780952 C133.92743,69.1580952 133.40056,73.2434286 133.40056,73.2434286 L134.401081,73.3820952 C134.401081,73.3820952 136.445458,68.2369524 135.038951,67.7257143" id="Fill-228" fill="#FFEBD2"></path>
                                    <path d="M136.052396,69.785981 C136.404403,69.9711238 135.512601,71.769219 135.103574,72.0168381 C134.695307,72.2644571 134.331896,72.7025524 134.331896,72.7025524 C134.331896,72.7025524 135.642608,69.5711238 136.052396,69.785981" id="Fill-230" fill="#FFEBD2"></path>
                                    <path d="M133.203269,72.7577143 L134.722297,72.968 C134.722297,72.968 134.978509,81.3207619 135.436194,82.0887619 C135.893118,82.8567619 138.716776,87.6339048 140.628865,89.2026667 C142.03005,90.3531429 142.984954,90.6038095 142.984954,90.6038095 C142.984954,90.6038095 143.822776,92.6929524 142.452002,94.4765714 C141.081228,96.2609524 141.11468,94.9961905 141.11468,94.9961905 C141.11468,94.9961905 134.047934,86.4598095 133.470125,83.0860952 C132.963023,80.1260952 132.775235,73.8266667 133.203269,72.7577143" id="Fill-232" fill="#1AC1F3"></path>
                                    <path d="M145.280373,83.9600762 C145.280373,83.9600762 141.850017,84.737981 141.773229,86.1894095 C141.697202,87.6408381 142.765387,88.0530286 142.765387,88.0530286 L142.673394,91.265219 L143.762106,91.4153143 L146.13036,89.5402667 C146.13036,89.5402667 146.014038,86.4225524 145.986668,86.3661714 C145.959298,86.3097905 145.280373,83.9600762 145.280373,83.9600762" id="Fill-234" fill="#FFEBD2"></path>
                                    <path d="M142.694377,90.0345143 C142.694377,90.0345143 142.641918,91.3754667 144.347973,91.2413714 C146.054028,91.1065143 146.990686,90.6280381 146.990686,90.6280381 L149.100446,97.5278476 L148.067234,98.5183238 C148.067234,98.5183238 147.22409,100.810895 148.688377,103.9728 C149.36122,105.427276 151.601747,111.935467 147.472699,112.421562 C143.343651,112.907657 139.257939,113.083657 138.431521,110.27299 C137.605103,107.463086 138.583576,100.356038 139.504268,97.2413714 C139.790131,96.2737524 142.029138,90.0817524 142.694377,90.0345143" id="Fill-236" fill="#1E41D3"></path>
                                    <path d="M144.07686,82.7368381 C145.017318,81.4614095 148.179298,82.5814095 148.751024,84.1760762 C149.32275,85.769981 149.015599,87.3661714 149.309825,87.6534095 C149.604812,87.9414095 152.007277,89.6473143 152.328873,92.0358857 C152.650469,94.4236952 152.192784,98.0084571 150.013079,98.5174095 C147.832613,99.0263619 144.058613,97.4476952 143.585723,95.0035048 C143.113592,92.5600762 144.685079,89.1856 145.096387,87.8636952 C145.506935,86.5433143 145.43699,86.025981 145.291017,85.9353143 C145.145805,85.8446476 142.674154,84.6393143 144.07686,82.7368381" id="Fill-238" fill="#1A2982"></path>
                                    <path d="M162.455571,90.8893714 C162.541482,90.7735619 163.191516,90.6516571 163.414276,89.8013714 C163.636276,88.9510857 163.215084,88.7560381 162.282988,88.6272762 C161.351653,88.4985143 160.828584,88.4581333 160.679571,89.1423238 C160.515351,89.8958476 160.766242,90.3872762 160.766242,90.3872762 C160.766242,90.3872762 160.67805,90.5754667 160.532838,90.8825143 C161.002687,91.3008 161.50979,91.5468952 162.070112,91.7122286 C162.295913,91.2223238 162.439605,90.9107048 162.455571,90.8893714" id="Fill-240" fill="#FFEBD2"></path>
                                </g>
                            </g>
                        </g>
                    </g>
                </g>
            </g>
        </g>
    </g>
</svg>