<?xml version="1.0" encoding="UTF-8"?>
<svg width="219px" height="160px" viewBox="0 0 219 160" version="1.1" xmlns="http://www.w3.org/2000/svg" xmlns:xlink="http://www.w3.org/1999/xlink">
    <!-- Generator: sketchtool 55 (78076) - https://sketchapp.com -->
    <title>35D3C3B3-39A9-4089-8E32-BFD6A90AD7F4@1.5x</title>
    <desc>Created with sketchtool.</desc>
    <defs>
        <polygon id="path-1" points="0.0977868164 0.735498902 202.437063 0.735498902 202.437063 33.5238095 0.0977868164 33.5238095"></polygon>
        <polygon id="path-3" points="0.215558196 0 6.03768473 0 6.03768473 11.6185143 0.215558196 11.6185143"></polygon>
        <polygon id="path-5" points="0 160 218.419802 160 218.419802 0 0 0"></polygon>
    </defs>
    <g id="Japanese-0.0" stroke="none" stroke-width="1" fill="none" fill-rule="evenodd">
        <g id="Features" transform="translate(-76.000000, -1126.000000)">
            <g id="Stacked-Group-3" transform="translate(32.000000, 255.000000)">
                <g id="Stacked-Group-5" transform="translate(0.000000, 780.000000)">
                    <g id="Card-7">
                        <g id="Stacked-Group-9" transform="translate(24.000000, 35.000000)">
                            <g transform="translate(0.000000, 56.000000)" id="features_illustration_7">
                                <g transform="translate(20.000000, 0.000000)">
                                    <g id="Group-3" transform="translate(8.364583, 126.476190)">
                                        <mask id="mask-2" fill="white">
                                            <use xlink:href="#path-1"></use>
                                        </mask>
                                        <g id="Clip-2"></g>
                                        <path d="M202.43706,16.9860571 C202.449987,26.0397714 157.164894,33.4439619 101.290237,33.5232 C45.4163417,33.6032 0.110716667,26.3277714 0.0977895833,17.2732952 C0.0848625,8.21958095 45.3691958,0.815390476 101.244612,0.736152381 C157.118508,0.656152381 202.424133,7.93158095 202.43706,16.9860571" id="Fill-1" fill="#EBFAFF" mask="url(#mask-2)"></path>
                                    </g>
                                    <path d="M17.819224,109.358857 C30.9120781,98.168 48.141599,134.47581 47.3614115,137.192 C44.966099,134.530667 41.4453698,130.627429 36.288224,124.925333 C27.6293594,115.352 21.3977448,111.171429 17.819224,109.358857" id="Fill-4" fill="#76ABFF"></path>
                                    <path d="M35.8478667,125.402743 C40.8825854,130.968457 44.3546479,134.816838 46.7438771,137.472838 C41.7540229,137.654171 8.25995,123.604648 14.5584812,113.33341 C15.4375229,111.899505 16.3477417,110.754362 17.2815333,109.854552 C20.7779292,111.593219 27.0969917,115.728076 35.8478667,125.402743" id="Fill-6" fill="#4A75FF"></path>
                                    <path d="M46.7439531,137.472686 C44.3539635,134.817448 40.8826615,130.968305 35.8479427,125.40259 C27.0970677,115.727924 20.7780052,111.593067 17.2816094,109.8544 C17.4603073,109.681448 17.6397656,109.513067 17.819224,109.359162 C21.3977448,111.170971 27.6293594,115.352305 36.288224,124.924876 C41.4453698,130.627733 44.966099,134.530971 47.3614115,137.192305 C47.3507656,137.228114 47.3401198,137.263162 47.3233906,137.287543 C47.2427865,137.40259 47.041276,137.461257 46.7439531,137.472686" id="Fill-8" fill="#FFFFFF"></path>
                                    <path d="M39.2838854,136.454095 C30.7307187,133.35619 16.863,129.477333 11.972,128.134095 C17.5808333,114.798476 37.5242812,133.103238 39.2838854,136.454095" id="Fill-10" fill="#76ABFF"></path>
                                    <path d="M11.4848771,129.484571 C11.5761271,129.184381 11.6749812,128.90019 11.7776375,128.625143 C16.6602729,129.964571 30.7568771,133.905143 39.294075,137.016 C37.2470333,138.715048 7.70712708,141.910476 11.4848771,129.484571" id="Fill-12" fill="#4A75FF"></path>
                                    <path d="M39.4041833,136.879695 C39.3904958,136.923886 39.3509542,136.968838 39.2939229,137.016076 C30.756725,133.905219 16.6601208,129.964648 11.7774854,128.625219 C11.8406,128.456838 11.9052354,128.293029 11.9721521,128.13379 C16.8623917,129.477029 30.7308708,133.355886 39.2840375,136.45379 C39.3859333,136.647314 39.4300375,136.795124 39.4041833,136.879695" id="Fill-14" fill="#FFFFFF"></path>
                                    <path d="M45.1006167,75.0679619 C45.8526687,77.4458667 46.6784813,80.0043429 47.5506792,82.7045333 C48.3802938,85.2774857 49.2616167,88.0096762 50.1589083,90.835581 L62.6069292,77.7079619 C62.0016375,69.8809143 63.785575,61.6576762 63.5384396,56.2892952 C63.4890125,55.2081524 63.1605125,53.266819 62.4594083,51.0329143 L43.2801792,63.5830095 C43.3972833,67.4489143 43.929575,71.3673905 45.1006167,75.0679619" id="Fill-16" fill="#C0EDFF"></path>
                                    <path d="M46.1313615,37.6483048 C36.6352781,38.3926857 31.7389552,44.7043048 29.3504865,52.190781 L42.0471635,62.0391619 C42.024351,51.4022095 44.8850385,41.4669714 46.1313615,37.6483048" id="Fill-18" fill="#C0EDFF"></path>
                                    <path d="M46.3934771,83.0694095 C45.5212792,80.3669333 44.6947063,77.8061714 43.9411333,75.425981 C42.7328313,71.6042667 42.1876125,67.5638857 42.0712688,63.5844571 L28.9799354,53.4305524 C28.0020396,56.9322667 27.5290604,60.6313143 27.36405,64.097981 C27.0857375,69.9067429 28.9510396,76.3928381 31.2262063,82.5787429 C38.0920083,85.0069333 45.8041542,89.0671238 48.8526646,90.7318857 C48.0070813,88.0728381 47.1774667,85.4998857 46.3934771,83.0694095" id="Fill-20" fill="#C0EDFF"></path>
                                    <path d="M43.2589635,62.1564952 L62.0602656,49.8532571 C60.0466823,44.2517333 55.7579323,37.5058286 47.8290677,37.5698286 C47.6929531,37.5705905 47.5644427,37.5812571 47.429849,37.5850667 C46.302151,40.9534476 43.2095365,51.2033524 43.2589635,62.1564952" id="Fill-22" fill="#C0EDFF"></path>
                                    <path d="M59.0799646,122.214476 C61.5163396,118.117714 69.1250688,105.21181 72.8184125,97.7055238 C70.0466938,94.5253333 67.3426521,91.6049524 65.2598708,87.704 C63.8751521,85.1097143 63.1337458,82.2441905 62.7717875,79.2918095 L50.5769854,92.152 C53.5540167,101.56381 56.7059438,112.055238 59.0799646,122.214476" id="Fill-24" fill="#C0EDFF"></path>
                                    <path d="M84.0556219,118.617752 C81.6428198,108.769371 77.6491115,103.33699 73.678976,98.7008 C69.3856635,107.32861 60.6309865,121.988419 59.467549,123.930514 C60.7207156,129.480229 61.7237052,134.901181 62.3168302,139.962514 C73.0683615,139.9168 82.8473198,139.784229 83.3834135,139.801752 C84.5901948,139.839848 88.3322052,136.0768 84.0556219,118.617752" id="Fill-26" fill="#C0EDFF"></path>
                                    <path d="M49.3831312,92.3997714 C47.9603917,91.6066286 39.4148292,86.9033905 31.7779646,84.0584381 C34.4059646,90.9704381 37.3822354,97.3993905 38.2415062,101.92739 C39.3380271,107.709486 39.1228292,111.317105 38.0050167,114.75101 C43.9385479,119.208914 54.7646,122.17501 58.0138604,122.994057 C55.6269125,112.677867 52.4133917,101.976914 49.3831312,92.3997714" id="Fill-28" fill="#C0EDFF"></path>
                                    <path d="M37.58405,115.92579 C36.9681125,117.520457 36.1719563,119.12579 35.2229563,120.946743 C32.0079146,127.116648 32.8694667,138.044648 33.5857792,139.262933 C33.9713104,139.91741 48.0154458,140.012648 61.0930917,139.966933 C60.5075708,135.022171 59.5289146,129.729981 58.3084458,124.307505 C55.9640813,123.749029 44.2825604,120.790552 37.58405,115.92579" id="Fill-30" fill="#C0EDFF"></path>
                                    <path d="M50.1592125,90.8358095 C49.2611604,88.0099048 48.3805979,85.2777143 47.5502229,82.7047619 C46.6787854,80.0045714 45.8529729,77.4460952 45.1009208,75.0681905 C43.9298792,71.3668571 43.3968271,67.4491429 43.2804833,63.5824762 L42.6242437,64.0129524 L42.0714208,63.584 C42.1877646,67.5641905 42.7322229,71.6045714 43.9412854,75.4255238 C44.6940979,77.8057143 45.5206708,80.3672381 46.3936292,83.0697143 C47.1776187,85.5001905 48.0072333,88.0731429 48.8528167,90.7314286 C49.2261812,90.935619 49.5539208,91.1154286 49.7767229,91.239619 L50.1592125,90.8358095 Z" id="Fill-32" fill="#FFFFFF"></path>
                                    <path d="M42.0470875,62.0389333 L42.6835563,62.5326476 L43.2591917,62.1562667 C43.2090042,51.2031238 46.3023792,40.953219 47.4300771,37.5848381 C46.9890354,37.5955048 46.5548375,37.6153143 46.1312854,37.6480762 C44.8849625,41.4667429 42.024275,51.401981 42.0470875,62.0389333" id="Fill-34" fill="#FFFFFF"></path>
                                    <path d="M59.0799646,122.214476 C56.7059438,112.055238 53.5540167,101.56381 50.5769854,92.152 L50.0074333,92.7531429 L49.5914854,92.5161905 C49.5823604,92.511619 49.5086,92.4697143 49.3831313,92.399619 C52.4133917,101.976762 55.6269125,112.677714 58.0138604,122.993905 C58.2153708,123.045714 58.3978708,123.090667 58.5377875,123.12419 C58.6670583,122.90781 58.8533604,122.594667 59.0799646,122.214476" id="Fill-36" fill="#FFFFFF"></path>
                                    <path d="M59.3540188,124.12 L59.128175,124.496381 L58.6970187,124.398095 C58.6415083,124.385905 58.5084354,124.355429 58.3084458,124.307429 C59.5289146,129.729905 60.5075708,135.022857 61.0930917,139.966857 C61.5021958,139.965333 61.9097792,139.96381 62.3166021,139.962286 C61.7234771,134.900952 60.7204875,129.48 59.4673208,123.930286 C59.4156125,124.017143 59.37455,124.085714 59.3540188,124.12" id="Fill-38" fill="#FFFFFF"></path>
                                    <path d="M43.2805594,63.582781 L62.4597885,51.0326857 C62.3381219,50.6471619 62.2035281,50.2524952 62.0598094,49.8524952 L43.2592677,62.1564952 C43.261549,62.6311619 43.2661115,63.1065905 43.2805594,63.582781" id="Fill-40" fill="#FFFFFF"></path>
                                    <path d="M42.0470875,62.0389333 L29.3504104,52.1905524 C29.2196187,52.6004571 29.0956708,53.0141714 28.9793271,53.4301714 L42.0714208,63.5840762 C42.0562125,63.0682667 42.0478479,62.5524571 42.0470875,62.0389333" id="Fill-42" fill="#FFFFFF"></path>
                                    <path d="M43.2805594,63.582781 C43.2661115,63.1065905 43.261549,62.6311619 43.2592677,62.1564952 L42.6836323,62.5328762 L42.0471635,62.0391619 C42.047924,62.5519238 42.0562885,63.0677333 42.0714969,63.5843048 L42.6243198,64.0124952 L43.2805594,63.582781 Z" id="Fill-44" fill="#FFFFFF"></path>
                                    <path d="M50.5772896,92.152 L62.7720917,79.2918095 C62.7074562,78.7660952 62.6481437,78.2380952 62.6070813,77.7078095 L50.1590604,90.8354286 C50.2989771,91.2742857 50.4373729,91.7085714 50.5772896,92.152" id="Fill-46" fill="#FFFFFF"></path>
                                    <path d="M48.8529688,90.7316571 C45.8036979,89.0668952 38.0923125,85.0067048 31.22575,82.5792762 C31.40825,83.0737524 31.5915104,83.5674667 31.7778125,84.0581333 C39.4146771,86.9038476 47.9602396,91.6063238 49.3829792,92.3994667 C49.2058021,91.8387048 49.0293854,91.2855619 48.8529688,90.7316571" id="Fill-48" fill="#FFFFFF"></path>
                                    <path d="M50.0076615,92.753219 L50.5772135,92.1520762 C50.4372969,91.7086476 50.298901,91.2743619 50.1589844,90.8355048 L49.7764948,91.2400762 C49.5536927,91.1158857 49.2267135,90.9353143 48.8525885,90.7318857 C49.0297656,91.2850286 49.2054219,91.8389333 49.3833594,92.3996952 C49.5088281,92.4697905 49.5818281,92.5116952 49.5917135,92.5162667 L50.0076615,92.753219 Z" id="Fill-50" fill="#FFFFFF"></path>
                                    <path d="M58.0136323,122.994286 C54.7651323,122.175238 43.9383198,119.208381 38.005549,114.751238 C37.877799,115.142857 37.735601,115.534476 37.5842781,115.926095 C44.2820281,120.790095 55.9643094,123.748571 58.308674,124.30781 C58.2098198,123.869714 58.1155281,123.433905 58.0136323,122.994286" id="Fill-52" fill="#FFFFFF"></path>
                                    <path d="M59.467625,123.930286 C60.6310625,121.98819 69.3857396,107.328381 73.6790521,98.7013333 C73.392375,98.3645714 73.1056979,98.0346667 72.8190208,97.7055238 C69.1249167,105.21181 61.5161875,118.117714 59.0798125,122.214476 C59.2144063,122.788952 59.3383542,123.358095 59.467625,123.930286" id="Fill-54" fill="#FFFFFF"></path>
                                    <path d="M58.5378635,123.124495 C58.3971865,123.090971 58.2154469,123.045257 58.0139365,122.99421 C58.1150719,123.433829 58.2093635,123.8704 58.3082177,124.307733 C58.5082073,124.354971 58.6412802,124.385448 58.6967906,124.3984 L59.1279469,124.496686 L59.3537906,124.120305 C59.3750823,124.086019 59.4153844,124.017448 59.4678531,123.93059 C59.3385823,123.3584 59.2146344,122.789257 59.0800406,122.214781 C58.8534365,122.594971 58.6671344,122.908114 58.5378635,123.124495" id="Fill-56" fill="#FFFFFF"></path>
                                    <path d="M213.780196,102.305295 C197.190185,87.9662476 166.82979,134.406629 167.476144,137.8832 C171.297998,134.480533 176.914435,129.490819 185.138342,122.200152 C198.946748,109.961676 208.432185,104.619962 213.780196,102.305295" id="Fill-58" fill="#76ABFF"></path>
                                    <path d="M185.679682,122.811962 C177.650443,129.928152 172.113089,134.848533 168.299599,138.243581 C175.304557,138.482819 224.878401,120.550629 217.713755,107.396343 C216.713807,105.560152 215.621089,104.094248 214.45613,102.940724 C209.23587,105.160914 199.634849,110.443962 185.679682,122.811962" id="Fill-60" fill="#4A75FF"></path>
                                    <path d="M168.299295,138.243505 C172.113545,134.848457 177.650899,129.928076 185.679378,122.811886 C199.634545,110.443886 209.235566,105.160838 214.455826,102.940648 C214.232264,102.719695 214.007941,102.502552 213.780576,102.305219 C208.431805,104.619886 198.947128,109.9616 185.138722,122.200076 C176.914055,129.490743 171.297618,134.481219 167.476524,137.883124 C167.484889,137.9296 167.493253,137.974552 167.513784,138.00579 C167.607316,138.1536 167.881826,138.229029 168.299295,138.243505" id="Fill-62" fill="#FFFFFF"></path>
                                    <path d="M176.748513,133.608838 C189.210981,131.0496 209.145304,128.320457 216.168512,127.388648 C211.651637,109.992838 179.958992,129.713981 176.748513,133.608838" id="Fill-64" fill="#76ABFF"></path>
                                    <path d="M216.515871,129.13859 C216.461881,128.751543 216.394204,128.384305 216.318163,128.026971 C209.307881,128.956495 189.044298,131.726781 176.600079,134.304305 C179.002996,136.721829 218.739329,145.129448 216.515871,129.13859" id="Fill-66" fill="#4A75FF"></path>
                                    <path d="M176.482671,134.119238 C176.490275,134.175619 176.533619,134.238095 176.599775,134.304381 C189.044754,131.726857 209.307577,128.956571 216.318619,128.027048 C216.272233,127.809143 216.222806,127.59581 216.168056,127.388571 C209.145608,128.320381 189.210525,131.049524 176.748817,133.608762 C176.562515,133.834286 176.466702,134.009524 176.482671,134.119238" id="Fill-68" fill="#FFFFFF"></path>
                                    <path d="M180.723591,120.820876 C182.847434,111.959924 187.476851,98.2639238 189.134559,93.4479238 C171.838122,90.2425905 178.351851,117.406019 180.723591,120.820876" id="Fill-70" fill="#76ABFF"></path>
                                    <path d="M190.835535,93.8395429 C190.468254,93.7382095 190.112379,93.6528762 189.763348,93.5759238 C188.10716,98.382781 183.399421,112.303543 181.297629,121.159162 C184.332452,120.4704 206.049192,98.0185905 190.835535,93.8395429" id="Fill-72" fill="#4A75FF"></path>
                                    <path d="M181.08821,121.169829 C181.1422,121.185067 181.21444,121.178971 181.297325,121.159162 C183.399117,112.303543 188.106856,98.382781 189.763044,93.5759238 C189.550127,93.5294476 189.341013,93.486781 189.134179,93.4479238 C187.476471,98.2639238 182.847054,111.959924 180.723971,120.820876 C180.860085,121.018971 180.984033,121.141638 181.08821,121.169829" id="Fill-74" fill="#FFFFFF"></path>
                                    <path d="M162.080759,118.491276 C162.089124,118.491276 162.095968,118.490514 162.103572,118.490514 C167.846999,118.32061 172.515197,119.929752 175.975853,123.269943 C180.640249,127.773562 182.227999,134.482895 182.745843,139.253943 C181.381655,139.298895 179.914811,139.337752 178.372686,139.371276 C177.751426,136.164419 176.424499,132.421943 173.606395,129.701943 C170.940374,127.127467 167.37402,125.887848 163.006947,126.01661 C163.000864,126.017371 162.99478,126.017371 162.988697,126.017371 C155.558666,126.24061 150.272249,128.995657 147.274686,134.20861 C146.254968,135.9808 145.649676,137.823086 145.293801,139.491657 C142.713707,139.464229 140.266686,139.429181 138.018895,139.3888 C138.355759,136.081371 139.443155,131.357562 142.519041,127.235657 C146.650384,121.698895 153.231791,118.757181 162.080759,118.491276" id="Fill-76" fill="#C0EDFF"></path>
                                    <path d="M161.468852,100.574629 C193.984269,99.6161524 193.124237,136.438248 193.178988,138.2752 C193.188112,138.574629 191.39429,138.813105 188.397488,139.001295 C188.088758,132.9152 186.466029,121.932343 179.176675,114.896152 C174.520644,110.400914 168.279904,108.237105 160.629352,108.462629 C160.620227,108.46339 160.608821,108.46339 160.598935,108.46339 C147.535737,108.855771 138.248008,113.684724 132.992769,122.818438 C129.501696,128.885486 128.710862,135.405105 128.686529,139.124724 C126.508696,139.024914 125.213706,138.91139 125.14831,138.790248 C124.663165,137.890438 122.205498,101.732724 161.468852,100.574629" id="Fill-78" fill="#C0EDFF"></path>
                                    <path d="M176.82425,122.388648 C173.117219,118.809981 168.152458,117.086552 162.068365,117.2656 C162.06,117.2656 162.050875,117.266362 162.044031,117.266362 C151.666625,117.578743 144.287542,121.418743 140.109052,128.681981 C137.954031,132.428267 137.103125,136.387886 136.82101,139.364648 C134.129896,139.311314 131.773365,139.247314 129.895896,139.174933 C129.933917,135.318933 130.810677,127.590171 135.627156,121.006552 C140.87251,113.836267 149.287281,110.028267 160.6365,109.687695 C160.646385,109.687695 160.65551,109.686933 160.665396,109.686933 C167.975281,109.472076 173.917937,111.520838 178.329115,115.778362 C185.323427,122.530362 186.88,133.168076 187.175802,139.071314 C186.200948,139.122362 185.129521,139.168838 183.970646,139.211505 C183.439875,134.242362 181.779885,127.171124 176.82425,122.388648" id="Fill-80" fill="#C0EDFF"></path>
                                    <path d="M149.389861,133.233143 C152.293132,129.441905 156.881486,127.426667 163.026414,127.242286 C163.031736,127.242286 163.036299,127.241524 163.041622,127.241524 C167.068789,127.122667 170.33782,128.247238 172.758226,130.584 C175.300299,133.037333 176.535976,136.430095 177.134424,139.398476 C167.993455,139.580571 156.429799,139.598095 146.525372,139.503619 C146.983903,137.523429 147.833289,135.264381 149.389861,133.233143" id="Fill-82" fill="#6ED9F9"></path>
                                    <path d="M160.599316,108.46301 C160.609201,108.46301 160.619847,108.46301 160.629732,108.462248 C168.280284,108.236724 174.521024,110.401295 179.177055,114.895771 C186.466409,121.932724 188.088378,132.915581 188.397868,139.000914 C188.009295,139.024533 187.603993,139.048914 187.175878,139.07101 C186.880076,133.168533 185.323503,122.530057 178.32843,115.778819 C173.918014,111.521295 167.975357,109.471771 160.665472,109.686629 C160.655586,109.686629 160.646461,109.68739 160.636576,109.68739 C149.287357,110.028724 140.872586,113.836724 135.627232,121.006248 C130.810753,127.589867 129.933993,135.318629 129.895972,139.17539 C129.465576,139.158629 129.064836,139.141867 128.686149,139.124343 C128.710482,135.404724 129.501316,128.885867 132.992389,122.818819 C138.247628,113.685105 147.535357,108.856152 160.599316,108.46301" id="Fill-84" fill="#6ED9F9"></path>
                                    <path d="M175.976233,123.270324 C172.514817,119.929371 167.847379,118.32099 162.103952,118.490895 L162.085702,117.878324 L162.103952,118.490895 C162.095587,118.490895 162.088744,118.491657 162.08114,118.491657 C153.232171,118.7568 146.650765,121.698514 142.519421,127.235276 C139.443535,131.357181 138.355379,136.08099 138.019275,139.388419 C137.613212,139.381562 137.212473,139.373181 136.820858,139.3648 C137.102973,136.388038 137.953879,132.428419 140.1089,128.682133 C144.28739,121.418133 151.666473,117.578133 162.043879,117.266514 C162.051483,117.266514 162.059848,117.265752 162.068212,117.265752 C168.152306,117.086705 173.117067,118.810133 176.824098,122.3888 C181.779733,127.171276 183.439723,134.241752 183.971254,139.211657 C183.571275,139.226133 183.164452,139.24061 182.745462,139.254324 C182.228379,134.483276 180.640629,127.773181 175.976233,123.270324" id="Fill-86" fill="#6ED9F9"></path>
                                    <path d="M162.989001,126.017371 C162.995084,126.017371 163.001168,126.017371 163.006491,126.01661 L163.024741,126.629181 L163.006491,126.01661 C167.374324,125.887848 170.940678,127.127467 173.606699,129.701943 C176.424803,132.421943 177.75173,136.164419 178.37223,139.371276 C177.964647,139.381181 177.552501,139.389562 177.135032,139.397943 C176.535824,136.430324 175.300147,133.037562 172.758834,130.584229 C170.337668,128.247467 167.068636,127.122895 163.04147,127.24099 C163.036147,127.24099 163.032345,127.241752 163.026261,127.241752 C156.881334,127.426895 152.293741,129.442133 149.389709,133.233371 C147.833136,135.26461 146.983751,137.523657 146.52598,139.503848 C146.113074,139.500038 145.700928,139.495467 145.293345,139.492419 C145.64922,137.823086 146.255272,135.9808 147.274991,134.20861 C150.271793,128.995657 155.55897,126.24061 162.989001,126.017371" id="Fill-88" fill="#6ED9F9"></path>
                                    <path d="M107.20453,77.2926476 L106.318645,77.1395048 C106.340697,77.009219 108.480509,63.9486476 102.857228,42.9063619 C97.177676,21.6553143 100.047489,3.40693333 100.077145,3.2256 L100.965311,3.37112381 C100.935655,3.55017143 98.0985406,21.617981 103.725624,42.673219 C109.405936,63.9257905 107.227343,77.1608381 107.20453,77.2926476" id="Fill-90" fill="#94EBFF"></path>
                                    <g id="Group-94" transform="translate(97.333333, 0.000000)">
                                        <mask id="mask-4" fill="white">
                                            <use xlink:href="#path-3"></use>
                                        </mask>
                                        <g id="Clip-93"></g>
                                        <path d="M3.87995,0.00099047619 C9.44239792,-0.135390476 2.49371042,11.6185143 2.49371042,11.6185143 C2.49371042,11.6185143 -3.45883125,0.181561905 3.87995,0.00099047619" id="Fill-92" fill="#94EBFF" mask="url(#mask-4)"></path>
                                    </g>
                                    <path d="M106.520611,14.7755429 C108.906039,17.8277333 99.4776323,18.8235429 99.4776323,18.8235429 C99.4776323,18.8235429 103.373247,10.7496381 106.520611,14.7755429" id="Fill-95" fill="#94EBFF"></path>
                                    <path d="M92.9482385,14.7085714 C94.3025406,11.0773333 100.06802,18.6171429 100.06802,18.6171429 C100.06802,18.6171429 91.1612594,19.4986667 92.9482385,14.7085714" id="Fill-97" fill="#94EBFF"></path>
                                    <path d="M111.074215,26.6110476 C114.906715,30.8678095 101.10135,33.3081905 101.10135,33.3081905 C101.10135,33.3081905 106.018965,20.9958095 111.074215,26.6110476" id="Fill-99" fill="#94EBFF"></path>
                                    <path d="M113.963646,36.7405714 C118.025792,41.2525714 103.393094,43.8392381 103.393094,43.8392381 C103.393094,43.8392381 108.60499,30.7885714 113.963646,36.7405714" id="Fill-101" fill="#94EBFF"></path>
                                    <path d="M116.114941,49.1638857 C119.993066,53.4709333 106.023451,55.9417905 106.023451,55.9417905 C106.023451,55.9417905 110.998857,43.4816 116.114941,49.1638857" id="Fill-103" fill="#94EBFF"></path>
                                    <path d="M115.723554,60.9012571 C120.31419,64.4357333 107.019825,69.3942095 107.019825,69.3942095 C107.019825,69.3942095 109.666075,56.2391619 115.723554,60.9012571" id="Fill-105" fill="#94EBFF"></path>
                                    <path d="M92.1618156,29.2822095 C93.5419719,24.5926857 101.470076,33.5625905 101.470076,33.5625905 C101.470076,33.5625905 90.3406177,35.4704 92.1618156,29.2822095" id="Fill-107" fill="#94EBFF"></path>
                                    <path d="M93.574974,42.4347429 C93.337724,37.5509333 103.770641,43.4054095 103.770641,43.4054095 C103.770641,43.4054095 93.889026,48.8781714 93.574974,42.4347429" id="Fill-109" fill="#94EBFF"></path>
                                    <path d="M96.2750615,52.8967619 C96.9449885,48.0533333 106.114093,55.744 106.114093,55.744 C106.114093,55.744 95.3914573,59.287619 96.2750615,52.8967619" id="Fill-111" fill="#94EBFF"></path>
                                    <path d="M99.1132406,62.8536381 C101.472814,58.5732571 107.277834,69.0486857 107.277834,69.0486857 C107.277834,69.0486857 96.0000948,68.5008762 99.1132406,62.8536381" id="Fill-113" fill="#94EBFF"></path>
                                    <path d="M151.3436,108.8432 L150.497256,108.106438 C150.604475,107.982248 161.302777,95.4252952 168.857517,69.3277714 C176.486017,42.9704381 191.305777,25.3483429 191.454058,25.1738667 L192.308006,25.9030095 C192.161246,26.0752 177.493569,43.5258667 169.934267,69.6401524 C162.304246,95.9990095 151.4531,108.718248 151.3436,108.8432" id="Fill-115" fill="#1AC1F3"></path>
                                    <path d="M194.744533,22.4667429 C200.770075,25.9181714 185.779981,33.9707429 185.779981,33.9707429 C185.779981,33.9707429 186.793617,17.9120762 194.744533,22.4667429" id="Fill-117" fill="#1AC1F3"></path>
                                    <path d="M190.890438,41.6698667 C191.470635,46.4698667 180.76625,41.4352 180.76625,41.4352 C180.76625,41.4352 190.124698,35.3361524 190.890438,41.6698667" id="Fill-119" fill="#1AC1F3"></path>
                                    <path d="M176.447007,32.8194286 C180.232361,29.8190476 181.529632,41.5973333 181.529632,41.5973333 C181.529632,41.5973333 171.453351,36.7767619 176.447007,32.8194286" id="Fill-121" fill="#1AC1F3"></path>
                                    <path d="M188.126551,57.2487619 C189.474009,64.2704762 173.166114,57.9466667 173.166114,57.9466667 C173.166114,57.9466667 186.347176,47.9847619 188.126551,57.2487619" id="Fill-123" fill="#1AC1F3"></path>
                                    <path d="M184.684601,69.9295238 C186.114184,77.3725714 168.826872,70.6700952 168.826872,70.6700952 C168.826872,70.6700952 182.799528,60.1100952 184.684601,69.9295238" id="Fill-125" fill="#1AC1F3"></path>
                                    <path d="M178.977066,84.5820952 C180.342014,91.687619 163.838691,85.288381 163.838691,85.288381 C163.838691,85.288381 177.177159,75.2068571 178.977066,84.5820952" id="Fill-127" fill="#1AC1F3"></path>
                                    <path d="M170.997101,96.8573714 C173.620539,103.599467 156.234372,100.293562 156.234372,100.293562 C156.234372,100.293562 167.535684,87.9621333 170.997101,96.8573714" id="Fill-129" fill="#1AC1F3"></path>
                                    <path d="M166.217806,47.8678095 C170.712629,43.7542857 173.39614,58.4567619 173.39614,58.4567619 C173.39614,58.4567619 160.287317,53.295619 166.217806,47.8678095" id="Fill-131" fill="#1AC1F3"></path>
                                    <path d="M159.253758,62.8201905 C162.146383,57.4533333 169.510258,70.4514286 169.510258,70.4514286 C169.510258,70.4514286 155.436467,69.9013333 159.253758,62.8201905" id="Fill-133" fill="#1AC1F3"></path>
                                    <path d="M155.394492,75.7338667 C159.230033,70.9971048 164.062481,85.1380571 164.062481,85.1380571 C164.062481,85.1380571 150.334679,81.9837714 155.394492,75.7338667" id="Fill-135" fill="#1AC1F3"></path>
                                    <path d="M152.008965,88.1981714 C157.284735,85.1551238 156.733433,100.090743 156.733433,100.090743 C156.733433,100.090743 145.04811,92.2134095 152.008965,88.1981714" id="Fill-137" fill="#1AC1F3"></path>
                                    <path d="M184.667492,123.166857 C184.667492,123.181333 184.674335,123.166857 184.667492,123.166857" id="Fill-139" fill="#FFFFFF"></path>
                                    <path d="M184.666047,123.167619 L184.667568,123.166857 C184.667568,123.166095 184.666807,123.166095 184.666807,123.166095 L184.666807,123.164571 C184.666807,123.165333 184.666047,123.166095 184.666047,123.167619" id="Fill-141" fill="#FFFFFF"></path>
                                    <path d="M75.6762104,88.6497524 C75.6762104,90.7701333 74.2260958,92.4889905 73.1014396,92.4889905 C71.9775437,92.4889905 70.1084396,91.0101333 70.1084396,88.8889905 C70.1084396,86.7693714 71.9775437,84.8105143 73.1014396,84.8105143 C74.2260958,84.8105143 75.6762104,86.5293714 75.6762104,88.6497524" id="Fill-143" fill="#C8EAF8"></path>
                                    <path d="M73.3296406,128.583543 C73.9623073,130.607162 73.2467552,132.633067 71.7320052,133.107733 C70.2172552,133.583162 68.4766615,132.328305 67.8439948,130.304686 C67.2120885,128.281829 67.9276406,126.255162 69.4423906,125.779733 C70.9563802,125.305067 72.696974,126.560686 73.3296406,128.583543" id="Fill-145" fill="#C8EAF8"></path>
                                    <path d="M163.477569,77.3871238 L163.477569,77.3871238 C163.477569,77.3657905 163.476048,77.3436952 163.475288,77.3223619 C163.476048,77.3497905 163.477569,77.377219 163.477569,77.4046476 L163.477569,77.3871238 Z" id="Fill-147" fill="#203B70"></path>
                                    <path d="M68.4084521,82.0032 L159.778598,82.0032 C163.430119,82.0032 164.871108,77.2633905 161.840088,75.2245333 L121.781338,48.2698667 C121.14639,47.8492952 120.499275,47.482819 119.843796,47.1704381 C119.199723,46.8641524 118.547285,46.6096762 117.888004,46.4062476 C115.328442,45.6184381 112.682192,45.6184381 110.121108,46.4062476 C109.463348,46.6096762 108.81091,46.8641524 108.166077,47.1704381 C107.510598,47.482819 106.862723,47.8485333 106.227775,48.2698667 L66.2929729,75.0180571 C63.1638583,77.1140571 64.64515,82.0032 68.4084521,82.0032" id="Fill-149" fill="#1E41D3"></path>
                                    <mask id="mask-6" fill="white">
                                        <use xlink:href="#path-5"></use>
                                    </mask>
                                    <g id="Clip-152"></g>
                                    <polygon id="Fill-151" fill="#1E41D3" mask="url(#mask-6)" points="64.532 115.37981 163.374 115.37981 163.374 78.0007619 64.532 78.0007619"></polygon>
                                    <polygon id="Fill-153" fill="#EEFDFF" mask="url(#mask-6)" points="154.008024 136.126705 74.0007844 136.126705 74.0007844 50.4337524 136.418826 50.4337524 154.008024 69.6223238"></polygon>
                                    <polygon id="Fill-154" fill="#A4E2FF" mask="url(#mask-6)" points="136.418978 50.433981 154.008176 69.6225524 136.418978 69.6225524"></polygon>
                                    <polygon id="Fill-155" fill="#A4E2FF" mask="url(#mask-6)" points="87.2030625 69.4575238 125.754667 69.4575238 125.754667 66.6986667 87.2030625 66.6986667"></polygon>
                                    <polygon id="Fill-156" fill="#A4E2FF" mask="url(#mask-6)" points="87.2023021 78.5401905 142.277 78.5401905 142.277 75.7805714 87.2023021 75.7805714"></polygon>
                                    <polygon id="Fill-157" fill="#A4E2FF" mask="url(#mask-6)" points="87.2023021 87.6220952 142.277 87.6220952 142.277 84.8632381 87.2023021 84.8632381"></polygon>
                                    <path d="M159.675485,140.269562 L120.872183,109.770514 C118.724006,107.765943 116.437433,106.333562 114.161506,106.333562 C111.821704,106.333562 110.241558,107.279086 107.267569,109.667657 L68.3342354,140.269562 C67.9190479,140.596419 67.4818083,140.735848 67.0582563,140.722895 C67.0651,140.723657 67.0711833,140.725181 67.0780271,140.725181 L160.931694,140.725181 C160.938537,140.725181 160.94386,140.723657 160.950704,140.722895 C160.527152,140.735848 160.090673,140.595657 159.675485,140.269562" id="Fill-158" fill="#4A75FF" mask="url(#mask-6)"></path>
                                    <path d="M106.385485,109.122971 L105.515569,108.511924 L66.0278917,80.7709714 C65.1199542,80.1698286 64.5321521,79.2563048 64.5321521,77.9564952 C64.5321521,77.9633524 64.5313917,78.6216381 64.5313917,78.6284952 L64.5313917,136.969067 C64.5313917,139.122971 65.7298083,140.68259 67.0582562,140.722971 C67.4818083,140.735924 67.9190479,140.596495 68.3342354,140.269638 L107.267569,109.667733 C106.971767,109.497067 106.677485,109.315733 106.385485,109.122971" id="Fill-159" fill="#5F8DFF" mask="url(#mask-6)"></path>
                                    <path d="M163.477569,78.1802667 C163.473006,79.6301714 162.571913,80.2869333 161.981829,80.7707429 L122.639392,108.626743 L121.938288,109.122743 C121.586215,109.355886 121.23034,109.569981 120.872183,109.770362 L159.675485,140.26941 C160.090673,140.595505 160.527152,140.735695 160.950704,140.722743 C162.279152,140.682362 163.477569,139.122743 163.477569,136.968838 L163.477569,78.1802667 Z" id="Fill-160" fill="#5F8DFF" mask="url(#mask-6)"></path>
                                    <path d="M119.016234,147.352152 L166.569651,147.352152 C166.908036,147.352152 167.022859,146.713676 166.724776,146.485867 L142.948068,128.344152 C142.851495,128.269486 142.734391,128.269486 142.637818,128.344152 L118.86187,146.485867 C118.563026,146.713676 118.677849,147.352152 119.016234,147.352152" id="Fill-161" fill="#1E41D3" mask="url(#mask-6)"></path>
                                    <path d="M117.72634,116.216762 L117.72634,145.504381 C117.72634,146.901714 118.783319,147.791619 119.653235,147.128 L140.481048,131.235429 C141.430808,130.510857 141.383662,128.564952 140.401204,127.933333 L119.574152,114.537524 C118.708798,113.980571 117.72634,114.874286 117.72634,116.216762" id="Fill-162" fill="#2352E5" mask="url(#mask-6)"></path>
                                    <path d="M167.860382,145.504686 L167.860382,116.217067 C167.860382,114.87459 166.877924,113.980876 166.01257,114.537067 L145.184757,127.933638 C144.203059,128.565257 144.155914,130.5104 145.104914,131.234971 L165.933486,147.128305 C166.803403,147.791924 167.860382,146.902019 167.860382,145.504686" id="Fill-163" fill="#2352E5" mask="url(#mask-6)"></path>
                                    <path d="M117.72634,116.198171 L117.72634,116.198171 C117.72634,116.914362 118.022902,117.565029 118.484475,117.862171 L138.93284,131.807314 C140.184485,132.612648 141.528902,133.014933 142.872558,133.014933 C144.216975,133.014933 145.561392,132.612648 146.813037,131.807314 L167.102475,117.862171 C167.563288,117.565029 167.85985,116.914362 167.85985,116.198171 C167.85985,115.188648 167.280412,114.3696 166.565621,114.3696 L119.020569,114.3696 C118.306537,114.3696 117.72634,115.188648 117.72634,116.198171" id="Fill-164" fill="#103AC1" mask="url(#mask-6)"></path>
                                    <path d="M117.72634,115.178057 L117.72634,115.178057 C117.72634,115.894248 118.022902,116.544914 118.484475,116.842057 L138.852996,129.942248 C141.356287,131.552152 144.229902,131.552152 146.733194,129.942248 L167.102475,116.842057 C167.563287,116.544914 167.86061,115.894248 167.86061,115.178057 C167.86061,114.168533 167.280412,113.349486 166.565621,113.349486 L119.020569,113.349486 C118.306537,113.349486 117.72634,114.168533 117.72634,115.178057" id="Fill-165" fill="#2352E5" mask="url(#mask-6)"></path>
                                    <path d="M148.575227,22.2807619 C148.010237,22.8697143 147.355519,23.2971429 146.635404,23.5295238 C145.895519,23.7672381 145.090998,23.7984762 144.264425,23.6354286 L134.925748,37.0632381 C134.825373,37.2072381 134.699144,37.2940952 134.561508,37.3329524 C134.56531,37.3321905 134.568352,37.3337143 134.571394,37.3321905 L164.369842,27.7253333 C164.372123,27.7245714 164.374404,27.7215238 164.377446,27.7207619 C164.243612,27.7687619 164.090769,27.7718095 163.925758,27.7139048 L148.575227,22.2807619 Z" id="Fill-166" fill="#4280FC" mask="url(#mask-6)"></path>
                                    <path d="M144.264425,23.6356571 C144.151123,23.6128 144.037821,23.5983238 143.923758,23.5686095 L128.30404,18.9606095 C127.956529,18.868419 127.641717,18.5225143 127.496477,18.0768 C127.497237,18.0790857 127.497237,18.0806095 127.497237,18.0828952 L133.391227,36.4356571 C133.604144,37.0969905 134.137196,37.4535619 134.561508,37.333181 C134.699144,37.2943238 134.825373,37.2067048 134.925748,37.0634667 L144.264425,23.6356571 Z" id="Fill-167" fill="#4D8DFF" mask="url(#mask-6)"></path>
                                    <path d="M158.76808,9.13859048 L148.861372,21.9766857 C148.770882,22.0864 148.671268,22.1808762 148.575455,22.2806857 L163.925226,27.7138286 C164.090997,27.7717333 164.243841,27.7686857 164.377674,27.7206857 C164.793622,27.5690667 165.018705,26.9686857 164.805789,26.3065905 L158.911799,7.95459048 L158.910278,7.95001905 C159.050955,8.39725714 158.996205,8.86125714 158.76808,9.13859048" id="Fill-168" fill="#4D8DFF" mask="url(#mask-6)"></path>
                                    <path d="M158.563072,8.49950476 L148.435843,20.8233143 C147.191041,22.337981 145.390374,22.9185524 143.497697,22.4156952 L128.098499,18.321981 C127.837676,18.2526476 127.594343,18.0393143 127.428572,17.7490286 C127.430093,17.761981 127.430093,17.7749333 127.432374,17.7871238 C127.444541,17.8808381 127.463551,17.9760762 127.493968,18.0713143 C127.494728,18.0728381 127.496249,18.0743619 127.497009,18.0766476 C127.641489,18.5223619 127.956301,18.8682667 128.303811,18.9604571 L143.92353,23.5684571 C144.037593,23.5981714 144.150895,23.6126476 144.264197,23.6355048 C145.09077,23.7985524 145.895291,23.7673143 146.635176,23.5296 C147.355291,23.297219 148.010009,22.8697905 148.574999,22.2808381 C148.670811,22.1810286 148.770426,22.0865524 148.860916,21.9760762 L158.768384,9.13874286 C158.995749,8.86140952 159.051259,8.39740952 158.909822,7.95017143 C158.909061,7.94788571 158.909061,7.9456 158.908301,7.94331429 C158.877124,7.84807619 158.837582,7.75969524 158.793478,7.67664762 C158.787395,7.66445714 158.780551,7.65455238 158.773707,7.64312381 C158.807926,7.97607619 158.734926,8.29150476 158.563072,8.49950476" id="Fill-169" fill="#386FF9" mask="url(#mask-6)"></path>
                                    <path d="M157.524191,6.41988571 L127.731826,16.0244571 C127.28318,16.169219 127.085472,16.7993143 127.288503,17.4316952 C127.325003,17.545219 127.372149,17.6511238 127.427659,17.7486476 C127.42918,17.7616 127.429941,17.7737905 127.432222,17.7875048 C127.429941,17.7745524 127.429941,17.7623619 127.42842,17.7486476 C127.594951,18.0396952 127.837524,18.2522667 128.099107,18.3216 L143.498305,22.4153143 C145.390222,22.9181714 147.190889,22.3383619 148.435691,20.8229333 L158.56292,8.49912381 C158.734774,8.29112381 158.807774,7.97645714 158.774316,7.64274286 C158.780399,7.65417143 158.787243,7.6648381 158.793326,7.67626667 C158.787243,7.6648381 158.780399,7.65417143 158.774316,7.64198095 C158.762909,7.53074286 158.739336,7.41721905 158.702836,7.30369524 C158.499805,6.67131429 157.972076,6.27588571 157.524191,6.41988571" id="Fill-170" fill="#4D8DFF" mask="url(#mask-6)"></path>
                                    <path d="M205.401469,74.3320381 C205.053198,74.7061333 204.647896,74.980419 204.19925,75.1328 C203.737677,75.2889905 203.234281,75.316419 202.716438,75.2227048 L197.001146,83.7217524 C196.939552,83.813181 196.86199,83.8695619 196.776062,83.8947048 L196.782146,83.8947048 L215.343917,77.5846095 C215.345438,77.5838476 215.346958,77.5815619 215.34924,77.5808 C215.265594,77.6128 215.169781,77.6166095 215.065604,77.5815619 L205.401469,74.3320381 Z" id="Fill-171" fill="#6ED9F9" mask="url(#mask-6)"></path>
                                    <path d="M202.716285,75.2227048 C202.644046,75.2089905 202.574087,75.2021333 202.501848,75.1838476 L192.676504,72.4539429 C192.458265,72.3998476 192.257515,72.1865143 192.162463,71.9076571 C192.162463,71.909181 192.162463,71.9107048 192.163223,71.9122286 L196.034504,83.3438476 C196.17366,83.7568 196.511285,83.9739429 196.77591,83.8947048 C196.861837,83.8695619 196.9394,83.813181 197.000994,83.7217524 L202.716285,75.2227048 Z" id="Fill-172" fill="#94EBFF" mask="url(#mask-6)"></path>
                                    <path d="M211.653386,66.0024381 L205.577657,74.1380571 C205.522147,74.2081524 205.460553,74.2683429 205.401241,74.3323429 L215.065376,77.5811048 C215.169553,77.6161524 215.265366,77.6123429 215.349011,77.5803429 C215.607553,77.4820571 215.742907,77.1041524 215.602991,76.6919619 L211.73247,65.259581 L211.730949,65.2565333 C211.82372,65.5353905 211.794064,65.8264381 211.653386,66.0024381" id="Fill-173" fill="#94EBFF" mask="url(#mask-6)"></path>
                                    <path d="M211.519021,65.604419 L205.299573,73.4208 C204.535354,74.3815619 203.41374,74.7632762 202.223687,74.4661333 L192.542062,72.0562286 C192.377812,72.0150857 192.223448,71.8840381 192.116229,71.7042286 C192.11699,71.7118476 192.11775,71.7194667 192.11851,71.7278476 C192.128396,71.7857524 192.140562,71.845181 192.161094,71.9053714 C192.161094,71.9061333 192.161854,71.9068952 192.162615,71.9076571 C192.257667,72.1865143 192.458417,72.3998476 192.676656,72.4539429 L202.502,75.1838476 C202.573479,75.2021333 202.644198,75.2089905 202.716437,75.2227048 C203.234281,75.316419 203.738437,75.2889905 204.19925,75.1328 C204.647896,74.980419 205.053198,74.7061333 205.401469,74.3320381 C205.460781,74.2680381 205.521615,74.2078476 205.577885,74.1377524 L211.653615,66.0021333 C211.793531,65.8261333 211.823187,65.5350857 211.730417,65.2569905 C211.730417,65.2554667 211.729656,65.2539429 211.728896,65.252419 C211.709125,65.1929905 211.684031,65.1388952 211.655135,65.0863238 C211.651333,65.0794667 211.646771,65.0733714 211.642969,65.0657524 C211.667302,65.2737524 211.624719,65.4718476 211.519021,65.604419" id="Fill-174" fill="#42CBEA" mask="url(#mask-6)"></path>
                                    <path d="M210.847649,64.312 L192.28968,70.6213333 C192.010607,70.7158095 191.891982,71.1127619 192.025816,71.5066667 C192.049389,71.5767619 192.079805,71.6430476 192.116305,71.7032381 L192.118586,71.727619 C192.117826,71.72 192.117066,71.711619 192.116305,71.704 C192.223524,71.8838095 192.377889,72.0148571 192.542139,72.056 L202.223764,74.4659048 C203.413816,74.7630476 204.53543,74.3813333 205.299649,73.4205714 L211.519097,65.6041905 C211.624034,65.471619 211.667378,65.2742857 211.643045,65.0655238 C211.646847,65.0731429 211.651409,65.0792381 211.655211,65.0868571 C211.651409,65.0792381 211.646847,65.072381 211.642284,65.0655238 C211.63392,64.9954286 211.618711,64.9245714 211.594378,64.8544762 C211.461305,64.4598095 211.126722,64.2175238 210.847649,64.312" id="Fill-175" fill="#94EBFF" mask="url(#mask-6)"></path>
                                    <path d="M69.5861854,25.9719619 C69.0021854,25.9178667 68.4683729,25.7403429 68.015925,25.4393905 C67.5497896,25.1292952 67.1711021,24.6896762 66.8927896,24.1510095 L55.167925,24.9144381 C55.0424563,24.922819 54.9367583,24.8900571 54.8538729,24.8306286 C54.8553938,24.8321524 54.8561542,24.8344381 54.8584354,24.8359619 L73.6171542,37.3121524 C73.618675,37.3129143 73.6217167,37.3129143 73.6239979,37.3144381 C73.5357896,37.2603429 73.4658313,37.1757714 73.4240083,37.0561524 L69.5861854,25.9719619 Z" id="Fill-176" fill="#1AC1F3" mask="url(#mask-6)"></path>
                                    <path d="M66.8927896,24.1512381 C66.8540083,24.0773333 66.811425,24.008 66.7772063,23.9287619 L62.3553833,13.0632381 C62.2512063,12.8262857 62.303675,12.4933333 62.4892167,12.2114286 C62.4884563,12.2129524 62.4869354,12.2144762 62.486175,12.2152381 L54.8325813,23.7687619 C54.5557896,24.1855238 54.5953313,24.6449524 54.8538729,24.8308571 C54.9367583,24.8902857 55.0424563,24.9230476 55.167925,24.9146667 L66.8927896,24.1512381 Z" id="Fill-177" fill="#6ED9F9" mask="url(#mask-6)"></path>
                                    <path d="M81.5330156,25.8186667 L69.8857135,25.9961905 C69.7830573,25.9946667 69.685724,25.9817143 69.5861094,25.9718095 L73.4239323,37.056 C73.4657552,37.175619 73.5357135,37.2609524 73.6239219,37.3142857 C73.8938698,37.4811429 74.3318698,37.3379048 74.6086615,36.9211429 L82.2622552,25.367619 C82.2630156,25.3668571 82.2630156,25.3660952 82.263776,25.3653333 C82.0767135,25.6449524 81.7915573,25.8224762 81.5330156,25.8186667" id="Fill-178" fill="#6ED9F9" mask="url(#mask-6)"></path>
                                    <path d="M81.7996177,25.4161524 L70.3416594,25.2401524 C68.9333677,25.2180571 67.7995865,24.4637714 67.233076,23.1723429 L62.6219094,12.6611048 C62.5435865,12.482819 62.5534719,12.2512 62.6424406,12.0264381 C62.6355969,12.0332952 62.6287531,12.0386286 62.6219094,12.0454857 C62.5762844,12.0957714 62.5306594,12.1483429 62.4911177,12.2077714 C62.4903573,12.2092952 62.4895969,12.210819 62.4888365,12.211581 C62.3032948,12.4934857 62.250826,12.8264381 62.3557635,13.0633905 L66.776826,23.9289143 C66.8110448,24.0073905 66.8543885,24.0774857 66.8924094,24.1513905 C67.1714823,24.6900571 67.5501698,25.1289143 68.0155448,25.4390095 C68.4687531,25.7407238 69.0025656,25.9174857 69.5858052,25.971581 C69.6854198,25.9814857 69.7827531,25.9952 69.8854094,25.9967238 L81.5327115,25.8184381 C81.7912531,25.8222476 82.0764094,25.6454857 82.2634719,25.3658667 C82.2642323,25.3643429 82.2657531,25.362819 82.2665135,25.3612952 C82.3068156,25.3011048 82.3379927,25.2393905 82.3653677,25.1769143 C82.3691698,25.1685333 82.371451,25.1593905 82.3752531,25.1502476 C82.203399,25.3193905 81.9942844,25.4192 81.7996177,25.4161524" id="Fill-179" fill="#19A6DD" mask="url(#mask-6)"></path>
                                    <path d="M82.5006458,23.8975238 L63.7464896,11.424381 C63.464375,11.2369524 63.0218125,11.4068571 62.7579479,11.8060952 C62.7108021,11.8769524 62.6720208,11.9508571 62.6423646,12.0262857 C62.6355208,12.0331429 62.6286771,12.0392381 62.6218333,12.0453333 C62.6286771,12.0392381 62.6355208,12.0331429 62.6423646,12.0262857 C62.5541562,12.2510476 62.5435104,12.4834286 62.6218333,12.6609524 L67.233,23.1721905 C67.7995104,24.463619 68.9332917,25.2179048 70.3415833,25.24 L81.7995417,25.416 C81.9942083,25.4190476 82.2033229,25.3192381 82.3751771,25.1508571 C82.371375,25.1592381 82.3690937,25.168381 82.3652917,25.1767619 C82.3690937,25.167619 82.3721354,25.1592381 82.3759375,25.1508571 C82.4329687,25.0937143 82.4861979,25.0289524 82.5333438,24.9588571 C82.7979687,24.559619 82.7827604,24.0849524 82.5006458,23.8975238" id="Fill-180" fill="#6ED9F9" mask="url(#mask-6)"></path>
                                    <path d="M20.0462562,76.966019 C19.7808708,77.6677333 19.3831729,78.2643048 18.8592458,78.7214476 C18.3208708,79.190019 17.6539854,79.5077333 16.8981312,79.6684952 L13.8633083,94.3755429 C13.8306104,94.5332571 13.7553292,94.6521143 13.6541937,94.7344 C13.656475,94.7321143 13.6595167,94.7321143 13.6617979,94.7298286 L35.3306313,75.8406857 C35.3329125,75.8391619 35.3336729,75.8361143 35.3351938,75.8338286 C35.2401417,75.9229714 35.1116312,75.9808762 34.9519437,75.9915429 L20.0462562,76.966019 Z" id="Fill-181" fill="#85B7FF" mask="url(#mask-6)"></path>
                                    <path d="M16.8983594,79.6683429 C16.7941823,79.6904381 16.6938073,79.7193905 16.5865885,79.7361524 L1.75085937,81.5037714 C1.42464062,81.5517714 1.03454687,81.3734857 0.751671875,81.0496762 C0.752432292,81.0512 0.753192708,81.0527238 0.754713542,81.0542476 L12.3434635,94.4005333 C12.7616927,94.8820571 13.3380885,94.9894857 13.6536615,94.7342476 C13.7547969,94.6519619 13.8308385,94.5331048 13.8635365,94.3753905 L16.8983594,79.6683429 Z" id="Fill-182" fill="#A1CCFF" mask="url(#mask-6)"></path>
                                    <path d="M23.9047625,62.1921524 L20.1779604,76.6058667 C20.1407,76.730819 20.0905125,76.8466286 20.0464083,76.9662476 L34.9513354,75.9910095 C35.1117833,75.9811048 35.2402938,75.9224381 35.3353458,75.8332952 C35.6319083,75.5559619 35.6052938,74.9685333 35.1870646,74.4870095 L23.599075,61.1407238 C23.5983146,61.1399619 23.5967938,61.1392 23.5960333,61.1376762 C23.8758667,61.4637714 23.9967729,61.8752 23.9047625,62.1921524" id="Fill-183" fill="#A1CCFF" mask="url(#mask-6)"></path>
                                    <path d="M23.5007531,61.7271619 L19.4028677,75.7873524 C18.8987115,77.5153524 17.5900344,78.6566857 15.8121802,78.9172571 L1.34753438,81.0391619 C1.10191979,81.0749714 0.820565625,80.9835429 0.575711458,80.7984 C0.581034375,80.8090667 0.586357292,80.8197333 0.592440625,80.8296381 C0.637305208,80.9043048 0.686732292,80.9774476 0.746805208,81.046019 C0.748326042,81.0475429 0.749846875,81.0483048 0.751367708,81.0498286 C1.03424271,81.3736381 1.42509687,81.5519238 1.75055521,81.5039238 L16.5862844,79.7363048 C16.6942635,79.7195429 16.7946385,79.6905905 16.8980552,79.6684952 C17.6546698,79.5077333 18.3207948,79.190019 18.8591698,78.7214476 C19.3830969,78.2643048 19.7807948,77.6677333 20.0461802,76.966019 C20.0910448,76.8471619 20.1404719,76.7305905 20.1777323,76.6056381 L23.9045344,62.1919238 C23.9965448,61.8749714 23.8756385,61.4635429 23.5958052,61.1382095 C23.5942844,61.1366857 23.5927635,61.1344 23.5912427,61.1328762 C23.5311698,61.0635429 23.465774,61.0033524 23.3980969,60.9492571 C23.3897323,60.9416381 23.3798469,60.9355429 23.3699615,60.9279238 C23.5190031,61.1968762 23.5707115,61.4886857 23.5007531,61.7271619" id="Fill-184" fill="#76ABFF" mask="url(#mask-6)"></path>
                                    <path d="M21.874526,60.348419 L0.210255208,79.2345143 C-0.115963542,79.5179429 -0.055890625,80.1213714 0.344088542,80.5815619 C0.414807292,80.6638476 0.493130208,80.7362286 0.575255208,80.7987048 C0.581338542,80.8086095 0.586661458,80.8192762 0.592744792,80.8299429 C0.586661458,80.8192762 0.581338542,80.8086095 0.575255208,80.7987048 C0.820869792,80.9838476 1.10222396,81.0745143 1.34783854,81.0387048 L15.811724,78.9175619 C17.5895781,78.6562286 18.8990156,77.5148952 19.4031719,75.7876571 L23.5010573,61.7274667 C23.5702552,61.4882286 23.5193073,61.196419 23.3702656,60.9282286 C23.3793906,60.9358476 23.389276,60.941181 23.398401,60.9488 C23.389276,60.941181 23.3793906,60.9350857 23.3702656,60.9274667 C23.3200781,60.8375619 23.2592448,60.749181 23.188526,60.6676571 C22.7885469,60.2074667 22.2007448,60.0649905 21.874526,60.348419" id="Fill-185" fill="#A1CCFF" mask="url(#mask-6)"></path>
                                    <path d="M76.1053896,83.0798476 C75.8514104,82.9373714 74.1564417,85.3183238 74.1564417,85.3183238 L73.943525,84.7941333 C73.6477229,83.6512762 72.9694313,84.365181 72.9694313,84.365181 C72.9694313,84.365181 73.6895458,86.1274667 73.7747125,86.6988952 C73.8112125,86.9488 73.8241396,87.3449905 73.8271813,87.7107048 C73.888775,87.613181 73.9427646,87.5560381 73.9861083,87.5560381 L75.4058062,88.4474667 C76.0133792,87.6939429 76.8604833,86.5358476 77.1228271,85.6512762 C77.5471396,84.2227048 76.3601292,83.2223238 76.1053896,83.0798476" id="Fill-186" fill="#F9C4C8" mask="url(#mask-6)"></path>
                                    <path d="M73.8271812,87.710781 C73.1671396,88.7545905 71.5847125,94.8528762 71.5847125,94.8528762 C70.1855458,91.9957333 65.2314312,86.7972571 65.2314312,86.7972571 L65.274775,87.0174476 C65.2778167,87.0212571 67.7552542,90.1275429 68.1506708,95.4753524 C68.1993375,96.1336381 66.8381917,97.1233524 66.8678479,97.7953524 C68.2137854,99.2871619 71.6349,101.199543 71.7398375,101.271162 C75.5571292,103.885257 75.4270979,88.4604952 75.4270979,88.4604952 L75.4058062,88.4475429 L73.9861083,87.5561143 C73.9427646,87.5561143 73.888775,87.6132571 73.8271812,87.710781" id="Fill-187" fill="#1AC1F3" mask="url(#mask-6)"></path>
                                    <path d="M48.627201,95.0731429 C48.9131177,92.4217143 48.7701594,91.3459048 49.9145865,89.4822857 C51.720576,86.5420952 51.8460448,87.6910476 52.5615969,87.7619048 C52.903024,87.7961905 53.4893052,88.0255238 54.093076,88.1862857 L55.6519302,88.272381 C54.3523781,88.7539048 53.3912115,93.088381 54.1409823,94.3180952 C54.4253781,94.784381 52.8467531,94.0666667 53.7159094,95.6087619 C53.8984094,98.0285714 54.1227323,100.701333 54.3645448,102.940571 C54.1919302,103.797714 54.0573365,104.359238 53.992701,104.390476 C53.7067844,104.534476 52.1319615,104.96419 52.5615969,105.537905 C52.9904719,106.110857 52.9904719,106.899429 54.2786177,106.398095 C54.4413469,106.334857 54.600274,106.193905 54.7569198,105.995048 C54.7888573,106.194667 54.8215552,106.386667 54.8534927,106.559619 C54.9584302,107.123429 55.193399,108.00419 55.4595448,108.930667 C54.1288156,109.207238 51.9988885,111.787048 50.5639823,108.529143 C50.9327844,108.327238 50.7730969,108.046095 50.7730969,108.046095 C50.7730969,108.046095 49.5571906,104.96419 49.5571906,104.104762 C49.5571906,103.244571 48.9845969,100.377524 48.9845969,100.377524 C48.9496177,100.388952 48.906274,100.403429 48.8614094,100.420952 C48.709326,99.3573333 48.581576,98.3409524 48.4796802,97.4099048 C48.623399,97.1813333 48.4644719,96.5771429 48.627201,95.0731429" id="Fill-188" fill="#1E41D3" mask="url(#mask-6)"></path>
                                    <path d="M61.3003052,146.772571 L61.4797635,147.348571 C61.4797635,147.348571 62.6743781,149.806476 62.4082323,150.138667 C62.1428469,150.470857 59.4243573,150.405333 59.093576,149.93981 C58.761274,149.474286 59.4905135,147.946667 59.4905135,147.946667 L59.6327115,146.776381 C60.084399,146.807619 60.8105969,146.790095 61.3003052,146.772571" id="Fill-189" fill="#1A2982" mask="url(#mask-6)"></path>
                                    <path d="M76.6661208,146.992762 C76.2745063,147.113905 75.998475,147.197714 75.998475,147.197714 L64.5876625,121.844571 L64.5967875,121.761524 L66.3586729,113.422476 C67.3069125,113.294476 68.1350063,113.153524 68.61635,113.008762 C69.0475062,112.879238 69.3615583,112.757333 69.5934854,112.638476 L79.2051521,146.126476 C78.9899542,146.234667 78.4249646,146.429714 77.8295583,146.624 L76.6661208,146.992762 Z" id="Fill-190" fill="#0B33B2" mask="url(#mask-6)"></path>
                                    <path d="M77.8297104,146.623695 L78.2570646,147.480838 C78.2570646,147.480838 83.1647938,146.883505 83.3632625,147.81379 C83.5624917,148.743314 83.4301792,149.806933 81.1747833,149.6736 C78.9209083,149.541029 76.6662729,148.876648 76.6662729,148.876648 L76.6662729,146.992457 L77.8297104,146.623695 Z" id="Fill-191" fill="#1A2982" mask="url(#mask-6)"></path>
                                    <path d="M58.306925,87.3685333 C58.7616542,87.5696762 60.6094667,88.4694857 61.2900396,88.7841524 C61.9698521,89.098819 62.7028937,89.675581 63.1218833,89.0462476 C62.9127687,89.6230095 63.7492271,89.4134857 63.9591021,89.2032 C64.1454042,89.0165333 64.5788417,87.5445333 64.6358729,86.7056762 C65.2206333,88.5007238 66.9186438,93.371581 67.1551333,94.1418667 C67.4418104,95.0729143 67.8706854,96.9372952 67.8706854,96.9372952 C67.8706854,96.9372952 67.9239146,96.8131048 67.9900708,96.6363429 C68.0068,96.7833905 68.0227687,96.9350095 68.0402583,97.0904381 C67.7436958,96.9578667 68.90105,103.384533 68.9139771,103.591771 C69.0896333,106.209676 64.7651437,107.1232 63.2184562,107.961295 C64.0876125,107.386057 56.810425,107.78301 56.810425,107.78301 C56.56405,107.536152 56.2826958,92.1479619 54.6052167,89.1445333 C54.6683312,88.2256762 57.6248312,91.3647238 57.5693208,90.8443429 C57.4476542,89.7083429 57.0043312,88.4626286 56.4355396,87.5651048 C56.4864875,87.3632 56.7762062,86.6912 58.306925,87.3685333" id="Fill-192" fill="#1AC1F3" mask="url(#mask-6)"></path>
                                    <path d="M63.2703927,86.1542095 C63.2703927,86.1542095 63.6909031,86.9938286 63.6566844,87.7275429 C63.5768406,87.2673524 63.3890177,86.6944 63.2688719,86.1534476 L63.2703927,86.1542095 Z" id="Fill-193" fill="#4161AC" mask="url(#mask-6)"></path>
                                    <path d="M62.7394698,88.3729524 L63.2352615,88.6426667 C63.2816469,88.6411429 63.321949,88.6342857 63.3599698,88.6259048 C63.2915323,88.712 63.239824,88.7211429 63.1219594,89.0464762 C63.1729073,88.9687619 63.0215844,88.7089524 62.7394698,88.3729524" id="Fill-194" fill="#4161AC" mask="url(#mask-6)"></path>
                                    <path d="M62.1312885,100.114057 C61.8651427,100.209295 61.6780802,100.23901 61.6126844,100.173486 C61.6126844,100.173486 61.8088719,100.189486 62.1312885,100.114057" id="Fill-195" fill="#4161AC" mask="url(#mask-6)"></path>
                                    <path d="M54.3644687,102.940724 C54.1226562,100.701486 53.8983333,98.0287238 53.7158333,95.6089143 C54.1781667,96.4279619 54.6899271,97.3277714 55.2191771,98.2390095 C54.9172917,99.9837714 54.604,101.749867 54.3644687,102.940724" id="Fill-196" fill="#4161AC" mask="url(#mask-6)"></path>
                                    <path d="M54.7566156,105.995048 C55.6067615,104.908571 56.3344802,102.087238 56.6363656,100.62819 C58.0302094,102.912381 59.3312823,104.820952 59.9297302,105.038857 C60.779876,105.34819 63.845876,103.035048 66.2563969,101.051048 C66.6761469,101.068571 67.5407406,101.087619 68.4760531,101.00381 C68.705699,103.045714 68.9041677,104.775238 68.9307823,104.881143 C68.979449,105.077714 69.2417927,108.447619 69.375626,110.193905 C68.837251,110.525333 64.4701781,111.542476 63.7493031,111.645333 C63.0451573,111.746667 57.089574,111.653714 56.5359906,112.441524 C56.3055844,111.72381 55.8493344,110.28 55.460001,108.931429 C55.1930948,108.00419 54.9588865,107.123429 54.8531885,106.559619 C54.821251,106.386667 54.7885531,106.194667 54.7566156,105.995048" id="Fill-197" fill="#1AC1F3" mask="url(#mask-6)"></path>
                                    <path d="M57.1796833,77.9607619 C57.1865271,77.920381 57.1956521,77.8807619 57.2032562,77.840381 C57.2024958,77.8419048 57.2024958,77.8426667 57.2024958,77.8441905 C57.1948917,77.8822857 57.1857667,77.9211429 57.1796833,77.9607619" id="Fill-198" fill="#F9C4C8" mask="url(#mask-6)"></path>
                                    <path d="M57.1247052,78.689219 C57.122424,78.5696 57.1247052,78.449981 57.1338302,78.3318857 C57.1376323,78.3516952 57.1421948,78.369981 57.1459969,78.3890286 C57.1383927,78.4827429 57.131549,78.5833143 57.1247052,78.689219" id="Fill-199" fill="#F9C4C8" mask="url(#mask-6)"></path>
                                    <path d="M65.1194979,78.5552762 C65.1194979,78.5461333 65.1202583,78.5369905 65.1202583,78.5270857 C65.10505,77.9465143 64.9613313,77.4025143 64.7263625,76.9110857 L64.5339771,77.1960381 L64.3818938,77.2326095 C64.0404667,77.5046095 63.4564667,77.6402286 62.5797063,77.6623238 C62.0534979,77.6760381 61.4390813,77.6028952 60.8573625,77.4657524 C60.0741333,77.9297524 59.7441125,78.5583238 59.6019146,79.1388952 C59.5981125,79.1777524 59.5418417,79.8048 59.547925,80.0181333 C59.5555292,80.3175619 59.4992583,80.596419 59.3996437,80.8379429 C59.3365292,80.805181 59.2718938,80.7739429 59.2057375,80.7503238 C58.9487167,80.6573714 58.8529042,80.2482286 58.8164042,79.9815619 C58.8620292,79.8177524 58.8863625,79.6295619 58.8810396,79.4299429 C58.8650708,78.8105143 58.5799146,78.3160381 58.2438104,78.324419 C57.9077063,78.3328 57.6484042,78.8417524 57.6636125,79.461181 C57.6780604,80.0059429 57.9008625,80.4547048 58.1829771,80.548419 L58.5905604,81.0215619 L58.7000604,81.1472762 L58.7183104,82.2825143 C58.6186958,82.3663238 58.507675,82.4082286 58.3958938,82.3427048 C58.0559875,82.1430857 57.5016437,81.0436571 57.5016437,81.0436571 C57.3480396,80.7762286 57.2362583,80.4409905 57.1655396,80.0798476 C57.0894979,79.6882286 57.0963417,79.1465143 57.1244771,78.6893714 C57.1313208,78.5834667 57.1381646,78.4828952 57.1465292,78.389181 C57.1427271,78.3701333 57.1374042,78.3510857 57.1336021,78.3320381 L57.1336021,78.3312762 L57.1336021,78.3289905 C57.1351229,78.309181 57.138925,78.2886095 57.1404458,78.2695619 C57.1503313,78.165181 57.1624979,78.0630857 57.1799875,77.9609905 C57.1853104,77.9213714 57.1944354,77.8825143 57.2028,77.8436571 C57.2028,77.8421333 57.2028,77.8413714 57.2035604,77.8406095 C57.2066021,77.8169905 57.2088833,77.8009905 57.2088833,77.8002286 L57.211925,77.8002286 C57.2256125,77.733181 57.2408208,77.6668952 57.25755,77.6013714 C57.2704771,77.5556571 57.2834042,77.5099429 57.2970917,77.4642286 C57.3191438,77.3918476 57.3434771,77.3202286 57.3700917,77.2493714 C57.3853,77.2059429 57.4012687,77.1632762 57.4179979,77.1198476 C57.4499354,77.0421333 57.4849146,76.9659429 57.5214146,76.8897524 C57.5366229,76.8577524 57.5503104,76.8249905 57.5662792,76.7937524 C57.6195083,76.6916571 57.6773,76.5910857 57.7388938,76.4935619 C57.759425,76.4608 57.7829979,76.4295619 57.8042896,76.3975619 C57.8476333,76.3312762 57.8932583,76.2665143 57.9411646,76.2032762 C57.9708208,76.164419 58.0019979,76.1270857 58.0324146,76.0905143 C58.0765187,76.0356571 58.1221438,75.9830857 58.1685292,75.9320381 C58.2027479,75.8947048 58.2369667,75.8573714 58.2727062,75.8208 C58.3221333,75.7720381 58.3723208,75.7232762 58.4232688,75.6768 C58.4590083,75.6440381 58.4947479,75.6097524 58.5320083,75.5785143 C58.5966437,75.5236571 58.6635604,75.4710857 58.7312375,75.4208 C58.7745813,75.3880381 58.8194458,75.3560381 58.86355,75.3248 C58.9388312,75.2729905 59.0148729,75.2234667 59.0924354,75.1769905 C59.1373,75.1510857 59.1821646,75.1282286 59.2277896,75.1038476 C59.2696125,75.0809905 59.3099146,75.0566095 59.3524979,75.0360381 C59.4452687,74.9705143 59.5494458,74.9110857 59.657425,74.8539429 L59.6680708,74.836419 C59.6680708,74.836419 59.6992479,74.8249905 59.7479146,74.8074667 C59.9958104,74.6886095 60.277925,74.5926095 60.5851333,74.5255619 C61.3638,74.2802286 66.0525292,74.9415619 66.0525292,74.9415619 L64.8997375,76.6543238 C65.0982063,77.2722286 65.3476229,78.2230857 65.2183521,78.7769905 C65.1681646,78.9888 65.1316646,79.1488 65.1035292,79.269181 C65.1202583,79.0208 65.1271021,78.7937524 65.1217792,78.6025143 C65.1217792,78.5857524 65.1202583,78.5712762 65.1194979,78.5552762" id="Fill-200" fill="#1A2982" mask="url(#mask-6)"></path>
                                    <path d="M63.6566083,87.7279238 C63.650525,87.8574476 63.632275,87.9846857 63.5927333,88.102019 C63.4786708,88.4456381 63.4140354,88.5591619 63.3600458,88.6262095 C63.322025,88.6338286 63.2817229,88.6406857 63.2353375,88.6422095 L62.7395458,88.3732571 C62.2224625,87.7576381 61.2590146,86.8814476 60.2438583,86.3724952 C59.2918167,85.8955429 58.9762438,85.4582095 58.8743479,85.1869714 L58.7344313,82.5431619 L58.723025,82.5568762 L58.7184625,82.2825905 L58.6994521,81.1473524 L58.5907125,81.0216381 L58.1831292,80.5484952 C57.9010146,80.454781 57.6782125,80.006019 57.6637646,79.4612571 C57.6485563,78.8418286 57.9070979,78.3328762 58.2439625,78.3244952 C58.5800667,78.3153524 58.8652229,78.8105905 58.8811917,79.430019 C58.8865146,79.6296381 58.8621813,79.8178286 58.8165563,79.9816381 C58.8530563,80.2483048 58.9488688,80.6574476 59.2051292,80.7504 C59.2712854,80.774019 59.3359208,80.8052571 59.3990354,80.838019 C59.4994104,80.5964952 59.5549208,80.3168762 59.5480771,80.0182095 C59.5419938,79.8048762 59.5982646,79.1778286 59.6020667,79.1389714 C59.7435042,78.5584 60.0742854,77.9298286 60.8567542,77.4658286 C61.4392333,77.6029714 62.05365,77.6761143 62.5798583,77.6624 C63.4566188,77.6403048 64.0406188,77.5046857 64.3820458,77.2326857 L64.5341292,77.1961143 L64.7265146,76.9111619 C64.9614833,77.4025905 65.1052021,77.9465905 65.1204104,78.5271619 C65.1204104,78.5370667 65.11965,78.5462095 65.11965,78.5553524 C65.1204104,78.5713524 65.1219313,78.5858286 65.1219313,78.6025905 C65.1272542,78.7938286 65.1204104,79.0208762 65.1029208,79.2692571 C64.9919,80.8753524 64.9249833,83.366781 63.9524104,84.1248762 C63.8026083,84.2414476 63.1402854,84.2985905 63.1342021,84.4677333 C63.1037854,85.2281143 63.1630979,85.2730667 63.1630979,85.2730667 C63.1509312,85.5359238 63.1988375,85.8391619 63.2687958,86.1538286 C63.3889417,86.694781 63.577525,87.2677333 63.6566083,87.7279238" id="Fill-201" fill="#FFEBD2" mask="url(#mask-6)"></path>
                                    <path d="M60.7025417,114.00541 C61.456875,113.939886 64.2149063,113.712838 66.3585208,113.422552 L64.5966354,121.7616 L64.5875104,121.844648 L61.8340417,146.160838 L61.8119896,146.750552 C61.8119896,146.750552 61.5998333,146.761219 61.3002292,146.772648 C60.8112813,146.790171 60.0850833,146.807695 59.6326354,146.776457 C59.4014688,146.759695 59.2417813,146.731505 59.2258125,146.684267 C59.1596563,146.484648 57.6342604,135.454552 57.7673333,132.4656 C57.8791146,129.93379 57.21375,117.869029 57.0076771,114.224838 C57.7924271,114.432076 59.5946146,114.102171 60.7025417,114.00541" id="Fill-202" fill="#1E41D3" mask="url(#mask-6)"></path>
                                    <path d="M56.6360615,100.62819 C56.3349365,102.087238 55.6064573,104.908571 54.7563115,105.995048 C54.600426,106.193905 54.4407385,106.334857 54.2780094,106.398095 C52.990624,106.899429 52.990624,106.110857 52.561749,105.537905 C52.1321135,104.96419 53.706176,104.534476 53.9920927,104.390476 C54.0567281,104.358476 54.1920823,103.797714 54.3646969,102.940571 C54.6042281,101.749714 54.9167594,99.983619 55.2194052,98.2388571 C55.686301,99.0449524 56.166124,99.8571429 56.6360615,100.62819" id="Fill-203" fill="#EE4678" mask="url(#mask-6)"></path>
                                    <path d="M68.0534896,96.4608 C68.0321979,96.5225143 68.0101458,96.5819429 67.990375,96.6360381 C67.9242187,96.8128 67.8709896,96.9369905 67.8709896,96.9369905 C67.8709896,96.9369905 67.4413542,95.0733714 67.1546771,94.1415619 C66.9189479,93.3712762 65.2201771,88.501181 64.6361771,86.7053714 C64.6430208,86.6017524 64.6453021,86.5057524 64.6392187,86.4242286 C64.6285729,86.2748952 64.5639375,86.1240381 64.4711667,85.9769905 C64.6217292,85.8703238 65.252875,86.0341333 65.9395313,86.4722286 C65.9395313,86.4722286 66.0170938,86.6588952 66.1440833,86.9895619 C66.6505208,88.3122286 67.9424688,91.9777524 68.227625,95.6470857 C68.2435938,95.8482286 68.1493021,96.1827048 68.0534896,96.4608" id="Fill-204" fill="#1AC1F3" mask="url(#mask-6)"></path>
                                    <path d="M48.1980219,88.4072381 C49.1523448,85.7931429 53.3582094,84.9733333 55.5611365,85.1455238 C54.5969281,87.4739048 56.4242094,87.6186667 56.4242094,87.6186667 C56.4242094,87.6186667 56.427251,87.5973333 56.4356156,87.5653333 C57.0044073,88.4620952 57.878126,90.216 57.9678552,95.2095238 C57.9769802,95.7329524 56.4287719,101.780952 56.3656573,102.700571 C55.3368135,100.856762 55.5725427,89.832 55.4485948,89.6346667 C55.1976573,89.24 55.003751,88.8659048 54.7125115,88.7142857 C54.6174594,88.5497143 54.529251,88.400381 54.4516885,88.271619 C54.3323031,88.2472381 54.2129177,88.2182857 54.0935323,88.1862857 C53.489001,88.0255238 52.9027198,87.7961905 52.5612927,87.7619048 C51.846501,87.6910476 51.7210323,86.5420952 49.9150427,89.4822857 C48.7706156,91.3459048 48.9128135,92.4217143 48.6268969,95.0731429 C48.4649281,96.5771429 48.6238552,97.1813333 48.479376,97.4099048 C48.369876,97.5851429 48.083199,97.5409524 47.3395115,97.5097143 C45.6224906,97.4388571 47.125074,91.3459048 48.1980219,88.4072381" id="Fill-205" fill="#2E62E5" mask="url(#mask-6)"></path>
                                    <path d="M49.5569625,104.104381 C49.5569625,104.964571 50.7736292,108.046476 50.7736292,108.046476 C50.7736292,108.046476 50.9333167,108.327619 50.5637542,108.529524 C50.4398062,108.596571 50.2565458,108.656 49.9858375,108.69181 C48.9128896,108.835048 48.4125354,105.538286 47.8399417,103.24419 C47.3152542,101.139048 48.3539833,100.604952 48.8611812,100.420571 C48.9068062,100.40381 48.9493896,100.388571 48.9843687,100.377143 C48.9843687,100.377143 49.5569625,103.24419 49.5569625,104.104381" id="Fill-206" fill="#EE4678" mask="url(#mask-6)"></path>
                                    <path d="M60.2436302,86.3722667 C61.2587865,86.881219 62.2229948,87.7574095 62.7393177,88.3730286 C63.0214323,88.7090286 63.1735156,88.9688381 63.1218073,89.0465524 C62.7028177,89.6758857 61.9705365,89.0983619 61.2899635,88.7844571 C60.6093906,88.4697905 58.7615781,87.569219 58.306849,87.3688381 C56.7761302,86.6915048 56.4871719,87.3635048 56.4354635,87.5646476 C56.427099,87.5966476 56.4248177,87.6187429 56.4248177,87.6187429 C56.4248177,87.6187429 54.596776,87.473981 55.5609844,85.1456 C55.587599,85.0823619 55.6073698,85.0229333 55.6377865,84.9566476 C56.7898177,82.4393143 58.7775469,83.697981 58.7775469,83.697981 L58.830776,84.9040762 C58.830776,84.9040762 58.8072031,85.0107429 58.8741198,85.1867429 C58.9760156,85.4587429 59.2915885,85.8953143 60.2436302,86.3722667" id="Fill-207" fill="#1AC1F3" mask="url(#mask-6)"></path>
                                    <path d="M64.636025,86.7056 C64.5789938,87.545219 64.1447958,89.0164571 63.9584938,89.2031238 C63.7493792,89.4134095 62.9121604,89.6229333 63.1220354,89.0461714 C63.2399,88.7216 63.2908479,88.7124571 63.3600458,88.6263619 C63.4140354,88.5593143 63.4786708,88.4457905 63.5927333,88.1021714 C63.632275,87.9848381 63.650525,87.8576 63.6566083,87.7280762 C63.6908271,86.9936 63.2703167,86.153981 63.2703167,86.153981 L63.1630979,85.273219 L63.2786813,84.9044571 C63.2786813,84.9044571 64.1075354,85.4035048 64.4710146,85.977219 C64.5637854,86.1235048 64.6284208,86.2751238 64.6390667,86.4244571 C64.64515,86.505219 64.6428688,86.601219 64.636025,86.7056" id="Fill-208" fill="#1AC1F3" mask="url(#mask-6)"></path>
                                    <path d="M63.7493792,111.645333 C64.4702542,111.542476 68.8365667,110.525333 69.3749417,110.193905 C69.3840667,110.188571 69.3947125,110.182476 69.4015562,110.177143 C69.8197854,109.862476 70.238775,111.121905 70.238775,111.645333 C70.238775,112.025524 70.2083583,112.32419 69.5939417,112.638857 C69.3612542,112.757714 69.0479625,112.878857 68.6160458,113.009143 C68.1354625,113.153143 67.3073687,113.294095 66.3591292,113.422857 C64.2147542,113.713143 61.4567229,113.94019 60.7023896,114.005714 C59.5944625,114.102476 57.792275,114.431619 57.007525,114.225143 C56.9390875,114.206095 56.8767333,114.186286 56.825025,114.159619 C56.4493792,113.966857 56.4189625,113.151619 56.4927229,112.540571 C56.496525,112.506286 56.5132542,112.473524 56.5360667,112.441524 C57.08965,111.653714 63.0452333,111.746667 63.7493792,111.645333" id="Fill-209" fill="#1AC1F3" mask="url(#mask-6)"></path>
                                    <path d="M45.7622552,113.090286 L49.8008281,110.457143 L48.625224,108.646857 L45.3250156,110.797714 L44.586651,111.279238 L43.8482865,111.76 C44.7098385,112.747429 45.4520052,113.292952 45.7622552,113.090286" id="Fill-210" fill="#1E41D3" mask="url(#mask-6)"></path>
                                    <path d="M41.1411271,107.591771 L41.8794917,107.110248 L42.6170958,106.629486 L45.9173042,104.477867 L44.7417,102.666819 L40.7038875,105.2992 C40.3936375,105.502629 40.589825,106.402438 41.1411271,107.591771" id="Fill-211" fill="#1E41D3" mask="url(#mask-6)"></path>
                                    <path d="M90.8793729,79.1780571 C90.7021958,78.8877714 91.5888417,78.1974857 91.5553833,77.8051048 L86.6187583,82.9792 L85.6370604,84.0085333 L85.10705,84.5639619 C85.335175,84.6233905 85.6537896,84.5814857 85.9845708,84.5418667 C86.4978521,84.4793905 87.0407896,84.4222476 87.3191021,84.7590095 C87.44305,84.9083429 87.5054042,85.1262476 87.51605,85.3540571 L87.8392271,84.858819 L91.4922688,79.2672 C91.2055917,79.3190095 90.956175,79.3022476 90.8793729,79.1780571" id="Fill-212" fill="#FFFFFF" mask="url(#mask-6)"></path>
                                    <path d="M83.5633281,78.5999238 C83.7389844,78.990019 83.3595365,79.4905905 83.0112656,79.9637333 C82.7671719,80.2951619 82.5390469,80.6128762 82.524599,80.8696381 L83.395276,80.5557333 L84.7320885,80.0742095 L91.4610156,77.646019 C91.1157865,77.4075429 89.9538698,77.8273524 89.7911406,77.502781 C89.7470365,77.4136381 89.7865781,77.2871619 89.8717448,77.150781 L83.5116198,78.1945905 L83.1983281,78.2456381 C83.3686615,78.3408762 83.5002135,78.4597333 83.5633281,78.5999238" id="Fill-213" fill="#FFFFFF" mask="url(#mask-6)"></path>
                                    <path d="M83.8700042,81.2867048 C84.46465,81.2272762 85.1155667,81.1320381 85.5071813,81.268419 C85.6334104,81.3118476 85.7337854,81.3788952 85.7961396,81.4802286 C85.8539313,81.5747048 85.8706604,81.685181 85.8577333,81.8086095 C85.8174312,82.2169905 85.4425458,82.7541333 85.1475042,83.253181 C84.8737542,83.7126095 84.6684417,84.1385143 84.8517021,84.4013714 C84.9110146,84.485181 84.9984625,84.5369905 85.1072021,84.564419 L85.6372125,84.0082286 L86.6189104,82.9796571 L91.554775,77.8055619 C91.5524937,77.7750857 91.5448896,77.7468952 91.5304417,77.7202286 C91.5144729,77.6897524 91.4901396,77.6661333 91.4604833,77.6463238 L84.7323167,80.0737524 L83.3955042,80.5560381 L82.5240667,80.8699429 C82.521025,80.9430857 82.5324313,81.0108952 82.56665,81.0733714 C82.7286187,81.3667048 83.2707958,81.3461333 83.8700042,81.2867048" id="Fill-214" fill="#FFFFFF" mask="url(#mask-6)"></path>
                                    <path d="M42.3589344,109.764343 C42.8570073,110.531581 43.371049,111.213486 43.8485906,111.759771 L44.5869552,111.27901 L45.3245594,110.797486 L48.6247677,108.646629 L45.9176844,104.478248 L42.617476,106.629867 L41.8791115,107.110629 L41.1407469,107.59139 C41.4471948,108.250438 41.8616219,108.997105 42.3589344,109.764343" id="Fill-215" fill="#1E41D3" mask="url(#mask-6)"></path>
                                    <path d="M89.8731135,77.4302476 C90.0388844,77.7601524 91.215249,77.3334857 91.565801,77.5750095 C91.5954573,77.595581 91.6190302,77.6199619 91.6357594,77.6504381 C91.6502073,77.6771048 91.6578115,77.7060571 91.6608531,77.7365333 C91.6950719,78.1342476 90.795499,78.8344381 90.9764781,79.1285333 C91.0532802,79.2542476 91.306499,79.2702476 91.5977385,79.2184381 L93.3641865,76.5136762 L89.9544781,77.0729143 C89.8677906,77.2123429 89.828249,77.3403429 89.8731135,77.4302476" id="Fill-216" fill="#1E41D3" mask="url(#mask-6)"></path>
                                    <path d="M87.3683771,84.7844571 C87.0862625,84.4438857 86.5349604,84.5010286 86.0148354,84.5642667 C85.6794917,84.6054095 85.3563146,84.6473143 85.1259083,84.5871238 L84.7434188,84.9894095 L84.4620646,85.2835048 L52.4842625,106.130743 L53.6606271,107.941029 L86.6695542,86.4217905 L87.0566063,86.1688381 L87.5676063,85.3878857 C87.5562,85.1570286 87.4938458,84.9360762 87.3683771,84.7844571" id="Fill-217" fill="#1A2982" mask="url(#mask-6)"></path>
                                    <polygon id="Fill-218" fill="#FFFFFF" mask="url(#mask-6)" points="48.6249958 108.646781 49.8006 110.457067 53.660475 107.940495 52.4841104 106.13021"></polygon>
                                    <polygon id="Fill-219" fill="#FFFFFF" mask="url(#mask-6)" points="49.7774833 101.961524 48.6018792 100.150476 44.7420042 102.667048 45.9176083 104.478095"></polygon>
                                    <path d="M49.7774833,101.961524 L81.754525,81.1158095 L81.8039521,81.0975238 L82.5080979,80.8430476 C82.5233062,80.5817143 82.7544729,80.2601905 83.0016083,79.9249524 C83.3552021,79.4449524 83.7392125,78.9375238 83.561275,78.5420952 C83.4974,78.400381 83.3643271,78.28 83.1909521,78.1832381 L81.9978583,78.3790476 L81.0009521,79.0289524 L48.6018792,100.150476 L49.7774833,101.961524 Z" id="Fill-220" fill="#1A2982" mask="url(#mask-6)"></path>
                                    <path d="M84.4618365,85.2837333 L84.7431906,84.9888762 L85.1256802,84.5873524 C85.0161802,84.5591619 84.9272115,84.5073524 84.8671385,84.422019 C84.6808365,84.1561143 84.8891906,83.7233524 85.1659823,83.2585905 C85.4655865,82.7526857 85.8450344,82.2086857 85.8868573,81.7942095 C85.8997844,81.670019 85.8830552,81.5572571 85.8237427,81.4612571 C85.7606281,81.3591619 85.6594927,81.2913524 85.5317427,81.2464 C85.1340448,81.1084952 84.475524,81.2052571 83.8725135,81.2654476 C83.2649406,81.3256381 82.7151594,81.3469714 82.550149,81.0483048 C82.5159302,80.9858286 82.504524,80.9172571 82.508326,80.8433524 L81.8041802,81.0978286 L81.7539927,81.1153524 L49.7777115,101.961829 L52.4840344,106.13021 L84.4618365,85.2837333 Z" id="Fill-221" fill="#1E41D3" mask="url(#mask-6)"></path>
                                    <polygon id="Fill-222" fill="#FFFFFF" mask="url(#mask-6)" points="48.6249958 108.646781 52.4841104 106.13021 49.7777875 101.961829 45.9171521 104.477638"></polygon>
                                    <path d="M61.9745667,100.780724 L61.9395875,100.792914 L62.5266292,102.722819 C62.7851708,102.691581 63.0802125,102.653486 63.4147958,102.606248 C63.6201083,102.577295 63.8353062,102.546057 64.0733167,102.51101 C66.972025,102.07139 66.1249208,100.863771 66.1249208,100.168152 C66.1249208,99.4732952 63.25815,99.8390095 63.25815,99.8390095 C63.25815,99.8390095 63.9105875,98.4477714 63.6817021,98.338819 C63.5752437,98.2877714 63.2360979,98.8005333 62.9037958,99.3643429 C62.5228271,100.008152 62.1509833,100.717486 62.1509833,100.717486 L61.9745667,100.780724 Z" id="Fill-223" fill="#FFEBD2" mask="url(#mask-6)"></path>
                                    <path d="M62.358501,103.345448 C62.5379594,103.189257 62.6398552,103.096305 62.6398552,103.096305 L62.5265531,102.722971 L61.9395115,100.792305 L61.7281156,100.095162 L56.536751,102.279543 C56.0394385,96.8692571 55.8052302,89.3751619 55.076751,88.5584 C55.0022302,88.4745905 54.9231469,88.4601143 54.8372198,88.5256381 C48.388126,93.4292571 52.4289802,103.958019 54.1885844,106.592686 C54.474501,107.020876 54.8919698,107.2144 55.3877615,107.244114 C57.5724385,107.372876 61.3114073,104.259733 62.358501,103.345448" id="Fill-224" fill="#1AC1F3" mask="url(#mask-6)"></path>
                                </g>
                            </g>
                        </g>
                    </g>
                </g>
            </g>
        </g>
    </g>
</svg>