<svg height="235" viewBox="0 0 389 235" width="389" xmlns="http://www.w3.org/2000/svg" xmlns:xlink="http://www.w3.org/1999/xlink"><mask id="a" fill="#fff"><path d="m.16448411 22.996383v144.078131l222.38966989 17.72691v-184.13917381z" fill="#fff" fill-rule="evenodd"/></mask><mask id="b" fill="#fff"><path d="m.16448411 22.996383v144.078131l222.38966989 17.72691v-184.13917381z" fill="#fff" fill-rule="evenodd"/></mask><mask id="c" fill="#fff"><path d="m.16448411 22.996383v144.078131l222.38966989 17.72691v-184.13917381z" fill="#fff" fill-rule="evenodd"/></mask><mask id="d" fill="#fff"><path d="m.16448411 22.996383v144.078131l222.38966989 17.72691v-184.13917381z" fill="#fff" fill-rule="evenodd"/></mask><mask id="e" fill="#fff"><path d="m.16448411 22.996383v144.078131l222.38966989 17.72691v-184.13917381z" fill="#fff" fill-rule="evenodd"/></mask><mask id="f" fill="#fff"><path d="m.16448411 22.996383v144.078131l222.38966989 17.72691v-184.13917381z" fill="#fff" fill-rule="evenodd"/></mask><mask id="g" fill="#fff"><path d="m.16448411 22.996383v144.078131l222.38966989 17.72691v-184.13917381z" fill="#fff" fill-rule="evenodd"/></mask><mask id="h" fill="#fff"><path d="m.16448411 22.996383v144.078131l222.38966989 17.72691v-184.13917381z" fill="#fff" fill-rule="evenodd"/></mask><mask id="i" fill="#fff"><path d="m.16448411 22.996383v144.078131l222.38966989 17.72691v-184.13917381" fill="#fff" fill-rule="evenodd"/></mask><mask id="j" fill="#fff"><path d="m.16448411 22.996383v144.078131l222.38966989 17.72691v-184.13917381z" fill="#fff" fill-rule="evenodd"/></mask><mask id="k" fill="#fff"><path d="m.16448411 22.996383v144.078131l222.38966989 17.72691v-184.13917381" fill="#fff" fill-rule="evenodd"/></mask><mask id="l" fill="#fff"><path d="m.16448411 22.996383v144.078131l222.38966989 17.72691v-184.13917381z" fill="#fff" fill-rule="evenodd"/></mask><mask id="m" fill="#fff"><path d="m.16448411 22.996383v144.078131l222.38966989 17.72691v-184.13917381z" fill="#fff" fill-rule="evenodd"/></mask><mask id="n" fill="#fff"><path d="m.16448411 22.996383v144.078131l222.38966989 17.72691v-184.13917381z" fill="#fff" fill-rule="evenodd"/></mask><mask id="o" fill="#fff"><path d="m.16448411 22.996383v144.078131l222.38966989 17.72691v-184.13917381z" fill="#fff" fill-rule="evenodd"/></mask><mask id="p" fill="#fff"><path d="m.16448411 22.996383v144.078131l222.38966989 17.72691v-184.13917381z" fill="#fff" fill-rule="evenodd"/></mask><mask id="q" fill="#fff"><path d="m.16448411 22.996383v144.078131l222.38966989 17.72691v-184.13917381z" fill="#fff" fill-rule="evenodd"/></mask><mask id="r" fill="#fff"><path d="m.16448411 22.996383v144.078131l222.38966989 17.72691v-184.13917381z" fill="#fff" fill-rule="evenodd"/></mask><mask id="s" fill="#fff"><path d="m.16448411 22.996383v144.078131l222.38966989 17.72691v-184.13917381z" fill="#fff" fill-rule="evenodd"/></mask><mask id="t" fill="#fff"><path d="m.16448411 22.996383v144.078131l222.38966989 17.72691v-184.13917381z" fill="#fff" fill-rule="evenodd"/></mask><mask id="u" fill="#fff"><path d="m.16448411 22.996383v144.078131l222.38966989 17.72691v-184.13917381z" fill="#fff" fill-rule="evenodd"/></mask><mask id="v" fill="#fff"><path d="m.16448411 22.996383v144.078131l222.38966989 17.72691v-184.13917381z" fill="#fff" fill-rule="evenodd"/></mask><mask id="w" fill="#fff"><path d="m.16448411 22.996383v144.078131l222.38966989 17.72691v-184.13917381z" fill="#fff" fill-rule="evenodd"/></mask><mask id="x" fill="#fff"><path d="m.16448411 22.996383v144.078131l222.38966989 17.72691v-184.13917381z" fill="#fff" fill-rule="evenodd"/></mask><mask id="y" fill="#fff"><path d="m.16448411 22.996383v144.078131l222.38966989 17.72691v-184.13917381z" fill="#fff" fill-rule="evenodd"/></mask><mask id="z" fill="#fff"><path d="m.16448411 22.996383v144.078131l222.38966989 17.72691v-184.13917381z" fill="#fff" fill-rule="evenodd"/></mask><mask id="A" fill="#fff"><path d="m.16448411 22.996383v144.078131l222.38966989 17.72691v-184.13917381z" fill="#fff" fill-rule="evenodd"/></mask><mask id="B" fill="#fff"><path d="m.16448411 22.996383v144.078131l222.38966989 17.72691v-184.13917381z" fill="#fff" fill-rule="evenodd"/></mask><mask id="C" fill="#fff"><path d="m.16448411 22.996383v144.078131l222.38966989 17.72691v-184.13917381z" fill="#fff" fill-rule="evenodd"/></mask><mask id="D" fill="#fff"><path d="m.16448411 22.996383v144.078131l222.38966989 17.72691v-184.13917381z" fill="#fff" fill-rule="evenodd"/></mask><mask id="E" fill="#fff"><path d="m.16448411 22.996383v144.078131l222.38966989 17.72691v-184.13917381z" fill="#fff" fill-rule="evenodd"/></mask><mask id="F" fill="#fff"><path d="m.16448411 22.996383v144.078131l222.38966989 17.72691v-184.13917381z" fill="#fff" fill-rule="evenodd"/></mask><mask id="G" fill="#fff"><path d="m.16448411 22.996383v144.078131l222.38966989 17.72691v-184.13917381z" fill="#fff" fill-rule="evenodd"/></mask><mask id="H" fill="#fff"><path d="m.16448411 22.996383v144.078131l222.38966989 17.72691v-184.13917381z" fill="#fff" fill-rule="evenodd"/></mask><mask id="I" fill="#fff"><path d="m.16448411 22.996383v144.078131l222.38966989 17.72691v-184.13917381z" fill="#fff" fill-rule="evenodd"/></mask><mask id="J" fill="#fff"><path d="m.16448411 22.996383v144.078131l222.38966989 17.72691v-184.13917381z" fill="#fff" fill-rule="evenodd"/></mask><mask id="K" fill="#fff"><path d="m.16448411 22.996383v144.078131l222.38966989 17.72691v-184.13917381z" fill="#fff" fill-rule="evenodd"/></mask><mask id="L" fill="#fff"><path d="m.16448411 22.996383v144.078131l222.38966989 17.72691v-184.13917381z" fill="#fff" fill-rule="evenodd"/></mask><mask id="M" fill="#fff"><path d="m.16448411 22.996383v144.078131l222.38966989 17.72691v-184.13917381z" fill="#fff" fill-rule="evenodd"/></mask><mask id="N" fill="#fff"><path d="m.16448411 22.996383v144.078131l222.38966989 17.72691v-184.13917381z" fill="#fff" fill-rule="evenodd"/></mask><mask id="O" fill="#fff"><path d="m.16448411 22.996383v144.078131l222.38966989 17.72691v-184.13917381z" fill="#fff" fill-rule="evenodd"/></mask><mask id="P" fill="#fff"><path d="m.16448411 22.996383v144.078131l222.38966989 17.72691v-184.13917381z" fill="#fff" fill-rule="evenodd"/></mask><mask id="Q" fill="#fff"><path d="m.16448411 22.996383v144.078131l222.38966989 17.72691v-184.13917381z" fill="#fff" fill-rule="evenodd"/></mask><mask id="R" fill="#fff"><path d="m.16448411 22.996383v144.078131l222.38966989 17.72691v-184.13917381z" fill="#fff" fill-rule="evenodd"/></mask><mask id="S" fill="#fff"><path d="m.16448411 22.996383v144.078131l222.38966989 17.72691v-184.13917381z" fill="#fff" fill-rule="evenodd"/></mask><mask id="T" fill="#fff"><path d="m.16448411 22.996383v144.078131l222.38966989 17.72691v-184.13917381z" fill="#fff" fill-rule="evenodd"/></mask><mask id="U" fill="#fff"><path d="m.16448411 22.996383v144.078131l222.38966989 17.72691v-184.13917381z" fill="#fff" fill-rule="evenodd"/></mask><mask id="V" fill="#fff"><path d="m.16448411 22.996383v144.078131l222.38966989 17.72691v-184.13917381z" fill="#fff" fill-rule="evenodd"/></mask><mask id="W" fill="#fff"><path d="m.16448411 22.996383v144.078131l222.38966989 17.72691v-184.13917381z" fill="#fff" fill-rule="evenodd"/></mask><mask id="X" fill="#fff"><path d="m.16448411 22.996383v144.078131l222.38966989 17.72691v-184.13917381z" fill="#fff" fill-rule="evenodd"/></mask><mask id="Y" fill="#fff"><path d="m.16448411 22.996383v144.078131l222.38966989 17.72691v-184.13917381z" fill="#fff" fill-rule="evenodd"/></mask><mask id="Z" fill="#fff"><path d="m.16448411 22.996383v144.078131l222.38966989 17.72691v-184.13917381z" fill="#fff" fill-rule="evenodd"/></mask><mask id="aa" fill="#fff"><path d="m.16448411 22.996383v144.078131l222.38966989 17.72691v-184.13917381z" fill="#fff" fill-rule="evenodd"/></mask><mask id="ab" fill="#fff"><path d="m.16448411 22.996383v144.078131l222.38966989 17.72691v-184.13917381z" fill="#fff" fill-rule="evenodd"/></mask><mask id="ac" fill="#fff"><path d="m.16448411 22.996383v144.078131l222.38966989 17.72691v-184.13917381z" fill="#fff" fill-rule="evenodd"/></mask><mask id="ad" fill="#fff"><path d="m.16448411 22.996383v144.078131l222.38966989 17.72691v-184.13917381z" fill="#fff" fill-rule="evenodd"/></mask><mask id="ae" fill="#fff"><path d="m.16448411 22.996383v144.078131l222.38966989 17.72691v-184.13917381z" fill="#fff" fill-rule="evenodd"/></mask><mask id="af" fill="#fff"><path d="m.16448411 22.996383v144.078131l222.38966989 17.72691v-184.13917381z" fill="#fff" fill-rule="evenodd"/></mask><mask id="ag" fill="#fff"><path d="m.16448411 22.996383v144.078131l222.38966989 17.72691v-184.13917381z" fill="#fff" fill-rule="evenodd"/></mask><mask id="ah" fill="#fff"><path d="m.16448411 22.996383v144.078131l222.38966989 17.72691v-184.13917381z" fill="#fff" fill-rule="evenodd"/></mask><mask id="ai" fill="#fff"><path d="m.16448411 22.996383v144.078131l222.38966989 17.72691v-184.13917381z" fill="#fff" fill-rule="evenodd"/></mask><mask id="aj" fill="#fff"><path d="m.16448411 22.996383v144.078131l222.38966989 17.72691v-184.13917381z" fill="#fff" fill-rule="evenodd"/></mask><mask id="ak" fill="#fff"><path d="m.16448411 22.996383v144.078131l222.38966989 17.72691v-184.13917381z" fill="#fff" fill-rule="evenodd"/></mask><g fill="none" fill-rule="evenodd"><g fill="#1ac1f3"><path d="m81.6295337 168.297927 17.3086042 66.512954h1.8390641l-17.3076041-66.512954z"/><path d="m105.816062 168.297927 17.308508 66.512954h1.839161l-17.307508-66.512954z"/><path d="m85.6606218 178.375648.2416002 2.015544h23.944928l-.242619-2.015544z"/><path d="m88.6839378 191.476684.2416104 2.015544h23.9449178l-.24263-2.015544z"/><path d="m92.7150259 204.57772.2416104 2.015544h23.9449177l-.24161-2.015544z"/><path d="m95.738342 216.670984.2416104 2.015544h23.9449176l-.242629-2.015544z"/></g><path d="m45.3497409 234.810881h1.8400643l17.3076041-66.512954h-1.8400642z" fill="#64d7f2"/><path d="m69.5362694 234.810881h1.8401604l17.307508-66.512954h-1.8381601z" fill="#64d7f2"/><path d="m50.388601 219.694301h23.9449181l.2416104-2.015545h-23.944918z" fill="#64d7f2"/><path d="m53.4119171 206.593264h23.9438986l.2426299-2.015544h-23.9449181z" fill="#64d7f2"/><path d="m57.4430052 194.5h23.9438986l.2426299-2.015544h-23.9449181z" fill="#64d7f2"/><path d="m60.4663212 181.398964h23.9449181l.2416104-2.015544h-23.944918z" fill="#64d7f2"/><path d="m90.6994819 168.297927h22.1709841v-4.031088h-22.1709841z" fill="#1ac1f3"/><path d="m55.4274611 168.297927h35.2720208v-4.031088h-35.2720208z" fill="#64d7f2"/><path d="m122.295758 190.304704c-.316501-.609343-.672442-1.851336-.672442-1.851336l-3.001338.861293s-.077893.856853-.09564 1.690398c-.021692.965625-1.147687 2.195409-.303684 3.20543.326361.38847 1.8714.13208 2.770618.175366.705965.032188 2.874146.079914 4.027748.112102 1.242341.036627 2.949081-.421767 2.965843-1.166519.035495-1.579407-5.08078-1.850226-5.691105-3.026734" fill="#1a2982"/><path d="m121.254526 188.453368-3.288431.213202s-.049544 1.724157-.056769 2.595506c0 0 3.14806.424087 3.653813.079951.616194-.420611.292099-.809937.292099-.809937-.473757-.974474-.600712-2.078722-.600712-2.078722" fill="#ffebd2"/><path d="m101.169407 158.407227c8.616989 17.701673 16.730871 33.069457 16.730871 33.069457 1.501175-.220704 3.240664-.789996 4.040137-1.790381 0 0-4.554447-16.050522-10.675249-37.610384-2.497206-8.794114-15.7765967-5.341236-10.095759 6.331308" fill="#164bcd"/><path d="m108.983563 158.251644c-11.593433-5.254623-40.5124715-12.69962-45.5930508-12.089459-5.4852635.657732-5.9975219 13.712073 3.4239355 16.721511 10.7266919 3.426208 26.6558806 6.817255 40.1569643 4.818202 5.054966-.748739 6.9452-7.214377 2.012151-9.450254" fill="#002ca7"/><path d="m115.667846 203.31694c-.230968-.595886-.412157-1.762536-.412157-1.762536l-3.114074.295431s-.196123.75365-.331517 1.496246c-.155306.861171-1.450514 1.782634-.747657 2.818651.270789.399937 1.846741.41501 2.738752.595886.697879.140681 2.855232.52655 4.001107.738577 1.235475.228105 3.000581.088428 3.121043-.575789.25486-1.406813-4.809492-2.457903-5.255497-3.606466" fill="#1a2982"/><path d="m115.53605 201.885362-3.259616-.330958s-.287462 1.545882-.41374 2.331511c0 0 3.034779.883965 3.578904.653457.666297-.281261.399367-.685179.399367-.685179-.331608-.952694-.304915-1.968831-.304915-1.968831" fill="#ffebd2"/><path d="m101.332841 167.520911c5.1961 18.815222 10.128826 34.64844 10.128826 34.64844 1.429455.668908 3.479145.445258 4.432115-.380921 0 0-1.549079-16.461277-3.633952-38.574064-.851441-9.020564-14.3528559-8.100431-10.926989 4.306545" fill="#002ca7"/><path d="m106.263478 142.23641c-.471257.094731-.982091.136049-1.455188.068529.5228.160235.384737.495824.908457.748774.227344.031241 1.151448-.411171 1.105427-.657067-.041419-.389-.302819-.23078-.558696-.160236" fill="#1ac1f3"/><path d="m108.352738 143.804565c-.104515-.055088-1.588421-.833926-2.287948-1.111269-.588802-.2384-1.1983-.446407-1.785033-.597425-.034149-.005699-1.260389 1.543429-1.487011 2.11616.976853.411264 4.129895 1.460796 4.199227 1.498788 1.146561.635418 1.636022.439759 1.561517.09593-.016557-.082632.896138.101629.905451-.23935 0 0 .315615-.024695.379773-.281141.046566-.19376-.109689-.643967-.222483-.766491-.177986-.19186-.970644-.541388-1.263493-.715202" fill="#1ac1f3"/><path d="m89.3334701 131.063318c-.9738125-.204395-2.4431266.118811-2.6615518 2.111415-.239661 2.174848 11.8060854 8.832299 16.8824497 10.936666.213369-.654468.653253-1.447885 1.253922-2.350044-3.110537-1.217311-12.1802395-8.889691-14.9105548-10.490621-.1496617-.087598-.3438175-.1611-.5642651-.207416" fill="#1ac1f3"/><path d="m85.5853703 113.94245c-.2287591-.49288-5.9005472 1.989123-6.6740195 2.758472-1.7808328 1.776853 4.68597 13.599763 7.6916382 17.383343 1.1427694 1.436186 5.6102386 1.931137 3.569872-3.478118-1.6628628-4.410035-3.3308547-13.944573-4.5874907-16.663697" fill="#1ac1f3"/><path d="m88.7706923 122.012868c-.7673205-3.237105-1.490565-6.295787-2.1316683-7.692585-.1001723-.218186-.2995154-.373159-.5449377-.426176-1.08086-.23246-6.2347289 2.153312-7.0280941 2.948569-2.3650699 2.378635 5.0456827 14.925348 7.4327905 17.973835 2.2468665 2.951628 12.1479044 8.426668 16.5755233 10.30266l1.733984-3.618421c-1.786073-.714712-12.2320491-8.865079-13.3339452-9.664415-.08715-.341553-1.9323252-6.56597-2.7036525-9.823467" fill="#1ac1f3"/><path d="m106.36252 147.124682c-12.3199886-3.049305-42.0220223-5.034122-46.8930005-3.478653-5.2592668 1.679782-4.1373171 21.243808 6.9769329 20.605532 11.2021259-.643498 26.4128206-3.929937 39.2876526-8.440694 4.819888-1.688139 5.869289-7.388742.628415-8.686185" fill="#164bcd"/><path d="m112.016696 143.227466c-.695552.132329-1.457175.214809-2.169546.182179.796461.124172.622273.479468 1.428345.701528.34237.012689 1.681818-.511191 1.59052-.762254-.096104-.396988-.473312-.214809-.849319-.121453" fill="#fe5d89"/><path d="m114.08571 145.038386c-.122629-.06508-1.866012-.977304-2.680476-1.287261-.686725-.269145-1.391845-.494167-2.068351-.647491-.039854-.004413-1.296807 2.157568-1.505277 2.937426 1.139433.466591 4.792769 1.599425 4.8735 1.64465 1.350969.750075 1.887473.450045 1.776084-.001103-.027591-.109202 1.020891.061771 1.002496-.392687 0 0 .354604-.060668.405699-.405923.037811-.262526-.17679-.848246-.315771-1.000467-.216645-.241569-1.143519-.63977-1.487904-.847144" fill="#fe5d89"/><path d="m78.006014 102.792746c.0241423 1.349496-.8530268 4.987478-1.4153404 5.623223.8117837 2.575158 4.9209989 3.074393 5.3937849 1.671269-.4506556-1.626416.6095923-4.416088.6528472-4.686182-1.031076.023401-4.3214659-2.322615-4.6312917-2.60831" fill="#ffebd2"/><path d="m82.5689662 98.7677045c-2.1680264-.1148411-3.7005595 1.4209145-3.8280905 3.3537485-.0010807.020438-.131854 2.008745-.131854 2.008745-.0951079 1.456925 2.2512457 3.884159 3.6789441 3.690486 3.377409-.458391 4.448453-5.924047 4.3771221-6.55178-.2010234-1.7527861-2.0783224-2.3941443-4.0961217-2.5011995" fill="#ffebd2"/><path d="m86.3866814 120.552103c.3980501-2.838801.7383519-6.538306-1.6746977-8.361576-.6218243-.470587-3.2204931-1.604273-3.2204931-1.604273s-1.0126559.981917-2.0325303.7782c-1.4828911-.296409-3.4968595-2.525076-3.4968595-2.525076s-3.3401144.303539-4.4187682.58365c-9.6480735 2.515908-16.1158715 21.271139-16.1158715 48.78723.4764227.094729 1.8056624-.495033 2.9472205-1.426021l1.4024561-9.501373.8517859 5.111266c7.7650699-3.252346 19.1259962-.586706 26.0392803-7.315487-.9115966-14.71348-.5125153-22.880505-.2815225-24.52654" fill="#1ac1f3"/><path d="m80.1777961 111.2746c-1.4271739-.285861-3.366463-2.435222-3.366463-2.435222s-1.6494875.116899-2.1625953.15521c-1.1324099.082517-2.0891523.407671-2.0891523.407671 3.7803236 2.440134 9.2468562 8.507067 9.2468562 8.507067s2.2638273-3.364515 2.846408-6.218214c-.3433951-.205309-2.5188924-1.168002-2.5188924-1.168002s-.9755994.946976-1.9561612.75149" fill="#94ebff"/><path d="m87.1092254 98.1389831c-1.8523083-3.6200775-6.2165069-4.3809651-8.6430519-2.1654393-3.6277005 3.3120991-.885062 6.6561682-.8334334 9.8425182 0 0 .9598708-4.740095 2.2021186-6.3013003 5.5411203 2.7185213 8.20895 1.8180313 9.8568511.4028228 0 0-1.4624595.4124135-2.5824844-1.7786014" fill="#1a2982"/><path d="m78.6341084 100.781458c-.5877014.050652-1.0821891.911726-1.0321719 1.519543.0454701.574834.7866332 1.392325 1.3481893 1.499517.179607-.654934.543368-1.983651.6638638-2.802319-.3353422-.189648-.7570776-.236766-.9798812-.216741" fill="#ffebd2"/><path d="m76.5916948 151.238867c0 .001007-.0010212.003023-.0010212.005038 0 .471638.3911325.856607.8690699.856607h20.4328446c.4779374 0 .8690699-.384969.8690699-.856607v-.005038z" fill="#9fcdff"/><path d="m100.967844 133.193005-4.2017485 17.871369c-.0695253.286279-.0090685 1.109201 1.037842 1.109201l17.0820725-.218557v-19.936883l-12.370471.00513c-.718429-.018469-1.357256.464818-1.547695 1.16974" fill="#9fcdff"/><path d="m124.462917 132.018135h-21.733068c-.224641 0-.422206.152863-.481375.374465l-4.4757821 19.133613c-.0892549.32522.1504297.647362.4813748.647362h20.2367953c1.109167 0 2.082948-.757137 2.378793-1.849753l4.07564-17.657299c.088252-.326246-.151432-.648388-.482378-.648388" fill="#3c78ef"/><path d="m72.6698039 118.843613c-.4378221-2.198176-5.1490785.171994-5.1490785.171994s.4710219 5.089574 7.1856775 10.933198c4.3315339 3.771298 9.9464468 4.084874 9.9464468 4.084874s-10.6280798-8.377399-11.9830458-15.190066" fill="#139fd6"/><path d="m106.338857 134.73893c-.237249-.14953-1.110617-.25618-1.449397-.346338-.106711-.021989-1.483586-.299059-2.311369-.398013.286978-.270473.565669-.626706.485895-.770739-.173016-.38482-.399905-.119844-.648551.052775-.469319.280369-1.000799.522256-1.526063.636602.078738-.004398.146079-.002199.206169.005498-.224818.001099-.451707-.0011-.668236.013193-.034189.005498-.6464787 2.124205-.6578749 2.830074 1.0712489.111048 4.4300379.169321 4.5077399.188012 1.31057.29796 1.704259-.08466 1.513631-.435396-.046621-.08576.882692-.197907.771837-.575031 0 0 .289051-.136336.259006-.438694-.023828-.228693-.332563-.667387-.482787-.761943" fill="#ffebd2"/><path d="m84.644711 128.238208c-.1986836-.300184-.4231034-.598304-.6773773-.904677-1.4772589-1.773247-3.3580617-4.727629-5.1770976-7.584012-1.8097709-2.84091-3.5196853-5.525023-4.6026653-6.647358-.1678002-.175365-.412809-.256858-.6701712-.22488-1.124158.139261-5.3490156 4.149957-5.8575632 5.177389-1.5174075 3.067852 9.807558 12.587067 13.1223829 14.697634 3.1645255 2.076526 14.5842002 3.994192 19.4998177 4.304691l.495165-4.042675c-1.9703648-.084588-7.0599593-1.789753-11.1509886-3.159661-1.8725672-.626156-3.6483663-1.221365-4.9815024-1.616451" fill="#1ac1f3"/><path d="m133.025907 191.863437 222.717616 17.753143v-184.4222795l-222.717616 22.3684706z" fill="#1e41d3"/><g transform="translate(133.025907 24.186528)"><g fill="#5f8dff"><path d="m209.005567 185.259497h24.857534v-32.252603l-41.697233-13.32753z" mask="url(#a)"/><path d="m183.613205 176.197265 26.728157 19.192011-15.100867-32.919948z" mask="url(#b)"/><path d="m199.115475 229.240041 20.580946-3.19714-6.68255-19.19201z" mask="url(#c)"/><path d="m-10.5322957 62.481471 14.11600605 4.9658576 13.76558335-4.9658576 6.9696311-40.2984331-34.8512205 10.005072z" mask="url(#d)"/><path d="m-10.5322957 109.165422 20.30510385 1.885885 8.18231835-43.6035709-28.4874222 14.5470895z" mask="url(#e)"/><path d="m-10.0235187 135.205711-.508777 52.131316 31.4174869-14.211889-11.43419979-19.686151z" mask="url(#f)"/><path d="m91.0690291 44.3910374 12.7674409 5.6240324 15.543237-17.827775h-8.535805z" mask="url(#g)"/><path d="m104.820207 54.413328-17.5007005-7.709611-8.751372 5.3998861 6.5701697 12.6907512c2.3109506 4.4625474 7.1903054 6.9903055 12.181019 6.309716l12.1330018-1.6556254c8.07096-1.1023919 15.348104-5.4263762 20.161053-11.9806153l18.561163-25.2796178h-23.974836z" mask="url(#h)"/><path d="m108.469813 73.9136413-16.592462 2.1324456c-1.1197179.1426385-2.1556613.6653067-2.9341513 1.4783461l-13.5234546 14.1100044c-1.5978456 1.6658139-1.81852 4.2170054-.5322747 6.1334555l4.9845838 7.4212771c.1001207.15079.2094363.294447.3259033.43301l2.0197831 2.390214c1.9380519 2.295461 5.4688413 2.338252 7.4620618.089658l23.1125716-26.0549596c3.017926-3.3998906.194112-8.7141936-4.322561-8.1334511" mask="url(#i)"/><path d="m77.0573326 107.515706-6.9461334-10.34231-26.3072414 27.447723 13.8248385 19.612794 22.7938199-25.694288c1.7490484-1.971468 1.7837842-4.923066.0847962-6.935288z" mask="url(#j)"/><path d="m109.222047 92.8171143-17.4036446 20.1415757c-1.5804778 1.826791-1.5958024 4.53081-.0357575 6.375941l3.9619217 4.690769c1.2647908 1.498723 3.3009203 2.103917 5.1827824 1.542533l12.319962-3.674979c1.996285-.595006 3.401041-2.37595 3.510356-4.450321l1.123805-21.1573654c.040865-.776361-.104208-1.5517031-.421938-2.2618391-1.472184-3.2918928-5.877497-3.9378415-8.237487-1.2063142" mask="url(#k)"/><path d="m90.6998082 123.677973c-2.1107091-2.501268-5.9643369-2.523683-8.1046736-.046867l-20.4869558 23.709575 2.0933413 8.350466 39.8736049-16.340259 1.468097-11.374402-8.9587648 2.672434z" mask="url(#l)"/><path d="m107.946018 137.764748 7.905454-3.240951.518993-9.77685-7.013561 2.091691z" mask="url(#m)"/><path d="m121.859842 78.0000306c-2.461132 3.595509-3.052662 8.1466961-1.593759 12.2495907l22.70085-10.3076694.958299-13.4773007 9.647351-3.8655034-2.088233-27.8868459z" mask="url(#n)"/><path d="m147.391862 68.9836471-.657936 9.2480691 7.745056-3.5170579-.623201-8.3229565z" mask="url(#o)"/><path d="m146.41119 82.7768921-1.808304 25.4589349 14.172196 9.331614 2.056563 9.611798 33.205357-35.7482653-35.815649-13.8593681z" mask="url(#p)"/><path d="m120.412177 123.541651-.146094 4.674468 18.308818 22.924045 6.448595-6.943439-15.40736-23.399846z" mask="url(#q)"/><path d="m140.825064 110.094712 1.822607-25.6596473-21.31142 9.3958018-.805053 25.8899065 10.637321-3.172687 16.401415 24.907738 10.239902-11.022899-2.280301-10.656115z" mask="url(#r)"/><path d="m127.06888 194.693709 13.384511 6.855818 5.447387-12.673431-7.547879-3.616905z" mask="url(#s)"/><path d="m123.261635 192.743637 16.433086-13.814539 3.019969-24.057002-28.627387 33.170584z" mask="url(#t)"/><path d="m100.27074 204.051406 6.207488 2.79979 13.769669-11.574095-8.60119-4.40753z" mask="url(#u)"/><path d="m46.8920704 89.4322008-3.0873975 11.0952382 9.6095501 8.63778 14.2508625-15.6362367-6.2749156-9.3438407z" mask="url(#v)"/><path d="m53.4139165 66.0076986-5.3268333 19.1329172 14.7392067-5.3346799 7.3588761 10.9597311 15.3532126-16.8445882-10.6066711-19.0962387z" mask="url(#w)"/><path d="m107.113892 144.210072-4.87629 37.762524 6.938982 3.555774 25.637046-30.741653-11.559862-16.886361z" mask="url(#x)"/><path d="m77.8006782 198.509493 15.9273745 5.541506 13.0657593-15.666802-17.1431263-8.782456z" mask="url(#y)"/><path d="m59.1846525 200.676477 9.2683221 5.906253 3.4511014-5.506865-10.0049248-2.990314z" mask="url(#z)"/><path d="m54.001564 177.929508-10.7966962 12.561358 13.24659 8.44318 4.2122236-4.390209 1.4445996-33.828758-2.8891992-5.023932z" mask="url(#A)"/><path d="m38.3457416 196.144445 10.2194693 11.010673 5.3237684-5.550675-13.0739328-8.332126z" mask="url(#B)"/><path d="m33.639657 184.394802 6.7111561 4.277117 9.3480101-10.34231-14.54816-1.667852z" mask="url(#C)"/><path d="m25.7478933 144.768298 12.8021764 14.492072-2.6603518 13.620958 15.4022514 2.535909 6.0624144-24.277073-15.4563983-22.569487z" mask="url(#D)"/><path d="m15.8337922 154.711017 8.4857456 16.264864 7.9800335 1.314312 2.3385349-11.971446-11.4607625-12.972971z" mask="url(#E)"/><path d="m14.6495066 125.33258-10.93870418-11.655604-11.32794924-1.400914v16.294412l21.37578302 19.812487 5.5454643-5.423319-9.76994756-11.058559z" mask="url(#F)"/><path d="m14.252395 131.756101 7.6500436 8.659176 3.5992393-3.520115-8.3345427-8.881284z" mask="url(#G)"/><path d="m33.7144411 105.2989-5.0622284-.814058-1.4139504 10.596003-8.0903706 10.389177 8.8085839 9.446744 20.608531-23.865459-7.5775072-6.961778z" mask="url(#H)"/><path d="m11.8938359 117.689295 4.7455198 5.089138 7.1238988-9.148222 1.2974834-9.720814-9.2274565-1.481402z" mask="url(#I)"/><path d="m31.6043449 82.3649725-1.2259685 9.1869383 11.4587192-4.1477238 1.9666579-3.1788009v-10.3046129l-7.8952374-6.6367657z" mask="url(#J)"/><path d="m15.8337922 96.7054399 9.9058258 2.1171629 2.2946044-17.1971091.0367791-.1263369 4.7874071-16.7773443-8.5388708-7.1767543z" mask="url(#K)"/><path d="m29.3066756 99.5848018 4.4073569.9424332 5.0448605-8.1507718-8.9209644 3.2297432z" mask="url(#L)"/><path d="m67.1053287 11.4775089 5.0642717 14.2607936-28.1758218 13.2134195-3.5287461 12.3657392 30.7728318-15.6627263 14.6135449 6.4370718 18.4773888-11.2643662-20.6085308-23.22766115z" mask="url(#M)"/><path d="m39.1050247 56.0808739-1.7592648 6.1660587 6.4577892 5.4773184 38.2716727-23.3305646-10.7251814-4.7243909z" mask="url(#N)"/><path d="m29.1679368 20.331692-4.8487055 30.8659528 9.9824487 8.4666139 6.6478144-23.2918484 26.6923999-12.5185662-4.0998431-11.544549z" mask="url(#O)"/><path d="m61.5103148-4.27783054 4.157055 11.70960212 16.9806858-4.5919409 2.8912424-16.16399878h-23.0052995z" mask="url(#P)"/><path d="m58.8743803-13.3240662h-30.0076231l12.4251911 27.3468573 20.8567896-5.63931507-4.3470801-12.23838341z" mask="url(#Q)"/><path d="m121.0128-13.3240662h-30.9495759l-1.0686359 17.32650255 20.0456068 24.52261495h13.531628l5.492339-6.2995276-16.931647-18.12222155z" mask="url(#R)"/><path d="m127.392127 28.525255h25.750447l2.438656-1.5160435-15.033439-13.5740911z" mask="url(#S)"/><path d="m115.610365 3.57543781 14.854652 15.89807979 9.773013-11.21036733 18.55299 16.75085433 33.375972-20.74575122 8.552152-17.59242148h-75.527835z" mask="url(#T)"/><path d="m172.823149 37.6849902 2.82075 2.5471161 3.438841 12.3025707 11.910285-3.7167518 4.659702-7.2338097-12.176933-13.1971179z" mask="url(#U)"/><path d="m200.22988 41.1881918 10.909077 11.8226941h12.031859l6.909355-18.2098424-22.176749-5.5241854z" mask="url(#V)"/><path d="m158.273763 29.4406886-3.794372 2.282216 3.175258 29.2398739 17.993132-7.2093574-3.224297-11.5363982z" mask="url(#W)"/><path d="m161.525236 27.4845034 8.582802 7.749346 13.641964-11.9052206 13.935176 15.1003231 8.567477-13.3020591 25.12316 6.2587736 4.623945-12.1904976-41.42752-11.59549133z" mask="url(#X)"/><path d="m198.995738 72.5924012 3.499119 11.0228996 14.796419-15.107455 4.503391-11.869561h-10.555589z" mask="url(#Y)"/><path d="m180.138299 114.35512 5.296184 12.322948 22.733543-13.160439-6.772454-21.3438143z" mask="url(#Z)"/><path d="m212.514493 115.193835-25.637045 14.842555 1.279094 2.977069 45.439502 16.527727 5.745706-35.526156-31.131428-12.385098z" mask="url(#aa)"/><path d="m204.260558 89.1835004 2.531625 7.9775676 33.142016 13.184892 3.015883-18.6479466-22.450549-19.4579293z" mask="url(#ab)"/><path d="m162.41815 134.588799 1.030835 4.818125 18.20359-10.538947-4.186683-11.31429z" mask="url(#ac)"/><path d="m151.319866 147.151278 7.572399 11.500739 3.309093-7.697385-2.776819-12.978066z" mask="url(#ad)"/><path d="m155.95515 174.690901-4.737346 11.020862 11.54658 6.477826 29.400769-34.918924-2.651157-7.166566z" mask="url(#ae)"/><path d="m147.795921 151.140062-2.137272 31.453827 2.371228 1.330613 9.144703-21.274532-8.346802-12.677506z" mask="url(#af)"/><path d="m164.24801 143.137532 1.752114 8.186432-7.220955 16.796702 29.423245-21.556753-5.271665-14.242454z" mask="url(#ag)"/><path d="m143.655519 203.305203 8.84332 3.530303 2.95867-7.370335-8.665554-3.458984z" mask="url(#ah)"/></g><path d="m174.33671 106.65906 2.986255 2.767187 8.355997-8.995395-4.026285-2.5257205z" fill="#aed9ff" mask="url(#ai)"/><path d="m125.531413 56.4599867 2.869788 2.6581704 10.217426-13.9164235-4.796602-2.2822161z" fill="#aed9ff" mask="url(#aj)"/><path d="m97.0895562 62.4817767h6.1635568v-4.936311h-6.1635568z" fill="#aed9ff" mask="url(#ak)"/><path d="m121.336047 93.8309684-.181852 5.8247451 6.098171 2.4330055 2.958671-7.3693165-5.716078-2.2811972z" fill="#aed9ff" mask="url(#ak)"/><path d="m43.0917722 166.650674h6.1635568v-4.93733h-6.1635568z" fill="#aed9ff" mask="url(#ak)"/><path d="m43.0917722 158.159608h6.1635568v-4.93733h-6.1635568z" fill="#aed9ff" mask="url(#ak)"/><path d="m69.5746336 119.165808 3.8740606 3.324496 2.6777196-3.103407-3.8740606-3.324496z" fill="#aed9ff" mask="url(#ak)"/><path d="m66.0227985 123.283985 3.8740605 3.324496 2.676698-3.103406-3.8740606-3.324496z" fill="#aed9ff" mask="url(#ak)"/><path d="m62.4690222 127.401143 3.8750822 3.324496 2.676698-3.103406-3.8740606-3.324496z" fill="#aed9ff" mask="url(#ak)"/><path d="m96.819741 113.879523 6.273894 6.335187 4.02935-3.969426-6.490482-6.554239z" fill="#aed9ff" mask="url(#ak)"/><path d="m104.469069 111.668728 3.619673 3.655621 2.324232-2.290367-3.744313-3.780939z" fill="#aed9ff" mask="url(#ak)"/><path d="m106.817617 107.986311 3.61865 3.655621 2.324232-2.289348-3.744312-3.781958z" fill="#aed9ff" mask="url(#ak)"/><path d="m109.165244 104.304914 3.618651 3.654602 2.324232-2.289348-3.744313-3.781958z" fill="#aed9ff" mask="url(#ak)"/><path d="m107.723505 26.91344h5.647628v-3.6729414h-8.650229z" fill="#aed9ff" mask="url(#ak)"/><path d="m91.5828121 7.13345334v.03464078l2.9739953 3.63830068h.8510265 6.8531641v-3.67294146h-9.0425396z" fill="#aed9ff" mask="url(#ak)"/><path d="m100.33163 17.8711778 3.002601 3.6729415h6.334171v-3.6729415h-9.043561z" fill="#aed9ff" mask="url(#ak)"/><path d="m95.9427648 12.5023665 3.0026013 3.6729414h.1665274 6.8531645v-3.6729414h-9.04254z" fill="#aed9ff" mask="url(#ak)"/><path d="m53.4139165 66.0076986-1.6070405 5.7738027 10.6618397.4584809 6.8296664-6.4075252-2.0964062-6.9903054z" fill="#aed9ff" mask="url(#ak)"/><path d="m168.305557 140.788378 3.300921 8.93834 6.317824-3.78909-3.280487-8.820154z" fill="#aed9ff" mask="url(#ak)"/><path d="m207.857243 182.153238h9.358227v-4.023425h-10.843692z" fill="#aed9ff" mask="url(#ak)"/></g><g transform="translate(109.84715 12.093264)"><path d="m0 100.23667 95.653807-.2524522v-99.9842178l-95.653807 12.9004998z" fill="#1ac1f3" fill-opacity=".4"/><path d="m83.4457426 31.547845c0 1.051544-.8871074 1.996203-1.9779134 2.10207l-71.1529395 6.9536269c-.36767597.0356283-.72007455-.0773643-.98590122-.3196368-.30147393-.272811-.46748829-.672866-.46748829-1.1268723v-14.8834694c0-.9354975.70072319-1.7793793 1.56440521-1.8811745l71.1488655-8.841927c.080461-.0091616.1599034-.0132334.2383274-.0132334.4287855 0 .8198868.1394594 1.1193238.4051447.3310102.294188.5133205.7156199.5133205 1.1848956zm-1.9911539-18.9898859-71.1488654 8.8409091c-1.34848477.1598184-2.44540173 1.4485451-2.44540173 2.8746952v14.8834694c0 .7288533.29027051 1.4098628.79544304 1.868959.42063761.3817318.95432794.5843042 1.52162849.5843042.0774055 0 .156848-.0040718.2362904-.0122155l71.1509025-6.951591c1.5898676-.1557466 2.8823352-1.5462684 2.8823352-3.0986445v-16.4205762c0-.7593918-.301474-1.4454912-.8494232-1.932072-.5703561-.5069399-1.3311703-.7339431-2.1429093-.6372377z" fill="#fff"/><g fill="#f0feff" transform="translate(15.155685 15.790871)"><path d="m48.4772113 2.20742791v2.39422201l13.459385-1.73051761v-2.4532632z"/><path d="m41.866988 9.5905286 20.0694046-2.42476056v-2.45224525l-20.0694046 2.51230439z"/><path d="m25.5800628 5.25232454v2.29242686l17.8857555-2.29955252v-2.37182708z"/><path d="m.37531467 8.60240305v2.18147015l10.63510393-1.36710893-.0010185-2.22829591z"/><path d="m5.79899359 13.9476666 19.33914511-2.3361988v-2.29039097l-19.33914511 2.42170667z"/><path d="m48.4772113 12.972469 13.459385-1.5218376v-2.45224521l-13.459385 1.57986081z"/><path d="m23.3162584 19.8138159 38.620236-4.0677344v-2.4532632l-38.620236 4.2387502z"/><path d="m20.6556491 16.1187536 22.8101692-2.5794892v-2.3708091l-22.8101692 2.6802664z"/><path d="m.37531467 22.2304328 19.43284643-2.0471005v-2.2659601l-19.43284643 2.1326084z"/><path d="m29.2730165 11.1125697 9.2754158-1.12178255v-2.3484142l-9.2754158 1.16046475z"/></g><path d="m83.4457426 83.9246072c0 1.0423824-.8748855 1.953449-1.9524511 2.0359031l-71.1641429 1.4617784c-.36971295.0162872-.72414852-.0987413-.99506766-.3501753-.3045294-.2840085-.47258075-.6922071-.47258075-1.1492673v-36.3754802c0-.9304077.69461223-1.7488408 1.54709091-1.8262051l71.1529394-6.3520176c.0631466-.0061077.1252746-.0081436.1874027-.0081436.4491554 0 .8616451.1526928 1.1753409.4377192.3361027.3074214.5214685.7369969.5214685 1.2123803zm-1.972821-43.5520385-71.1539579 6.3509996c-1.3566327.1241901-2.45864213 1.3905218-2.45864213 2.8237976v36.3754802c0 .7268174.28823352 1.4129167.79136906 1.8811744.43489652.4051447.99099369.6229864 1.56236827.6229864.0529616 0 .1069418-.0020359.1609219-.0061078l71.1519209-1.4607604.0254624-.001018c1.5959785-.1129926 2.8945571-1.4739938 2.8945571-3.0345135v-40.9135081c0-.7593919-.301474-1.4526169-.8484047-1.9503952-.5662821-.5171193-1.3230224-.7644816-2.1255949-.6881352z" fill="#fff"/><g fill="#1ac1f3"><path d="m16.8289672 79.7732991c-.1945321.6993327-.9227546 1.1075312-1.6214408.9141204-.6986862-.1944287-1.1091389-.9222641-.9135882-1.6195609.1609218-.5822682.6915567-.9640001 1.2680237-.9640001.1161082 0 .2342534.0162873.3523986.0488617.6997047.1954467 1.1091389.9212461.9146067 1.6205789m-.3768424-3.5475612c-1.7640299-.4916705-3.5962988.5425682-4.0882309 2.3036244-.4909136 1.7620741.5428568 3.5954048 2.3068867 4.0860574.2963814.0824541.5958184.1221542.8891444.1221542 1.452371 0 2.7896523-.9619642 3.198068-2.4267964.4909136-1.7610562-.5438753-3.5943869-2.3058682-4.0850396"/><path d="m76.8912309 52.7886254c-.1945322.6993327-.9207177 1.1095671-1.6214409.9131025-.6997047-.1944287-1.1101574-.9212461-.9146067-1.6195609.1619404-.5822683.6915567-.9629821 1.2680238-.9629821.1171267 0 .2352719.0162872.353417.0488616.6986862.1944288 1.1091389.9212462.9146068 1.6205789m-.3768425-3.5485791c-1.7640298-.4896347-3.5973172.5425682-4.0882309 2.3046423-.4909136 1.7620741.5428568 3.5954048 2.3058682 4.0860575.2974.082454.5958184.1221541.8901629.1221541 1.452371 0 2.7886338-.9619642 3.198068-2.4278144.4909136-1.7610561-.5438753-3.5943868-2.3058682-4.0850395"/><path d="m57.756701 64.2912741-14.0195561-2.5632019-26.7222008 15.5950175 1.010345 1.7284817 26.0825872-15.2214293 14.114276 2.5805071 16.5423633-11.6382399-1.152934-1.636866z"/></g></g><path d="m239.849741 152.36531 136.049223.816037v-153.181347l-136.0482 17.6590386z" fill="#1ac1f3" fill-opacity=".4"/><path d="m172.328508 154.208412c-2.233025 0-4.049705-1.817544-4.049705-4.050381 0-2.233852 1.81668-4.051396 4.049705-4.051396 2.23404 0 4.05072 1.817544 4.05072 4.051396 0 2.232837-1.81668 4.050381-4.05072 4.050381m0-10.097013c-3.333797 0-6.046125 2.7121-6.046125 6.046632 0 3.333517 2.712328 6.046632 6.046125 6.046632 3.334812 0 6.04714-2.713115 6.04714-6.046632 0-3.334532-2.712328-6.046632-6.04714-6.046632" fill="#1ac1f3"/><path d="m283.183938 61.493218c-2.233853 0-4.050381-1.8166806-4.050381-4.0497051 0-2.2340399 1.816528-4.051736 4.050381-4.051736 2.232837 0 4.049365 1.8176961 4.049365 4.051736 0 2.2330245-1.816528 4.0497051-4.049365 4.0497051m0-10.0968449c-3.334532 0-6.046632 2.7123275-6.046632 6.0471398 0 3.3337969 2.7121 6.0461244 6.046632 6.0461244 3.333517 0 6.046632-2.7123275 6.046632-6.0461244 0-3.3348123-2.713115-6.0471398-6.046632-6.0471398" fill="#1ac1f3"/><path d="m252.403064 94.6741703-31.150697 2.8331711-46.907807 48.2311706 1.440819 1.396203 46.389072-47.6991867 31.249747-2.8423432 27.744196-33.8502796-1.554165-1.2688122z" fill="#1ac1f3"/><path d="m283.184444 37.2875648c-3.897114 0-7.05491 3.1951819-7.05491 7.1384339 0 6.7111117 7.05491 14.0247785 7.05491 14.0247785s7.053898-7.3136668 7.053898-14.0247785c0-3.943252-3.158809-7.1384339-7.053898-7.1384339" fill="#fff"/><path d="m283.183938 41.3186528c-2.227191 0-4.031088 1.8046578-4.031088 4.0305983 0 2.2269202 1.803897 4.0315779 4.031088 4.0315779 2.225231 0 4.031088-1.8046577 4.031088-4.0315779 0-2.2259405-1.805857-4.0305983-4.031088-4.0305983" fill="#1ac1f3"/><path d="m339.623096 152.524141c.027024.371442 1.079282 1.686403 1.310677 1.664713.578488-.055581.668006-.647991.700942-1.115683-.48137-.062359-.978785-.295527-1.428064-.591055-.23984-.189788-.630847-.608677-.583555.042025" fill="#e5cfba"/><path d="m342.967546 153.181381c-.730153.3844-1.472082.573549-2.128363.88473-.781542.363045-2.428133 1.357604-2.542687 1.427772-.323323.220674-1.164819.710835-1.39714.909137-.304052.259318-.391841.570499-.207697.915238.146672.277623.448583.312198.448583.312198.05246.627447 1.06204.138303 1.044911.235929-.245169 1.369806 5.384073-1.642345 6.472878-2.177251-.292275-.665073-1.651944-2.516905-1.690485-2.507753" fill="#e5cfba"/><path d="m361.679962 124.349831c-3.026679 5.767691-4.552727 17.353414-4.634062 17.741763-1.189524.945186-2.74709 2.274611-4.390057 3.679035-3.586874 3.062609-8.053182 6.875202-10.013356 7.76491l1.426413 2.669124c4.848583-2.317761 15.610221-8.97105 17.978086-12.378858 2.505119-3.502326 6.797574-13.835678 6.797574-17.596903 0-5.849881-5.561282-4.933461-7.164598-1.879071" fill="#e5cfba"/><path d="m381.582201 103.96867c-.020245-.284428.281403-.602259.241926-.881627-.04049-.282404-.419069-.504075-.478791-.780406-.060735-.278355.192326-.636674.113371-.906932-.079967-.274306-.486889-.438282-.586088-.702467-.0992-.267221.100212-.656918-.017209-.9150289-.118432-.2591233-.544586-.3623678-.680227-.6103569-.13564-.2490013.005061-.6650156-.148799-.9028827-.152849-.2388793-.589126-.2813917-.759182-.5091368-.17107-.2257207-.09009-.6569181-.276343-.8715046-.18524-.2145864-.623541-.1943424-.823965-.3957703-.200424-.2004157-.181192-.6386985-.395787-.8239311-.214596-.1862449-.643787-.1052689-.871541-.2753185-.227755-.1700497-.270269-.6052959-.508146-.7601625-.238889-.1528423-.652897-.0111342-.903933-.1477813-.247999-.1356349-.351248-.5617712-.610382-.6801987-.25711-.1174152-.647836.0819883-.914056-.0182196-.265207-.0981834-.42919-.505088-.702496-.5850518-.271281-.0789516-.628603.1740985-.90697.1143786-.276342-.060732-.497011-.4392949-.780439-.4787707-.278366-.0404881-.597223.2621599-.881663.2409036-.280391-.0192318-.552685-.3633799-.839149-.3633799-.285453 0-.558758.3441481-.83915.3633799-.285452.0212563-.603296-.2813917-.882675-.2409036-.282416.0394758-.503085.4180387-.780439.4787707-.278367.0597199-.635689-.1933302-.90697-.1143786-.273306.0799638-.438301.4878806-.701484.5850518-.267232.1002079-.657958-.0981834-.915068.0192318-.259134.1184275-.363395.5435516-.611394.6801987-.249012.1366471-.664032-.0060732-.902921.1477813-.238889.1538544-.281403.5901128-.508146.7601625-.226742.1700496-.657958.0890736-.872553.2753185-.213583.1852326-.194351.6235154-.395787.8239311-.200424.2004157-.638725.1811839-.823966.3957703-.186252.2145865-.104261.6457839-.274317.8725168-.170057.2267329-.606334.2692453-.761207.5081246-.152849.2378671-.010122.6528692-.147787.9028827-.135641.2479891-.561795.3512336-.680227.6103569-.117421.2581107.081991.6478087-.017209.9150287-.099199.264185-.506121.428161-.586088.702468-.078955.270257.174106.628576.114383.906931-.060734.276331-.438301.49699-.478791.779394-.040489.279368.262171.597199.241927.881627-.020245.281392-.363396.553674-.363396.839114 0 .286453.343151.558735.363396.840126.020244.284429-.282416.60226-.241927.881627.04049.283416.419069.503064.478791.780406.059723.278356-.193338.635662-.114383.906932.079967.274306.487901.438283.586088.703479.100212.266209-.099199.655906.018221.914017.118432.259124.543574.362368.680227.611369.136653.250014-.005061.664004.147787.901871.154874.238879.590138.281392.760195.508124.171069.227746.089077.657931.27533.872517.18524.214587.623541.195355.823965.395771.201437.200415.182204.638698.396799.823931.214596.186245.644799.104256.871542.275318.227754.17005.269256.605296.508145.760163.23889.152842.653909.012146.902921.147781.247999.135635.35226.561771.611395.680199.257109.117415.647835-.081989.915067.018219.263183.098184.428179.505088.701484.585052.271281.079964.628603-.174098.90697-.113366.276342.059719.497011.438282.779427.47877.279379.039476.597223-.26216.882675-.241916.280392.020244.553697.36338.83915.36338.286464 0 .558758-.343136.839149-.36338.28444-.020244.603297.281392.881663.241916.283428-.040488.504097-.419051.780439-.47877.278367-.060732.636701.192318.90697.113366.274318-.079964.438301-.486868.703509-.586064.26622-.099196.656945.100208.914055-.017207.259134-.118428.362383-.544564.611395-.680199.250023-.136647.665043.004049.90292-.148794.237877-.153854.280391-.590112.508146-.760162s.657958-.089074.871541-.275319c.214595-.185232.195363-.623515.395787-.823931.200424-.200415.638725-.181184.823965-.39577.186253-.214587.105274-.644772.275331-.872517.171069-.226733.607345-.269245.760194-.508124.153861-.237867.012147-.651857.147787-.902883.136653-.247989.561795-.351234.680227-.610357.117421-.258111-.081991-.647808.018221-.914017.098187-.265196.505109-.429173.585076-.702467.079967-.27127-.174106-.629589-.113371-.906932.059722-.277342.438301-.49699.478791-.780406.039477-.278355-.262171-.597198-.241926-.881627.020245-.281391.363395-.553673.363395-.840126 0-.28544-.34315-.557722-.363395-.839114" fill="#1a2982"/><path d="m360.313014 161.243523c-.225283 1.596643-1.280068 16.177189.375819 36.080219 1.425413 17.133323 5.791972 32.800573 5.791972 32.800573.032183.122344 2.305784 1.347842 3.45089.098698.845073-17.250527-.893868-27.531549.853378-33.945879 5.58849-20.515779 8.137207-33.51716 8.137207-33.51716-5.637284.364976-16.740553-.705278-18.609266-1.516451" fill="#114dd3"/><path d="m385.906755 193.616992c.945189-11.607953 2.3562-15.162366 1.545442-38.420101-5.610695.796784-20.702464 3.690101-22.637654 3.031045-.097958 1.60173 6.542337 20.921453 11.005674 40.215671 3.833906 16.574337 8.373317 31.837704 8.373317 31.837704.041684.119365 2.4156 1.155899 3.461873-.168334 1.476664-22.566033-2.42081-28.248604-1.748652-36.495985" fill="#2560f2"/><path d="m372.95073 111.862694c-.35252.297756-4.03525 2.666498-5.113942 2.53655.01921.316173.856806 3.638552.224767 5.467037.357323 1.664771 4.717238 1.507196 5.821865-1.37827-.5283-.790945-1.09118-5.072077-.93269-6.625317" fill="#e5cfba"/><path d="m368.285458 105.821011c-2.081199-.06372-4.072569.474472-4.460144 2.394904-.139285.68916.39565 6.832781 3.812166 7.64546 1.444324.34409 4.101839-2.129239 4.155333-3.750677 0 0 .071661-2.211585.07267-2.233152.068633-2.150807-1.344402-3.987913-3.580025-4.056535" fill="#e5cfba"/><path d="m378.037253 118.994039c-1.145394-.417671-4.749146-1.084713-4.749146-1.084713s-2.406247 2.446505-4.059456 2.446505c-2.269332 0-2.133437-1.063162-2.133437-1.063162s-3.053022.871259-3.777451 1.329978c-2.808821 1.778436-2.54725 6.028006-2.54725 9.212361 0 5.341465-2.003674 25.103349-2.003674 37.126521 2.533968 3.439883 13.787644 5.077727 24.080865.668068l.259527-11.387943 2.246853 19.89016c.956368.278106 1.994477.38278 2.591186-.159063 2.753646-30.44892.340246-53.237121-9.908017-56.978712" fill="#1e41d3"/><path d="m374.015012 117.909326s-2.701161 2.306407-4.410102 2.306407c-1.681497 0-1.987607-.897052-1.987607-.897052s-2.883772.795637-3.811604 1.304803c.375777 3.397924 3.403105 7.363563 3.403105 7.363563s7.035263-6.517742 11.713476-8.972611c0 0-1.082998-.480937-2.397162-.697359-.596388-.097233-2.510106-.407751-2.510106-.407751" fill="#5f8dff"/><path d="m371.9126 108.86046c-.234251-.04092-.682053-.033382-1.052496.123837.052298.834552.312698 2.202141.440174 2.878397.601426-.055995 1.456716-.806554 1.559133-1.378357.107864-.607338-.334489-1.518346-.946811-1.623877" fill="#e5cfba"/><path d="m354.736771 155.196891c0 .002985-.00102.00398-.00102.006964 0 .550146.461994 1.000808 1.026993 1.000808h24.150127c.563979 0 1.024953-.450662 1.024953-1.000808v-.006964z" fill="#c0edff"/><path d="m352.598125 133.427958c-.2331-.845894-1.013568-1.426471-1.890814-1.404621l-15.119228-.005202v23.923292l20.878041.263236c1.277887 0 1.353852-.988437 1.268521-1.330748z" fill="#c0edff"/><path d="m351.257866 132.468576c-.072499-.266312-.314853-.450441-.588279-.450441h-26.562659c-.403924 0-.698063.386984-.589315.777089l4.980693 21.18948c.362496 1.311794 1.551482 2.219959 2.907217 2.219959h24.733609c.404959 0 .698063-.385944.589314-.77813z" fill="#fff"/><path d="m367.837321 138.064767c-2.604522 0-4.748105 2.203005-5.039394 5.03886h10.077721c-.291289-2.835855-2.434871-5.03886-5.038327-5.03886" fill="#fff"/><path d="m363.024644 145.119171h9.624287c.111762-.322234.192656-.658685.226717-1.007772h-10.077721c.035126.349087.114955.685538.226717 1.007772" fill="#fff"/><path d="m363.434227 148.142487h7.796278c.244236-.310928.462763-.642889.637371-1.007772h-9.069949c.173537.364883.393135.696844.6363 1.007772" fill="#fff"/><path d="m367.837298 150.158031c1.144646 0 2.193396-.37936 3.022806-1.007772h-6.046632c.830429.628412 1.878159 1.007772 3.023826 1.007772" fill="#fff"/><path d="m353.732032 152.524141c.027022.371442 1.079213 1.686403 1.310594 1.664713.577607-.055581.667964-.647991.700897-1.115683-.481339-.062359-.978723-.295527-1.427973-.591055-.239825-.189788-.631652-.608677-.583518.042025" fill="#e5cfba"/><path d="m356.068582 153.181381c-.730153.3844-1.472082.573549-2.128363.88473-.781542.363045-2.428132 1.357604-2.542687 1.427772-.323323.220674-1.164818.710835-1.39714.909137-.304052.259318-.391841.570499-.207697.915238.146673.277623.448583.312198.448583.312198.05246.627447 1.063111.138303 1.044911.235929-.245169 1.369806 5.384073-1.642345 6.472878-2.177251-.292275-.665073-1.651943-2.516905-1.690485-2.507753" fill="#e5cfba"/><path d="m374.781276 124.349831c-3.026561 5.767691-4.55255 17.353414-4.633882 17.741763-1.189478.945186-2.746983 2.274611-4.389886 3.679035-3.586735 3.062609-8.05287 6.875202-10.013985 7.76491l1.427374 2.669124c4.848395-2.317761 15.610633-8.97105 17.977389-12.378858 2.505021-3.502326 6.79731-13.835678 6.79731-17.596903 0-5.849881-5.562082-4.933461-7.16432-1.879071" fill="#e5cfba"/><path d="m369.938619 227.475552c-.507521.152177-2.456357.1293-2.898459.05172-.021103-.257607.035875-.672364-.140333-1.03739-.46426-.114381-1.352684-.701208-1.831716-.748949.179373.881234.428385 5.448533-.514906 6.110951-1.149043.807632-3.333175.831503-3.677149.831503-1.733588 0-2.109217.931959-2.109217 1.292012 0 .607714.419944.835482.895811.835482 2.102886 0 6.961787-.020887 8.424205-.020887.89581 0 1.801117.106424 2.549208-.713143.262729-.289435.284887-.810616.116065-1.276099-.205751-.569918-.744926-3.977489-.813509-5.3252" fill="#1a2982"/><path d="m387.702339 226.307778c-.499143.196024-2.453326.287073-2.901602.22923-.037091-.27529-.007418-.725181-.207711-1.106517-.47159-.095334-1.398873-.674836-1.88212-.69733.235265.936201.77044 5.834654-.13247 6.601611-1.102142.936201-3.290531 1.093663-3.63601 1.114015-1.739054.102832-2.05592 1.126869-2.034725 1.514632.039211.652342.474769.873003.951658.845152 2.107848-.126398 6.97847-.439179 8.445167-.525943.896551-.052488 1.813236.007498 2.511613-.919063.244803-.326706.233146-.887999.036032-1.378594-.241624-.599854-.995108-4.231115-1.149832-5.677193" fill="#1a2982"/><path d="m40.2238041 200.407703c-2.0837183-.831611-3.9364775 1.008572-4.9824064 2.808863-.8058129 1.386019-1.4651144 2.900922-2.8651126 3.81948-.5321214.349829-1.1588647.563613-1.7968.547247-2.3431655-.061374-2.9882228-2.699413-2.2271773-4.511978.6369178-1.521041 1.9545033-2.629856 3.1194727-3.798 3.0584263-3.066631 5.3161268-6.919866 6.4922881-11.082015.7417142-2.627811 1.009301-5.659664-1.000144-7.782165-1.0428766-1.103701-2.6555199-1.57014-4.0667099-1.002435-1.7316838.694544-2.0592997 2.376179-2.3329912 3.922792-.2279067 1.29089-.5138074 2.67691-1.62587 3.476811-.7132258.514515-1.6991257.593278-2.3675841.022504-.6735456-.575888-.5931678-1.439209-.547383-2.224791.2940403-4.917043-1.4335737-9.925124-4.6995579-13.625949-1.7835733-2.022258-4.8419995-3.732534-7.0335665-1.900534-.5626446.469508-.9533418 1.12109-1.1649694 1.821771-.5097377 1.684704-.1241277 3.372476.2584299 5.019333l2.0908403 9.009636c.1994184.858207-.7651153 1.509789-1.4915678 1.008572l-6.24606752-4.309446c-.57892367-.400973-1.24941699-.673063-1.95348584-.717047-2.30653772-.143205-2.96278687 1.851435-2.99025776 3.557619-.06002899 3.757084 1.94025912 7.308566 4.5998487 9.974224 2.66162442 2.66668 5.95711442 4.596878 9.17019162 6.569015.9991266.611689 2.0430206 1.284752 2.4011597 2.46517.2034881.671018.0630813 1.43205-.4659878 1.894397-.8933128.777398-2.1457821.24038-3.0726704-.373356-2.8701998-1.901557-5.2581328-4.582558-8.75304103-5.385528-1.24026002-.285387-2.5547932-.234242-3.73298935.245494-3.66889061 1.493423-3.47761178 5.42849-1.73880589 7.951965 1.83037554 2.660543 4.56423828 4.406621 7.15769422 6.247827 5.20827815 3.696733 12.44940255 10.36906 19.44125395 8.255764 4.0931633-1.233608 7.690833-4.357521 10.2883588-7.656349 1.9158405-2.431415 3.2995596-5.259713 3.9680181-8.28236.3316856-1.527178.4883714-3.156646-.3154066-4.593809-.3398251-.607598-.8688942-1.11393-1.5170038-1.372722" fill="#1e41d3"/><path d="m20.3169586 181.402385c-.1083671.019467-.1780317.115774-.1581275.215155 3.4047187 16.41427 4.4209372 33.228113 3.0243279 49.971263-.0088463.10143.0740878.189541.1824549.197737.005529.001025.0110579.001025.015481.001025.1028382 0 .1890896-.074792.1979359-.170075 1.3988208-16.775935.3792851-33.622564-3.0309626-50.068595-.0199042-.100405-.124954-.165976-.2311096-.14651" fill="#5f8dff"/><path d="m34.145981 184.43426c-.0940326-.035804-.2003304.011253-.2371257.106389-.7962112 2.082768-1.6997422 4.443785-3.0335747 6.478473-1.0180055 1.55287-2.7647639 3.604949-5.3046672 4.568588-3.157248 1.198921-7.2282479.444992-10.6267101-1.967173-3.1112537-2.207571-5.37110329-5.34093-7.55736209-8.371992-.05928145-.081838-.17375596-.101274-.25552347-.040919-.08278961.058309-.1011873.173905-.04190585.255742 2.20465649 3.054591 4.48290371 6.213525 7.64219591 8.456899 2.3927218 1.698132 5.1145578 2.595277 7.643218 2.595277 1.1672312 0 2.2935787-.191295 3.3258935-.584116 2.6329139-.99842 4.4338433-3.1129 5.4814895-4.709757 1.3563186-2.06947 2.2659821-4.449923 3.07037-6.550082.0357733-.094113-.011243-.200502-.1062978-.237329" fill="#5f8dff"/><path d="m37.1944848 206.995271c-.0876914-.049718-.1998549-.018264-.2487989.068996-1.71916 3.044968-4.5089712 7.260844-8.8792676 8.711795-3.7289253 1.239904-8.2960176.280044-12.2156207-2.565038l-.7494559-.542839c-3.3230975-2.405738-6.46061545-4.678556-9.74904425-8.036037-.07035708-.071026-.18557954-.073055-.25797596-.003044s-.07443575.185681-.003059.257721c3.30780248 3.379804 6.45959581 5.660739 9.79492931 8.075609l.7494558.542839c2.8540503 2.071917 6.0517287 3.165711 9.0413948 3.165711 1.2154441 0 2.3962194-.180607 3.5056181-.548926 4.4895975-1.492552 7.3334511-5.781482 9.0811618-8.879212.0499637-.088275.018354-.198872-.0693375-.247575" fill="#5f8dff"/><path d="m44.1911037 202.277209c-.4195952-.132486-.871387-.12739-1.299291-.027516l-4.615547 1.069058c-.5369572.125352-.9492821-.464719-.6377015-.911095l3.276789-4.694074c.5992733-.857081 1.2099713-1.737602 1.2982524-2.816852.0373897-.449433-.0405054-.910076-.2596505-1.304476-.8547693-1.540912-3.0244087-1.246385-4.5231113-.488159-2.7450249 1.388044-4.8949309 3.871643-5.8483674 6.753719-.1526745.461662-.3043104.973261-.8277658 1.151608-.5193009.178346-1.0739144-.087645-1.3709545-.542173-.4632165-.70829-.3115806-1.56639-.1485201-2.356209.1942186-.947783.0955514-2.327674-.459062-2.770992-.5078764-.403572-1.9837297-.56867-2.593389-.33631-1.145578.437203-2.1914501 2.563091-2.3607422 4.23445-.2689979 2.647678.1620219 5.36058 1.2380135 7.803414.4102477.930458.9212399 1.860917.9451277 2.873923.0270037 1.209698-.9513593 2.575321-2.3275069 2.086142-.3749353-.133505-.6896317-.396438-.9191627-.715423-.6034277-.839756-.6397788-1.85582-.7914146-2.83112-.1962958-1.26473-.8516536-2.734303-2.2537662-2.724112-.4362128.003057-.8578852.17427-1.1954308.445356-.7966077.644085-1.0770302 1.612251-1.2338591 2.562072-.3032718 1.881298-.1454043 3.810496.4102477 5.632685.7561022 2.472389 2.1322498 5.068092 4.2302257 6.692572 3.5800608 2.777106 9.2217464 1.425751 13.094693.474911 1.9286838-.472873 4.0090034-1.711106 5.6821911-2.825006 1.5880224-1.056829 2.5996206-3.267304.8080323-4.945797-.5743468-.538096-1.3273332-.861158-2.1135549-.976318-2.2153379-.323062-4.2156852.677716-6.3198927 1.124091-.678207.144715-1.528822.171212-1.870522-.474911-.2025274-.38319-.1090532-.849947.1620219-1.190334.4787954-.596186 1.239052-.745997 1.9608804-.873387 2.3181595-.410706 4.6747472-.77759 6.8308848-1.709067 2.1561376-.930458 4.1315585-2.51825 4.9562084-4.683883.3738967-.983452.4497146-2.272641-.9243557-2.706787" fill="#3369f0"/><path d="m36.1730292 199.573837c-.106719-.066717-.2486755-.03538-.31613.07177-5.4144806 8.642775-9.6772012 18.001233-12.6683544 27.814573-.0362442.120291.0312102.24968.1520242.287082.0130882.004043.0251696.006065.0382578.007075.1077258.015163.2144448-.051553.2476687-.159714 2.9800786-9.774928 7.2246771-19.095984 12.6180153-27.70439.0674545-.10715.0352374-.248669-.0714816-.316396" fill="#76abff"/><path d="m41.978321 204.859451c-1.8606951 1.219101-3.7858255 2.479172-5.9667147 3.034763-2.3642822.601556-4.7374862.145892-6.1897602-1.191122-1.1687583-1.075208-1.6763107-2.586094-1.8963823-3.6633-.2894635-1.424949-.2736025-2.941831-.2587328-4.278846.0019827-.125907-.0971487-.231829-.2230455-.22983-.1239141-.000999-.2260194.099926-.2270107.225833-.0148697 1.359998-.0327133 2.901861.2676546 4.374775.2329586 1.142159.775207 2.747975 2.0331835 3.90712.8822689.810403 2.0718448 1.323025 3.3932654 1.500894 1.0190701.1359 2.1174452.072946 3.2118551-.20385 2.2532551-.574576 4.2091162-1.855632 6.1015333-3.095718.1040879-.068949.1338273-.209845.0654266-.314768-.0664179-.103923-.2071844-.133901-.3112723-.065951" fill="#76abff"/><path d="m38.9748254 216.316884c-2.6229894 1.185253-4.9188695 1.785928-7.3502808 2.423832l-.5462014.14388c-2.8359672.747575-5.6107925.294804-7.4216131-1.2094-2.1267207-1.765806-2.7534256-4.75711-3.0397738-6.852935-.0163045-.124764-.1334932-.211293-.2608723-.196201-.12636.016099-.2150158.131807-.1987113.257576.2965385 2.170281.9507573 5.273269 3.2007809 7.140696 1.0343179.860264 2.358041 1.397552 3.8234096 1.589728 1.2646192.166016 2.6352179.076468 4.0170258-.287761l.5451824-.142874c2.4507729-.642934 4.7660146-1.250653 7.4236512-2.450998.1171887-.05232.1681403-.188152.1141316-.30386-.0519707-.113695-.1905591-.166016-.3067288-.111683" fill="#76abff"/><path d="m26.1407553 214.10195c-.2034269-.134016-.448766-.207115-.6910382-.183764-.7789514.07513-1.0570023.939124-1.0927809 1.661995-.0276007.556367.0112447 1.129994-.2749842 1.635598-.108358.193916-.2678284.36042-.4681886.455855-.7360171.354329-1.3595871-.35839-1.4147884-1.04065-.0470233-.570581.1829821-1.123902.3557416-1.670117.4559217-1.43559.5377014-2.98692.2330721-4.460075-.1921822-.931001-.5969916-1.911751-1.5599473-2.247805-.5009005-.175641-1.0754027-.062946-1.4209218.337069-.4262766.491391-.2565837 1.061971-.0940466 1.58382.1369809.436565.2708951.90968.0552013 1.334063-.1390255.273107-.4313878.45484-.7309059.383771-.3005403-.070053-.4140096-.350268-.5264566-.601039-.698194-1.566559-2.0383584-2.840722-3.645329-3.466127-.877087-.34113-2.0996931-.382756-2.4850798.533016-.0981356.233512-.1155138.497482-.0674682.748253.112447.602054.502945 1.061971.8852649 1.51072l2.0956042 2.452889c.1993379.234527.0051112.588855-.3005403.54926l-2.6281943-.3391c-.2432945-.030458-.494767-.008122-.7196611.090359-.7380616.322856-.6215255 1.043696-.3557416 1.575697.5847247 1.17162 1.7746189 1.951346 3.0278924 2.351362 1.2532735.402047 2.5832155.474131 3.8968015.572612.4078761.030458.8392639.072084 1.1398042.380725.170715.175642.2504502.43352.1604926.659925-.1523147.381741-.6266368.41626-1.0130457.373619-1.1950055-.13097-2.3654771-.580734-3.5778608-.273107-.4303655.109649-.8290414.335038-1.1162925.670077-.8975319 1.045727-.2064937 2.23156.7370393 2.735134.9956675.532 2.1232048.636573 3.2221191.79394 2.2080512.313718 5.5231947 1.225429 7.3509704-.541139 1.0702915-1.032528 1.6836391-2.57066 1.9596455-4.005234.2024047-1.05588.1768485-2.150339-.1012024-3.19099-.1420922-.525909-.3557416-1.053848-.8351749-1.370612" fill="#b0e3ff"/><path d="m16.4547864 210.6951c-.0630702-.079861-.1791996-.094835-.2592888-.030946-.0800892.061892-.0951059.17769-.0320356.25855 3.5229232 4.486192 6.4411731 9.433582 8.6756616 14.706406.0300334.070876.1001115.112803.1731928.111805.0230257 0 .0470524-.004991.069077-.013975.0941048-.038933.1381538-.147743.0981092-.24158-2.2465018-5.302772-5.1827717-10.279111-8.7247162-14.79026" fill="#fff"/><path d="m21.8079229 209.617328c-.1090145.011672-.1859659.100184-.1742095.199396.0919142.731441.1966536 1.562095.1090145 2.353842-.0651949.596241-.2768112 1.44343-.9116603 2.091223-.787683.805364-2.1834958 1.184702-3.6402284.991142-1.3509245-.178969-2.5981784-.759649-3.8026815-1.320875-.097258-.045715-.2169602-.010699-.2650548.077813-.0502321.08754-.0117564.196478.0855016.242193 1.2333598.573871 2.5084017 1.16914 3.9255899 1.355891.3099431.041824.6177487.059332.9159353.054469 1.2483227-.019453 2.358774-.429917 3.0759183-1.161358.7053878-.71977.9383795-1.644772 1.0099871-2.29451.0919141-.830653-.0160316-1.68076-.1100833-2.431655-.0117565-.097266-.1122208-.166325-.2180289-.157571" fill="#fff"/><path d="m26.011077 215.663538c-.1055862-.006375-.1994406.081805-.2026402.190171-.0405281 1.256834-.2229043 3.063996-1.356623 4.230525-.9641408.994417-2.5564664 1.424694-4.2597108 1.154841l-.3359561-.05312c-1.471808-.231606-2.8625598-.450463-4.4794155-.99548-.1034531-.033997-.214372.020186-.2495674.12324s.020264.213544.1237172.247542c1.6488515.556703 3.0545347.778747 4.5434071 1.012478l.3359561.052058c.3914156.062683.7774986.090305 1.1529163.082868 1.3822196-.02231 2.6236576-.498271 3.4523494-1.351388 1.2275732-1.26427 1.4248807-3.169174 1.4664753-4.490815.0031996-.109428-.0821226-.199733-.1909084-.20292" fill="#fff"/><path d="m31.4762437 222.717617h-13.5719846c-.4947048 0-.8618766.49394-.7528564 1.013297l.5039612 2.372463c.079194.377914.3918556.645328.7518279.645328h12.5661192c.3610008 0 .6726339-.267414.7528563-.645328l.5029328-2.372463c.1100487-.519357-.2571231-1.013297-.7528564-1.013297" fill="#1ac1f3"/><path d="m20.2307386 233.959243c.0734285.489447.5099201.851638 1.0239195.851638h7.878265c.5150193 0 .9515108-.362191 1.0249393-.851638l1.0830702-7.210538h-12.0932642z" fill="#1ac1f3"/><path d="m187.445596 226.748705h36.587447v-5.222106h41.010998v-1.832298l-77.598445.001086z" fill="#1e41d3"/><path d="m232.795337 226.748705h15.11658v-7.054404l-15.11658.001086z" fill="#1e41d3"/><path d="m287.294282 195.657334c-.34502-.207849-3.119518-.376598-3.630394-.442451-5.419996-.697633-4.310197-3.738199-18.619847-3.738199v34.264249l29.225389-2.352195c-.006143-1.28105-.138213-2.625897-.138213-3.929584 0-7.081278-2.555404-21.23869-6.836935-23.80182" fill="#1e41d3"/><path d="m277.137306 219.694301v13.101036h15.452544c1.349337 0 1.671476-1.607907 1.671476-2.670068 0-1.062162.018234-6.106904 0-10.169094z" fill="#1e41d3"/><path d="m293.261658 226.103656 2.015544.645049v-7.026265l-2.015544-.028139z" fill="#e1f6ff"/><path d="m280.160622 201.554404v12.850846c0 1.656042 1.222898 3.053765 2.851774 3.259018l8.090782 1.02226h.094298l.048638-.096118c0-4.673763-1.414472-11.990785-3.605167-17.036006z" fill="#3369f0"/><path d="m289.23057 200.546632c.058255.184855.403968 1.099784.461269 1.280485.807936 2.591088 1.507002 4.828043 1.90142 7.557252l.157577.742536 1.510822.497447c-.55295-3.899612-1.530878-7.433668-2.43909-10.07772z" fill="#e1f6ff"/><path d="m289.863534 207.784221c-.047628-.194586-.097326-.3912-.14806-.585787-.007248-.025337-.012425-.04966-.020708-.073983-.105609-.398295-.219501-.794563-.33857-1.188804-.007247-.02331-.014495-.044593-.020707-.066889-.120105-.394241-.246421-.787468-.377915-1.18779-.010354-.026351-.017601-.052701-.02692-.079051-.130458-.393228-.266093-.791522-.406905-1.195898-.014495-.043579-.028991-.086145-.043486-.128711-.065229-.191546-.132529-.381066-.199829-.576666-.095255-.277692-.193616-.558424-.293013-.84625l-.102503-.299988h-6.716524v6.334205c.806563.064862 1.568604.112496 2.023137.155062 1.065408.100333 2.27577 1.572909 2.27577 1.572909h4.771041c-.104574-.628353-.229855-1.231369-.372738-1.825264 0-.001014-.001035-.005068-.00207-.007095" fill="#e1f6ff"/><path d="m239.849741 230.779793 35.272021-.001029v-7.053375h-35.272021z" fill="#1e41d3"/><path d="m281.899171 218.686528h-5.562749c-2.727017 0-5.245748 5.966548-5.245748 8.363775v3.72949l16.124352-.13259v-3.5969c0-2.577549-2.807283-8.363775-5.315855-8.363775" fill="#1e41d3"/><path d="m281.455524 220.702073h-4.458969c-2.436259 0-4.898109 4.68298-4.898109 6.565664v2.946639l9.974332.519123 2.332872 1.054066h1.801604v-4.519828c0-2.024083-2.510985-6.565664-4.75173-6.565664" fill="#002ca7"/><path d="m279.153341 222.717617c-3.339222 0-6.047123 2.708121-6.047123 6.04565 0 3.340474 2.707901 6.047614 6.047123 6.047614 3.338239 0 6.046141-2.70714 6.046141-6.047614 0-3.337529-2.707902-6.04565-6.046141-6.04565" fill="#1a2982"/><path d="m283.705099 214.65544h-1.042322c-.269583 0-.486611.225741-.486611.503886 0 .277138.217028.503886.486611.503886h1.042322c.268609 0 .486611-.226748.486611-.503886 0-.278145-.218002-.503886-.486611-.503886" fill="#1e41d3"/><path d="m276.822626 201.554404h-3.475784c-.873175 0 .789524 5.839599 2.429665 5.967318.344007.026355.656996.050682.947428.07501.767906.063859 1.421143-.590954 1.421143-1.422142v-3.192976c0-.788615-.592143-1.42721-1.322452-1.42721" fill="#e1f6ff"/><path d="m279.15285 225.740933c-1.669984 0-3.023316 1.353106-3.023316 3.022812 0 1.668697 1.353332 3.02382 3.023316 3.02382 1.668975 0 3.023316-1.355123 3.023316-3.02382 0-1.669706-1.354341-3.022812-3.023316-3.022812" fill="#3369f0"/><path d="m201.044528 219.694301c-4.727308 0-8.560072 3.827423-8.560072 8.546916v3.546348h17.132124l-.010982-3.546348c0-4.719493-3.832764-8.546916-8.56107-8.546916" fill="#1e41d3"/><path d="m201.045062 220.702073c-4.171768 0-7.552834 3.378671-7.552834 7.546261v3.539231h15.11658l-.010913-3.539231c0-4.16759-3.381066-7.546261-7.552833-7.546261" fill="#002ca7"/><path d="m200.546632 222.717617c-3.338511 0-6.046632 2.708121-6.046632 6.04565 0 3.340474 2.708121 6.047614 6.046632 6.047614 3.340475 0 6.046632-2.70714 6.046632-6.047614 0-3.337529-2.706157-6.04565-6.046632-6.04565" fill="#1a2982"/><path d="m200.546632 225.740933c-1.668975 0-3.023316 1.352323-3.023316 3.022307 0 1.668976 1.354341 3.024325 3.023316 3.024325 1.669984 0 3.023316-1.355349 3.023316-3.024325 0-1.669984-1.353332-3.022307-3.023316-3.022307" fill="#3369f0"/><path d="m249.927461 230.779793h20.155441v-9.069948h-20.155441z" fill="#002ca7"/><path d="m251.943509 230.779793h1.006764v-9.069948h-1.006764z" fill="#1e41d3"/><path d="m267.060089 230.779793h1.006765v-9.069948h-1.006765z" fill="#1e41d3"/><path d="m191.476684 218.686528h40.310881v-34.264248h-40.310881z" fill="#ebfaff"/><path d="m231.787565 218.686528h20.15544v-34.264248h-20.15544z" fill="#d2f4ff"/><path d="m191.476684 205.585492h33.612068l6.698813-21.163212h-40.310881z" fill="#c0edff"/><path d="m231.96012 184.3737 6.510399 28.266196h13.472486v-29.225388h-20.15544z" fill="#bae3f7"/><path d="m183.414508 198.531088h41.598434l6.774623-14.108808h-40.339706z" fill="#ebfaff"/><path d="m231.787565 184.42228 6.082679 17.132124h20.119393l-6.083702-17.132124z" fill="#d2f4ff"/></g></svg>