<svg height="210" viewBox="0 0 272 210" width="272" xmlns="http://www.w3.org/2000/svg" xmlns:xlink="http://www.w3.org/1999/xlink"><linearGradient id="a"><stop offset="0" stop-color="#ff8a4b"/><stop offset="1" stop-color="#ffa864"/></linearGradient><linearGradient id="b" x1="88.873185%" x2="-17.62582%" xlink:href="#a" y1="97.837959%" y2="-31.66021%"/><linearGradient id="c" x1="89.952022%" x2="-22.853809%" xlink:href="#a" y1="97.203199%" y2="-36.075595%"/><linearGradient id="d" x1="89.883514%" x2="-25.641927%" xlink:href="#a" y1="90.948643%" y2="-27.678399%"/><linearGradient id="e" x1="192.85147%" x2="-70.455909%" xlink:href="#a" y1="60.106507%" y2="43.836444%"/><linearGradient id="f" x1="72.774105%" x2="4.208211%" xlink:href="#a" y1="84.510463%" y2="-19.397427%"/><linearGradient id="g" x1="178.280903%" x2="-68.555935%" xlink:href="#a" y1="56.979547%" y2="41.510062%"/><linearGradient id="h" x1="123.130426%" x2="22.131206%" xlink:href="#a" y1="141.309653%" y2="15.198252%"/><linearGradient id="i" x1="155.387263%" x2="34.275474%" xlink:href="#a" y1="170.788609%" y2="32.690344%"/><mask id="j" fill="#fff"><path d="m.49692505 0h9.58802165v14.1251h-9.58802165z" fill="#fff" fill-rule="evenodd"/></mask><mask id="k" fill="#fff"><path d="m0 .8896h24.9912v21.542h-24.9912z" fill="#fff" fill-rule="evenodd"/></mask><mask id="l" fill="#fff"><path d="m.4928.5292h4.9262v30.42h-4.9262z" fill="#fff" fill-rule="evenodd"/></mask><mask id="m" fill="#fff"><path d="m1.1 1.415-.133 8.88c.009-.208.014-.423.018-.645l.132-8.792c-.004.191-.01.376-.017.557z" fill="#fff" fill-rule="evenodd"/></mask><mask id="n" fill="#fff"><path d="m.883 9.777c.13.124.253.249.372.375.044-2.96.089-5.92.133-8.88-.118-.126-.242-.251-.372-.375-.044 2.96-.089 5.92-.133 8.88" fill="#fff" fill-rule="evenodd"/></mask><mask id="o" fill="#fff"><path d="m.282 7.353c-.005.3-.009.6-.014.898-.002.118-.003.235-.005.353-.001.035-.001.08-.002.115-.001.067-.002.156-.003.224-.001.063-.026.151-.003.209.468.498.85 1.005 1.15 1.518.044-2.96.089-5.92.133-8.88-.3-.513-.682-1.021-1.15-1.518-.035 2.36-.071 4.721-.106 7.081" fill="#fff" fill-rule="evenodd"/></mask><mask id="p" fill="#fff"><path d="m10.562 1.56c-5.91 1.588-9.5 4.558-10.109 7.766-.044 2.96-.088 5.919-.133 8.88.61-3.207 4.199-6.177 10.108-7.766 7.501-2.015 16.522-1.209 22.49 1.673 1.555.752 2.902 1.643 3.962 2.661.001.001.002.002.003.003.044-2.96.089-5.92.133-8.88-.001-.002-.002-.003-.002-.003-1.061-1.02-2.408-1.911-3.962-2.661-3.726-1.799-8.641-2.789-13.634-2.789-3.004 0-6.038.359-8.856 1.116" fill="#fff" fill-rule="evenodd"/></mask><mask id="q" fill="#fff"><path d="m.405 9.67c.577.987.849 1.995.833 2.991.041-2.664.094-6.217.134-8.881.015-.995-.257-2.003-.834-2.99-.044 2.96-.089 5.92-.133 8.88" fill="#fff" fill-rule="evenodd"/></mask><mask id="r" fill="#fff"><path d="m.228 9.107c-.024 1.645.733 3.323 2.36 4.885 1.061 1.02 2.408 1.911 3.963 2.662 5.971 2.882 14.99 3.69 22.489 1.673 6.458-1.737 10.145-5.123 10.198-8.668l.134-8.881c-.054 3.546-3.741 6.932-10.199 8.667-7.498 2.018-16.518 1.211-22.489-1.671-1.555-.751-2.902-1.642-3.963-2.662-1.626-1.563-2.384-3.24-2.36-4.885z" fill="#fff" fill-rule="evenodd"/></mask><mask id="s" fill="#fff"><path d="m1.361 1.227-.133 8.88c.004-.302.035-.603.092-.901.032-.31.011-.726.016-1.038.004-.33.012-.77.016-1.099.012-.768.023-1.537.035-2.304.022-1.48.044-2.96.066-4.439-.057.298-.087.598-.092.901" fill="#fff" fill-rule="evenodd"/></mask><mask id="t" fill="#fff"><path d="m.586.07-.133 8.88c.001-.017.001-.034.001-.052l.132-8.861z" fill="#fff" fill-rule="evenodd"/></mask><g fill="none" fill-rule="evenodd"><g fill="#1ac1f3"><path d="m109.3996 68.4984c-.035-.171-3.406-17.267-4.471-25.527-3.709-28.771-13.591-36.417-13.691-36.491l.499-.675c.417.307 10.261 7.865 14.024 37.058 1.061 8.234 4.429 25.301 4.462 25.472z"/><path d="m2.3805.4711c-6.958 2.654 7.601 13.654 7.601 13.654s1.579-17.155-7.601-13.654" mask="url(#j)" transform="translate(87)"/><path d="m90.6901 22.5556c-1.408 4.982 10.771 1.429 10.771 1.429s-8.913-8.002-10.771-1.429"/><path d="m107.4621 15.5854c-3.516-3.8-6.837 8.443-6.837 8.443s11.476-3.429 6.837-8.443"/><path d="m96.4132 51.2377c-1.408 4.982 10.771 1.429 10.771 1.429s-8.913-8.002-10.771-1.429"/><path d="m113.1857 44.2675c-3.516-3.8-6.838 8.443-6.838 8.443s11.477-3.429 6.838-8.443"/><path d="m89.4791 36.4315c-2.59 7.205 15.742 3.216 15.742 3.216s-12.325-12.722-15.742-3.216"/><path d="m114.0172 29.6303c-4.084-5.096-9.359 10.013-9.359 10.013s14.748-3.289 9.359-10.013"/></g><path d="m230.7204 72.0907c.064-.125 6.46-12.484 9.904-18.177 11.993-19.824 9.62-29.518 9.595-29.614l.647-.173c.108.399 2.501 10.019-9.668 30.134-3.433 5.673-9.818 18.014-9.883 18.138z" fill="#a4e2ff"/><path d="m252.048 19.621c-5.668-1.802-2.042 12.313-2.042 12.313s9.521-9.935 2.042-12.313" fill="#a4e2ff"/><path d="m241.8815 34.0736c-3.358 2.413 6.02 6.25 6.02 6.25s-1.589-9.434-6.02-6.25" fill="#a4e2ff"/><path d="m255.8297 38.06c-.307-4.124-8.473 1.875-8.473 1.875s8.878 3.566 8.473-1.875" fill="#a4e2ff"/><path d="m231.1911 54.8446c-3.358 2.413 6.02 6.25 6.02 6.25s-1.589-9.434-6.02-6.25" fill="#a4e2ff"/><path d="m245.1393 58.8315c-.307-4.124-8.473 1.875-8.473 1.875s8.878 3.565 8.473-1.875" fill="#a4e2ff"/><path d="m234.2223 42.1425c-5.202 3.214 8.238 9.84 8.238 9.84s-1.374-14.081-8.238-9.84" fill="#a4e2ff"/><path d="m252.9401 50.0981c-.018-5.216-10.829 1.602-10.829 1.602s10.852 5.28 10.829-1.602" fill="#a4e2ff"/><path d="m17.1808 142.7431c-24.367 15.682 26.137 104.279 157.534 46.96 66.822-29.149 81.113-176.39 1.114-177.378-78.003-.963-56.847 64.902-158.648 130.418" fill="#ebfaff"/><path d="m8.1969 39.1972c-8.437 16.037 34.571 31.853 37.247 30.685-3.449-2.446-8.51-6.042-15.906-11.312-12.417-8.847-18.482-15.495-21.341-19.373" fill="#83dcff"/><path d="m29.9288 58.0209c7.22 5.144 12.209 8.69 15.65 11.13-1.113-5.689-24.78-42.292-34.022-34.071-1.289 1.147-2.265 2.301-2.975 3.455 2.76 3.792 8.798 10.545 21.347 19.486" fill="#c2ecff"/><path d="m45.5792 69.1513c-3.441-2.44-8.431-5.986-15.65-11.13-12.549-8.941-18.588-15.694-21.348-19.487-.135.221-.268.442-.384.663 2.859 3.878 8.924 10.526 21.34 19.373 7.397 5.27 12.458 8.866 15.906 11.311.036-.015.071-.031.092-.052.101-.103.11-.339.044-.678" fill="#fff"/><path d="m42.8913 67.2143c-4.383-9.564-10.295-25.118-12.354-30.604-13.147 6.878 8.623 28.743 12.354 30.604" fill="#83dcff"/><path d="m31.879 36.0053c-.301.116-.584.239-.857.366 2.055 5.476 8.063 21.286 12.456 30.833 1.496-2.386.845-35.967-11.599-31.199" fill="#c2ecff"/><path d="m43.3507 67.3339c.044-.017.086-.064.127-.129-4.393-9.547-10.401-25.357-12.456-30.834-.167.078-.328.158-.485.24 2.059 5.485 7.972 21.039 12.355 30.603.215.108.375.153.459.12" fill="#fff"/><path d="m83.4342 66.1098c.002-.024.006-.056.008-.08.003-.025.007-.059.009-.085.003-.026.006-.061.009-.087.003-.027.007-.063.01-.09s.006-.062.009-.089.006-.061.009-.088c.003-.025.006-.059.009-.084.002-.023.006-.055.008-.079.03-.287.07-.669.1-.955.032-.303.074-.709.105-1.012.034-.315.078-.735.11-1.05.034-.321.078-.749.112-1.07.033-.32.078-.748.111-1.069.034-.315.078-.735.11-1.05.032-.303.074-.708.106-1.011.03-.287.07-.668.099-.955.11.02.22.04.329.06-.308 2.951-.616 5.902-.924 8.854-.11-.02-.219-.04-.329-.06" fill="#e3e8ff"/><path d="m87.3048 66.9682c-1.166-.31-2.347-.577-3.542-.798.033-.311.076-.725.108-1.035.035-.329.08-.768.115-1.097.035-.341.083-.797.119-1.138.036-.348.084-.811.12-1.159.037-.347.085-.811.122-1.158.035-.342.083-.797.118-1.138.035-.329.081-.767.115-1.096.032-.31.076-.723.108-1.033 1.194.222 2.376.488 3.541.798z" fill="#e3e8ff"/><path d="m87.3048 66.9682c.005-.047.011-.11.016-.157.005-.051.012-.117.018-.167.005-.052.012-.122.018-.174.005-.053.012-.123.018-.176s.013-.124.018-.177c.006-.052.013-.121.019-.173.005-.05.012-.117.017-.167.005-.047.012-.11.017-.158.027-.262.064-.613.091-.876.029-.279.068-.65.097-.929.03-.29.071-.676.101-.965.031-.295.072-.688.103-.982.03-.295.071-.688.102-.982.03-.29.071-.675.101-.965.029-.279.068-.65.097-.929.027-.263.064-.614.091-.877.209.056.417.113.625.171-.174 1.669-.348 3.337-.523 5.006-.079.757-.157 1.514-.236 2.271-.034.321-.079.748-.112 1.069-.016.152-.084.358-.053.508-.208-.059-.417-.115-.625-.171" fill="#e3e8ff"/><path d="m91.4132 68.2621c-1.143-.417-2.305-.792-3.484-1.123.033-.311.076-.725.109-1.035.034-.329.08-.768.114-1.097.035-.341.083-.796.119-1.138.036-.347.084-.811.121-1.159.036-.347.084-.81.121-1.158.035-.341.083-.796.119-1.138.034-.328.08-.767.114-1.095.032-.31.076-.724.108-1.034 1.179.331 2.341.706 3.484 1.123-.308 2.952-.617 5.903-.925 8.854" fill="#e3e8ff"/><path d="m91.4132 68.2621c.005-.043.011-.102.015-.145.005-.046.011-.108.016-.154.005-.048.012-.111.017-.159.005-.049.012-.114.017-.162.005-.049.012-.114.017-.162s.011-.112.017-.159c.004-.046.01-.108.015-.154.005-.043.011-.101.015-.144.028-.267.065-.623.093-.889.03-.284.07-.661.099-.944.031-.293.072-.685.102-.979.031-.299.073-.697.104-.996.032-.299.073-.698.104-.996.031-.294.072-.686.102-.979.03-.283.069-.66.099-.943.028-.266.065-.622.093-.889.182.067.365.135.546.204-.308 2.951-.617 5.902-.925 8.854-.181-.069-.363-.137-.546-.204" fill="#e3e8ff"/><path d="m95.7199 70.0819c-1.225-.591-2.48-1.13-3.76-1.616.032-.311.075-.725.108-1.035.034-.329.08-.768.114-1.097.036-.341.083-.796.119-1.138.037-.347.085-.811.121-1.159.036-.347.085-.81.121-1.158.036-.341.083-.797.119-1.138.034-.328.08-.767.114-1.096.033-.31.076-.723.108-1.033 1.281.486 2.535 1.025 3.76 1.616-.308 2.952-.616 5.903-.924 8.854" fill="#e3e8ff"/><path d="m95.7199 70.0819c.001-.01.002-.022.003-.032s.003-.023.004-.033c.001-.011.002-.024.003-.035.001-.01.003-.024.004-.035.001-.01.003-.024.004-.034.001-.011.002-.024.003-.035.001-.009.002-.023.003-.033.001-.009.003-.021.004-.031.031-.301.073-.702.104-1.003.034-.319.078-.744.112-1.063.034-.331.08-.772.115-1.104.035-.337.082-.787.117-1.124.035-.336.082-.786.118-1.123.034-.331.08-.773.115-1.104.033-.318.078-.744.111-1.063.031-.3.073-.701.104-1.002.036.018.072.035.107.052-.308 2.951-.616 5.903-.925 8.854-.035-.017-.07-.035-.106-.052" fill="#e3e8ff"/><path d="m41.6491 44.0004.925-8.854c-.402 3.847.867 15.515 2.456 23.156l-.924 8.854c-1.59-7.642-2.858-19.309-2.457-23.156" fill="#9fc4ff"/><path d="m41.5206 79.9062c.007-.071.017-.165.024-.236.008-.075.019-.175.027-.25.008-.078.019-.181.027-.259.008-.08.019-.185.027-.264.009-.08.02-.185.028-.264s.019-.182.027-.26c.008-.075.018-.175.026-.25.007-.071.018-.165.025-.236.025-.239.058-.559.083-.798.027-.254.062-.593.088-.847.028-.263.065-.614.092-.878.028-.269.066-.626.094-.895.028-.268.065-.625.093-.894.027-.263.064-.615.092-.878.026-.254.061-.593.088-.847.025-.239.058-.558.083-.798 2.512-2.823 5.451-5.335 8.752-7.444 4.663-2.98 10.047-5.156 15.977-6.272 5.826-1.097 11.644-1.07 17.185-.08-.308 2.951-.616 5.902-.924 8.854-5.541-.99-11.359-1.017-17.186.08-5.929 1.116-11.314 3.292-15.977 6.272-3.301 2.109-6.239 4.621-8.751 7.444" fill="#e3e8ff"/><path d="m142.9689 64.1303-.925 8.854c-.258 2.472-9.568 12.866-16.031 19.067l.925-8.854c6.462-6.201 15.773-16.594 16.031-19.067" fill="#9fc4ff"/><path d="m105.9767 100.119-.925 8.854c.285-2.727.115-5.547-.566-8.38-3.487-14.503-19.043-23.867-34.74-20.909-3.926.739-7.489 2.178-10.571 4.147-6.834 4.368-11.302 11.343-12.11 19.079l.925-8.854c.807-7.736 5.276-14.711 12.11-19.078 3.082-1.97 6.645-3.408 10.57-4.147 15.698-2.959 31.254 6.405 34.741 20.908.681 2.834.851 5.654.566 8.38" fill="#a4c7ff"/><path d="m118.9 97.8778c-2.969-12.344-11.739-22.242-23.074-27.744.033-.311.076-.724.109-1.035.034-.329.08-.768.114-1.096.036-.342.083-.797.119-1.139.036-.347.085-.811.121-1.158.036-.348.085-.811.121-1.159.035-.341.083-.796.119-1.138.034-.328.08-.767.114-1.095.032-.311.076-.724.108-1.034 11.334 5.502 20.105 15.4 23.073 27.744 1.029 4.282 1.285 8.547.854 12.672l-.925 8.853c.431-4.124.176-8.389-.853-12.671" fill="#e3e8ff"/><path d="m41.5206 79.9062c-5.379 6.046-8.801 13.519-9.637 21.52l.924-8.854c.837-8.001 4.258-15.474 9.637-21.52-.308 2.952-.616 5.903-.924 8.854" fill="#e3e8ff"/><path d="m117.5851 101.37-.924 8.854c.4-3.833.162-7.797-.795-11.776-4.906-20.399-26.861-33.616-48.944-29.461-5.51 1.038-10.517 3.061-14.85 5.83-9.644 6.163-15.959 16.019-17.098 26.932l.924-8.853c1.14-10.914 7.455-20.77 17.099-26.933 4.333-2.768 9.34-4.792 14.849-5.829 22.084-4.155 44.039 9.061 48.945 29.46.956 3.98 1.194 7.943.794 11.776" fill="#c0c8f9"/><path d="m.0602 9.7436.925-8.854c-.099.945-.08 1.608.082 1.897.908 1.613 14.798 7.728 23.924 10.791l-.925 8.854c-9.125-3.063-23.016-9.179-23.923-10.791-.163-.289-.182-.952-.083-1.897" fill="#9fc4ff" mask="url(#k)" transform="translate(0 89)"/><path d="m27.0324 110.9779-.924 8.854c-.19-.543-.366-1.089-.531-1.639-.229-.769-.343-1.145-.444-1.52-.077-.294-.143-.586-.217-.882-.171-.719-.248-1.013-.311-1.307-.081-.383-.148-.766-.22-1.15-.162-.899-.245-1.4-.319-1.902l.924-8.854c.075.502.158 1.003.319 1.902.073.384.14.767.221 1.15.062.294.14.588.311 1.307.074.296.14.588.217.882.1.376.215.751.444 1.52.164.55.341 1.096.53 1.639" fill="#9fc4ff"/><path d="m152.9821 104.288-.925 8.854c-.69 6.609-7.144 26.992-10.803 29.329l.924-8.854c3.659-2.337 10.114-22.72 10.804-29.329" fill="#9fc4ff"/><path d="m142.1784 133.6171-.924 8.854c-1.955 1.198-17.006-1.247-26.387-3.441l.925-8.854c9.381 2.194 24.431 4.639 26.386 3.441" fill="#9fc4ff"/><path d="m115.7926 130.1757-.925 8.854c-.416.413-.84.816-1.272 1.216-.603.554-.895.828-1.199 1.091-.239.203-.482.4-.723.599-.587.485-.825.688-1.07.881-.314.251-.644.489-.968.733-.76.568-1.187.877-1.624 1.18l.924-8.854c.438-.303.864-.612 1.624-1.18.325-.244.654-.482.968-.733.245-.193.484-.396 1.071-.881.24-.199.484-.396.722-.598.305-.264.597-.537 1.2-1.092.431-.4.855-.803 1.272-1.216" fill="#9fc4ff"/><path d="m99.5621 137.1566c-4.333 2.769-9.34 4.792-14.849 5.83l.924-8.854c5.51-1.038 10.517-3.061 14.85-5.83 9.646-6.164 15.961-16.022 17.099-26.938l-.925 8.855c-1.138 10.915-7.453 20.773-17.099 26.937" fill="#e3e8ff"/><path d="m83.3532 143.2201c.011-.103.025-.24.036-.342.011-.109.026-.254.038-.363.011-.113.027-.264.039-.377.012-.115.028-.268.04-.383s.028-.268.04-.383c.012-.113.027-.264.039-.377.012-.108.027-.254.038-.362.011-.103.025-.24.036-.343.022-.207.05-.484.072-.692.023-.219.054-.513.077-.733.024-.228.055-.533.079-.761.025-.233.057-.543.081-.776.025-.233.057-.543.081-.775.024-.229.056-.533.08-.761.023-.22.053-.514.076-.734.022-.208.051-.484.072-.692.453-.07.907-.148 1.36-.234l-.924 8.854c-.454.086-.907.163-1.36.234" fill="#e3e8ff"/><path d="m120.6779 101.6903-.924 8.854c-1.226 11.738-8.016 22.34-18.388 28.968-4.664 2.979-10.05 5.156-15.98 6.271l.925-8.854c5.93-1.115 11.316-3.292 15.979-6.271 10.372-6.628 17.162-17.23 18.388-28.968" fill="#c0c8f9"/><path d="m35.7682 113.5258c-.956-3.978-1.194-7.939-.794-11.771l.924-8.854c-.4 3.832-.161 7.793.795 11.771 4.805 19.98 25.967 33.07 47.584 29.695l-.924 8.853c-21.618 3.375-42.779-9.715-47.585-29.694" fill="#e3e8ff"/><path d="m31.8825 101.4301.925-8.854c-.431 4.124-.175 8.388.854 12.669 5.276 21.943 28.892 36.158 52.649 31.685l-.925 8.853c-23.756 4.473-47.373-9.742-52.649-31.685-1.028-4.281-1.284-8.544-.854-12.668" fill="#c0c8f9"/><path d="m33.6618 105.245c5.276 21.943 28.893 36.158 52.649 31.685 5.93-1.116 11.316-3.292 15.979-6.272 14.016-8.955 21.491-25.167 17.535-41.634-5.278-21.946-28.895-36.16-52.651-31.688-5.93 1.117-11.314 3.292-15.977 6.272-14.015 8.955-21.493 25.168-17.535 41.637m1.527 49.629c-2.809-.159-23.808-20.021-24.194-24.667-.175-2.145 9.421-12.881 16.038-19.229-.189-.543-.366-1.089-.531-1.639-.229-.769-.343-1.144-.444-1.52-.077-.294-.143-.586-.217-.882-.171-.719-.248-1.013-.311-1.307-.081-.383-.148-.766-.22-1.15-.162-.9-.245-1.4-.319-1.902-9.125-3.063-23.016-9.179-23.924-10.791-1.294-2.311 6.54-28.555 10.721-31.227 1.955-1.198 17.003 1.244 26.386 3.442.417-.413.841-.817 1.273-1.216.606-.557.898-.831 1.199-1.092.236-.205.481-.399.719-.596.593-.49.826-.693 1.071-.887.317-.247.644-.488.965-.73.766-.567 1.196-.879 1.63-1.179-1.822-8.756-3.222-22.797-2.171-24.303.072-.101.202-.212.389-.331 3.785-2.418 30.211-8.234 34.554-6.245 2.106.962 7.56 14.143 10.327 22.689.6.129 1.2.272 1.796.422.838.215 1.245.317 1.646.431.314.089.621.189.934.283.764.235 1.077.323 1.385.424.396.132.792.277 1.186.414.929.335 1.439.527 1.947.728 3.308-2.58 7.68-5.616 11.656-8.157 4.803-3.069 9.027-5.413 10.098-5.354 2.809.16 23.808 20.021 24.194 24.667.175 2.145-9.42 12.882-16.034 19.227.185.546.362 1.092.526 1.641.229.769.344 1.145.444 1.52.081.292.144.586.215.879.174.722.251 1.016.314 1.31.079.38.148.766.22 1.151.161.899.248 1.398.318 1.901 9.124 3.061 23.02 9.177 23.925 10.792 1.294 2.31-6.539 28.555-10.721 31.226-1.955 1.198-17.005-1.247-26.386-3.441-.417.412-.841.816-1.273 1.215-.603.555-.895.829-1.199 1.092-.239.203-.482.399-.722.598-.587.486-.826.688-1.071.882-.314.251-.643.489-.968.733-.76.568-1.187.877-1.624 1.179 1.822 8.756 3.222 22.798 2.168 24.3-.071.101-.203.213-.391.333-3.788 2.421-30.207 8.235-34.549 6.246-2.108-.965-7.56-14.143-10.327-22.689-.602-.132-1.2-.272-1.796-.422-.835-.217-1.245-.316-1.647-.431-.313-.088-.621-.189-.933-.282-.764-.235-1.077-.324-1.385-.424-.395-.132-.791-.278-1.188-.417-.924-.335-1.437-.524-1.945-.726-3.308 2.58-7.68 5.617-11.656 8.157-4.803 3.07-9.028 5.414-10.098 5.354" fill="#5f8dff"/><path d="m36.6925 104.6723c4.906 20.398 26.861 33.615 48.945 29.46 5.509-1.037 10.516-3.061 14.849-5.83 13.032-8.327 19.984-23.398 16.305-38.709-4.907-20.398-26.862-33.614-48.945-29.46-5.509 1.038-10.517 3.061-14.85 5.83-13.032 8.327-19.983 23.398-16.304 38.709m49.618 32.257c-23.757 4.473-47.373-9.741-52.649-31.684-3.958-16.469 3.52-32.682 17.535-41.637 4.663-2.98 10.047-5.156 15.976-6.272 23.757-4.473 47.374 9.742 52.652 31.688 3.956 16.466-3.52 32.678-17.535 41.634-4.662 2.979-10.049 5.156-15.979 6.271" fill="#fff"/><path d="m48.5558 102.4384c3.487 14.503 19.041 23.863 34.741 20.909 3.925-.739 7.487-2.178 10.568-4.147 9.244-5.907 14.159-16.587 11.545-27.461-3.486-14.504-19.042-23.867-34.74-20.908-3.926.738-7.489 2.177-10.571 4.147-9.243 5.905-14.158 16.584-11.543 27.46m37.082 31.694c-22.084 4.155-44.039-9.062-48.945-29.46-3.679-15.311 3.272-30.382 16.304-38.709 4.333-2.769 9.34-4.792 14.85-5.83 22.084-4.155 44.038 9.062 48.944 29.46 3.68 15.311-3.272 30.382-16.304 38.709-4.332 2.769-9.34 4.793-14.849 5.83" fill="#4a75ff"/><path d="m65.8371 144.0653-.924 8.854c-.603-.132-1.201-.272-1.797-.422-.834-.218-1.245-.317-1.646-.431-.314-.088-.621-.189-.934-.283-.763-.235-1.077-.323-1.385-.424-.396-.132-.791-.277-1.189-.417-.923-.335-1.436-.523-1.944-.726l.924-8.854c.508.203 1.021.392 1.945.726.397.14.793.286 1.189.417.308.101.621.189 1.385.424.312.094.62.195.933.283.402.114.812.213 1.647.431.596.15 1.193.29 1.796.422" fill="#9fc4ff"/><path d="m56.9425 141.3627-.925 8.854c-3.308 2.581-7.68 5.617-11.656 8.157-4.802 3.07-9.027 5.414-10.097 5.354l.925-8.854c1.069.061 5.294-2.284 10.097-5.353 3.976-2.541 8.348-5.577 11.656-8.158" fill="#9fc4ff"/><path d="m10.0734 138.9008.924-8.854c-.006.058-.007.111-.003.16.387 4.647 21.385 24.508 24.195 24.667l-.925 8.854c-2.809-.16-23.808-20.021-24.194-24.667-.004-.049-.003-.102.003-.16" fill="#9fc4ff"/><path d="m111.3917 159.0248-.925 8.854c-.058.563-.153.958-.287 1.149-.072.102-.204.214-.391.333-3.789 2.421-30.208 8.236-34.55 6.247-2.108-.964-7.56-14.143-10.326-22.688l.924-8.854c2.767 8.545 8.219 21.724 10.327 22.688 4.342 1.989 30.761-3.825 34.549-6.246.188-.12.32-.232.391-.333.135-.192.229-.588.288-1.15" fill="#9fc4ff"/><path d="m207.6915 78.455c-.006-.018-.014-.042-.02-.059l-.021-.063c-.006-.02-.015-.045-.022-.065-.006-.02-.015-.046-.022-.066s-.016-.047-.022-.066c-.007-.02-.016-.046-.022-.065s-.015-.044-.021-.063l-.019-.058c-.072-.213-.167-.496-.238-.708-.075-.225-.176-.525-.252-.75-.078-.233-.182-.545-.261-.778-.08-.238-.186-.555-.266-.793-.079-.237-.186-.554-.265-.792-.079-.233-.183-.544-.261-.778-.076-.225-.177-.524-.252-.75-.071-.211-.166-.494-.237-.707.079-.016.159-.031.24-.047.733 2.187 1.467 4.373 2.201 6.56-.08.016-.16.032-.24.048" fill="#e3e8ff"/><path d="m210.5607 78.0023c-.88.1-1.758.234-2.629.405-.078-.23-.181-.537-.258-.767-.082-.243-.191-.569-.273-.813-.084-.253-.197-.59-.282-.843-.087-.257-.202-.601-.288-.858-.087-.258-.202-.601-.289-.859-.085-.253-.197-.59-.282-.843-.082-.243-.191-.568-.273-.812-.077-.23-.179-.536-.257-.765.872-.171 1.749-.305 2.63-.405.733 2.186 1.467 4.373 2.201 6.56" fill="#e3e8ff"/><path d="m210.5607 78.0023c-.012-.035-.028-.082-.04-.117-.012-.037-.028-.086-.041-.123-.013-.039-.03-.09-.043-.129s-.031-.091-.044-.131c-.013-.039-.031-.091-.044-.13s-.03-.09-.043-.129c-.012-.037-.029-.086-.041-.123-.012-.035-.028-.082-.039-.117-.066-.195-.153-.455-.218-.65-.07-.206-.162-.482-.232-.688-.071-.215-.167-.5-.239-.715-.074-.219-.171-.51-.245-.728l-.244-.727c-.071-.215-.168-.501-.239-.715-.07-.207-.162-.482-.231-.689-.066-.194-.153-.454-.218-.649.158-.018.315-.035.473-.05.415 1.236.83 2.472 1.245 3.709.188.561.376 1.122.564 1.683.08.237.186.554.266.791.038.113.058.278.126.377-.158.015-.315.032-.473.05" fill="#e3e8ff"/><path d="m213.7282 77.7943c-.899.017-1.798.069-2.694.158-.077-.23-.181-.537-.258-.767-.081-.244-.191-.569-.272-.812-.085-.253-.198-.591-.283-.844-.087-.257-.201-.601-.288-.859-.086-.257-.202-.6-.288-.858-.085-.253-.198-.59-.283-.843-.082-.243-.191-.568-.273-.812-.076-.229-.179-.536-.257-.765.896-.089 1.795-.141 2.695-.158.733 2.187 1.467 4.373 2.201 6.56" fill="#e3e8ff"/><path d="m213.7282 77.7943c-.011-.032-.025-.075-.036-.107-.012-.035-.027-.08-.039-.114-.011-.036-.027-.083-.039-.118-.012-.036-.028-.084-.04-.12-.013-.037-.029-.084-.041-.121-.012-.035-.027-.082-.039-.117-.012-.034-.027-.08-.038-.114-.011-.032-.025-.075-.036-.107-.067-.198-.155-.461-.221-.659-.071-.21-.164-.489-.235-.699-.073-.218-.17-.508-.243-.725-.075-.222-.174-.517-.248-.739-.074-.221-.173-.516-.248-.738-.073-.217-.17-.507-.243-.725l-.234-.698c-.067-.198-.155-.461-.221-.659.143-.002.287-.004.431-.005.733 2.187 1.467 4.373 2.201 6.56-.144.001-.287.003-.431.005" fill="#e3e8ff"/><path d="m217.1954 77.9071c-1.01-.084-2.023-.124-3.036-.118-.077-.23-.18-.536-.257-.766-.082-.244-.191-.57-.273-.813-.085-.253-.198-.591-.283-.844-.087-.257-.202-.601-.288-.858-.087-.258-.202-.601-.288-.858-.085-.253-.198-.591-.283-.844-.082-.243-.191-.568-.272-.811-.078-.23-.181-.536-.257-.766 1.013-.006 2.026.033 3.036.117.734 2.187 1.467 4.374 2.201 6.561" fill="#e3e8ff"/><path d="m217.1954 77.9071c-.002-.007-.005-.017-.008-.024-.002-.007-.006-.017-.008-.024-.003-.008-.006-.018-.009-.026-.002-.008-.006-.018-.008-.026-.003-.008-.007-.018-.009-.026l-.008-.025c-.003-.007-.006-.017-.009-.024-.002-.008-.005-.017-.007-.024-.075-.222-.175-.52-.25-.743-.079-.236-.185-.551-.264-.787-.083-.246-.192-.573-.274-.818-.084-.25-.196-.583-.28-.833s-.196-.583-.279-.832c-.083-.246-.192-.573-.274-.818-.08-.237-.186-.552-.265-.788-.075-.223-.174-.52-.249-.743.029.003.059.005.088.008.734 2.187 1.467 4.373 2.201 6.56-.029-.002-.059-.005-.088-.007" fill="#e3e8ff"/><path d="m172.6271 74.1938-2.201-6.56c.956 2.85 5.525 10.811 9.025 15.817l2.201 6.56c-3.5-5.005-8.069-12.967-9.025-15.817" fill="#88b3ff"/><path d="m183.9816 99.8031c-.018-.053-.041-.123-.059-.175-.018-.055-.043-.13-.062-.185-.019-.058-.045-.135-.064-.192-.02-.059-.046-.137-.066-.196s-.046-.137-.065-.196c-.02-.057-.046-.135-.065-.192-.019-.056-.044-.13-.062-.185-.018-.053-.041-.123-.059-.175-.06-.178-.139-.414-.198-.591-.064-.189-.148-.439-.211-.628-.065-.195-.152-.455-.218-.651-.067-.198-.156-.464-.223-.662-.066-.199-.155-.464-.222-.663-.065-.195-.153-.455-.218-.651-.063-.188-.147-.439-.21-.627-.06-.177-.14-.414-.199-.592.784-2.701 1.954-5.297 3.496-7.708 2.178-3.403 5.095-6.433 8.715-8.858 3.558-2.383 7.468-3.963 11.499-4.782.734 2.187 1.467 4.374 2.201 6.561-4.031.818-7.941 2.398-11.499 4.781-3.62 2.425-6.537 5.455-8.715 8.859-1.541 2.41-2.711 5.007-3.496 7.708" fill="#e3e8ff"/><path d="m246.983 60.6796 2.201 6.561c.615 1.831-2.317 11.793-4.675 17.986l-2.201-6.56c2.358-6.193 5.29-16.155 4.675-17.987" fill="#88b3ff"/><path d="m233.6442 96.4814 2.201 6.56c-.678-2.019-1.69-3.982-3.05-5.813-6.959-9.371-20.374-11.764-29.957-5.342-2.397 1.605-4.328 3.61-5.768 5.86-3.191 4.988-3.964 11.185-2.041 16.917l-2.201-6.56c-1.923-5.732-1.15-11.929 2.041-16.918 1.44-2.249 3.371-4.254 5.768-5.859 9.583-6.422 22.998-4.03 29.957 5.342 1.36 1.831 2.372 3.793 3.05 5.813" fill="#88b3ff"/><path d="m241.5963 91.3329c-5.924-7.976-14.959-12.615-24.312-13.418-.078-.23-.181-.537-.258-.767-.082-.244-.191-.569-.273-.813-.084-.253-.198-.59-.282-.843-.087-.258-.202-.601-.289-.859-.086-.257-.201-.601-.288-.858-.085-.253-.197-.59-.282-.843-.082-.244-.191-.568-.273-.812-.077-.23-.18-.536-.257-.766 9.354.804 18.389 5.443 24.313 13.418 2.054 2.768 3.584 5.735 4.61 8.791l2.201 6.561c-1.026-3.057-2.556-6.024-4.61-8.791" fill="#e3e8ff"/><path d="m183.9816 99.8031c-1.681 5.785-1.594 12.048.395 17.977l-2.202-6.561c-1.988-5.929-2.075-12.192-.394-17.977.734 2.187 1.467 4.374 2.201 6.561" fill="#e3e8ff"/><path d="m241.8273 94.1815 2.201 6.56c-.952-2.84-2.375-5.598-4.284-8.169-9.79-13.181-28.724-16.559-42.209-7.529-3.363 2.253-6.076 5.071-8.1 8.234-4.503 7.041-5.597 15.797-2.883 23.883l-2.202-6.56c-2.713-8.086-1.619-16.843 2.884-23.883 2.024-3.163 4.737-5.981 8.1-8.234 13.485-9.03 32.419-5.652 42.208 7.529 1.91 2.571 3.332 5.329 4.285 8.169" fill="#c0c8f9"/><path d="m162.1818 124.6166-2.201-6.56c.235.7.459 1.167.659 1.329 1.123.898 12.386 1.436 19.481 1.109l2.202 6.56c-7.096.327-18.359-.21-19.481-1.109-.201-.162-.425-.629-.66-1.329" fill="#88b3ff"/><path d="m184.1671 125.9164 2.201 6.56c-.3-.334-.592-.675-.878-1.021-.399-.485-.595-.721-.782-.96-.145-.189-.282-.379-.426-.569-.344-.465-.49-.654-.626-.846-.176-.25-.343-.505-.514-.758-.395-.596-.61-.93-.82-1.267l-2.201-6.56c.21.337.425.671.82 1.266.171.254.338.509.514.759.136.192.281.38.626.846.144.19.281.38.426.568.187.24.383.476.782.961.286.346.578.687.878 1.021" fill="#a6c2ff"/><path d="m.4928.5292 2.201 6.561c1.644 4.897 3.81 21.189 2.101 23.859l-2.201-6.56c1.709-2.671-.458-18.963-2.101-23.86" fill="#88b3ff" mask="url(#l)" transform="translate(266 86)"/><path d="m268.5939 110.3891 2.201 6.56c-.929 1.391-11.8 3.787-18.79 4.802l-2.201-6.56c6.99-1.015 17.861-3.411 18.79-4.802" fill="#88b3ff"/><path d="m249.8038 115.1908 2.201 6.561c-.148.408-.304.812-.466 1.215-.227.561-.336.836-.456 1.107-.095.21-.196.417-.294.625-.239.507-.334.717-.437.922-.131.265-.276.525-.416.788-.328.614-.516.951-.713 1.287l-2.201-6.56c.197-.336.385-.674.713-1.287.14-.263.285-.523.416-.788.103-.205.198-.415.437-.922.098-.208.198-.415.294-.625.12-.271.229-.546.456-1.107.162-.404.318-.807.466-1.216" fill="#88b3ff"/><path d="m241.1447 124.6249c-2.023 3.163-4.736 5.98-8.1 8.234l-2.201-6.561c3.364-2.253 6.077-5.071 8.1-8.234 4.504-7.041 5.597-15.799 2.883-23.886l2.201 6.56c2.715 8.088 1.621 16.845-2.883 23.887" fill="#e3e8ff"/><path d="m232.2072 133.3993c-.025-.076-.06-.178-.085-.254-.027-.08-.063-.188-.09-.268-.028-.084-.066-.196-.094-.28-.028-.085-.066-.198-.095-.283-.029-.086-.067-.199-.095-.285-.028-.083-.066-.195-.094-.278-.027-.081-.063-.189-.09-.269-.025-.077-.06-.178-.085-.254-.052-.154-.121-.359-.172-.513-.055-.163-.128-.38-.183-.543-.056-.169-.132-.395-.189-.565-.058-.171-.135-.401-.192-.574-.058-.172-.136-.402-.193-.574-.057-.169-.133-.395-.19-.564-.054-.163-.127-.381-.182-.544-.052-.154-.12-.359-.172-.513.282-.174.56-.355.837-.54l2.201 6.56c-.276.186-.555.366-.837.541" fill="#e3e8ff"/><path d="m244.0036 93.5595 2.201 6.56c2.918 8.698 1.743 18.115-3.1 25.688-2.178 3.403-5.096 6.434-8.717 8.858l-2.201-6.56c3.621-2.424 6.539-5.455 8.716-8.859 4.844-7.572 6.019-16.99 3.101-25.687" fill="#c0c8f9"/><path d="m190.8371 125.33c-1.909-2.571-3.331-5.327-4.284-8.166l-2.201-6.56c.953 2.839 2.375 5.595 4.284 8.165 9.588 12.91 27.949 16.416 41.37 8.07.734 2.187 1.468 4.373 2.201 6.56-13.421 8.347-31.782 4.84-41.37-8.069" fill="#e3e8ff"/><path d="m184.3771 117.7826-2.201-6.56c1.025 3.055 2.555 6.022 4.609 8.788 10.53 14.179 30.896 17.811 45.401 8.095l2.201 6.56c-14.505 9.717-34.871 6.084-45.401-8.094-2.053-2.767-3.584-5.733-4.609-8.789" fill="#c0c8f9"/><path d="m186.7858 120.0107c10.529 14.179 30.896 17.811 45.4 8.095 3.621-2.425 6.54-5.455 8.717-8.859 6.545-10.232 6.392-23.833-1.508-34.474-10.532-14.18-30.898-17.813-45.403-8.096-3.62 2.424-6.538 5.454-8.715 8.858-6.545 10.231-6.393 23.834 1.509 34.476m16.837 34.929c-1.934.658-22.344-7.716-24.083-10.919-.801-1.479 2.213-11.764 4.627-18.104-.299-.335-.592-.676-.878-1.022-.399-.485-.595-.72-.782-.96-.145-.188-.282-.378-.426-.569-.344-.465-.49-.653-.626-.845-.176-.251-.343-.505-.514-.759-.394-.596-.61-.93-.82-1.267-7.095.327-18.358-.211-19.481-1.109-1.604-1.29-4.713-22.136-2.76-25.188.929-1.392 11.798-3.789 18.79-4.803.148-.408.303-.812.466-1.215.229-.564.337-.839.457-1.108.092-.211.195-.416.291-.622.242-.512.334-.721.437-.926.133-.263.275-.525.414-.785.332-.615.521-.955.717-1.288-4.012-5.735-9.425-15.352-9.199-16.713.015-.092.068-.206.155-.343 1.767-2.763 17.635-14.169 21.181-13.947 1.718.107 9.576 7.996 14.154 13.322.443-.073.892-.136 1.339-.193.63-.077.935-.116 1.241-.146.238-.023.477-.036.716-.055.587-.043.826-.066 1.064-.078.308-.016.619-.021.927-.032.731-.016 1.133-.02 1.538-.016 1.397-2.747 3.361-6.112 5.217-9.014 2.243-3.506 4.329-6.338 5.065-6.589 1.935-.659 22.345 7.715 24.084 10.918.801 1.48-2.212 11.765-4.626 18.102.299.338.591.678.876 1.024.399.485.596.721.783.961.147.185.282.378.423.567.347.466.493.654.628.847.174.249.344.505.515.758.394.597.611.928.819 1.268 7.093-.329 18.36.208 19.481 1.109 1.605 1.289 4.714 22.136 2.761 25.188-.929 1.391-11.8 3.787-18.79 4.802-.148.409-.304.813-.466 1.216-.227.561-.336.836-.456 1.107-.096.21-.196.417-.294.625-.239.507-.334.717-.437.922-.131.265-.276.525-.416.788-.328.614-.516.951-.713 1.287 4.012 5.735 9.425 15.352 9.197 16.711-.016.092-.069.208-.156.345-1.769 2.765-17.632 14.169-21.178 13.946-1.721-.107-9.576-7.996-14.154-13.321-.446.071-.891.136-1.339.193-.629.074-.936.116-1.241.145-.239.023-.477.036-.716.056-.587.042-.825.065-1.064.078-.308.015-.619.02-.93.03-.726.016-1.131.022-1.535.018-1.396 2.747-3.361 6.111-5.217 9.014-2.243 3.506-4.329 6.337-5.066 6.589" fill="#6997ff"/><path d="m188.6354 118.7699c9.79 13.18 28.723 16.559 42.208 7.528 3.364-2.253 6.077-5.07 8.1-8.234 6.086-9.513 5.945-22.159-1.401-32.052-9.789-13.18-28.723-16.558-42.208-7.529-3.364 2.254-6.076 5.072-8.1 8.234-6.085 9.514-5.945 22.159 1.401 32.053m43.551 9.335c-14.506 9.717-34.871 6.084-45.401-8.094-7.901-10.642-8.053-24.245-1.509-34.476 2.178-3.404 5.095-6.434 8.715-8.859 14.506-9.716 34.872-6.084 45.404 8.096 7.899 10.642 8.053 24.243 1.508 34.475-2.178 3.403-5.096 6.434-8.717 8.858" fill="#fff"/><path d="m195.879 113.9179c6.959 9.371 20.372 11.762 29.958 5.342 2.396-1.605 4.327-3.609 5.766-5.858 4.317-6.749 4.209-15.706-1.009-22.734-6.959-9.371-20.374-11.764-29.957-5.342-2.397 1.606-4.328 3.61-5.768 5.86-4.316 6.747-4.209 15.704 1.01 22.732m34.964 12.38c-13.484 9.03-32.418 5.652-42.207-7.528-7.346-9.894-7.487-22.539-1.401-32.053 2.023-3.162 4.736-5.98 8.1-8.234 13.484-9.029 32.418-5.651 42.208 7.529 7.345 9.893 7.486 22.539 1.4 32.052-2.022 3.163-4.735 5.981-8.1 8.234" fill="#5f82ff"/><path d="m220.7311 138.8163 2.201 6.56c-.446.071-.891.136-1.339.193-.629.075-.936.117-1.241.146-.239.023-.477.036-.716.055-.588.043-.825.066-1.064.079-.308.015-.619.02-.93.029-.726.016-1.131.022-1.536.018l-2.201-6.56c.405.004.81-.002 1.535-.018.312-.009.623-.015.931-.029.238-.014.476-.036 1.064-.079.239-.019.477-.032.715-.056.306-.028.613-.07 1.242-.145.447-.057.893-.122 1.339-.193" fill="#88b3ff"/><path d="m213.9054 139.3363 2.201 6.56c-1.396 2.748-3.36 6.112-5.217 9.014-2.242 3.507-4.328 6.338-5.065 6.589l-2.201-6.56c.737-.251 2.823-3.082 5.065-6.589 1.857-2.902 3.821-6.267 5.217-9.014" fill="#88b3ff"/><path d="m181.692 150.4662-2.201-6.56c.014.043.03.081.049.115 1.739 3.203 22.149 11.577 24.083 10.918l2.201 6.56c-1.934.659-22.344-7.715-24.083-10.918-.019-.033-.035-.072-.049-.115" fill="#88b3ff"/><path d="m256.045 136.9486 2.201 6.56c.14.417.203.725.174.898-.016.092-.069.208-.156.345-1.769 2.765-17.633 14.169-21.178 13.947-1.721-.108-9.576-7.996-14.154-13.322l-2.201-6.56c4.578 5.325 12.433 13.214 14.154 13.321 3.545.223 19.409-11.181 21.178-13.946.087-.137.14-.253.155-.345.03-.173-.033-.481-.173-.898" fill="#88b3ff"/><path d="m1.1 1.415-.133 8.88c.009-.208.014-.423.018-.645l.132-8.792c-.004.191-.01.376-.017.557z" fill="url(#b)" mask="url(#m)" transform="translate(169 159)"/><path d="m.883 9.777c.13.124.253.249.372.375.044-2.96.089-5.92.133-8.88-.118-.126-.242-.251-.372-.375-.044 2.96-.089 5.92-.133 8.88" fill="url(#c)" mask="url(#n)" transform="translate(169 170)"/><path d="m106.4005 174.5385.133-8.881c0 .018.002.033.007.048.116.356 2.365 1.585 5.202 2.955 2.356 1.137 5.117 2.372 7.404 3.287l-.133 8.881c-2.286-.915-5.048-2.15-7.404-3.288-2.837-1.37-5.086-2.598-5.203-2.955-.004-.014-.006-.03-.006-.047" fill="#1ac1f3"/><path d="m.282 7.353c-.005.3-.009.6-.014.898-.002.118-.003.235-.005.353-.001.035-.001.08-.002.115-.001.067-.002.156-.003.224-.001.063-.026.151-.003.209.468.498.85 1.005 1.15 1.518.044-2.96.089-5.92.133-8.88-.3-.513-.682-1.021-1.15-1.518-.035 2.36-.071 4.721-.106 7.081" fill="url(#d)" mask="url(#o)" transform="translate(170 171)"/><path d="m10.562 1.56c-5.91 1.588-9.5 4.558-10.109 7.766-.044 2.96-.088 5.919-.133 8.88.61-3.207 4.199-6.177 10.108-7.766 7.501-2.015 16.522-1.209 22.49 1.673 1.555.752 2.902 1.643 3.962 2.661.001.001.002.002.003.003.044-2.96.089-5.92.133-8.88-.001-.002-.002-.003-.002-.003-1.061-1.02-2.408-1.911-3.962-2.661-3.726-1.799-8.641-2.789-13.634-2.789-3.004 0-6.038.359-8.856 1.116" fill="url(#e)" mask="url(#p)" transform="translate(133 165)"/><path d="m201.4264 170.7318-.133 8.88c-.001.089-.017.167-.048.233-.356.761-8.704 3.47-14.23 4.971l.133-8.88c5.527-1.501 13.874-4.21 14.23-4.971.031-.066.047-.144.048-.233" fill="#1ac1f3"/><path d="m.405 9.67c.577.987.849 1.995.833 2.991.041-2.664.094-6.217.134-8.881.015-.995-.257-2.003-.834-2.99-.044 2.96-.089 5.92-.133 8.88" fill="url(#f)" mask="url(#q)" transform="translate(171 172)"/><path d="m169.4435 175.7377-.133 8.88c.021-1.397-.623-2.823-2.006-4.151-.901-.866-2.046-1.624-3.367-2.262-5.072-2.448-12.736-3.134-19.112-1.421-5.489 1.475-8.624 4.354-8.669 7.367l.133-8.881c.046-3.012 3.18-5.891 8.67-7.366 6.375-1.714 14.04-1.028 19.111 1.421 1.321.638 2.466 1.395 3.367 2.261 1.383 1.328 2.027 2.755 2.006 4.152" fill="#1ac1f3"/><path d="m.228 9.107c-.024 1.645.733 3.323 2.36 4.885 1.061 1.02 2.408 1.911 3.963 2.662 5.971 2.882 14.99 3.69 22.489 1.673 6.458-1.737 10.145-5.123 10.198-8.668l.134-8.881c-.054 3.546-3.741 6.932-10.199 8.667-7.498 2.018-16.518 1.211-22.489-1.671-1.555-.751-2.902-1.642-3.963-2.662-1.626-1.563-2.384-3.24-2.36-4.885z" fill="url(#g)" mask="url(#r)" transform="translate(133 175)"/><path d="m1.361 1.227-.133 8.88c.004-.302.035-.603.092-.901.032-.31.011-.726.016-1.038.004-.33.012-.77.016-1.099.012-.768.023-1.537.035-2.304.022-1.48.044-2.96.066-4.439-.057.298-.087.598-.092.901" fill="url(#h)" mask="url(#s)" transform="translate(132 174)"/><path d="m.586.07-.133 8.88c.001-.017.001-.034.001-.052l.132-8.861z" fill="url(#i)" mask="url(#t)" transform="translate(118 175)"/><g transform="translate(63 35)"><path d="m124.1222 141.5609c-.024.289-.035.431-.055.572-.016.108-.041.218-.06.327-.049.266-.065.377-.088.486-.033.139-.076.28-.115.42-.093.329-.152.511-.216.692l-.133 8.88c.064-.181.123-.362.215-.691.04-.14.082-.281.116-.421.023-.108.039-.22.087-.485.02-.11.045-.219.062-.328.019-.14.03-.283.054-.572.015-.189.023-.38.026-.571l.133-8.881c-.003.191-.011.382-.026.572" fill="#1ac1f3"/><path d="m97.7785 148.1039c8.031-2.16 11.022-7.328 6.659-11.518-.901-.866-2.046-1.624-3.367-2.261-5.071-2.449-12.736-3.135-19.111-1.422-8.037 2.16-11.026 7.327-6.665 11.518.901.866 2.046 1.622 3.366 2.26 5.075 2.45 12.741 3.137 19.118 1.423m9.235-12.21c5.13 4.931 1.614 11.011-7.84 13.552-7.499 2.017-16.519 1.21-22.489-1.672-1.555-.751-2.903-1.643-3.964-2.662-5.132-4.93-1.616-11.01 7.841-13.552 7.501-2.016 16.521-1.209 22.49 1.673 1.555.75 2.902 1.642 3.962 2.661" fill="#fff"/><g fill="#1ac1f3"><path d="m72.632 155.5927-.133 8.881c-.348-.109-.69-.22-1.033-.335-.473-.163-.709-.24-.937-.321-.174-.065-.346-.131-.518-.197-.427-.161-.605-.224-.774-.291-.222-.088-.434-.178-.651-.269-.506-.213-.788-.333-1.06-.455l.133-8.881c.272.123.555.242 1.06.455.218.091.429.182.652.269.169.068.346.131.773.291.172.066.344.133.519.197.228.082.464.159.936.322.343.114.685.226 1.033.334"/><path d="m41.1749 154.1571.133-8.88c-.03 2.023 7.351 9.695 9.504 10.735.112.054.209.09.291.106 1.197.244 10.743-1.19 16.556-2.393l-.133 8.88c-5.812 1.204-15.36 2.637-16.556 2.394-.082-.016-.179-.052-.291-.106-2.153-1.04-9.534-8.713-9.504-10.736"/><path d="m105.8541 156.3139c-.5.127-.741.192-.991.253-.191.043-.385.086-.579.131-.476.105-.667.152-.864.192-.254.054-.508.101-.764.153-.601.115-.934.178-1.276.237l-.133 8.881c.341-.059.674-.122 1.275-.238.257-.051.511-.099.765-.152.197-.041.388-.087.863-.192.194-.046.389-.088.58-.132.25-.06.491-.125.991-.253.356-.091.709-.187 1.059-.287l.133-8.881c-.35.101-.703.196-1.059.288"/><path d="m136.2013 150.3505-.133 8.881c-.017 1.135-10.433 9.196-13.556 9.637-1.463.207-10.34-2.217-15.732-3.962l.133-8.881c5.392 1.745 14.269 4.169 15.731 3.963 3.124-.441 13.54-8.502 13.557-9.638"/><path d="m72.4806 165.1147.133-8.88c-.049 3.241.486 7.776 1.538 8.303l-.133 8.881c-1.053-.527-1.586-5.063-1.538-8.304"/></g><path d="m99.173 149.4457c9.455-2.541 12.97-8.621 7.84-13.552-1.06-1.019-2.407-1.91-3.962-2.661-5.968-2.882-14.988-3.688-22.489-1.673-9.458 2.542-12.973 8.622-7.841 13.552 1.061 1.02 2.409 1.911 3.964 2.662 5.97 2.882 14.989 3.689 22.488 1.672m37.022.858c.307.936-10.379 9.237-13.55 9.684-1.462.207-10.34-2.217-15.732-3.962-.35.101-.703.196-1.059.288-.5.128-.741.193-.991.253-.191.044-.385.086-.579.131-.476.105-.667.152-.864.193-.254.053-.508.1-.764.152-.601.115-.934.178-1.276.237-.773 3.221-2.964 8.228-3.953 8.639-1.411.588-20.801-.186-23.275-1.381-1.124-.562-1.657-5.697-1.52-8.945-.348-.108-.69-.22-1.033-.334-.472-.163-.708-.24-.936-.322-.175-.064-.347-.131-.519-.197-.427-.16-.604-.223-.773-.291-.223-.087-.434-.178-.652-.269-.505-.213-.788-.332-1.06-.455-5.813 1.204-15.36 2.638-16.556 2.394-.082-.017-.18-.052-.291-.107-2.247-1.085-10.193-9.399-9.456-10.968.357-.761 8.704-3.47 14.23-4.974.002-.209.01-.415.027-.622.027-.291.038-.433.057-.573.013-.11.039-.217.058-.326.049-.269.065-.377.09-.487.031-.141.073-.279.11-.42.098-.33.151-.511.219-.694-2.287-.915-5.048-2.15-7.405-3.288-2.837-1.369-5.085-2.598-5.202-2.955-.307-.939 10.377-9.238 13.55-9.687 1.462-.207 10.342 2.219 15.729 3.964.353-.099.706-.195 1.062-.29.5-.127.743-.191.99-.25.192-.047.389-.087.58-.131.475-.108.667-.152.861-.194.254-.053.51-.102.767-.151.601-.118.937-.18 1.276-.237.773-3.224 2.964-8.228 3.949-8.64 1.414-.586 20.799.184 23.278 1.381 1.125.563 1.655 5.697 1.518 8.945.353.108.696.219 1.035.335.473.16.706.239.934.321.178.063.35.132.524.196.424.159.602.225.771.293.22.086.437.177.654.267.506.214.783.333 1.057.457 5.813-1.207 15.357-2.638 16.559-2.395.082.016.179.052.289.105 2.24 1.082 10.192 9.398 9.456 10.971-.356.761-8.704 3.47-14.23 4.971-.002.209-.011.418-.027.625-.024.289-.035.431-.054.572-.017.108-.041.218-.061.328-.049.265-.065.377-.087.485-.034.14-.077.28-.116.42-.092.33-.152.511-.216.692 2.283.914 5.041 2.147 7.396 3.284 2.842 1.372 5.095 2.604 5.211 2.962" fill="#a4e2ff"/><path d="m101.38 157.2802-.133 8.88c-.773 3.221-2.964 8.229-3.953 8.639-1.411.587-20.801-.186-23.276-1.381l.133-8.88c2.475 1.195 21.865 1.968 23.276 1.38.989-.41 3.18-5.417 3.953-8.638" fill="#1ac1f3"/><path d="m88.4474 82.0468s-2.739-.735-3.123-.64c-.383.095.977.849 1.318 1.015.34.166-3.501 2.215-3.569 2.694-.067.479 1.2.791 1.952.432s4.17-2.264 4.17-2.264z" fill="#e5cfba"/><path d="m106.3976 131.7953s.677 2.186 0 2.229c-.677.042-7.932 1.353-7.932.435 0-.917 7.14-2.97 7.705-2.664z" fill="#1a2982"/><path d="m118.546 132.2177s-4.75 4.291-3.964 4.946c.786.656 6.158-2.817 6.158-2.817s.263-1.506 0-2.129c-.261-.623-2.194 0-2.194 0" fill="#1a2982"/><path d="m106.4694 86.5312s-2.086 15.287-2.61 20.004-.703 24.986-.437 25.42c.382.623 2.184 1.18 3.047.588.667-.458.535-14.826 1.758-19.369 1.222-4.542 4.717-18.519 4.717-18.519s3.581 13.278 3.669 18.519c.087 5.241 1.189 18.973 1.659 19.369.47.395 2.272.587 2.621 0 .349-.588-.349-46.165-1.135-48.185-.787-2.02-13.289 2.173-13.289 2.173" fill="#2560f2"/><path d="m124.5802 95.3446c.646-.008.223-6.921.223-6.921l-.831-.052s-2.013 2.976-1.989 3.569 1.519-1.288 1.519-1.288.182 4.703 1.078 4.692" fill="#e5cfba"/><path d="m107.2282 62.2631s-3.587 1.818-6.273 4.635c-2.686 2.818-4.76 7.072-6.421 8.78-2.358 2.423-6.912 5.601-6.781 5.961.131.361 1.092 2.088 1.387 2.056.295-.033 6.999-4.218 9.129-6.773 2.129-2.555 4.946-5.929 4.946-5.929s1.932 3.636 1.867 6.912c-.065 3.275-.306 5.263.612 7.229.645 1.383 1.222 4.138 7.676 2.828 6.453-1.311 6.661-3.156 6.759-3.811.098-.656-2.206-11.454-2.206-11.454s3.604 4.356 3.997 6.125 1.245 9.664 1.605 9.762.983.164 1.474 0-.065-10.548-.655-12.12c-.59-1.573-8.181-13.643-13.387-14.548-2.714-.472-3.729.347-3.729.347" fill="#1e41d3"/><path d="m106.1964 62.8358c-.165.527.366 2.076.601 2.125.234.049 1.004-2.015 1.02-2.162.017-.148-.17-.994-.17-.994s-1.299.545-1.451 1.031" fill="#e0eeff"/><path d="m111.3229 61.8383s-.05.533-1.458 1.709c-1.346 1.126-2 1.212-2.127 1.219-.192.01-.351-1.95-.192-2.227s2.755-1.472 3.291-1.331c.536.14.486.63.486.63" fill="#e0eeff"/><path d="m110.088 58.7538.083 3.073s-.658.711-1.4 1.014c-1.412.576-1.631-.23-1.631-.23l-.245-2.31s-1.38.125-1.913-1.16c-.533-1.286-1.176-4.061-.204-4.469.972-.407 3.465-1.128 3.465-1.128l2.258 1.897.517 2.289z" fill="#e5cfba"/><path d="m110.3908 60.3632c.509.078 1.319-1.882 1.286-2.822-.079-2.274-1.262-4.821-3.488-4.977-2.226-.157-4.023.072-4.799.696-.721.58-.65 1.459.605 1.835.633.19 2.351.032 3.104-.219.752-.251.063 2.393 1.019 2.555.661.112.69-1.489 1.474-1.082.783.408.454 1.145.454 1.145s-.409 2.754.345 2.869" fill="#1a2982"/><path d="m8.5192 70.786c-1.184.034-3.279-4.07-1.293-7.301 1.536-2.496 3.717-1.911 3.717-1.911s1.22-3.115 4.174-3.118c3.625-.004 3.988 4.33 4.352 4.33.363 0 4.375 1.409 2.73 5.591-.97 2.465-6.528 2.207-13.68 2.409" fill="#1a2982"/><path d="m11.0324 66.4525c-1.132.894-6.637 5.806-6.307 6.427.329.62 2.234 2.659 2.657 2.304.423-.354 2.504-2.736 2.504-2.736s-1.874 14.881-1.633 15.28c.24.399 7.635 1.379 7.635 1.379l5.723-1.468s-1.111-14.64-1.322-15.172c-.212-.532 3.014 2.008 3.385 2.052.37.045 2.751-1.639 2.856-2.171.106-.532-6.03-6.072-7.511-6.693-1.481-.62-6.383-.469-7.987.798" fill="#5f8dff"/><path d="m8.5426 83.8441 8.016-.939 6.328 1.539-.146 3.199s-4.298 3.198-7.489 2.919c-6.698-.587-7.213-2.472-7.213-5.24 0-.091.504-1.478.504-1.478" fill="#124cdd"/><path d="m5.025 72.9281s-3.194 4.825-3.225 5.005c-.03.181 4.269 5.804 5.529 5.907 1.259.102.491-1.493.338-1.853-.154-.361-3.563-3.989-3.471-4.195s2.703-3.063 2.917-3.243c.216-.18-1.535-1.621-2.088-1.621" fill="#ffebd2"/><path d="m25.7135 72.7016s3.152 4.723 3.182 4.901c.03.177-4.212 5.764-5.454 5.866-1.243.101-.485-1.473-.334-1.829.151-.355 3.515-3.936 3.424-4.139-.09-.203-2.667-3.021-2.879-3.199-.211-.178 1.516-1.6 2.061-1.6" fill="#ffebd2"/><path d="m13.0885 66.5414c-.062.532.589 2.257 2.028 2.151 1.44-.106 2.048-1.181 2.033-1.833-.015-.651-.394-1.636-1-1.636s-2.879-.243-3.061 1.318" fill="#4a75ff"/><path d="m17.6144 115.497c.724.442 2.538-6.438 1.808-8.192-.731-1.753-1.408-1.209-1.408-1.209s-2.824 7.92-.4 9.401" fill="#1a2982"/><path d="m1.9342 115.3861c-.846.398-2.187-7.466-1.205-9.318s1.679-1.162 1.679-1.162 2.36 9.144-.474 10.48" fill="#1a2982"/><path d="m13.9386 63.0004v3.96s.335.985 1.299.863c.963-.121 1.058-1.212 1.058-1.212l-.086-3.611z" fill="#e5cfba"/><path d="m12.1354 63.4853c0 1.646 1.335 2.981 2.981 2.981 1.647 0 2.982-1.335 2.982-2.981s-1.335-2.981-2.982-2.981c-1.646 0-2.981 1.335-2.981 2.981" fill="#ffebd2"/><path d="m18.861 62.7421c.042 1.392-.961 1.809-2.625 1.392-1.778-.446-2.702-2.32-2.702-2.32s.153 1.689-.773 1.81-1.087-.344-1.087-.344-.354-2.143.828-3.091c4.547-3.646 6.296.509 6.359 2.553" fill="#1a2982"/><path d="m6.8004 75.3295c-.406.406-.283 9.697 0 9.939.283.243 16.728.566 17.051.162.324-.404-.121-10.586-.444-10.909s-15.758-.041-16.607.808" fill="#fff"/><path d="m17.7311 106.7607c.305.196 1.7.915 1.836.624.137-.29 4.135-19.821 3.082-21.647-.962-1.669-2.454-2.069-3.054-1.866-1.496.504-2.384 1.689-2.192 3.267.269 2.218-.171 19.302.328 19.622" fill="#2e62e5"/><path d="m2.4459 108.0077c-.368-.028-1.959-.313-1.933-.659.027-.345 6.4-20.171 8.252-21.085 1.692-.837 3.148-.141 3.634.367 1.084 1.133 1.214 3.323.275 4.318-1.515 1.605-9.626 17.105-10.228 17.059" fill="#2e62e5"/><path d="m62.3878 132.7875s-.597 1.747-.213 2.009c.383.262 5.029 4.237 5.839 3.364.811-.874-2.94-5.198-3.239-5.373s-2.387 0-2.387 0" fill="#1a2982"/><path d="m67.6203 129.5556s-.597 2.186 0 2.228c.597.043 6.99 1.354 6.99.436 0-.917-6.293-2.97-6.791-2.664z" fill="#1a2982"/><path d="m67.6305 129.8612c.522.446 1.791.524 2.046 0 .256-.524.512-17.427 1.151-21.686.639-4.258 1.112-17.73.844-18.004-.269-.275-4.616-.864-4.616-.864s-1.535 20.212-1.407 21.604 1.215 18.295 1.982 18.95" fill="#14ade2"/><path d="m59.8302 89.307s-2.246 1.56-.529 7.704c2.643 9.456 2.969 16.52 2.969 18.211 0 3.554-.522 17.456-.074 17.784.447.327 2.493.393 2.749 0s.192-16.052.895-19.524 1.599-4.979 2.238-8.975c.639-3.997 1.151-14.348 1.151-14.742 0-.393-9.399-.458-9.399-.458" fill="#1ac1f3"/><path d="m63.2003 63.0023s-5.337 2.333-4.545 5.756c2.237 9.674-3.546 16.088.68 22.861 1.253 2.008 11.963 1.415 12.415.679 1.266-2.06-2.159-9.437-2.26-13.241-.174-6.496 2.959-6.202.207-12.012-1.51-3.186-1.804-3.547-2.535-3.906-.73-.359-3.962-.137-3.962-.137" fill="#85e2ff"/><path d="m80.2892 84.1459s2.315-1.638 2.708-1.681c.393-.044-.623 1.135-.885 1.408-.261.273 4.052.866 4.281 1.292s-.852 1.158-1.682 1.081-4.695-.68-4.695-.68z" fill="#ffebd2"/><path d="m80.4313 83.9276c.265.551 0 1.583-.394 1.774-.393.191-9.608-3.816-12.753-6.377-3.145-2.56-8.156-8.193-7.993-10.247.175-2.206 1.356-3.193 2.839-2.665 1.562.557 4.843 8.747 9.06 11.237 4.218 2.489 7.821 5.525 9.241 6.278" fill="#6bd9f7"/><path d="m62.5338 62.831s-.614.718-.537.961c.341 1.07 3.387 2.522 4.217 2.238.575-.197.599-2.556.568-2.566-.031-.009-.243-.546-.437-.634-.195-.088-3.312-.589-3.811.001" fill="#fff"/><path d="m61.7697 54.0082s-1.267-2.511-2.752-2.621c-1.485-.109-3.996.677-4.018 3.342-.013 1.563 1.616 2.446 1.769 3.265.073.394-1.529 2.741.655 2.741 2.577-.001 1.376-2.512 1.201-2.578-.174-.065.852-.065 1.231-1.218.181-.548.167-1.315.538-1.512.371-.196 1.376-1.419 1.376-1.419" fill="#1a2982"/><path d="m63.0914 60.4364-.087 3.21s.688.743 1.462 1.06c1.475.602 1.704-.241 1.704-.241l.256-2.413s1.442.131 1.999-1.212 1.228-4.242.213-4.668c-1.016-.426-3.62-1.179-3.62-1.179l-2.359 1.982-.54 2.391z" fill="#ffebd2"/><path d="m63.5822 54.2484s-.655-.966-1.31-.985-1.791 1.378-1.878 2.164c-.088.786 1.144 1.356 1.603 1.138.458-.218 1.794-2.048 1.585-2.317" fill="#c0edff"/><path d="m64.8629 59.0092c.391-.098.952-1.631 1.777-1.66.825-.028 1.694.786 2.524.83s1.625-4.499-2.83-4.892-4.934 4.082-5.092 5.407c-.114.949.582 3.256 1.554 3.46s.524-3.407.961-3.494c.437-.088.407.524 1.106.349" fill="#1a2982"/><path d="m142.3131 7.7016c-1.041.823-6.105 5.341-5.802 5.912.304.571 2.055 2.446 2.445 2.12.389-.326 2.303-2.517 2.303-2.517s-1.724 13.689-1.503 14.056c.222.367 7.228 2.895 7.228 2.895l5.061-2.977s-1.022-13.467-1.216-13.956c-.195-.49 2.773 1.847 3.113 1.888.341.04 2.531-1.509 2.628-1.998s-5.547-5.586-6.909-6.157c-1.363-.571-5.872-.431-7.348.734" fill="#1ac1f3"/><path d="m133.8209 21.4149 13.759 1.481 10.623-.933-1.046 3.929-11.47 3.333s-9.239-4.916-9.323-4.916c-.085 0-2.543-2.894-2.543-2.894" fill="#1a2982"/><path d="m136.7872 13.6586s-2.938 4.439-2.966 4.604c-.029.167 3.927 5.339 5.085 5.434 1.158.094.452-1.373.311-1.705s-3.277-3.669-3.193-3.859c.085-.189 2.487-2.817 2.684-2.982.198-.166-1.412-1.492-1.921-1.492" fill="#ffebd2"/><path d="m156.1154 13.3837s2.938 4.403 2.966 4.569c.029.165-3.927 5.374-5.085 5.469-1.158.094-.452-1.373-.311-1.705s3.277-3.669 3.193-3.859c-.085-.189-2.487-2.817-2.684-2.982-.198-.166 1.412-1.492 1.921-1.492" fill="#ffebd2"/><path d="m144.3449 7.6405c-.058.496.549 2.104 1.891 2.006 1.342-.099 1.909-1.102 1.895-1.71-.014-.607-.368-1.525-.932-1.525-.565 0-2.685-.226-2.854 1.229" fill="#fff"/><path d="m132.4992 35.661c0 .854 6.422-.449 7.472-1.874s.281-1.81.281-1.81-7.753.825-7.753 3.684" fill="#1a2982"/><path d="m158.9494 35.058c0 .854-6.422-.449-7.472-1.874s-.281-1.81-.281-1.81 7.753.825 7.753 3.684" fill="#1a2982"/><path d="m145.1373 4.3393v3.691s.312.919 1.211.806c.898-.113.986-1.13.986-1.13l-.08-3.367z" fill="#e5cfba"/><path d="m143.4562 4.7914c0 1.535 1.245 2.779 2.78 2.779s2.779-1.244 2.779-2.779-1.244-2.78-2.779-2.78-2.78 1.245-2.78 2.78" fill="#ffebd2"/><path d="m149.4298 5.4291c-.415.471-1.712.624-2.607-.188-1.266-1.149-2.062-2.008-2.062-2.008s.142 1.574-.721 1.687-1.014-.32-1.014-.32-.33-1.998.772-2.881c4.24-3.4 6.891 2.278 5.632 3.71" fill="#1a2982"/><path d="m138.4826 15.8334c-.378.378-.264 9.041 0 9.267s15.595.527 15.896.15c.302-.376-.112-9.869-.414-10.17-.301-.302-14.691-.038-15.482.753" fill="#fff"/><path d="m139.757 31.977c-.008.4.11 2.145.44 2.145s19.739-5.224 20.784-7.148c.955-1.76.503-3.451 0-3.959-1.253-1.267-2.778-1.6-4.069-.66-1.814 1.321-17.141 8.968-17.155 9.622" fill="#2e62e5"/><path d="m151.6915 31.3744c.009.4-.11 2.144-.44 2.144s-19.739-5.223-20.784-7.148c-.955-1.759-.435-3.391 0-3.958.971-1.267 3.036-1.592 4.069-.661 1.666 1.503 17.141 8.969 17.155 9.623" fill="#2e62e5"/></g></g></svg>