<svg height="210" viewBox="0 0 305 210" width="305" xmlns="http://www.w3.org/2000/svg" xmlns:xlink="http://www.w3.org/1999/xlink"><mask id="a" fill="#fff"><path d="m0 .7395h49.2083v35.8194662h-49.2083z" fill="#fff" fill-rule="evenodd"/></mask><mask id="b" fill="#fff"><path d="m.0544.0862034h15.7446v16.7121966h-15.7446z" fill="#fff" fill-rule="evenodd"/></mask><mask id="c" fill="#fff"><path d="m.66566667 0h143.90933333v159.5981h-143.90933333z" fill="#fff" fill-rule="evenodd"/></mask><g fill="none" fill-rule="evenodd"><path d="m4.7493 139.1234c16.728-13.891 45.988 32.664 45.282 36.095-3.728-3.441-9.208-8.487-17.233-15.86-13.473-12.377-22.785-17.843-28.049-20.235" fill="#76abff"/><path d="m32.2503 20.9545c7.833 7.196 13.237 12.172 16.958 15.604-6.956.108-55.81-18.574-48.457-31.466 1.026-1.8 2.138-3.232 3.316-4.353 5.138 2.297 14.567 7.706 28.183 20.215" fill="#4a75ff" mask="url(#a)" transform="translate(0 139)"/><path d="m49.2078 175.559c-3.721-3.433-9.124-8.408-16.958-15.604-13.616-12.509-23.044-17.918-28.182-20.215.225-.214.452-.425.682-.617 5.263 2.392 14.575 7.859 28.048 20.236 8.026 7.373 13.505 12.419 17.233 15.859-.009.046-.019.09-.039.12-.096.146-.369.215-.784.221" fill="#fff"/><path d="m44.9973 175.519c-12.318-2.767-32.046-5.841-38.998-6.894 4.806-17.143 35.885 2.977 38.998 6.894" fill="#76abff"/><path d="m5.6228 170.351c.061-.381.135-.744.216-1.097 6.94 1.051 26.993 4.172 39.293 6.956-2.429 2.35-42.012 9.936-39.509-5.859" fill="#4a75ff"/><path d="m45.2517 176.0287c-.009.057-.054.117-.12.182-12.3-2.785-32.353-5.906-39.293-6.956.05-.215.103-.425.161-.629 6.951 1.052 26.68 4.127 38.998 6.893.179.227.272.403.254.51" fill="#fff"/><path d="m43.4119 166.8568c-3.68-12.076-10.756-30.747-13.274-37.311 17.278-4.293 15.142 32.669 13.274 37.311" fill="#76abff"/><path d="m28.4505 130.0717c.362-.137.714-.251 1.061-.354 2.515 6.552 9.709 25.529 13.366 37.598-3.242-.951-29.396-31.617-14.427-37.244" fill="#4a75ff"/><path d="m43.0945 167.3305c-.053.02-.128.011-.217-.015-3.657-12.069-10.851-31.046-13.366-37.598.211-.064.42-.12.626-.171 2.519 6.563 9.594 25.234 13.274 37.31-.108.269-.214.436-.317.474" fill="#fff"/><path d="m289.8235 142.4037c-20.951-7.865-36.273 41.998-34.532 44.885 2.702-4.117 6.677-10.157 12.503-18.989 9.782-14.825 17.472-22.298 22.029-25.896" fill="#76abff"/><path d="m268.5232 168.684c-5.687 8.62-9.607 14.576-12.304 18.684 7.006-1.821 50.36-32.053 39.108-41.605-1.571-1.333-3.117-2.312-4.635-2.994-4.459 3.478-12.283 10.933-22.169 25.915" fill="#4a75ff"/><path d="m256.2195 187.3676c2.697-4.107 6.616-10.063 12.304-18.684 9.885-14.982 17.71-22.437 22.169-25.915-.29-.13-.58-.256-.869-.365-4.557 3.598-12.247 11.071-22.029 25.897-5.826 8.831-9.801 14.871-12.503 18.988.023.038.046.075.075.097.14.103.436.09.853-.018" fill="#fff"/><path d="m260.4285 186.1713c11.516-5.878 30.369-14.072 37.021-16.934-9.977-14.069-35.08 12.559-37.021 16.934" fill="#76abff"/><path d="m298.347 170.684c-.176-.326-.359-.631-.547-.925-6.641 2.855-25.805 11.182-37.298 17.071 3.142 1.439 45.108-2.654 37.845-16.146" fill="#4a75ff"/><path d="m260.3269 186.6996c.026.048.089.09.175.13 11.493-5.889 30.657-14.216 37.298-17.07-.115-.18-.231-.354-.35-.522-6.652 2.861-25.505 11.056-37.021 16.934-.112.253-.152.436-.102.528" fill="#fff"/><path d="m261.7879 97.4496c-1.019 3.349-2.137 6.953-3.318 10.757-1.125 3.625-2.317 7.473-3.533 11.453l-17.457-18.32c.751-11.006-1.824-22.542-1.543-30.091.057-1.52.491-4.251 1.44-7.398l26.808 17.44c-.117 5.433-.812 10.945-2.397 16.159" fill="#c0edff"/><path d="m259.9226 44.8744c13.211.947 20.091 9.767 23.498 20.264l-17.538 13.969c-.091-14.948-4.183-28.88-5.96-34.233" fill="#c0edff"/><path d="m260.0828 108.7074c1.181-3.807 2.301-7.414 3.32-10.768 1.637-5.381 2.348-11.065 2.464-16.66l18.084-14.404c1.398 4.912 2.098 10.104 2.369 14.975.453 8.16-2.065 17.294-5.156 26.011-9.518 3.483-20.193 9.269-24.413 11.639 1.146-3.744 2.269-7.369 3.332-10.793" fill="#c0edff"/><path d="m264.199 79.2856-26.28-17.097c2.734-7.891 8.618-17.417 19.643-17.407.189 0 .367.014.554.017 1.608 4.721 6.025 19.094 6.083 34.487" fill="#c0edff"/><path d="m242.8963 163.8481c-3.434-5.731-14.162-23.79-19.383-34.301 3.817-4.498 7.542-8.629 10.393-14.133 1.896-3.66 2.893-7.695 3.362-11.847l17.102 17.947c-4.03 13.257-8.29 28.033-11.474 42.334" fill="#c0edff"/><path d="m208.1326 159.0502c3.241-13.864 8.73-21.538 14.195-28.096 6.07 12.08 18.409 32.592 20.05 35.31-1.677 7.811-3.01 15.44-3.776 22.558-14.948.047-28.545-.038-29.291-.008-1.677.066-6.923-5.184-1.178-29.764" fill="#c0edff"/><path d="m256.034 121.85c1.969-1.13 13.795-7.827 24.379-11.904-3.573 9.741-7.637 18.806-8.779 25.178-1.458 8.136-1.117 13.205.477 18.019-8.198 6.325-23.215 10.605-27.723 11.79 3.2-14.522 7.543-29.593 11.646-43.083" fill="#c0edff"/><path d="m272.7088 154.7895c.874 2.234 2.001 4.482 3.341 7.031 4.54 8.637 3.47 24.004 2.488 25.723-.529.925-20.052 1.203-38.235 1.272.757-6.953 2.056-14.401 3.691-22.034 3.253-.809 19.46-5.087 28.715-11.992" fill="#c0edff"/><g fill="#fff"><path d="m254.9368 119.6596c1.216-3.979 2.408-7.828 3.533-11.453 1.181-3.804 2.299-7.408 3.318-10.757 1.585-5.214 2.28-10.726 2.398-16.159l.918.598.763-.609c-.116 5.595-.827 11.278-2.464 16.66-1.019 3.354-2.139 6.961-3.32 10.768-1.063 3.424-2.186 7.049-3.332 10.793-.516.29-.969.547-1.277.722z"/><path d="m265.8826 79.1078-.879.701-.805-.523c-.057-15.393-4.475-29.766-6.083-34.488.614.01 1.218.034 1.807.077 1.777 5.352 5.869 19.285 5.96 34.233"/><path d="m242.8963 163.8481c3.184-14.301 7.444-29.077 11.474-42.334l.799.839.576-.337c.013-.008.115-.066.289-.166-4.103 13.49-8.447 28.56-11.646 43.083-.28.074-.533.14-.727.188-.182-.302-.446-.741-.765-1.273"/><path d="m242.5379 166.5287.318.526.599-.141c.077-.019.262-.063.539-.132-1.635 7.633-2.934 15.081-3.691 22.034-.569.003-1.136.005-1.702.007.767-7.118 2.1-14.747 3.777-22.559.073.121.131.217.16.265"/><path d="m264.1853 81.2904-26.809-17.439c.164-.542.347-1.099.542-1.663l26.281 17.097c.002.667 0 1.335-.014 2.005"/><path d="m265.8826 79.1078 17.538-13.97c.187.574.364 1.155.53 1.738l-18.084 14.404c.015-.726.02-1.45.016-2.172"/><path d="m264.1853 81.2904c.014-.67.016-1.338.014-2.005l.804.524.879-.702c.005.722-.001 1.447-.016 2.172l-.763.609z"/><path d="m254.3704 121.5141-17.102-17.947c.083-.74.16-1.482.211-2.228l17.457 18.321c-.189.618-.376 1.23-.566 1.854"/><path d="m256.7513 119.5004c4.22-2.37 14.895-8.156 24.412-11.639-.247.698-.496 1.393-.75 2.084-10.584 4.077-22.411 10.775-24.379 11.905.24-.791.478-1.571.717-2.35"/><path d="m255.1692 122.3529-.799-.839c.19-.624.378-1.236.567-1.854l.536.563c.308-.176.761-.433 1.278-.723-.239.78-.477 1.559-.717 2.35-.174.1-.276.158-.289.166z"/><path d="m244.388 164.933c4.508-1.185 19.525-5.465 27.723-11.79.182.55.383 1.099.598 1.646-9.256 6.906-25.463 11.183-28.715 11.993.132-.617.258-1.23.394-1.849"/><path d="m242.3777 166.2641c-1.641-2.718-13.98-23.229-20.05-35.31.396-.474.791-.942 1.186-1.407 5.221 10.511 15.949 28.57 19.383 34.301-.18.809-.346 1.61-.519 2.416"/><path d="m243.6614 165.1215c.194-.049.447-.114.727-.188-.137.619-.263 1.232-.394 1.848-.278.069-.463.113-.54.132l-.599.142-.318-.527c-.029-.048-.086-.143-.16-.264.173-.806.339-1.608.519-2.416.319.532.582.97.765 1.273"/></g><path d="m232.138 182.7211-1.116-1.133c.166-.163 16.674-16.718 30.221-52.732 13.679-36.372 36.572-59.623 36.802-59.855l1.129 1.123c-.228.228-22.889 23.254-36.442 59.291-13.682 36.376-30.426 53.141-30.594 53.306" fill="#1ac1f3"/><path d="m13.9954 1.5414c8.146 5.535-13.941 15.257-13.941 15.257s3.194-22.56 13.941-15.257" fill="#1ac1f3" mask="url(#b)" transform="translate(289 64)"/><path d="m295.4397 92.2289c.294 6.84-14.296-1.442-14.296-1.442s13.907-7.583 14.296 1.442" fill="#1ac1f3"/><path d="m275.9788 78.1479c5.683-3.819 6.227 12.95 6.227 12.95s-13.725-7.911-6.227-12.95" fill="#1ac1f3"/><path d="m289.8225 113.9193c1.138 10.061-21.239-.657-21.239-.657s19.738-12.617 21.239.657" fill="#1ac1f3"/><path d="m283.5647 131.4438c1.206 10.665-22.512-.696-22.512-.696s20.921-13.374 22.512.696" fill="#1ac1f3"/><path d="m273.8855 151.5033c1.151 10.182-21.492-.665-21.492-.665s19.973-12.768 21.492.665" fill="#1ac1f3"/><path d="m261.2522 167.9574c2.972 9.806-21.259 3.229-21.259 3.229s17.338-16.167 21.259-3.229" fill="#1ac1f3"/><path d="m259.8606 98.2699c6.809-5.314 8.994 15.737 8.994 15.737s-17.978-8.725-8.994-15.737" fill="#1ac1f3"/><path d="m248.3699 118.6147c4.68-7.259 13.673 11.9 13.673 11.9s-19.848-2.322-13.673-11.9" fill="#1ac1f3"/><path d="m241.4968 136.4223c5.944-6.267 11.23 14.228 11.23 14.228s-19.073-5.96-11.23-14.228" fill="#1ac1f3"/><path d="m235.3421 153.6469c7.796-3.717 5.379 17.31 5.379 17.31s-15.666-12.406-5.379-17.31" fill="#1ac1f3"/><path d="m69.0999 156.2982h-.031c-7.691-.187-13.929 1.996-18.541 6.484-6.214 6.05-8.292 15.028-8.952 21.408 1.827.049 3.791.091 5.857.127.808-4.29 2.558-9.301 6.313-12.956 3.552-3.459 8.318-5.141 14.167-5 .008 0 .016.001.023.001 9.951.247 17.049 3.891 21.099 10.836 1.377 2.361 2.201 4.82 2.689 7.046 3.454-.054 6.73-.118 9.739-.189-.474-4.417-1.964-10.723-6.11-16.209-5.57-7.369-14.403-11.255-26.253-11.548" fill="#c2dfff"/><path d="m69.7932 132.352c-43.542-1.053-42.133 48.148-42.194 50.604-.01.399 2.393.706 6.407.935.371-8.134 2.467-22.822 12.177-32.276 6.204-6.039 14.544-8.976 24.789-8.729.013.001.028.001.041.002 17.494.433 29.963 6.82 37.064 18.989 4.717 8.084 5.821 16.789 5.88 21.76 2.915-.148 4.648-.308 4.734-.471.644-1.207 3.682-49.543-48.898-50.814" fill="#c2dfff"/><path d="m49.386 161.6107c4.938-4.809 11.575-7.146 19.722-6.949h.033c13.896.344 23.804 5.424 29.449 15.1 2.912 4.992 4.08 10.278 4.478 14.254 3.602-.091 6.757-.193 9.271-.302-.078-5.154-1.307-15.475-7.802-24.24-7.073-9.544-18.366-14.574-33.565-14.95h-.039c-9.789-.237-17.731 2.544-23.607 8.264-9.318 9.071-11.328 23.299-11.684 31.188 1.306.062 2.742.117 4.293.165.677-6.644 2.85-16.104 9.451-22.53" fill="#c2dfff"/><path d="m86.1956 175.9106c-3.915-5.046-10.072-7.708-18.3-7.911-.008 0-.014-.001-.022-.001-5.392-.13-9.761 1.395-12.986 4.535-3.386 3.296-5.017 7.839-5.797 11.809 12.24.179 27.724.122 40.984-.073-.628-2.643-1.781-5.656-3.879-8.359" fill="#8dc1ff"/><path d="m71.013 142.8881c-.013-.001-.027-.001-.041-.002-10.245-.247-18.585 2.69-24.789 8.729-9.71 9.454-11.805 24.142-12.176 32.276.519.029 1.063.058 1.635.085.356-7.89 2.366-22.117 11.684-31.189 5.876-5.719 13.818-8.501 23.607-8.263h.039c15.199.376 26.492 5.406 33.565 14.95 6.495 8.765 7.724 19.086 7.802 24.239.576-.025 1.112-.051 1.618-.076-.058-4.971-1.163-13.676-5.88-21.76-7.101-12.169-19.569-18.556-37.064-18.989" fill="#8dc1ff"/><path d="m50.5281 162.7826c4.611-4.488 10.85-6.671 18.541-6.484l.02-.819-.02.819h.031c11.85.293 20.683 4.178 26.253 11.547 4.146 5.487 5.636 11.792 6.11 16.209.544-.012 1.08-.025 1.605-.039-.398-3.976-1.566-9.262-4.478-14.254-5.645-9.676-15.553-14.756-29.449-15.1h-.033c-8.147-.197-14.784 2.141-19.722 6.949-6.601 6.426-8.775 15.886-9.451 22.53.534.018 1.08.034 1.64.049.661-6.38 2.739-15.357 8.953-21.407" fill="#8dc1ff"/><path d="m67.9358 166.3627c-.007 0-.015-.001-.023-.001l-.019.818.019-.818c-5.849-.142-10.615 1.54-14.167 4.999-3.755 3.655-5.505 8.666-6.313 12.956.545.009 1.098.018 1.657.025.781-3.969 2.411-8.512 5.798-11.808 3.225-3.14 7.594-4.665 12.986-4.535.007 0 .014.001.022.001 8.228.203 14.385 2.865 18.3 7.911 2.097 2.703 3.251 5.716 3.879 8.359.552-.009 1.104-.016 1.649-.025-.488-2.227-1.312-4.686-2.689-7.046-4.05-6.945-11.148-10.59-21.099-10.836" fill="#8dc1ff"/><path d="m98.1204 102.269c-.098-.218-9.848-21.883-13.81-32.525-13.798-37.07-29.282-44.176-29.436-44.245l.454-1.049c.649.279 16.054 7.281 30.055 44.894 3.948 10.609 13.683 32.238 13.78 32.455z" fill="#a4e2ff"/><path d="m50.5545 18.0912c-8.422 5.67 14.305 15.791 14.305 15.791s-3.192-23.272-14.305-15.791" fill="#a4e2ff"/><path d="m59.1038 47.019c-.334 7.051 14.746-1.423 14.746-1.423s-14.305-7.881-14.746 1.423" fill="#a4e2ff"/><path d="m79.2307 32.5893c-5.842-3.964-6.478 13.322-6.478 13.322s14.186-8.093 6.478-13.322" fill="#a4e2ff"/><path d="m75.5506 83.3481c-.334 7.052 14.746-1.423 14.746-1.423s-14.306-7.88-14.746 1.423" fill="#a4e2ff"/><path d="m95.677 68.9184c-5.842-3.963-6.478 13.323-6.478 13.323s14.186-8.094 6.478-13.323" fill="#a4e2ff"/><path d="m61.7747 65.8217c-1.218 10.368 21.9-.583 21.9-.583s-20.293-13.096-21.9.583" fill="#a4e2ff"/><path d="m92.2678 49.2221c-6.996-5.51-9.342 16.185-9.342 16.185s18.573-8.916 9.342-16.185" fill="#a4e2ff"/><path d="m247.0647 87.5815c-.002-.114-.006-.228-.013-.339.006.112.012.225.013.339" fill="#005ef0"/><path d="m247.0686 87.6879c0-.036-.003-.071-.004-.106.001.044.003.088.003.134 0-.009.001-.019.001-.028" fill="#0f3872"/><path d="m247.0515 87.2426c-.023-.427-.078-.84-.165-1.237-.001.006-.002.011-.003.017.085.389.143.796.168 1.22" fill="#0f3872"/><path d="m242.5667 81.642c.111.001.221.011.331.022-.11-.012-.22-.019-.331-.022" fill="#005ef0"/><path d="m242.8972 81.6645c1.833.22 3.455 1.926 3.986 4.358.002-.005.003-.011.004-.017-.514-2.371-2.086-4.14-3.99-4.341" fill="#005ef0"/><path d="m247.0686 87.9037c0-.581-.063-1.149-.182-1.69-.203.939-.575 1.782-1.067 2.472h-.022c.495-.686.876-1.531 1.086-2.49-.366-1.657-1.254-3.057-2.47-3.796l-71.344-43.325c-1.126-.685-2.275-1.279-3.439-1.787-1.143-.499-2.301-.913-3.47-1.243-4.544-1.282-9.24-1.282-13.784 0-1.168.33-2.327.744-3.47 1.243-1.164.508-2.312 1.102-3.439 1.787l-71.344 43.325c-1.217.739-2.105 2.139-2.471 3.796.21.959.591 1.804 1.087 2.49h-.023c-.491-.69-.863-1.533-1.067-2.472-.118.541-.182 1.108-.182 1.69 0 .266.018.525.042.782h-.042v60.806h175.416v-59.888c.119-.54.185-1.109.185-1.7" fill="#1a2982"/><path d="m144.575 159.5981h-141.988s-4.323-154.516 0-157.979c4.55-3.644 110.774 0 110.774 0l31.214 35.375z" fill="#ebfaff" mask="url(#c)" transform="translate(86)"/><path d="m199.3606 1.6195c2.989.009 28.658 23.86 31.214 35.374.488 2.196-26.161-6.325-28.067-7.744-2.089-1.558-3.147-27.63-3.147-27.63" fill="#a4e2ff"/><path d="m189.614 19.1127h-69.981c-.972 0-1.76-.788-1.76-1.76v-1.33c0-.972.788-1.759 1.76-1.759h69.981c.972 0 1.76.787 1.76 1.759v1.33c0 .972-.788 1.76-1.76 1.76" fill="#a4e2ff"/><path d="m189.614 29.2494h-69.981c-.972 0-1.76-.788-1.76-1.76v-1.33c0-.972.788-1.76 1.76-1.76h69.981c.972 0 1.76.788 1.76 1.76v1.33c0 .972-.788 1.76-1.76 1.76" fill="#a4e2ff"/><path d="m190.1287 40.4789h-71.011c-.971 0-1.76-.787-1.76-1.759v-1.33c0-.972.789-1.76 1.76-1.76h71.011c.972 0 1.76.788 1.76 1.76v1.33c0 .972-.788 1.759-1.76 1.759" fill="#a4e2ff"/><path d="m35.2424 176.4135h.011c2.917.031 5.252.94 6.94 2.703 2.275 2.374 2.944 5.803 3.11 8.23-.693-.006-1.438-.016-2.221-.03-.25-1.636-.847-3.558-2.221-4.993-1.301-1.357-3.084-2.057-5.303-2.081h-.008c-3.774-.038-6.512 1.249-8.138 3.827-.553.876-.898 1.797-1.112 2.634-1.308-.065-2.549-.134-3.688-.2.238-1.667.886-4.037 2.529-6.061 2.208-2.718 5.607-4.074 10.101-4.029" fill="#c0edff"/><path d="m35.2962 167.3305c16.513.177 15.329 18.802 15.319 19.732-.002.152-.916.237-2.44.27-.033-3.087-.633-8.68-4.188-12.391-2.271-2.37-5.392-3.593-9.277-3.634h-.016c-6.634-.068-11.443 2.188-14.295 6.705-1.894 3.001-2.427 6.285-2.515 8.168-1.103-.095-1.757-.179-1.788-.242-.228-.465-.74-18.821 19.2-18.608" fill="#c0edff"/><path d="m42.6419 178.6869c-1.808-1.888-4.291-2.86-7.381-2.894h-.013c-5.27-.053-9.091 1.741-11.358 5.332-1.169 1.853-1.682 3.841-1.885 5.342-1.363-.082-2.558-.162-3.509-.237.098-1.951.7-5.846 3.277-9.081 2.806-3.524 7.152-5.279 12.916-5.222.005 0 .01 0 .015.001 3.712.039 6.685 1.198 8.835 3.444 3.411 3.56 3.985 8.977 4.015 11.971-.495.006-1.04.008-1.628.006-.169-2.526-.867-6.14-3.284-8.662" fill="#c0edff"/><path d="m28.5051 183.6186c1.55-1.859 3.918-2.787 7.039-2.756.003.001.005.001.008.001 2.045.022 3.681.657 4.861 1.89 1.239 1.294 1.798 3.036 2.041 4.551-4.641-.094-10.507-.321-15.529-.57.273-.993.749-2.119 1.58-3.116" fill="#8ddfff"/><path d="m34.6946 171.307h.016c3.885.041 7.006 1.265 9.277 3.635 3.555 3.711 4.154 9.303 4.187 12.39-.197.005-.403.008-.621.011-.03-2.994-.604-8.411-4.014-11.972-2.151-2.245-5.124-3.404-8.836-3.443-.005-.001-.01-.001-.015-.001-5.764-.058-10.11 1.698-12.916 5.222-2.577 3.235-3.179 7.13-3.276 9.081-.219-.017-.421-.033-.613-.05.088-1.883.622-5.167 2.516-8.168 2.851-4.517 7.66-6.772 14.295-6.705" fill="#8ddfff"/><path d="m42.1936 179.1166c-1.688-1.763-4.023-2.672-6.94-2.703l.003-.31-.003.31h-.011c-4.494-.045-7.893 1.31-10.101 4.029-1.643 2.024-2.291 4.394-2.529 6.061-.206-.012-.409-.024-.608-.036.204-1.501.716-3.49 1.885-5.342 2.267-3.592 6.089-5.386 11.359-5.332h.012c3.09.033 5.574 1.006 7.381 2.893 2.417 2.523 3.115 6.136 3.284 8.662-.203 0-.41-.002-.623-.003-.165-2.426-.835-5.855-3.109-8.229" fill="#8ddfff"/><path d="m35.5501 180.2426h.009l-.004.311.004-.311c2.218.023 4.002.724 5.302 2.081 1.375 1.435 1.972 3.356 2.221 4.993-.207-.004-.416-.008-.628-.012-.243-1.515-.801-3.257-2.041-4.551-1.18-1.233-2.816-1.868-4.861-1.89-.002 0-.005 0-.008-.001-3.12-.031-5.489.897-7.039 2.756-.83.997-1.307 2.123-1.58 3.116-.209-.01-.418-.02-.625-.031.214-.837.56-1.758 1.113-2.634 1.626-2.578 4.364-3.865 8.137-3.827" fill="#8ddfff"/><path d="m247.0686 87.7162c-.009 2.358-1.044 4.497-2.655 5.476l-69.822 45.314-1.243.807c-.624.38-1.256.728-1.893 1.053l.487.352-24.63-.519c-.526-.277-1.049-.572-1.567-.886l-1.543-.993-70.079-45.128c-1.611-.979-2.646-3.117-2.656-5.476.001.012 0 .021 0 .033v96.864c0 3.503 2.163 5.699 4.485 6.107 41.406 7.272 99.846 10.273 166.631 0 2.331-.359 4.485-2.604 4.485-6.107v-96.865c0-.011-.001-.021 0-.032" fill="#5f8dff"/><path d="m242.5833 190.7201c1.41-.218 2.751-1.128 3.594-2.585l-75.369-52.246c-3.813-3.261-7.871-5.591-11.908-5.591-4.153 0-6.958 1.538-12.235 5.423l-75.197 44.231v4.662c0 3.502 2.162 5.698 4.484 6.106 41.406 7.272 99.847 10.273 166.631 0" fill="#4a75ff"/><path d="m131.6946 57.767c-1.988.316-6.563 6.838-5.433 8.383s57.137 39.822 59.043 39.388 6.364-7.999 6.583-10.51c.22-2.512-57.26-37.728-60.193-37.261" fill="#1ac1f3"/><path d="m127.9343 98.2973c-.34 1.984 4.366 8.413 6.192 7.839s56.072-41.309 56.273-43.253c.202-1.944-5.529-8.597-7.837-9.612s-54.128 42.098-54.628 45.026" fill="#1ac1f3"/><path d="m22.8953 96.9223c-.224 1.471 4.843 14.978 7.068 15.146 3.777.287 69.359-32.793 71.255-33.707 1.059-.509 6.155-5.83 10.495-10.668-3.766-2.319 4.05-5.972.765-7.167-.942-.026-1.746-.12-2.449-.311-5.406.842-12.04 2.189-15.143 3.112-2.832.843-71.766 32.124-71.991 33.595" fill="#ffd4b3"/><path d="m27.0872 108.3813c1.074 2.085 2.133 3.631 2.876 3.688 3.777.286 69.359-32.794 71.255-33.708.819-.394 4.05-3.664 7.478-7.361-27.905 10.956-55.331 22.94-81.609 37.381" fill="#4a75ff"/><path d="m22.8953 96.9223c-.08.525.517 2.586 1.415 5.022 28.205-11.182 55.352-24.631 81.158-40.953-4.175.764-8.318 1.662-10.582 2.336-2.832.843-71.766 32.124-71.991 33.595" fill="#4a75ff"/><path d="m24.3103 101.9447c.778 2.111 1.782 4.505 2.777 6.437 26.64-13.678 54.04-25.163 81.609-37.381 1.008-1.086 2.031-2.208 3.017-3.307-3.766-2.319 4.05-5.973.765-7.168-.942-.025-1.746-.119-2.449-.31-1.462.227-3.013.493-4.561.776-27.117 15.978-53.268 27.406-81.158 40.953" fill="#76abff"/><path d="m94.6023 66.1361c1.716 2.172 4.947-.516 5.994 1.729 1.571 3.365-3.709 4.036-1.706 7.093.913 1.393 3.684.805 4.902 1.145 2.138-2.107 5.179-5.353 7.921-8.409 3.469-3.866 6.455-7.423 6.511-7.971.059-.57-3.631-.219-8.195.492-5.106.795-11.303 2.041-14.591 2.955-.608 1.142-1.318 2.355-.836 2.966" fill="#cfe7ff"/><path d="m114.5808 64.4379c2.1-2.438 3.604-4.328 3.644-4.715.047-.46-2.349-.319-5.675.125.689 1.681 1.064 3.407 2.031 4.59" fill="#5f8dff"/><path d="m18.1443 117.3266c.976.354 6.643-2.417 6.872-3.207s-6.643-14.235-7.297-14.355c-.654-.122-5.423 2.103-6.031 2.813-.607.711 4.194 13.926 6.456 14.749" fill="#5f8dff"/><path d="m24.2307 114.9984c.958.146 7.613-2.796 6.854-3.453-1.312-1.14-7.891-13.092-7.067-15.147.526-1.314-6.494 2.947-6.953 3.245-.458.298 5.235 15.061 7.166 15.355" fill="#cfe7ff"/><path d="m33.8147 113.8363c.755 2.396 2.987 9.369 3.385 9.414.482.054 7.908-1.714 8.343-1.711.434.002 2.803 3.616 2.807 4.545 0 0-12.112 1.337-12.807 1.069-.564-.216-3.205-8.978-4.239-12.38.886-.133 1.709-.401 2.511-.937" fill="#76abff"/><path d="m34.5589 199.3402c-.706.095-3.144-6.471-2.745-7.808.398-1.337 2.479-1.443 2.479-1.123 0 .322 1.461 8.771.266 8.931" fill="#1a2982"/><path d="m62.0569 207.934c-.52.486-6.312-3.449-6.763-4.77-.45-1.32 1.183-2.614 1.369-2.352s6.275 6.299 5.394 7.122" fill="#1a2982"/><path d="m62.9641 148.2865s-1.818 27.845-2.674 34.583-2.567 19.252-2.567 19.252c-.588.936-2.246 0-2.246 0s-.582-22.006-.262-23.183c.321-1.175-.593-14.358-.593-14.358s-.883 12.727-2.648 14.438c-1.764 1.712-16.818 13.691-17.887 13.37-1.07-.321-.856-1.711-.856-1.711s12.834-14.546 13.69-14.76c.855-.214-2.781-24.706-.535-28.342 2.246-3.637 9.305-2.303 9.305-2.303z" fill="#1e41d3"/><path d="m63.3396 147.0668s.335 3.597-.574 4.201-3.545 2.403-10.497 1.067c-5.829-1.122-8.021-2.005-6.191-5.91 1.714-3.657 17.262.642 17.262.642" fill="#76abff"/><path d="m77.4295 84.0453c.578-.124 1.283.909 1.337 1.657.053.749 0 7.06 0 7.06h-1.551s-2.032-8.236.214-8.717" fill="#ffebd2"/><path d="m75.4568 86.9594c-.574.207.406 3.121.976 3.583.569.462 1.029 1.203 1.029 1.203s-1.337-5.026-2.005-4.786" fill="#ffebd2"/><path d="m79.1673 92.0668h-2.353s-2.139 12.62-2.995 13.689c-.855 1.07-6.15 7.728-9.384 9.707-2.373 1.451-3.878 1.63-3.878 1.63s-1.711 2.995 0 5.99c1.712 2.995 1.925 1.07 1.925 1.07s12.533-11.472 14.118-16.471c1.391-4.386 2.995-13.904 2.567-15.615" fill="#76abff"/><path d="m58.4578 106.5316s5.053 1.898 4.866 4.118c-.187 2.219-1.898 2.62-1.898 2.62l-.532 4.894h-1.687l-3.209-3.343s.829-4.706.882-4.786c.054-.08 1.578-3.503 1.578-3.503" fill="#ffebd2"/><path d="m61.1189 116.2914s-.2 2.046-2.767 1.484c-2.567-.561-3.891-1.484-3.891-1.484l-4.652 10.026 1.364 1.72s.801 3.655-2.086 8.148c-1.328 2.065-6.096 11.47.08 13.075 6.177 1.603 12.353 2.726 14.198-1.365 1.845-4.09 1.845-15.08 1.096-20-.232-1.527-2.34-11.394-3.342-11.604" fill="#3369f0"/><path d="m60.5437 104.9281c-1.163-2.133-6.206-1.097-7.409 1.203-1.203 2.299-1.07 4.786-1.578 5.16s-4.518 2.46-5.508 6.016c-.989 3.557-1.043 9.092 2.166 10.321 3.209 1.231 9.278-.374 10.508-3.984s-.453-9.059-.802-11.15c-.349-2.09-.134-2.861.107-2.967.241-.108 4.251-1.417 2.516-4.599" fill="#1a2982"/><path d="m30.8899 113.4438c-.107-.193-1.07-.515-1.23-1.852-.161-1.336.522-1.544 1.965-1.544 1.444 0 2.248.047 2.331 1.118.092 1.177-.392 1.871-.392 1.871s.094.303.251.8c-.802.536-1.625.803-2.511.937-.24-.792-.394-1.294-.414-1.33" fill="#ffebd2"/><path d="m204.6336 163.3715c-1.72 1.358-10.084 8.821-9.583 9.765.501.942 3.395 4.04 4.038 3.501.643-.538 3.804-4.158 3.804-4.158s-2.847 22.61-2.482 23.216c.365.607 11.938 4.781 11.938 4.781l8.359-4.916s-1.688-22.244-2.009-23.051c-.322-.809 4.581 3.05 5.143 3.118.563.067 4.179-2.491 4.34-3.3.16-.808-9.162-9.226-11.412-10.169-2.251-.942-9.699-.712-12.136 1.213" fill="#1ac1f3"/><path d="m190.6067 186.0209 22.726 2.447 17.545-1.543-1.727 6.49-18.945 5.505s-15.259-8.119-15.399-8.119-4.2-4.78-4.2-4.78" fill="#184ac6"/><path d="m195.5066 173.2104s-4.854 7.331-4.9 7.604c-.047.275 6.486 8.818 8.4 8.974 1.913.156.746-2.267.513-2.815-.233-.547-5.413-6.061-5.273-6.373.14-.313 4.106-4.654 4.433-4.927.327-.274-2.333-2.463-3.173-2.463" fill="#ffebd2"/><path d="m227.4299 172.7563s4.853 7.271 4.9 7.546c.047.273-6.486 8.876-8.4 9.032-1.913.156-.747-2.267-.513-2.815.233-.547 5.413-6.061 5.273-6.373-.14-.313-4.107-4.654-4.433-4.927-.327-.274 2.333-2.463 3.173-2.463" fill="#ffebd2"/><path d="m207.989 163.2699c-.095.819.907 3.476 3.124 3.313 2.216-.164 3.152-1.82 3.129-2.824-.024-1.003-.607-2.519-1.54-2.519s-4.433-.373-4.713 2.03" fill="#fff"/><path d="m188.4236 209.5512c0 1.409 10.607-.742 12.342-3.096 1.735-2.353.463-2.989.463-2.989s-12.805 1.362-12.805 6.085" fill="#1a2982"/><path d="m232.1111 208.5551c0 1.41-10.607-.741-12.342-3.095s-.463-2.99-.463-2.99 12.805 1.362 12.805 6.085" fill="#1a2982"/><path d="m209.2976 157.8168v6.098s.517 1.516 2 1.33c1.484-.187 1.629-1.866 1.629-1.866l-.132-5.562z" fill="#e5cfba"/><path d="m206.5217 158.5639c0 2.535 2.055 4.591 4.591 4.591 2.535 0 4.591-2.056 4.591-4.591s-2.056-4.591-4.591-4.591c-2.536 0-4.591 2.056-4.591 4.591" fill="#ffebd2"/><path d="m216.3875 159.6166c-.684.778-2.828 1.03-4.306-.311-2.091-1.897-3.406-3.315-3.406-3.315s.234 2.6-1.191 2.786c-1.425.187-1.674-.528-1.674-.528s-.545-3.3 1.275-4.76c7.003-5.615 11.382 3.764 9.302 6.128" fill="#1a2982"/><path d="m198.3064 176.8022c-.625.625-.436 14.933 0 15.306s25.758.871 26.256.249-.187-16.302-.684-16.799c-.498-.498-24.265-.063-25.572 1.244" fill="#fff"/><path d="m200.4114 203.4662c-.014.661.182 3.542.727 3.542.544 0 32.603-8.628 34.328-11.807 1.577-2.905.83-5.699 0-6.539-2.069-2.092-4.589-2.641-6.72-1.09-2.996 2.183-28.312 14.814-28.335 15.894" fill="#2e62e5"/><path d="m220.1233 202.4701c.014.661-.182 3.542-.727 3.542-.544 0-32.603-8.627-34.328-11.806-1.577-2.905-.718-5.601 0-6.539 1.603-2.093 5.013-2.628 6.72-1.09 2.753 2.482 28.312 14.814 28.335 15.893" fill="#2e62e5"/></g></svg>