<svg height="210" viewBox="0 0 300 210" width="300" xmlns="http://www.w3.org/2000/svg" xmlns:xlink="http://www.w3.org/1999/xlink"><mask id="a" fill="#fff"><path d="m0 .7612h48.0943v35.0094423h-48.0943z" fill="#fff" fill-rule="evenodd"/></mask><mask id="b" fill="#fff"><path d="m.9923.1232h298.6537v12.876h-298.6537z" fill="#fff" fill-rule="evenodd"/></mask><mask id="c" fill="#fff"><path d="m.86749056 0h18.14897134v13.8251217h-18.14897134z" fill="#fff" fill-rule="evenodd"/></mask><g fill="none" fill-rule="evenodd"><path d="m265.2234 109.5729c-16.758-12.809-43.296 33.462-42.477 36.76 3.479-3.481 8.593-8.587 16.083-16.047 12.575-12.525 21.386-18.189 26.394-20.713" fill="#76abff"/><path d="m239.3836 130.8415c-7.311 7.282-12.354 12.316-15.825 15.79 6.746-.169 53.367-20.19 45.735-32.399-1.065-1.704-2.199-3.049-3.385-4.088-4.89 2.426-13.817 8.04-26.525 20.697" fill="#4a75ff"/><path d="m223.5584 146.6315c3.472-3.474 8.514-8.508 15.825-15.79 12.708-12.657 21.635-18.271 26.526-20.697-.227-.2-.455-.395-.686-.572-5.008 2.525-13.819 8.189-26.394 20.713-7.49 7.46-12.604 12.567-16.083 16.047.011.044.022.087.043.115.099.137.367.194.769.184" fill="#fff"/><path d="m220.3865 142.4684-1.311-.821c.121-.192 12.018-19.569 16.736-56.693 4.763-37.493 21.197-64.642 21.363-64.913l1.319.809c-.163.266-16.427 27.151-21.147 64.299-4.765 37.496-16.838 57.125-16.96 57.319" fill="#a4e2ff"/><path d="m261.0799 15.6549c8.952 3.405-9.76 17.571-9.76 17.571s-2.052-22.064 9.76-17.571" fill="#a4e2ff"/><path d="m259.9324 42.6061c1.817 6.406-13.852 1.851-13.852 1.851s11.455-10.304 13.852-1.851" fill="#a4e2ff"/><path d="m238.3514 33.6588c4.518-4.892 8.804 10.854 8.804 10.854s-14.765-4.399-8.804-10.854" fill="#a4e2ff"/><path d="m259.4959 64.3932c3.339 9.264-20.245 4.154-20.245 4.154s15.839-16.378 20.245-4.154" fill="#a4e2ff"/><path d="m257.5154 82.3835c3.54 9.819-21.458 4.403-21.458 4.403s16.788-17.359 21.458-4.403" fill="#a4e2ff"/><path d="m252.8685 103.5407c3.379 9.375-20.486 4.204-20.486 4.204s16.028-16.573 20.486-4.204" fill="#a4e2ff"/><path d="m244.6146 121.9508c5.018 8.609-19.389 7.837-19.389 7.837s12.769-19.196 19.389-7.837" fill="#a4e2ff"/><path d="m227.6253 56.3239c5.248-6.56 12.049 12.868 12.049 12.868s-18.973-4.213-12.049-12.868" fill="#a4e2ff"/><path d="m221.3284 78.1588c2.796-7.921 15.614 8.185 15.614 8.185s-19.302 2.267-15.614-8.185" fill="#a4e2ff"/><path d="m218.8294 96.5553c4.215-7.267 13.827 10.937 13.827 10.937s-19.389-1.35-13.827-10.937" fill="#a4e2ff"/><path d="m216.8797 114.2379c6.542-5.271 8.982 15.168 8.982 15.168s-17.613-8.215-8.982-15.168" fill="#a4e2ff"/><path d="m4.6419 163.1588c16.349-13.576 44.948 31.925 44.257 35.278-3.644-3.363-9-8.295-16.843-15.501-13.168-12.096-22.269-17.439-27.414-19.777" fill="#76abff"/><path d="m31.5203 20.5182c7.656 7.034 12.938 11.896 16.574 15.252-6.798.104-54.547-18.154-47.36-30.755 1.003-1.759 2.09-3.159 3.241-4.254 5.022 2.244 14.237 7.532 27.545 19.757" fill="#4a75ff" mask="url(#a)" transform="translate(0 163)"/><path d="m48.0941 198.7702c-3.636-3.355-8.917-8.218-16.574-15.252-13.308-12.225-22.523-17.513-27.545-19.757.221-.21.442-.415.667-.602 5.144 2.338 14.245 7.68 27.414 19.777 7.843 7.206 13.199 12.138 16.843 15.501-.009.044-.019.088-.038.117-.094.142-.362.209-.767.216" fill="#fff"/><path d="m44.9471 187.4294c-5.935-10.817-16.436-27.267-20.158-33.043 15.672-7.56 21.017 28.229 20.158 33.043" fill="#76abff"/><path d="m23.2801 155.2262c.319-.202.633-.382.944-.551 3.716 5.767 14.392 22.484 20.303 33.3-3.292-.263-34.443-24.373-21.247-32.749" fill="#4a75ff"/><path d="m44.7381 187.946c-.047.029-.121.036-.211.029-5.911-10.816-16.587-27.533-20.303-33.3.19-.102.378-.198.565-.289 3.722 5.777 14.223 22.226 20.158 33.043-.05.279-.119.459-.209.517" fill="#fff"/><path d="m41.0467 196.776c-12.039-2.704-31.321-5.708-38.115-6.738 4.697-16.755 35.073 2.91 38.115 6.738" fill="#76abff"/><path d="m2.5633 191.7253c.059-.373.132-.728.211-1.072 6.783 1.027 26.382 4.078 38.404 6.799-2.374 2.295-41.062 9.71-38.615-5.727" fill="#4a75ff"/><path d="m41.2957 197.2741c-.009.055-.053.115-.118.178-12.021-2.721-31.621-5.772-38.403-6.799.049-.21.101-.415.157-.615 6.794 1.03 26.076 4.034 38.115 6.738.176.222.266.394.249.498" fill="#fff"/><path d="m52.0159 91.9215c1.17 4.019 2.455 8.344 3.81 12.907 1.292 4.349 2.661 8.967 4.058 13.743l19.569-22.256c-.918-13.236 1.912-27.152 1.547-36.233-.073-1.829-.581-5.11-1.672-8.887l-30.119 21.306c.167 6.538.986 13.164 2.807 19.42" fill="#c0edff"/><path d="m53.783 28.6227c-14.892 1.297-22.594 11.992-26.369 24.666l19.867 16.606c.006-17.992 4.532-34.808 6.502-41.272" fill="#c0edff"/><path d="m54.0106 105.4508c-1.356-4.568-2.643-8.896-3.813-12.92-1.88-6.458-2.719-13.29-2.885-20.022l-20.485-17.122c-1.546 5.928-2.302 12.185-2.576 18.05-.459 9.827 2.439 20.791 5.981 31.245 10.755 4.08 22.83 10.916 27.604 13.719-1.316-4.493-2.606-8.842-3.826-12.95" fill="#c0edff"/><path d="m49.1803236 70.0885 29.5261764-20.887c-3.133-9.466-9.83-20.86-22.262-20.718-.213.002-.414.02-.625.026-1.783 5.702-6.673 23.054-6.6391764 41.579" fill="#c0edff"/><path d="m73.744 171.611c3.836-6.938 15.818-28.799 21.639-41.511-4.334-5.368-8.56-10.296-11.811-16.886-2.161-4.383-3.311-9.227-3.867-14.22l-19.17 21.803c4.629 15.908 9.527 33.64 13.209 50.814" fill="#c0edff"/><path d="m112.9163 165.4274c-3.743-16.648-9.983-25.82-16.188-33.647-6.767 14.611-20.551 39.443-22.384 42.733 1.942 9.382 3.493 18.547 4.403 27.105 16.857-.12 32.189-.382 33.031-.356 1.891.061 7.773-6.321 1.138-35.835" fill="#c0edff"/><path d="m58.6605 121.2204c-2.228-1.336-15.607-9.257-27.569-14.039 4.092 11.683 8.734 22.545 10.062 30.199 1.696 9.776 1.344 15.88-.422 21.693 9.285 7.515 26.246 12.489 31.338 13.862-3.701-17.441-8.696-35.528-13.409-51.715" fill="#c0edff"/><path d="m40.0667 161.0612c-.971 2.7-2.228 5.419-3.722 8.502-5.065 10.449-3.759 28.932-2.641 30.988.602 1.107 22.62 1.211 43.125 1.08-.898-8.36-2.411-17.308-4.304-26.475-3.673-.937-21.977-5.894-32.458-14.095" fill="#c0edff"/><g fill="#fff"><path d="m59.8841 118.5719c-1.397-4.776-2.766-9.395-4.058-13.743-1.356-4.564-2.64-8.889-3.81-12.907-1.821-6.256-2.64-12.882-2.807-19.42l-1.032.729-.864-.722c.166 6.732 1.005 13.564 2.884 20.022 1.171 4.023 2.457 8.352 3.813 12.92 1.221 4.108 2.51 8.457 3.827 12.95.584.344 1.097.647 1.445.856z"/><path d="m47.2806 69.8952.997.833.903-.64c-.034-18.525 4.856-35.877 6.639-41.579-.692.021-1.373.056-2.037.114-1.969 6.463-6.495 23.28-6.502 41.272"/><path d="m73.744 171.611c-3.682-17.174-8.58-34.906-13.209-50.814l-.896 1.018-.652-.398c-.014-.009-.13-.079-.326-.197 4.712 16.188 9.707 34.275 13.408 51.715.316.086.601.161.821.219.204-.367.498-.897.854-1.543"/><path d="m74.1658 174.8336-.355.638-.677-.164c-.087-.021-.295-.072-.609-.152 1.893 9.167 3.406 18.115 4.304 26.476.641-.004 1.28-.009 1.919-.013-.91-8.558-2.462-17.723-4.403-27.105-.082.147-.147.262-.179.32"/><path d="m49.2088 72.5016 30.12-21.306c-.188-.65-.398-1.318-.622-1.994l-29.526 20.887c.001.803.007 1.607.028 2.413"/><path d="m47.2806 69.8952-19.867-16.606c-.207.694-.403 1.393-.586 2.097l20.485 17.122c-.021-.873-.032-1.744-.032-2.613"/><path d="m49.2088 72.5016c-.021-.806-.027-1.61-.028-2.413l-.904.64-.996-.833c0 .869.011 1.74.032 2.613l.864.722z"/><path d="m60.5345 120.7965 19.171-21.803c-.099-.888-.191-1.78-.253-2.678l-19.568 22.256c.216.742.432 1.476.65 2.225"/><path d="m57.8367 118.401c-4.774-2.803-16.849-9.64-27.604-13.719.283.836.569 1.67.859 2.499 11.961 4.783 25.341 12.703 27.569 14.039-.277-.949-.55-1.883-.824-2.819"/><path d="m59.639 121.8151.896-1.019c-.219-.749-.435-1.483-.651-2.224l-.602.684c-.348-.209-.861-.511-1.445-.855.274.935.547 1.87.823 2.819.197.117.313.188.327.197z"/><path d="m72.0692 172.9352c-5.091-1.373-22.053-6.347-31.338-13.862-.202.664-.426 1.326-.664 1.988 10.481 8.201 28.785 13.158 32.458 14.095-.153-.741-.298-1.478-.456-2.221"/><path d="m74.3445 174.5133c1.833-3.29 15.617-28.122 22.384-42.733-.449-.567-.898-1.125-1.346-1.68-5.821 12.712-17.803 34.572-21.639 41.511.209.971.401 1.934.601 2.902"/><path d="m72.8895 173.154c-.219-.058-.505-.133-.82-.219.157.743.303 1.481.456 2.221.313.08.522.131.608.151l.677.164.355-.637c.033-.058.097-.173.179-.321-.2-.967-.392-1.93-.601-2.902-.356.646-.65 1.176-.854 1.543"/></g><path d="m299.6463 6.5612c0 3.557-66.856 6.438-149.327 6.438s-149.327-2.881-149.327-6.438c0-3.556 66.856-6.438 149.327-6.438s149.327 2.882 149.327 6.438" fill="#ebfaff" mask="url(#b)" transform="translate(0 197)"/><path d="m227.7557 180.3532c-.008 0-.016 0-.024-.001-5.993-.145-10.853 1.556-14.447 5.054-4.841 4.713-6.461 11.708-6.975 16.678 1.424.04 2.954.073 4.564.099.63-3.342 1.993-7.246 4.919-10.095 2.767-2.694 6.482-4.005 11.038-3.894.007 0 .013.001.018.001 7.753.191 13.284 3.031 16.439 8.442 1.073 1.84 1.716 3.755 2.095 5.49 2.692-.042 5.245-.091 7.59-.147-.37-3.441-1.53-8.355-4.761-12.629-4.34-5.742-11.223-8.769-20.456-8.998" fill="#94ebff"/><path d="m228.2962 161.695c-33.927-.82-32.829 37.516-32.876 39.429-.008.31 1.864.55 4.992.728.289-6.338 1.922-17.782 9.488-25.148 4.833-4.706 11.332-6.994 19.314-6.801.011 0 .022.001.032.001 13.632.337 23.347 5.314 28.88 14.796 3.675 6.299 4.535 13.082 4.581 16.954 2.271-.115 3.621-.239 3.689-.366.502-.941 2.869-38.602-38.1-39.593" fill="#94ebff"/><path d="m212.3953 184.4919c3.848-3.747 9.019-5.567 15.367-5.414h.026c10.827.268 18.546 4.226 22.945 11.766 2.269 3.889 3.179 8.007 3.49 11.106 2.806-.071 5.264-.15 7.222-.236-.06-4.015-1.017-12.058-6.078-18.886-5.512-7.437-14.311-11.356-26.153-11.649-.01 0-.02 0-.03 0-7.627-.185-13.816 1.982-18.394 6.439-7.26 7.068-8.826 18.153-9.103 24.301 1.017.048 2.136.091 3.344.129.527-5.178 2.221-12.549 7.364-17.556" fill="#94ebff"/><path d="m241.076 195.6335c-3.05-3.932-7.847-6.005-14.259-6.163-.006-.001-.011-.001-.016-.001-4.202-.102-7.606 1.088-10.119 3.534-2.638 2.568-3.909 6.108-4.517 9.2 9.537.141 21.601.095 31.933-.056-.489-2.06-1.387-4.408-3.022-6.514" fill="#1ac1f3"/><path d="m229.2464 169.904c-.01 0-.021-.001-.032-.001-7.982-.193-14.481 2.095-19.314 6.801-7.567 7.366-9.199 18.81-9.488 25.148.405.023.829.045 1.274.067.278-6.148 1.844-17.233 9.104-24.301 4.578-4.457 10.767-6.624 18.394-6.44.01 0 .02 0 .03.001 11.842.293 20.641 4.212 26.153 11.649 5.061 6.828 6.018 14.871 6.078 18.886.449-.02.867-.039 1.261-.06-.045-3.872-.905-10.655-4.581-16.954-5.532-9.482-15.248-14.459-28.879-14.796" fill="#1ac1f3"/><path d="m213.285 185.4059c3.593-3.498 8.454-5.198 14.447-5.054l.015-.636-.015.636c.008.001.015.001.024.001 9.233.229 16.115 3.256 20.455 8.998 3.231 4.275 4.392 9.188 4.762 12.629.423-.01.84-.02 1.25-.03-.311-3.099-1.22-7.217-3.489-11.107-4.399-7.54-12.119-11.498-22.946-11.765h-.026c-6.348-.153-11.519 1.667-15.367 5.414-5.143 5.007-6.837 12.378-7.363 17.556.416.012.841.025 1.278.037.514-4.971 2.134-11.966 6.975-16.679" fill="#1ac1f3"/><path d="m226.8489 188.195c-.005 0-.012-.001-.018-.001l-.015.638.015-.638c-4.557-.11-8.271 1.2-11.039 3.895-2.925 2.848-4.289 6.752-4.919 10.094.426.008.856.015 1.292.021.608-3.093 1.879-6.633 4.517-9.2 2.513-2.447 5.917-3.636 10.119-3.535.006 0 .01 0 .016.001 6.412.159 11.209 2.232 14.259 6.163 1.635 2.107 2.533 4.455 3.023 6.514.43-.006.86-.013 1.284-.019-.379-1.736-1.022-3.651-2.095-5.491-3.155-5.411-8.686-8.251-16.439-8.442" fill="#1ac1f3"/><path d="m231.0672 143.2975c13.576-3.15 35.331-6.698 42.996-7.915-5.438-18.887-39.59 3.566-42.996 7.915" fill="#76abff"/><path d="m274.493 137.2858c-.07-.421-.155-.821-.248-1.21-7.652 1.214-29.765 4.816-43.32 7.985 2.699 2.575 46.455 10.64 43.568-6.775" fill="#4a75ff"/><path d="m230.7903 143.862c.01.062.06.129.134.199 13.556-3.169 35.669-6.771 43.321-7.985-.056-.236-.117-.468-.182-.693-7.666 1.216-29.42 4.764-42.996 7.915-.197.251-.297.445-.277.564" fill="#fff"/><path d="m205.9798 89.2438c-.035-.19-3.5-19.177-4.549-28.342-3.654-31.922-14.479-40.545-14.587-40.629l.563-.74c.457.348 11.24 8.872 14.948 41.263 1.045 9.136 4.505 28.091 4.539 28.281z" fill="#1ac1f3"/><path d="m184.8817 13.5885c-7.748 2.829 8.202 15.242 8.202 15.242s2.02-18.974-8.202-15.242" fill="#1ac1f3"/><path d="m185.9837 38.067c-1.638 5.496 11.906 1.753 11.906 1.753s-9.745-9.003-11.906-1.753" fill="#1ac1f3"/><path d="m204.6683 30.612c-3.834-4.264-7.705 9.243-7.705 9.243s12.764-3.617 7.705-9.243" fill="#1ac1f3"/><path d="m191.8699 69.9225c-1.638 5.496 11.906 1.753 11.906 1.753s-9.744-9.003-11.906-1.753" fill="#1ac1f3"/><path d="m210.555 62.4674c-3.834-4.264-7.706 9.243-7.706 9.243s12.765-3.617 7.706-9.243" fill="#1ac1f3"/><path d="m184.4241 53.4157c-2.982 7.938 17.383 3.811 17.383 3.811s-13.449-14.285-17.383-3.811" fill="#1ac1f3"/><path d="m211.7068 46.2702c-4.443-5.708-10.522 10.942-10.522 10.942s16.384-3.411 10.522-10.942" fill="#1ac1f3"/><path d="m130.1888 51.1305h11.625c-.284 0-.567.013-.851.018-.28.003-.561.008-.841.016-.715.023-1.427.06-2.14.11-.184.013-.37.02-.554.035-.874.07-1.744.163-2.612.274-.252.033-.502.073-.754.109-.632.09-1.263.19-1.891.302-.307.055-.615.112-.921.171-.616.12-1.229.253-1.841.395-.259.059-.519.114-.776.177-.835.205-1.666.428-2.491.671-.233.07-.463.147-.695.218-.617.191-1.231.39-1.842.602-.304.105-.607.215-.911.326-.568.207-1.131.425-1.693.65-.273.11-.547.216-.818.329-.794.334-1.583.681-2.363 1.05-.185.088-.366.184-.55.274-.622.3-1.238.613-1.85.937-.284.15-.566.306-.848.462-.526.29-1.046.588-1.565.895-.272.161-.545.32-.816.486-.65.398-1.294.811-1.932 1.236-.146.099-.294.194-.441.293-.689.469-1.369.956-2.042 1.455-.26.194-.516.393-.774.59-.481.37-.959.746-1.43 1.131-.256.208-.51.416-.762.628-.536.452-1.064.914-1.587 1.386-.162.147-.329.289-.491.437-.659.608-1.306 1.234-1.944 1.874-.207.208-.41.424-.615.636-.451.466-.898.938-1.338 1.422-.225.246-.448.495-.67.746-.453.513-.897 1.036-1.336 1.566-.164.2-.333.395-.495.596-.586.726-1.16 1.467-1.718 2.223-.142.194-.28.392-.42.588-.426.59-.845 1.19-1.254 1.798-.177.263-.351.529-.525.795-.385.591-.762 1.191-1.13 1.798-.148.243-.298.483-.443.729-.494.836-.974 1.683-1.436 2.549-.075.14-.145.284-.218.424-.388.74-.766 1.492-1.13 2.253-.137.285-.269.574-.403.862-.305.662-.602 1.331-.889 2.006-.121.285-.244.567-.361.852-.386.941-.759 1.891-1.109 2.86-12.389 34.341 2.849 73.402 33.974 87.072.945.417 1.895.8 2.847 1.16.322.122.647.223.97.34.635.226 1.27.454 1.907.656.383.122.769.223 1.153.337.573.168 1.145.34 1.719.489.427.11.855.203 1.282.303.537.126 1.071.254 1.607.363.438.088.876.161 1.313.239.533.095 1.065.19 1.598.269.442.065.885.117 1.328.172.519.063 1.038.127 1.556.174.456.043.911.076 1.367.107.512.035 1.023.067 1.535.087.453.018.905.028 1.359.035.283.005.566.022.85.022h-11.625c-.284 0-.567-.017-.85-.022-.454-.007-.906-.017-1.359-.035-.512-.02-1.023-.052-1.535-.087-.456-.031-.911-.064-1.367-.107-.518-.047-1.037-.111-1.556-.174-.443-.055-.886-.107-1.328-.172-.533-.079-1.065-.174-1.598-.269-.437-.078-.875-.151-1.313-.239-.536-.109-1.07-.237-1.607-.363-.427-.1-.855-.193-1.282-.303-.574-.149-1.146-.321-1.719-.489-.384-.114-.77-.215-1.153-.337-.637-.202-1.272-.43-1.907-.656-.323-.117-.647-.218-.97-.34-.952-.36-1.902-.743-2.847-1.16-31.125-13.67-46.363-52.731-33.974-87.072.35-.969.723-1.919 1.109-2.86.117-.285.24-.567.361-.852.287-.675.584-1.344.889-2.006.134-.288.266-.577.403-.862.364-.761.742-1.513 1.13-2.253.074-.14.143-.284.218-.424.462-.866.942-1.713 1.436-2.549.145-.246.295-.486.443-.729.368-.607.745-1.207 1.13-1.798.174-.266.348-.532.525-.795.409-.608.828-1.208 1.254-1.798.14-.196.278-.394.42-.588.558-.756 1.132-1.497 1.718-2.223.162-.201.331-.396.495-.596.439-.53.883-1.053 1.336-1.566.222-.251.445-.5.67-.746.44-.484.887-.956 1.338-1.422.205-.212.408-.428.615-.636.638-.64 1.285-1.266 1.944-1.874.162-.148.329-.29.491-.437.523-.472 1.051-.934 1.587-1.386.252-.212.506-.42.762-.628.471-.385.949-.761 1.43-1.131.258-.197.514-.396.774-.59.673-.499 1.353-.986 2.042-1.455.147-.099.295-.194.442-.293.637-.425 1.281-.838 1.931-1.236.271-.166.544-.325.816-.486.519-.307 1.039-.605 1.565-.895.282-.156.564-.312.848-.462.612-.324 1.228-.637 1.85-.937.184-.09.365-.186.55-.274.78-.369 1.569-.716 2.363-1.05.271-.113.546-.219.818-.329.562-.225 1.126-.443 1.693-.65.304-.111.607-.221.911-.326.611-.212 1.225-.411 1.842-.602.232-.071.462-.148.695-.218.825-.243 1.656-.466 2.491-.671.257-.063.517-.118.776-.177.612-.142 1.225-.275 1.841-.395.307-.059.614-.116.921-.171.628-.112 1.259-.212 1.891-.302.252-.036.502-.076.754-.109.868-.111 1.738-.204 2.612-.274.184-.015.37-.022.554-.035.713-.05 1.425-.087 2.14-.11.28-.008.561-.013.842-.016.284-.005.566-.018.85-.018" fill="#9fc4ff"/><path d="m141.6116 201.695h-11.625c.938 0 1.925-.021 3.377-.088.831-.041 1.66-.097 2.486-.167.314-.027.627-.057.94-.088.796-.079 1.588-.173 2.379-.279.231-.031.464-.058.694-.091 1.004-.145 2.005-.312 3.002-.503.222-.042.442-.093.664-.137.791-.159 1.58-.331 2.365-.516.299-.071.597-.144.895-.219.789-.198 1.575-.41 2.357-.636.21-.06.422-.115.63-.177.975-.291 1.944-.604 2.907-.937.219-.076.435-.158.654-.236.76-.273 1.518-.556 2.271-.854.279-.11.559-.223.837-.338.779-.319 1.553-.653 2.858-1.237.931-.43 1.852-.881 2.767-1.351.221-.113.439-.233.66-.349.712-.375 1.418-.762 2.119-1.16.262-.15.524-.299.784-.451.764-.448 1.521-.909 2.676-1.637.872-.562 1.734-1.147 2.587-1.746.223-.157.443-.321.664-.479.649-.468 1.292-.945 1.928-1.435.245-.189.489-.377.732-.569.726-.572 1.445-1.158 2.456-2.012.806-.692 1.598-1.404 2.379-2.132.201-.189.4-.382.6-.572.59-.562 1.172-1.134 1.747-1.716.222-.225.443-.45.663-.677.672-.697 1.335-1.407 2.205-2.374.718-.81 1.42-1.64 2.11-2.484.187-.229.369-.462.554-.694.513-.642 1.019-1.294 1.515-1.956.197-.262.394-.522.588-.787.61-.835 1.211-1.681 1.91-2.71.617-.918 1.213-1.856 1.797-2.807.172-.278.338-.56.506-.84.43-.717.849-1.442 1.26-2.176.163-.291.328-.581.487-.875.543-.995 1.074-2.003 1.581-3.03h11.625c-.507 1.027-1.038 2.035-1.581 3.03-.159.294-.324.584-.487.875-.411.734-.83 1.459-1.26 2.176-.168.28-.334.562-.506.84-.584.951-1.18 1.889-1.797 2.807-.699 1.029-1.3 1.875-1.91 2.71-.194.265-.391.525-.588.787-.496.662-1.002 1.314-1.516 1.956-.184.232-.366.465-.553.694-.69.844-1.392 1.674-2.11 2.484-.87.967-1.533 1.677-2.205 2.374-.22.227-.441.452-.663.677-.575.582-1.157 1.154-1.747 1.716-.2.19-.399.383-.6.572-.781.728-1.573 1.44-2.379 2.132-1.011.854-1.73 1.44-2.456 2.012-.243.192-.487.38-.732.569-.636.49-1.279.967-1.928 1.435-.221.158-.441.322-.664.479-.853.599-1.715 1.184-2.587 1.746-1.155.728-1.912 1.189-2.676 1.637-.26.152-.522.301-.784.451-.701.398-1.407.785-2.119 1.16-.221.116-.439.236-.66.349-.915.47-1.836.921-2.767 1.351-1.305.584-2.079.918-2.858 1.237-.278.115-.558.228-.837.338-.753.298-1.511.581-2.271.854-.219.078-.435.16-.654.236-.963.333-1.932.646-2.907.937-.209.062-.42.117-.63.177-.782.226-1.568.438-2.357.636-.298.075-.596.148-.895.219-.785.185-1.574.357-2.365.516-.222.044-.442.095-.665.137-.996.191-1.997.358-3.001.503-.23.033-.463.06-.694.091-.791.106-1.584.2-2.379.279-.313.031-.627.061-.94.088-.826.07-1.655.126-2.486.167-1.452.067-2.439.088-3.377.088" fill="#9fc4ff"/><path d="m214.0364 142.9674c11.649-41.225-7.342-86.182-44.295-102.417-.589-.259-1.179-.508-1.771-.749-.219-.09-.439-.173-.659-.26-.371-.146-.74-.295-1.111-.434-.249-.094-.499-.182-.748-.273-.352-.128-.702-.257-1.053-.379-.26-.09-.52-.175-.78-.26-.329-.111-.659-.221-.988-.327-.283-.089-.565-.173-.848-.259-.321-.098-.643-.196-.964-.288-.266-.077-.535-.15-.802-.223-.335-.093-.67-.185-1.006-.272-.276-.071-.552-.139-.829-.208-.315-.077-.632-.154-.948-.227-.29-.067-.578-.131-.868-.194-.318-.069-.636-.136-.954-.201-.282-.057-.565-.112-.849-.166-.315-.059-.631-.118-.947-.174-.287-.05-.575-.099-.863-.145-.318-.052-.636-.101-.955-.148-.285-.042-.571-.083-.857-.122-.312-.043-.626-.081-.938-.118-.292-.035-.583-.07-.874-.102-.319-.034-.637-.065-.956-.094-.277-.026-.554-.053-.831-.075-.342-.028-.684-.05-1.026-.073-.259-.017-.517-.036-.776-.049-.345-.02-.69-.034-1.035-.046-.26-.01-.52-.023-.78-.03-.337-.009-.673-.012-1.01-.017-.219-.002-.439-.008-.826-.008h-11.625c.387 0 .607.006.826.008.337.005.673.008 1.01.017.26.007.52.02.78.03.345.012.69.026 1.035.046.259.013.517.032.776.049.342.023.684.045 1.026.073.277.022.554.049.831.075.319.029.637.06.956.094.291.032.582.067.874.102.312.037.626.075.938.118.286.039.572.08.857.122.319.047.637.096.955.148.288.046.576.095.863.145.316.056.632.115.947.174.284.054.567.109.849.166.318.065.636.132.954.201.29.063.578.127.868.194.316.073.633.15.948.227.277.069.553.137.829.208.337.087.671.179 1.006.272.267.073.536.146.802.223.321.092.643.19.964.288.283.086.565.17.848.259.329.106.659.216.988.327.26.085.52.17.78.26.351.122.701.251 1.053.379.249.091.499.179.748.273.371.139.74.288 1.111.434.22.087.44.17.659.26.592.241 1.182.49 1.771.749 36.953 16.235 55.944 61.192 44.295 102.417l8.809 3.871h11.624z" fill="#9fc4ff"/><path d="m273.0833 185.0329c-.25-.056-.497-.131-.739-.237l-37.365-16.414c-2.218-.97-3.34-3.857-2.46-6.303l1.315-3.639c.075-.208.166-.403.265-.593.025-.048.049-.095.076-.142.103-.184.213-.359.368-.563.119-.154.247-.297.381-.433.032-.032.062-.065.095-.096.146-.139.298-.269.524-.431.148-.103.3-.196.563-.337.175-.087.354-.165.633-.256.165-.052.332-.093.608-.144.187-.029.375-.046.665-.046h-11.625c-.29 0-.478.017-.665.046-.276.051-.443.092-.608.144-.279.091-.458.169-.633.256-.263.141-.415.234-.563.337-.226.162-.378.292-.523.431-.034.031-.064.064-.096.096-.134.136-.262.279-.381.433-.155.204-.265.379-.368.563-.026.047-.051.094-.076.142-.099.19-.19.385-.265.593l-1.315 3.639c-.88 2.446.242 5.333 2.459 6.303l37.366 16.414c.242.106.489.181.739.237.304.063.541.086.776.089h11.625c-.235-.003-.472-.026-.776-.089" fill="#9fc4ff"/><path d="m267.7469 178.4381c.88-2.441-.247-5.327-2.459-6.298l-37.366-16.413c-.242-.107-.49-.183-.739-.237-.307-.066-.545-.087-.783-.091-.297 0-.487.016-.677.045-.277.052-.444.093-.608.144-.28.092-.458.169-.633.256-.263.142-.416.235-.563.338-.226.161-.379.291-.525.431-.032.031-.063.063-.094.096-.135.135-.262.278-.382.433-.154.203-.264.379-.367.562-.027.047-.052.094-.077.143-.099.19-.189.386-.264.593l-1.316 3.639c-.88 2.446.243 5.333 2.46 6.302l37.366 16.414c.242.107.489.182.738.238.304.063.541.086.777.089.304 0 .492-.015.679-.044.283-.053.443-.092.601-.142.29-.095.466-.17.637-.256.041-.02.08-.043.119-.063.151-.081.298-.171.439-.271.238-.169.388-.297.532-.433.035-.035.069-.07.104-.105.131-.134.257-.274.374-.426.157-.207.268-.383.372-.567.025-.045.049-.091.072-.136.101-.191.193-.387.268-.597zm-81.19-35.48c12.39-34.342-2.85-73.403-33.973-87.074-.947-.415-1.898-.8-2.851-1.16-.309-.117-.619-.214-.929-.325-.65-.232-1.298-.465-1.95-.672-.364-.115-.73-.213-1.094-.32-.596-.176-1.192-.354-1.788-.508-.397-.103-.793-.188-1.19-.282-.571-.134-1.141-.271-1.713-.386-.405-.082-.81-.149-1.216-.223-.563-.1-1.126-.201-1.689-.284-.415-.061-.83-.109-1.245-.161-.551-.067-1.102-.135-1.652-.187-.428-.039-.855-.068-1.282-.097-.539-.038-1.075-.072-1.613-.093-.433-.018-.865-.026-1.296-.034-.296-.004-.592-.022-.887-.022-.284 0-.567.013-.85.018-.281.004-.562.009-.842.017-.715.022-1.427.059-2.14.109-.184.014-.37.02-.554.035-.874.07-1.744.163-2.612.275-.253.033-.503.073-.755.109-.631.09-1.262.189-1.89.302-.307.054-.614.111-.921.171-.616.12-1.23.252-1.841.394-.259.06-.519.114-.776.178-.835.205-1.666.428-2.491.671-.233.069-.463.146-.695.217-.617.191-1.231.39-1.842.602-.304.106-.608.215-.911.326-.567.207-1.132.425-1.693.651-.273.109-.547.215-.818.329-.794.334-1.583.68-2.363 1.05-.185.087-.366.183-.55.273-.622.301-1.238.613-1.85.937-.284.151-.566.306-.848.462-.526.29-1.046.588-1.565.895-.272.161-.545.32-.816.486-.65.399-1.294.812-1.931 1.237-.147.098-.295.193-.442.293-.689.468-1.369.956-2.042 1.455-.26.193-.516.392-.774.589-.481.371-.959.747-1.43 1.131-.256.208-.51.416-.762.628-.536.452-1.064.914-1.587 1.386-.163.147-.329.289-.491.437-.659.608-1.306 1.235-1.944 1.874-.208.208-.41.424-.615.636-.451.466-.898.939-1.338 1.422-.225.246-.448.495-.67.746-.453.514-.897 1.036-1.336 1.567-.165.2-.333.394-.496.595-.585.727-1.159 1.467-1.717 2.223-.142.194-.28.393-.42.589-.426.59-.845 1.189-1.254 1.798-.177.262-.351.528-.525.795-.385.59-.762 1.19-1.13 1.797-.148.244-.298.484-.443.729-.494.836-.974 1.684-1.436 2.55-.075.139-.144.283-.218.424-.388.74-.766 1.492-1.13 2.253-.137.285-.27.574-.403.862-.306.661-.602 1.33-.889 2.006-.121.284-.244.566-.361.851-.386.942-.759 1.891-1.109 2.861-12.389 34.34 2.849 73.401 33.974 87.072.945.416 1.894.8 2.847 1.159.323.122.647.224.97.34.635.226 1.27.454 1.907.656.383.122.769.224 1.153.337.573.168 1.145.34 1.719.489.427.111.855.203 1.282.303.536.126 1.071.254 1.607.363.438.088.876.161 1.313.24.532.094 1.065.189 1.598.268.442.066.885.117 1.328.172.519.064 1.038.127 1.556.175.456.043.911.075 1.367.106.512.035 1.023.068 1.535.087.453.019.905.029 1.358.035.284.005.567.023.851.023.276 0 .551-.014.827-.018.295-.005.589-.009.884-.018.702-.022 1.4-.059 2.099-.108.194-.012.387-.019.581-.036.875-.069 1.747-.163 2.615-.274.242-.032.481-.071.723-.105.65-.093 1.299-.195 1.945-.31.285-.051.569-.104.853-.159.657-.128 1.312-.269 1.965-.42.22-.052.441-.098.661-.152.855-.21 1.705-.438 2.55-.687.189-.056.375-.119.564-.177.663-.204 1.324-.418 1.98-.647.277-.095.552-.195.828-.295.607-.222 1.209-.454 1.808-.696.24-.096.481-.189.72-.289.814-.341 1.623-.697 2.422-1.076.128-.061.253-.127.38-.187.68-.33 1.355-.67 2.023-1.026.259-.137.515-.279.772-.421.558-.306 1.111-.624 1.661-.949.243-.145.487-.287.728-.435.732-.448 1.458-.909 2.172-1.39.858-.576 1.595-1.107 2.325-1.65.217-.161.431-.328.645-.492.527-.402 1.048-.813 1.563-1.234.228-.187.456-.372.682-.563.583-.49 1.157-.992 1.724-1.506.119-.107.24-.21.358-.318.679-.625 1.344-1.268 1.999-1.927.176-.176.349-.361.524-.541.484-.499.962-1.006 1.433-1.523.204-.225.408-.45.609-.679.477-.539.943-1.088 1.404-1.644.148-.18.3-.356.447-.537.593-.736 1.173-1.486 1.739-2.253.127-.171.247-.348.373-.522.44-.608.872-1.226 1.294-1.854.174-.259.346-.52.516-.783.392-.6.775-1.211 1.151-1.83.139-.228.28-.454.417-.685.498-.844.984-1.701 1.451-2.575.587-1.129.973-1.896 1.346-2.675.135-.281.265-.565.396-.849.308-.664.605-1.336.894-2.015.119-.282.242-.561.358-.845.386-.943.76-1.894 1.11-2.863zm84.264 13.848c9.913 4.352 14.768 16.799 10.823 27.736l-1.314 3.645c-.168.465-.354.917-.548 1.362-.338.751-.545 1.18-.766 1.596-.265.484-.488.864-.719 1.234-.419.658-.676 1.037-.946 1.402-.354.467-.61.783-.872 1.091-.488.565-.79.889-1.1 1.201-.435.425-.718.684-1.006.935-.548.47-.885.74-1.23.994-.502.361-.813.57-1.126.77-.587.367-.954.575-1.327.772-.567.288-.899.446-1.235.592-.605.259-.997.407-1.392.543-.624.203-.981.309-1.341.401-.59.15-.999.232-1.41.303-.679.107-1.06.156-1.444.19-.558.049-.982.063-1.407.067-6.67-1.255-6.973-1.378-7.274-1.511l-37.366-16.414c-8.074-3.545-12.789-12.452-12.134-21.542l-9.109-4.001c-.507 1.028-1.039 2.036-1.581 3.031-.159.294-.324.584-.487.875-.411.734-.83 1.459-1.26 2.175-.168.281-.335.563-.506.841-.584.95-1.181 1.889-1.797 2.807-.699 1.029-1.3 1.875-1.91 2.71-.194.265-.391.525-.588.787-.496.662-1.002 1.313-1.515 1.956-.185.231-.367.465-.554.693-.691.845-1.392 1.675-2.11 2.485-.871.967-1.533 1.677-2.205 2.374-.22.227-.442.452-.663.677-.575.582-1.157 1.154-1.747 1.715-.2.191-.399.384-.6.573-.782.728-1.573 1.44-2.379 2.131-1.011.855-1.73 1.441-2.456 2.013-.243.192-.487.38-.732.569-.636.49-1.28.967-1.929 1.435-.221.158-.44.322-.663.479-.853.599-1.715 1.184-2.587 1.746-1.156.728-1.912 1.189-2.676 1.636-.26.153-.523.302-.784.452-.702.398-1.408.785-2.119 1.16-.221.116-.44.236-.66.349-.915.47-1.837.921-2.767 1.351-1.305.584-2.079.918-2.858 1.237-.278.114-.558.228-.838.338-.753.298-1.51.581-2.271.854-.218.078-.434.16-.653.236-.963.333-1.933.645-2.907.936-.209.063-.42.118-.631.178-.781.226-1.567.438-2.356.636-.298.075-.596.147-.896.219-.785.185-1.573.357-2.365.516-.221.044-.441.095-.663.137-.997.19-1.998.357-3.002.503-.231.033-.463.06-.694.091-.791.106-1.584.2-2.379.279-.313.031-.626.061-.94.088-.827.07-1.656.126-2.486.167-1.633.075-2.678.093-3.726.087-1.393-.016-2.416-.049-3.44-.107-1.391-.086-2.42-.17-3.449-.281-1.379-.156-2.414-.295-3.449-.459-1.377-.228-2.415-.421-3.453-.64-1.36-.298-2.408-.548-3.455-.827-1.317-.358-2.38-.671-3.44-1.011-1.278-.418-2.359-.795-3.436-1.204-1.191-.456-2.299-.908-3.402-1.392-38.784-17.033-57.779-65.709-42.338-108.507.328-.91.674-1.807 1.028-2.696.61-1.511.977-2.384 1.359-3.243.448-.997.824-1.8 1.209-2.595.689-1.402 1.108-2.226 1.541-3.036.563-1.039.965-1.755 1.375-2.464.774-1.326 1.237-2.09 1.713-2.843.688-1.071 1.11-1.711 1.54-2.343.853-1.243 1.362-1.956 1.881-2.658.78-1.038 1.24-1.634 1.706-2.221.899-1.123 1.452-1.785 2.012-2.437.876-1.003 1.373-1.557 1.877-2.103.928-1 1.521-1.61 2.121-2.21.975-.963 1.514-1.482 2.061-1.991.923-.855 1.553-1.415 2.19-1.964 1.07-.909 1.65-1.388 2.236-1.857.923-.735 1.587-1.238 2.254-1.732.178-.131.354-.261.532-.389.656-.478 1.317-.945 1.985-1.4.789-.533 1.493-.988 2.202-1.433 1.254-.775 1.971-1.207 2.695-1.62.805-.457 1.517-.843 2.233-1.219 1.259-.653 2-1.023 2.747-1.377.947-.441 1.623-.743 2.303-1.036 1.328-.565 2.078-.868 2.834-1.157 1.067-.398 1.744-.64 2.423-.871 1.311-.441 2.087-.685 2.867-.914 1.129-.323 1.807-.506 2.486-.679 1.336-.334 2.127-.515 2.922-.682 1.182-.238 1.891-.37 2.601-.49 1.262-.212 2.07-.328 2.881-.43 1.265-.15 1.984-.225 2.705-.288 1.225-.103 2.051-.153 2.877-.19 1.296-.048 2.063-.065 2.831-.068.558-.003.824.004 1.088.007.337.005.673.008 1.01.017.259.008.52.02.78.03.345.013.69.026 1.034.046.259.014.518.032.776.049.343.023.684.046 1.027.073.277.023.553.049.831.075.318.031.636.06.955.094.292.032.583.067.875.103.312.037.625.076.938.118.285.039.571.079.857.122.318.047.636.095.955.147.288.046.576.095.863.146.315.055.631.114.947.174.283.053.566.108.849.166.318.064.636.131.954.201.29.062.578.127.867.193.317.073.633.151.949.228.276.068.553.136.829.208.336.087.671.178 1.006.271.267.073.535.147.802.223.321.093.643.19.964.288.282.086.565.171.847.26.33.105.659.215.989.326.26.086.52.171.779.261.351.122.702.251 1.053.378.25.091.499.179.749.273.371.14.74.288 1.11.435.221.086.44.169.66.259.591.241 1.182.491 1.771.749 36.953 16.236 55.943 61.193 44.295 102.417l8.808 3.871c.29-.396.596-.775.909-1.146.519-.594.786-.881 1.06-1.159.539-.539.884-.856 1.239-1.158.552-.455.845-.682 1.143-.901.682-.486 1.067-.744 1.463-.98.461-.27.838-.474 1.218-.666.683-.33 1.033-.487 1.387-.629.652-.26 1.08-.407 1.514-.539.66-.19 1.018-.28 1.379-.36.771-.161 1.218-.237 1.669-.292.58-.061.979-.091 1.379-.107.813-.022 1.255-.021 1.696.004.554.036 1.004.083 1.454.145.625.09 1.079.181 1.532.285.696.169 1.143.296 1.588.444.682.236 1.145.411 1.604.613z" fill="#4a75ff"/><path d="m282.4456 156.8063-37.367-16.414c-.459-.202-.922-.377-1.604-.613-.445-.148-.892-.275-1.588-.444-.452-.104-.906-.195-1.532-.285-.45-.062-.9-.109-1.453-.145-.236-.013-.472-.02-.763-.02h-11.625c.291 0 .527.007.763.02.553.036 1.003.083 1.453.145.626.09 1.08.181 1.532.285.696.169 1.143.296 1.588.444.682.236 1.145.411 1.604.613l37.367 16.414c9.913 4.352 14.769 16.799 10.824 27.736l-1.315 3.645c-.168.465-.354.917-.548 1.361-.338.752-.544 1.181-.766 1.597-.264.484-.488.863-.719 1.234-.419.657-.676 1.036-.946 1.402-.354.466-.61.783-.871 1.09-.489.566-.79.89-1.101 1.202-.435.424-.718.684-1.006.936-.548.469-.885.738-1.23.993-.502.362-.812.57-1.126.77-.587.367-.953.575-1.326.772-.567.287-.899.446-1.235.592-.606.259-.997.407-1.393.543-.623.203-.981.309-1.341.4-.589.151-.999.233-1.41.304-.679.107-1.06.155-1.444.19-.558.048-.982.063-1.406.067h11.625c.424-.004.848-.019 1.406-.067.384-.035.765-.083 1.444-.19.411-.071.821-.153 1.41-.304.36-.091.718-.197 1.341-.4.396-.136.787-.284 1.393-.543.336-.146.668-.305 1.235-.592.373-.197.739-.405 1.326-.772.314-.2.623-.408 1.126-.77.345-.255.682-.524 1.23-.993.288-.252.571-.512 1.006-.936.311-.312.612-.636 1.101-1.202.261-.307.517-.624.871-1.09.27-.366.527-.745.946-1.402.231-.371.454-.75.719-1.234.222-.416.428-.845.766-1.597.194-.444.38-.896.548-1.361l1.315-3.645c3.945-10.937-.911-23.384-10.824-27.736" fill="#9fc4ff"/><path d="m3.2371 13.8249c-1.328.037-3.677-4.564-1.449-8.187 1.721-2.798 4.167-2.142 4.167-2.142s1.367-3.492 4.679-3.496c4.065-.005 4.473 4.854 4.88 4.854.408 0 4.905 1.58 3.06 6.27-1.087 2.763-7.318 2.474-15.337 2.701" fill="#1a2982" mask="url(#c)" transform="translate(122)"/><path d="m128.0545 8.9655c-1.269 1.003-7.441 6.51-7.071 7.206.37.695 2.505 2.982 2.979 2.584.474-.397 2.808-3.068 2.808-3.068s-2.102 16.684-1.832 17.132c.269.447 8.562 1.546 8.562 1.546l6.415-1.646s-1.245-16.414-1.482-17.011 3.38 2.252 3.795 2.302c.416.049 3.084-1.839 3.203-2.436.119-.596-6.761-6.807-8.421-7.504-1.661-.695-7.158-.525-8.956.895" fill="#76abff"/><path d="m125.263 28.4655 8.988-1.053 7.095 1.726-.164 3.587s-4.818 3.585-8.396 3.271c-7.51-.657-8.088-2.771-8.088-5.875 0-.101.565-1.656.565-1.656" fill="#184ac6"/><path d="m121.3196 16.2262s-3.582 5.41-3.616 5.612c-.034.201 4.787 6.506 6.199 6.621 1.411.117.55-1.672.378-2.077-.172-.404-3.994-4.472-3.891-4.703.103-.23 3.031-3.433 3.271-3.636.242-.202-1.721-1.817-2.341-1.817" fill="#ffebd2"/><path d="m144.5154 15.9723s3.534 5.295 3.568 5.494-4.723 6.463-6.116 6.577c-1.393.115-.544-1.651-.374-2.05.17-.398 3.942-4.413 3.839-4.64-.102-.228-2.989-3.388-3.227-3.587s1.699-1.794 2.31-1.794" fill="#ffebd2"/><path d="m130.3602 9.0651c-.069.597.661 2.531 2.274 2.412 1.614-.119 2.296-1.325 2.279-2.056-.017-.73-.442-1.835-1.121-1.835-.68 0-3.228-.271-3.432 1.479" fill="#2e62e5"/><path d="m135.4349 63.9547c.811.495 2.846-7.22 2.026-9.186-.819-1.965-1.577-1.355-1.577-1.355s-3.167 8.88-.449 10.541" fill="#1a2982"/><path d="m117.8538 63.8297c-.949.447-2.452-8.37-1.351-10.447s1.883-1.304 1.883-1.304 2.646 10.254-.532 11.751" fill="#1a2982"/><path d="m131.3133 5.0954v4.439s.376 1.105 1.456.969c1.081-.137 1.187-1.359 1.187-1.359l-.097-4.049z" fill="#e5cfba"/><path d="m129.2918 5.6383c0 1.847 1.497 3.343 3.343 3.343s3.343-1.496 3.343-3.343c0-1.846-1.497-3.343-3.343-3.343s-3.343 1.497-3.343 3.343" fill="#ffebd2"/><path d="m136.8323 4.8053c.048 1.561-1.078 2.028-2.943 1.561-1.994-.499-3.03-2.601-3.03-2.601s.172 1.893-.866 2.028c-1.038.137-1.22-.384-1.22-.384s-.396-2.403.929-3.466c5.099-4.088 7.059.57 7.13 2.862" fill="#1a2982"/><path d="m123.3104 18.9186c-.456.455-.317 10.872 0 11.145.317.271 18.755.633 19.118.18.362-.453-.137-11.869-.499-12.231-.362-.363-17.668-.045-18.619.906" fill="#ebfaff"/><path d="m135.5657 54.1588c.342.221 1.906 1.025 2.059.7s4.635-22.223 3.455-24.27c-1.079-1.872-2.752-2.32-3.425-2.093-1.676.565-2.672 1.893-2.457 3.663.302 2.486-.191 21.642.368 22" fill="#2e62e5"/><path d="m118.428 55.5573c-.413-.031-2.197-.352-2.167-.738.03-.387 7.175-22.616 9.251-23.642 1.897-.937 3.531-.157 4.075.411 1.216 1.271 1.361 3.728.308 4.843-1.698 1.799-10.793 19.178-11.467 19.126" fill="#2e62e5"/><path d="m233.4393 121.4997c-.062.326.403.524.51.427.108-.097 5.873-5.146 5.727-5.418-.147-.273-.265-.481-.517-.372-.252.107-5.656 5.026-5.72 5.363" fill="#4a75ff"/><path d="m232.7698 124.2253c.218.086 3.228-2.307 3.333-2.466.679-1.03 1.63-2.902 1.496-3.01s-2.405 2.144-2.497 2.009c-.094-.134.981-1.592-.318-1.083-.132.052-2.945 3.693-2.72 3.802.225.108.355.61.706.748" fill="#ffebd2"/><path d="m240.241 169.3551c.808-.495-3.839-7.361-4.588-7.587-.748-.225-1.399.89-1.589 1.458-.33.983 4.114 7.394 6.177 6.129" fill="#1a2982"/><path d="m240.5569 144.2428s15.469 15.144 16.061 15.335c.646.21.622-1.545.826-2.072.204-.528-11.514-18.244-14.374-20.2-1.763-1.205-19.316-1.814-19.957-1.634-.642.18-1.955 2.195-1.423 3.044.533.848 17.14 3.929 17.931 4.236.791.306.936 1.291.936 1.291" fill="#184ac6"/><path d="m217.9363 143.1188s3.674 3.666 8.765 2.762 8.221-1.49 8.221-1.49.72 5.079.28 10.552c-.521 6.472-1.013 7.801-.701 8.595.39.993 1.949.79 2.283.532.419-.323 7.251-21.714 6.074-24.436-1.177-2.724-20.311-3.509-21.042-3.186-.732.323-3.975 5.461-3.88 6.671" fill="#2e62e5"/><path d="m217.4139 144.3229c1.67.722 1.065-3.589 3.56-5.856 2.495-2.269 4.301-2.111 4.676-2.726.376-.614-4.699-20.746-5.863-21.68-1.163-.933-2.614-1.68-3.391-1.13-2.514 1.785-5.929 8.854-4.428 17.947 1.5 9.092 2.37 12.118 5.446 13.445" fill="#1ac1f3"/><path d="m217.7474 110.4782-.993 2.588s.346.802.886 1.282c1.027.913 1.456.294 1.456.294l.901-1.891s1.136.521 1.975-.412 2.218-3.099 1.514-3.738c-.704-.638-2.607-1.999-2.607-1.999l-2.489.936-1.127 1.791z" fill="#ffebd2"/><path d="m223.4417 109.3219c.64.102 3.095.331 3.128-1.503.071-3.969-3.976-2.344-4.248-2.382-.271-.039-3.273-1.252-4.784.489-1.546 1.782-1.509 5.752.486 5.317.304-.067-.047-2.276.733-2.689.78-.412.845.607 1.196.672.352.066.832-1.141 1.195-1.268.363-.126 1.228 1.193 2.294 1.364" fill="#1a2982"/><path d="m215.8963 117.3454c.657-.271 2.231.995 2.505 1.363 1.319 1.773 6.276 9.017 6.525 9.059s6.755-4.862 7.132-4.867 1.144 1.162 1.238 1.496c.136.478-7.49 7.116-8.202 6.876-.712-.239-4.801-1.07-7.913-5.997-2.607-4.127-2.755-7.325-1.285-7.93" fill="#1ac1f3"/><path d="m259.9691 151.278c-.945-.062-4.683 7.023-3.381 8.576.502.599 1.255.043 1.735-.43.428-.421 4.111-7.982 1.646-8.146" fill="#1a2982"/><path d="m153.7171 114.9811 1.626-.891s5.114-2.642 4.646-3.712c-.467-1.069-5.203.727-5.203.727s.245-2.004-.067-2.004c-.236 0-2.249 4.254-2.227 4.477.022.222 1.225 1.403 1.225 1.403" fill="#ffebd2"/><path d="m132.053 109.4274c1.938.902 11.5 11.095 11.701 11.361.2.268 8.32-7.584 8.754-7.584s1.503 1.503 1.503 1.703c0 .202-10.057 9.375-10.391 9.357-.601-.034-8.679-6.91-8.813-7.144s-3.672-8.121-2.754-7.693" fill="#3369f0"/><path d="m124.6912 181.3698s-5.121 3.394-4.566 4.104c1.069 1.371 6.231-1.881 6.365-2.405.134-.523.295-1.571-.151-1.699-.445-.127-1.336-.54-1.648 0" fill="#1a2982"/><path d="m138.7693 181.6432c-.401.356-.446 2.361 0 2.45.445.089 5.569 2.807 6.148 1.649.579-1.159-4.188-4.188-4.544-4.099-.357.089-1.604 0-1.604 0" fill="#1a2982"/><path d="m121.3948 134.0192s.735 26.863.735 29.604c0 2.74 1.604 18.376 2.339 18.577s1.57.034 1.904-.234c.334-.267 1.504-40.093 1.504-40.093h1.136s9.222 39.926 9.74 40.327c.422.327 2.155.335 2.489-.134.334-.468-4.811-48.181-5.547-48.782-.735-.602-13.933.267-14.3.735" fill="#1ac1f3"/><path d="m104.8665 116.2878-1.626-.891s-5.114-2.643-4.646-3.712c.467-1.069 5.203.727 5.203.727s-.245-2.005.067-2.005c.236 0 2.249 4.255 2.227 4.478-.022.222-1.225 1.403-1.225 1.403" fill="#ffebd2"/><path d="m128.0106 109.694c-1.938.902-12.864 12.196-13.064 12.464-.201.266-8.32-7.585-8.755-7.585-.434 0-1.503 1.503-1.503 1.704 0 .2 10.057 9.374 10.391 9.355.601-.033 7.986-6.515 8.119-6.749.134-.234-3.408 15.404-2.171 15.604 1.236.2 15.102.066 15.403-.535.301-.602-1.036-15.336-1.036-15.336s-1.036-8.22-3.342-9.189c-.709-.298-3.124-.16-4.042.267" fill="#3369f0"/><path d="m126.2513 101.4762s-.736 3.675.673 4.83c.909.744 1.52.538 1.52.538l.212 3.175c.512.486 1.159 1.785 2.168-.051.782-1.424.949-7.145.949-7.145s-1.212-1.674-1.27-1.694c-.057-.018-4.252.347-4.252.347" fill="#ffebd2"/><path d="m125.5491 101.2526c-.308.449-.611 1.51.12 1.972s3.805.026 3.92.334c.115.307-.186 1.132.115 1.448.222.233 1.204-.759 1.533-.602.537.255.183 2.795.183 2.795s.748.388.979-1.671c.258-2.31.215-5.605-2.991-5.623-2.204-.012-3.359.616-3.859 1.347" fill="#1a2982"/><path d="m128.1092 109.693c-.028.305 1.137 1.57 1.516 1.525.378-.044-.404-2.373-1.05-2.36-.238.005-.44.556-.466.835" fill="#1ac1f3"/><path d="m131.3177 108.7917c.146.062.472.523.474.658.005.376-1.844 2.038-2.078 1.683-.247-.376 1.122-2.542 1.604-2.341" fill="#1ac1f3"/><path d="m131.1732 115.4411c-.179.18.022 2.161 0 2.272-.022.112.891 1.136 1.203 1.181s.802-.958.869-1.114c.067-.155-.023-2.272-.178-2.339-.156-.066-1.716-.178-1.894 0" fill="#1ac1f3"/><path d="m56.8836 200.3092-1.496.168c-.025-.219-2.679-22.187-21.543-53.338-19.053-31.46-22.953-62.096-22.99-62.401l1.495-.183c.037.303 3.906 30.634 22.783 61.804 19.053 31.463 21.727 53.728 21.751 53.95" fill="#69def9"/><path d="m11.1771 79.0309c8.884-2.821 3.191 19.298 3.191 19.298s-14.912-15.577-3.191-19.298" fill="#69def9"/><path d="m26.6082 100.2672c5.261 3.784-9.438 9.791-9.438 9.791s2.497-14.783 9.438-9.791" fill="#69def9"/><path d="m4.7464 106.5045c.484-6.462 13.276 2.945 13.276 2.945s-13.915 5.581-13.276-2.945" fill="#69def9"/><path d="m39.4568 117.1383c8.15 5.041-12.917 15.415-12.917 15.415s2.164-22.066 12.917-15.415" fill="#69def9"/><path d="m48.8318 132.0485c8.639 5.343-13.691 16.339-13.691 16.339s2.293-23.389 13.691-16.339" fill="#69def9"/><path d="m58.0901 150.986c8.248 5.102-13.071 15.6-13.071 15.6s2.189-22.329 13.071-15.6" fill="#69def9"/><path d="m62.9373 170.0124c9.034 3.527-10.037 17.704-10.037 17.704s-1.882-22.357 10.037-17.704" fill="#69def9"/><path d="m10.283 130.2692c.031-8.174 16.97 2.52 16.97 2.52s-17.011 8.266-16.97-2.52" fill="#69def9"/><path d="m18.6937 150.7223c-2.662-7.729 16.853-3.208 16.853-3.208s-13.341 13.406-16.853 3.208" fill="#69def9"/><path d="m27.9188 166.2555c-1.183-8.089 17.156-.029 17.156-.029s-15.595 10.701-17.156.029" fill="#69def9"/><path d="m37.1307 180.9137c1.797-7.976 16.024 6.127 16.024 6.127s-18.396 4.394-16.024-6.127" fill="#69def9"/><path d="m77.2039 142.0495s2.602-1.033 3.009-.983c.407.048-.774.928-1.103 1.141-.33.214 3.884 1.838 4.014 2.322.13.486-1.135.967-1.955.692-.819-.275-4.524-1.982-4.524-1.982z" fill="#ffebd2"/><path d="m59.9515 129.1022s.679-.502 1.336 0 6.115 7.324 8.381 8.543c2.401 1.291 7.906 3.647 7.838 4.259-.068.611-.612 1.427-.816 1.495-.12.04-4.806-1.311-9.174-3.919-3.054-1.824-5.884-4.574-7.18-6.568-.543-.836-1.042-3.79-.385-3.81" fill="#1ac1f3"/><path d="m53.4798 141.8727s-3.087.725-5.054-.728c-1.776-1.31-1.713-3.869-1.078-4.926.634-1.058 1.438-1.861 1.734-2.876s-.846-2.544.296-4.402c1.142-1.857 3.552-2.619 4.313-3.887.762-1.269-.465-6.005 3.765-6.217 4.229-.212 5.998 2.807 5.936 3.396-.269 2.525-2.124 2.398-4.136 2.356-2.012-.043-2.181 1.31-2.181 1.691s.317 2.237-.487 2.898c-.803.66-3.108 12.695-3.108 12.695" fill="#1a2982"/><path d="m56.0359 198.9176s-.619 1.709-.221 1.966c.398.256 5.217 4.144 6.057 3.29.84-.855-3.051-5.085-3.36-5.256s-2.476 0-2.476 0" fill="#1a2982"/><path d="m61.4632 198.1325s-.619 2.267 0 2.312c.619.043 7.25 1.403 7.25.452 0-.952-6.527-3.081-7.043-2.764z" fill="#1a2982"/><path d="m61.4739 198.4499c.542.462 1.857.543 2.122 0 .266-.544.531-18.076 1.194-22.493s1.153-18.39.875-18.675c-.278-.284-4.788-.896-4.788-.896s-1.591 20.964-1.459 22.408c.133 1.444 1.26 18.976 2.056 19.656" fill="#184ac6"/><path d="m53.3831 156.3854s-2.33 1.526-.548 7.537c2.741 9.249 3.079 16.158 3.079 17.813 0 3.476-.541 17.076-.077 17.396s2.586.385 2.852 0c.265-.385.198-15.701.928-19.098.729-3.396 1.658-4.87 2.321-8.78.663-3.909 1.194-14.034 1.194-14.419s-9.749-.449-9.749-.449" fill="#2e62e5"/><path d="m56.8787 129.1022s-5.536 2.42-4.715 5.97c2.321 10.035-3.678 16.687.706 23.713 1.3 2.083 12.408 1.466 12.877.704 1.314-2.137-2.239-9.788-2.344-13.735-.18-6.738 3.069-6.432.214-12.458-1.565-3.305-1.851-3.964-2.609-4.335-.757-.372-4.129.141-4.129.141" fill="#1ac1f3"/><path d="m74.6033 149.986s2.401-1.699 2.809-1.744c.408-.046-.645 1.178-.917 1.461s4.201.898 4.44 1.34c.237.441-.884 1.2-1.745 1.121-.86-.079-4.87-.705-4.87-.705z" fill="#ffebd2"/><path d="m74.7508 149.7594c.275.571 0 1.642-.408 1.84-.407.198-9.967-3.959-13.228-6.614-3.262-2.656-8.459-8.498-8.29-10.629.181-2.287 1.405-3.312 2.944-2.763 1.62.577 5.023 9.071 9.398 11.653 4.374 2.583 8.112 5.732 9.584 6.513" fill="#1ac1f3"/><path d="m56.1878 128.9245s-.637.745-.557.997c.353 1.109 3.513 2.616 4.373 2.321.598-.204.738-2.635.706-2.645s-.357-.68-.56-.772c-.202-.091-3.445-.513-3.962.099" fill="#2e62e5"/><path d="m62.3948 122.5182c-1.013 2.589-5.157 1.254-5.918 3.598l.31.34-.085 3.109s.666.719 1.417 1.025c1.427.583 1.649-.232 1.649-.232l.249-2.337s1.395.127 1.934-1.174c.487-1.174 1.06-3.57.444-4.329" fill="#ffebd2"/></g></svg>