<?xml version="1.0" encoding="UTF-8"?>
<svg width="229px" height="160px" viewBox="0 0 229 160" version="1.1" xmlns="http://www.w3.org/2000/svg" xmlns:xlink="http://www.w3.org/1999/xlink">
    <!-- Generator: sketchtool 55 (78076) - https://sketchapp.com -->
    <title>00311A72-0E64-4F8F-B6AA-6B0F1A28ABE7@1.5x</title>
    <desc>Created with sketchtool.</desc>
    <defs>
        <polygon id="path-1" points="0.0276203124 0 89.7395151 0 89.7395151 47.1658773 0.0276203124 47.1658773"></polygon>
        <polygon id="path-3" points="0 0.256761905 228.240407 0.256761905 228.240407 33.824 0 33.824"></polygon>
    </defs>
    <g id="Japanese-0.0" stroke="none" stroke-width="1" fill="none" fill-rule="evenodd">
        <g id="Features" transform="translate(-399.000000, -1126.000000)">
            <g id="Stacked-Group-3" transform="translate(32.000000, 255.000000)">
                <g id="Stacked-Group-5" transform="translate(0.000000, 780.000000)">
                    <g id="Card-8" transform="translate(327.000000, 0.000000)">
                        <g id="Stacked-Group-10" transform="translate(24.000000, 35.000000)">
                            <g transform="translate(0.000000, 56.000000)" id="features_illustration_8">
                                <g transform="translate(16.000000, 0.000000)">
                                    <g id="Group-3" transform="translate(64.120000, 0.000000)">
                                        <mask id="mask-2" fill="white">
                                            <use xlink:href="#path-1"></use>
                                        </mask>
                                        <g id="Clip-2"></g>
                                        <path d="M1.24789733,36.9648762 C5.710344,50.9351619 72.2974373,48.1816381 82.2818373,42.670019 C95.4821607,35.3846857 89.7617407,14.3279238 76.0163973,11.6444952 C66.642664,9.8144 59.4604607,16.1557333 58.694074,16.4932571 C57.9284507,16.830019 57.9231073,0.987733333 39.233654,0.0361142857 C23.361664,-0.771504762 18.8488373,12.0742095 20.911364,20.5625905 C16.553494,15.5035429 -5.31905933,16.4086857 1.24789733,36.9648762" id="Fill-1" fill="#C5F3FF" mask="url(#mask-2)"></path>
                                    </g>
                                    <path d="M31.04324,107.620419 C31.0073633,107.519848 27.3509967,97.477181 25.2877067,92.8028952 C18.1009233,76.5248 20.8702967,69.3781333 20.8993033,69.3080381 L20.42222,69.1114667 C20.30085,69.4055619 17.5238433,76.4935619 24.8159667,93.0101333 C26.8723867,97.668419 30.5218833,107.695848 30.5592867,107.795657 L31.04324,107.620419 Z" id="Fill-4" fill="#A4E2FF"></path>
                                    <path d="M19.967426,65.5645714 C24.4688027,64.752381 20.306346,75.1409524 20.306346,75.1409524 C20.306346,75.1409524 14.0279293,66.6365714 19.967426,65.5645714" id="Fill-6" fill="#A4E2FF"></path>
                                    <path d="M25.8721147,76.854781 C28.194938,79.0239238 20.6616013,81.0193524 20.6616013,81.0193524 C20.6616013,81.0193524 22.806568,73.9930667 25.8721147,76.854781" id="Fill-8" fill="#A4E2FF"></path>
                                    <path d="M14.8372917,78.5125333 C15.4800183,75.4032 21.114945,80.7776762 21.114945,80.7776762 C21.114945,80.7776762 13.9899917,82.6153905 14.8372917,78.5125333" id="Fill-10" fill="#A4E2FF"></path>
                                    <path d="M30.5944763,82.6583619 C34.2447363,85.6191238 23.336703,89.3364571 23.336703,89.3364571 C23.336703,89.3364571 25.7786063,78.7513143 30.5944763,82.6583619" id="Fill-12" fill="#A4E2FF"></path>
                                    <path d="M15.5297877,86.8659048 C16.0587777,82.896381 23.6310443,89.1554286 23.6310443,89.1554286 C23.6310443,89.1554286 14.8305743,92.104 15.5297877,86.8659048" id="Fill-14" fill="#A4E2FF"></path>
                                    <path d="M214.46537,109.592838 C202.281043,99.0381714 188.21052,128.852267 189.015073,131.236267 C191.063097,129.134933 194.073683,126.053029 198.48346,121.552457 C205.88932,113.99741 211.322727,110.879695 214.46537,109.592838" id="Fill-16" fill="#76ABFF"></path>
                                    <path d="M198.897568,121.994667 C194.591605,126.38781 191.623765,129.425524 189.580322,131.522286 C194.067195,132.048 223.595982,122.502095 217.546565,113.238857 C216.701555,111.946667 215.839752,110.898286 214.967262,110.057905 C211.895608,111.287619 206.381288,114.359619 198.897568,121.994667" id="Fill-18" fill="#4A75FF"></path>
                                    <path d="M189.580245,131.522133 C191.623689,129.425371 194.591529,126.387657 198.897492,121.994514 C206.381212,114.359467 211.895532,111.287467 214.967185,110.057752 C214.800015,109.896229 214.632845,109.738514 214.465675,109.59299 C211.322269,110.879848 205.888862,113.997562 198.483765,121.55261 C194.073989,126.053181 191.062639,129.135086 189.015379,131.236419 C189.026065,131.267657 189.036752,131.298895 189.053545,131.320229 C189.129115,131.425371 189.312315,131.490895 189.580245,131.522133" id="Fill-20" fill="#FFFFFF"></path>
                                    <path d="M187.423676,121.111467 L186.722936,120.554514 C186.804613,120.452419 194.921136,110.107276 200.074399,89.1015619 C205.278043,67.8870857 216.513546,53.3766095 216.627283,53.2318476 L217.333366,53.7834667 C217.221156,53.925181 206.100153,68.2947048 200.944599,89.3141333 C195.740193,110.529371 187.506116,121.007848 187.423676,121.111467" id="Fill-22" fill="#69DEF9"></path>
                                    <path d="M219.161626,50.9693714 C224.087416,53.5118476 212.393149,60.4177524 212.393149,60.4177524 C212.393149,60.4177524 212.662606,47.6154667 219.161626,50.9693714" id="Fill-24" fill="#69DEF9"></path>
                                    <path d="M216.731478,66.3681524 C217.355121,70.1654857 208.641671,66.522819 208.641671,66.522819 C208.641671,66.522819 215.907841,61.3578667 216.731478,66.3681524" id="Fill-26" fill="#69DEF9"></path>
                                    <path d="M204.905078,59.8168381 C207.824828,57.3040762 209.256841,66.625219 209.256841,66.625219 C209.256841,66.625219 201.051771,63.1318857 204.905078,59.8168381" id="Fill-28" fill="#69DEF9"></path>
                                    <path d="M215.049015,78.8488381 C216.361185,84.3871238 203.131091,79.9071238 203.131091,79.9071238 C203.131091,79.9071238 213.317011,71.5421714 215.049015,78.8488381" id="Fill-30" fill="#69DEF9"></path>
                                    <path d="M212.727718,89.0482286 C214.118511,94.9179429 200.095315,90.1697524 200.095315,90.1697524 C200.095315,90.1697524 210.893428,81.3034667 212.727718,89.0482286" id="Fill-32" fill="#69DEF9"></path>
                                    <path d="M208.665105,100.8912 C209.992542,106.49501 196.604439,101.961676 196.604439,101.961676 C196.604439,101.961676 206.913255,93.4969143 208.665105,100.8912" id="Fill-34" fill="#69DEF9"></path>
                                    <path d="M202.707518,110.920229 C205.028814,116.19261 191.039968,114.148419 191.039968,114.148419 C191.039968,114.148419 199.645788,103.963276 202.707518,110.920229" id="Fill-36" fill="#69DEF9"></path>
                                    <path d="M197.246402,72.1263238 C200.695905,68.7038476 203.332459,80.3046095 203.332459,80.3046095 C203.332459,80.3046095 192.694645,76.6413714 197.246402,72.1263238" id="Fill-38" fill="#69DEF9"></path>
                                    <path d="M192.189319,84.2498286 C194.318255,79.8848762 200.633312,89.9732625 200.633312,89.9732625 C200.633312,89.9732625 189.381015,90.0090667 192.189319,84.2498286" id="Fill-40" fill="#69DEF9"></path>
                                    <path d="M189.543758,94.6479238 C192.445951,90.7530667 196.779395,101.83421 196.779395,101.83421 C196.779395,101.83421 185.714878,99.7877333 189.543758,94.6479238" id="Fill-42" fill="#69DEF9"></path>
                                    <path d="M187.260475,104.673219 C191.369499,102.075886 191.431329,113.970743 191.431329,113.970743 C191.431329,113.970743 181.838519,108.099505 187.260475,104.673219" id="Fill-44" fill="#69DEF9"></path>
                                    <g id="Group-48" transform="translate(0.000000, 124.190476)">
                                        <mask id="mask-4" fill="white">
                                            <use xlink:href="#path-3"></use>
                                        </mask>
                                        <g id="Clip-47"></g>
                                        <path d="M228.240407,17.0407619 C228.240407,26.3100952 177.14669,33.824 114.120547,33.824 C51.0936403,33.824 -7.63333333e-05,26.3100952 -7.63333333e-05,17.0407619 C-7.63333333e-05,7.77142857 51.0936403,0.256761905 114.120547,0.256761905 C177.14669,0.256761905 228.240407,7.77142857 228.240407,17.0407619" id="Fill-46" fill="#EBFAFF" mask="url(#mask-4)"></path>
                                    </g>
                                    <path d="M194.995179,129.473067 C201.975863,127.852495 213.268616,126.104686 217.250163,125.507352 C213.035799,114.776686 196.495893,127.057067 194.995179,129.473067" id="Fill-49" fill="#76ABFF"></path>
                                    <path d="M217.611906,126.586895 C217.545496,126.348419 217.472216,126.121371 217.395883,125.901181 C213.421206,126.49699 201.942963,128.272229 194.972966,129.903467 C196.586653,131.388419 220.369066,136.455848 217.611906,126.586895" id="Fill-51" fill="#4A75FF"></path>
                                    <path d="M194.887778,129.788571 C194.897702,129.823619 194.928998,129.862476 194.972508,129.902857 C201.942505,128.272381 213.420748,126.497143 217.395425,125.900571 C217.349625,125.766476 217.300772,125.635429 217.250392,125.507429 C213.268845,126.104762 201.976092,127.852571 194.995408,129.473143 C194.908388,129.613333 194.868695,129.721524 194.887778,129.788571" id="Fill-53" fill="#FFFFFF"></path>
                                    <path d="M177.552555,72.6471619 C176.858685,74.8391619 176.096878,77.198019 175.293088,79.6864 C174.526701,82.0582095 173.715278,84.5763048 172.887061,87.1812571 L161.534768,75.0273524 C162.108031,67.806781 160.495871,60.2136381 160.734795,55.2597333 C160.782885,54.2616381 161.088218,52.4726857 161.734761,50.4124952 L179.245628,62.0551619 C179.128838,65.6216381 178.632671,69.2353524 177.552555,72.6471619" id="Fill-55" fill="#C0EDFF"></path>
                                    <path d="M176.701972,38.1136762 C185.385652,38.8306286 189.848099,44.6698667 192.014439,51.5872 L180.376659,60.6340571 C180.424749,50.8184381 177.831706,41.6412952 176.701972,38.1136762" id="Fill-57" fill="#C0EDFF"></path>
                                    <path d="M176.350152,80.0266667 C177.154705,77.5352381 177.917275,75.175619 178.611909,72.9813333 C179.726375,69.4590476 180.235519,65.7318095 180.350782,62.0594286 L192.350382,52.7314286 C193.235085,55.9664762 193.658735,59.3805714 193.801479,62.5805714 C194.041929,67.9420952 192.319849,73.9207619 190.223735,79.6220952 C183.937685,81.8407619 176.874562,85.5634286 174.081525,87.0895238 C174.862415,84.6392381 175.627275,82.2666667 176.350152,80.0266667" id="Fill-59" fill="#C0EDFF"></path>
                                    <path d="M179.268528,60.7386667 L162.103451,49.3253333 C163.958351,44.1634286 167.897915,37.951619 175.149581,38.0361905 C175.274005,38.0377143 175.391558,38.047619 175.513691,38.0514286 C176.538085,41.1630476 179.341045,50.6312381 179.268528,60.7386667" id="Fill-61" fill="#C0EDFF"></path>
                                    <path d="M164.650389,116.107733 C162.432906,112.320305 155.504893,100.38659 152.145463,93.4486857 C154.688126,90.5229714 157.168196,87.8372571 159.083399,84.2441143 C160.356639,81.8532571 161.041349,79.2117333 161.379506,76.4886857 L172.500509,88.3949714 C169.754799,97.070781 166.847263,106.740876 164.650389,116.107733" id="Fill-63" fill="#C0EDFF"></path>
                                    <path d="M141.816723,112.709638 C144.047946,103.630019 147.713473,98.6304 151.355336,94.3644952 C155.261313,102.339352 163.23204,115.895162 164.291546,117.69021 C163.132806,122.807924 162.200776,127.806781 161.646596,132.474971 C151.813336,132.399543 142.86936,132.2464 142.378536,132.260114 C141.274756,132.292114 137.86113,128.807162 141.816723,112.709638" id="Fill-65" fill="#C0EDFF"></path>
                                    <path d="M173.592763,88.6270476 C174.895773,87.8994286 182.723756,83.5870476 189.715126,80.9851429 C187.294596,87.3554286 184.55652,93.2784762 183.7596,97.4537143 C182.742076,102.785524 182.929856,106.11581 183.94509,109.287619 C178.50634,113.382095 168.59751,116.085333 165.624326,116.832 C167.83265,107.318857 170.797436,97.4552381 173.592763,88.6270476" id="Fill-67" fill="#C0EDFF"></path>
                                    <path d="M184.326375,110.373333 C184.885135,111.846857 185.611065,113.331048 186.473631,115.014095 C189.398725,120.716952 188.583485,130.8 187.926255,131.920762 C187.571305,132.52419 174.726695,132.567619 162.766025,132.48381 C163.313335,127.923048 164.220938,123.042286 165.351435,118.041905 C167.496401,117.532952 178.188411,114.841143 184.326375,110.373333" id="Fill-69" fill="#C0EDFF"></path>
                                    <path d="M172.886832,87.1814095 C173.715049,84.5764571 174.526472,82.0576 175.292859,79.6865524 C176.096649,77.1974095 176.858456,74.8393143 177.552326,72.6473143 C178.632442,69.2355048 179.129372,65.6217905 179.245399,62.0545524 L179.844616,62.4537905 L180.350706,62.0591238 C180.235442,65.7322667 179.726299,69.4587429 178.611832,72.9810286 C177.917199,75.1753143 177.154629,77.5356952 176.350076,80.0263619 C175.627199,82.2671238 174.862339,84.6389333 174.081449,87.089219 C173.739476,87.2766476 173.440249,87.441981 173.235676,87.5547429 L172.886832,87.1814095 Z" id="Fill-71" fill="#FFFFFF"></path>
                                    <path d="M180.377041,60.6337524 L179.793854,61.0878476 L179.268681,60.7388952 C179.341197,50.6314667 176.538237,41.1625143 175.513844,38.0508952 C175.917647,38.0623238 176.315344,38.0813714 176.702354,38.1133714 C177.832087,41.6409905 180.424367,50.8181333 180.377041,60.6337524" id="Fill-73" fill="#FFFFFF"></path>
                                    <path d="M164.650389,116.107733 C166.847263,106.740876 169.754799,97.070781 172.500509,88.3949714 L173.020339,88.9504 L173.402006,88.734019 C173.410403,88.7286857 173.477576,88.6913524 173.592839,88.6273524 C170.797513,97.4555429 167.832726,107.319162 165.623639,116.831543 C165.438913,116.878019 165.272506,116.9184 165.144266,116.949638 C165.025949,116.750019 164.856489,116.460495 164.650389,116.107733" id="Fill-75" fill="#FFFFFF"></path>
                                    <path d="M164.395436,117.865905 L164.600773,118.213333 L164.995416,118.124952 C165.046559,118.113524 165.168693,118.085333 165.351129,118.041905 C164.220633,123.042286 163.313029,127.923048 162.765719,132.48381 C162.391686,132.480762 162.018416,132.478476 161.645909,132.475429 C162.200853,127.807238 163.132883,122.807619 164.291623,117.690667 C164.338949,117.771429 164.377116,117.833905 164.395436,117.865905" id="Fill-77" fill="#FFFFFF"></path>
                                    <path d="M179.245475,62.0549333 L161.735372,50.4130286 C161.846819,50.057981 161.971242,49.6937905 162.103299,49.3250286 L179.268375,60.7383619 C179.265322,61.1764571 179.259979,61.6153143 179.245475,62.0549333" id="Fill-79" fill="#FFFFFF"></path>
                                    <path d="M180.377041,60.6337524 L192.014057,51.5868952 C192.132374,51.9655619 192.245347,52.3472762 192.350687,52.7312762 L180.351087,62.0592762 C180.366354,61.5830857 180.374751,61.1076571 180.377041,60.6337524" id="Fill-81" fill="#FFFFFF"></path>
                                    <path d="M179.245475,62.0549333 C179.259979,61.6153143 179.265322,61.1764571 179.268375,60.7383619 L179.794312,61.0873143 L180.376735,60.633981 C180.374445,61.1078857 180.366812,61.5833143 180.350782,62.0595048 L179.844692,62.4534095 L179.245475,62.0549333 Z" id="Fill-83" fill="#FFFFFF"></path>
                                    <path d="M172.500662,88.3949714 L161.379659,76.4886857 C161.439962,76.0033524 161.495685,75.5172571 161.534615,75.0273524 L172.886909,87.1812571 C172.757905,87.5858286 172.630429,87.9858286 172.500662,88.3949714" id="Fill-85" fill="#FFFFFF"></path>
                                    <path d="M174.081754,87.0891429 C176.874028,85.5630476 183.937914,81.840381 190.223201,79.6217143 C190.056031,80.0780952 189.886571,80.5337143 189.714821,80.9847619 C182.723451,83.5866667 174.895468,87.8990476 173.592458,88.6274286 C173.756574,88.1093333 173.919164,87.599619 174.081754,87.0891429" id="Fill-87" fill="#FFFFFF"></path>
                                    <path d="M173.020263,88.9507048 L172.500433,88.3952762 C172.6302,87.9853714 172.757676,87.5853714 172.88668,87.1815619 L173.235523,87.5548952 C173.440096,87.4421333 173.739323,87.2768 174.08206,87.0893714 C173.91947,87.5998476 173.75688,88.1095619 173.592763,88.6268952 C173.478263,88.6908952 173.410326,88.7289905 173.40193,88.7343238 L173.020263,88.9507048 Z" id="Fill-89" fill="#FFFFFF"></path>
                                    <path d="M165.623945,116.831695 C168.597891,116.08579 178.505958,113.382552 183.944708,109.288076 C184.059971,109.650743 184.188975,110.011886 184.326375,110.373029 C178.188411,114.8416 167.496401,117.53341 165.351435,118.042362 C165.442271,117.638552 165.529291,117.237029 165.623945,116.831695" id="Fill-91" fill="#FFFFFF"></path>
                                    <path d="M164.291852,117.690362 C163.231582,115.895314 155.261618,102.339505 151.355642,94.3646476 C151.618992,94.0553143 151.882342,93.7505524 152.145692,93.4488381 C155.504358,100.386743 162.432372,112.320457 164.650618,116.107886 C164.526195,116.638171 164.410932,117.163124 164.291852,117.690362" id="Fill-93" fill="#FFFFFF"></path>
                                    <path d="M165.144648,116.950019 C165.272888,116.918781 165.439294,116.877638 165.624021,116.831924 C165.529368,117.237257 165.442348,117.638019 165.351511,118.04259 C165.168311,118.085257 165.046178,118.113448 164.995798,118.124876 L164.600391,118.213257 L164.395818,117.865829 C164.376734,117.833829 164.338568,117.771352 164.292004,117.69059 C164.411084,117.16259 164.525584,116.6384 164.650771,116.108114 C164.856108,116.460114 165.026331,116.749638 165.144648,116.950019" id="Fill-95" fill="#FFFFFF"></path>
                                    <path d="M189.21499,124.453714 L189.20583,124.453714 C186.987584,124.375238 185.180774,124.984762 183.83578,126.263238 C182.02439,127.985905 181.396167,130.564952 181.185487,132.400381 C181.71295,132.42019 182.279344,132.437714 182.874744,132.455238 C183.122064,131.222476 183.642657,129.784 184.737277,128.744 C185.77312,127.758857 187.15399,127.289524 188.840957,127.34819 C188.843247,127.34819 188.845537,127.348952 188.847827,127.348952 C191.71796,127.451048 193.754534,128.523048 194.90106,130.535238 C195.291124,131.219429 195.52165,131.930286 195.655234,132.572571 C196.651384,132.568 197.597154,132.560381 198.465827,132.548952 C198.34293,131.27581 197.93302,129.454857 196.75367,127.862476 C195.169754,125.722286 192.63396,124.575619 189.21499,124.453714" id="Fill-97" fill="#B6DEFF"></path>
                                    <path d="M189.490019,117.55939 C176.930133,117.119771 177.182033,131.293486 177.156843,132.000533 C177.153026,132.115581 177.844606,132.211581 179.002583,132.290057 C179.135403,129.949486 179.785763,125.725486 182.617729,123.033676 C184.426066,121.313295 186.842016,120.494248 189.796879,120.597105 L189.809093,120.597105 C194.855489,120.776914 198.433233,122.655771 200.444616,126.182629 C201.779686,128.525486 202.070516,131.035962 202.072043,132.467581 C202.913999,132.434057 203.413983,132.393676 203.439173,132.3472 C203.629243,132.001295 204.657453,118.090438 189.490019,117.55939" id="Fill-99" fill="#B6DEFF"></path>
                                    <path d="M183.510142,125.921752 C184.950552,124.55261 186.871862,123.900419 189.222166,123.981943 C189.225219,123.982705 189.229036,123.982705 189.232089,123.982705 C193.240352,124.125181 196.083769,125.619276 197.681426,128.423848 C198.505826,129.870705 198.826426,131.3968 198.928712,132.542705 C199.969136,132.528229 200.879792,132.508419 201.604959,132.4848 C201.598089,131.00061 201.275962,128.023848 199.429459,125.479086 C197.419602,122.7088 194.176962,121.22461 189.791612,121.069181 C189.788559,121.068419 189.784742,121.068419 189.780926,121.068419 C186.957356,120.969371 184.656669,121.745752 182.943749,123.374705 C180.226282,125.958324 179.601876,130.04899 179.474399,132.319467 C179.850722,132.342324 180.265212,132.362133 180.712526,132.381181 C180.928549,130.469562 181.585779,127.751848 183.510142,125.921752" id="Fill-101" fill="#B6DEFF"></path>
                                    <path d="M194.086431,130.155352 C192.972728,128.69021 191.204848,127.903924 188.830881,127.820114 L188.824011,127.820114 C187.269101,127.765257 186.003494,128.191162 185.063068,129.084876 C184.076078,130.023543 183.591361,131.3264 183.353201,132.467733 C186.884381,132.557638 191.352171,132.589638 195.179524,132.575162 C195.006248,131.811733 194.682594,130.940114 194.086431,130.155352" id="Fill-103" fill="#B6DEFF"></path>
                                    <path d="M189.809093,120.597333 L189.796879,120.597333 C186.842016,120.493714 184.426066,121.312762 182.617729,123.033143 C179.785763,125.724952 179.135403,129.948952 179.002583,132.290286 C179.152196,132.30019 179.309443,132.310095 179.474323,132.32 C179.601799,130.048762 180.226206,125.958095 182.943673,123.375238 C184.656593,121.745524 186.957279,120.969143 189.780849,121.06819 C189.784666,121.06819 189.788483,121.06819 189.792299,121.068952 C194.176886,121.224381 197.419526,122.708571 199.430146,125.478857 C201.275886,128.023619 201.598013,131.000381 201.604883,132.485333 C201.771289,132.479238 201.926246,132.473905 202.072043,132.46781 C202.070516,131.03619 201.779686,128.524952 200.444616,126.182857 C198.433233,122.656 194.855489,120.776381 189.809093,120.597333" id="Fill-105" fill="#92C9FF"></path>
                                    <path d="M183.835857,126.263238 C185.18085,124.984762 186.98766,124.375238 189.205907,124.453714 L189.214303,124.217524 L189.205907,124.453714 L189.215067,124.453714 C192.633273,124.575619 195.16983,125.722286 196.753747,127.862476 C197.933097,129.454857 198.343007,131.27581 198.465903,132.548952 C198.62315,132.547429 198.777343,132.545143 198.928483,132.542857 C198.82696,131.39619 198.50636,129.870095 197.68196,128.424 C196.08354,125.618667 193.240123,124.124571 189.23186,123.982857 C189.228807,123.982857 189.225753,123.982857 189.2227,123.982095 C186.872397,123.89981 184.950323,124.552762 183.509913,125.921905 C181.58555,127.752 180.92832,130.469714 180.712297,132.380571 C180.86649,132.387429 181.023737,132.394286 181.185563,132.400381 C181.396243,130.564952 182.024467,127.985905 183.835857,126.263238" id="Fill-107" fill="#92C9FF"></path>
                                    <path d="M188.847522,127.3488 C188.845232,127.3488 188.842942,127.348038 188.840652,127.348038 L188.832255,127.584229 L188.840652,127.348038 C187.153685,127.289371 185.773578,127.758705 184.736972,128.743848 C183.643115,129.783848 183.121758,131.222324 182.875202,132.455086 C183.033212,132.459657 183.191985,132.463467 183.353812,132.468038 C183.591208,131.326705 184.075925,130.023848 185.062915,129.084419 C186.003342,128.190705 187.269712,127.765562 188.824622,127.819657 L188.831492,127.819657 C191.204695,127.904229 192.972575,128.690514 194.086278,130.155657 C194.683205,130.940419 195.006095,131.811276 195.179372,132.574705 C195.338908,132.573943 195.497682,132.573181 195.654928,132.572419 C195.521345,131.930133 195.290818,131.219276 194.901518,130.535848 C193.754992,128.522895 191.718418,127.450895 188.847522,127.3488" id="Fill-109" fill="#92C9FF"></path>
                                    <path d="M65.4469023,94.312381 C63.8713823,92.9219048 54.598409,67.5253333 52.228259,60.5302857 C43.9697557,36.168381 34.027339,31.2464762 33.9273423,31.1992381 L34.2441257,30.5249524 C34.6609057,30.7192381 44.5552323,35.5718095 52.933579,60.2918095 C55.296859,67.264 64.2912157,92.6339048 66.135429,94.0274286 L65.4469023,94.312381 Z" id="Fill-111" fill="#1AC1F3"></path>
                                    <path d="M31.2601793,26.2989714 C25.664946,29.8197333 40.2652227,36.8429714 40.2652227,36.8429714 C40.2652227,36.8429714 38.6431393,21.6544 31.2601793,26.2989714" id="Fill-113" fill="#1AC1F3"></path>
                                    <path d="M36.25986,45.2677333 C35.9041467,49.8444952 45.88931,44.6315429 45.88931,44.6315429 C45.88931,44.6315429 36.72931,39.2296381 36.25986,45.2677333" id="Fill-115" fill="#1AC1F3"></path>
                                    <path d="M49.6479633,36.2833524 C45.9221333,33.5930667 45.1694867,44.8151619 45.1694867,44.8151619 C45.1694867,44.8151619 54.5645933,39.8323048 49.6479633,36.2833524" id="Fill-117" fill="#1AC1F3"></path>
                                    <path d="M49.6889543,82.6576 C49.0393577,87.8583619 60.7069077,82.441981 60.7069077,82.441981 C60.7069077,82.441981 50.5454143,75.7951238 49.6889543,82.6576" id="Fill-119" fill="#1AC1F3"></path>
                                    <path d="M66.1550467,72.6107429 C61.9429733,69.4808381 60.9063667,82.2816 60.9063667,82.2816 C60.9063667,82.2816 71.7121133,76.7395048 66.1550467,72.6107429" id="Fill-121" fill="#1AC1F3"></path>
                                    <path d="M44.482792,69.4217143 C43.6118287,74.8259048 55.990042,69.6030476 55.990042,69.6030476 C55.990042,69.6030476 45.6308453,62.2910476 44.482792,69.4217143" id="Fill-123" fill="#1AC1F3"></path>
                                    <path d="M61.7703837,60.1233524 C57.6041103,56.5629714 55.613337,69.8277333 55.613337,69.8277333 C55.613337,69.8277333 67.2663837,64.8204952 61.7703837,60.1233524" id="Fill-125" fill="#1AC1F3"></path>
                                    <path d="M37.6307303,57.5408 C36.633817,64.2554667 51.901247,57.5903238 51.901247,57.5903238 C51.901247,57.5903238 38.9451903,48.6821333 37.6307303,57.5408" id="Fill-127" fill="#1AC1F3"></path>
                                    <path d="M57.8113553,47.3488 C53.3641753,43.6307048 51.4108053,57.6848 51.4108053,57.6848 C51.4108053,57.6848 63.6790987,52.253181 57.8113553,47.3488" id="Fill-129" fill="#1AC1F3"></path>
                                    <path d="M14.9416393,96.2282667 C32.2105293,80.1856 58.0539427,128.706743 57.150156,132.459124 C53.7029427,128.9696 48.6374627,123.851886 41.2170993,116.375314 C28.7594993,103.826743 19.9590293,98.4896 14.9416393,96.2282667" id="Fill-131" fill="#76ABFF"></path>
                                    <path d="M40.6430727,117.05341 C47.8855793,124.350171 52.881596,129.396267 56.3204127,132.878171 C49.4893427,133.42141 2.70387933,116.231314 10.7127727,101.844267 C11.831056,99.8358857 13.0096427,98.2198857 14.2340293,96.9368381 C19.1346293,99.1021714 28.0526527,104.370743 40.6430727,117.05341" id="Fill-133" fill="#4A75FF"></path>
                                    <path d="M56.3204127,132.87779 C52.881596,129.396648 47.8855793,124.350552 40.6430727,117.053029 C28.0526527,104.370362 19.1346293,99.1025524 14.2340293,96.9364571 C14.469136,96.6903619 14.7034793,96.4488381 14.9416393,96.2278857 C19.9590293,98.489219 28.7594993,103.826362 41.2170993,116.375695 C48.6374627,123.851505 53.7029427,128.969219 57.150156,132.458743 C57.1371793,132.509029 57.1257293,132.557029 57.1035927,132.590552 C57.001306,132.7536 56.7280327,132.84579 56.3204127,132.87779" id="Fill-135" fill="#FFFFFF"></path>
                                    <path d="M44.523783,129.615924 C32.7951663,126.985829 14.009533,124.064686 7.39066967,123.062781 C11.9660897,106.770971 41.560523,125.892495 44.523783,129.615924" id="Fill-137" fill="#76ABFF"></path>
                                    <path d="M7.03175033,124.703695 C7.08976367,124.341029 7.15999033,123.995886 7.23785033,123.66141 C13.846027,124.659505 32.940047,127.626362 44.6518703,130.273219 C42.3389703,132.504838 4.64786033,139.714743 7.03175033,124.703695" id="Fill-139" fill="#4A75FF"></path>
                                    <path d="M44.7668283,130.100267 C44.7576683,130.152838 44.715685,130.211505 44.6523283,130.273219 C32.940505,127.626362 13.8457217,124.659505 7.237545,123.66141 C7.28487167,123.456457 7.336015,123.258362 7.390975,123.063314 C14.0098383,124.064457 32.7947083,126.9856 44.5240883,129.615695 C44.695075,129.830552 44.7828583,129.99741 44.7668283,130.100267" id="Fill-141" fill="#FFFFFF"></path>
                                    <path d="M51.0233373,122.892724 C47.518874,111.41539 40.7824573,93.6698667 38.3833007,87.4313905 C54.8361873,83.3521524 52.801904,118.481295 51.0233373,122.892724" id="Fill-143" fill="#76ABFF"></path>
                                    <path d="M36.777171,87.9306667 C37.1214343,87.8011429 37.457301,87.6929524 37.787061,87.5946667 C40.182401,93.8209524 47.0333177,111.857524 50.5141177,123.328 C47.4271977,122.423619 22.524211,93.2792381 36.777171,87.9306667" id="Fill-145" fill="#4A75FF"></path>
                                    <path d="M50.721439,123.342095 C50.671059,123.360381 50.5993057,123.352762 50.5145757,123.327619 C47.0330123,111.857905 40.1820957,93.8213333 37.787519,87.5942857 C37.9882757,87.5340952 38.1875057,87.48 38.3836823,87.4312381 C40.7820757,93.6697143 47.5192557,111.415238 51.023719,122.892571 C50.920669,123.147048 50.8191457,123.306286 50.721439,123.342095" id="Fill-147" fill="#FFFFFF"></path>
                                    <path d="M51.4191257,117.54819 L51.4008057,117.54819 C46.668139,117.433905 42.8308623,118.773333 39.9935523,121.529905 C36.1715423,125.24419 34.892959,130.756571 34.4868657,134.674286 C35.6104923,134.704762 36.818849,134.730667 38.089799,134.752 C38.586729,132.117333 39.6637923,129.040762 41.973639,126.796952 C44.158299,124.673524 47.0910257,123.640381 50.6886157,123.727238 L50.703119,123.727238 C56.824289,123.878857 61.191319,126.117333 63.6820757,130.380952 C64.5293757,131.830857 65.0369923,133.340952 65.336219,134.707048 C67.4621023,134.674286 69.4773023,134.635429 71.3283857,134.591238 C71.0367923,131.879619 70.120029,128.008381 67.568969,124.639238 C64.1423657,120.114286 58.708959,117.728 51.4191257,117.54819" id="Fill-149" fill="#C0EDFF"></path>
                                    <path d="M51.8455237,102.844343 C25.0593937,102.197486 25.9265403,132.408533 25.889137,133.916343 C25.882267,134.161676 27.3608437,134.349867 29.830227,134.490057 C30.059227,129.495771 31.3469703,120.477867 37.3215803,114.672152 C41.138247,110.963962 46.2686103,109.160533 52.5706903,109.312914 C52.579087,109.312914 52.588247,109.312914 52.5958803,109.313676 C63.358117,109.579581 71.0288537,113.501105 75.3974103,120.973867 C78.2988403,125.937676 78.978207,131.282438 79.0140837,134.334629 C80.8071537,134.2432 81.8735303,134.145676 81.9269637,134.045105 C82.3231337,133.304533 84.1917737,103.625295 51.8455237,102.844343" id="Fill-151" fill="#C0EDFF"></path>
                                    <path d="M39.2915147,120.810133 C42.3295813,117.85699 46.411888,116.421562 51.424698,116.542705 L51.4445447,116.542705 C59.9931147,116.754514 66.087568,119.873752 69.5607347,125.815086 C71.352278,128.880229 72.0698113,132.125943 72.3156047,134.567848 C74.5315613,134.511467 76.472718,134.448229 78.018468,134.381181 C77.970378,131.21699 77.214678,124.879467 73.218628,119.497371 C68.867628,113.638324 61.9205313,110.5488 52.5704613,110.317943 L52.546798,110.317943 C46.5248613,110.172419 41.6387647,111.879848 38.0243813,115.39299 C32.291748,120.962514 31.0559113,129.698514 30.8368347,134.542705 C31.6406247,134.5808 32.5238013,134.614324 33.477968,134.644038 C33.8939847,130.5648 35.2313447,124.756038 39.2915147,120.810133" id="Fill-153" fill="#C0EDFF"></path>
                                    <path d="M61.9358743,129.589867 C59.528321,126.491962 55.7398977,124.857676 50.6782343,124.732724 L50.6644943,124.732724 C47.347811,124.652724 44.659351,125.589105 42.676211,127.516724 C40.5930743,129.541105 39.5900543,132.330438 39.1099177,134.767771 C46.6394377,134.877486 56.164311,134.8432 64.3220543,134.722819 C63.9358077,133.099962 63.2259077,131.250057 61.9358743,129.589867" id="Fill-155" fill="#6ED9F9"></path>
                                    <path d="M52.5961857,109.313829 C52.587789,109.313067 52.5793923,109.313067 52.5709957,109.313067 C46.2689157,109.160686 41.137789,110.964114 37.3211223,114.672305 C31.3472757,120.477257 30.0595323,129.495924 29.8305323,134.49021 C30.150369,134.508495 30.484709,134.526019 30.8366057,134.542781 C31.0556823,129.69859 32.291519,120.96259 38.0241523,115.393067 C41.639299,111.879924 46.5246323,110.172495 52.5473323,110.318019 L52.5709957,110.318019 C61.9203023,110.548876 68.867399,113.6384 73.2191623,119.497448 C77.214449,124.879543 77.970149,131.217067 78.0190023,134.381257 C78.373189,134.366019 78.7021857,134.350019 79.0136257,134.334781 C78.9785123,131.28259 78.2991457,125.937067 75.3969523,120.974019 C71.0283957,113.501257 63.3584223,109.579733 52.5961857,109.313829" id="Fill-157" fill="#6ED9F9"></path>
                                    <path d="M39.9937813,121.5296 C42.8310913,118.77379 46.668368,117.4336 51.4002713,117.547886 L51.4124847,117.045029 L51.4002713,117.547886 L51.4193547,117.547886 C58.709188,117.728457 64.1425947,120.114743 67.569198,124.638933 C70.120258,128.008076 71.0370213,131.879314 71.3286147,134.591695 C71.6629547,134.584076 71.9919513,134.575695 72.3156047,134.567314 C72.0698113,132.12541 71.352278,128.879695 69.5607347,125.815314 C66.0883313,119.873219 59.9931147,116.753981 51.4445447,116.542933 L51.424698,116.542933 C46.411888,116.42179 42.3303447,117.857219 39.2915147,120.810362 C35.2313447,124.755505 33.8939847,130.564267 33.477968,134.644267 C33.8069647,134.654933 34.142068,134.664838 34.4870947,134.673981 C34.8924247,130.756267 36.1717713,125.243886 39.9937813,121.5296" id="Fill-159" fill="#6ED9F9"></path>
                                    <path d="M50.7028137,123.727543 L50.6883103,123.727543 L50.6768603,124.229638 L50.6883103,123.727543 C47.0914837,123.640686 44.158757,124.673067 41.9733337,126.796495 C39.663487,129.041067 38.587187,132.117638 38.090257,134.752305 C38.4253603,134.757638 38.7650437,134.762971 39.109307,134.767543 C39.5894437,132.33021 40.593227,129.540876 42.6756003,127.517257 C44.6595037,125.588876 47.3472003,124.652495 50.664647,124.732495 L50.678387,124.732495 C55.7400503,124.857448 59.5284737,126.491733 61.936027,129.589638 C63.2260603,131.249829 63.9359603,133.100495 64.322207,134.723352 C64.6618903,134.718019 65.0008103,134.712686 65.336677,134.707352 C65.036687,133.340495 64.5290703,131.831162 63.6825337,130.380495 C61.1910137,126.117638 56.824747,123.8784 50.7028137,123.727543" id="Fill-161" fill="#6ED9F9"></path>
                                    <path d="M168.030277,132.912762 L54.4462767,133.167238 L54.3035333,69.5131429 C54.2959,66.1447619 57.02558,63.408 60.4002767,63.400381 L161.76331,63.1733333 C165.138007,63.1657143 167.8799,65.8895238 167.887533,69.2579048 L168.030277,132.912762 Z" id="Fill-163" fill="#4A75FF"></path>
                                    <polygon id="Fill-165" fill="#FFFFFF" points="163.822936 128.716343 58.6348393 128.952533 58.4974393 67.6100571 163.684773 67.3738667"></polygon>
                                    <path d="M179.751565,157.857752 L179.749275,157.857752 C179.750039,157.873752 179.752329,157.88899 179.751565,157.90499 L179.751565,157.857752 Z" id="Fill-167" fill="#394678"></path>
                                    <path d="M179.146318,158.4768 L44.3164617,158.792229 C43.9729617,158.79299 43.719535,158.516419 43.710375,158.201752 L43.705795,158.201752 L43.7088483,159.390324 L43.7088483,159.397181 L43.7088483,159.407086 L43.7096117,159.407086 C43.717245,159.723276 43.9744883,160.00061 44.319515,159.999848 L179.149372,159.685181 C179.518062,159.684419 179.782175,159.366705 179.753932,159.028419 L179.751642,157.925181 C179.723398,158.221562 179.476842,158.476038 179.146318,158.4768" id="Fill-169" fill="#1E41D3"></path>
                                    <path d="M171.517412,154.715657 C171.608249,154.95261 171.434209,155.205562 171.180782,155.206324 L161.938342,155.233752 C161.781096,155.234514 161.641406,155.133181 161.592552,154.983848 L160.516252,151.666514 C160.488772,151.579657 160.494879,151.492038 160.527702,151.415848 L160.516252,151.3808 C160.439919,151.147657 160.613959,150.909181 160.858989,150.908419 L169.909069,150.88099 C170.059446,150.880229 170.194556,150.972419 170.248752,151.11261 L171.517412,154.429943 C171.552526,154.522895 171.546419,154.617371 171.511306,154.699657 L171.517412,154.715657 Z M157.522459,154.781943 C157.591922,155.013562 157.418646,155.246705 157.176669,155.247467 L147.917436,155.274133 C147.749502,155.274895 147.603706,155.161371 147.564012,154.998324 L146.757169,151.683276 C146.738849,151.607086 146.748009,151.533181 146.773962,151.466895 L146.756406,151.397562 C146.701446,151.170514 146.873196,150.951848 147.106776,150.951086 L156.174412,150.922133 C156.334712,150.922133 156.475929,151.026514 156.521729,151.179657 L157.521696,154.496229 C157.546886,154.580038 157.539252,154.66461 157.508719,154.737752 L157.522459,154.781943 Z M146.188486,149.345752 L145.381642,146.030705 C145.363322,145.954514 145.371719,145.879848 145.397672,145.813562 L145.380879,145.74499 C145.325156,145.517943 145.497669,145.299276 145.732012,145.297752 L153.297409,145.27261 L154.740109,145.2688 L167.746546,145.225371 C167.896922,145.22461 168.032032,145.317562 168.085466,145.458514 L169.354126,148.775086 C169.390002,148.868038 169.383132,148.962514 169.348019,149.0448 L169.354889,149.0608 C169.444962,149.29699 169.270922,149.550705 169.018259,149.551467 L155.958389,149.591848 L154.479049,149.596419 L146.541146,149.621562 C146.373976,149.622324 146.228179,149.508038 146.188486,149.345752 L146.188486,149.345752 Z M143.522926,154.849752 C143.572542,155.074514 143.401556,155.287848 143.170266,155.28861 L133.588906,155.3168 L129.576826,155.32899 L119.545862,155.357943 L115.533782,155.369371 L105.503582,155.399086 L101.491502,155.411276 L91.460539,155.440229 L77.8449623,155.48061 C77.6213057,155.481371 77.4510823,155.28099 77.4861957,155.0608 L77.5045157,154.954133 C77.4839057,154.899276 77.4762723,154.838324 77.4861957,154.775086 L78.025109,151.465371 C78.054879,151.291657 78.2052557,151.162895 78.3815857,151.162133 L91.790299,151.12099 L101.586156,151.090514 L105.505109,151.079086 L115.300966,151.049371 L119.219156,151.036419 L129.015012,151.006705 L132.933966,150.994514 L142.437466,150.9648 C142.608452,150.9648 142.755776,151.082133 142.792416,151.24899 L143.522162,154.564038 C143.538192,154.636419 143.529796,154.705752 143.505369,154.76899 L143.522926,154.849752 Z M74.0779123,151.889752 L73.461139,155.199467 C73.429079,155.369371 73.280229,155.493562 73.1054257,155.494324 L63.838559,155.521752 C63.602689,155.522514 63.4294123,155.303086 63.4851357,155.074514 L63.5011657,155.007467 C63.474449,154.941181 63.465289,154.865752 63.4851357,154.789562 L64.2935057,151.48061 C64.3324357,151.319086 64.477469,151.205562 64.6438757,151.2048 L73.719909,151.17661 C73.946619,151.175848 74.118369,151.381562 74.077149,151.604038 L74.058829,151.699276 C74.0809657,151.757943 74.0901257,151.822705 74.0779123,151.889752 L74.0779123,151.889752 Z M60.3203557,151.959848 L59.434889,155.268038 C59.3921423,155.425752 59.2501623,155.535467 59.0860457,155.535467 L49.832919,155.562895 C49.5871257,155.563657 49.411559,155.323657 49.4878923,155.089752 L49.4978157,155.05699 C49.4649923,154.9808 49.4588857,154.891657 49.487129,154.804038 L50.5649557,151.49661 C50.6130457,151.348038 50.751209,151.247467 50.9076923,151.246705 L59.968459,151.219276 C60.2073823,151.218514 60.3814223,151.444038 60.3195923,151.674133 L60.305089,151.730514 C60.3333323,151.80061 60.341729,151.879086 60.3203557,151.959848 L60.3203557,151.959848 Z M55.0045023,137.874514 L56.0815657,134.567086 C56.130419,134.418514 56.2693457,134.318705 56.425829,134.317943 L64.5018957,134.287467 C64.7400557,134.286705 64.914859,134.511467 64.8537923,134.741562 L64.8377623,134.797943 C64.866769,134.868038 64.8751657,134.947276 64.8537923,135.027276 L63.9675623,138.335467 C63.9263423,138.493181 63.7828357,138.602895 63.6194823,138.603657 L55.3502923,138.633371 C55.1037357,138.634133 54.9289323,138.394133 55.0052657,138.160229 L55.0159523,138.128229 C54.9823657,138.051276 54.9754957,137.962133 55.0045023,137.874514 L55.0045023,137.874514 Z M89.6064023,134.59299 L89.5926623,134.732419 C89.6064023,134.778133 89.6132723,134.827657 89.6071657,134.878705 L89.259849,138.189181 C89.241529,138.3728 89.0865723,138.512229 88.9018457,138.512229 L80.6074657,138.541943 C80.383809,138.542705 80.2128223,138.343848 80.248699,138.123657 L80.2662557,138.01699 C80.246409,137.961371 80.2380123,137.901181 80.248699,137.837943 L80.7883757,134.528229 C80.816619,134.35299 80.9669957,134.22499 81.1433257,134.224229 L89.2453457,134.193752 C89.461369,134.19299 89.6300657,134.379657 89.6064023,134.59299 L89.6064023,134.59299 Z M101.976982,134.517562 L101.971639,134.766705 C101.972402,134.779657 101.977746,134.790324 101.977746,134.803276 L101.899886,138.114514 C101.895306,138.310324 101.735006,138.467276 101.538829,138.468038 L93.2391057,138.497752 C93.0276623,138.498514 92.859729,138.317943 92.8772857,138.106133 L92.8902623,137.946895 C92.8788123,137.906514 92.8727057,137.865371 92.8765223,137.820419 L93.1467423,134.509943 C93.1627723,134.322514 93.3184923,134.178514 93.5062723,134.178514 L101.613636,134.148038 C101.817446,134.147276 101.981562,134.314133 101.976982,134.517562 L101.976982,134.517562 Z M142.980196,133.99261 L151.063132,133.962133 C151.223432,133.961371 151.365412,134.065752 151.411212,134.219657 L152.410416,137.535467 C152.436369,137.620038 152.427972,137.703848 152.398202,137.77699 L152.411179,137.821181 C152.481406,138.052038 152.308129,138.285943 152.066152,138.286705 L143.790856,138.316419 C143.622922,138.317181 143.477126,138.202133 143.437432,138.039848 L142.629826,134.7248 C142.612269,134.64861 142.620666,134.573943 142.646619,134.508419 L142.629826,134.439086 C142.574102,134.212038 142.746616,133.993371 142.980196,133.99261 L142.980196,133.99261 Z M163.759656,134.148038 L165.028316,137.46461 C165.064192,137.557562 165.057322,137.652038 165.022972,137.734324 L165.029079,137.750324 C165.119152,137.987276 164.945876,138.240229 164.692449,138.24099 L156.433946,138.270705 C156.275936,138.271467 156.137009,138.170133 156.088156,138.0208 L155.011856,134.703467 C154.983612,134.61661 154.990482,134.52899 155.022542,134.4528 L155.011092,134.418514 C154.935522,134.185371 155.108799,133.946133 155.353829,133.945371 L163.419972,133.914895 C163.570349,133.914895 163.706222,134.007086 163.759656,134.148038 L163.759656,134.148038 Z M138.614692,143.991086 C138.442942,143.991848 138.294092,143.870705 138.259742,143.701562 L137.587246,140.385752 C137.572742,140.317181 137.581902,140.250133 137.604039,140.189943 L137.586482,140.100038 C137.540682,139.8768 137.711669,139.668038 137.940669,139.667276 L146.357946,139.638324 C146.523589,139.637562 146.667859,139.748038 146.709842,139.908038 L147.574699,143.223848 C147.594546,143.303086 147.586149,143.379276 147.558669,143.447848 L147.575462,143.509562 C147.635002,143.738133 147.461726,143.961371 147.225856,143.962133 L138.614692,143.991086 Z M91.9544157,149.40061 L91.9673923,149.241371 C91.9559423,149.201752 91.950599,149.159848 91.9536523,149.114895 L92.2238723,145.805181 C92.2399023,145.617752 92.3963857,145.47299 92.5841657,145.47299 L101.347232,145.444038 C101.551042,145.443276 101.715922,145.610895 101.710579,145.813562 L101.704472,146.064229 C101.705999,146.075657 101.711342,146.087086 101.711342,146.099276 L101.632719,149.411276 C101.628139,149.607086 101.467839,149.763276 101.272426,149.764038 L92.3162357,149.792229 C92.1047923,149.79299 91.936859,149.612419 91.9544157,149.40061 L91.9544157,149.40061 Z M78.7655423,149.834895 C78.5418857,149.835657 78.3716623,149.635276 78.4067757,149.415086 L78.4250957,149.308419 C78.405249,149.253562 78.3968523,149.19261 78.4067757,149.129371 L78.9472157,145.819657 C78.975459,145.645943 79.1258357,145.517181 79.3021657,145.516419 L88.0606523,145.488229 C88.2759123,145.487467 88.444609,145.673371 88.4224723,145.886705 L88.4072057,146.026133 C88.421709,146.071848 88.4278157,146.121371 88.4224723,146.172419 L88.0751557,149.482895 C88.0560723,149.666514 87.9011157,149.805943 87.716389,149.806705 L78.7655423,149.834895 Z M82.5990023,140.562514 L82.1165757,143.872229 C82.0913857,144.049752 81.938719,144.1808 81.7593357,144.181562 L73.1420657,144.210514 C72.9123023,144.211276 72.7405523,144.00099 72.785589,143.777752 L72.803909,143.690895 C72.7794823,143.629181 72.7710857,143.561371 72.785589,143.492038 L73.4596123,140.182324 C73.4939623,140.014705 73.6412857,139.893562 73.8130357,139.8928 L82.238709,139.863848 C82.4593123,139.863086 82.630299,140.058895 82.598239,140.2768 L82.5814457,140.391848 C82.5997657,140.445181 82.607399,140.503086 82.5990023,140.562514 L82.5990023,140.562514 Z M85.870649,143.476038 L86.275979,140.165562 C86.2973523,139.98499 86.4515457,139.84861 86.6339823,139.847848 L95.067289,139.818133 C95.2764423,139.817371 95.4436123,139.994133 95.4298723,140.202895 L95.4184223,140.378133 C95.426819,140.413943 95.4329257,140.449752 95.4298723,140.48861 L95.2176657,143.799848 C95.2054523,143.989562 95.0474423,144.13661 94.8573723,144.137371 L86.2317057,144.166324 C86.0141557,144.167086 85.845459,143.977371 85.8714123,143.76099 L85.886679,143.633752 C85.870649,143.58499 85.863779,143.530895 85.870649,143.476038 L85.870649,143.476038 Z M114.342982,134.442133 L114.533816,137.754133 C114.536106,137.789181 114.531526,137.822705 114.523892,137.855467 L114.534579,138.039848 C114.546029,138.247086 114.381149,138.421562 114.174286,138.422324 L105.873799,138.452038 C105.673042,138.4528 105.509689,138.290514 105.509689,138.090895 L105.509689,137.80899 C105.509689,137.807467 105.508926,137.806705 105.508926,137.805181 L105.510452,134.493181 C105.510452,134.293562 105.671516,134.132038 105.871509,134.131276 L113.979636,134.1008 C114.171996,134.100038 114.331532,134.250133 114.342982,134.442133 L114.342982,134.442133 Z M126.702876,134.366705 L127.163929,137.680229 C127.171562,137.738133 127.164692,137.793752 127.147136,137.8448 L127.164692,137.965943 C127.194462,138.183086 127.026529,138.37661 126.806689,138.377371 L118.510019,138.407086 C118.321476,138.407848 118.163466,138.262324 118.148199,138.074133 L117.879506,134.761371 C117.876452,134.718705 117.881796,134.678324 117.892482,134.639467 L117.878742,134.475657 C117.861949,134.265371 118.027592,134.086324 118.238272,134.085562 L126.342582,134.055086 C126.525019,134.054324 126.678449,134.187657 126.702876,134.366705 L126.702876,134.366705 Z M112.056036,143.732038 L111.922452,140.419276 C111.921689,140.40099 111.929322,140.384229 111.930849,140.366705 L111.921689,140.133562 C111.913292,139.929371 112.077409,139.758705 112.281982,139.757943 L120.716816,139.728229 C120.903832,139.727467 121.060316,139.869181 121.079399,140.054324 L121.405342,143.367086 C121.409159,143.415086 121.403816,143.461562 121.390839,143.504229 L121.405342,143.6528 C121.425952,143.865371 121.259546,144.04899 121.046576,144.049752 L112.418619,144.078705 C112.223969,144.079467 112.063669,143.926324 112.056036,143.732038 L112.056036,143.732038 Z M98.9610523,143.746514 L98.969449,143.550705 C98.962579,143.521752 98.9587623,143.492038 98.960289,143.461562 L99.0961623,140.149562 C99.104559,139.956038 99.2633323,139.803657 99.457219,139.802895 L107.892816,139.773181 C108.091282,139.772419 108.253109,139.930895 108.256926,140.128229 L108.313412,143.440229 C108.313412,143.447848 108.309596,143.453943 108.308832,143.461562 L108.313412,143.725943 C108.317229,143.927848 108.154639,144.093181 107.953119,144.093943 L99.324399,144.122895 C99.1175357,144.123657 98.9526557,143.952229 98.9610523,143.746514 L98.9610523,143.746514 Z M134.491929,143.295467 C134.503379,143.360229 134.494982,143.423467 134.474372,143.48061 L134.491929,143.581181 C134.532386,143.802133 134.362162,144.0048 134.136979,144.005562 L125.515892,144.034514 C125.331929,144.035276 125.177736,143.898895 125.155599,143.7168 L124.752559,140.403276 C124.746452,140.349181 124.751796,140.295848 124.767826,140.247848 L124.751796,140.117562 C124.725842,139.903467 124.893776,139.713752 125.109799,139.71299 L133.538526,139.683276 C133.714856,139.682514 133.865996,139.808229 133.896529,139.980419 L134.491929,143.295467 Z M139.059716,134.292038 L139.789462,137.607086 C139.804729,137.679467 139.796332,137.7488 139.771906,137.812038 L139.790226,137.8928 C139.839079,138.117562 139.668092,138.330895 139.437566,138.331657 L131.149292,138.361371 C130.971436,138.362133 130.818769,138.233371 130.790526,138.058133 L130.252376,134.743086 C130.243216,134.681371 130.250086,134.621943 130.269932,134.567086 L130.251612,134.457371 C130.217262,134.238705 130.385959,134.039086 130.608089,134.038324 L138.704766,134.007848 C138.874226,134.007086 139.023076,134.125943 139.059716,134.292038 L139.059716,134.292038 Z M68.7834323,134.270705 L76.875529,134.24099 C77.102239,134.239467 77.273989,134.445943 77.2320057,134.668419 L77.214449,134.762895 C77.2365857,134.821562 77.2457457,134.887086 77.232769,134.954133 L76.616759,138.262324 C76.584699,138.433752 76.4350857,138.557181 76.261809,138.557943 L67.9773523,138.587657 C67.743009,138.588419 67.568969,138.36899 67.6246923,138.140419 L67.6414857,138.073371 C67.614769,138.007086 67.605609,137.932419 67.6246923,137.854705 L68.4330623,134.546514 C68.4727557,134.38499 68.6170257,134.271467 68.7834323,134.270705 L68.7834323,134.270705 Z M53.164869,143.517943 L54.2426957,140.210514 C54.291549,140.061943 54.4297123,139.961371 54.5861957,139.96061 L59.6188523,139.942324 L64.914859,139.924038 L69.755919,139.907276 C69.9879723,139.906514 70.161249,140.121371 70.1101057,140.348419 L70.0933123,140.423848 C70.1185023,140.487848 70.1276623,140.560229 70.110869,140.634133 L69.3673823,143.941562 C69.329979,144.106895 69.183419,144.223467 69.0154857,144.224229 L63.872909,144.241752 L58.4417923,144.259276 L53.5114223,144.2768 C53.2648657,144.277562 53.089299,144.0368 53.1656323,143.803657 L53.176319,143.770895 C53.1434957,143.693943 53.1366257,143.605562 53.164869,143.517943 L53.164869,143.517943 Z M51.325999,149.16061 L52.4038257,145.853181 C52.452679,145.705371 52.5908423,145.604038 52.7465623,145.604038 L65.7407857,145.56061 L67.1445557,145.5568 L74.7717823,145.530895 C74.9984923,145.530133 75.1702423,145.73661 75.1290223,145.959086 L75.1107023,146.053562 C75.132839,146.112229 75.141999,146.17699 75.1297857,146.2448 L74.5130123,149.553752 C74.4809523,149.724419 74.3321023,149.84861 74.1580623,149.84861 L66.1934423,149.874514 L64.7553223,149.878324 L51.6725523,149.919467 C51.4259957,149.920229 51.250429,149.68099 51.3267623,149.446324 L51.337449,149.414324 C51.3046257,149.337371 51.2977557,149.24899 51.325999,149.16061 L51.325999,149.16061 Z M115.185702,149.053181 C115.187229,149.088229 115.182649,149.121752 115.175016,149.153752 L115.185702,149.338895 C115.197916,149.546133 115.033799,149.72061 114.825409,149.721371 L105.869219,149.749562 C105.668462,149.749562 105.505109,149.5888 105.505109,149.388419 L105.505872,149.106514 C105.505872,149.10499 105.505109,149.103467 105.505109,149.102705 L105.505872,145.789943 C105.505872,145.591086 105.667699,145.429562 105.866929,145.429562 L114.632286,145.399848 C114.823882,145.399086 114.982656,145.549181 114.994106,145.741181 L115.185702,149.053181 Z M128.734106,148.982324 C128.741739,149.040229 128.734869,149.095086 128.718076,149.146133 L128.734106,149.268038 C128.764639,149.484419 128.595942,149.678705 128.376866,149.679467 L119.424492,149.706895 C119.235186,149.707657 119.077176,149.562133 119.061909,149.374705 L118.793979,146.061943 C118.790926,146.019276 118.797032,145.978895 118.806192,145.940038 L118.793979,145.776229 C118.776422,145.565943 118.942066,145.386133 119.152746,145.385371 L127.913522,145.356419 C128.094432,145.356419 128.248626,145.489752 128.273816,145.668038 L128.734106,148.982324 Z M142.277929,148.911467 C142.293959,148.983848 142.284799,149.053181 142.261136,149.116419 L142.278692,149.197181 C142.328309,149.422705 142.156559,149.635276 141.926032,149.636038 L132.982056,149.664229 C132.803436,149.66499 132.651532,149.536229 132.623289,149.36099 L132.085902,146.046705 C132.075216,145.984229 132.083612,145.9248 132.102696,145.869943 L132.085139,145.76099 C132.049262,145.541562 132.218722,145.341943 132.441616,145.341181 L141.193232,145.31299 C141.363456,145.312229 141.511542,145.430324 141.548182,145.596419 L142.277929,148.911467 Z M166.854972,143.89661 L161.991012,143.91261 L156.601879,143.930895 L151.489072,143.947657 C151.326482,143.948419 151.182976,143.84099 151.139466,143.684038 L150.202092,140.368229 C150.179192,140.287467 150.187589,140.205943 150.216596,140.134324 L150.201329,140.082514 C150.136446,139.852419 150.309722,139.623848 150.548646,139.623086 L155.325586,139.606324 L160.579609,139.588038 L165.583259,139.570514 C165.733636,139.569752 165.868746,139.661943 165.922942,139.802895 L167.191602,143.120229 C167.226716,143.212419 167.220609,143.307657 167.185496,143.389181 L167.191602,143.405943 C167.282439,143.642133 167.108399,143.895848 166.854972,143.89661 L166.854972,143.89661 Z M53.7274457,132.843657 L43.7491523,157.96061 C43.7178557,158.04061 43.7079323,158.122133 43.7102223,158.201371 C43.7193823,158.516038 43.972809,158.793371 44.316309,158.79261 L179.146166,158.477181 C179.476689,158.476419 179.723246,158.221943 179.751489,157.925562 C179.752252,157.918705 179.750726,157.911086 179.751489,157.90499 C179.752252,157.88899 179.749962,157.873752 179.749199,157.857752 C179.747672,157.779276 179.735459,157.697752 179.699582,157.619276 L168.348052,132.586895 L53.7274457,132.843657 Z" id="Fill-171" fill="#4A75FF"></path>
                                    <path d="M59.0852823,155.249829 L49.8321557,155.277257 C49.6787257,155.277257 49.5527757,155.184305 49.4978157,155.057067 L49.4878923,155.089829 C49.411559,155.323733 49.5871257,155.563733 49.832919,155.562971 L59.0860457,155.535543 C59.2501623,155.535543 59.3921423,155.425067 59.434889,155.267352 L60.3203557,151.959924 C60.341729,151.879162 60.3333323,151.800686 60.305089,151.73059 L59.4341257,154.981638 C59.3921423,155.139352 59.249399,155.249829 59.0852823,155.249829" id="Fill-173" fill="#1E41D3"></path>
                                    <path d="M73.1055783,155.208914 L63.837185,155.236343 C63.681465,155.236343 63.5539883,155.138819 63.5013183,155.00701 L63.484525,155.074057 C63.429565,155.302629 63.6028417,155.522057 63.8379483,155.521295 L73.1055783,155.494629 C73.2803817,155.493867 73.4292317,155.369676 73.4612917,155.19901 L74.0773017,151.890057 C74.0902783,151.82301 74.0811183,151.758248 74.0589817,151.699581 L73.4605283,154.913295 C73.4284683,155.083962 73.2796183,155.208152 73.1055783,155.208914" id="Fill-175" fill="#1E41D3"></path>
                                    <path d="M143.169731,155.002819 L133.588371,155.03101 L129.575528,155.0432 L119.546091,155.072152 L115.533248,155.083581 L105.503048,155.114057 L101.490205,155.125486 L91.460768,155.154438 L77.844428,155.194819 C77.6848913,155.195581 77.553598,155.092724 77.5047447,154.954819 L77.4864247,155.060724 C77.450548,155.280914 77.6215347,155.481295 77.8451913,155.480533 L91.460768,155.440152 L101.490968,155.4112 L105.503048,155.399771 L115.534011,155.369295 L119.546091,155.357867 L129.576291,155.328914 L133.588371,155.316724 L143.170495,155.288533 C143.401785,155.287771 143.572008,155.074438 143.523155,154.849676 L143.504835,154.768914 C143.453691,154.90301 143.326215,155.002819 143.169731,155.002819" id="Fill-177" fill="#1E41D3"></path>
                                    <path d="M157.175829,154.961905 L147.916596,154.988571 C147.748663,154.989333 147.602866,154.87581 147.563173,154.712762 L146.773886,151.467048 C146.747933,151.533333 146.738773,151.607238 146.757856,151.682667 L147.563936,154.998476 C147.603629,155.161524 147.749426,155.275048 147.917359,155.274286 L157.176593,155.247619 C157.418569,155.246857 157.591846,155.012952 157.522383,154.782095 L157.509406,154.737905 C157.455209,154.866667 157.330023,154.961143 157.175829,154.961905" id="Fill-179" fill="#1E41D3"></path>
                                    <path d="M171.179714,154.92099 L161.938037,154.947657 C161.78079,154.948419 161.6411,154.847086 161.591484,154.697752 L160.527397,151.415467 C160.494574,151.491657 160.488467,151.579276 160.515947,151.666895 L161.592247,154.983467 C161.6411,155.1328 161.78079,155.234133 161.9388,155.233371 L171.180477,155.205943 C171.433904,155.205181 171.608707,154.952229 171.517107,154.715276 L171.511764,154.699276 C171.457567,154.825752 171.333907,154.920229 171.179714,154.92099" id="Fill-181" fill="#1E41D3"></path>
                                    <path d="M51.6726287,149.919467 L64.7553987,149.878324 L66.1935187,149.873752 L74.1581387,149.84861 C74.3321787,149.84861 74.4810287,149.724419 74.5130887,149.553752 L75.1290987,146.2448 C75.1420753,146.17699 75.1329153,146.112229 75.1107787,146.053562 L74.5123253,149.268038 C74.4802653,149.438705 74.3314153,149.562895 74.1573753,149.562895 L66.1935187,149.588038 L64.7546353,149.59261 L51.6718653,149.633752 C51.517672,149.634514 51.391722,149.541562 51.3375253,149.414324 L51.3268387,149.446324 C51.2505053,149.68099 51.426072,149.920229 51.6726287,149.919467" id="Fill-183" fill="#1E41D3"></path>
                                    <path d="M88.0748503,149.482743 L88.422167,146.172267 C88.4282737,146.121219 88.4214037,146.071695 88.4076637,146.025981 L88.0748503,149.197029 C88.055767,149.380648 87.900047,149.520076 87.7153203,149.520838 L78.7660003,149.549029 C78.6057003,149.54979 78.4751703,149.446933 78.4247903,149.308267 L78.4072337,149.414933 C78.371357,149.635124 78.5423437,149.835505 78.7660003,149.834743 L87.7160837,149.806552 C87.9008103,149.80579 88.0565303,149.666362 88.0748503,149.482743" id="Fill-185" fill="#1E41D3"></path>
                                    <path d="M92.3163883,149.792229 L101.271815,149.764038 C101.467992,149.763276 101.628292,149.607086 101.632872,149.411276 L101.711495,146.099276 C101.711495,146.087086 101.706152,146.075657 101.704625,146.063467 L101.632108,149.125562 C101.627528,149.321371 101.467228,149.477562 101.271052,149.478324 L92.315625,149.506514 C92.1476917,149.506514 92.0102917,149.393752 91.967545,149.241371 L91.953805,149.40061 C91.9370117,149.612419 92.104945,149.79299 92.3163883,149.792229" id="Fill-187" fill="#1E41D3"></path>
                                    <path d="M114.825027,149.435886 L105.868837,149.464076 C105.669607,149.464076 105.507781,149.304076 105.506254,149.105981 L105.505491,149.388648 C105.505491,149.588267 105.668844,149.74979 105.869601,149.74979 L114.825791,149.7216 C115.033417,149.720838 115.197534,149.546362 115.186084,149.339124 L115.175397,149.153981 C115.138757,149.313981 114.998304,149.435124 114.825027,149.435886" id="Fill-189" fill="#1E41D3"></path>
                                    <path d="M128.376408,149.393448 L119.423271,149.420876 C119.233964,149.421638 119.076718,149.277638 119.061451,149.089448 L118.806498,145.940495 C118.796574,145.979352 118.790468,146.018971 118.793521,146.061638 L119.062214,149.375162 C119.076718,149.56259 119.234728,149.707352 119.424034,149.70659 L128.377171,149.679162 C128.596248,149.6784 128.764944,149.484114 128.734411,149.267733 L128.717618,149.14659 C128.670291,149.287543 128.537471,149.392686 128.376408,149.393448" id="Fill-191" fill="#1E41D3"></path>
                                    <path d="M141.925574,149.35101 L132.980834,149.378438 C132.802978,149.3792 132.651074,149.250438 132.622068,149.0752 L132.103001,145.869867 C132.083154,145.924724 132.075521,145.984152 132.085444,146.046629 L132.622831,149.360914 C132.651838,149.536152 132.803741,149.664914 132.981598,149.664152 L141.926338,149.635962 C142.156864,149.6352 142.327851,149.422629 142.278998,149.197105 L142.260678,149.116343 C142.209534,149.250438 142.082058,149.350248 141.925574,149.35101" id="Fill-193" fill="#1E41D3"></path>
                                    <path d="M155.958542,149.592076 L169.017648,149.550933 C169.270312,149.550171 169.445115,149.296457 169.355042,149.061029 L169.348172,149.044267 C169.294738,149.170743 169.171078,149.265219 169.016885,149.265219 L155.957778,149.306362 L154.479202,149.311695 L146.540535,149.336076 C146.373365,149.336838 146.227568,149.222552 146.187875,149.060267 L145.397825,145.81379 C145.371872,145.880076 145.363475,145.954743 145.381795,146.030171 L146.188638,149.345981 C146.228332,149.508267 146.373365,149.622552 146.541298,149.62179 L154.479202,149.596648 L155.958542,149.592076 Z" id="Fill-195" fill="#1E41D3"></path>
                                    <path d="M53.5116513,144.276648 L58.4420213,144.259886 L63.873138,144.2416 L69.0157147,144.224838 C69.183648,144.224076 69.330208,144.106743 69.366848,143.942171 L70.111098,140.633981 C70.1278913,140.560076 70.1187313,140.487695 70.0935413,140.423695 L69.366848,143.656457 C69.330208,143.821029 69.183648,143.938362 69.0149513,143.939124 L63.8723747,143.955886 L58.441258,143.974933 L53.510888,143.990933 C53.357458,143.990933 53.231508,143.897981 53.176548,143.770743 L53.1658613,143.803505 C53.089528,144.03741 53.2650947,144.27741 53.5116513,144.276648" id="Fill-197" fill="#1E41D3"></path>
                                    <path d="M81.7586487,143.895695 L73.1413787,143.924648 C72.984132,143.92541 72.8551287,143.8256 72.8039853,143.690743 L72.7856653,143.7776 C72.7406287,144.0016 72.9123787,144.211124 73.142142,144.210362 L81.759412,144.18141 C81.9387953,144.180648 82.091462,144.0496 82.116652,143.872076 L82.5990787,140.562362 C82.6074753,140.502933 82.599842,140.445029 82.581522,140.391695 L82.1158887,143.586362 C82.0906987,143.763886 81.938032,143.895695 81.7586487,143.895695" id="Fill-199" fill="#1E41D3"></path>
                                    <path d="M86.2320873,144.166552 L94.857754,144.1376 C95.047824,144.136838 95.205834,143.98979 95.217284,143.800076 L95.430254,140.488838 C95.4333073,140.449981 95.4272007,140.41341 95.4180407,140.3776 L95.217284,143.514362 C95.2050707,143.704076 95.047824,143.851886 94.8569907,143.851886 L86.231324,143.880838 C86.0694973,143.8816 85.9343873,143.776457 85.8870607,143.633981 L85.8710307,143.761219 C85.8450773,143.9776 86.0145373,144.167314 86.2320873,144.166552" id="Fill-201" fill="#1E41D3"></path>
                                    <path d="M99.3243227,144.12259 L107.953043,144.093638 C108.154563,144.092876 108.317153,143.927543 108.313336,143.725638 L108.309519,143.461257 C108.301123,143.653257 108.146929,143.807162 107.952279,143.807924 L99.3235593,143.836876 C99.148756,143.837638 99.0037227,143.71421 98.9693727,143.5504 L98.960976,143.74621 C98.9533427,143.951924 99.1174593,144.123352 99.3243227,144.12259" id="Fill-203" fill="#1E41D3"></path>
                                    <path d="M112.418772,144.078705 L121.046728,144.049752 C121.259698,144.04899 121.426105,143.865371 121.404732,143.6528 L121.390992,143.504229 C121.346718,143.652038 121.211608,143.764038 121.045965,143.764038 L112.418008,143.79299 C112.223358,143.793752 112.063058,143.64061 112.054662,143.446324 L111.931002,140.366705 C111.928712,140.384229 111.921842,140.40099 111.922605,140.419276 L112.055425,143.732038 C112.063822,143.926324 112.224122,144.079467 112.418772,144.078705" id="Fill-205" fill="#1E41D3"></path>
                                    <path d="M134.136445,143.720076 L125.515358,143.749029 C125.332158,143.74979 125.177201,143.612648 125.154301,143.431314 L124.768055,140.247314 C124.752025,140.296076 124.745918,140.348648 124.752788,140.402743 L125.155065,143.717029 C125.177965,143.898362 125.332158,144.035505 125.516121,144.034743 L134.137208,144.00579 C134.362391,144.005029 134.532615,143.8016 134.492158,143.580648 L134.473838,143.480838 C134.424985,143.617219 134.295218,143.720076 134.136445,143.720076" id="Fill-207" fill="#1E41D3"></path>
                                    <path d="M147.57531,143.509486 L147.55928,143.447771 C147.50661,143.578819 147.38066,143.676343 147.22494,143.676343 L138.615303,143.705295 C138.442026,143.706057 138.293176,143.584914 138.258826,143.415771 L137.603886,140.189867 C137.58175,140.250057 137.57259,140.317105 137.587093,140.385676 L138.25959,143.701486 C138.29394,143.870629 138.44279,143.991771 138.615303,143.99101 L147.225703,143.962057 C147.462336,143.961295 147.63485,143.738057 147.57531,143.509486" id="Fill-209" fill="#1E41D3"></path>
                                    <path d="M167.191602,143.406095 L167.185496,143.389333 C167.132062,143.51581 167.008402,143.610286 166.854209,143.611048 L161.990249,143.627048 L156.601116,143.644571 L151.488309,143.662095 C151.325719,143.662857 151.182212,143.554667 151.138702,143.398476 L150.216596,140.134476 C150.187589,140.206095 150.179192,140.286857 150.202092,140.368381 L151.139466,143.68419 C151.182976,143.840381 151.326482,143.948571 151.489072,143.94781 L156.601879,143.930286 L161.991012,143.912762 L166.854972,143.896762 C167.108399,143.896 167.282439,143.642286 167.191602,143.406095" id="Fill-211" fill="#1E41D3"></path>
                                    <path d="M55.3505977,138.633067 L63.6197877,138.603352 C63.783141,138.60259 63.9258843,138.492876 63.9678677,138.335162 L64.8533343,135.027733 C64.875471,134.946971 64.8670743,134.868495 64.8380677,134.7984 L63.9671043,138.049448 C63.925121,138.207162 63.7823777,138.317638 63.6190243,138.317638 L55.3498343,138.347352 C55.1964043,138.348114 55.0704543,138.255162 55.0162577,138.127924 L55.005571,138.159924 C54.9284743,138.39459 55.104041,138.633829 55.3505977,138.633067" id="Fill-213" fill="#1E41D3"></path>
                                    <path d="M76.615843,137.977524 C76.583783,138.14819 76.434933,138.272381 76.260893,138.272381 L67.977963,138.302095 C67.8214797,138.302857 67.694003,138.205333 67.641333,138.073524 L67.625303,138.140571 C67.5688163,138.369143 67.7428563,138.588571 67.977963,138.58781 L76.2616563,138.558095 C76.4356963,138.557333 76.5845463,138.433905 76.6166063,138.262476 L77.2333797,134.953524 C77.245593,134.886476 77.236433,134.820952 77.2142963,134.762286 L76.615843,137.977524 Z" id="Fill-215" fill="#1E41D3"></path>
                                    <path d="M89.260078,137.903086 C89.2409947,138.086705 89.0852747,138.226895 88.900548,138.226895 L80.6069313,138.25661 C80.4473947,138.257371 80.3161013,138.155276 80.2664847,138.01661 L80.2481647,138.123276 C80.212288,138.343467 80.384038,138.543086 80.6076947,138.542324 L88.9013113,138.51261 C89.086038,138.51261 89.241758,138.372419 89.260078,138.1888 L89.6073947,134.878324 C89.6135013,134.828038 89.6066313,134.777752 89.5928913,134.7328 L89.260078,137.903086 Z" id="Fill-217" fill="#1E41D3"></path>
                                    <path d="M101.899046,137.828724 C101.894466,138.024533 101.734166,138.181486 101.537989,138.182248 L93.238266,138.211962 C93.071096,138.211962 92.9329327,138.098438 92.890186,137.946819 L92.8772093,138.106057 C92.8596527,138.317867 93.027586,138.498438 93.2390293,138.497676 L101.538753,138.467962 C101.734929,138.4672 101.895229,138.310248 101.899809,138.114438 L101.978433,134.8032 C101.978433,134.790248 101.972326,134.779581 101.971563,134.766629 L101.899046,137.828724 Z" id="Fill-219" fill="#1E41D3"></path>
                                    <path d="M114.173522,138.136762 L105.873036,138.166476 C105.673806,138.167238 105.511979,138.006476 105.509689,137.808381 L105.509689,138.090286 C105.509689,138.290667 105.673042,138.452952 105.873799,138.45219 L114.174286,138.422476 C114.381149,138.421714 114.546029,138.247238 114.534579,138.04 L114.523892,137.855619 C114.487252,138.014857 114.346036,138.136 114.173522,138.136762" id="Fill-221" fill="#1E41D3"></path>
                                    <path d="M126.806536,138.091352 L118.509866,138.121067 C118.32056,138.121829 118.16255,137.977067 118.147283,137.788876 L117.89233,134.639924 C117.882406,134.678781 117.8763,134.7184 117.880116,134.761067 L118.148046,138.07459 C118.163313,138.262781 118.321323,138.407543 118.509866,138.406781 L126.806536,138.377067 C127.026376,138.376305 127.19431,138.182781 127.16454,137.965638 L127.146983,137.845257 C127.099656,137.985448 126.966836,138.09059 126.806536,138.091352" id="Fill-223" fill="#1E41D3"></path>
                                    <path d="M139.436573,138.045943 L131.149063,138.075657 C130.970443,138.076419 130.81854,137.947657 130.789533,137.772419 L130.269703,134.567086 C130.25062,134.621943 130.242987,134.681371 130.25291,134.743086 L130.790297,138.058133 C130.81854,138.233371 130.971207,138.362133 131.149827,138.361371 L139.437337,138.331657 C139.668627,138.330895 139.83885,138.117562 139.789997,137.8928 L139.771677,137.812038 C139.720533,137.946133 139.59382,138.045181 139.436573,138.045943" id="Fill-225" fill="#1E41D3"></path>
                                    <path d="M152.065084,138.00061 L143.789787,138.030324 C143.621854,138.031086 143.476057,137.9168 143.436364,137.754514 L142.646314,134.508038 C142.62036,134.574324 142.611964,134.64899 142.630284,134.724419 L143.437127,138.040229 C143.47682,138.202514 143.622617,138.3168 143.79055,138.316038 L152.065847,138.286324 C152.307824,138.285562 152.4811,138.051657 152.410874,137.821562 L152.39866,137.77661 C152.344464,137.905371 152.219277,138.00061 152.065084,138.00061" id="Fill-227" fill="#1E41D3"></path>
                                    <path d="M164.69138,137.9552 L156.43364,137.984914 C156.276394,137.985676 156.13594,137.884343 156.08785,137.73501 L155.022237,134.452724 C154.990177,134.528914 154.983307,134.616533 155.01155,134.70339 L156.08785,138.020724 C156.136704,138.170057 156.276394,138.27139 156.434404,138.270629 L164.692144,138.240914 C164.94557,138.240152 165.11961,137.9872 165.028774,137.750248 L165.02343,137.734248 C164.96847,137.860724 164.84481,137.9552 164.69138,137.9552" id="Fill-229" fill="#1E41D3"></path>
                                    <path d="M59.9686117,151.219352 L50.907845,151.246781 C50.7513617,151.247543 50.6131983,151.348114 50.5651083,151.496686 L49.4872817,154.804114 C49.458275,154.891733 49.465145,154.980876 49.4979683,155.057067 C49.552165,155.184305 49.6788783,155.277257 49.8323083,155.277257 L59.085435,155.249829 C59.2495517,155.249829 59.392295,155.140114 59.4342783,154.981638 L60.3044783,151.73059 L60.319745,151.67421 C60.381575,151.444114 60.2067717,151.21859 59.9686117,151.219352" id="Fill-231" fill="#76ABFF"></path>
                                    <path d="M73.7198327,151.176914 L64.6437993,151.204343 C64.478156,151.205105 64.3323593,151.31939 64.2934293,151.480152 L63.4850593,154.789105 C63.4652127,154.866057 63.4743727,154.940724 63.5010893,155.00701 C63.5545227,155.138819 63.6819993,155.236343 63.8377193,155.236343 L73.1053493,155.208914 C73.2793893,155.208152 73.4282393,155.083962 73.4602993,154.913295 L74.0587527,151.699581 L74.0770727,151.604343 C74.1182927,151.381867 73.9465427,151.176152 73.7198327,151.176914" id="Fill-233" fill="#76ABFF"></path>
                                    <path d="M143.522315,154.56381 L142.792568,151.248762 C142.755928,151.082667 142.608605,150.964571 142.437618,150.964571 L132.934118,150.994286 L129.015165,151.006476 L119.219308,151.03619 L115.300355,151.049143 L105.504498,151.078857 L101.586308,151.090286 L91.7904517,151.120762 L78.3817383,151.161905 C78.2054083,151.162667 78.0542683,151.291429 78.0252617,151.465905 L77.4863483,154.774857 C77.476425,154.838095 77.4840583,154.899048 77.5046683,154.954667 C77.5535217,155.092571 77.684815,155.195429 77.8443517,155.194667 L91.4606917,155.154286 L101.490892,155.125333 L105.502972,155.113905 L115.533172,155.08419 L119.546015,155.072 L129.575452,155.043048 L133.588295,155.030857 L143.169655,155.002667 C143.326138,155.002667 143.453615,154.902857 143.505522,154.769524 C143.529948,154.706286 143.538345,154.63619 143.522315,154.56381" id="Fill-235" fill="#76ABFF"></path>
                                    <path d="M157.521772,154.496152 L156.521805,151.179581 C156.476005,151.026438 156.334789,150.922819 156.174489,150.922819 L147.106852,150.95101 C146.873272,150.951771 146.701522,151.170438 146.756482,151.397486 L146.774039,151.466819 L147.563325,154.712533 C147.603019,154.875581 147.748815,154.989105 147.916749,154.988343 L157.175982,154.961676 C157.330175,154.960914 157.455362,154.866438 157.508795,154.737676 C157.539329,154.664533 157.546962,154.579962 157.521772,154.496152" id="Fill-237" fill="#76ABFF"></path>
                                    <path d="M171.517412,154.429943 L170.248752,151.11261 C170.194556,150.972419 170.059446,150.880229 169.909069,150.88099 L160.858989,150.908419 C160.613959,150.909181 160.439919,151.147657 160.516252,151.3808 L160.527702,151.415848 L161.591789,154.698133 C161.641406,154.847467 161.780332,154.9488 161.937579,154.948038 L171.180019,154.921371 C171.334212,154.92061 171.457872,154.826133 171.511306,154.699657 C171.546419,154.617371 171.552526,154.522895 171.517412,154.429943" id="Fill-239" fill="#76ABFF"></path>
                                    <path d="M51.6718653,149.633752 L64.7546353,149.59261 L66.1935187,149.588038 L74.1573753,149.562895 C74.3314153,149.562895 74.4802653,149.438705 74.5123253,149.268038 L75.1107787,146.053562 L75.1283353,145.959086 C75.1703187,145.73661 74.9985687,145.530133 74.7718587,145.530895 L67.144632,145.556038 L65.740862,145.56061 L52.7466387,145.604038 C52.5909187,145.604038 52.451992,145.705371 52.403902,145.853181 L51.3260753,149.16061 C51.297832,149.24899 51.304702,149.337371 51.3375253,149.414324 C51.391722,149.541562 51.517672,149.634514 51.6718653,149.633752" id="Fill-241" fill="#76ABFF"></path>
                                    <path d="M78.765695,149.548952 L87.7157783,149.520762 C87.900505,149.52 88.0554617,149.380571 88.074545,149.196952 L88.4073583,146.025905 L88.4218617,145.886476 C88.4447617,145.673143 88.276065,145.487238 88.060805,145.488 L79.3023183,145.51619 C79.1259883,145.516952 78.9748483,145.645714 78.946605,145.819429 L78.4069283,149.129143 C78.397005,149.192381 78.4046383,149.253333 78.4252483,149.308952 C78.474865,149.446857 78.605395,149.549714 78.765695,149.548952" id="Fill-243" fill="#76ABFF"></path>
                                    <path d="M92.315625,149.506514 L101.271052,149.478324 C101.467228,149.477562 101.627528,149.321371 101.632108,149.125562 L101.704625,146.063467 L101.710732,145.813562 C101.715312,145.610895 101.551195,145.443276 101.347385,145.444038 L92.5843183,145.47299 C92.395775,145.47299 92.2392917,145.617752 92.224025,145.805181 L91.9530417,149.114895 C91.9499883,149.159848 91.956095,149.201752 91.967545,149.241371 C92.0102917,149.393752 92.1476917,149.506514 92.315625,149.506514" id="Fill-245" fill="#76ABFF"></path>
                                    <path d="M114.63198,145.400152 L105.867387,145.429105 C105.668157,145.429867 105.50633,145.59139 105.50633,145.790248 L105.505567,149.102248 C105.505567,149.10301 105.50633,149.104533 105.50633,149.106057 C105.507857,149.304152 105.669684,149.464152 105.868914,149.464152 L114.825104,149.435962 C114.997617,149.4352 115.138834,149.314057 115.175474,149.154057 C115.183107,149.122057 115.187687,149.088533 115.18616,149.053486 L114.994564,145.740724 C114.983114,145.548724 114.82434,145.39939 114.63198,145.400152" id="Fill-247" fill="#76ABFF"></path>
                                    <path d="M127.913522,145.356267 L119.152746,145.385219 C118.942066,145.385981 118.776422,145.56579 118.793979,145.776076 L118.806192,145.940648 L119.061146,149.088838 C119.077176,149.277029 119.234422,149.42179 119.423729,149.421029 L128.376102,149.3936 C128.537166,149.392838 128.669986,149.287695 128.718076,149.146743 C128.734869,149.094933 128.741739,149.040076 128.734106,148.982171 L128.273816,145.667886 C128.248626,145.4896 128.094432,145.356267 127.913522,145.356267" id="Fill-249" fill="#76ABFF"></path>
                                    <path d="M141.193538,145.313067 L132.441158,145.341257 C132.218264,145.342019 132.049568,145.541638 132.084681,145.761067 L132.103001,145.869257 L132.622068,149.07459 C132.651074,149.25059 132.802978,149.379352 132.980834,149.37859 L141.925574,149.351162 C142.082058,149.3504 142.209534,149.25059 142.260678,149.116495 C142.285104,149.053257 142.293501,148.983162 142.278234,148.911543 L141.548488,145.596495 C141.511848,145.4304 141.363761,145.312305 141.193538,145.313067" id="Fill-251" fill="#76ABFF"></path>
                                    <path d="M146.188028,149.060114 C146.227721,149.2224 146.373518,149.336686 146.540688,149.335924 L154.478591,149.311543 L155.957931,149.30621 L169.017038,149.265829 C169.170468,149.265829 169.294891,149.171352 169.348324,149.044114 C169.383438,148.96259 169.390308,148.868114 169.354431,148.775162 L168.085771,145.457829 C168.031574,145.317638 167.896464,145.224686 167.746088,145.225448 L154.740414,145.268114 L153.296951,145.272686 L145.731554,145.297829 C145.497974,145.29859 145.325461,145.518019 145.380421,145.744305 L145.397978,145.813638 L146.188028,149.060114 Z" id="Fill-253" fill="#76ABFF"></path>
                                    <path d="M53.510888,143.990933 L58.441258,143.974933 L63.8723747,143.955886 L69.0149513,143.939124 C69.183648,143.938362 69.330208,143.821029 69.3660847,143.656457 L70.0935413,140.423695 L70.1103347,140.348267 C70.1607147,140.121219 69.9882013,139.907124 69.7553847,139.907886 L64.9143247,139.923886 L59.6190813,139.942933 L54.5864247,139.960457 C54.4299413,139.961219 54.2910147,140.06179 54.2429247,140.210362 L53.165098,143.51779 C53.1368547,143.60541 53.1437247,143.69379 53.176548,143.770743 C53.231508,143.897981 53.357458,143.990933 53.510888,143.990933" id="Fill-255" fill="#76ABFF"></path>
                                    <path d="M82.238709,139.863695 L73.8130357,139.892648 C73.6412857,139.89341 73.4939623,140.014552 73.4596123,140.182171 L72.785589,143.491886 C72.7710857,143.561981 72.7794823,143.629029 72.803909,143.690743 C72.8550523,143.8256 72.9840557,143.92541 73.1413023,143.924648 L81.7585723,143.895695 C81.9379557,143.895695 82.0906223,143.763886 82.1158123,143.586362 L82.5814457,140.391695 L82.598239,140.276648 C82.630299,140.058743 82.4593123,139.862933 82.238709,139.863695" id="Fill-257" fill="#76ABFF"></path>
                                    <path d="M86.231324,143.880838 L94.8569907,143.851886 C95.047824,143.851886 95.2050707,143.704076 95.2165207,143.514362 L95.4180407,140.3776 L95.430254,140.203124 C95.4432307,139.9936 95.276824,139.8176 95.0669073,139.818362 L86.6336007,139.848076 C86.451164,139.848838 86.297734,139.985219 86.2763607,140.16579 L85.8702673,143.476267 C85.8641607,143.531124 85.8702673,143.584457 85.8870607,143.633981 C85.9343873,143.776457 86.0694973,143.8816 86.231324,143.880838" id="Fill-259" fill="#76ABFF"></path>
                                    <path d="M99.3235593,143.836876 L107.952279,143.807924 C108.146929,143.807162 108.301123,143.653257 108.308756,143.461257 C108.309519,143.453638 108.313336,143.447543 108.313336,143.439924 L108.256849,140.128686 C108.253033,139.93059 108.091206,139.772114 107.893503,139.772876 L99.4571427,139.80259 C99.263256,139.803352 99.1044827,139.955733 99.096086,140.149257 L98.9602127,143.461257 C98.958686,143.491733 98.9625027,143.521448 98.9693727,143.5504 C99.0037227,143.71421 99.148756,143.837638 99.3235593,143.836876" id="Fill-261" fill="#76ABFF"></path>
                                    <path d="M112.054967,143.446248 C112.063364,143.640533 112.223664,143.793676 112.418314,143.792914 L121.045507,143.763962 C121.21115,143.763962 121.347024,143.652724 121.390534,143.504152 C121.40351,143.461486 121.409617,143.41501 121.405037,143.36701 L121.079094,140.054248 C121.060774,139.869105 120.90429,139.72739 120.717274,139.728152 L112.28244,139.757867 C112.077104,139.758629 111.912987,139.929295 111.921384,140.133486 L111.931307,140.366629 L112.054967,143.446248 Z" id="Fill-263" fill="#76ABFF"></path>
                                    <path d="M133.538602,139.682895 L125.109875,139.71261 C124.893852,139.713371 124.725919,139.903086 124.751872,140.117181 L124.767902,140.247467 L125.154912,143.431467 C125.177049,143.6128 125.332005,143.749943 125.515205,143.749181 L134.136292,143.720229 C134.295065,143.720229 134.424832,143.617371 134.474449,143.480229 C134.495059,143.423086 134.503455,143.359848 134.492005,143.295086 L133.896605,139.9808 C133.866072,139.807848 133.714169,139.682133 133.538602,139.682895" id="Fill-265" fill="#76ABFF"></path>
                                    <path d="M138.25875,143.415771 C138.2931,143.584914 138.44195,143.706057 138.615227,143.705295 L147.224863,143.676343 C147.380583,143.676343 147.506533,143.578819 147.559203,143.447771 C147.586683,143.3792 147.594317,143.30301 147.57447,143.223771 L146.709613,139.907962 C146.668393,139.748724 146.52336,139.637486 146.357717,139.638248 L137.94044,139.6672 C137.71144,139.667962 137.541217,139.876724 137.586253,140.099962 L137.604573,140.189867 L138.25875,143.415771 Z" id="Fill-267" fill="#76ABFF"></path>
                                    <path d="M151.488156,143.662019 L156.600963,143.645257 L161.990096,143.626971 L166.854056,143.610971 C167.00825,143.61021 167.13191,143.515733 167.185343,143.389257 C167.220456,143.307733 167.226563,143.212495 167.19145,143.120305 L165.92279,139.802971 C165.868593,139.662019 165.733483,139.569829 165.583106,139.57059 L160.579456,139.587352 L155.325433,139.6064 L150.549256,139.623162 C150.30957,139.623924 150.136293,139.852495 150.201176,140.08259 L150.216443,140.1344 L151.13855,143.3984 C151.182823,143.55459 151.325566,143.662781 151.488156,143.662019" id="Fill-269" fill="#76ABFF"></path>
                                    <path d="M55.3499107,138.347352 L63.6191007,138.317638 C63.782454,138.317638 63.9251973,138.207162 63.9671807,138.049448 L64.838144,134.7984 L64.8534107,134.742019 C64.9144773,134.511924 64.7404373,134.2864 64.501514,134.287162 L56.4254473,134.317638 C56.268964,134.3184 56.1300373,134.418971 56.0819473,134.566781 L55.004884,137.87421 C54.9758773,137.961829 54.9827473,138.050971 55.016334,138.127924 C55.0705307,138.255162 55.1964807,138.348114 55.3499107,138.347352" id="Fill-271" fill="#76ABFF"></path>
                                    <path d="M67.6243107,137.854781 C67.6059907,137.932495 67.6143873,138.007162 67.641104,138.073448 C67.6945373,138.205257 67.8212507,138.302781 67.977734,138.302019 L76.260664,138.272305 C76.434704,138.272305 76.583554,138.148114 76.615614,137.977448 L77.2140673,134.76221 L77.2323873,134.667733 C77.2743707,134.445257 77.1018573,134.239543 76.8751473,134.241067 L68.783814,134.270781 C68.6174073,134.271543 68.472374,134.385067 68.433444,134.54659 L67.6243107,137.854781 Z" id="Fill-273" fill="#76ABFF"></path>
                                    <path d="M80.7881467,134.528152 L80.24847,137.837867 C80.2377833,137.901105 80.24618,137.961295 80.2660267,138.016914 C80.3164067,138.155581 80.4477,138.257676 80.6072367,138.256914 L88.9008533,138.226438 C89.08558,138.226438 89.2405367,138.08701 89.2603833,137.90339 L89.5924333,134.733105 L89.6069367,134.592914 C89.6298367,134.379581 89.46114,134.193676 89.2451167,134.194438 L81.14386,134.224914 C80.9667667,134.225676 80.81639,134.353676 80.7881467,134.528152" id="Fill-275" fill="#76ABFF"></path>
                                    <path d="M93.1468187,134.510248 L92.8765987,137.820724 C92.872782,137.864914 92.8788887,137.906819 92.8903387,137.9472 C92.9330853,138.098819 93.0704853,138.211581 93.2384187,138.211581 L101.538142,138.181867 C101.734319,138.181105 101.894619,138.024152 101.899199,137.828343 L101.971715,134.76701 L101.977059,134.517867 C101.981639,134.313676 101.817522,134.146819 101.613712,134.147581 L93.5063487,134.178057 C93.3185687,134.178057 93.1628487,134.322819 93.1468187,134.510248" id="Fill-277" fill="#76ABFF"></path>
                                    <path d="M105.510681,134.493181 L105.509155,137.805181 C105.509155,137.806705 105.509918,137.807467 105.509918,137.80899 C105.512208,138.006324 105.674035,138.167086 105.873265,138.166324 L114.173751,138.13661 C114.345501,138.135848 114.487481,138.014705 114.524121,137.855467 C114.530991,137.822705 114.535571,137.789181 114.533281,137.754133 L114.342448,134.442133 C114.331761,134.250133 114.172225,134.100038 113.979865,134.1008 L105.871738,134.131276 C105.671745,134.132038 105.510681,134.293562 105.510681,134.493181" id="Fill-279" fill="#76ABFF"></path>
                                    <path d="M117.879124,134.475276 L117.892864,134.639848 L118.147817,137.7888 C118.162321,137.97699 118.320331,138.121752 118.509637,138.12099 L126.806307,138.091276 C126.966607,138.090514 127.099427,137.985371 127.147517,137.845181 C127.165074,137.793371 127.171944,137.737752 127.163547,137.679848 L126.703257,134.366324 C126.678067,134.187276 126.524637,134.053943 126.342964,134.054705 L118.238654,134.085181 C118.027211,134.085943 117.862331,134.265752 117.879124,134.475276" id="Fill-281" fill="#76ABFF"></path>
                                    <path d="M130.251994,134.457448 L130.269551,134.567162 L130.789381,137.772495 C130.818387,137.947733 130.970291,138.076495 131.148911,138.075733 L139.436421,138.046019 C139.593667,138.045257 139.720381,137.94621 139.772287,137.812114 C139.796714,137.748876 139.805111,137.679543 139.789081,137.607162 L139.059334,134.292114 C139.022694,134.125257 138.874607,134.007162 138.704384,134.007924 L130.608471,134.0384 C130.386341,134.039162 130.216881,134.238781 130.251994,134.457448" id="Fill-283" fill="#76ABFF"></path>
                                    <path d="M142.630055,134.438857 L142.646085,134.50819 L143.436898,137.754667 C143.475828,137.91619 143.622388,138.031238 143.790321,138.030476 L152.064855,138.000762 C152.219811,138.000762 152.344998,137.905524 152.398431,137.776762 C152.428201,137.703619 152.436598,137.61981 152.410645,137.535238 L151.411441,134.219429 C151.364878,134.066286 151.223661,133.961143 151.063361,133.961905 L142.980425,133.992381 C142.746081,133.993143 142.574331,134.21181 142.630055,134.438857" id="Fill-285" fill="#76ABFF"></path>
                                    <path d="M155.353982,133.945524 C155.108952,133.946286 154.935675,134.184762 155.011245,134.418667 L155.021932,134.452952 L156.087545,137.735238 C156.135635,137.884571 156.276088,137.985905 156.433335,137.985143 L164.691075,137.955429 C164.845268,137.955429 164.968928,137.860952 165.023125,137.734476 C165.057475,137.65219 165.064345,137.557714 165.028468,137.464762 L163.759808,134.14819 C163.705612,134.007238 163.570502,133.915048 163.419362,133.915048 L155.353982,133.945524 Z" id="Fill-287" fill="#76ABFF"></path>
                                    <polygon id="Fill-289" fill="#94EBFF" points="117.384866 103.698514 79.6678023 103.782324 79.6426123 92.4596571 117.359676 92.3750857"></polygon>
                                    <polygon id="Fill-291" fill="#1AC1F3" points="117.384866 103.698514 127.344076 103.676419 127.318886 92.3522286 117.359676 92.3750857"></polygon>
                                    <path d="M109.937938,38.1255619 C107.467792,38.6947048 94.3254817,51.6272762 94.3850217,53.8520381 C94.4445617,56.0775619 101.649665,55.7903238 101.649665,55.7903238 C101.649665,55.7903238 98.8780017,73.172419 101.249678,74.3952762 C103.622118,75.6173714 120.177292,75.1328 121.701668,73.8489905 C123.226808,72.565181 119.194882,55.9061333 119.194882,55.9061333 C119.194882,55.9061333 125.041252,55.844419 126.174038,54.452419 C127.306062,53.060419 113.415685,37.3248 109.937938,38.1255619" id="Fill-293" fill="#1AC1F3"></path>
                                    <path d="M156.132963,143.132267 C156.607757,143.196267 158.246633,138.790933 157.978703,137.89341 C157.710773,136.995886 156.311583,136.925029 156.311583,137.139886 C156.311583,137.354743 155.329173,143.024076 156.132963,143.132267" id="Fill-295" fill="#1A2982"></path>
                                    <path d="M137.646022,148.899429 C137.995629,149.225524 141.890919,146.584762 142.193199,145.698667 C142.496242,144.812571 141.397806,143.944762 141.272619,144.12 C141.148196,144.295238 137.054439,148.346286 137.646022,148.899429" id="Fill-297" fill="#1A2982"></path>
                                    <path d="M137.036959,108.873371 C137.036959,108.873371 138.259055,127.558324 138.833845,132.080229 C139.409399,136.602133 140.559742,144.998324 140.559742,144.998324 C140.955912,145.626133 142.070379,144.998324 142.070379,144.998324 C142.070379,144.998324 142.461205,130.231848 142.245945,129.442514 C142.029922,128.653181 142.645169,119.808229 142.645169,119.808229 C142.645169,119.808229 143.238279,128.348419 144.425262,129.495848 C145.610719,130.6448 155.730992,138.682895 156.450815,138.467276 C157.169875,138.252419 157.026369,137.319086 157.026369,137.319086 C157.026369,137.319086 148.397649,127.558324 147.822095,127.415086 C147.247305,127.271086 149.691499,110.836038 148.181625,108.396419 C146.671752,105.956038 141.926109,106.852038 141.926109,106.852038 L137.036959,108.873371 Z" id="Fill-299" fill="#1E41D3"></path>
                                    <path d="M136.784295,108.055619 C136.784295,108.055619 136.558349,110.469333 137.169779,110.873905 C137.781209,111.279238 139.553669,112.486857 144.226795,111.590095 C148.145749,110.837333 149.619745,110.244571 148.389252,107.625143 C147.236619,105.171048 136.784295,108.055619 136.784295,108.055619" id="Fill-301" fill="#76ABFF"></path>
                                    <path d="M127.311939,65.7654857 C126.923403,65.6832 126.448609,66.3757714 126.412733,66.8778667 C126.376856,67.3807238 126.412733,71.6153905 126.412733,71.6153905 L127.455446,71.6153905 C127.455446,71.6153905 128.821813,66.0885333 127.311939,65.7654857" id="Fill-303" fill="#FCDFC3"></path>
                                    <path d="M128.638078,67.7216 C129.023562,67.8602667 128.365568,69.8160762 127.982375,70.1254095 C127.599182,70.4355048 127.289268,70.9330286 127.289268,70.9330286 C127.289268,70.9330286 128.188475,67.5600762 128.638078,67.7216" id="Fill-305" fill="#FCDFC3"></path>
                                    <path d="M126.143047,71.1486476 L127.724674,71.1486476 C127.724674,71.1486476 129.163557,79.617219 129.738347,80.3349333 C130.3139,81.0526476 133.87256,85.5196952 136.04806,86.8476952 C137.642664,87.8214095 138.654844,87.9425524 138.654844,87.9425524 C138.654844,87.9425524 139.804424,89.9516952 138.654844,91.9608381 C137.5045,93.9707429 137.36023,92.6793143 137.36023,92.6793143 C137.36023,92.6793143 128.934557,84.9810286 127.868944,81.6263619 C126.93386,78.6846476 125.85527,72.2968381 126.143047,71.1486476" id="Fill-307" fill="#76ABFF"></path>
                                    <path d="M140.066476,80.854781 C140.066476,80.854781 136.668879,82.1294476 136.794829,83.6182095 C136.920779,85.1077333 138.071123,85.3766857 138.071123,85.3766857 L138.428363,88.6597333 L139.563439,88.6597333 L141.719856,86.4174476 C141.719856,86.4174476 141.163386,83.2593524 141.127509,83.2052571 C141.090869,83.1519238 140.066476,80.854781 140.066476,80.854781" id="Fill-309" fill="#FCDFC3"></path>
                                    <path d="M156.852329,108.90979 C157.298879,108.620267 153.965402,104.004648 153.965402,104.004648 L153.364659,104.33379 C153.364659,104.33379 153.272295,107.283124 153.549385,107.684648 C153.826475,108.086171 154.040209,106.123505 154.040209,106.123505 C154.040209,106.123505 156.233265,109.310552 156.852329,108.90979" id="Fill-311" fill="#FCDFC3"></path>
                                    <path d="M144.802272,94.9038476 C144.802272,94.9038476 152.747809,104.161752 153.179092,104.413181 C153.610376,104.66461 154.077536,104.090133 154.077536,104.090133 C154.077536,104.090133 147.426612,93.5400381 147.031206,93.1095619 C146.635799,92.6790857 144.802272,94.9038476 144.802272,94.9038476" id="Fill-313" fill="#76ABFF"></path>
                                    <path d="M138.277375,87.4038857 C138.277375,87.4038857 138.411722,88.7768381 140.137619,88.3996952 C141.862752,88.0225524 142.752799,87.4038857 142.752799,87.4038857 L145.880939,94.1322667 L144.964175,95.2865524 C144.964175,95.2865524 144.425262,97.7383619 146.366419,100.753219 C147.258755,102.139124 150.464755,108.449981 146.312222,109.526552 C142.159689,110.603124 138.007155,111.356648 136.766739,108.611505 C135.526322,105.866362 135.526322,98.4926476 136.030122,95.1913143 C136.186605,94.1657905 137.603352,87.5456 138.277375,87.4038857" id="Fill-315" fill="#3369F0"></path>
                                    <path d="M138.663546,79.7788952 C139.445199,78.3480381 142.835926,79.0428952 143.644296,80.5865143 C144.454192,82.1293714 144.364119,83.797181 144.705329,84.0486095 C145.046539,84.3000381 147.743396,85.6996571 148.409022,88.085181 C149.073886,90.4722286 149.109762,94.1857524 146.951819,95.0116571 C144.795402,95.8368 140.715386,94.7602286 139.887932,92.3381333 C139.061242,89.9160381 140.192502,86.2596571 140.427609,84.8562286 C140.661189,83.4528 140.517682,82.9369905 140.355092,82.8646095 C140.193266,82.7929905 137.497172,81.9137524 138.663546,79.7788952" id="Fill-317" fill="#1A2982"></path>
                                    <path d="M67.040666,111.94179 C65.682696,113.012267 59.0768093,118.896457 59.4729793,119.639314 C59.868386,120.382171 62.153806,122.824076 62.6614227,122.399695 C63.1690393,121.975314 65.6659027,119.122743 65.6659027,119.122743 C65.6659027,119.122743 63.4171227,136.945219 63.7056627,137.422933 C63.9942027,137.900648 73.1335927,141.192076 73.1335927,141.192076 L79.7356627,137.317029 C79.7356627,137.317029 78.4028827,119.782552 78.1486927,119.144838 C77.895266,118.507886 81.7661293,121.550171 82.2103893,121.603505 C82.6546493,121.656838 85.5110427,119.639314 85.637756,119.002362 C85.7652327,118.36541 78.4028827,111.729981 76.6250793,110.986362 C74.8480393,110.243505 68.9650293,110.4256 67.040666,111.94179" id="Fill-319" fill="#1AC1F3"></path>
                                    <path d="M55.9626383,129.796724 L73.910895,131.725105 L87.767685,130.509867 L86.4043717,135.624533 L71.4415117,139.965867 C71.4415117,139.965867 59.390005,133.564343 59.280085,133.564343 C59.1694017,133.564343 55.9626383,129.796724 55.9626383,129.796724" id="Fill-321" fill="#184AC6"></path>
                                    <path d="M59.8329673,119.697752 C59.8329673,119.697752 56.0002707,125.4768 55.9628673,125.692419 C55.9262273,125.908038 61.0855973,132.643276 62.596234,132.766705 C64.107634,132.889371 63.1862907,130.979276 63.001564,130.547276 C62.8176007,130.116038 58.7268973,125.770133 58.8375807,125.523276 C58.948264,125.276419 62.0802207,121.855467 62.3382273,121.639848 C62.596234,121.424229 60.4955407,119.697752 59.8329673,119.697752" id="Fill-323" fill="#FFEBD2"></path>
                                    <path d="M85.0445697,119.339886 C85.0445697,119.339886 88.8772663,125.072457 88.9139063,125.288838 C88.9513097,125.504457 83.7911763,132.28541 82.2805397,132.408076 C80.7691397,132.531505 81.690483,130.62141 81.8752097,130.18941 C82.059173,129.758171 86.1498763,125.412267 86.0399563,125.16541 C85.929273,124.918552 82.796553,121.4976 82.5385463,121.281981 C82.2805397,121.066362 84.381233,119.339886 85.0445697,119.339886" id="Fill-325" fill="#FFEBD2"></path>
                                    <path d="M69.6907303,111.862171 C69.6151603,112.508267 70.406737,114.602743 72.1570603,114.473981 C73.908147,114.345219 74.647817,113.039314 74.629497,112.248457 C74.6104137,111.4576 74.1501237,110.26141 73.413507,110.26141 C72.676127,110.26141 69.912097,109.967314 69.6907303,111.862171" id="Fill-327" fill="#FFFFFF"></path>
                                    <path d="M54.238421,148.345067 C54.238421,149.455924 62.6160043,147.759924 63.9861877,145.904686 C65.3556077,144.049448 64.3518243,143.548114 64.3518243,143.548114 C64.3518243,143.548114 54.238421,144.621638 54.238421,148.345067" id="Fill-329" fill="#1A2982"></path>
                                    <path d="M88.7420037,147.560152 C88.7420037,148.671771 80.3644203,146.97501 78.994237,145.120533 C77.624817,143.264533 78.6286003,142.7632 78.6286003,142.7632 C78.6286003,142.7632 88.7420037,143.837486 88.7420037,147.560152" id="Fill-331" fill="#1A2982"></path>
                                    <path d="M70.7246653,107.56381 L70.7246653,112.370667 C70.7246653,112.370667 71.1322853,113.566095 72.304002,113.419048 C73.4757187,113.271238 73.590982,111.94781 73.590982,111.94781 L73.4864053,107.56381 L70.7246653,107.56381 Z" id="Fill-333" fill="#E5CFBA"></path>
                                    <path d="M68.5322957,108.152381 C68.5322957,110.150857 70.1551423,111.771429 72.1573657,111.771429 C74.1603523,111.771429 75.783199,110.150857 75.783199,108.152381 C75.783199,106.153905 74.1603523,104.533333 72.1573657,104.533333 C70.1551423,104.533333 68.5322957,106.153905 68.5322957,108.152381" id="Fill-335" fill="#FFEBD2"></path>
                                    <path d="M76.323639,108.982705 C75.783199,109.596038 74.0901257,109.794133 72.922989,108.737371 C71.271899,107.241752 70.2330023,106.124038 70.2330023,106.124038 C70.2330023,106.124038 70.4184923,108.173562 69.2925757,108.32061 C68.166659,108.467657 67.9704823,107.903848 67.9704823,107.903848 C67.9704823,107.903848 67.5399623,105.302705 68.977319,104.151467 C74.507669,99.7255619 77.9663323,107.119086 76.323639,108.982705" id="Fill-337" fill="#1A2982"></path>
                                    <path d="M62.0439623,122.5296 C61.5500857,123.02179 61.699699,134.300267 62.0439623,134.595124 C62.3874623,134.889219 82.3867957,135.280838 82.7799123,134.790933 C83.1737923,134.300267 82.632589,121.94141 82.2394723,121.548267 C81.8463557,121.155886 63.075989,121.498743 62.0439623,122.5296" id="Fill-339" fill="#E3F4FF"></path>
                                    <path d="M63.7062733,143.54819 C63.6948233,144.069333 63.8490167,146.340571 64.2803,146.340571 C64.7100567,146.340571 90.0282967,139.539048 91.3923733,137.033143 C92.63737,134.742857 92.0473133,132.540952 91.3923733,131.879619 C89.7580767,130.230095 87.7673033,129.796571 86.0841533,131.02019 C83.7185833,132.73981 63.7245933,142.697143 63.7062733,143.54819" id="Fill-341" fill="#2E62E5"></path>
                                    <path d="M79.2741513,142.763276 C79.2856013,143.285181 79.131408,145.555657 78.7001247,145.555657 C78.270368,145.555657 52.952128,138.754133 51.5880513,136.24899 C50.343818,133.958705 51.021658,131.83299 51.5880513,131.094705 C52.8551847,129.445181 55.548988,129.023086 56.8970347,130.235276 C59.0702447,132.191848 79.2558313,141.91299 79.2741513,142.763276" id="Fill-343" fill="#2E62E5"></path>
                                </g>
                            </g>
                        </g>
                    </g>
                </g>
            </g>
        </g>
    </g>
</svg>