<?xml version="1.0" encoding="UTF-8"?>
<svg width="488px" height="343px" viewBox="0 0 488 343" version="1.1" xmlns="http://www.w3.org/2000/svg" xmlns:xlink="http://www.w3.org/1999/xlink">
    <!-- Generator: sketchtool 55.2 (78181) - https://sketchapp.com -->
    <title>85FAB743-C3E0-4270-B253-11798C9B7860@1.5x</title>
    <desc>Created with sketchtool.</desc>
    <defs>
        <polygon id="path-1" points="0 342.928526 487.876 342.928526 487.876 0 0 0"></polygon>
    </defs>
    <g id="Japanese-1.0" stroke="none" stroke-width="1" fill="none" fill-rule="evenodd">
        <g id="Introduction" transform="translate(-268.000000, -3158.000000)">
            <g id="Content" transform="translate(196.000000, 500.000000)">
                <g id="Step-4" transform="translate(0.000000, 2469.000000)">
                    <g id="Text-+-illustration" transform="translate(0.000000, 113.000000)">
                        <g id="Image-+-text" transform="translate(0.000000, 76.000000)">
                            <g id="introduction_illustration_4" transform="translate(72.000000, 0.000000)">
                                <path d="M242.4245,222.202513 L240.9455,222.465889 C240.9055,222.253426 236.7765,200.994426 215.8705,171.846892 C194.7565,142.411505 188.8005,112.776383 188.7415,112.480698 L190.2205,112.202636 C190.2775,112.495384 196.1825,141.835799 217.1015,170.999978 C238.2165,200.439282 242.3855,221.988092 242.4245,222.202513" id="Fill-1" fill="#94EBFF"></path>
                                <path d="M188.6784,106.889697 C197.3414,103.550018 193.1624,125.509068 193.1624,125.509068 C193.1624,125.509068 177.2484,111.296585 188.6784,106.889697" id="Fill-3" fill="#94EBFF"></path>
                                <path d="M205.4919,126.590963 C210.9909,129.934558 196.7479,136.769592 196.7479,136.769592 C196.7479,136.769592 198.2369,122.178201 205.4919,126.590963" id="Fill-5" fill="#94EBFF"></path>
                                <path d="M184.1256,134.123501 C184.1716,127.785846 197.5566,136.118888 197.5566,136.118888 C197.5566,136.118888 184.0646,142.484937 184.1256,134.123501" id="Fill-7" fill="#94EBFF"></path>
                                <path d="M219.4372,142.201979 C227.9002,146.582432 207.6062,158.097519 207.6062,158.097519 C207.6062,158.097519 208.2712,136.424364 219.4372,142.201979" id="Fill-9" fill="#94EBFF"></path>
                                <path d="M229.7878,156.131015 C238.7578,160.771906 217.2468,172.97921 217.2468,172.97921 C217.2468,172.97921 217.9518,150.005823 229.7878,156.131015" id="Fill-11" fill="#94EBFF"></path>
                                <path d="M240.2936,173.996584 C248.8576,178.427949 228.3206,190.082067 228.3206,190.082067 C228.3206,190.082067 228.9946,168.149453 240.2936,173.996584" id="Fill-13" fill="#94EBFF"></path>
                                <path d="M246.4098,192.240767 C255.6508,195.084047 237.6028,210.17869 237.6028,210.17869 C237.6028,210.17869 234.2178,188.488891 246.4098,192.240767" id="Fill-15" fill="#94EBFF"></path>
                                <path d="M191.2497,156.945717 C190.7287,148.967105 208.3317,158.280218 208.3317,158.280218 C208.3317,158.280218 191.9367,167.471922 191.2497,156.945717" id="Fill-17" fill="#94EBFF"></path>
                                <path d="M201.0143,176.344835 C197.8383,168.980114 217.5923,172.100476 217.5923,172.100476 C217.5923,172.100476 205.2023,186.063291 201.0143,176.344835" id="Fill-19" fill="#94EBFF"></path>
                                <path d="M211.2565,190.891677 C209.5305,183.077553 228.3525,189.728518 228.3525,189.728518 C228.3525,189.728518 213.5335,201.201504 211.2565,190.891677" id="Fill-21" fill="#94EBFF"></path>
                                <path d="M221.4284,204.583578 C222.6804,196.684273 237.8114,209.50253 237.8114,209.50253 C237.8114,209.50253 219.7754,215.006979 221.4284,204.583578" id="Fill-23" fill="#94EBFF"></path>
                                <mask id="mask-2" fill="white">
                                    <use xlink:href="#path-1"></use>
                                </mask>
                                <g id="Clip-26"></g>
                                <polygon id="Fill-25" fill="#4A75FF" mask="url(#mask-2)" points="195.033 266.432159 312.894 266.432159 312.894 179.012075 195.033 179.012075"></polygon>
                                <polygon id="Fill-27" fill="#1E41D3" mask="url(#mask-2)" points="195.033 190.051324 312.894 190.051324 312.894 179.011095 195.033 179.011095"></polygon>
                                <path d="M197.5163,184.860282 C197.5163,186.312274 198.7183,187.489141 200.2023,187.489141 C201.6843,187.489141 202.8863,186.312274 202.8863,184.860282 C202.8863,183.409269 201.6843,182.231423 200.2023,182.231423 C198.7183,182.231423 197.5163,183.409269 197.5163,184.860282" id="Fill-28" fill="#FAFBFD" mask="url(#mask-2)"></path>
                                <path d="M205.1403,184.860282 C205.1403,186.312274 206.3413,187.489141 207.8253,187.489141 C209.3073,187.489141 210.5093,186.312274 210.5093,184.860282 C210.5093,183.409269 209.3073,182.231423 207.8253,182.231423 C206.3413,182.231423 205.1403,183.409269 205.1403,184.860282" id="Fill-29" fill="#FAFBFD" mask="url(#mask-2)"></path>
                                <path d="M212.7633,184.860282 C212.7633,186.312274 213.9643,187.489141 215.4483,187.489141 C216.9303,187.489141 218.1323,186.312274 218.1323,184.860282 C218.1323,183.409269 216.9303,182.231423 215.4483,182.231423 C213.9643,182.231423 212.7633,183.409269 212.7633,184.860282" id="Fill-30" fill="#FAFBFD" mask="url(#mask-2)"></path>
                                <polygon id="Fill-31" fill="#FFFFFF" mask="url(#mask-2)" points="205.411 247.136236 213.465 247.136236 213.465 233.558205 205.411 233.558205"></polygon>
                                <polygon id="Fill-32" fill="#5FD9FF" mask="url(#mask-2)" points="217.696 247.136236 225.75 247.136236 225.75 221.918773 217.696 221.918773"></polygon>
                                <polygon id="Fill-33" fill="#BDE7FF" mask="url(#mask-2)" points="229.981 247.136236 238.035 247.136236 238.035 227.738489 229.981 227.738489"></polygon>
                                <path d="M205.4108,206.503575 C205.4108,211.145444 209.2548,214.90907 213.9958,214.90907 C218.7378,214.90907 222.5818,211.145444 222.5818,206.503575 C222.5818,201.860726 218.7378,198.097101 213.9958,198.097101 C209.2548,198.097101 205.4108,201.860726 205.4108,206.503575" id="Fill-34" fill="#BDE7FF" mask="url(#mask-2)"></path>
                                <polygon id="Fill-35" fill="#5FD9FF" mask="url(#mask-2)" points="276.11 214.353533 262.444 239.570997 289.775 239.570997"></polygon>
                                <polygon id="Fill-36" fill="#BDE7FF" mask="url(#mask-2)" points="291.7995 220.86576 281.6625 239.570312 301.9365 239.570312"></polygon>
                                <polygon id="Fill-37" fill="#FFFFFF" mask="url(#mask-2)" points="229.709 204.821888 276.07 204.821888 276.07 201.45969 229.709 201.45969"></polygon>
                                <polygon id="Fill-38" fill="#FFFFFF" mask="url(#mask-2)" points="284.766 204.821888 301.936 204.821888 301.936 201.45969 284.766 201.45969"></polygon>
                                <polygon id="Fill-39" fill="#FFFFFF" mask="url(#mask-2)" points="229.708 212.906241 259.757 212.906241 259.757 209.543064 229.708 209.543064"></polygon>
                                <polygon id="Fill-40" fill="#FFFFFF" mask="url(#mask-2)" points="205.411 255.35962 239.753 255.35962 239.753 251.996443 205.411 251.996443"></polygon>
                                <polygon id="Fill-41" fill="#5FD9FF" mask="url(#mask-2)" points="267.595 255.35962 301.936 255.35962 301.936 251.996443 267.595 251.996443"></polygon>
                                <polygon id="Fill-42" fill="#FFFFFF" mask="url(#mask-2)" points="259.009 247.593472 301.936 247.593472 301.936 244.231274 259.009 244.231274"></polygon>
                                <polygon id="Fill-43" fill="#FFEBD2" mask="url(#mask-2)" points="255.4831 209.34519 254.4631 214.235749 251.9741 213.67473 252.3791 208.583457"></polygon>
                                <polygon id="Fill-44" fill="#FFEBD2" mask="url(#mask-2)" points="279.068 206.691952 280.938 211.334801 278.54 212.194442 276.042 207.710206"></polygon>
                                <path d="M285.0817,173.695415 C285.0817,173.695415 262.7537,176.559256 263.3897,182.780399 C264.0237,189.002522 256.7757,210.097034 256.7757,210.097034 L250.8037,209.972689 C250.8037,209.972689 255.0147,183.294422 255.0147,179.561149 C255.0147,175.827875 275.9317,167.597638 275.9317,167.597638 L285.0817,173.695415 Z" id="Fill-45" fill="#1AC1F3" mask="url(#mask-2)"></path>
                                <path d="M281.5983,210.306168 L277.2783,211.923626 C277.2783,211.923626 277.0233,214.909853 275.3713,215.283866 C273.7193,215.656899 271.1773,216.901324 271.4313,217.897059 C271.6863,218.892794 279.0573,217.398702 279.0573,217.398702 L283.8863,213.666407 L281.5983,210.306168 Z" id="Fill-46" fill="#1A2982" mask="url(#mask-2)"></path>
                                <path d="M291.0544,167.722374 C291.0544,167.722374 294.8834,174.127586 289.3814,177.839319 C284.7294,180.977306 270.5524,181.408106 271.0184,182.433214 C272.0344,184.672394 281.5584,207.98161 281.5584,207.98161 L275.8394,209.351358 C275.8394,209.351358 261.5054,189.177191 260.6164,182.956048 C259.7264,176.734905 276.3124,168.718109 276.3124,168.718109 L291.0544,167.722374 Z" id="Fill-47" fill="#27D6FF" mask="url(#mask-2)"></path>
                                <path d="M273.5163,123.177559 C273.5163,123.177559 271.8653,132.882307 278.2183,132.882307 L277.9643,139.601808 L283.8113,137.112959 L283.4293,122.306168 L275.6773,122.0565 L273.5163,123.177559 Z" id="Fill-48" fill="#FFEBD2" mask="url(#mask-2)"></path>
                                <path d="M283.9381,133.877749 L277.5841,136.490942 C277.5841,136.490942 272.7261,162.030527 273.8981,165.98018 C275.0421,169.838777 279.7441,169.216075 279.7441,169.216075 L291.9441,168.717718 L290.9271,154.284939 L283.9381,133.877749 Z" id="Fill-49" fill="#1E41D3" mask="url(#mask-2)"></path>
                                <path d="M265.8913,162.123247 C265.8063,162.134017 265.6353,162.136954 265.4983,162.137933 C265.3513,162.135975 265.2043,162.136954 265.0553,162.127163 C264.7573,162.115414 264.4573,162.089958 264.1613,162.051773 C263.5683,161.976383 262.9863,161.850081 262.4313,161.671886 C261.8823,161.486838 261.3713,161.240107 260.9073,160.936589 C260.4483,160.628175 260.0733,160.236539 259.7433,159.798885 L259.6863,159.723495 C259.3703,159.305424 258.7693,159.216326 258.3423,159.525719 C257.9563,159.803781 257.8463,160.31095 258.0603,160.715314 C258.4283,161.412427 258.9093,162.067439 259.5003,162.602022 C260.0933,163.127794 260.7553,163.564469 261.4483,163.909109 C262.1423,164.245916 262.8623,164.507333 263.5933,164.70511 C263.9593,164.803998 264.3283,164.8882 264.7033,164.955757 C264.8893,164.991983 265.0793,165.018419 265.2703,165.045833 C265.4703,165.072269 265.6383,165.094788 265.8913,165.109474 L265.9863,165.115349 C266.8313,165.163324 267.5583,164.53181 267.6083,163.7035 C267.6593,162.876168 267.0133,162.164369 266.1663,162.114435 C266.0763,162.10954 265.9783,162.113456 265.8913,162.123247" id="Fill-50" fill="#FFEBD2" mask="url(#mask-2)"></path>
                                <path d="M284.446,135.247007 C284.446,135.247007 275.804,134.251272 278.473,142.961264 C281.142,151.671256 285.463,155.280185 279.363,157.270677 C273.262,159.261169 265.256,161.625673 265.256,161.625673 L265.764,166.353703 C265.764,166.353703 292.326,167.598127 292.834,161.128295 C293.342,154.657483 289.53,141.965529 288.894,140.597739 C288.259,139.227991 285.717,135.994054 284.446,135.247007" id="Fill-51" fill="#0B33B2" mask="url(#mask-2)"></path>
                                <path d="M253.0836,160.418356 L275.4866,160.418356 C275.8956,160.418356 276.2296,160.09134 276.2296,159.690892 C276.2296,159.291423 275.8956,158.963427 275.4866,158.963427 L253.0836,158.963427 C252.6746,158.963427 252.3406,159.291423 252.3406,159.690892 C252.3406,160.09134 252.6746,160.418356 253.0836,160.418356" id="Fill-52" fill="#4A75FF" mask="url(#mask-2)"></path>
                                <path d="M253.6413,159.042538 L244.4373,140.88334 C244.1123,140.241056 243.5353,139.857253 243.1543,140.031531 C242.7733,140.20483 242.7273,140.871591 243.0533,141.513874 L252.2563,159.673072 C252.5813,160.315356 253.1603,160.69818 253.5403,160.524881 C253.9213,160.351582 253.9663,159.683842 253.6413,159.042538" id="Fill-53" fill="#4A75FF" mask="url(#mask-2)"></path>
                                <path d="M270.7917,119.72969 C270.7917,119.72969 270.9237,123.205463 274.4077,123.591225 C277.8927,123.977966 280.0627,123.398344 280.0627,123.398344 L280.9817,125.714873 C280.9817,125.714873 281.7057,124.491988 282.2307,125.135251 C282.7577,125.780472 283.0447,126.818308 282.4657,127.469404 C282.0107,127.983426 281.8277,128.095043 281.8277,128.095043 L283.2827,131.122391 L283.7437,130.993152 C283.7437,130.993152 284.7297,124.94237 284.9267,122.625841 C285.1237,120.308333 285.2067,119.090344 284.1377,118.313925 C282.1007,116.832561 278.9557,118.097546 276.8817,117.628561 C274.4417,117.077333 270.8187,117.471907 270.8187,117.471907 L270.7917,119.72969 Z" id="Fill-54" fill="#1A2982" mask="url(#mask-2)"></path>
                                <path d="M255.568,212.557881 L251.327,212.627396 C251.327,212.627396 246.797,214.794124 245.143,214.70209 C243.489,214.610055 241.649,215.875041 243.253,216.336192 C244.856,216.798323 255.412,217.433753 255.412,217.433753 L255.568,212.557881 Z" id="Fill-55" fill="#1A2982" mask="url(#mask-2)"></path>
                                <path d="M487.875604,312.996936 C487.8986,329.338941 378.7036,342.739758 243.9806,342.925785 C109.2576,343.11377 0.0236,330.017451 -0.000403632741,313.674467 C-0.0234,297.331482 109.1716,283.930666 243.8956,283.744639 C378.6176,283.557632 487.8526,296.653952 487.875604,312.996936" id="Fill-56" fill="#EBFAFF" mask="url(#mask-2)"></path>
                                <path d="M26.7799,239.348058 C54.6679,216.056466 91.3689,291.627593 89.7059,297.280863 C84.6039,291.741167 77.1049,283.617651 66.1199,271.748132 C47.6759,251.822655 34.4019,243.120495 26.7799,239.348058" id="Fill-57" fill="#76ABFF" mask="url(#mask-2)"></path>
                                <path d="M65.1823,272.742301 C75.9063,284.326904 83.3003,292.337825 88.3913,297.863814 C77.7613,298.243701 6.4163,269.000216 19.8333,247.620788 C21.7053,244.637499 23.6463,242.252433 25.6343,240.379433 C33.0803,244.00011 46.5423,252.60534 65.1823,272.742301" id="Fill-58" fill="#4A75FF" mask="url(#mask-2)"></path>
                                <path d="M88.3913,297.86401 C83.3003,292.337042 75.9063,284.3271 65.1823,272.742497 C46.5423,252.604557 33.0803,243.999327 25.6343,240.379628 C26.0143,240.021281 26.3963,239.668808 26.7803,239.347667 C34.4023,243.120104 47.6753,251.823242 66.1203,271.747741 C77.1053,283.617259 84.6043,291.740776 89.7053,297.280472 C89.6833,297.354883 89.6613,297.429294 89.6253,297.478248 C89.4543,297.720084 89.0253,297.84247 88.3913,297.86401" id="Fill-59" fill="#FFFFFF" mask="url(#mask-2)"></path>
                                <path d="M75.0788,295.745159 C56.8598,289.295888 27.3198,281.223284 16.9038,278.42798 C28.8498,250.670754 71.3298,288.769137 75.0788,295.745159" id="Fill-60" fill="#76ABFF" mask="url(#mask-2)"></path>
                                <path d="M15.8649,281.238558 C16.0599,280.613898 16.2699,280.022527 16.4889,279.44878 C26.8879,282.23821 56.9159,290.438095 75.1019,296.913802 C70.7409,300.451258 7.8179,307.101243 15.8649,281.238558" id="Fill-61" fill="#4A75FF" mask="url(#mask-2)"></path>
                                <path d="M75.3356,296.630551 C75.3066,296.722586 75.2216,296.816579 75.1026,296.913509 C56.9156,290.438781 26.8886,282.237916 16.4886,279.448486 C16.6226,279.098951 16.7616,278.758227 16.9036,278.427294 C27.3196,281.223578 56.8596,289.296182 75.0786,295.745453 C75.2956,296.148839 75.3916,296.453336 75.3356,296.630551" id="Fill-62" fill="#FFFFFF" mask="url(#mask-2)"></path>
                                <path d="M82.3434,269.570732 C76.6364,255.195721 65.5054,233.284647 61.5394,225.589972 C90.4744,216.266089 85.6184,263.301614 82.3434,269.570732" id="Fill-63" fill="#76ABFF" mask="url(#mask-2)"></path>
                                <path d="M58.7106,226.634172 C59.3176,226.380587 59.9086,226.156376 60.4896,225.947829 C64.4496,233.629776 75.7696,255.898218 81.4366,270.269314 C76.0686,269.807183 33.5766,237.115339 58.7106,226.634172" id="Fill-64" fill="#4A75FF" mask="url(#mask-2)"></path>
                                <path d="M81.7985,270.239158 C81.7085,270.275414 81.5835,270.282238 81.4365,270.269509 C75.7695,255.898414 64.4495,233.628993 60.4895,225.948025 C60.8445,225.819764 61.1945,225.701294 61.5395,225.589678 C65.5055,233.285332 76.6365,255.196406 82.3435,269.570439 C82.1535,269.933681 81.9705,270.167684 81.7985,270.239158" id="Fill-65" fill="#FFFFFF" mask="url(#mask-2)"></path>
                                <path d="M342.5905,274.79898 L341.4645,273.99025 C341.5855,273.8287 353.5835,257.530754 360.3035,225.126764 C367.0875,192.400652 383.6855,169.548672 383.8525,169.322502 L384.9865,170.120461 C384.8215,170.344673 368.3945,192.97342 361.6715,225.397972 C354.8855,258.127021 342.7125,274.635471 342.5905,274.79898" id="Fill-66" fill="#1AC1F3" mask="url(#mask-2)"></path>
                                <path d="M387.6598,165.710636 C395.4898,169.295087 377.7058,180.557569 377.7058,180.557569 C377.7058,180.557569 377.3298,160.981627 387.6598,165.710636" id="Fill-67" fill="#1AC1F3" mask="url(#mask-2)"></path>
                                <path d="M384.8327,189.38378 C386.0407,195.147687 372.2427,190.111244 372.2427,190.111244 C372.2427,190.111244 383.2377,181.779181 384.8327,189.38378" id="Fill-68" fill="#1AC1F3" mask="url(#mask-2)"></path>
                                <path d="M366.0055,180.092991 C370.3975,176.07676 373.2065,190.230497 373.2065,190.230497 C373.2065,190.230497 360.2105,185.39183 366.0055,180.092991" id="Fill-69" fill="#1AC1F3" mask="url(#mask-2)"></path>
                                <path d="M384.1315,205.194628 C386.5205,213.575646 365.6355,207.535634 365.6355,207.535634 C365.6355,207.535634 380.9805,194.136776 384.1315,205.194628" id="Fill-70" fill="#1AC1F3" mask="url(#mask-2)"></path>
                                <path d="M383.4049,222.407045 C386.3489,232.739391 360.6029,225.292426 360.6029,225.292426 C360.6029,225.292426 379.5199,208.775163 383.4049,222.407045" id="Fill-71" fill="#1AC1F3" mask="url(#mask-2)"></path>
                                <path d="M374.9879,240.656026 C377.4049,249.136911 356.2699,243.025426 356.2699,243.025426 C356.2699,243.025426 371.7999,229.465996 374.9879,240.656026" id="Fill-72" fill="#1AC1F3" mask="url(#mask-2)"></path>
                                <path d="M365.7614,258.299732 C369.7034,266.213724 347.7894,263.941254 347.7894,263.941254 C347.7894,263.941254 360.5604,247.858707 365.7614,258.299732" id="Fill-73" fill="#1AC1F3" mask="url(#mask-2)"></path>
                                <path d="M355.986,196.006056 C361.146,190.568186 365.973,208.131117 365.973,208.131117 C365.973,208.131117 349.178,203.180834 355.986,196.006056" id="Fill-74" fill="#1AC1F3" mask="url(#mask-2)"></path>
                                <path d="M346.0417,215.828828 C349.5817,207.922669 361.7517,225.40042 361.7517,225.40042 C361.7517,225.40042 341.3717,226.260061 346.0417,215.828828" id="Fill-75" fill="#1AC1F3" mask="url(#mask-2)"></path>
                                <path d="M344.819,232.281176 C349.096,226.153047 356.534,242.82011 356.534,242.82011 C356.534,242.82011 339.174,240.366509 344.819,232.281176" id="Fill-76" fill="#1AC1F3" mask="url(#mask-2)"></path>
                                <path d="M341.3141,249.694503 C347.5521,245.476579 348.3881,263.646547 348.3881,263.646547 C348.3881,263.646547 333.0841,255.258676 341.3141,249.694503" id="Fill-77" fill="#1AC1F3" mask="url(#mask-2)"></path>
                                <path d="M93.8063,148.288791 C95.4753,153.849048 97.3073,159.834231 99.2413,166.148387 C101.0833,172.16588 103.0363,178.556406 105.0293,185.16429 L132.9093,154.378736 C131.5963,136.064842 135.6233,116.812 135.1003,104.248306 C134.9943,101.717356 134.2713,97.1773119 132.7153,91.9528832 L89.7983,121.418622 C90.0383,130.465422 91.2083,139.63167 93.8063,148.288791" id="Fill-78" fill="#C0EDFF" mask="url(#mask-2)"></path>
                                <path d="M96.3004,60.7098985 C75.0774,62.4986975 64.1064,77.2937392 58.7304,94.8282772 L87.0494,117.811456 C87.0524,92.9180709 93.4954,69.6529143 96.3004,60.7098985" id="Fill-79" fill="#C0EDFF" mask="url(#mask-2)"></path>
                                <path d="M96.654,167.008127 C94.719,160.688096 92.884,154.698997 91.215,149.130907 C88.533,140.194745 87.336,130.742602 87.096,121.427532 L57.895,97.7305962 C55.695,105.931461 54.62,114.588582 54.231,122.703287 C53.581,136.299922 57.715,151.469955 62.767,165.935043 C78.096,171.583419 95.307,181.047311 102.112,184.927448 C100.234,178.710221 98.395,172.692728 96.654,167.008127" id="Fill-80" fill="#C0EDFF" mask="url(#mask-2)"></path>
                                <path d="M89.756176,118.080412 L131.8285,89.1923365 C127.3595,76.0940592 117.8105,60.3277594 100.0935,60.5186821 C99.7895,60.5216194 99.5025,60.5460966 99.2025,60.5549084 C96.6645,68.4434434 89.7015,92.4478136 89.756176,118.080412" id="Fill-81" fill="#C0EDFF" mask="url(#mask-2)"></path>
                                <path d="M124.8024,258.5541 C130.2664,248.955093 147.3334,218.713915 155.6234,201.128464 C149.4474,193.699123 143.4204,186.879755 138.7864,177.759524 C135.7034,171.694056 134.0634,164.992179 133.2704,158.084693 L105.9564,188.242649 C112.5614,210.25457 119.5484,234.790586 124.8024,258.5541" id="Fill-82" fill="#C0EDFF" mask="url(#mask-2)"></path>
                                <path d="M180.6256,250.011924 C175.2846,226.976854 166.3886,214.284899 157.5426,203.453217 C147.9046,223.665569 128.2696,258.018929 125.6586,262.568764 C128.4296,275.55053 130.6446,288.232693 131.9436,300.072839 C155.9676,299.914226 177.8166,299.555879 179.0176,299.593084 C181.7126,299.677286 190.0936,290.849803 180.6256,250.011924" id="Fill-83" fill="#C0EDFF" mask="url(#mask-2)"></path>
                                <path d="M103.2868,188.828243 C100.1118,186.978741 81.0408,176.014882 63.9928,169.39329 C69.8288,185.55808 76.4468,200.590062 78.3428,211.180887 C80.7638,224.707027 80.2648,233.152665 77.7498,241.192959 C90.9848,251.59482 115.1588,258.483703 122.4158,260.386077 C117.1348,236.253446 110.0098,211.227884 103.2868,188.828243" id="Fill-84" fill="#C0EDFF" mask="url(#mask-2)"></path>
                                <path d="M76.8034,243.944204 C75.4204,247.679436 73.6304,251.441103 71.5014,255.707002 C64.2874,270.16132 66.1564,295.734194 67.7504,298.580411 C68.6084,300.11073 99.9874,300.262489 129.2084,300.090169 C127.9264,288.522211 125.7674,276.142586 123.0674,263.457485 C117.8314,262.16019 91.7434,255.295784 76.8034,243.944204" id="Fill-85" fill="#C0EDFF" mask="url(#mask-2)"></path>
                                <path d="M105.029,185.164388 C103.037,178.556504 101.084,172.165978 99.241,166.148485 C97.307,159.834328 95.475,153.849146 93.806,148.288889 C91.209,139.631768 90.039,130.465519 89.799,121.41872 L88.329,122.428163 L87.096,121.427532 C87.336,130.742602 88.533,140.194745 91.215,149.130907 C92.884,154.698997 94.719,160.688096 96.654,167.008127 C98.395,172.692728 100.234,178.710221 102.112,184.927448 C102.945,185.402307 103.675,185.823316 104.172,186.111168 L105.029,185.164388 Z" id="Fill-86" fill="#FFFFFF" mask="url(#mask-2)"></path>
                                <path d="M87.0495,117.811651 L88.4705,118.964041 L89.7565,118.079922 C89.7015,92.4483031 96.6645,68.4429538 99.2025,60.555398 C98.2165,60.5818334 97.2455,60.630788 96.3005,60.7100943 C93.4955,69.6531101 87.0525,92.9182668 87.0495,117.811651" id="Fill-87" fill="#FFFFFF" mask="url(#mask-2)"></path>
                                <path d="M124.8024,258.5541 C119.5484,234.790586 112.5614,210.25457 105.9564,188.242649 L104.6814,189.651561 L103.7524,189.100333 C103.7324,189.088584 103.5664,188.990675 103.2864,188.828146 C110.0094,211.227786 117.1344,236.253348 122.4154,260.385979 C122.8654,260.50347 123.2724,260.609212 123.5844,260.688518 C123.8754,260.179391 124.2944,259.446052 124.8024,258.5541" id="Fill-88" fill="#FFFFFF" mask="url(#mask-2)"></path>
                                <path d="M125.404,263.013565 L124.898,263.893768 L123.934,263.668577 C123.81,263.639204 123.513,263.567731 123.067,263.457093 C125.767,276.142194 127.926,288.522798 129.209,300.089777 C130.124,300.084882 131.035,300.079007 131.944,300.073133 C130.644,288.232987 128.429,275.550823 125.659,262.569058 C125.543,262.772709 125.45,262.93328 125.404,263.013565" id="Fill-89" fill="#FFFFFF" mask="url(#mask-2)"></path>
                                <path d="M89.7985,121.418231 L132.7155,91.9524915 C132.4465,91.0507489 132.1475,90.1274662 131.8285,89.1924345 L89.7565,118.08051 C89.7595,119.191778 89.7685,120.303046 89.7985,121.418231" id="Fill-90" fill="#FFFFFF" mask="url(#mask-2)"></path>
                                <path d="M87.0495,117.811651 L58.7305,94.8274939 C58.4365,95.787982 58.1565,96.7553238 57.8955,97.7304983 L87.0965,121.427434 C87.0655,120.220215 87.0495,119.013975 87.0495,117.811651" id="Fill-91" fill="#FFFFFF" mask="url(#mask-2)"></path>
                                <path d="M89.7985,121.418231 C89.7685,120.303046 89.7595,119.191778 89.7565,118.08051 L88.4705,118.96365 L87.0495,117.81126 C87.0495,119.013583 87.0655,120.219823 87.0965,121.428021 L88.3285,122.427673 L89.7985,121.418231 Z" id="Fill-92" fill="#FFFFFF" mask="url(#mask-2)"></path>
                                <path d="M105.9567,188.243139 L133.2697,158.084204 C133.1287,156.853486 132.9977,155.620811 132.9087,154.378345 L105.0287,185.163898 C105.3387,186.189006 105.6457,187.205303 105.9567,188.243139" id="Fill-93" fill="#FFFFFF" mask="url(#mask-2)"></path>
                                <path d="M102.112,184.927252 C95.307,181.047115 78.096,171.583223 62.767,165.935827 C63.172,167.093112 63.579,168.24746 63.993,169.393976 C81.041,176.014588 100.112,186.979426 103.287,188.82795 C102.893,187.515968 102.503,186.22161 102.112,184.927252" id="Fill-94" fill="#FFFFFF" mask="url(#mask-2)"></path>
                                <path d="M104.6813,189.651561 L105.9563,188.243628 C105.6463,187.205792 105.3383,186.189496 105.0293,185.164388 L104.1713,186.111168 C103.6753,185.823316 102.9453,185.402307 102.1123,184.927448 C102.5023,186.221806 102.8933,187.515185 103.2863,188.828146 C103.5663,188.990675 103.7323,189.088584 103.7523,189.101312 L104.6813,189.651561 Z" id="Fill-95" fill="#FFFFFF" mask="url(#mask-2)"></path>
                                <path d="M122.4157,260.386077 C115.1587,258.483703 90.9847,251.59482 77.7497,241.192959 C77.4617,242.112325 77.1437,243.028754 76.8037,243.944204 C91.7437,255.295784 117.8317,262.16019 123.0667,263.457485 C122.8487,262.433356 122.6407,261.414122 122.4157,260.386077" id="Fill-96" fill="#FFFFFF" mask="url(#mask-2)"></path>
                                <path d="M125.6588,262.56896 C128.2688,258.019125 147.9048,223.665764 157.5428,203.453413 C156.9018,202.668182 156.2628,201.895679 155.6238,201.128072 C147.3338,218.713523 130.2658,248.955681 124.8028,258.553708 C125.0988,259.898 125.3738,261.230543 125.6588,262.56896" id="Fill-97" fill="#FFFFFF" mask="url(#mask-2)"></path>
                                <path d="M123.5846,260.688224 C123.2726,260.608918 122.8646,260.504155 122.4156,260.385685 C122.6406,261.413731 122.8486,262.432964 123.0666,263.457093 C123.5136,263.567731 123.8106,263.639204 123.9346,263.668577 L124.8976,263.893768 L125.4036,263.013565 C125.4496,262.93328 125.5426,262.772709 125.6586,262.569058 C125.3736,261.230641 125.0996,259.898098 124.8026,258.553806 C124.2946,259.445758 123.8756,260.179097 123.5846,260.688224" id="Fill-98" fill="#FFFFFF" mask="url(#mask-2)"></path>
                                <path d="M461.1286,229.473927 C427.9406,201.442556 367.2026,292.226797 368.4966,299.023645 C376.1416,292.371702 387.3766,282.61702 403.8306,268.366353 C431.4546,244.441289 450.4296,233.998306 461.1286,229.473927" id="Fill-99" fill="#76ABFF" mask="url(#mask-2)"></path>
                                <path d="M404.9128,269.562116 C388.8508,283.47206 377.7728,293.090648 370.1438,299.726926 C384.1588,300.195911 483.3318,265.139563 468.9988,239.426679 C466.9988,235.838311 464.8118,232.969575 462.4798,230.715708 C452.0378,235.056997 432.8298,245.383468 404.9128,269.562116" id="Fill-100" fill="#4A75FF" mask="url(#mask-2)"></path>
                                <path d="M370.1442,299.726535 C377.7732,293.091236 388.8512,283.471668 404.9132,269.561725 C432.8302,245.383076 452.0382,235.056605 462.4802,230.716295 C462.0342,230.283537 461.5852,229.86057 461.1282,229.473829 C450.4292,233.998208 431.4552,244.441191 403.8312,268.366255 C387.3762,282.616922 376.1412,292.371604 368.4972,299.023547 C368.5142,299.113624 368.5322,299.201742 368.5712,299.261466 C368.7592,299.551277 369.3082,299.69912 370.1442,299.726535" id="Fill-101" fill="#FFFFFF" mask="url(#mask-2)"></path>
                                <path d="M387.0465,289.878251 C411.9775,284.875097 451.8575,279.539052 465.9075,277.718922 C456.8705,243.71216 393.4675,282.263862 387.0465,289.878251" id="Fill-102" fill="#76ABFF" mask="url(#mask-2)"></path>
                                <path d="M466.6012,281.13918 C466.4942,280.384301 466.3582,279.664669 466.2072,278.966578 C452.1812,280.782791 411.6452,286.199122 386.7492,291.237523 C391.5562,295.963595 471.0502,312.399593 466.6012,281.13918" id="Fill-103" fill="#4A75FF" mask="url(#mask-2)"></path>
                                <path d="M386.5133,290.874574 C386.5303,290.985211 386.6173,291.108577 386.7493,291.237817 C411.6453,286.199415 452.1813,280.782106 466.2073,278.966871 C466.1153,278.539988 466.0153,278.124853 465.9083,277.718531 C451.8573,279.539639 411.9773,284.874705 387.0463,289.87786 C386.6743,290.318451 386.4823,290.661132 386.5133,290.874574" id="Fill-104" fill="#FFFFFF" mask="url(#mask-2)"></path>
                                <path d="M377.6403,259.300804 L377.6853,259.300804 C389.1803,259.319455 398.4133,262.745294 405.1293,269.482418 C414.1763,278.563486 416.9363,291.769463 417.6763,301.123697 C414.9453,301.128593 412.0103,301.114885 408.9233,301.08845 C407.8813,294.784084 405.4603,287.390969 399.9933,281.905123 C394.8213,276.713004 387.7663,274.075333 379.0253,274.061626 L378.9913,274.061626 C364.1193,274.04694 353.3773,279.10884 347.0613,289.112211 C344.9133,292.513572 343.5873,296.077463 342.7743,299.314337 C337.6173,299.104812 332.7253,298.888433 328.2343,298.671075 C329.1123,292.230615 331.5793,283.065346 337.9843,275.198351 C346.5863,264.632002 359.9293,259.28225 377.6403,259.300804" id="Fill-105" fill="#CCF3FF" mask="url(#mask-2)"></path>
                                <path d="M377.5251,224.257077 C442.6001,224.358079 438.6021,296.25272 438.5991,299.845004 C438.5981,300.430501 434.9981,300.787869 428.9931,300.971938 C428.7521,289.063256 426.1871,267.505634 412.0471,253.314691 C403.0141,244.249289 390.6711,239.641688 375.3591,239.61721 L375.2981,239.61721 C349.1511,239.590775 330.2831,248.463296 319.2091,265.990001 C311.8521,277.634329 309.8681,290.323346 309.5891,297.5882 C305.2421,297.261184 302.6591,296.96354 302.5361,296.721705 C301.6201,294.932906 298.9431,224.135826 377.5251,224.257077" id="Fill-106" fill="#CCF3FF" mask="url(#mask-2)"></path>
                                <path d="M406.8795,267.811502 C399.6885,260.593644 389.8665,256.92597 377.6905,256.905409 L377.6415,256.905409 C356.8725,256.884848 341.8795,263.940177 333.0745,277.878514 C328.5335,285.066999 326.5865,292.752862 325.8385,298.552996 C320.4625,298.283746 315.7525,298.016454 312.0035,297.761891 C312.3185,290.228766 314.5505,275.181119 324.5895,262.609592 C335.5205,248.919944 352.5815,241.989939 375.2965,242.012403 L375.3545,242.012403 C389.9835,242.035956 401.7395,246.401722 410.2955,254.98737 C423.8635,268.604565 426.3175,289.483678 426.5465,301.034992 C424.5935,301.076113 422.4465,301.102549 420.1285,301.115277 C419.3735,291.372344 416.4915,277.457505 406.8795,267.811502" id="Fill-107" fill="#CCF3FF" mask="url(#mask-2)"></path>
                                <path d="M351.3512,287.334965 C357.3922,280.1034 366.6912,276.443558 378.9882,276.456254 L379.0202,276.456254 C387.0792,276.469015 393.5462,278.86485 398.2432,283.577214 C403.1722,288.52456 405.4342,295.229374 406.4472,301.063777 C388.1582,300.865021 365.0342,300.19826 345.2362,299.414009 C346.2752,295.572056 348.1142,291.209227 351.3512,287.334965" id="Fill-108" fill="#6ED9F9" mask="url(#mask-2)"></path>
                                <path d="M375.2985,239.617641 L375.3595,239.617641 C390.6705,239.641198 403.0145,244.2488 412.0475,253.314202 C426.1875,267.505144 428.7515,289.063746 428.9925,300.971449 C428.2155,300.994947 427.4025,301.016487 426.5465,301.035089 C426.3185,289.483776 423.8635,268.603684 410.2955,254.987468 C401.7395,246.40182 389.9845,242.036054 375.3545,242.012556 L375.2965,242.012556 C352.5815,241.990037 335.5205,248.920042 324.5895,262.608711 C314.5505,275.181217 312.3195,290.228864 312.0035,297.761989 C311.1445,297.703243 310.3445,297.646456 309.5895,297.58869 C309.8675,290.322856 311.8525,277.633839 319.2085,265.990491 C330.2825,248.462807 349.1515,239.591264 375.2985,239.617641" id="Fill-109" fill="#6ED9F9" mask="url(#mask-2)"></path>
                                <path d="M405.1295,269.48281 C398.4135,262.744707 389.1805,259.318868 377.6855,259.301244 L377.6885,258.103816 L377.6855,259.301244 L377.6405,259.301244 C359.9295,259.282642 346.5865,264.632394 337.9835,275.198742 C331.5795,283.065737 329.1115,292.230028 328.2335,298.671466 C327.4215,298.631323 326.6225,298.59216 325.8385,298.552996 C326.5865,292.752862 328.5335,285.066999 333.0745,277.878514 C341.8795,263.940177 356.8725,256.884848 377.6415,256.905364 L377.6905,256.905364 C389.8665,256.92597 399.6885,260.593644 406.8795,267.811502 C416.4915,277.457505 419.3735,291.372344 420.1285,301.115277 C419.3295,301.120172 418.5145,301.122131 417.6765,301.12311 C416.9365,291.769855 414.1765,278.562898 405.1295,269.48281" id="Fill-110" fill="#6ED9F9" mask="url(#mask-2)"></path>
                                <path d="M378.9909,274.061786 L379.0249,274.061786 L379.0229,275.25925 L379.0249,274.061786 C387.7659,274.075529 394.8209,276.7132 399.9929,281.905319 C405.4609,287.391165 407.8819,294.78428 408.9239,301.088646 C408.1079,301.081792 407.2839,301.073959 406.4469,301.064168 C405.4339,295.229766 403.1729,288.523973 398.2429,283.577606 C393.5469,278.864263 387.0789,276.469406 379.0199,276.455699 L378.9879,276.455699 C366.6909,276.44395 357.3919,280.103792 351.3509,287.335357 C348.1139,291.209619 346.2749,295.572448 345.2359,299.4144 C344.4109,299.380132 343.5879,299.347822 342.7739,299.314533 C343.5879,296.07668 344.9139,292.513768 347.0609,289.112406 C353.3779,279.109035 364.1189,274.046157 378.9909,274.061786" id="Fill-111" fill="#6ED9F9" mask="url(#mask-2)"></path>
                                <path d="M413.1823,273.243302 C413.1823,273.271696 413.1983,273.242323 413.1823,273.243302" id="Fill-112" fill="#FFFFFF" mask="url(#mask-2)"></path>
                                <path d="M413.1803,273.244281 L413.1823,273.243302 L413.1823,273.240365 L413.1813,273.237428 C413.1813,273.240365 413.1803,273.241344 413.1803,273.244281" id="Fill-113" fill="#FFFFFF" mask="url(#mask-2)"></path>
                                <polygon id="Fill-114" fill="#EEF7FF" mask="url(#mask-2)" points="48.167 219.021643 166.027 219.021643 166.027 133.470643 48.167 133.470643"></polygon>
                                <polygon id="Fill-115" fill="#4A75FF" mask="url(#mask-2)" points="48.167 144.509892 166.027 144.509892 166.027 133.470643 48.167 133.470643"></polygon>
                                <path d="M50.6501,139.319144 C50.6501,140.770157 51.8521,141.948003 53.3351,141.948003 C54.8171,141.948003 56.0191,140.770157 56.0191,139.319144 C56.0191,137.867153 54.8171,136.690285 53.3351,136.690285 C51.8521,136.690285 50.6501,137.867153 50.6501,139.319144" id="Fill-116" fill="#FAFBFD" mask="url(#mask-2)"></path>
                                <path d="M58.2731,139.319144 C58.2731,140.770157 59.4751,141.948003 60.9581,141.948003 C62.4401,141.948003 63.6421,140.770157 63.6421,139.319144 C63.6421,137.867153 62.4401,136.690285 60.9581,136.690285 C59.4751,136.690285 58.2731,137.867153 58.2731,139.319144" id="Fill-117" fill="#FAFBFD" mask="url(#mask-2)"></path>
                                <path d="M65.8961,139.319144 C65.8961,140.770157 67.0981,141.948003 68.5811,141.948003 C70.0641,141.948003 71.2651,140.770157 71.2651,139.319144 C71.2651,137.867153 70.0641,136.690285 68.5811,136.690285 C67.0981,136.690285 65.8961,137.867153 65.8961,139.319144" id="Fill-118" fill="#FAFBFD" mask="url(#mask-2)"></path>
                                <polygon id="Fill-119" fill="#A6DFFF" mask="url(#mask-2)" points="100.617 152.469901 117.788 152.469901 117.788 150.788802 100.617 150.788802"></polygon>
                                <polygon id="Fill-120" fill="#A6DFFF" mask="url(#mask-2)" points="150.462 156.87581 159.048 156.87581 159.048 155.194711 150.462 155.194711"></polygon>
                                <polygon id="Fill-121" fill="#A6DFFF" mask="url(#mask-2)" points="67.469 156.87581 106.103 156.87581 106.103 155.194711 67.469 155.194711"></polygon>
                                <polygon id="Fill-122" fill="#A6DFFF" mask="url(#mask-2)" points="64.617 192.557796 72.138 192.557796 72.138 190.876697 64.617 190.876697"></polygon>
                                <polygon id="Fill-123" fill="#A6DFFF" mask="url(#mask-2)" points="55.715 165.687627 72.886 165.687627 72.886 164.006528 55.715 164.006528"></polygon>
                                <polygon id="Fill-124" fill="#A6DFFF" mask="url(#mask-2)" points="96.324 161.281718 130.666 161.281718 130.666 159.600619 96.324 159.600619"></polygon>
                                <polygon id="Fill-125" fill="#A6DFFF" mask="url(#mask-2)" points="137.584 161.281718 159.048 161.281718 159.048 159.600619 137.584 159.600619"></polygon>
                                <polygon id="Fill-126" fill="#A6DFFF" mask="url(#mask-2)" points="55.715 170.093536 94.35 170.093536 94.35 168.412437 55.715 168.412437"></polygon>
                                <polygon id="Fill-127" fill="#A6DFFF" mask="url(#mask-2)" points="104.841 170.093536 122.012 170.093536 122.012 168.412437 104.841 168.412437"></polygon>
                                <polygon id="Fill-128" fill="#A6DFFF" mask="url(#mask-2)" points="105.322 182.628836 136.912 182.628836 136.912 180.947737 105.322 180.947737"></polygon>
                                <polygon id="Fill-129" fill="#A6DFFF" mask="url(#mask-2)" points="55.715 206.712513 78.037 206.712513 78.037 205.030435 55.715 205.030435"></polygon>
                                <polygon id="Fill-130" fill="#A6DFFF" mask="url(#mask-2)" points="64.617 187.254061 79.66 187.254061 79.66 185.572962 64.617 185.572962"></polygon>
                                <polygon id="Fill-131" fill="#A6DFFF" mask="url(#mask-2)" points="94.748 182.628836 102.269 182.628836 102.269 180.947737 94.748 180.947737"></polygon>
                                <polygon id="Fill-132" fill="#B8D5FF" mask="url(#mask-2)" points="141.877 152.469901 159.048 152.469901 159.048 150.788802 141.877 150.788802"></polygon>
                                <polygon id="Fill-133" fill="#B8D5FF" mask="url(#mask-2)" points="55.715 152.469901 98.643 152.469901 98.643 150.788802 55.715 150.788802"></polygon>
                                <polygon id="Fill-134" fill="#B8D5FF" mask="url(#mask-2)" points="55.715 156.87581 64.301 156.87581 64.301 155.194711 55.715 155.194711"></polygon>
                                <polygon id="Fill-135" fill="#B8D5FF" mask="url(#mask-2)" points="108.713 156.87581 113.006 156.87581 113.006 155.194711 108.713 155.194711"></polygon>
                                <polygon id="Fill-136" fill="#B8D5FF" mask="url(#mask-2)" points="100.349 192.557796 104.11 192.557796 104.11 190.876697 100.349 190.876697"></polygon>
                                <polygon id="Fill-137" fill="#B8D5FF" mask="url(#mask-2)" points="74.962 192.557796 97.526 192.557796 97.526 190.876697 74.962 190.876697"></polygon>
                                <polygon id="Fill-138" fill="#B8D5FF" mask="url(#mask-2)" points="74.861 165.687627 117.788 165.687627 117.788 164.006528 74.861 164.006528"></polygon>
                                <polygon id="Fill-139" fill="#B8D5FF" mask="url(#mask-2)" points="55.715 161.281718 94.35 161.281718 94.35 159.600619 55.715 159.600619"></polygon>
                                <polygon id="Fill-140" fill="#B8D5FF" mask="url(#mask-2)" points="148.745 170.093536 159.048 170.093536 159.048 168.412437 148.745 168.412437"></polygon>
                                <polygon id="Fill-141" fill="#B8D5FF" mask="url(#mask-2)" points="106.933 192.557796 138.522 192.557796 138.522 190.876697 106.933 190.876697"></polygon>
                                <polygon id="Fill-142" fill="#B8D5FF" mask="url(#mask-2)" points="55.715 174.499445 68.594 174.499445 68.594 172.817367 55.715 172.817367"></polygon>
                                <polygon id="Fill-143" fill="#B8D5FF" mask="url(#mask-2)" points="146.17 182.628836 159.048 182.628836 159.048 180.947737 146.17 180.947737"></polygon>
                                <polygon id="Fill-144" fill="#B8D5FF" mask="url(#mask-2)" points="103.181 174.499445 107.474 174.499445 107.474 172.817367 103.181 172.817367"></polygon>
                                <polygon id="Fill-145" fill="#B8D5FF" mask="url(#mask-2)" points="70.659 174.499445 96.416 174.499445 96.416 172.817367 70.659 172.817367"></polygon>
                                <polygon id="Fill-146" fill="#B8D5FF" mask="url(#mask-2)" points="55.716 202.305625 62.585 202.305625 62.585 200.623547 55.716 200.623547"></polygon>
                                <polygon id="Fill-147" fill="#B8D5FF" mask="url(#mask-2)" points="64.963 202.305625 80.417 202.305625 80.417 200.623547 64.963 200.623547"></polygon>
                                <polygon id="Fill-148" fill="#B8D5FF" mask="url(#mask-2)" points="55.715 211.118421 98.643 211.118421 98.643 209.436343 55.715 209.436343"></polygon>
                                <polygon id="Fill-149" fill="#B8D5FF" mask="url(#mask-2)" points="82.248 187.254061 119.854 187.254061 119.854 185.572962 82.248 185.572962"></polygon>
                                <polygon id="Fill-150" fill="#B8D5FF" mask="url(#mask-2)" points="64.617 182.628836 91.694 182.628836 91.694 180.947737 64.617 180.947737"></polygon>
                                <polygon id="Fill-151" fill="#EBF6FF" mask="url(#mask-2)" points="318.978 151.417378 444.442 151.417378 444.442 60.3472433 318.978 60.3472433"></polygon>
                                <polygon id="Fill-152" fill="#4A75FF" mask="url(#mask-2)" points="318.978 72.0992707 444.442 72.0992707 444.442 60.3472433 318.978 60.3472433"></polygon>
                                <path d="M321.6217,66.5728903 C321.6217,68.1188748 322.9017,69.3711319 324.4797,69.3711319 C326.0587,69.3711319 327.3377,68.1188748 327.3377,66.5728903 C327.3377,65.027885 326.0587,63.7756278 324.4797,63.7756278 C322.9017,63.7756278 321.6217,65.027885 321.6217,66.5728903" id="Fill-153" fill="#FAFBFD" mask="url(#mask-2)"></path>
                                <path d="M329.737,66.5728903 C329.737,68.1188748 331.016,69.3711319 332.594,69.3711319 C334.174,69.3711319 335.453,68.1188748 335.453,66.5728903 C335.453,65.027885 334.174,63.7756278 332.594,63.7756278 C331.016,63.7756278 329.737,65.027885 329.737,66.5728903" id="Fill-154" fill="#FAFBFD" mask="url(#mask-2)"></path>
                                <path d="M337.8522,66.5728903 C337.8522,68.1188748 339.1312,69.3711319 340.7092,69.3711319 C342.2882,69.3711319 343.5682,68.1188748 343.5682,66.5728903 C343.5682,65.027885 342.2882,63.7756278 340.7092,63.7756278 C339.1312,63.7756278 337.8522,65.027885 337.8522,66.5728903" id="Fill-155" fill="#FAFBFD" mask="url(#mask-2)"></path>
                                <polygon id="Fill-156" fill="#27D6FF" mask="url(#mask-2)" points="342.229 127.16334 351.759 127.16334 351.759 111.167933 342.229 111.167933"></polygon>
                                <polygon id="Fill-157" fill="#94EBFF" mask="url(#mask-2)" points="356.116 127.16334 365.646 127.16334 365.646 119.166126 356.116 119.166126"></polygon>
                                <polygon id="Fill-158" fill="#27D6FF" mask="url(#mask-2)" points="370.003 127.164319 379.532 127.164319 379.532 100.505633 370.003 100.505633"></polygon>
                                <polygon id="Fill-159" fill="#94EBFF" mask="url(#mask-2)" points="383.889 127.16334 393.419 127.16334 393.419 113.833997 383.889 113.833997"></polygon>
                                <polygon id="Fill-160" fill="#27D6FF" mask="url(#mask-2)" points="397.775 127.16334 407.305 127.16334 407.305 109.83539 397.775 109.83539"></polygon>
                                <polygon id="Fill-161" fill="#94EBFF" mask="url(#mask-2)" points="411.662 127.164319 421.191 127.164319 421.191 116.500061 411.662 116.500061"></polygon>
                                <polygon id="Fill-162" fill="#FCDFC3" mask="url(#mask-2)" points="90.9489 308.623533 92.0429 317.838736 95.3239 318.097216 95.1599 308.801728"></polygon>
                                <path d="M96.1999,316.68664 C96.1999,316.68664 92.8939,316.877563 91.4379,316.68664 C91.0539,318.191502 91.2459,321.784766 91.2459,321.784766 L102.3299,322.000166 C102.3299,322.000166 103.2829,320.706787 101.1379,319.845187 C98.9929,318.982608 96.1999,316.68664 96.1999,316.68664" id="Fill-163" fill="#081C5B" mask="url(#mask-2)"></path>
                                <path d="M132.4401,165.530875 C130.6111,169.274918 130.4381,169.075184 128.5211,172.788875 C126.6021,176.505504 124.6451,180.198635 122.6381,183.856518 C120.6281,187.509506 118.5691,191.130184 116.4151,194.648057 C115.3361,196.403567 114.2301,198.131663 113.0871,199.788284 C112.8041,200.205377 112.5161,200.613658 112.2231,201.01019 L111.7881,201.612331 L111.3451,202.186078 C110.7571,202.965434 110.1531,203.654714 109.5751,204.27252 L109.5061,204.346931 C108.0311,205.926205 108.1421,208.377848 109.7551,209.822007 C111.3691,211.266166 113.8731,211.157487 115.3481,209.577235 C115.4091,209.513594 115.4721,209.439183 115.5271,209.371625 C116.3231,208.390576 117.0281,207.42813 117.6401,206.478412 L118.1091,205.765634 L118.5481,205.053835 C118.8451,204.579955 119.1281,204.105096 119.4021,203.631216 C120.5091,201.736675 121.5301,199.839197 122.5121,197.935844 C124.4671,194.12816 126.2801,190.296978 128.0361,186.449151 C129.7861,182.601324 131.4741,178.736852 133.1221,174.858673 C134.7681,170.978536 135.2771,168.095114 136.8411,164.169938 C137.2541,163.13406 137.8271,160.969291 136.7681,160.564926 C135.7591,160.178185 134.9871,163.344565 134.5251,164.284492 L132.4401,165.530875 Z" id="Fill-164" fill="#FCDFC3" mask="url(#mask-2)"></path>
                                <path d="M82.8131,216.850019 C82.5501,216.949887 82.4211,217.008632 82.2421,217.086959 C82.0781,217.16137 81.9141,217.234802 81.7561,217.31215 C81.4391,217.463909 81.1301,217.623501 80.8251,217.789946 C80.2141,218.1199 79.6221,218.492934 79.0391,218.896319 C77.8811,219.717776 76.7471,220.681202 75.7931,221.989267 C75.6751,222.153754 75.5571,222.314325 75.4441,222.483708 L75.1261,223.022208 C74.9091,223.369785 74.7501,223.786878 74.5761,224.17264 C74.4941,224.372374 74.4351,224.587774 74.3691,224.796321 C74.3101,225.008783 74.2311,225.211455 74.1981,225.43273 C74.1261,225.869404 74.0251,226.30412 74.0281,226.74569 C74.0201,226.966965 74.0161,227.18726 74.0141,227.405598 C74.0141,227.624914 74.0491,227.836398 74.0691,228.049839 C74.0941,228.263281 74.1191,228.477702 74.1511,228.688207 L74.2991,229.290348 C74.3531,229.488124 74.4021,229.691775 74.4631,229.884656 L74.6791,230.434905 L74.9031,230.980258 C74.9871,231.15062 75.0781,231.31217 75.1671,231.477636 C75.5081,232.161042 75.9291,232.72304 76.3371,233.306578 L76.9961,234.092788 C77.1071,234.221049 77.2131,234.359101 77.3291,234.47855 L77.6751,234.831023 L78.3721,235.53401 L79.0931,236.171398 C79.3361,236.378965 79.5711,236.605135 79.8211,236.7941 L80.5641,237.372742 C82.5531,238.891312 84.6271,240.148465 86.7251,241.320437 L85.7571,238.567233 L83.7491,245.871251 C83.5221,246.694666 84.0211,247.544517 84.8631,247.765792 C85.6031,247.960631 86.3621,247.6062 86.6891,246.958042 L90.1151,240.177838 L90.8441,238.735637 L89.1471,237.425613 C87.2861,236.195875 85.4851,234.901517 83.9011,233.490647 L83.3141,232.960959 C83.1151,232.785702 82.9511,232.594779 82.7671,232.413647 L82.2301,231.865356 L81.7531,231.300421 L81.5141,231.020401 C81.4361,230.926408 81.3761,230.828499 81.3061,230.733527 L80.8981,230.166634 C80.6861,229.784788 80.4371,229.408818 80.3041,229.046554 C79.9881,228.317131 79.8991,227.681701 79.9801,227.178449 C79.9751,227.046271 80.0491,226.92878 80.0671,226.803457 C80.0731,226.741774 80.1221,226.68205 80.1421,226.620367 C80.1721,226.559663 80.1841,226.49798 80.2201,226.436298 C80.3081,226.313911 80.3431,226.18663 80.4541,226.060327 C80.5001,225.997665 80.5451,225.933045 80.5881,225.868425 L80.7581,225.675544 C81.2041,225.151731 81.8841,224.633791 82.6501,224.178514 C83.0391,223.954302 83.4451,223.736944 83.8721,223.54798 C84.0841,223.453008 84.2981,223.361952 84.5111,223.27873 L84.8271,223.162218 C84.9161,223.131866 85.0571,223.082912 85.0681,223.08487 C87.0481,223.449092 88.9551,222.172357 89.3271,220.232778 C89.6991,218.294178 88.3941,216.426073 86.4141,216.06283 C85.7271,215.936528 85.0491,216.008001 84.4411,216.23515 L82.8131,216.850019 Z" id="Fill-165" fill="#FCDFC3" mask="url(#mask-2)"></path>
                                <path d="M105.5182,188.826383 C105.5182,188.826383 111.5922,201.657369 104.0802,203.222935 C96.5672,204.788501 100.4042,191.643228 100.4042,191.643228 L105.5182,188.826383 Z" id="Fill-166" fill="#FCDFC3" mask="url(#mask-2)"></path>
                                <polygon id="Fill-167" fill="#FCDFC3" mask="url(#mask-2)" points="99.5817 307.794537 99.9197 317.934981 103.0547 318.358927 104.1357 308.094139"></polygon>
                                <path d="M90.654,220.906882 C90.64,216.954292 90.363,212.970372 90.299,208.996242 L104.992,206.515226 L111.983,200.098264 L118.1,206.943089 L109.798,216.355089 L107.596,239.685845 L90.654,239.685845 L90.191,222.009338 C90.47,221.757712 90.655,221.390553 90.654,220.906882" id="Fill-168" fill="#1E41D3" mask="url(#mask-2)"></path>
                                <path d="M78.3463,218.55961 C78.9423,218.325607 84.4293,213.216711 87.1793,210.634848 C87.2633,214.056771 87.4463,217.483589 87.4563,220.906491 C87.4593,221.644725 87.8903,222.111751 88.4343,222.309528 L83.4603,224.975592 C83.4603,224.975592 77.5463,218.87194 78.3463,218.55961" id="Fill-169" fill="#1E41D3" mask="url(#mask-2)"></path>
                                <path d="M104.5592,313.549535 L98.8052,312.922917 L99.2612,258.206425 L97.8392,258.067394 L96.2452,312.643876 L90.3002,312.539113 C90.3002,312.539113 87.2972,268.94901 86.3372,260.811786 C85.3782,252.674562 86.9772,243.284101 90.6542,239.685942 L107.5962,239.685942 C107.5962,239.685942 111.4172,248.182493 110.6182,258.823252 C109.8192,269.46597 104.5592,313.549535 104.5592,313.549535" id="Fill-170" fill="#4A75FF" mask="url(#mask-2)"></path>
                                <path d="M91.6217,239.71228 C91.3497,239.707385 91.0607,239.761235 90.7737,239.880684 C90.6037,239.951178 90.4367,240.021673 90.2687,240.094125 C90.3947,239.951178 90.5227,239.814105 90.6537,239.685845 L91.6727,239.685845 C91.6557,239.694656 91.6387,239.702489 91.6217,239.71228" id="Fill-171" fill="#00848A" mask="url(#mask-2)"></path>
                                <path d="M104.2399,185.383312 C104.2399,185.383312 106.7979,185.852297 107.7569,189.451435 L101.6819,194.460464 C101.6819,194.460464 105.9979,211.830514 98.4859,217.306569 C90.9729,222.784583 83.1409,226.540375 84.2609,222.158944 C85.3789,217.776533 86.1779,215.898637 84.5799,212.456153 C82.9809,209.01367 83.9399,205.726862 86.3379,201.502085 C88.7359,197.276329 87.7769,198.215277 88.4159,192.268279 C89.0549,186.32226 96.0879,179.749624 104.2399,185.383312" id="Fill-172" fill="#1A2982" mask="url(#mask-2)"></path>
                                <path d="M104.5192,317.786257 C104.5192,317.786257 99.8122,317.40637 99.0552,317.194886 C98.3792,318.110336 98.5682,322.710105 98.5682,322.710105 L110.3442,322.939212 C110.3442,322.939212 111.3582,321.564568 109.0792,320.649118 C106.7982,319.732689 104.5192,317.786257 104.5192,317.786257" id="Fill-173" fill="#1A2982" mask="url(#mask-2)"></path>
                                <path d="M405.6657,283.405188 C405.6657,283.405188 406.4997,294.372964 404.9317,300.092812 C403.3627,305.81364 403.9477,316.172421 403.9477,316.172421 L404.1717,317.540211 C404.1717,317.540211 399.9897,319.778413 399.3927,319.343697 C398.7947,318.908001 401.7817,315.923732 401.7817,315.923732 L399.7657,282.721783 L405.6657,283.405188 Z" id="Fill-174" fill="#FFEBD2" mask="url(#mask-2)"></path>
                                <path d="M389.7897,280.152452 C389.7897,280.152452 386.9787,283.199383 387.1277,285.06553 C387.2767,286.930698 385.0757,297.136741 383.6567,299.997645 C382.2377,302.85659 380.5437,315.813878 380.3937,316.12425 C380.3397,316.237825 380.1307,317.479312 379.7897,317.936547 C379.1977,318.729611 375.6487,318.962634 374.3487,318.438821 C373.2487,317.997251 377.3827,316.834091 377.6127,315.923536 C378.4527,312.599523 380.8927,305.509926 381.7707,302.680354 C382.8927,299.073383 385.6547,281.229452 385.6547,281.229452 L389.7897,280.152452 Z" id="Fill-175" fill="#FFEBD2" mask="url(#mask-2)"></path>
                                <path d="M404.1715,317.540505 C404.1715,317.540505 405.2925,319.717024 404.8445,320.027396 C404.3965,320.337768 394.6845,323.144821 394.5145,321.241468 C394.4305,320.311332 399.8405,318.037883 399.8405,318.037883 C399.8405,318.037883 398.7945,319.219646 399.3925,319.34399 C399.9895,319.468335 404.1715,317.540505 404.1715,317.540505" id="Fill-176" fill="#1A2982" mask="url(#mask-2)"></path>
                                <path d="M380.3346,316.634063 C380.3346,316.634063 381.4546,318.810582 381.0066,319.121932 C380.5586,319.432304 370.8476,322.238379 370.6766,320.335026 C370.5926,319.40489 376.0026,317.13242 376.0026,317.13242 C376.0026,317.13242 374.9566,318.313203 375.5546,318.437548 C376.1516,318.561893 380.3346,316.634063 380.3346,316.634063" id="Fill-177" fill="#1A2982" mask="url(#mask-2)"></path>
                                <path d="M380.6217,284.597525 C382.6097,275.608492 389.0087,252.376624 389.0087,252.376624 L399.9517,248.400536 C399.9517,248.400536 400.5607,253.15696 401.7157,257.419921 C401.2267,257.44244 400.2547,263.324818 399.1677,265.287895 C396.6197,269.893539 389.0087,283.037833 388.3717,288.235826 C387.4597,295.676917 382.2517,314.73492 382.2517,314.73492 L376.9297,314.543018 C376.9297,314.543018 379.2257,290.911682 380.6217,284.597525" id="Fill-178" fill="#06B3EF" mask="url(#mask-2)"></path>
                                <path d="M402.5758,249.354073 L392.6938,250.115806 L390.1518,253.581787 C390.1518,253.581787 392.7818,259.743206 394.9498,269.369627 C396.2778,275.26767 396.9158,287.295801 397.5538,293.272172 C398.1738,299.075243 399.8368,314.947285 399.8368,314.947285 L405.7818,314.843501 C405.7818,314.843501 407.1468,304.146934 406.2318,290.767657 C405.2568,276.510137 407.7508,259.342758 407.6928,257.365973 C407.4778,250.015938 402.5758,249.354073 402.5758,249.354073" id="Fill-179" fill="#1AC1F3" mask="url(#mask-2)"></path>
                                <path d="M406.9762,262.587073 C406.9762,262.587073 404.8912,267.944658 405.4132,269.857802 C405.9332,271.770945 408.5392,268.453785 408.6692,267.17803 C408.7992,265.903254 408.2792,262.969898 408.2792,262.969898 L406.9762,262.587073 Z" id="Fill-180" fill="#FFEBD2" mask="url(#mask-2)"></path>
                                <path d="M376.5592,230.553473 C376.5592,230.553473 376.5592,228.944826 376.0672,228.702991 C375.5742,228.462135 373.4382,226.854467 373.1092,226.371776 C372.7812,225.888105 371.5482,222.670812 372.3702,222.832362 C373.1912,222.992933 375.9022,225.486678 375.9022,225.486678 C375.9022,225.486678 375.3282,223.71746 375.5742,223.395339 C375.8202,223.073219 377.2162,225.325128 377.3812,225.727534 C377.5452,226.12994 377.9552,230.714044 377.9552,230.714044 L376.5592,230.553473 Z" id="Fill-181" fill="#FFEBD2" mask="url(#mask-2)"></path>
                                <path d="M396.8503,205.861976 C396.2753,206.585525 393.2363,212.215297 393.4003,213.905208 C393.5643,215.59316 393.5643,217.201807 396.0293,218.327761 L391.4283,225.486873 L389.8683,231.599337 L397.6713,231.679623 C397.6713,231.679623 403.4223,229.346449 403.4223,228.46233 C403.4223,227.578211 401.4513,218.811432 401.4513,218.811432 L403.0113,207.953314 L398.2463,205.138428 L397.1333,205.715113 L396.8503,205.861976 Z" id="Fill-182" fill="#FFEBD2" mask="url(#mask-2)"></path>
                                <path d="M401.2038,210.607336 C401.2038,210.607336 400.0288,218.900235 400.6858,221.715122 C401.3438,224.530008 403.2338,230.029561 403.2338,230.029561 L408.4088,238.86194 C408.4088,238.86194 414.0568,240.173921 417.6718,236.162586 C420.856891,232.628068 423.9348,224.209845 414.8058,218.804285 C414.8058,218.804285 416.0548,215.698608 413.4258,213.60727 C410.7968,211.515932 409.4188,208.434733 409.4188,208.434733 C409.4188,208.434733 410.0758,202.483819 402.5178,201.920842 C394.9608,201.357865 395.1258,205.700133 395.1258,205.700133 C395.1258,205.700133 387.0748,216.317394 393.7278,221.70631 L396.0288,218.328446 C396.0288,218.328446 392.9068,216.317394 393.3998,213.904914 C393.8928,211.491455 396.8498,205.861683 396.8498,205.861683 C396.8498,205.861683 397.2618,209.240525 401.2038,210.607336" id="Fill-183" fill="#1A2982" mask="url(#mask-2)"></path>
                                <path d="M390.8532,223.5564 C389.8682,223.716971 387.2042,224.833134 386.2492,228.055322 C385.3022,231.2452 383.4592,242.215913 383.4592,242.215913 L379.1062,230.312127 L375.9022,230.070291 C375.9022,230.070291 377.6272,243.904845 381.5712,247.443279 C385.5132,250.982693 387.2392,244.950514 387.2392,244.950514 L389.2922,238.193808 L390.8532,223.5564 Z" id="Fill-184" fill="#4A75FF" mask="url(#mask-2)"></path>
                                <path d="M393.8932,226.290903 C395.5232,226.865629 398.8222,223.877444 400.6292,221.70582 C400.6292,221.70582 403.6682,223.797158 405.7222,224.27985 C405.7222,224.27985 407.8452,229.289858 405.3572,235.850746 C403.9772,239.488068 405.0222,246.515003 405.0222,246.515003 C405.0222,246.515003 407.9052,253.104285 407.9052,254.45543 C407.9052,255.89861 392.8092,259.200104 387.7352,254.663976 C386.5932,253.642785 389.8582,247.59494 389.8932,244.979789 C389.9102,243.737322 389.9502,241.411003 388.9632,239.883621 C387.9782,238.35526 386.2042,234.15496 387.8402,230.549948 C388.6902,228.677926 390.8532,223.556302 390.8532,223.556302 L393.7282,221.70582 C393.7282,221.70582 391.8392,225.567355 393.8932,226.290903" id="Fill-185" fill="#1E41D3" mask="url(#mask-2)"></path>
                                <path d="M404.3258,229.588677 C404.4078,229.18627 404.3258,224.038211 405.7218,224.280046 C407.1188,224.520902 410.0758,227.014647 410.3228,231.438179 C410.5688,235.861712 409.0598,264.244576 409.0598,264.244576 L406.0638,263.607188 L404.3258,229.588677 Z" id="Fill-186" fill="#4A75FF" mask="url(#mask-2)"></path>
                                <path d="M342.8463,238.996173 C342.8463,238.996173 347.4133,238.037643 347.6313,238.463548 C347.8493,238.889452 347.0873,239.528798 347.0873,239.528798 C347.0873,239.528798 351.1123,239.528798 351.3293,240.061424 C351.5473,240.59307 347.6313,243.575381 343.8253,243.148497 C340.0183,242.723572 337.0813,240.486349 337.0813,240.486349 L340.2363,238.889452 L342.8463,238.996173 Z" id="Fill-187" fill="#FFEBD2" mask="url(#mask-2)"></path>
                                <path d="M340.1159,314.599414 C339.9669,315.01259 340.0539,319.185475 340.0539,319.185475 C340.0539,319.185475 351.5729,319.448851 352.2409,318.925037 C352.9029,318.407098 353.1689,317.369262 352.6379,316.720125 C351.1809,316.332405 345.4859,314.90489 344.1609,313.218896 C342.8369,313.868033 340.1159,314.599414 340.1159,314.599414" id="Fill-188" fill="#1A2982" mask="url(#mask-2)"></path>
                                <path d="M320.1862,316.591081 C320.0372,317.004257 320.0532,322.037763 320.0532,322.037763 C320.0532,322.037763 331.4082,322.23456 332.2402,322.036784 C332.9632,321.866422 333.4312,320.611228 332.6372,319.573391 C328.9282,318.665774 323.6292,316.202382 323.6292,316.202382 L320.1862,316.591081 Z" id="Fill-189" fill="#1A2982" mask="url(#mask-2)"></path>
                                <path d="M343.0358,248.67615 L341.0068,239.757612 C341.0068,239.757612 327.2998,243.886438 327.2988,243.923643 C328.8918,249.07464 339.8918,314.787302 339.8918,314.787302 C339.8918,314.787302 344.3998,313.934513 344.8478,313.797441 C345.2938,313.659389 343.0358,248.67615 343.0358,248.67615" id="Fill-190" fill="#0B33B2" mask="url(#mask-2)"></path>
                                <path d="M337.0231,245.328737 L325.2251,316.973709 L319.7781,317.129385 C319.7781,317.129385 319.8051,263.882508 319.8051,258.127412 C319.8051,249.209853 322.5961,244.984097 322.5961,244.984097 L337.0231,245.328737 Z" id="Fill-191" fill="#1E41D3" mask="url(#mask-2)"></path>
                                <path d="M356.3327,233.316663 C356.3327,233.316663 360.9007,232.358133 361.1177,232.784037 C361.3357,233.210921 360.5747,233.849288 360.5747,233.849288 C360.5747,233.849288 364.5987,233.849288 364.8157,234.381914 C365.0337,234.914539 361.1177,237.895871 357.3117,237.468987 C353.5047,237.044062 350.5677,234.806839 350.5677,234.806839 L353.7227,233.210921 L356.3327,233.316663 Z" id="Fill-192" fill="#FFEBD2" mask="url(#mask-2)"></path>
                                <path d="M331.0631,209.108054 C331.9451,209.324433 336.5741,211.876923 335.7041,213.935951 C334.8341,215.994 339.1841,224.656017 339.1841,224.656017 L354.1211,232.606234 L350.9301,236.226912 C350.9301,236.226912 332.1511,231.612457 331.4991,229.270472 C330.8451,226.927508 327.2921,222.809452 328.8881,216.065474 C330.4831,209.321496 327.8731,208.327719 331.0631,209.108054" id="Fill-193" fill="#1AC1F3" mask="url(#mask-2)"></path>
                                <path d="M329.2116,204.791145 L331.4536,200.117944 L332.1046,198.630705 L330.7306,195.657206 L336.7326,192.188287 L343.4576,191.90533 L344.4706,194.099473 C344.4706,194.099473 344.1086,205.074102 340.2036,205.003608 C336.2986,204.933113 335.5036,204.72065 335.5036,204.72065 L335.2146,206.065921 L336.0816,207.411192 C336.0816,207.411192 332.0316,208.118095 329.8626,207.055782 C327.6926,205.994447 329.2116,204.791145 329.2116,204.791145" id="Fill-194" fill="#FFEBD2" mask="url(#mask-2)"></path>
                                <path d="M335.8483,206.908037 C335.8483,206.908037 338.5093,207.725578 339.4743,210.102811 C339.8223,210.960494 342.8463,238.995781 342.8463,238.995781 L344.2023,249.34673 L320.4993,248.845435 C320.4993,248.845435 325.3343,211.735934 325.6243,211.379545 C325.9143,211.025114 328.4893,204.713895 328.9953,204.855863 C329.5033,204.997831 332.9493,207.404436 335.8483,206.908037" id="Fill-195" fill="#27D6FF" mask="url(#mask-2)"></path>
                                <path d="M342.8463,238.996173 C342.8463,238.996173 347.4133,238.037643 347.6313,238.463548 C347.8493,238.889452 347.0873,239.528798 347.0873,239.528798 C347.0873,239.528798 351.1123,239.528798 351.3293,240.061424 C351.5473,240.59307 347.6313,243.575381 343.8253,243.148497 C340.0183,242.723572 337.0813,240.486349 337.0813,240.486349 L340.2363,238.889452 L342.8463,238.996173 Z" id="Fill-196" fill="#FFEBD2" mask="url(#mask-2)"></path>
                                <path d="M329.1247,204.801621 C330.8307,205.357745 331.9337,207.617486 331.0627,209.676514 C330.1927,211.735542 325.6977,230.335331 325.6977,230.335331 L340.6347,238.285549 L337.4437,241.906227 C337.4437,241.906227 318.6637,237.292751 318.0117,234.949786 C317.3587,232.605843 318.3017,224.513657 319.8967,217.769679 C321.4917,211.024722 326.3087,203.882255 329.1247,204.801621" id="Fill-197" fill="#1AC1F3" mask="url(#mask-2)"></path>
                                <path d="M337.4596,192.811577 C337.4596,192.811577 344.5776,194.809901 345.0206,193.560581 C345.4626,192.310282 345.8286,189.991795 345.8286,189.991795 C345.8286,189.991795 341.8546,189.817517 339.7346,188.978436 C337.6146,188.139355 330.9436,185.955003 330.3556,190.60079 C329.7686,195.246576 330.4296,201.885791 330.4296,201.885791 L331.9086,201.407994 L332.0546,196.876762 C332.0546,196.876762 332.4346,194.345812 333.6886,195.133001 C334.9416,195.92019 333.2876,205.891251 333.2876,205.891251 C333.2876,205.891251 338.7326,208.732573 340.5336,207.778938 C342.3336,206.825304 343.2356,201.900477 343.2356,201.900477 C343.2356,201.900477 340.0196,201.481426 339.0946,202.346942 C338.1696,203.212459 335.9326,201.939641 335.9326,201.939641 L337.4596,192.811577 Z" id="Fill-198" fill="#1A2982" mask="url(#mask-2)"></path>
                                <path d="M384.1403,23.6985022 C385.9103,25.1299331 393.1693,24.6883631 392.1133,18.4975717 C391.1413,12.8061166 388.9903,5.79680525 386.7563,3.73386084 C384.3733,1.53286463 382.9093,19.0272598 382.9093,19.0272598 L384.1403,23.6985022 Z" id="Fill-199" fill="#1A2982" mask="url(#mask-2)"></path>
                                <path d="M386.0915,9.84779362 C386.0915,9.84779362 387.0395,8.89513823 387.2035,10.3432136 C387.3675,11.7903099 387.1365,13.1169779 386.5295,13.1492879 C386.5295,13.1492879 387.0495,18.1103413 383.9665,19.2911248 C383.9745,20.5903784 384.0335,21.0730701 384.1405,21.890611 L387.9105,22.4927519 C387.9105,22.4927519 386.4815,27.8562115 380.7305,27.2922552 C374.9805,26.729278 376.0265,21.6174447 376.0265,21.6174447 L372.2695,12.0908907 L373.2545,7.9894792 L379.5805,5.9784266 L383.1125,4.4500658 L386.0705,5.01402212 L386.0915,9.84779362 Z" id="Fill-200" fill="#FCDFC3" mask="url(#mask-2)"></path>
                                <path d="M366.8483,34.2132526 C366.8483,34.2132526 366.1603,41.2010239 366.3083,47.7589744 C366.5603,49.7739433 372.3173,54.1446049 372.3173,54.1446049 L371.1703,46.4469926 C371.0863,44.144171 371.4683,38.5711859 371.8463,34.788958 L366.8483,34.2132526 Z" id="Fill-201" fill="#FCDFC3" mask="url(#mask-2)"></path>
                                <path d="M399.6383,34.7218902 C399.6383,34.7218902 401.3673,40.6072053 402.3683,44.4677605 C402.4103,45.9481459 400.5233,49.6833774 396.5733,53.5145599 L394.7363,49.5580538 C394.9763,49.0734038 396.7833,46.8939476 398.0003,44.3855169 C397.4963,42.7817661 396.1533,38.8751936 395.1863,36.325641 L399.6383,34.7218902 Z" id="Fill-202" fill="#FCDFC3" mask="url(#mask-2)"></path>
                                <path d="M396.3268,36.9497136 C395.6198,36.340719 394.9878,35.6563345 394.5358,34.9298491 C394.2778,34.5166728 394.1418,34.0467092 393.9998,33.5875156 C393.9858,33.5444356 393.9188,33.3730947 393.8558,33.2007747 C393.7718,33.386802 393.7078,33.5640174 393.7488,33.4680665 C393.6368,33.7304629 393.6408,34.0741237 393.6238,34.3512065 C393.5808,35.0395073 393.5988,35.7317245 393.6198,36.4210045 C393.6618,37.8338326 393.8158,39.3073643 393.4828,40.6996315 C393.2478,41.6797014 392.0738,41.7864223 391.3848,41.2420478 C390.2748,40.3638033 388.8568,39.7871188 387.8968,38.7825716 C386.5298,39.5756352 385.0388,40.1601524 383.5678,40.7387951 C382.8988,41.0021706 382.2338,40.4499633 382.0238,39.8801324 C381.9428,39.659837 381.8748,39.4366043 381.8158,39.2133716 C380.7068,39.8987352 379.5228,40.2580615 378.4368,39.8262825 C378.2468,40.2796015 378.0368,40.7250878 377.7908,41.1568669 C377.3398,41.9499305 376.0718,41.9616796 375.6238,41.1568669 C374.7068,39.5110152 373.0058,38.4761162 372.0878,36.8116617 L373.1728,46.1933102 L395.0238,45.8721684 L394.8598,37.5871017 L396.3268,36.9497136 Z" id="Fill-203" fill="#1AC1F3" mask="url(#mask-2)"></path>
                                <polygon id="Fill-204" fill="#FCDFC3" mask="url(#mask-2)" points="402.3356 67.4267554 402.4176 64.5315838 394.1416 63.5975311 393.3046 66.9949764"></polygon>
                                <polygon id="Fill-205" fill="#FCDFC3" mask="url(#mask-2)" points="365.3122 65.3548034 372.3102 63.8910626 372.8482 67.3452951 365.6112 68.1657732"></polygon>
                                <path d="M404.1647,64.1098894 C404.1647,64.1098894 411.7827,62.5208249 412.8517,62.9232313 C413.9187,63.3246585 416.7937,64.612163 416.2197,66.7828074 C415.6437,68.95541 411.7007,69.2765518 408.9897,68.79386 C406.2787,68.3121473 401.8567,67.5797873 401.8567,67.5797873 L401.9587,64.2175894 L404.1647,64.1098894 Z" id="Fill-206" fill="#1A2982" mask="url(#mask-2)"></path>
                                <path d="M365.7311,68.5167773 C365.7311,68.5167773 357.8791,69.9766017 356.8121,69.5741954 C355.7441,69.1717891 352.8691,67.8842846 353.4441,65.7136402 C354.0191,63.5420167 357.9621,63.2198958 360.6731,63.7025876 C363.3841,64.1852794 367.2861,64.7688175 367.2861,64.7688175 L367.8251,68.2827746 L365.7311,68.5167773 Z" id="Fill-207" fill="#1A2982" mask="url(#mask-2)"></path>
                                <path d="M400.7751,35.0144426 C400.7751,35.0144426 398.0941,29.4669139 396.4521,26.4101923 C394.8081,23.3544497 387.3721,22.3420698 387.3721,22.3420698 C387.3721,22.3420698 385.4131,25.5231359 383.8521,26.4885195 C383.1991,26.8919049 382.3311,27.0554131 381.5411,27.1102422 C376.0181,27.075974 375.9211,22.5388671 375.9211,22.5388671 C375.9211,22.5388671 374.0201,23.2800388 369.5211,25.4311014 C365.0211,27.582164 365.4581,38.2141115 365.4581,38.2141115 C365.4581,38.2141115 370.6321,38.8945796 372.3511,39.0855023 L373.1721,46.1937018 L395.0241,45.871581 L394.8601,37.5874933 L400.7751,35.0144426 Z" id="Fill-208" fill="#1AC1F3" mask="url(#mask-2)"></path>
                                <path d="M370.7086,53.7539476 C370.7086,53.4328058 370.9546,41.6895902 370.9546,41.6895902 L396.9956,41.6895902 L396.9956,55.040473 L384.4276,59.3846991 L370.7086,53.7539476 Z" id="Fill-209" fill="#FFFFFF" mask="url(#mask-2)"></path>
                                <path d="M383.1129,48.445415 C383.1129,47.9568486 383.5169,47.5612959 384.0159,47.5612959 C384.5149,47.5612959 384.9199,47.9568486 384.9199,48.445415 C384.9199,48.9339813 384.5149,49.3305131 384.0159,49.3305131 C383.5169,49.3305131 383.1129,48.9339813 383.1129,48.445415" id="Fill-210" fill="#1E41D3" mask="url(#mask-2)"></path>
                                <path d="M395.6813,62.0379373 L394.4493,67.6686888 C394.4493,67.6686888 373.9943,65.4970653 364.2183,62.1192019 C354.4433,58.7413385 346.3103,57.0514277 350.5813,51.4216553 C354.8533,45.7909039 395.6813,62.0379373 395.6813,62.0379373" id="Fill-211" fill="#1E41D3" mask="url(#mask-2)"></path>
                                <path d="M371.0544,63.8909647 L371.6314,68.3203717 C371.6314,68.3203717 401.2594,62.8932711 403.6504,62.2793811 C407.0324,61.4109276 417.8624,56.8914442 416.3834,53.1101954 C414.9054,49.3309047 402.3354,50.6977155 392.3134,54.237129 C382.2914,57.7755633 371.0544,63.8909647 371.0544,63.8909647" id="Fill-212" fill="#1E41D3" mask="url(#mask-2)"></path>
                                <path d="M376.3688,12.0210816 C376.3688,12.0210816 383.5228,12.5732888 385.0848,6.54111011 L386.0918,9.78190081 C386.0918,9.78190081 388.9438,7.1736028 387.8338,4.93931749 C386.4488,2.15184586 383.6128,-0.937185756 377.3688,0.268075073 C371.1258,1.47529408 372.0598,4.18541754 369.2238,14.0360505 C366.2808,24.2616753 374.2228,27.7805278 378.6778,22.0401182 C380.1398,20.1573265 376.1228,18.0532603 376.3688,12.0210816" id="Fill-213" fill="#1A2982" mask="url(#mask-2)"></path>
                                <path d="M184.3249,274.366809 C184.3349,274.36583 184.3439,274.36583 184.3529,274.364851 C191.3419,273.970277 197.0809,275.727745 201.4109,279.586342 C207.2449,284.787273 209.4089,292.717909 210.2029,298.378033 C208.5429,298.476921 206.7579,298.572872 204.8809,298.664906 C204.0149,294.86995 202.2709,290.461104 198.7459,287.319202 C195.4109,284.344724 191.0249,282.990641 185.7109,283.290243 C185.7039,283.290243 185.6959,283.291222 185.6899,283.291222 C176.6489,283.807203 170.3049,287.264373 166.8339,293.56678 C165.6529,295.710989 164.9779,297.923735 164.6029,299.92108 C161.4609,299.97493 158.4779,300.016052 155.7399,300.042487 C156.0369,296.095772 157.1999,290.437606 160.8039,285.429556 C165.6439,278.703202 173.5579,274.980699 184.3249,274.366809" id="Fill-214" fill="#94EBFF" mask="url(#mask-2)"></path>
                                <path d="M182.9655,253.067765 C222.5285,250.8325 222.7445,294.679125 222.874651,296.862498 C222.8955,297.218887 220.7205,297.562548 217.0765,297.885648 C216.4905,290.656041 214.1395,277.641966 205.0215,269.513553 C199.1955,264.321435 191.5235,261.955951 182.2145,262.480744 C182.2015,262.481723 182.1895,262.482702 182.1775,262.483681 C166.2815,263.390319 155.1385,269.447954 149.0515,280.495036 C145.0075,287.832343 144.2685,295.615136 144.3665,300.042585 C141.7115,299.997547 140.1305,299.906491 140.0465,299.763544 C139.4245,298.708084 135.1915,255.766139 182.9655,253.067765" id="Fill-215" fill="#94EBFF" mask="url(#mask-2)"></path>
                                <path d="M202.4137,278.507874 C197.7757,274.374152 191.6707,272.490381 184.2677,272.908453 C184.2587,272.909432 184.2477,272.909432 184.2377,272.910411 C171.6117,273.631022 162.7577,278.448149 157.9177,287.231573 C155.4217,291.761826 154.5207,296.502584 154.2797,300.055705 C151.0017,300.081161 148.1297,300.084098 145.8407,300.062558 C145.7547,295.471602 146.5587,286.245628 152.1977,278.248414 C158.3387,269.54136 168.4557,264.72717 182.2647,263.939002 C182.2757,263.939002 182.2877,263.938023 182.2997,263.937044 C191.1937,263.43477 198.5007,265.67493 204.0177,270.591924 C212.7677,278.391362 215.0277,290.997156 215.5917,298.011363 C214.4057,298.105356 213.1017,298.196411 211.6927,298.286488 C210.8757,292.391382 208.6117,284.033862 202.4137,278.507874" id="Fill-216" fill="#94EBFF" mask="url(#mask-2)"></path>
                                <path d="M169.3766,292.335574 C172.7816,287.726993 178.3006,285.174503 185.7756,284.747619 C185.7836,284.747619 185.7896,284.74664 185.7956,284.74664 C190.6946,284.470537 194.7146,285.698317 197.7426,288.39767 C200.9226,291.231159 202.5436,295.226829 203.3736,298.737849 C192.2486,299.262641 178.1666,299.671901 166.1036,299.894155 C166.5936,297.521818 167.5506,294.804841 169.3766,292.335574" id="Fill-217" fill="#1AC1F3" mask="url(#mask-2)"></path>
                                <path d="M182.1774,262.483877 C182.1894,262.482898 182.2014,262.481919 182.2144,262.48094 C191.5234,261.956147 199.1964,264.32163 205.0214,269.513749 C214.1394,277.641182 216.4904,290.655258 217.0764,297.885844 C216.6054,297.927945 216.1114,297.970046 215.5914,298.011167 C215.0284,290.996961 212.7674,278.391166 204.0184,270.591728 C198.5004,265.674734 191.1944,263.435553 182.2994,263.936848 C182.2874,263.937827 182.2764,263.938806 182.2644,263.938806 C168.4554,264.726974 158.3384,269.541164 152.1984,278.249198 C146.5584,286.246412 145.7544,295.471406 145.8404,300.062363 C145.3164,300.056488 144.8274,300.049634 144.3664,300.041802 C144.2684,295.615332 145.0074,287.832539 149.0514,280.495232 C155.1384,269.44815 166.2814,263.390515 182.1774,262.483877" id="Fill-218" fill="#1AC1F3" mask="url(#mask-2)"></path>
                                <path d="M201.4108,279.586342 C197.0808,275.727745 191.3418,273.970277 184.3528,274.364851 L184.3098,273.637386 L184.3528,274.364851 C184.3438,274.36583 184.3348,274.36583 184.3248,274.366809 C173.5578,274.980699 165.6438,278.703202 160.8038,285.429556 C157.1998,290.437606 156.0368,296.095772 155.7398,300.042487 C155.2448,300.046403 154.7588,300.051299 154.2798,300.055215 C154.5208,296.502095 155.4218,291.762316 157.9178,287.232063 C162.7578,278.448639 171.6118,273.630533 184.2378,272.910901 C184.2478,272.909922 184.2588,272.909922 184.2678,272.908943 C191.6708,272.490871 197.7758,274.374642 202.4138,278.507384 C208.6118,284.033373 210.8758,292.390892 211.6928,298.286977 C211.2078,298.317329 210.7118,298.347681 210.2028,298.378033 C209.4088,292.717909 207.2448,284.787273 201.4108,279.586342" id="Fill-219" fill="#1AC1F3" mask="url(#mask-2)"></path>
                                <path d="M185.6901,283.291418 C185.6961,283.291418 185.7041,283.290439 185.7111,283.290439 L185.7531,284.017903 L185.7111,283.290439 C191.0251,282.989858 195.4111,284.344919 198.7461,287.318418 C202.2711,290.4613 204.0151,294.870146 204.8801,298.665102 C204.3841,298.690558 203.8821,298.714057 203.3741,298.737555 C202.5441,295.226535 200.9221,291.230865 197.7431,288.397376 C194.7141,285.698023 190.6951,284.470243 185.7951,284.746347 C185.7901,284.746347 185.7841,284.747326 185.7761,284.747326 C178.3001,285.174209 172.7821,287.726699 169.3771,292.33528 C167.5501,294.805526 166.5931,297.521524 166.1031,299.893861 C165.6001,299.903652 165.0981,299.912464 164.6031,299.920297 C164.9781,297.922951 165.6531,295.711185 166.8341,293.566976 C170.3051,287.264568 176.6491,283.806419 185.6901,283.291418" id="Fill-220" fill="#1AC1F3" mask="url(#mask-2)"></path>
                                <path d="M152.0094,290.078182 C153.2004,270.667706 156.3104,256.069461 156.3104,256.069461 L171.2934,255.711114 C171.2934,255.711114 176.2014,261.506353 175.5194,271.198373 C174.8684,280.426304 174.3754,281.242866 174.9484,287.979011 C181.4774,290.078182 185.5944,299.83678 193.5864,307.818329 L192.1534,310.158356 C192.1534,310.158356 170.4004,292.745225 169.3434,290.183923 C168.4724,288.072025 166.1224,272.991088 164.5764,268.12109 C163.1684,272.789396 158.1844,290.183923 158.1844,290.183923 C161.8634,295.272259 160.3624,309.393686 159.1824,320.012905 L156.5824,319.801422 C156.5824,319.801422 153.9204,302.99239 152.0094,290.078182" id="Fill-221" fill="#FCDFC3" mask="url(#mask-2)"></path>
                                <path d="M154.5329,255.903701 C154.5329,255.903701 151.3899,261.59124 150.6009,275.228017 C149.9429,286.600157 151.9009,302.063918 153.2009,302.594585 L178.2269,289.5482 C178.9989,289.153626 178.0909,288.220553 177.5779,287.533231 C176.5269,286.124319 174.9549,284.493154 175.1399,282.739602 C175.1399,282.739602 177.7719,270.952327 177.2269,266.365287 C176.4979,260.228345 173.7279,256.803486 173.7279,256.803486 L154.5329,255.903701 Z" id="Fill-222" fill="#1E41D3" mask="url(#mask-2)"></path>
                                <path d="M149.8395,322.938918 C149.8395,322.938918 149.5385,321.636727 150.2935,321.344958 C151.5095,320.875974 153.4935,320.250335 156.1065,319.075426 L159.3805,319.23208 C159.6025,320.476505 159.6745,321.662184 159.5435,322.767577 L149.8395,322.938918 Z" id="Fill-223" fill="#1A2982" mask="url(#mask-2)"></path>
                                <path d="M159.8473,216.952334 C159.8473,216.952334 155.3543,209.27822 164.2083,206.227373 L159.8473,216.952334 Z" id="Fill-224" fill="#FCDFC3" mask="url(#mask-2)"></path>
                                <path d="M180.7145,248.226748 C180.7145,248.226748 183.2335,262.060322 184.0285,263.087389 C184.6105,263.838351 189.2605,268.494907 190.3885,268.67506 C191.5175,268.854234 192.2235,265.012281 190.7195,264.116413 C189.2165,263.221524 186.0355,261.683372 186.0355,261.683372 L180.7145,248.226748 Z" id="Fill-225" fill="#FCDFC3" mask="url(#mask-2)"></path>
                                <path d="M148.2272,214.948233 C148.2272,214.948233 143.0422,211.940466 143.0022,209.975431 C142.9622,208.012354 142.6762,191.184719 143.1062,190.299621 C143.3682,189.759163 142.2912,187.107785 143.5432,186.376404 C144.9802,185.537323 146.7422,184.949869 147.4972,182.807618 C148.2502,180.663409 149.1892,182.629424 148.2472,185.130022 C147.3032,187.63062 149.1822,189.419419 146.1712,191.023169 C146.1712,191.023169 140.8892,207.991793 143.8952,211.210064 L148.2272,214.948233 Z" id="Fill-226" fill="#FCDFC3" mask="url(#mask-2)"></path>
                                <path d="M191.2692,310.002289 C191.2692,310.002289 191.1352,313.347842 190.5832,316.043279 C190.4102,316.895088 191.2942,317.176087 191.7482,317.320014 L196.1892,308.832275 C195.6262,307.732756 194.2792,307.227545 193.1892,306.915215 L191.2692,310.002289 Z" id="Fill-227" fill="#1A2982" mask="url(#mask-2)"></path>
                                <path d="M142.4079,191.097189 C142.5959,190.561626 146.3659,192.463999 146.3659,192.463999 C146.3659,192.463999 146.1039,205.604378 148.2919,209.511929 C150.0449,212.640124 154.9319,217.768602 160.8099,220.694126 C160.8099,220.694126 176.6329,223.807635 178.8509,231.430836 C180.5669,237.325942 186.2949,260.735025 186.2949,260.735025 L182.5689,261.647538 C182.5689,261.647538 178.9809,251.329878 177.5289,247.833545 C176.1669,244.551632 173.4889,239.991027 173.4889,239.991027 C173.4889,239.991027 173.9739,255.723059 174.5369,256.973358 C175.0989,258.225615 157.7639,258.029797 152.6889,255.881672 C152.6889,255.881672 156.2979,239.566102 156.4929,232.241523 C156.4929,232.241523 142.0519,218.694822 140.3809,210.896364 C139.2409,205.580879 142.4079,191.097189 142.4079,191.097189" id="Fill-228" fill="#27D6FF" mask="url(#mask-2)"></path>
                                <path d="M167.0319,203.550049 C168.7249,203.194639 178.0459,204.349966 176.2319,217.672456 C175.4459,223.446154 170.8009,228.829196 164.1029,224.170682 C156.7049,219.023601 160.5769,216.761901 160.8189,211.58349 C161.1849,203.757616 167.0319,203.550049 167.0319,203.550049" id="Fill-229" fill="#1A2982" mask="url(#mask-2)"></path>
                                <path d="M172.5358,211.049102 C172.5368,209.863423 170.8908,208.277296 173.5148,206.564866 C175.2348,205.440869 176.0468,202.946146 179.2498,203.288828 C182.6868,203.657945 186.6248,208.192115 185.0138,210.863075 C184.0908,212.394373 185.8458,214.986026 182.9288,216.39298 C181.5148,217.074427 179.1838,217.574742 177.1048,216.980434 C175.0258,216.385147 174.6078,218.756505 173.5698,216.779721 C172.5318,214.802936 172.5358,211.049102 172.5358,211.049102" id="Fill-230" fill="#1A2982" mask="url(#mask-2)"></path>
                                <path d="M173.6403,206.471069 C173.6403,206.471069 172.2043,209.067618 173.2443,211.668083 C174.2833,214.26659 176.2353,215.877195 176.2353,215.877195 C176.2353,215.877195 173.2393,216.739774 171.5503,212.283931 C169.8623,207.829068 173.6403,206.471069 173.6403,206.471069" id="Fill-231" fill="#5CCDFF" mask="url(#mask-2)"></path>
                                <path d="M285.151,35.2860424 L213.315,35.2860424 C211.513,35.2860424 210.039,36.7302014 210.039,38.493544 L210.039,93.5918813 C210.039,95.356203 211.513,96.7993829 213.315,96.7993829 L231.83,96.7993829 L263.308,109.070328 L263.308,96.7993829 L285.151,96.7993829 C286.953,96.7993829 288.427,95.356203 288.427,93.5918813 L288.427,38.493544 C288.427,36.7302014 286.953,35.2860424 285.151,35.2860424" id="Fill-232" fill="#88C1FF" mask="url(#mask-2)"></path>
                                <polygon id="Fill-233" fill="#FFFFFF" mask="url(#mask-2)" points="225.788 61.8256704 251.839 61.8256704 251.839 57.8907043 225.788 57.8907043"></polygon>
                                <polygon id="Fill-234" fill="#FFFFFF" mask="url(#mask-2)" points="225.787 75.9167459 272.008 75.9167459 272.008 71.9817798 225.787 71.9817798"></polygon>
                                <path d="M308.1725,4.73909341 L258.5045,4.73909341 C256.7655,4.73909341 255.3425,6.13233968 255.3425,7.83399957 L255.3425,45.0198698 C255.3425,46.7225088 256.7655,48.114776 258.5045,48.114776 L273.2845,48.114776 L273.2845,56.8805763 L295.7695,48.114776 L308.1725,48.114776 C309.9115,48.114776 311.3345,46.7225088 311.3345,45.0198698 L311.3345,7.83399957 C311.3345,6.13233968 309.9115,4.73909341 308.1725,4.73909341" id="Fill-235" fill="#C0EDFF" mask="url(#mask-2)"></path>
                                <polygon id="Fill-236" fill="#FFFFFF" mask="url(#mask-2)" points="270.653 33.6826832 288.097 33.6826832 288.097 29.9924898 270.653 29.9924898"></polygon>
                                <polygon id="Fill-237" fill="#FFFFFF" mask="url(#mask-2)" points="270.653 22.0177949 295.076 22.0177949 295.076 18.3276015 270.653 18.3276015"></polygon>
                            </g>
                        </g>
                    </g>
                </g>
            </g>
        </g>
    </g>
</svg>