<?xml version="1.0" encoding="UTF-8"?>
<svg width="446px" height="343px" viewBox="0 0 446 343" version="1.1" xmlns="http://www.w3.org/2000/svg" xmlns:xlink="http://www.w3.org/1999/xlink">
    <!-- Generator: sketchtool 55 (78076) - https://sketchapp.com -->
    <title>E5FE82ED-75A1-4501-B232-37CE3D8EA0C4@1.5x</title>
    <desc>Created with sketchtool.</desc>
    <defs>
        <polygon id="path-1" points="0 0.183241457 444.738725 0.183241457 444.738725 61.7398108 0 61.7398108"></polygon>
        <polygon id="path-3" points="0.974 0.199822 67.307 0.199822 67.307 47.9071173 0.974 47.9071173"></polygon>
        <polygon id="path-5" points="0 343 445.307 343 445.307 0 0 0"></polygon>
    </defs>
    <g id="Japanese-1.0" stroke="none" stroke-width="1" fill="none" fill-rule="evenodd">
        <g id="Introduction" transform="translate(-289.000000, -690.000000)">
            <g id="Content" transform="translate(196.000000, 500.000000)">
                <g id="Step-1">
                    <g id="Content" transform="translate(0.000000, 114.000000)">
                        <g id="Text-+-illustration">
                            <g id="Image-+-Text" transform="translate(0.000000, 76.000000)">
                                <g id="introduction_illustration_1" transform="translate(93.000000, 0.000000)">
                                    <g id="Group-3" transform="translate(0.000000, 281.260000)">
                                        <mask id="mask-2" fill="white">
                                            <use xlink:href="#path-1"></use>
                                        </mask>
                                        <g id="Clip-2"></g>
                                        <path d="M444.7382,27.620614 C445.0022,44.516794 345.6582,59.709734 222.8482,61.555074 C100.0372,63.401394 0.2652,51.199414 0.0002,34.302254 C-0.2638,17.406074 99.0802,2.213134 221.8902,0.367794 C344.7012,-1.477546 444.4732,10.724434 444.7382,27.620614" id="Fill-1" fill="#EBFAFF" mask="url(#mask-2)"></path>
                                    </g>
                                    <path d="M438.7094,253.146936 C415.7224,233.431296 376.8254,296.475676 377.8484,301.223776 C382.8514,296.619736 390.2034,289.868516 400.9714,280.004816 C419.0494,263.446736 431.6014,256.251576 438.7094,253.146936" id="Fill-4" fill="#76ABFF"></path>
                                    <g id="Group-8" transform="translate(378.000000, 253.820000)">
                                        <mask id="mask-4" fill="white">
                                            <use xlink:href="#path-3"></use>
                                        </mask>
                                        <g id="Clip-7"></g>
                                        <path d="M23.727,27.024382 C13.216,36.651902 5.966,43.309042 0.974,47.902302 C10.427,48.297242 76.464,24.315662 66.234,6.307182 C64.806,3.794462 63.269,1.783502 61.647,0.199822 C54.708,3.178042 41.997,10.289902 23.727,27.024382" id="Fill-6" fill="#4A75FF" mask="url(#mask-4)"></path>
                                    </g>
                                    <path d="M378.974,301.722008 C383.966,297.128748 391.216,290.472588 401.727,280.844088 C419.997,264.109608 432.708,256.997748 439.647,254.019528 C439.337,253.716708 439.026,253.417808 438.709,253.147328 C431.601,256.251968 419.05,263.446148 400.972,280.005208 C390.203,289.867928 382.851,296.620128 377.849,301.223188 C377.862,301.286888 377.876,301.347648 377.904,301.389788 C378.037,301.593628 378.411,301.699468 378.974,301.722008" id="Fill-9" fill="#FFFFFF"></path>
                                    <path d="M390.8915,295.913842 C407.7045,292.323122 434.6205,288.386462 444.1055,287.038962 C437.7055,264.099122 395.1675,290.708082 390.8915,295.913842" id="Fill-11" fill="#76ABFF"></path>
                                    <path d="M444.6034,289.347646 C444.5244,288.837066 444.4264,288.351966 444.3184,287.880586 C434.8514,289.225146 407.4914,293.222566 390.7024,296.836806 C393.9924,299.994366 447.8774,310.466646 444.6034,289.347646" id="Fill-13" fill="#4A75FF"></path>
                                    <path d="M390.5399,296.592394 C390.5519,296.666874 390.6119,296.749194 390.7019,296.836414 C407.4909,293.223154 434.8509,289.224754 444.3189,287.880194 C444.2529,287.593054 444.1819,287.312774 444.1049,287.039354 C434.6209,288.386854 407.7049,292.323514 390.8919,295.914234 C390.6439,296.214114 390.5169,296.449314 390.5399,296.592394" id="Fill-15" fill="#FFFFFF"></path>
                                    <path d="M384.8266,285.16824 C391.8576,269.81752 404.7586,246.3769 409.3406,238.14294 C384.5886,228.73494 382.7166,278.57088 384.8266,285.16824" id="Fill-17" fill="#76ABFF"></path>
                                    <path d="M411.7426,239.203006 C411.2306,238.944286 410.7296,238.716926 410.2356,238.504266 C405.6606,246.724506 392.5436,270.547326 385.5486,285.895106 C390.4306,285.312986 432.9276,249.902646 411.7426,239.203006" id="Fill-19" fill="#4A75FF"></path>
                                    <path d="M385.2279,285.868842 C385.3029,285.906082 385.4149,285.910982 385.5489,285.894322 C392.5439,270.547522 405.6609,246.724702 410.2359,238.504462 C409.9339,238.375102 409.6359,238.254562 409.3399,238.142842 C404.7589,246.376802 391.8579,269.817422 384.8269,285.168142 C384.9489,285.550342 385.0829,285.796322 385.2279,285.868842" id="Fill-21" fill="#FFFFFF"></path>
                                    <path d="M15.4984,247.202844 C40.1894,224.206164 83.5004,292.738544 82.4624,298.075624 C76.9484,293.166804 68.8444,285.970664 56.9744,275.456244 C37.0464,257.806444 23.2794,250.346684 15.4984,247.202844" id="Fill-23" fill="#76ABFF"></path>
                                    <path d="M56.1654,276.425758 C67.7514,286.688318 75.7434,293.784498 81.2464,298.681558 C70.9704,299.541998 -1.2416,275.754458 9.6004,255.229338 C11.1134,252.364798 12.7534,250.054938 14.4924,248.217438 C22.0874,251.227998 36.0264,258.587798 56.1654,276.425758" id="Fill-25" fill="#4A75FF"></path>
                                    <path d="M81.2465,298.681558 C75.7435,293.784498 67.7515,286.688318 56.1655,276.425758 C36.0265,258.587798 22.0875,251.227998 14.4925,248.217438 C14.8245,247.864638 15.1585,247.519678 15.4985,247.203138 C23.2795,250.346978 37.0465,257.806738 56.9745,275.456538 C68.8445,285.969978 76.9485,293.167098 82.4625,298.075918 C82.4495,298.146478 82.4345,298.215078 82.4055,298.263098 C82.2635,298.496338 81.8595,298.629618 81.2465,298.681558" id="Fill-27" fill="#FFFFFF"></path>
                                    <path d="M68.7929,298.529364 C49.5379,293.736184 18.5399,288.470644 7.6129,286.667444 C17.2609,256.173764 64.3049,291.602724 68.7929,298.529364" id="Fill-29" fill="#76ABFF"></path>
                                    <path d="M6.8119,289.738078 C6.9529,289.059918 7.1129,288.414098 7.2839,287.787878 C18.1919,289.585198 49.7009,294.932078 68.9249,299.756618 C64.7889,303.951998 0.9809,317.814098 6.8119,289.738078" id="Fill-31" fill="#4A75FF"></path>
                                    <path d="M69.1376,299.432826 C69.1166,299.532786 69.0386,299.641566 68.9256,299.756226 C49.7006,294.931686 18.1916,289.584806 7.2836,287.787486 C7.3886,287.405286 7.4986,287.031906 7.6136,286.668326 C18.5396,288.470546 49.5376,293.737066 68.7926,298.529266 C69.0526,298.929106 69.1786,299.240746 69.1376,299.432826" id="Fill-33" fill="#FFFFFF"></path>
                                    <path d="M55.8256,216.838132 C56.8926,220.172092 58.0646,223.759872 59.3006,227.547572 C60.4786,231.154952 61.7266,234.987732 63.0006,238.948892 L80.6806,220.532732 C79.8246,209.554772 82.3606,198.023112 82.0126,190.491812 C81.9426,188.975752 81.4766,186.254292 80.4826,183.122212 L53.2466,200.730852 C53.4106,206.153192 54.1646,211.647072 55.8256,216.838132" id="Fill-35" fill="#94EBFF"></path>
                                    <path d="M57.3061,164.357466 C43.8231,165.405086 36.8691,174.259386 33.4741,184.760086 L51.4961,198.566326 C51.4681,183.648766 55.5351,169.713166 57.3061,164.357466" id="Fill-37" fill="#94EBFF"></path>
                                    <path d="M57.6576,228.059328 C56.4206,224.269668 55.2476,220.678948 54.1796,217.340088 C52.4656,211.981448 51.6936,206.316068 51.5296,200.733008 L32.9466,186.498508 C31.5586,191.411248 30.8856,196.597408 30.6486,201.460168 C30.2506,209.606908 32.8956,218.703268 36.1236,227.378228 C45.8706,230.779808 56.8186,236.470668 61.1466,238.804048 C59.9466,235.076128 58.7706,231.467768 57.6576,228.059328" id="Fill-39" fill="#94EBFF"></path>
                                    <path d="M53.2167,198.730182 L79.9157,181.466502 C77.0597,173.611802 70.9737,164.152842 59.7167,164.245942 C59.5237,164.247902 59.3417,164.262602 59.1507,164.267502 C57.5467,168.991102 53.1517,183.369662 53.2167,198.730182" id="Fill-41" fill="#94EBFF"></path>
                                    <path d="M75.6528,282.952754 C79.1128,277.207014 89.9228,259.103474 95.1698,248.574354 C91.2358,244.115354 87.3988,240.020914 84.4428,234.550554 C82.4768,230.911814 81.4258,226.894794 80.9138,222.753314 L63.5938,240.795114 C67.8168,253.993754 72.2858,268.706494 75.6528,282.952754" id="Fill-43" fill="#94EBFF"></path>
                                    <path d="M111.1142,277.897718 C107.6932,264.086578 102.0252,256.470998 96.3912,249.969678 C90.2912,262.071698 77.8552,282.636018 76.2022,285.359438 C77.9782,293.142598 79.4012,300.744458 80.2402,307.842598 C95.5052,307.773998 109.3892,307.584858 110.1512,307.608378 C111.8642,307.661298 117.1782,302.381058 111.1142,277.897718" id="Fill-45" fill="#94EBFF"></path>
                                    <path d="M61.8983,241.142916 C59.8783,240.030616 47.7473,233.439136 36.9063,229.451516 C40.6343,239.145676 44.8573,248.160696 46.0743,254.510116 C47.6293,262.618636 47.3223,267.679356 45.7333,272.495076 C54.1563,278.743556 69.5253,282.898756 74.1383,284.047316 C70.7533,269.580556 66.1963,254.573816 61.8983,241.142916" id="Fill-47" fill="#94EBFF"></path>
                                    <path d="M45.1361,274.142358 C44.2611,276.379698 43.1281,278.631738 41.7811,281.185618 C37.2141,289.839998 38.4321,305.166218 39.4481,306.873378 C39.9951,307.792618 59.9341,307.920018 78.5021,307.849458 C77.6741,300.915958 76.2871,293.493438 74.5561,285.888638 C71.2271,285.106598 54.6431,280.962178 45.1361,274.142358" id="Fill-49" fill="#94EBFF"></path>
                                    <path d="M63.0009,238.949382 C61.7269,234.987242 60.4789,231.155442 59.3009,227.547082 C58.0639,223.760362 56.8929,220.172582 55.8259,216.838622 C54.1649,211.647562 53.4109,206.152702 53.2469,200.731342 L52.3139,201.334042 L51.5299,200.733302 C51.6929,206.315382 52.4649,211.980762 54.1799,217.339402 C55.2479,220.678262 56.4209,224.269962 57.6579,228.059622 C58.7709,231.467082 59.9459,235.076422 61.1469,238.804342 C61.6769,239.090502 62.1419,239.342362 62.4579,239.515822 L63.0009,238.949382 Z" id="Fill-51" fill="#FFFFFF"></path>
                                    <path d="M51.496,198.566522 L52.4,199.258402 L53.217,198.730182 C53.151,183.369662 57.547,168.991102 59.15,164.267502 C58.523,164.283182 57.907,164.310622 57.306,164.357662 C55.535,169.713362 51.468,183.647982 51.496,198.566522" id="Fill-53" fill="#FFFFFF"></path>
                                    <path d="M75.6528,282.952754 C72.2858,268.706494 67.8168,253.993754 63.5938,240.795114 L62.7858,241.638894 L62.1948,241.306674 C62.1818,241.299814 62.0758,241.241014 61.8988,241.143014 C66.1968,254.573914 70.7538,269.579674 74.1388,284.047414 C74.4238,284.117974 74.6828,284.182654 74.8818,284.230674 C75.0658,283.925894 75.3318,283.486854 75.6528,282.952754" id="Fill-55" fill="#FFFFFF"></path>
                                    <path d="M76.0409,285.625704 L75.7199,286.152944 L75.1069,286.015744 C75.0289,285.999084 74.8399,285.955964 74.5559,285.889324 C76.2869,293.493144 77.6739,300.916644 78.5019,307.849164 C79.0829,307.847204 79.6629,307.845244 80.2399,307.842304 C79.4009,300.745144 77.9779,293.142304 76.2019,285.360124 C76.1279,285.482624 76.0699,285.577684 76.0409,285.625704" id="Fill-57" fill="#FFFFFF"></path>
                                    <path d="M53.247,200.731342 L80.482,183.121722 C80.31,182.580762 80.12,182.027062 79.915,181.466502 L53.217,198.730182 C53.22,199.396582 53.227,200.062002 53.247,200.731342" id="Fill-59" fill="#FFFFFF"></path>
                                    <path d="M51.496,198.566522 L33.474,184.760282 C33.288,185.335542 33.112,185.914722 32.947,186.498802 L51.53,200.733302 C51.509,200.010062 51.497,199.285842 51.496,198.566522" id="Fill-61" fill="#FFFFFF"></path>
                                    <path d="M53.247,200.731342 C53.227,200.062002 53.22,199.396582 53.217,198.730182 L52.4,199.258402 L51.496,198.566522 C51.497,199.285842 51.509,200.010062 51.53,200.733302 L52.314,201.334042 L53.247,200.731342 Z" id="Fill-63" fill="#FFFFFF"></path>
                                    <path d="M63.5941,240.795506 L80.9141,222.753706 C80.8231,222.015766 80.7381,221.275866 80.6801,220.532046 L63.0011,238.949186 C63.1981,239.563646 63.3951,240.173206 63.5941,240.795506" id="Fill-65" fill="#FFFFFF"></path>
                                    <path d="M61.1469,238.80395 C56.8179,236.47057 45.8709,230.77971 36.1239,227.37813 C36.3819,228.07197 36.6419,228.76385 36.9069,229.45181 C47.7479,233.43845 59.8779,240.03091 61.8979,241.14321 C61.6469,240.35627 61.3969,239.58011 61.1469,238.80395" id="Fill-67" fill="#FFFFFF"></path>
                                    <path d="M62.7856,241.638698 L63.5946,240.795898 C63.3956,240.173598 63.1986,239.564038 63.0006,238.949578 L62.4576,239.516018 C62.1416,239.342558 61.6766,239.089718 61.1466,238.803558 C61.3966,239.579718 61.6466,240.355878 61.8986,241.142818 C62.0766,241.241798 62.1816,241.299618 62.1946,241.306478 L62.7856,241.638698 Z" id="Fill-69" fill="#FFFFFF"></path>
                                    <path d="M74.1386,284.04761 C69.5256,282.89905 54.1566,278.74385 45.7336,272.49537 C45.5526,273.04515 45.3506,273.59395 45.1366,274.14275 C54.6426,280.96257 71.2276,285.10601 74.5556,285.88903 C74.4156,285.27555 74.2826,284.66403 74.1386,284.04761" id="Fill-71" fill="#FFFFFF"></path>
                                    <path d="M76.2021,285.359634 C77.8551,282.636214 90.2911,262.070914 96.3911,249.969874 C95.9831,249.498494 95.5761,249.034954 95.1691,248.574354 C89.9221,259.103474 79.1131,277.207014 75.6531,282.952754 C75.8431,283.758314 76.0191,284.557014 76.2021,285.359634" id="Fill-73" fill="#FFFFFF"></path>
                                    <path d="M74.8818,284.23038 C74.6828,284.18236 74.4238,284.11866 74.1388,284.04712 C74.2828,284.66354 74.4158,285.27506 74.5558,285.88854 C74.8398,285.95616 75.0288,285.99928 75.1078,286.01594 L75.7198,286.15314 L76.0408,285.6259 C76.0698,285.57788 76.1278,285.48184 76.2018,285.35934 C76.0188,284.55672 75.8428,283.759 75.6528,282.95246 C75.3318,283.48656 75.0658,283.9256 74.8818,284.23038" id="Fill-75" fill="#FFFFFF"></path>
                                    <path d="M351.7201,277.400074 L350.5251,276.487694 C350.6611,276.317174 364.1841,258.986854 372.4881,224.012614 C380.8721,188.691454 399.5891,164.387454 399.7771,164.145394 L400.9821,165.046994 C400.7961,165.285134 382.2701,189.353934 373.9631,224.348754 C365.5771,259.672854 351.8581,277.226614 351.7201,277.400074" id="Fill-77" fill="#1AC1F3"></path>
                                    <path d="M404.0199,160.339858 C412.3989,164.466638 392.7589,176.157058 392.7589,176.157058 C392.7589,176.157058 392.9649,154.894978 404.0199,160.339858" id="Fill-79" fill="#1AC1F3"></path>
                                    <path d="M400.2104,185.951864 C401.3404,192.245424 386.5344,186.363464 386.5344,186.363464 C386.5344,186.363464 398.7194,177.649304 400.2104,185.951864" id="Fill-81" fill="#1AC1F3"></path>
                                    <path d="M380.0844,175.300146 C384.9734,171.073406 387.5764,186.521146 387.5764,186.521146 C387.5764,186.521146 373.6334,180.877326 380.0844,175.300146" id="Fill-83" fill="#1AC1F3"></path>
                                    <path d="M397.6093,206.705128 C399.9363,215.874988 377.4763,208.689628 377.4763,208.689628 C377.4763,208.689628 394.5383,194.607028 397.6093,206.705128" id="Fill-85" fill="#1AC1F3"></path>
                                    <path d="M393.8837,223.682844 C396.3507,233.402484 372.5447,225.785924 372.5447,225.785924 C372.5447,225.785924 390.6297,210.859544 393.8837,223.682844" id="Fill-87" fill="#1AC1F3"></path>
                                    <path d="M387.244,243.422592 C389.599,252.702212 366.871,245.430612 366.871,245.430612 C366.871,245.430612 384.137,231.180432 387.244,243.422592" id="Fill-89" fill="#1AC1F3"></path>
                                    <path d="M377.3666,260.186864 C381.3936,268.897104 357.6996,265.769924 357.6996,265.769924 C357.6996,265.769924 372.0536,248.696364 377.3666,260.186864" id="Fill-91" fill="#1AC1F3"></path>
                                    <path d="M367.3739,195.883968 C373.1399,190.136268 377.8249,209.346228 377.8249,209.346228 C377.8249,209.346228 359.7659,203.467208 367.3739,195.883968" id="Fill-93" fill="#1AC1F3"></path>
                                    <path d="M359.06,216.108914 C362.574,208.821634 373.45,225.449294 373.45,225.449294 C373.45,225.449294 354.424,225.724674 359.06,216.108914" id="Fill-95" fill="#1AC1F3"></path>
                                    <path d="M354.789,233.423554 C359.621,226.900674 367.164,245.215894 367.164,245.215894 C367.164,245.215894 348.414,242.029914 354.789,233.423554" id="Fill-97" fill="#1AC1F3"></path>
                                    <path d="M351.1239,250.110308 C358.0209,245.720888 358.3569,265.468868 358.3569,265.468868 C358.3569,265.468868 342.0229,255.902108 351.1239,250.110308" id="Fill-99" fill="#1AC1F3"></path>
                                    <path d="M171.9716,273.47243 L170.2046,273.26565 C170.2356,273.01183 170.6946,243.17475 155.1056,207.47433 C138.0006,168.30177 145.4836,131.36067 145.5226,131.00591 L147.2936,131.19603 C147.2536,131.54785 139.8716,168.11459 156.7986,206.93533 C173.9466,246.26273 172.0036,273.21567 171.9716,273.47243" id="Fill-101" fill="#C0EDFF"></path>
                                    <path d="M146.5458,125.810146 C157.5318,124.983026 144.9998,148.419726 144.9998,148.419726 C144.9998,148.419726 132.0508,126.899906 146.5458,125.810146" id="Fill-103" fill="#C0EDFF"></path>
                                    <path d="M157.9916,153.149696 C163.0226,158.811156 144.4816,161.691376 144.4816,161.691376 C144.4816,161.691376 151.3536,145.680136 157.9916,153.149696" id="Fill-105" fill="#C0EDFF"></path>
                                    <path d="M130.9628,155.284822 C133.2668,148.124942 145.4448,162.124242 145.4448,162.124242 C145.4448,162.124242 127.9218,164.731042 130.9628,155.284822" id="Fill-107" fill="#C0EDFF"></path>
                                    <path d="M168.6796,175.870506 C176.6956,183.715406 149.6466,189.831586 149.6466,189.831586 C149.6466,189.831586 158.1036,165.519746 168.6796,175.870506" id="Fill-109" fill="#C0EDFF"></path>
                                    <path d="M173.56,193.265506 C183.81,199.396386 157.49,212.288286 157.49,212.288286 C157.49,212.288286 160.037,185.176586 173.56,193.265506" id="Fill-111" fill="#C0EDFF"></path>
                                    <path d="M182.977,218.089984 C193.503,224.814744 165.563,237.496924 165.563,237.496924 C165.563,237.496924 169.089,209.216084 182.977,218.089984" id="Fill-113" fill="#C0EDFF"></path>
                                    <path d="M189.8568,245.656306 C197.7768,253.778546 170.2648,259.339066 170.2648,259.339066 C170.2648,259.339066 179.4068,234.939026 189.8568,245.656306" id="Fill-115" fill="#C0EDFF"></path>
                                    <path d="M131.5463,182.062538 C133.7933,172.851518 150.3943,189.399798 150.3943,189.399798 C150.3943,189.399798 128.5823,194.214538 131.5463,182.062538" id="Fill-117" fill="#C0EDFF"></path>
                                    <path d="M139.248,207.898572 C139.842,198.445492 159.104,211.944012 159.104,211.944012 C159.104,211.944012 138.465,220.370052 139.248,207.898572" id="Fill-119" fill="#C0EDFF"></path>
                                    <path d="M146.2831,229.715038 C148.4931,219.598498 167.0611,237.249278 167.0611,237.249278 C167.0611,237.249278 143.3671,243.062638 146.2831,229.715038" id="Fill-121" fill="#C0EDFF"></path>
                                    <path d="M153.8065,247.891 C158.0315,239.37382 170.5905,259.048316 170.5905,259.048316 C170.5905,259.048316 148.2315,259.12866 153.8065,247.891" id="Fill-123" fill="#C0EDFF"></path>
                                    <path d="M331.476,178.235344 C329.819,182.761964 328.002,187.633544 326.084,192.774624 C324.257,197.672664 322.321,202.874504 320.343,208.254704 L295.347,182.570864 C296.953,167.590584 293.663,151.752804 294.419,141.468684 C294.571,139.397944 295.336,135.691584 296.882,131.437404 L335.75,156.291184 C335.331,163.698024 334.056,171.188164 331.476,178.235344" id="Fill-125" fill="#C0EDFF"></path>
                                    <path d="M331.0844,106.454166 C350.5824,108.273046 360.3614,120.575966 364.9284,135.029006 L338.3584,153.383426 C338.8974,132.991586 333.4714,113.825726 331.0844,106.454166" id="Fill-127" fill="#C0EDFF"></path>
                                    <path d="M328.4472,193.52109 C330.3662,188.37609 332.1852,183.50157 333.8432,178.96809 C336.5062,171.69355 337.8142,163.97017 338.2372,156.34381 L365.6342,137.42099 C367.4812,144.17515 368.2832,151.28407 368.4652,157.93827 C368.7672,169.08577 364.6322,181.44455 359.6662,193.20945 C345.4322,197.58025 329.3822,205.04491 323.0332,208.10937 C324.8972,203.04767 326.7212,198.14865 328.4472,193.52109" id="Fill-129" fill="#C0EDFF"></path>
                                    <path d="M335.8607,153.558356 L297.7587,129.191636 C302.1577,118.537076 311.2907,105.781396 327.5967,106.233176 C327.8757,106.241016 328.1397,106.266496 328.4157,106.278256 C330.5807,112.782516 336.4677,132.561856 335.8607,153.558356" id="Fill-131" fill="#C0EDFF"></path>
                                    <path d="M300.5443,268.04127 C295.7233,260.08661 280.6683,235.02899 273.4193,220.48579 C279.2673,214.50289 284.9623,209.01783 289.4273,201.62569 C292.3973,196.70805 294.0533,191.24553 294.9333,185.59975 L319.4213,210.76125 C312.8633,228.68153 305.8973,248.66373 300.5443,268.04127" id="Fill-133" fill="#C0EDFF"></path>
                                    <path d="M249.3402,260.111306 C254.7572,241.330586 263.2232,231.082726 271.6022,222.358766 C280.0352,239.075606 297.3632,267.543626 299.6682,271.315646 C296.8352,281.901606 294.5202,292.254326 293.0672,301.931826 C270.9552,301.400666 250.8482,300.741126 249.7432,300.751906 C247.2592,300.775426 239.7362,293.405826 249.3402,260.111306" id="Fill-135" fill="#C0EDFF"></path>
                                    <path d="M321.8671,211.28457 C324.8301,209.82339 342.6251,201.16117 358.4631,196.02205 C352.7391,209.16581 346.3201,221.36681 344.3441,230.01139 C341.8211,241.05109 342.0971,247.97675 344.2381,254.60547 C331.8271,262.90607 309.4231,268.14417 302.7011,269.58085 C308.0881,249.90147 315.1911,229.52041 321.8671,211.28457" id="Fill-137" fill="#C0EDFF"></path>
                                    <path d="M345.0487,256.875542 C346.2407,259.958622 347.8067,263.069142 349.6737,266.598122 C356.0007,278.560002 353.7247,299.476142 352.1947,301.780122 C351.3717,303.020802 322.4817,302.620962 295.5847,301.990822 C297.0167,292.537742 299.2737,282.431982 302.0357,272.086122 C306.8827,271.111022 331.0477,265.923882 345.0487,256.875542" id="Fill-139" fill="#C0EDFF"></path>
                                    <path d="M320.3427,208.254606 C322.3207,202.874406 324.2577,197.672566 326.0847,192.774526 C328.0017,187.633446 329.8187,182.761866 331.4757,178.235246 C334.0557,171.188066 335.3317,163.697926 335.7497,156.292066 L337.0807,157.143686 L338.2377,156.344006 C337.8147,163.970366 336.5067,171.692766 333.8437,178.968286 C332.1847,183.501766 330.3657,188.376286 328.4467,193.521286 C326.7217,198.147866 324.8977,203.047866 323.0337,208.109566 C322.2567,208.483926 321.5747,208.816146 321.1117,209.044486 L320.3427,208.254606 Z" id="Fill-141" fill="#FFFFFF"></path>
                                    <path d="M338.3588,153.383132 L337.0258,154.303352 L335.8608,153.558552 C336.4678,132.562052 330.5808,112.781732 328.4158,106.278452 C329.3228,106.317652 330.2148,106.372532 331.0848,106.453872 C333.4718,113.826412 338.8978,132.991292 338.3588,153.383132" id="Fill-143" fill="#FFFFFF"></path>
                                    <path d="M300.5443,268.04127 C305.8973,248.66373 312.8633,228.68153 319.4213,210.76125 L320.5653,211.93627 L321.4323,211.50017 C321.4513,211.49037 321.6063,211.41393 321.8673,211.28457 C315.1903,229.52041 308.0883,249.90147 302.7013,269.58085 C302.2853,269.67003 301.9083,269.74941 301.6183,269.80919 C301.3623,269.38779 300.9923,268.78019 300.5443,268.04127" id="Fill-145" fill="#FFFFFF"></path>
                                    <path d="M299.893,271.683734 L300.34,272.413834 L301.232,272.244294 C301.347,272.222734 301.622,272.169814 302.036,272.086514 C299.274,282.432374 297.017,292.537154 295.584,301.991214 C294.743,301.971614 293.904,301.952014 293.067,301.931434 C294.52,292.253934 296.835,281.902194 299.668,271.315254 C299.771,271.484794 299.852,271.617094 299.893,271.683734" id="Fill-147" fill="#FFFFFF"></path>
                                    <path d="M335.7499,156.291576 L296.8819,131.437796 C297.1489,130.703776 297.4439,129.952116 297.7589,129.191636 L335.8609,153.558356 C335.8339,154.467796 335.8019,155.378216 335.7499,156.291576" id="Fill-149" fill="#FFFFFF"></path>
                                    <path d="M338.3588,153.383132 L364.9288,135.028712 C365.1788,135.820552 365.4148,136.618272 365.6338,137.420892 L338.2368,156.343712 C338.2928,155.355872 338.3328,154.368032 338.3588,153.383132" id="Fill-151" fill="#FFFFFF"></path>
                                    <path d="M335.7499,156.291576 C335.8019,155.378216 335.8339,154.467796 335.8609,153.558356 L337.0259,154.304136 L338.3589,153.382936 C338.3329,154.367836 338.2919,155.355676 338.2369,156.344496 L337.0809,157.143196 L335.7499,156.291576 Z" id="Fill-153" fill="#FFFFFF"></path>
                                    <path d="M319.4218,210.761054 L294.9338,185.599554 C295.0898,184.595054 295.2368,183.586634 295.3468,182.570374 L320.3428,208.254214 C320.0358,209.089174 319.7308,209.917274 319.4218,210.761054" id="Fill-155" fill="#FFFFFF"></path>
                                    <path d="M323.0336,208.109076 C329.3826,205.044616 345.4316,197.579956 359.6666,193.209156 C359.2696,194.149956 358.8696,195.088796 358.4636,196.021756 C342.6246,201.160876 324.8306,209.823096 321.8666,211.284276 C322.2586,210.215096 322.6456,209.162576 323.0336,208.109076" id="Fill-157" fill="#FFFFFF"></path>
                                    <path d="M320.5653,211.93627 L319.4213,210.76125 C319.7303,209.91649 320.0353,209.08937 320.3423,208.25441 L321.1113,209.04429 C321.5743,208.81595 322.2563,208.48471 323.0333,208.10937 C322.6463,209.16287 322.2583,210.21539 321.8673,211.28457 C321.6063,211.41393 321.4513,211.49037 321.4323,211.50017 L320.5653,211.93627 Z" id="Fill-159" fill="#FFFFFF"></path>
                                    <path d="M302.7016,269.581144 C309.4226,268.143484 331.8266,262.905384 344.2376,254.605764 C344.4826,255.363304 344.7566,256.119864 345.0486,256.875444 C331.0476,265.924764 306.8836,271.111904 302.0356,272.087004 C302.2586,271.251064 302.4726,270.419044 302.7016,269.581144" id="Fill-161" fill="#FFFFFF"></path>
                                    <path d="M299.6679,271.315254 C297.3639,267.543234 280.0349,239.076194 271.6019,222.358374 C272.2089,221.726274 272.8139,221.103974 273.4189,220.485594 C280.6679,235.029774 295.7239,260.086414 300.5439,268.041074 C300.2419,269.136714 299.9599,270.223534 299.6679,271.315254" id="Fill-163" fill="#FFFFFF"></path>
                                    <path d="M301.6186,269.808896 C301.9086,269.749116 302.2856,269.669736 302.7016,269.581536 C302.4726,270.419436 302.2586,271.251456 302.0356,272.086416 C301.6216,272.169716 301.3466,272.222636 301.2326,272.244196 L300.3396,272.413736 L299.8926,271.683636 C299.8526,271.616996 299.7716,271.484696 299.6676,271.315156 C299.9606,270.223436 300.2416,269.136616 300.5446,268.040976 C300.9926,268.779896 301.3626,269.387496 301.6186,269.808896" id="Fill-165" fill="#FFFFFF"></path>
                                    <path d="M359.5961,273.934598 C359.5851,273.934598 359.5751,273.934598 359.5641,273.933618 C351.4221,273.669018 344.7961,275.874018 339.8701,280.488838 C333.2341,286.707918 330.9471,296.004198 330.1871,302.618218 C332.1211,302.686818 334.2001,302.747578 336.3871,302.803438 C337.2841,298.360118 339.1851,293.177878 343.1951,289.419578 C346.9891,285.864138 352.0521,284.163838 358.2431,284.365718 C358.2521,284.366698 358.2601,284.366698 358.2681,284.366698 C368.8011,284.714598 376.2821,288.564038 380.5031,295.807218 C381.9391,298.270938 382.7881,300.828738 383.2831,303.144478 C386.9411,303.119978 390.4111,303.084698 393.5971,303.038638 C393.1381,298.452238 391.6201,291.895058 387.2821,286.164018 C381.4551,278.464158 372.1401,274.350118 359.5961,273.934598" id="Fill-167" fill="#94EBFF"></path>
                                    <path d="M360.5595,249.09395 C314.4675,247.59357 315.4885,298.65843 315.4005,301.20643 C315.3865,301.62097 317.9275,301.96103 322.1755,302.23641 C322.6465,293.79959 325.0055,278.57921 335.3775,268.85957 C342.0035,262.65127 350.8625,259.68285 361.7065,260.03565 C361.7215,260.03663 361.7365,260.03663 361.7505,260.03761 C380.2695,260.65011 393.4105,267.39545 400.8125,280.08841 C405.7295,288.52033 406.8155,297.56377 406.8305,302.72249 C409.9175,302.59607 411.7535,302.44515 411.8475,302.27855 C412.5405,301.03199 416.2195,250.90695 360.5595,249.09395" id="Fill-169" fill="#94EBFF"></path>
                                    <path d="M338.6728,279.261486 C343.9478,274.318366 350.9958,271.955586 359.6208,272.235866 C359.6318,272.235866 359.6448,272.236846 359.6558,272.236846 C374.3648,272.723906 384.8068,278.087446 390.6928,288.182426 C393.7278,293.388186 394.9128,298.883046 395.2978,303.012766 C399.1108,302.952986 402.4538,302.876546 405.1148,302.786386 C405.0818,297.438526 403.8798,286.716346 397.0868,277.562166 C389.6888,267.592626 377.7798,262.267306 361.6908,261.735166 C361.6768,261.734186 361.6638,261.734186 361.6508,261.733206 C351.2878,261.397066 342.8518,264.207706 336.5758,270.088686 C326.6238,279.413386 324.3598,294.156506 323.9068,302.340486 C325.2888,302.415946 326.8088,302.486506 328.4508,302.552166 C329.2298,295.663746 331.6218,285.867666 338.6728,279.261486" id="Fill-171" fill="#94EBFF"></path>
                                    <path d="M377.5097,294.444822 C373.4137,289.172422 366.9197,286.352962 358.2097,286.063862 L358.1867,286.063862 C352.4787,285.878642 347.8377,287.420182 344.3927,290.648302 C340.7767,294.036162 339.0057,298.734282 338.1417,302.846362 C351.0997,303.147222 367.4947,303.232482 381.5367,303.155062 C380.8977,300.406162 379.7047,297.269182 377.5097,294.444822" id="Fill-173" fill="#1AC1F3"></path>
                                    <path d="M361.7504,260.03761 C361.7364,260.03663 361.7214,260.03663 361.7074,260.03565 C350.8624,259.68285 342.0034,262.65127 335.3774,268.85957 C325.0054,278.57921 322.6464,293.79959 322.1754,302.23641 C322.7264,302.27267 323.3014,302.30697 323.9074,302.34029 C324.3594,294.15631 326.6234,279.41319 336.5754,270.08849 C342.8524,264.20751 351.2874,261.39687 361.6504,261.73301 C361.6644,261.73399 361.6774,261.73399 361.6904,261.73497 C377.7794,262.26711 389.6884,267.59243 397.0864,277.56197 C403.8794,286.71713 405.0824,297.43833 405.1154,302.78619 C405.7254,302.76561 406.2934,302.74405 406.8304,302.72249 C406.8154,297.56377 405.7294,288.52033 400.8124,280.08841 C393.4104,267.39545 380.2694,260.65011 361.7504,260.03761" id="Fill-175" fill="#1AC1F3"></path>
                                    <path d="M339.8705,280.489328 C344.7955,275.874508 351.4225,273.668528 359.5635,273.934108 L359.5925,273.084448 L359.5635,273.934108 C359.5755,273.935088 359.5855,273.935088 359.5965,273.935088 C372.1405,274.349628 381.4555,278.464648 387.2825,286.163528 C391.6205,291.895548 393.1375,298.451748 393.5975,303.039128 C394.1735,303.031288 394.7405,303.022468 395.2975,303.012668 C394.9125,298.883928 393.7275,293.388088 390.6925,288.182328 C384.8075,278.087348 374.3655,272.723808 359.6555,272.236748 C359.6445,272.236748 359.6315,272.235768 359.6205,272.235768 C350.9955,271.955488 343.9475,274.318268 338.6725,279.261388 C331.6215,285.867568 329.2295,295.663648 328.4505,302.552068 C329.0165,302.574608 329.5945,302.597148 330.1865,302.617728 C330.9465,296.003708 333.2335,286.708408 339.8705,280.489328" id="Fill-177" fill="#1AC1F3"></path>
                                    <path d="M358.268,284.366306 C358.26,284.366306 358.252,284.366306 358.244,284.365326 L358.215,285.214986 L358.244,284.365326 C352.052,284.164426 346.989,285.863746 343.195,289.419186 C339.185,293.177486 337.284,298.359726 336.387,302.803046 C336.965,302.818726 337.549,302.833426 338.142,302.846166 C339.006,298.734086 340.776,294.035966 344.393,290.648106 C347.838,287.419986 352.478,285.878446 358.186,286.063666 L358.209,286.063666 C366.919,286.352766 373.414,289.172226 377.51,294.444626 C379.705,297.268986 380.897,300.405966 381.537,303.154866 C382.122,303.151926 382.706,303.148006 383.283,303.144086 C382.789,300.829326 381.939,298.270546 380.503,295.807806 C376.282,288.563646 368.801,284.714206 358.268,284.366306" id="Fill-179" fill="#1AC1F3"></path>
                                    <path d="M92.2548,63.233716 L172.7728,63.233716 C174.6928,63.233716 176.2648,61.693156 176.2648,59.810576 L176.2648,3.423336 C176.2648,1.540756 174.6928,0.000196 172.7728,0.000196 L92.2548,0.000196 C90.3338,0.000196 88.7618,1.540756 88.7618,3.423336 L88.7618,59.810576 C88.7618,61.693156 90.3338,63.233716 92.2548,63.233716" id="Fill-181" fill="#69DEF9"></path>
                                    <polygon id="Fill-183" fill="#69DEF9" points="148.2255 61.757934 148.2255 76.944994 109.1255 61.688354"></polygon>
                                    <mask id="mask-6" fill="white">
                                        <use xlink:href="#path-5"></use>
                                    </mask>
                                    <g id="Clip-186"></g>
                                    <polygon id="Fill-185" fill="#FFFFFF" mask="url(#mask-6)" points="105.618 20.91516 159.41 20.91516 159.41 15.0577 105.618 15.0577"></polygon>
                                    <polygon id="Fill-187" fill="#FFFFFF" mask="url(#mask-6)" points="105.618 34.54598 135.502 34.54598 135.502 28.68754 105.618 28.68754"></polygon>
                                    <polygon id="Fill-188" fill="#FFFFFF" mask="url(#mask-6)" points="105.618 48.17582 147.456 48.17582 147.456 42.31836 105.618 42.31836"></polygon>
                                    <path d="M306.3031,31.946432 L263.8371,31.946432 C262.3501,31.946432 261.1341,33.138112 261.1341,34.595372 L261.1341,63.892472 C261.1341,65.348752 262.3501,66.541412 263.8371,66.541412 L276.4741,66.541412 L276.4741,74.042332 L295.6981,66.541412 L306.3031,66.541412 C307.7891,66.541412 309.0061,65.348752 309.0061,63.892472 L309.0061,34.595372 C309.0061,33.138112 307.7891,31.946432 306.3031,31.946432" id="Fill-189" fill="#5F8DFF" mask="url(#mask-6)"></path>
                                    <polygon id="Fill-190" fill="#FFFFFF" mask="url(#mask-6)" points="270.356 58.30314 299.785 58.30314 299.785 55.09854 270.356 55.09854"></polygon>
                                    <polygon id="Fill-191" fill="#FFFFFF" mask="url(#mask-6)" points="270.355 50.84632 286.705 50.84632 286.705 47.64172 270.355 47.64172"></polygon>
                                    <polygon id="Fill-192" fill="#FFFFFF" mask="url(#mask-6)" points="270.356 43.3895 293.245 43.3895 293.245 40.1849 270.356 40.1849"></polygon>
                                    <path d="M162.7953,276.461234 C162.8063,276.461234 162.8163,276.461234 162.8263,276.460254 C170.6703,276.306394 177.0233,278.512374 181.7073,283.016454 C188.0173,289.087554 190.1003,298.067294 190.7473,304.446114 C188.8833,304.488254 186.8803,304.522554 184.7743,304.548034 C183.9673,300.257594 182.2033,295.243914 178.3903,291.575774 C174.7823,288.104614 169.9283,286.404314 163.9633,286.522894 C163.9563,286.522894 163.9473,286.523874 163.9403,286.523874 C153.7923,286.728694 146.5393,290.341954 142.3803,297.265654 C140.9663,299.619614 140.1153,302.073534 139.6093,304.296174 C136.0873,304.227574 132.7463,304.151134 129.6783,304.067834 C130.1803,299.655874 131.7253,293.360354 135.9773,287.894894 C141.6873,280.552734 150.7103,276.706234 162.7953,276.461234" id="Fill-193" fill="#CCF8FF" mask="url(#mask-6)"></path>
                                    <path d="M162.1874,252.527772 C206.5934,251.652632 204.9524,300.814332 205.0034,303.268252 C205.0124,303.669072 202.5614,303.965032 198.4664,304.177692 C198.1214,296.047612 196.0464,281.361332 186.1834,271.872972 C179.8824,265.813632 171.3894,262.844232 160.9414,263.050032 C160.9274,263.051012 160.9134,263.051012 160.9004,263.051012 C143.0584,263.411652 130.3174,269.745392 123.0254,281.877792 C118.1824,289.937312 117.0204,298.631872 116.9394,303.598512 C113.9684,303.438772 112.2014,303.272172 112.1134,303.108512 C111.4614,301.900172 108.5644,253.585192 162.1874,252.527772" id="Fill-194" fill="#CCF8FF" mask="url(#mask-6)"></path>
                                    <path d="M182.8759,281.849274 C177.8599,277.023754 171.1029,274.660974 162.7929,274.824634 C162.7829,274.824634 162.7709,274.825614 162.7599,274.825614 C148.5889,275.112754 138.4639,280.148974 132.6679,289.796094 C129.6769,294.772534 128.4649,300.048854 128.0419,304.021774 C124.3699,303.916914 121.1519,303.800294 118.5899,303.680734 C118.6909,298.531814 119.9869,288.222214 126.6469,279.490414 C133.8979,269.982454 145.4359,265.001114 160.9359,264.686534 L160.9749,264.686534 C170.9579,264.489554 179.0449,267.301174 185.0129,273.042014 C194.4779,282.145234 196.4679,296.369934 196.7979,304.255994 C195.4659,304.312834 194.0019,304.361834 192.4199,304.403974 C191.7579,297.760554 189.5809,288.298654 182.8759,281.849274" id="Fill-195" fill="#CCF8FF" mask="url(#mask-6)"></path>
                                    <path d="M145.2812,295.99038 C149.2942,290.96298 155.5832,288.32874 163.9752,288.1592 C163.9832,288.1592 163.9892,288.1592 163.9972,288.15822 C169.4962,288.04944 173.9452,289.59294 177.2212,292.74364 C180.6602,296.05114 182.3042,300.59736 183.0832,304.56832 C170.6012,304.69768 154.8122,304.57714 141.2912,304.32822 C141.9422,301.6881 143.1312,298.68342 145.2812,295.99038" id="Fill-196" fill="#8CE9F9" mask="url(#mask-6)"></path>
                                    <path d="M160.9003,263.051306 C160.9133,263.051306 160.9273,263.051306 160.9423,263.050326 C171.3893,262.844526 179.8823,265.812946 186.1833,271.873266 C196.0463,281.361626 198.1213,296.047906 198.4663,304.177986 C197.9363,304.205426 197.3813,304.231886 196.7973,304.256386 C196.4673,296.370326 194.4773,282.144646 185.0133,273.041426 C179.0453,267.301566 170.9583,264.489946 160.9743,264.686926 L160.9353,264.686926 C145.4353,265.000526 133.8983,269.981866 126.6463,279.489826 C119.9863,288.222606 118.6913,298.532206 118.5893,303.681126 C118.0033,303.654666 117.4563,303.626246 116.9403,303.598806 C117.0203,298.632166 118.1823,289.937606 123.0263,281.878086 C130.3173,269.745686 143.0583,263.411946 160.9003,263.051306" id="Fill-197" fill="#8CE9F9" mask="url(#mask-6)"></path>
                                    <path d="M181.7069,283.016846 C177.0229,278.511786 170.6699,276.305806 162.8269,276.460646 L162.8099,275.643326 L162.8269,276.460646 C162.8159,276.461626 162.8059,276.461626 162.7949,276.461626 C150.7099,276.706626 141.6869,280.552146 135.9769,287.895286 C131.7259,293.360746 130.1799,299.656266 129.6779,304.067246 C129.1239,304.052546 128.5779,304.036866 128.0419,304.022166 C128.4649,300.049246 129.6769,294.771946 132.6669,289.796486 C138.4639,280.148386 148.5889,275.113146 162.7599,274.826006 C162.7709,274.826006 162.7829,274.825026 162.7929,274.825026 C171.1029,274.661366 177.8599,277.024146 182.8759,281.849666 C189.5809,288.299046 191.7579,297.760946 192.4199,304.403386 C191.8749,304.419066 191.3179,304.432786 190.7469,304.445526 C190.1009,298.066706 188.0179,289.086966 181.7069,283.016846" id="Fill-198" fill="#8CE9F9" mask="url(#mask-6)"></path>
                                    <path d="M163.9403,286.523384 C163.9473,286.523384 163.9563,286.522404 163.9633,286.522404 L163.9803,287.340704 L163.9633,286.522404 C169.9283,286.404804 174.7823,288.104124 178.3903,291.575284 C182.2033,295.243424 183.9673,300.258084 184.7733,304.548524 C184.2173,304.555384 183.6543,304.561264 183.0833,304.568124 C182.3043,300.597164 180.6603,296.050944 177.2213,292.743444 C173.9453,289.592744 169.4963,288.050224 163.9973,288.158024 C163.9893,288.159004 163.9823,288.159004 163.9753,288.159004 C155.5833,288.328544 149.2943,290.962784 145.2813,295.990184 C143.1303,298.683224 141.9423,301.688884 141.2913,304.328024 C140.7273,304.317244 140.1653,304.306464 139.6093,304.296664 C140.1153,302.073044 140.9663,299.619124 142.3803,297.266144 C146.5393,290.341464 153.7923,286.728204 163.9403,286.523384" id="Fill-199" fill="#8CE9F9" mask="url(#mask-6)"></path>
                                    <path d="M118.4804,220.2452 C118.4804,220.2452 117.3024,213.17548 114.9614,212.46204 C112.6204,211.74762 102.0634,206.17828 100.2674,204.28884 C98.4714,202.3994 90.7044,189.1253 94.4294,189.25466 C98.1544,189.385 111.8834,198.43726 111.8834,198.43726 C111.8834,198.43726 108.0624,191.0657 108.9094,189.4781 C109.7554,187.8905 117.5374,196.80654 118.5524,198.4598 C119.5684,200.1111 124.7304,219.97178 124.7304,219.97178 L118.4804,220.2452 Z" id="Fill-200" fill="#FFEBD2" mask="url(#mask-6)"></path>
                                    <path d="M197.58,111.09868 C195.733,114.75898 187.611,141.97848 189.865,149.20402 C192.119,156.42956 193.583,163.44734 205.351,166.20702 L191.816,201.45664 L190.579,229.48954 L224.669,223.02252 C224.669,223.02252 247.61,207.82174 246.804,203.9625 C245.998,200.10228 229.423,163.57572 229.423,163.57572 L226.339,114.83934 L203.008,106.72004 L198.681,110.21178 L197.58,111.09868 Z" id="Fill-201" fill="#FFEBD2" mask="url(#mask-6)"></path>
                                    <path d="M220.5497,128.47457 C220.5497,128.47457 220.0777,161.48783 226.0687,172.92737 C232.0597,184.36887 294.2687,233.69619 270.5047,140.71379 C266.8437,126.38913 253.5307,110.26225 253.5307,110.26225 C253.5307,110.26225 249.6887,83.86987 216.4737,89.57445 C183.2577,95.27805 188.8377,113.84415 188.8377,113.84415 C188.8377,113.84415 164.4737,167.76473 199.2057,183.85829 L201.7147,181.04177 L206.8967,167.36489 C206.8967,167.36489 191.1827,162.04741 190.6017,151.10375 C190.0207,140.16107 196.4557,112.68187 196.4557,112.68187 C196.4557,112.68187 202.0157,126.81739 220.5497,128.47457" id="Fill-202" fill="#1A2982" mask="url(#mask-6)"></path>
                                    <path d="M202.1293,200.091108 C209.4223,202.541108 223.8873,189.018088 231.7753,179.227888 C231.7753,179.227888 245.4423,188.336008 254.6123,190.347948 C254.6123,190.347948 250.6583,217.989828 251.1463,249.146968 C251.6333,280.304108 254.2183,305.339188 254.2183,305.339188 C254.2183,305.339188 230.2283,313.939668 229.4803,312.876368 C228.7333,311.812088 194.6683,307.308988 193.8933,304.455228 C193.1173,301.601468 185.6413,267.683668 181.1503,260.945188 C176.6583,254.206708 169.9913,225.290828 174.6083,216.624688 C179.2243,207.957568 188.4173,188.117468 188.4173,188.117468 L201.8993,180.759628 C201.8993,180.759628 192.9423,197.006068 202.1293,200.091108" id="Fill-203" fill="#4A75FF" mask="url(#mask-6)"></path>
                                    <path d="M189.1357,187.838168 C184.7617,188.620208 165.6837,193.838708 162.5667,210.961268 C160.0497,224.787108 143.1587,266.764428 143.1587,266.764428 L127.4217,217.171528 L114.4617,217.473368 C114.4617,217.473368 115.1887,279.695528 132.9757,295.189328 C150.7637,310.684108 163.2157,284.605328 163.2157,284.605328 L180.1867,251.898808 L189.1357,187.838168 Z" id="Fill-204" fill="#5F8DFF" mask="url(#mask-6)"></path>
                                    <path d="M208.8295,255.487862 C208.8295,255.487862 208.7175,248.325042 206.5075,247.284282 C204.2985,246.241562 194.6845,239.221822 193.1895,237.095222 C191.6945,234.969602 185.9885,220.725302 189.6545,221.386802 C193.3195,222.049282 205.5535,232.969422 205.5535,232.969422 C205.5535,232.969422 202.8715,225.128442 203.9455,223.680002 C205.0195,222.230582 211.3885,232.164842 212.1475,233.945502 C212.9065,235.725182 215.0535,256.111142 215.0535,256.111142 L208.8295,255.487862 Z" id="Fill-205" fill="#FFEBD2" mask="url(#mask-6)"></path>
                                    <path d="M277.3866,222.009004 C276.1116,197.309084 260.8416,191.328144 254.6126,190.347164 C248.3836,189.365204 249.1066,212.280544 248.7696,214.076884 C248.7696,214.076884 248.0646,230.593804 247.3126,242.905544 C247.0266,243.887504 246.8096,244.902784 246.6946,245.963144 C245.0976,260.673924 240.3386,306.955404 240.3386,306.955404 L220.1406,254.243164 L205.8726,253.383704 C205.8726,253.383704 214.5106,314.865964 232.2976,330.360744 C250.0856,345.854544 261.4546,317.715804 261.4546,317.715804 C261.4546,317.715804 278.8216,249.807684 277.3866,222.009004" id="Fill-206" fill="#5F8DFF" mask="url(#mask-6)"></path>
                                    <path d="M232.7709,159.718734 C228.5629,161.119154 216.1089,159.413954 210.3579,158.512354 C209.9839,158.453554 209.7289,158.107614 209.7889,157.741094 C209.8479,157.373594 210.1999,157.123694 210.5759,157.183474 C222.0299,158.979814 232.2339,159.451194 232.8539,158.217374 C234.1129,155.717394 236.2009,145.393094 236.3999,144.398394 C236.3319,142.748074 235.1459,115.755934 230.4869,110.610934 C225.4789,105.079814 216.4989,100.969694 207.7469,104.237994 C207.3809,104.387934 206.9949,104.195854 206.8599,103.848934 C206.7259,103.502014 206.9029,103.112954 207.2569,102.980654 C216.6379,99.479114 226.1929,103.840114 231.5149,109.718154 C236.6209,115.356094 237.7309,143.241994 237.7759,144.425834 L237.7639,144.578714 C237.6709,145.045194 235.4829,156.037854 234.0859,158.812234 C233.8909,159.202274 233.4329,159.498234 232.7709,159.718734" id="Fill-207" fill="#1AC1F3" mask="url(#mask-6)"></path>
                                    <path d="M199.6386,155.725038 C199.0666,157.218558 201.3296,159.497058 203.9196,159.200118 C206.5096,158.904158 215.4676,161.315938 216.0756,158.417098 C216.6836,155.519238 213.3396,154.746998 209.8256,154.597058 C206.3116,154.446138 200.5466,153.349518 199.6386,155.725038" id="Fill-208" fill="#1AC1F3" mask="url(#mask-6)"></path>
                                    <path d="M234.2753,120.51207 C237.9923,119.99757 246.4003,126.08925 244.9093,137.32887 C243.4183,148.56849 238.1273,149.95127 236.1713,150.41383 C234.2163,150.87541 226.5483,149.27997 225.7423,139.18303 C224.9363,129.08511 227.4843,121.45189 234.2753,120.51207" id="Fill-209" fill="#1AC1F3" mask="url(#mask-6)"></path>
                                    <path d="M78.5253,322.971054 C78.5253,322.971054 199.2043,326.983174 213.3673,325.167234 C213.3673,325.167234 214.0573,322.776034 206.4153,321.522614 C198.7743,320.270174 170.3283,319.581234 170.3283,319.581234 L78.4133,318.891314 C78.4133,318.891314 76.5853,322.907354 78.5253,322.971054" id="Fill-210" fill="#1AC1F3" mask="url(#mask-6)"></path>
                                    <path d="M52.0482,242.49806 C52.0482,242.49806 129.2842,244.05724 132.2562,245.17934 C135.2272,246.30242 170.3282,319.58094 170.3282,319.58094 L78.4132,318.89102 C78.4132,318.89102 48.7782,248.34866 52.0482,242.49806" id="Fill-211" fill="#1AC1F3" mask="url(#mask-6)"></path>
                                    <path d="M292.5077,279.353312 C295.4657,278.148892 298.1507,280.673372 299.6847,283.155712 C300.8647,285.066712 301.8397,287.162932 303.8587,288.410472 C304.6257,288.886752 305.5247,289.170952 306.4347,289.132732 C309.7807,288.998472 310.6437,285.312692 309.5177,282.803892 C308.5737,280.701792 306.6697,279.186712 304.9797,277.585392 C300.5457,273.382172 297.2387,268.067632 295.4687,262.299352 C294.3517,258.658652 293.9037,254.443672 296.7257,251.445852 C298.1927,249.887652 300.4857,249.203612 302.5127,249.963112 C305.0007,250.894112 305.5047,253.226512 305.9287,255.372712 C306.2837,257.165132 306.7217,259.087892 308.3257,260.178632 C309.3567,260.878352 310.7647,260.967532 311.7077,260.158052 C312.6567,259.342692 312.5247,258.143172 312.4407,257.049492 C311.9147,250.212032 314.2717,243.203072 318.8557,237.980652 C321.3577,235.128852 325.6887,232.683752 328.8587,235.185692 C329.6717,235.827592 330.2437,236.726252 330.5617,237.697432 C331.3247,240.029832 330.8117,242.388692 330.3017,244.688752 L327.5117,257.275872 C327.2457,258.473432 328.6377,259.359352 329.6637,258.645912 L338.4887,252.513072 C339.3077,251.943692 340.2587,251.551692 341.2627,251.475252 C344.5537,251.225352 345.5337,253.986992 345.6107,256.361532 C345.7777,261.589832 342.9997,266.576072 339.2587,270.345152 C335.5167,274.113252 330.8537,276.870972 326.3077,279.685532 C324.8947,280.558712 323.4177,281.516172 322.9327,283.168452 C322.6567,284.107292 322.8727,285.164712 323.6387,285.794852 C324.9317,286.858152 326.7087,286.083952 328.0187,285.209792 C332.0757,282.501072 335.4277,278.718272 340.4007,277.525612 C342.1657,277.102252 344.0437,277.144392 345.7367,277.786292 C351.0087,279.786472 350.8207,285.267612 348.3937,288.819132 C345.8367,292.561752 341.9707,295.050952 338.3077,297.667552 C330.9507,302.926232 320.7567,312.369512 310.7267,309.577492 C304.8527,307.948732 299.6487,303.676912 295.8667,299.140492 C293.0787,295.796732 291.0407,291.890452 290.0207,287.698012 C289.5137,285.578272 289.2547,283.313492 290.3717,281.295672 C290.8437,280.442092 291.5877,279.727672 292.5077,279.353312" id="Fill-212" fill="#1E41D3" mask="url(#mask-6)"></path>
                                    <path d="M320.1928,252.424382 C320.3358,252.448882 320.4298,252.581182 320.4048,252.720342 C316.2898,275.598442 315.3178,298.984182 317.5178,322.226842 C317.5308,322.366002 317.4258,322.490462 317.2828,322.503202 C317.2758,322.505162 317.2688,322.505162 317.2618,322.505162 C317.1278,322.507122 317.0118,322.406182 316.9988,322.272902 C314.7958,298.987122 315.7688,275.556302 319.8918,252.632142 C319.9168,252.492002 320.0528,252.400862 320.1928,252.424382" id="Fill-213" fill="#5F8DFF" mask="url(#mask-6)"></path>
                                    <path d="M300.536,257.214328 C300.67,257.161408 300.822,257.226088 300.875,257.357408 C302.052,260.239588 303.388,263.506908 305.329,266.310688 C306.81,268.450028 309.337,271.269488 312.969,272.556228 C317.482,274.156568 323.254,273.020748 328.032,269.590748 C332.405,266.451808 335.551,262.041808 338.592,257.775868 C338.674,257.661208 338.836,257.631808 338.955,257.713148 C339.074,257.794488 339.101,257.953248 339.019,258.068888 C335.953,262.368148 332.784,266.813428 328.34,270.003328 C324.977,272.417068 321.126,273.724388 317.533,273.777308 C315.872,273.802788 314.268,273.560728 312.791,273.037408 C309.028,271.702648 306.422,268.798908 304.898,266.597828 C302.924,263.747008 301.578,260.453228 300.391,257.547528 C300.338,257.416208 300.402,257.267248 300.536,257.214328" id="Fill-214" fill="#5F8DFF" mask="url(#mask-6)"></path>
                                    <path d="M296.9589,288.78297 C297.0829,288.71143 297.2429,288.75357 297.3149,288.87607 C299.8309,293.11163 303.8979,298.96713 310.1569,300.91047 C315.4979,302.56961 321.9839,301.12607 327.5059,297.04927 L328.5629,296.27115 C333.2449,292.82351 337.6669,289.56893 342.2769,284.78653 C342.3759,284.68363 342.5409,284.67971 342.6459,284.77575 C342.7509,284.87277 342.7549,285.03545 342.6559,285.13639 C338.0159,289.95113 333.5759,293.21943 328.8759,296.67981 L327.8199,297.45891 C323.7979,300.42635 319.2659,302.02963 315.0059,302.09333 C313.2749,302.11979 311.5889,301.89145 309.9999,301.39753 C303.5689,299.40029 299.4229,293.44189 296.8649,289.13185 C296.7919,289.00935 296.8339,288.85353 296.9589,288.78297" id="Fill-215" fill="#5F8DFF" mask="url(#mask-6)"></path>
                                    <path d="M286.726,282.526846 C287.309,282.333786 287.941,282.331826 288.543,282.461186 L295.023,283.858666 C295.777,284.020366 296.34,283.189326 295.895,282.570946 L291.208,276.083346 C290.351,274.897546 289.478,273.680386 289.33,272.175106 C289.268,271.547906 289.367,270.903066 289.666,270.344466 C290.828,268.175726 293.869,268.541266 295.981,269.569286 C299.852,271.451866 302.914,274.875006 304.311,278.882226 C304.535,279.524126 304.758,280.234626 305.493,280.472766 C306.224,280.710906 306.994,280.327726 307.4,279.686806 C308.032,278.688186 307.801,277.492586 307.557,276.391066 C307.264,275.072966 307.371,273.141386 308.138,272.512226 C308.839,271.935986 310.901,271.675306 311.758,271.986946 C313.372,272.573966 314.879,275.521806 315.154,277.852246 C315.587,281.546846 315.044,285.346306 313.593,288.781206 C313.038,290.090486 312.343,291.400746 312.333,292.816846 C312.322,294.507346 313.72,296.395806 315.634,295.683346 C316.156,295.488326 316.591,295.113966 316.905,294.663166 C317.73,293.477366 317.759,292.057346 317.949,290.692206 C318.197,288.920366 319.081,286.852566 321.042,286.836886 C321.653,286.832966 322.247,287.063266 322.725,287.435666 C323.853,288.317666 324.268,289.664186 324.507,290.988166 C324.972,293.610646 324.794,296.309566 324.056,298.867366 C323.053,302.337546 321.184,305.992946 318.286,308.305746 C313.338,312.262006 305.415,310.492126 299.977,309.245566 C297.269,308.624246 294.331,306.938646 291.967,305.416706 C289.723,303.975126 288.259,300.906746 290.728,298.525346 C291.52,297.760946 292.566,297.292506 293.663,297.116106 C296.755,296.618266 299.576,297.974586 302.528,298.553766 C303.481,298.740946 304.672,298.760546 305.135,297.852086 C305.41,297.312106 305.269,296.661386 304.882,296.191966 C304.2,295.368766 303.133,295.174726 302.122,295.012046 C298.869,294.487746 295.564,294.024206 292.527,292.768826 C289.491,291.512466 286.693,289.336866 285.493,286.329246 C284.947,284.962146 284.813,283.162866 286.726,282.526846" id="Fill-216" fill="#3369F0" mask="url(#mask-6)"></path>
                                    <path d="M298.7143,277.947502 C298.8673,277.851462 299.0723,277.892622 299.1723,278.043542 C307.1763,290.098522 313.5333,303.187402 318.0663,316.945622 C318.1223,317.115162 318.0273,317.298422 317.8543,317.353302 C317.8363,317.359182 317.8183,317.363102 317.7993,317.365062 C317.6433,317.387602 317.4873,317.296462 317.4373,317.144562 C312.9223,303.441222 306.5903,290.404282 298.6183,278.396342 C298.5183,278.246402 298.5623,278.046482 298.7143,277.947502" id="Fill-217" fill="#76ABFF" mask="url(#mask-6)"></path>
                                    <path d="M289.8808,285.33288 C292.6348,287.02926 295.4848,288.78346 298.6938,289.5263 C302.1728,290.33186 305.6388,289.6292 307.7378,287.69174 C309.4278,286.13354 310.1378,283.97068 310.4358,282.4311 C310.8288,280.39466 310.7708,278.23474 310.7198,276.32864 C310.7138,276.15028 310.8578,275.9974 311.0408,275.9974 C311.2238,275.9925 311.3748,276.13362 311.3798,276.31296 C311.4318,278.24944 311.4918,280.44758 311.0848,282.55164 C310.7688,284.18628 310.0098,286.48732 308.1918,288.1641 C306.9168,289.3401 305.1848,290.0947 303.2528,290.37694 C301.7618,290.5945 300.1498,290.52884 298.5408,290.15742 C295.2248,289.39008 292.3298,287.60648 289.5288,285.88266 C289.3748,285.78662 289.3278,285.5867 289.4248,285.4348 C289.5218,285.28388 289.7258,285.2388 289.8808,285.33288" id="Fill-218" fill="#76ABFF" mask="url(#mask-6)"></path>
                                    <path d="M294.477,301.531594 C298.242,303.151534 301.529,303.955134 305.01,304.804794 L305.791,304.994914 C309.852,305.992554 313.798,305.291854 316.347,303.124094 C319.34,300.580014 320.167,296.333674 320.528,293.362314 C320.55,293.184934 320.714,293.060474 320.896,293.078114 C321.076,293.099674 321.206,293.261374 321.185,293.438754 C320.81,296.517914 319.946,300.922034 316.78,303.613114 C315.324,304.851834 313.449,305.640734 311.364,305.944534 C309.564,306.207174 307.609,306.109174 305.631,305.624074 L304.85,305.431994 C301.341,304.575474 298.027,303.765994 294.211,302.123514 C294.043,302.051974 293.967,301.860874 294.041,301.696234 C294.114,301.534534 294.31,301.457114 294.477,301.531594" id="Fill-219" fill="#76ABFF" mask="url(#mask-6)"></path>
                                    <path d="M312.5898,298.064256 C312.8758,297.872176 313.2228,297.764376 313.5678,297.792796 C314.6768,297.880016 315.0918,299.086396 315.1578,300.099716 C315.2098,300.878816 315.1658,301.684376 315.5838,302.388016 C315.7428,302.657516 315.9728,302.886836 316.2598,303.017176 C317.3138,303.498356 318.1848,302.485036 318.2488,301.526596 C318.3018,300.724956 317.9638,299.954676 317.7048,299.191256 C317.0258,297.188136 316.8768,295.015476 317.2768,292.941796 C317.5298,291.633496 318.0828,290.248756 319.4438,289.756796 C320.1518,289.501016 320.9708,289.646056 321.4718,290.199756 C322.0868,290.878896 321.8598,291.683476 321.6388,292.418476 C321.4548,293.031956 321.2738,293.700316 321.5898,294.290276 C321.7938,294.669536 322.2138,294.918456 322.6368,294.813596 C323.0628,294.707756 323.2188,294.312816 323.3728,293.960016 C324.3308,291.747176 326.2078,289.931236 328.4778,289.020816 C329.7168,288.524936 331.4538,288.438696 332.0208,289.713676 C332.1668,290.040996 332.1958,290.409476 332.1338,290.763256 C331.9868,291.608996 331.4428,292.263636 330.9078,292.899656 L327.9848,296.385516 C327.7058,296.717736 327.9888,297.210676 328.4228,297.148936 L332.1508,296.617776 C332.4968,296.568776 332.8538,296.595236 333.1758,296.728516 C334.2328,297.164616 334.0818,298.178916 333.7158,298.930576 C332.9098,300.585796 331.2358,301.704956 329.4648,302.293936 C327.6928,302.882916 325.8018,303.013256 323.9388,303.179856 C323.3598,303.230816 322.7468,303.298436 322.3268,303.736496 C322.0878,303.986396 321.9808,304.349976 322.1138,304.666516 C322.3388,305.198656 323.0128,305.235896 323.5608,305.168276 C325.2558,304.958556 326.9108,304.303916 328.6398,304.709636 C329.2538,304.853696 329.8258,305.160436 330.2418,305.625936 C331.5408,307.072416 330.5838,308.751156 329.2538,309.477336 C327.8508,310.244676 326.2508,310.416176 324.6918,310.659216 C321.5608,311.147256 316.8678,312.495736 314.2328,310.057496 C312.6878,308.631596 311.7828,306.487356 311.3598,304.482276 C311.0478,303.004436 311.0598,301.469756 311.4328,300.003676 C311.6238,299.264756 311.9148,298.517996 312.5898,298.064256" id="Fill-220" fill="#B0E3FF" mask="url(#mask-6)"></path>
                                    <path d="M326.2533,293.64279 C326.3433,293.52715 326.5113,293.50265 326.6293,293.59183 C326.7473,293.68003 326.7703,293.84369 326.6813,293.96031 C321.6693,300.43517 317.5433,307.55487 314.4183,315.12537 C314.3763,315.22729 314.2753,315.29001 314.1693,315.29001 C314.1363,315.29001 314.1013,315.28315 314.0683,315.27041 C313.9313,315.21651 313.8653,315.06265 313.9203,314.92839 C317.0633,307.31477 321.2133,300.15391 326.2533,293.64279" id="Fill-221" fill="#FFFFFF" mask="url(#mask-6)"></path>
                                    <path d="M319.6908,291.976594 C319.8378,291.992274 319.9458,292.119674 319.9318,292.265694 C319.8228,293.338794 319.6998,294.554974 319.8368,295.713334 C319.9408,296.585534 320.2468,297.822294 321.1248,298.756234 C322.2138,299.918514 324.1198,300.446734 326.0968,300.133134 C327.9298,299.843054 329.6108,298.967914 331.2348,298.121194 C331.3658,298.052594 331.5288,298.100614 331.5978,298.229974 C331.6678,298.357374 331.6178,298.517114 331.4868,298.585714 C329.8228,299.452034 328.1038,300.348734 326.1818,300.652534 C325.7598,300.719174 325.3428,300.750534 324.9378,300.750534 C323.2398,300.747594 321.7208,300.168414 320.7288,299.111974 C319.7538,298.074154 319.4158,296.723714 319.3048,295.774094 C319.1608,294.559874 319.2868,293.312334 319.3978,292.212774 C319.4118,292.068714 319.5458,291.966794 319.6908,291.976594" id="Fill-222" fill="#FFFFFF" mask="url(#mask-6)"></path>
                                    <path d="M313.3861,301.253078 C313.5301,301.242298 313.6601,301.357938 313.6671,301.503958 C313.7471,303.187598 314.0341,305.604278 315.6031,307.145818 C316.9371,308.458038 319.1151,309.002918 321.4301,308.606018 L321.8861,308.528598 C323.8861,308.187558 325.7771,307.866118 327.9681,307.102698 C328.1081,307.054678 328.2611,307.125238 328.3101,307.261458 C328.3601,307.398658 328.2871,307.549578 328.1481,307.597598 C325.9131,308.376698 324.0011,308.703038 321.9781,309.046038 L321.5221,309.123458 C320.9901,309.215578 320.4661,309.259678 319.9531,309.258698 C318.0701,309.256738 316.3691,308.643258 315.2231,307.517238 C313.5241,305.847318 313.2151,303.299318 313.1311,301.528458 C313.1241,301.382438 313.2381,301.259938 313.3861,301.253078" id="Fill-223" fill="#FFFFFF" mask="url(#mask-6)"></path>
                                    <path d="M305.2885,310.541126 L324.4605,310.253006 C325.1605,310.242226 325.6885,310.871386 325.5445,311.541706 L324.8815,314.611066 C324.7765,315.099106 324.3405,315.450926 323.8305,315.458766 L306.0795,315.725326 C305.5705,315.733166 305.1245,315.395066 305.0035,314.909966 L304.2455,311.862166 C304.0795,311.195766 304.5885,310.551906 305.2885,310.541126" id="Fill-224" fill="#1AC1F3" mask="url(#mask-6)"></path>
                                    <path d="M322.1913,325.974166 C322.0973,326.687606 321.4833,327.223666 320.7513,327.234446 L309.5273,327.403006 C308.7943,327.414766 308.1643,326.895366 308.0483,326.186826 L306.3413,315.721406 L323.5703,315.461706 L322.1913,325.974166 Z" id="Fill-225" fill="#1AC1F3" mask="url(#mask-6)"></path>
                                </g>
                            </g>
                        </g>
                    </g>
                </g>
            </g>
        </g>
    </g>
</svg>