<?xml version="1.0" encoding="UTF-8"?>
<svg width="440px" height="343px" viewBox="0 0 440 343" version="1.1" xmlns="http://www.w3.org/2000/svg" xmlns:xlink="http://www.w3.org/1999/xlink">
    <!-- Generator: sketchtool 55 (78076) - https://sketchapp.com -->
    <title>1E871DBD-DC86-474F-BB97-75594D8A7FD5@1.5x</title>
    <desc>Created with sketchtool.</desc>
    <defs>
        <polygon id="path-1" points="0 343 439.461 343 439.461 0 0 0"></polygon>
    </defs>
    <g id="Japanese-1.0" stroke="none" stroke-width="1" fill="none" fill-rule="evenodd">
        <g id="Introduction" transform="translate(-292.000000, -1512.000000)">
            <g id="Content" transform="translate(196.000000, 500.000000)">
                <g id="Step-2" transform="translate(0.000000, 822.000000)">
                    <g id="Content" transform="translate(0.000000, 114.000000)">
                        <g id="Text-+-illustration">
                            <g id="Image-+-text" transform="translate(0.000000, 76.000000)">
                                <g id="introduction_illustration_2" transform="translate(96.000000, 0.000000)">
                                    <path d="M88.6723,277.8153 C85.5273,275.46232 64.7023,229.90408 59.3093,217.33166 C40.5273,173.54624 21.2093,165.7915 21.0163,165.718 L21.5183,164.43518 C22.3283,164.738 41.5453,172.36926 60.6023,216.79854 C65.9773,229.3298 86.2773,274.8753 89.9253,277.19986 L88.6723,277.8153 Z" id="Fill-1" fill="#A4E2FF"></path>
                                    <path d="M15.3505,157.044608 C5.3275,164.268188 33.6685,175.276528 33.6685,175.276528 C33.6685,175.276528 28.5745,147.513128 15.3505,157.044608" id="Fill-3" fill="#A4E2FF"></path>
                                    <path d="M27.2915,191.325498 C27.2415,199.802498 45.2715,188.882358 45.2715,188.882358 C45.2715,188.882358 27.3565,180.141738 27.2915,191.325498" id="Fill-5" fill="#A4E2FF"></path>
                                    <path d="M51.1972,173.006946 C43.8432,168.544026 43.946161,189.316106 43.946161,189.316106 C43.946161,189.316106 60.9002,178.895766 51.1972,173.006946" id="Fill-7" fill="#A4E2FF"></path>
                                    <path d="M57.5341,258.426784 C57.0181,268.092524 78.1751,256.574584 78.1751,256.574584 C78.1751,256.574584 58.2151,245.673064 57.5341,258.426784" id="Fill-9" fill="#A4E2FF"></path>
                                    <path d="M87.0703,237.745354 C78.7463,232.535674 78.5293,256.253634 78.5293,256.253634 C78.5293,256.253634 98.0533,244.618094 87.0703,237.745354" id="Fill-11" fill="#A4E2FF"></path>
                                    <path d="M45.979,234.732638 C45.076,244.803118 67.593,233.547818 67.593,233.547818 C67.593,233.547818 47.17,221.445798 45.979,234.732638" id="Fill-13" fill="#A4E2FF"></path>
                                    <path d="M77.1582,215.322072 C68.8622,209.313692 66.9162,234.011652 66.9162,234.011652 C66.9162,234.011652 88.1042,223.248312 77.1582,215.322072" id="Fill-15" fill="#A4E2FF"></path>
                                    <path d="M31.5195,213.752602 C30.5565,226.253482 58.3015,211.960182 58.3015,211.960182 C58.3015,211.960182 32.7895,197.260182 31.5195,213.752602" id="Fill-17" fill="#A4E2FF"></path>
                                    <path d="M68.0063,192.312162 C59.1603,186.051922 57.3933,212.198322 57.3933,212.198322 C57.3933,212.198322 79.6783,200.572582 68.0063,192.312162" id="Fill-19" fill="#A4E2FF"></path>
                                    <path d="M13.9096,257.056352 C39.6266,233.599072 78.1146,304.546172 76.7666,310.033192 C71.6346,304.930332 64.0906,297.447052 53.0396,286.517112 C34.4866,268.166612 21.3816,260.363852 13.9096,257.056352" id="Fill-21" fill="#76ABFF"></path>
                                    <path d="M52.184,287.507108 C62.971,298.176368 70.411,305.553808 75.532,310.644908 C65.359,311.439688 -4.315,286.304648 7.612,265.268948 C9.276,262.332868 11.032,259.968128 12.856,258.091428 C20.154,261.259768 33.435,268.961588 52.184,287.507108" id="Fill-23" fill="#4A75FF"></path>
                                    <path d="M75.5322,310.6453 C70.4102,305.5542 62.9712,298.17578 52.1842,287.5075 C33.4352,268.96198 20.1542,261.25918 12.8562,258.09182 C13.2052,257.73314 13.5552,257.37936 13.9092,257.05596 C21.3812,260.36346 34.4872,268.16622 53.0392,286.51672 C64.0902,297.44666 71.6352,304.92994 76.7672,310.0328 C76.7492,310.10434 76.7312,310.17588 76.6992,310.22586 C76.5452,310.46302 76.1382,310.59826 75.5322,310.6453" id="Fill-25" fill="#FFFFFF"></path>
                                    <path d="M57.9643,305.875444 C40.4973,302.029924 12.5223,297.758104 2.6643,296.294964 C9.4783,272.471164 53.5503,300.430564 57.9643,305.875444" id="Fill-27" fill="#76ABFF"></path>
                                    <path d="M2.1303,298.693906 C2.2163,298.162746 2.3213,297.659026 2.4373,297.169026 C12.2773,298.629226 40.7133,302.966706 58.1543,306.836726 C54.7113,310.100126 -1.4197,320.641986 2.1303,298.693906" id="Fill-29" fill="#4A75FF"></path>
                                    <path d="M58.3256,306.58369 C58.3126,306.66111 58.2496,306.74637 58.1546,306.83653 C40.7136,302.96749 12.2776,298.62903 2.4366,297.16981 C2.5076,296.86993 2.5836,296.57887 2.6646,296.29467 C12.5216,297.75781 40.4976,302.03061 57.9646,305.87515 C58.2196,306.18973 58.3506,306.43473 58.3256,306.58369" id="Fill-31" fill="#FFFFFF"></path>
                                    <path d="M67.644,296.04477 C62.425,279.26227 52.392,253.31579 48.82,244.19395 C73.321,238.22869 70.292,289.59441 67.644,296.04477" id="Fill-33" fill="#76ABFF"></path>
                                    <path d="M46.4277,244.92405 C46.9407,244.73589 47.4397,244.57615 47.9317,244.43209 C51.4987,253.53825 61.6997,279.90907 66.8857,296.68079 C62.2877,295.35975 25.2017,252.74347 46.4277,244.92405" id="Fill-35" fill="#4A75FF"></path>
                                    <path d="M67.1933,296.702252 C67.1183,296.729692 67.0113,296.717932 66.8853,296.681672 C61.7003,279.908972 51.4983,253.538152 47.9313,244.431992 C48.2313,244.343792 48.5273,244.265392 48.8193,244.193852 C52.3913,253.316672 62.4243,279.262172 67.6443,296.044672 C67.4903,296.417072 67.3393,296.649332 67.1933,296.702252" id="Fill-37" fill="#FFFFFF"></path>
                                    <path d="M112.1127,189.078358 C113.6627,193.553038 115.3637,198.370718 117.1597,203.453978 C118.8707,208.297138 120.6837,213.441158 122.5337,218.760598 L147.9717,194.111638 C146.7007,179.384198 150.3217,163.922738 149.7957,153.819918 C149.6897,151.786418 149.0087,148.133958 147.5637,143.928778 L108.3407,167.463478 C108.5947,174.737038 109.7007,182.110558 112.1127,189.078358" id="Fill-39" fill="#C0EDFF"></path>
                                    <path d="M114.0761,118.68584 C94.6331,120.04902 84.6321,131.9031 79.7701,145.97884 L105.8081,164.55474 C105.7191,144.54412 111.5381,125.86434 114.0761,118.68584" id="Fill-41" fill="#C0EDFF"></path>
                                    <path d="M114.7919,204.135372 C112.9949,199.048192 111.2919,194.227572 109.7409,189.746032 C107.2499,182.553812 106.1179,174.949992 105.8639,167.461812 L79.0159,148.308692 C77.0289,154.894292 76.0749,161.850332 75.7489,168.371252 C75.2029,179.298252 79.0469,191.508072 83.7309,203.154392 C97.7999,207.748632 113.6089,215.417132 119.8589,218.559992 C118.1159,213.555132 116.4079,208.711972 114.7919,204.135372" id="Fill-43" fill="#C0EDFF"></path>
                                    <path d="M108.2905,164.780336 L146.7415,141.706236 C142.5975,131.161436 133.7885,118.454756 117.5515,118.543936 C117.2735,118.545896 117.0105,118.565496 116.7355,118.571376 C114.4375,124.903156 108.1455,144.175836 108.2905,164.780336" id="Fill-45" fill="#C0EDFF"></path>
                                    <path d="M140.9252,277.825786 C145.8972,270.128866 161.4282,245.878766 168.9612,231.771666 C163.2732,225.778966 157.7252,220.274306 153.4442,212.927246 C150.5972,208.040966 149.0682,202.648026 148.3162,197.091426 L123.3952,221.238626 C129.5292,238.957026 136.0232,258.705006 140.9252,277.825786" id="Fill-47" fill="#C0EDFF"></path>
                                    <path d="M192.0542,271.156298 C187.0752,252.620578 178.8752,242.386438 170.7282,233.648758 C161.9702,249.861878 144.1012,277.407718 141.7252,281.057238 C144.3122,291.501098 146.3892,301.703878 147.6232,311.227518 C169.6392,311.184398 189.6632,310.972718 190.7622,311.007018 C193.2332,311.083458 200.8812,304.017658 192.0542,271.156298" id="Fill-49" fill="#C0EDFF"></path>
                                    <path d="M120.9506,221.699716 C118.0336,220.202276 100.5156,211.321516 84.8666,205.938376 C90.2746,218.952776 96.3956,231.059696 98.1726,239.580796 C100.4406,250.461736 100.0146,257.249216 97.7396,263.703496 C109.9076,272.112876 132.0876,277.735136 138.7446,279.290396 C133.8156,259.871696 127.1946,239.728776 120.9506,221.699716" id="Fill-51" fill="#C0EDFF"></path>
                                    <path d="M96.8823,265.91271 C95.6283,268.91053 94.0023,271.92795 92.0673,275.34815 C85.5083,286.94351 87.3153,307.50587 88.7863,309.79907 C89.5783,311.03387 118.3373,311.26613 145.1173,311.23085 C143.8993,301.92771 141.8743,291.96797 139.3533,281.76127 C134.5503,280.69993 110.6163,275.08943 96.8823,265.91271" id="Fill-53" fill="#C0EDFF"></path>
                                    <path d="M122.5341,218.760696 C120.6831,213.441256 118.8701,208.297236 117.1591,203.454076 C115.3641,198.370816 113.6631,193.553136 112.1131,189.078456 C109.7011,182.110656 108.5951,174.737136 108.3411,167.463576 L106.9971,168.270116 L105.8641,167.461616 C106.1181,174.949796 107.2501,182.553616 109.7411,189.746816 C111.2921,194.227376 112.9951,199.047996 114.7921,204.135176 C116.4081,208.711776 118.1161,213.554936 119.8591,218.559796 C120.6241,218.943956 121.2961,219.284996 121.7511,219.518236 L122.5341,218.760696 Z" id="Fill-55" fill="#FFFFFF"></path>
                                    <path d="M105.8085,164.554446 L107.1145,165.486426 L108.2905,164.779846 C108.1455,144.175346 114.4375,124.902666 116.7355,118.570886 C115.8315,118.589506 114.9425,118.624786 114.0765,118.685546 C111.5385,125.865026 105.7195,144.543826 105.8085,164.554446" id="Fill-57" fill="#FFFFFF"></path>
                                    <path d="M140.9252,277.825786 C136.0232,258.705006 129.5292,238.957026 123.3952,221.238626 L122.2322,222.366606 L121.3782,221.920706 C121.3592,221.909926 121.2072,221.831526 120.9502,221.700206 C127.1942,239.729266 133.8162,259.872186 138.7452,279.289906 C139.1572,279.385946 139.5302,279.472186 139.8182,279.536866 C140.0822,279.129186 140.4632,278.541186 140.9252,277.825786" id="Fill-59" fill="#FFFFFF"></path>
                                    <path d="M141.4936,281.412782 L141.0336,282.119362 L140.1486,281.933162 C140.0356,281.910622 139.7626,281.851822 139.3526,281.760682 C141.8746,291.968362 143.8986,301.928102 145.1176,311.231242 C145.9546,311.230262 146.7906,311.228302 147.6236,311.227322 C146.3896,301.703682 144.3126,291.500902 141.7256,281.057042 C141.6186,281.220702 141.5356,281.349082 141.4936,281.412782" id="Fill-61" fill="#FFFFFF"></path>
                                    <path d="M108.3408,167.46387 L147.5638,143.92819 C147.3148,143.20299 147.0368,142.45917 146.7408,141.70653 L108.2908,164.78063 C108.2968,165.67341 108.3098,166.56717 108.3408,167.46387" id="Fill-63" fill="#FFFFFF"></path>
                                    <path d="M105.8085,164.554446 L79.7695,145.978546 C79.5035,146.749806 79.2515,147.525966 79.0155,148.308986 L105.8645,167.462106 C105.8305,166.490926 105.8125,165.520726 105.8085,164.554446" id="Fill-65" fill="#FFFFFF"></path>
                                    <path d="M108.3408,167.46387 C108.3098,166.56717 108.2968,165.67341 108.2908,164.78063 L107.1138,165.48623 L105.8088,164.55425 C105.8128,165.52151 105.8308,166.49073 105.8638,167.46191 L106.9968,168.26943 L108.3408,167.46387 Z" id="Fill-67" fill="#FFFFFF"></path>
                                    <path d="M123.3955,221.23843 L148.3165,197.09123 C148.1825,196.10241 148.0575,195.10967 147.9715,194.11105 L122.5345,218.76099 C122.8215,219.58517 123.1065,220.40347 123.3955,221.23843" id="Fill-69" fill="#FFFFFF"></path>
                                    <path d="M119.8593,218.559698 C113.6093,215.416838 97.8003,207.748338 83.7313,203.154098 C84.1063,204.085098 84.4833,205.015118 84.8663,205.938278 C100.5153,211.321418 118.0333,220.202178 120.9503,221.699618 C120.5853,220.643178 120.2223,219.601438 119.8593,218.559698" id="Fill-71" fill="#FFFFFF"></path>
                                    <path d="M122.2319,222.366802 L123.3959,221.238822 C123.1069,220.403862 122.8209,219.585562 122.5339,218.760402 L121.7519,219.518922 C121.2959,219.284702 120.6249,218.944642 119.8589,218.559502 C120.2219,219.602222 120.5849,220.642982 120.9509,221.699422 C121.2079,221.831722 121.3589,221.910122 121.3779,221.920902 L122.2319,222.366802 Z" id="Fill-73" fill="#FFFFFF"></path>
                                    <path d="M138.7451,279.290102 C132.0881,277.734842 109.9071,272.113562 97.7391,263.704182 C97.4791,264.442122 97.1901,265.178102 96.8821,265.913102 C110.6171,275.089822 134.5501,280.699342 139.3531,281.760682 C139.1491,280.937482 138.9551,280.117222 138.7451,279.290102" id="Fill-75" fill="#FFFFFF"></path>
                                    <path d="M141.7255,281.056748 C144.1015,277.407228 161.9705,249.861388 170.7285,233.648268 C170.1385,233.015188 169.5495,232.391908 168.9615,231.771568 C161.4285,245.878668 145.8975,270.129748 140.9255,277.825688 C141.2025,278.907608 141.4585,279.978748 141.7255,281.056748" id="Fill-77" fill="#FFFFFF"></path>
                                    <path d="M139.8178,279.536964 C139.5308,279.472284 139.1578,279.386044 138.7448,279.290004 C138.9548,280.117124 139.1498,280.937384 139.3528,281.761564 C139.7628,281.851724 140.0358,281.910524 140.1488,281.933064 L141.0328,282.119264 L141.4938,281.412684 C141.5358,281.348984 141.6188,281.220604 141.7258,281.056944 C141.4588,279.978944 141.2028,278.906824 140.9248,277.825884 C140.4638,278.541284 140.0828,279.129284 139.8178,279.536964" id="Fill-79" fill="#FFFFFF"></path>
                                    <path d="M431.977,322.704788 C431.977,333.914028 335.276,342.999608 215.989,342.999608 C96.702,342.999608 0,333.914028 0,322.704788 C0,311.496528 96.702,302.409968 215.989,302.409968 C335.276,302.409968 431.977,311.496528 431.977,322.704788" id="Fill-81" fill="#EBFAFF"></path>
                                    <path d="M375.4233,295.135624 L374.0933,294.232064 C374.2283,294.041944 387.6003,274.766324 394.3323,236.974584 C401.1293,198.808484 419.6183,171.788904 419.8043,171.519404 L421.1443,172.411204 C420.9603,172.676784 402.6613,199.432744 395.9263,237.248004 C389.1283,275.417044 375.5603,294.942564 375.4233,295.135624" id="Fill-83" fill="#69DEF9"></path>
                                    <path d="M424.0981,167.213088 C433.2871,171.126228 413.0471,184.742348 413.0471,184.742348 C413.0471,184.742348 411.9751,162.050448 424.0981,167.213088" id="Fill-85" fill="#69DEF9"></path>
                                    <path d="M421.5913,194.757458 C423.1793,201.403818 407.0283,195.993238 407.0283,195.993238 C407.0283,195.993238 419.4963,185.987438 421.5913,194.757458" id="Fill-87" fill="#69DEF9"></path>
                                    <path d="M399.4751,184.568888 C404.4341,179.774728 408.1491,196.101528 408.1491,196.101528 C408.1491,196.101528 392.9331,190.894788 399.4751,184.568888" id="Fill-89" fill="#69DEF9"></path>
                                    <path d="M420.0776,217.046676 C423.1176,226.691836 398.7226,220.337516 398.7226,220.337516 C398.7226,220.337516 416.0666,204.320396 420.0776,217.046676" id="Fill-91" fill="#69DEF9"></path>
                                    <path d="M417.1352,235.373852 C420.3572,245.598192 394.5002,238.863632 394.5002,238.863632 C394.5002,238.863632 412.8842,221.885132 417.1352,235.373852" id="Fill-93" fill="#69DEF9"></path>
                                    <path d="M411.2524,256.818016 C414.3284,266.578816 389.6434,260.149036 389.6434,260.149036 C389.6434,260.149036 407.1934,243.939836 411.2524,256.818016" id="Fill-95" fill="#69DEF9"></path>
                                    <path d="M401.7348,275.278178 C406.5598,284.332398 381.0948,282.380238 381.0948,282.380238 C381.0948,282.380238 395.3688,263.330998 401.7348,275.278178" id="Fill-97" fill="#69DEF9"></path>
                                    <path d="M387.1674,207.267746 C392.9694,200.799746 399.1334,221.018126 399.1334,221.018126 C399.1334,221.018126 379.5134,215.800606 387.1674,207.267746" id="Fill-99" fill="#69DEF9"></path>
                                    <path d="M379.5288,229.327252 C382.8348,221.348092 395.4458,238.452032 395.4458,238.452032 C395.4458,238.452032 375.1668,239.854412 379.5288,229.327252" id="Fill-101" fill="#69DEF9"></path>
                                    <path d="M376.0249,248.04584 C380.7819,240.8056 389.9409,259.90286 389.9409,259.90286 C389.9409,259.90286 369.7479,257.5979 376.0249,248.04584" id="Fill-103" fill="#69DEF9"></path>
                                    <path d="M373.1284,266.060102 C380.2204,260.974882 381.7784,282.020382 381.7784,282.020382 C381.7784,282.020382 363.7734,272.770162 373.1284,266.060102" id="Fill-105" fill="#69DEF9"></path>
                                    <path d="M429.812,258.488034 C399.624,232.813994 364.763,305.338894 366.758,311.137554 C371.832,306.025874 379.29,298.529854 390.217,287.581294 C408.564,269.203354 422.026,261.618154 429.812,258.488034" id="Fill-107" fill="#76ABFF"></path>
                                    <path d="M391.2417,288.65655 C380.5747,299.34247 373.2207,306.73265 368.1577,311.83257 C379.2737,313.11343 452.4337,289.89135 437.4447,267.35723 C435.3527,264.21241 433.2187,261.66147 431.0557,259.61817 C423.4457,262.61011 409.7837,270.08261 391.2417,288.65655" id="Fill-109" fill="#4A75FF"></path>
                                    <path d="M368.1577,311.832962 C373.2197,306.733042 380.5747,299.342862 391.2417,288.656942 C409.7837,270.082022 423.4457,262.609522 431.0557,259.618562 C430.6417,259.226562 430.2277,258.842402 429.8117,258.487642 C422.0257,261.618742 408.5637,269.202962 390.2177,287.581882 C379.2897,298.530442 371.8317,306.025482 366.7587,311.137162 C366.7847,311.213602 366.8107,311.289062 366.8507,311.341982 C367.0407,311.598742 367.4947,311.756522 368.1577,311.832962" id="Fill-111" fill="#FFFFFF"></path>
                                    <path d="M381.5727,306.8478 C398.8697,302.90722 426.8477,298.65402 436.7127,297.20068 C426.2707,271.09838 385.2917,300.97074 381.5727,306.8478" id="Fill-113" fill="#76ABFF"></path>
                                    <path d="M437.6089,299.826982 C437.4439,299.245842 437.2619,298.695082 437.0729,298.158042 C427.2249,299.607462 398.7859,303.926322 381.5189,307.893362 C385.5159,311.507602 444.4399,323.835022 437.6089,299.826982" id="Fill-115" fill="#4A75FF"></path>
                                    <path d="M381.3071,307.616316 C381.3311,307.701576 381.4091,307.795656 381.5191,307.893656 C398.7861,303.925636 427.2251,299.607756 437.0731,298.158336 C436.9571,297.831016 436.8371,297.511536 436.7121,297.200876 C426.8481,298.653236 398.8691,302.906436 381.5731,306.847996 C381.3581,307.188056 381.2601,307.452656 381.3071,307.616316" id="Fill-117" fill="#FFFFFF"></path>
                                    <path d="M101.728,278.062162 C101.741,278.061182 101.752,278.061182 101.765,278.060202 C111.036,277.535902 118.651,279.869282 124.395,284.993702 C132.136,291.899762 135.006,302.431822 136.06,309.948422 C133.857,310.080722 131.49,310.208122 128.999,310.330622 C127.851,305.290482 125.537,299.435962 120.86,295.263122 C116.435,291.313722 110.616,289.515422 103.566,289.913302 C103.557,289.914282 103.547,289.914282 103.538,289.915262 C91.543,290.599302 83.127,295.190602 78.522,303.560782 C76.956,306.406702 76.06,309.345722 75.562,311.997602 C71.393,312.070122 67.437,312.124022 63.804,312.159302 C64.198,306.918262 65.741,299.403622 70.522,292.753342 C76.944,283.820642 87.444,278.877522 101.728,278.062162" id="Fill-119" fill="#94EBFF"></path>
                                    <path d="M99.9248,249.778088 C152.4128,246.810648 152.6988,305.036368 152.8718,307.937168 C152.8998,308.408548 150.0128,308.866208 145.1788,309.295448 C144.4028,299.694388 141.2828,282.411108 129.1858,271.617388 C121.4578,264.723088 111.2778,261.581208 98.9278,262.279948 C98.9108,262.280928 98.8938,262.281908 98.8788,262.281908 C77.7898,263.485348 63.0048,271.531148 54.9298,286.199788 C49.5658,295.943928 48.5848,306.279988 48.7148,312.158028 C45.1928,312.099228 43.0948,311.978688 42.9838,311.788568 C42.1578,310.388148 36.5418,253.360968 99.9248,249.778088" id="Fill-121" fill="#94EBFF"></path>
                                    <path d="M125.7255,283.562216 C119.5735,278.072256 111.4735,275.572276 101.6515,276.126956 C101.6395,276.126956 101.6245,276.127936 101.6125,276.128916 C84.8615,277.085396 73.1135,283.482836 66.6935,295.146796 C63.3815,301.163016 62.1865,307.458536 61.8665,312.176256 C57.5175,312.210556 53.7065,312.214476 50.6705,312.185076 C50.5565,306.089476 51.6215,293.837516 59.1035,283.218236 C67.2515,271.655216 80.6735,265.260716 98.9945,264.216036 C99.0095,264.215056 99.0255,264.214076 99.0405,264.213096 C110.8415,263.545716 120.5355,266.519036 127.8545,273.049756 C139.4625,283.406396 142.4615,300.147736 143.2085,309.461656 C141.6365,309.586116 139.9065,309.708616 138.0375,309.827196 C136.9535,301.997976 133.9485,290.898496 125.7255,283.562216" id="Fill-123" fill="#94EBFF"></path>
                                    <path d="M81.895,301.92477 C86.414,295.80467 93.734,292.41387 103.653,291.84841 C103.663,291.84743 103.67,291.84743 103.679,291.84645 C110.179,291.47993 115.512,293.11065 119.53,296.69451 C123.748,300.45771 125.899,305.76441 127,310.42725 C112.241,311.12403 93.558,311.66695 77.553,311.96193 C78.204,308.81123 79.473,305.20483 81.895,301.92477" id="Fill-125" fill="#1AC1F3"></path>
                                    <path d="M98.8784,262.281712 C98.8944,262.281712 98.9114,262.280732 98.9274,262.279752 C111.2774,261.581012 121.4574,264.722892 129.1854,271.617192 C141.2824,282.410912 144.4024,299.694192 145.1794,309.296232 C144.5534,309.351112 143.8994,309.406972 143.2094,309.461852 C142.4614,300.147932 139.4624,283.406592 127.8554,273.049952 C120.5354,266.519232 110.8414,263.545912 99.0404,264.213292 C99.0254,264.214272 99.0094,264.215252 98.9944,264.216232 C80.6734,265.260912 67.2524,271.654432 59.1044,283.218432 C51.6224,293.837712 50.5564,306.089672 50.6704,312.185272 C49.9744,312.178412 49.3264,312.169592 48.7144,312.158812 C48.5844,306.279792 49.5654,295.944712 54.9294,286.199592 C63.0044,271.530952 77.7904,263.486132 98.8784,262.281712" id="Fill-127" fill="#1AC1F3"></path>
                                    <path d="M124.3955,284.993996 C118.6505,279.869576 111.0365,277.536196 101.7645,278.060496 L101.7085,277.093236 L101.7645,278.060496 C101.7525,278.061476 101.7405,278.061476 101.7285,278.062456 C87.4435,278.877816 76.9445,283.820936 70.5215,292.753636 C65.7405,299.403916 64.1985,306.918556 63.8045,312.159596 C63.1475,312.166456 62.5005,312.171356 61.8665,312.176256 C62.1875,307.458536 63.3815,301.163016 66.6935,295.146796 C73.1135,283.482836 84.8615,277.085396 101.6125,276.128916 C101.6245,276.127936 101.6395,276.126956 101.6515,276.126956 C111.4735,275.572276 119.5735,278.073236 125.7255,283.562216 C133.9485,290.898496 136.9535,301.997976 138.0375,309.827196 C137.3935,309.868356 136.7355,309.908536 136.0595,309.948716 C135.0065,302.432116 132.1355,291.900056 124.3955,284.993996" id="Fill-129" fill="#1AC1F3"></path>
                                    <path d="M103.538,289.915066 C103.547,289.914086 103.557,289.914086 103.566,289.913106 L103.622,290.879386 L103.566,289.913106 C110.616,289.515226 116.435,291.314506 120.86,295.262926 C125.537,299.435766 127.85,305.290286 128.999,310.330426 C128.341,310.362766 127.675,310.395106 127,310.427446 C125.899,305.764606 123.747,300.457906 119.53,296.694706 C115.512,293.110846 110.179,291.480126 103.679,291.846646 C103.67,291.847626 103.663,291.847626 103.653,291.848606 C93.734,292.414066 86.413,295.804866 81.895,301.924966 C79.473,305.205026 78.204,308.811426 77.553,311.962126 C76.885,311.974866 76.22,311.985646 75.562,311.997406 C76.06,309.345526 76.956,306.406506 78.522,303.560586 C83.127,295.190406 91.543,290.599106 103.538,289.915066" id="Fill-131" fill="#1AC1F3"></path>
                                    <path d="M210.1606,0.49539 C210.1606,0.49539 224.9926,-2.46519 227.2126,6.08923 C229.4336,14.64463 228.7066,51.88463 226.5766,60.39005 C224.4456,68.89645 215.4426,69.64811 196.2726,71.42289 C177.1026,73.19767 154.7956,70.38703 152.7976,67.52249 C150.8006,64.65599 151.0406,44.18673 151.0406,44.18673 C151.0406,44.18673 143.1306,50.63709 138.2626,45.18045 C133.3936,39.72185 128.6556,23.17847 144.9116,22.50815 L149.5496,22.84429 C149.5496,22.84429 146.5386,7.45633 154.9946,3.85581 C163.4516,0.25431 172.1376,1.77331 172.1376,1.77331 C172.1376,1.77331 170.8986,13.98607 181.2726,17.22987 C191.6476,20.47465 203.9646,9.23993 197.9426,3.20117 C197.9426,3.20117 205.5386,0.97363 210.1606,0.49539" id="Fill-133" fill="#94EBFF"></path>
                                    <path d="M205.8208,124.26155 C205.8208,124.26155 191.4248,127.13589 189.2698,118.83235 C187.1138,110.52783 187.8188,74.38347 189.8868,66.12795 C191.9548,57.87145 200.6938,57.14233 219.2998,55.41949 C237.9058,53.69763 259.5578,56.42497 261.4958,59.20621 C263.4348,61.98745 263.2018,81.85597 263.2018,81.85597 C263.2018,81.85597 270.8788,75.59475 275.6038,80.89067 C280.3288,86.18757 284.9278,102.24585 269.1508,102.89657 L264.6488,102.57023 C264.6488,102.57023 267.5718,117.50543 259.3638,121.00109 C251.1558,124.49577 210.3058,123.79703 205.8208,124.26155" id="Fill-135" fill="#BBF5FF"></path>
                                    <path d="M270.7695,14.449904 C270.7695,14.449904 269.0005,6.461924 273.7955,5.201644 C278.5905,3.942344 299.5335,4.074644 304.3315,5.165384 C309.1285,6.257104 309.6135,11.113004 310.7465,21.452004 C311.8775,31.791004 310.4545,43.856764 308.8565,44.955344 C307.2595,46.053924 295.7485,46.067644 295.7485,46.067644 C295.7485,46.067644 299.4315,50.293404 296.3965,52.960964 C293.3625,55.627544 284.0935,58.301964 283.6025,49.529004 L283.7595,47.021184 C283.7595,47.021184 275.1285,48.755784 273.0445,44.214464 C270.9605,39.673144 271.7545,34.972084 271.7545,34.972084 C271.7545,34.972084 278.6295,35.556164 280.3805,29.930964 C282.1325,24.306744 275.7295,17.733884 272.3765,21.027664 C272.3765,21.027664 271.0715,16.942044 270.7695,14.449904" id="Fill-137" fill="#DCFDFF"></path>
                                    <path d="M241.9003,272.839644 L221.2553,272.839644 C220.7323,272.839644 220.3073,272.423144 220.3073,271.910604 L220.3073,268.352224 L242.8493,268.352224 L242.8493,271.910604 C242.8493,272.423144 242.4243,272.839644 241.9003,272.839644" id="Fill-139" fill="#1A2982"></path>
                                    <mask id="mask-2" fill="white">
                                        <use xlink:href="#path-1"></use>
                                    </mask>
                                    <g id="Clip-142"></g>
                                    <polygon id="Fill-141" fill="#1A2982" mask="url(#mask-2)" points="228.594 292.38202 234.561 292.38202 234.561 272.30574 228.594 272.30574"></polygon>
                                    <polygon id="Fill-143" fill="#1A2982" mask="url(#mask-2)" points="212.9038 309.690192 211.7988 308.708232 229.3678 289.703092 230.4738 290.685052"></polygon>
                                    <polygon id="Fill-144" fill="#1A2982" mask="url(#mask-2)" points="233.5761 311.052 230.5101 291.96552 231.9831 291.73914 235.0501 310.82562"></polygon>
                                    <polygon id="Fill-145" fill="#1A2982" mask="url(#mask-2)" points="250.2641 309.840426 232.6951 290.835286 233.8001 289.854306 251.3691 308.859446"></polygon>
                                    <path d="M214.3403,310.336208 C214.3403,311.323068 213.5243,312.122748 212.5173,312.122748 C211.5103,312.122748 210.6943,311.323068 210.6943,310.336208 C210.6943,309.349348 211.5103,308.549668 212.5173,308.549668 C213.5243,308.549668 214.3403,309.349348 214.3403,310.336208" id="Fill-146" fill="#1A2982" mask="url(#mask-2)"></path>
                                    <path d="M248.8281,310.487422 C248.8281,311.474282 249.6441,312.273962 250.6511,312.273962 C251.6581,312.273962 252.4741,311.474282 252.4741,310.487422 C252.4741,309.499582 251.6581,308.700882 250.6511,308.700882 C249.6441,308.700882 248.8281,309.499582 248.8281,310.487422" id="Fill-147" fill="#1A2982" mask="url(#mask-2)"></path>
                                    <path d="M235.5561,311.994662 C235.5561,312.981522 234.7401,313.781202 233.7331,313.781202 C232.7261,313.781202 231.9101,312.981522 231.9101,311.994662 C231.9101,311.006822 232.7261,310.208122 233.7331,310.208122 C234.7401,310.208122 235.5561,311.006822 235.5561,311.994662" id="Fill-148" fill="#1A2982" mask="url(#mask-2)"></path>
                                    <path d="M216.5253,268.352126 L246.5443,268.352126 C247.2043,268.352126 247.7443,267.822926 247.7443,267.176126 L247.7443,260.757126 C247.7443,260.110326 247.2043,259.581126 246.5443,259.581126 L216.5253,259.581126 C215.8653,259.581126 215.3253,260.110326 215.3253,260.757126 L215.3253,267.176126 C215.3253,267.822926 215.8653,268.352126 216.5253,268.352126" id="Fill-149" fill="#4A75FF" mask="url(#mask-2)"></path>
                                    <path d="M211.3823,310.575426 C211.3823,311.937626 210.2553,313.041106 208.8653,313.041106 C207.4763,313.041106 206.3493,311.937626 206.3493,310.575426 C206.3493,309.212246 207.4763,308.108766 208.8653,308.108766 C210.2553,308.108766 211.3823,309.212246 211.3823,310.575426" id="Fill-150" fill="#202C52" mask="url(#mask-2)"></path>
                                    <polygon id="Fill-151" fill="#202C52" mask="url(#mask-2)" points="208.049 309.17334 209.499 309.17334 209.499 307.23392 208.049 307.23392"></polygon>
                                    <path d="M236.7177,184.91816 C236.7177,184.91816 232.2377,182.79254 233.1047,174.29398 C233.9717,165.79542 236.7177,164.23722 236.7177,164.23722 L232.9927,155.0311 L226.0227,153.89822 L223.2767,155.17222 L219.2297,157.58008 C219.2297,157.58008 218.2177,173.30222 223.1317,177.41038 C228.0457,181.51756 226.1667,186.19314 226.1667,186.19314 L222.8427,192.00062 L229.0577,197.94922 L234.4047,197.94922 L239.4637,187.60924 L236.7177,184.91816 Z" id="Fill-152" fill="#FFEBD2" mask="url(#mask-2)"></path>
                                    <path d="M229.9677,160.70334 C229.9677,160.70334 222.3077,166.79404 216.5267,162.40266 C210.7447,158.01226 222.1627,149.3716 232.7147,155.4623 C243.2647,161.553 233.7777,181.15594 233.7777,181.15594 C233.7777,181.15594 232.1177,176.2334 232.7327,172.64268 C232.9057,171.63034 232.0787,168.756 232.7147,166.51082 C233.9847,162.0185 232.4247,162.54476 232.4247,162.54476 C232.4247,162.54476 230.1127,162.40266 229.9677,160.70334" id="Fill-153" fill="#1A2982" mask="url(#mask-2)"></path>
                                    <path d="M240.0419,186.333672 C240.0419,186.333672 249.4369,188.600412 252.6169,194.407892 C255.7959,200.215372 250.0149,210.272132 250.0149,210.272132 L247.7029,214.238192 C247.7029,214.238192 245.1009,236.617472 247.5579,239.874992 C247.5579,239.874992 220.7049,242.283832 218.1889,240.583532 C215.6739,238.884212 216.4829,219.195032 216.4829,219.195032 L210.4129,202.340012 C210.4129,202.340012 214.3919,189.606872 225.5549,187.261732 C225.5549,187.261732 226.0219,198.799272 231.3699,194.549992 C236.7179,190.300712 236.7179,184.918552 236.7179,184.918552 L240.0419,186.333672 Z" id="Fill-154" fill="#1AC1F3" mask="url(#mask-2)"></path>
                                    <path d="M239.9643,230.132126 L246.9083,218.701406 L242.3663,230.749526 L246.5293,234.054086 L246.7713,237.263586 C246.7713,237.263586 243.5883,234.280466 235.0183,240.327066 C226.4473,246.373666 217.3983,240.603426 217.3983,240.603426 L216.7773,235.832786 L239.9643,230.132126 Z" id="Fill-155" fill="#1CB5F2" mask="url(#mask-2)"></path>
                                    <path d="M237.6855,207.202674 C237.6855,207.202674 232.0925,217.117334 233.1525,220.800174 C233.1525,220.800174 221.5605,221.150034 218.1905,221.355834 C215.8755,221.497934 222.5535,228.354994 222.5535,228.354994 C222.5535,228.354994 235.5615,231.538034 240.1865,230.371834 C240.1865,230.371834 248.9555,217.117334 250.0155,210.272034 C250.0155,210.272034 244.5305,206.069794 237.6855,207.202674" id="Fill-156" fill="#FFEBD2" mask="url(#mask-2)"></path>
                                    <path d="M210.3745,202.032782 C210.3745,202.032782 217.5835,203.097062 218.1335,204.609202 C218.7175,208.047042 214.6005,215.326482 212.8545,214.566002 C206.3485,211.731842 205.2105,215.714562 210.3745,202.032782" id="Fill-157" fill="#FFEBD2" mask="url(#mask-2)"></path>
                                    <path d="M189.4072,300.120786 C189.4072,300.120786 199.9102,266.032466 197.1152,259.610526 C197.1152,259.610526 209.8342,261.026626 213.0142,259.798686 C216.1942,258.572706 231.9922,240.561286 231.9922,240.561286 C231.9922,240.561286 200.5272,239.754746 189.0222,243.935426 C180.4462,247.051826 185.3602,283.123666 182.6622,300.120786 L189.4072,300.120786 Z" id="Fill-158" fill="#0B33B2" mask="url(#mask-2)"></path>
                                    <path d="M247.5581,239.874698 C247.5581,239.874698 250.9781,258.193838 245.1971,259.799078 C239.4161,261.405298 218.9881,260.931958 217.8321,260.648738 C217.8321,260.648738 218.6031,279.912598 212.2441,300.121178 L204.8241,300.121178 C204.8241,300.121178 203.7641,261.310238 203.4751,257.816538 C203.1861,254.322838 202.1261,245.257838 205.3061,244.313118 C208.4861,243.368398 230.1661,239.780618 247.5581,239.874698" id="Fill-159" fill="#1E41D3" mask="url(#mask-2)"></path>
                                    <polygon id="Fill-160" fill="#FFEBD2" mask="url(#mask-2)" points="212.2436 300.120786 211.7616 303.237186 205.0166 303.237186 204.8246 300.120786"></polygon>
                                    <path d="M211.7617,312.11334 C211.7617,312.11334 212.7257,307.3917 211.7617,303.2365 L205.0167,303.2365 C205.0167,303.2365 203.3787,306.82526 199.6207,308.71372 C195.8637,310.60218 193.1647,311.83012 193.5507,312.86892 C193.9357,313.90674 211.4887,314.00376 211.7617,312.11334" id="Fill-161" fill="#1A2982" mask="url(#mask-2)"></path>
                                    <polygon id="Fill-162" fill="#FFEBD2" mask="url(#mask-2)" points="189.4072 300.120786 189.1062 303.237186 182.3622 303.237186 182.6622 300.120786"></polygon>
                                    <path d="M189.1064,312.11334 C189.1064,312.11334 190.0704,307.3917 189.1064,303.2365 L182.3614,303.2365 C182.3614,303.2365 180.7234,306.82526 176.9654,308.71372 C173.2084,310.60218 170.5094,311.83012 170.8954,312.86892 C171.2804,313.90674 188.8334,314.00376 189.1064,312.11334" id="Fill-163" fill="#1A2982" mask="url(#mask-2)"></path>
                                    <path d="M220.021,200.736928 L218.189,206.166128 C218.189,206.166128 216.266,212.477328 215.215,213.272108 C214.164,214.067868 215.215,215.674088 215.215,215.674088 L217.396,219.349088 C217.396,219.349088 220.363,203.374108 220.021,200.736928" id="Fill-164" fill="#1CB5F2" mask="url(#mask-2)"></path>
                                    <path d="M186.9194,230.458466 C186.9194,230.458466 234.4114,230.970026 239.9644,230.132126 C239.9644,230.132126 240.2134,229.185446 237.1974,228.760126 C234.1804,228.334806 222.9884,228.315206 222.9884,228.315206 L186.8374,228.855186 C186.8374,228.855186 186.1554,230.450626 186.9194,230.458466" id="Fill-165" fill="#A1CCFF" mask="url(#mask-2)"></path>
                                    <path d="M175.768,199.0478 C175.768,199.0478 206.154,198.9792 207.333,199.39472 C208.512,199.80828 222.989,228.3155 222.989,228.3155 L186.838,228.85548 C186.838,228.85548 174.536,201.37726 175.768,199.0478" id="Fill-166" fill="#A1CCFF" mask="url(#mask-2)"></path>
                                    <path d="M344.4673,285.488798 C344.4563,285.488798 344.4473,285.487818 344.4373,285.487818 C336.8043,285.177158 330.5723,287.194978 325.9163,291.485418 C319.6443,297.267418 317.4253,305.966878 316.6613,312.163418 C318.4743,312.242798 320.4243,312.316298 322.4743,312.384898 C323.3503,308.224798 325.1743,303.378698 328.9643,299.884998 C332.5503,296.579458 337.3123,295.024198 343.1153,295.260378 C343.1243,295.261358 343.1323,295.261358 343.1393,295.261358 C353.0143,295.668058 359.9983,299.334238 363.9013,306.158958 C365.2273,308.479598 366.0043,310.885498 366.4493,313.061098 C369.8803,313.065998 373.1343,313.059138 376.1223,313.039538 C375.7283,308.734398 374.3573,302.575098 370.3343,297.166478 C364.9313,289.902718 356.2283,285.972918 344.4673,285.488798" id="Fill-167" fill="#C0EDFF" mask="url(#mask-2)"></path>
                                    <path d="M345.5669,262.200372 C302.3549,260.443232 302.9079,308.339752 302.8059,310.728012 C302.7899,311.116092 305.1699,311.455172 309.1509,311.745252 C309.6599,303.836652 311.9919,289.580592 321.7959,280.545972 C328.0579,274.773772 336.3889,272.057212 346.5559,272.469792 C346.5699,272.470772 346.5849,272.470772 346.5969,272.471752 C363.9599,273.187152 376.2289,279.613012 383.0709,291.572932 C387.6149,299.516812 388.5619,308.005572 388.5349,312.843832 C391.4309,312.747792 393.1549,312.621372 393.2439,312.464572 C393.9039,311.301312 397.7499,264.322072 345.5669,262.200372" id="Fill-168" fill="#C0EDFF" mask="url(#mask-2)"></path>
                                    <path d="M324.8032,290.325588 C329.7892,285.730368 336.4172,283.567508 344.5032,283.894828 C344.5142,283.895808 344.5262,283.895808 344.5362,283.896788 C358.3262,284.465188 368.0762,289.573928 373.5162,299.084828 C376.3222,303.989728 377.3892,309.152368 377.7172,313.029248 C381.2942,313.000828 384.4292,312.954768 386.9262,312.890088 C386.9372,307.874448 385.8952,297.811808 379.5962,289.174088 C372.7382,279.770008 361.6122,274.684788 346.5282,274.063468 C346.5152,274.063468 346.5022,274.062488 346.4902,274.062488 C336.7752,273.667548 328.8412,276.240048 322.9092,281.706488 C313.5022,290.376548 311.2632,304.184748 310.7742,311.856188 C312.0692,311.937528 313.4942,312.015928 315.0332,312.089428 C315.8192,305.635148 318.1392,296.467248 324.8032,290.325588" id="Fill-169" fill="#C0EDFF" mask="url(#mask-2)"></path>
                                    <path d="M361.104,304.858106 C357.304,299.882646 351.237,297.189606 343.071,296.852486 L343.049,296.852486 C337.698,296.633946 333.333,298.046126 330.078,301.045906 C326.66,304.196606 324.962,308.588966 324.12,312.438406 C336.269,312.818646 351.643,313.023466 364.812,313.056786 C364.234,310.473506 363.14,307.523706 361.104,304.858106" id="Fill-170" fill="#6ED9F9" mask="url(#mask-2)"></path>
                                    <path d="M346.5971,272.472144 C346.5841,272.471164 346.5701,272.471164 346.5561,272.470184 C336.3891,272.056624 328.0581,274.774164 321.7951,280.545384 C311.9921,289.580984 309.6591,303.837044 309.1511,311.744664 C309.6671,311.782884 310.2061,311.819144 310.7741,311.856384 C311.2631,304.183964 313.5021,290.376744 322.9101,281.706684 C328.8411,276.240244 336.7751,273.667744 346.4901,274.062684 C346.5021,274.062684 346.5151,274.063664 346.5281,274.063664 C361.6121,274.684984 372.7381,279.769224 379.5961,289.174284 C385.8951,297.811024 386.9371,307.874644 386.9261,312.890284 C387.4981,312.875584 388.0321,312.859904 388.5351,312.843244 C388.5621,308.005964 387.6151,299.517204 383.0711,291.572344 C376.2291,279.612424 363.9591,273.186564 346.5971,272.472144" id="Fill-171" fill="#6ED9F9" mask="url(#mask-2)"></path>
                                    <path d="M325.9165,291.485516 C330.5725,287.195076 336.8045,285.177256 344.4375,285.487916 L344.4705,284.691176 L344.4375,285.487916 C344.4475,285.487916 344.4565,285.488896 344.4675,285.488896 C356.2285,285.973016 364.9315,289.902816 370.3345,297.166576 C374.3565,302.574216 375.7285,308.734496 376.1225,313.039636 C376.6635,313.036696 377.1945,313.032776 377.7175,313.028856 C377.3895,309.151976 376.3215,303.990316 373.5165,299.085416 C368.0765,289.574516 358.3265,284.464796 344.5365,283.897376 C344.5255,283.896396 344.5145,283.896396 344.5035,283.895416 C336.4175,283.567116 329.7895,285.729976 324.8035,290.325196 C318.1395,296.466856 315.8185,305.634756 315.0335,312.089036 C315.5635,312.114516 316.1045,312.139016 316.6615,312.163516 C317.4255,305.966976 319.6445,297.266536 325.9165,291.485516" id="Fill-172" fill="#6ED9F9" mask="url(#mask-2)"></path>
                                    <path d="M343.1391,295.260966 C343.1321,295.260966 343.1241,295.260966 343.1161,295.259986 L343.0821,296.056726 L343.1161,295.259986 C337.3121,295.024786 332.5501,296.580046 328.9641,299.885586 C325.1741,303.378306 323.3501,308.225386 322.4741,312.385486 C323.0151,312.403126 323.5641,312.421746 324.1191,312.438406 C324.9621,308.588966 326.6601,304.196606 330.0771,301.045906 C333.3331,298.046126 337.6981,296.633946 343.0491,296.852486 L343.0711,296.852486 C351.2371,297.189606 357.3041,299.882646 361.1041,304.858106 C363.1401,307.523706 364.2341,310.473506 364.8121,313.056786 C365.3611,313.057766 365.9091,313.059726 366.4501,313.060706 C366.0041,310.885106 365.2271,308.479206 363.9011,306.158566 C359.9981,299.333846 353.0141,295.667666 343.1391,295.260966" id="Fill-173" fill="#6ED9F9" mask="url(#mask-2)"></path>
                                    <polygon id="Fill-174" fill="#4A75FF" mask="url(#mask-2)" points="113.491 314.1635 117.62 314.1635 117.62 232.16494 113.491 232.16494"></polygon>
                                    <path d="M364.9204,277.430552 L344.2754,277.430552 C343.7514,277.430552 343.3264,277.014052 343.3264,276.501512 L343.3264,272.943132 L365.8684,272.943132 L365.8684,276.501512 C365.8684,277.014052 365.4434,277.430552 364.9204,277.430552" id="Fill-175" fill="#1A2982" mask="url(#mask-2)"></path>
                                    <polygon id="Fill-176" fill="#1A2982" mask="url(#mask-2)" points="351.615 296.97332 357.582 296.97332 357.582 276.89704 351.615 276.89704"></polygon>
                                    <polygon id="Fill-177" fill="#1A2982" mask="url(#mask-2)" points="335.9233 314.281002 334.8183 313.299042 352.3873 294.293902 353.4933 295.275862"></polygon>
                                    <polygon id="Fill-178" fill="#1A2982" mask="url(#mask-2)" points="356.5962 315.642908 353.5302 296.556428 355.0032 296.330048 358.0702 315.416528"></polygon>
                                    <polygon id="Fill-179" fill="#1A2982" mask="url(#mask-2)" points="373.2837 314.431334 355.7147 295.426194 356.8197 294.445214 374.3887 313.450354"></polygon>
                                    <path d="M337.3598,314.927018 C337.3598,315.913878 336.5438,316.713558 335.5368,316.713558 C334.5298,316.713558 333.7138,315.913878 333.7138,314.927018 C333.7138,313.940158 334.5298,313.140478 335.5368,313.140478 C336.5438,313.140478 337.3598,313.940158 337.3598,314.927018" id="Fill-180" fill="#1A2982" mask="url(#mask-2)"></path>
                                    <path d="M371.8481,315.078232 C371.8481,316.065092 372.6641,316.864772 373.6711,316.864772 C374.6781,316.864772 375.4941,316.065092 375.4941,315.078232 C375.4941,314.091372 374.6781,313.291692 373.6711,313.291692 C372.6641,313.291692 371.8481,314.091372 371.8481,315.078232" id="Fill-181" fill="#1A2982" mask="url(#mask-2)"></path>
                                    <path d="M358.5757,316.58557 C358.5757,317.57243 357.7597,318.37211 356.7527,318.37211 C355.7457,318.37211 354.9297,317.57243 354.9297,316.58557 C354.9297,315.59871 355.7457,314.79903 356.7527,314.79903 C357.7597,314.79903 358.5757,315.59871 358.5757,316.58557" id="Fill-182" fill="#1A2982" mask="url(#mask-2)"></path>
                                    <path d="M339.5454,272.943034 L369.5644,272.943034 C370.2244,272.943034 370.7644,272.413834 370.7644,271.767034 L370.7644,265.348034 C370.7644,264.701234 370.2244,264.172034 369.5644,264.172034 L339.5454,264.172034 C338.8854,264.172034 338.3454,264.701234 338.3454,265.348034 L338.3454,271.767034 C338.3454,272.413834 338.8854,272.943034 339.5454,272.943034" id="Fill-183" fill="#4A75FF" mask="url(#mask-2)"></path>
                                    <polygon id="Fill-184" fill="#1A2982" mask="url(#mask-2)" points="329.5561 183.309392 327.5531 200.736732 331.0281 207.117512 339.5691 188.718992 340.2551 181.359192 333.9041 180.654572"></polygon>
                                    <path d="M324.7514,201.611676 C324.7514,201.611676 320.3394,195.366136 323.9664,180.763156 C327.5944,166.158216 325.2854,160.585936 328.2534,159.721576 C331.2224,158.856236 331.0254,182.107716 331.0254,182.107716 L324.7514,201.611676 Z" id="Fill-185" fill="#1A2982" mask="url(#mask-2)"></path>
                                    <polygon id="Fill-186" fill="#4A75FF" mask="url(#mask-2)" points="281.778 314.1635 285.907 314.1635 285.907 232.16494 281.778 232.16494"></polygon>
                                    <path d="M335.3393,192.772566 C338.3173,186.265366 340.1093,187.703026 339.7523,186.752426 L347.3003,191.524046 L338.8683,209.490386 C338.8683,209.490386 332.6293,224.765646 328.1993,225.823066 C323.7713,226.880486 318.9473,218.959146 322.5353,215.088146 C326.1233,211.219106 331.9833,200.105906 335.3393,192.772566" id="Fill-187" fill="#FFEBD2" mask="url(#mask-2)"></path>
                                    <path d="M337.3979,223.805246 C337.3979,223.805246 319.4569,224.765646 314.3589,223.325046 C309.2609,221.883466 309.8489,223.421086 305.0449,220.634946 C305.0449,220.634946 303.7709,219.578506 302.2999,221.787426 C300.8299,223.997326 298.1829,224.670586 299.0649,226.112166 C299.9469,227.552766 305.6329,225.342866 305.9279,225.150786 C306.2219,224.958706 308.8689,226.687426 311.0259,225.727026 C313.1829,224.765646 325.3119,233.893366 336.2089,233.990386 C347.1039,234.085446 337.3979,223.805246 337.3979,223.805246" id="Fill-188" fill="#FFEBD2" mask="url(#mask-2)"></path>
                                    <path d="M330.06,179.173106 C330.06,179.173106 327.727,180.173686 328.2,184.797326 C328.672,189.420966 321.987,209.393366 322.536,217.175546 C323.084,224.958706 329.456,223.805246 331.711,214.197326 C333.966,204.590386 328.868,200.488106 330.093,185.004106 C330.093,185.004106 332.089,184.954126 334.302,182.330666 C336.516,179.705246 330.06,179.173106 330.06,179.173106" id="Fill-189" fill="#FFEBD2" mask="url(#mask-2)"></path>
                                    <path d="M341.4174,194.22914 C341.4174,194.22914 340.7314,182.68474 334.9464,182.39564 C329.1624,182.10752 327.7904,174.61346 328.3784,166.44614 C328.9664,158.2798 339.8964,163.37286 339.8964,163.37286 L344.1624,178.84118 L346.1374,188.22762 C346.1374,188.22762 344.4574,198.55192 341.4174,194.22914" id="Fill-190" fill="#FFEBD2" mask="url(#mask-2)"></path>
                                    <path d="M345.0454,225.054158 C345.0454,225.054158 350.8294,237.929398 350.1434,243.309598 C350.1434,243.309598 361.1234,245.711578 366.1234,240.427418 C366.1234,240.427418 363.3784,235.082498 363.8684,227.186638 C364.3584,219.289798 351.2214,197.191778 351.2214,197.191778 L344.1624,210.834358 L345.0454,225.054158 Z" id="Fill-191" fill="#1E41D3" mask="url(#mask-2)"></path>
                                    <path d="M254.9472,312.100894 C255.6002,307.329274 291.2872,251.028274 291.2872,251.028274 C291.2872,251.028274 302.2672,246.927954 295.6002,267.041474 C288.9342,287.153034 258.3452,312.100894 258.3452,312.100894 L254.9472,312.100894 Z" id="Fill-192" fill="#06B3EF" mask="url(#mask-2)"></path>
                                    <path d="M366.1235,240.426928 C366.1235,240.426928 374.4565,263.773468 366.9075,265.215048 C359.3585,266.656628 312.4965,264.061588 302.0055,261.948708 C302.0055,261.948708 305.6335,283.278408 291.6135,312.101188 L288.3785,312.101188 C288.3785,312.101188 287.8885,249.234188 291.2875,247.185008 C294.6855,245.134848 347.4895,242.918088 350.1435,243.309108 C352.7965,243.700128 366.1235,240.426928 366.1235,240.426928" id="Fill-193" fill="#1AC1F3" mask="url(#mask-2)"></path>
                                    <path d="M337.0063,168.752962 C337.0063,168.752962 328.7163,169.809402 328.2533,164.141082 C327.7903,158.472762 330.3493,156.479442 335.2403,157.511382 C341.6133,158.855942 340.1033,158.784402 343.6723,166.446042 C353.6723,187.910982 381.0263,191.811382 377.1043,218.329202 C377.1043,218.329202 375.7313,235.239102 356.1233,227.937122 C361.0933,215.047182 351.2663,200.871482 345.2263,190.618722 C341.1743,183.739122 343.8513,181.121542 337.0063,168.752962" id="Fill-194" fill="#1A2982" mask="url(#mask-2)"></path>
                                    <path d="M291.6137,312.100894 C291.6137,312.100894 290.9277,315.511294 291.1727,316.136534 C291.4177,316.760794 291.9407,319.642974 291.3527,319.690994 L278.1497,319.690994 C278.1497,319.690994 275.4377,318.731574 284.3587,317.192974 C284.3587,317.192974 287.4717,316.857814 288.1337,314.310794 C288.1337,314.310794 288.3537,313.014254 288.3537,312.340994 C288.3537,311.770634 291.6137,312.100894 291.6137,312.100894" id="Fill-195" fill="#1A2982" mask="url(#mask-2)"></path>
                                    <path d="M341.0776,196.142198 C341.0776,196.142198 329.8066,209.188938 332.5586,212.323958 C335.3126,215.457998 337.4236,216.190058 337.4236,216.190058 L341.0776,196.142198 Z" id="Fill-196" fill="#1E41D3" mask="url(#mask-2)"></path>
                                    <path d="M258.3457,312.100894 C258.3457,312.100894 256.6147,314.310794 256.6147,314.983074 C256.6147,315.656334 256.9087,316.472674 256.4667,317.144954 L244.1627,317.144954 C244.1627,317.144954 242.3987,316.328614 248.0847,315.016394 C251.3267,314.266694 253.6037,314.073634 254.1627,313.302374 C254.7677,312.469374 254.9477,312.100894 254.9477,312.100894 L258.3457,312.100894 Z" id="Fill-197" fill="#1A2982" mask="url(#mask-2)"></path>
                                    <path d="M337.3979,223.805246 C337.4969,223.421086 336.4179,203.725046 341.6139,195.173566 C346.8099,186.623066 349.8489,188.929006 351.5159,196.134946 C353.1819,203.340886 347.5939,225.053766 343.6719,231.107226 C343.7559,230.630946 341.9799,234.597986 338.4419,233.991366 C333.8539,233.203446 337.3979,223.805246 337.3979,223.805246" id="Fill-198" fill="#FFEBD2" mask="url(#mask-2)"></path>
                                    <path d="M321.2837,230.749428 C322.1617,230.749428 321.2837,229.592048 321.2837,229.592048 C316.6387,228.434668 286.7117,228.169088 286.7117,228.169088 C285.4707,228.891348 286.1567,230.749428 286.1567,230.749428 L320.4047,230.749428 L321.2837,230.749428 Z" id="Fill-199" fill="#A1CCFF" mask="url(#mask-2)"></path>
                                    <path d="M273.2807,188.47066 C273.2807,188.47066 287.3197,227.46878 286.7117,228.16948 C286.7117,228.16948 285.9277,229.49542 284.9147,228.98386 C283.9017,228.47034 272.5617,188.85482 272.5617,188.85482 C272.5617,188.85482 272.5287,188.27858 273.2807,188.47066" id="Fill-200" fill="#A1CCFF" mask="url(#mask-2)"></path>
                                    <polygon id="Fill-201" fill="#4A75FF" mask="url(#mask-2)" points="316.595 322.1897 320.724 322.1897 320.724 233.99068 316.595 233.99068"></polygon>
                                    <polygon id="Fill-202" fill="#4A75FF" mask="url(#mask-2)" points="162.39 320.36396 166.519 320.36396 166.519 232.16494 162.39 232.16494"></polygon>
                                    <path d="M291.6137,312.100894 C291.6137,312.100894 290.9537,315.337834 291.1417,316.010114 C291.3287,316.684354 287.5047,315.564214 287.5047,315.564214 C287.5047,315.564214 288.2127,315.341754 288.3787,312.100894 C288.5447,308.861014 291.6137,312.100894 291.6137,312.100894" id="Fill-203" fill="#FFEBD2" mask="url(#mask-2)"></path>
                                    <path d="M258.3457,312.100894 C258.3457,312.100894 256.7767,314.095194 256.6297,314.861554 C256.4827,315.627914 253.7937,313.614014 253.7937,313.614014 C253.7937,313.614014 253.8917,313.788454 254.9477,312.100894 C256.0027,310.414314 258.3457,312.100894 258.3457,312.100894" id="Fill-204" fill="#FFEBD2" mask="url(#mask-2)"></path>
                                    <polygon id="Fill-205" fill="#4A75FF" mask="url(#mask-2)" points="328.6342 235.833178 107.0972 235.833178 107.0972 230.096258 327.8522 230.096258"></polygon>
                                    <path d="M104.7978,165.913412 C104.7978,165.913412 104.2148,141.874992 122.4358,139.390692 C122.4358,139.390692 123.9198,145.494132 127.7798,145.056072 C131.6398,144.618992 131.6248,138.658632 131.6248,138.658632 C131.6248,138.658632 148.9728,138.922252 153.5338,159.515972 C158.0938,180.109692 147.5178,183.528912 147.5178,183.528912 C147.5178,183.528912 148.7948,208.854072 147.9898,210.256452 C147.1848,211.658832 116.4228,211.396192 116.1548,210.256452 C115.8858,209.117692 115.0818,188.873832 115.2608,187.208812 C115.4398,185.543792 104.7978,165.913412 104.7978,165.913412" id="Fill-206" fill="#4A75FF" mask="url(#mask-2)"></path>
                                    <path d="M121.7885,140.061208 C121.7885,140.061208 128.7635,133.751968 124.4715,125.864928 C120.1785,117.976908 125.0075,111.843088 125.0075,111.843088 L136.2865,110.966968 C136.2865,110.966968 139.6735,123.936288 135.5595,127.617168 C131.4465,131.298048 129.6575,136.204908 131.6245,138.658828 C133.5925,141.112748 130.9095,146.370448 130.9095,146.370448 L124.8285,147.247548 L121.7885,140.061208 Z" id="Fill-207" fill="#FFEBD2" mask="url(#mask-2)"></path>
                                    <path d="M118.6586,165.036802 C118.6586,165.036802 112.6676,163.722622 104.7976,165.913902 C104.7976,165.913902 107.3906,187.822782 111.7286,188.698902 C116.0656,189.575022 126.4386,192.992282 140.7456,187.822782 C140.7456,187.822782 146.1116,186.069562 149.3306,187.296522 C152.5506,188.523482 153.1346,189.838642 154.6756,188.172642 C156.2166,186.507622 153.1396,183.007062 151.4766,182.564102 C149.8146,182.122122 143.4286,184.404542 134.7546,182.125062 C126.0806,179.847542 121.6996,180.636442 119.9996,175.992222 C118.3006,171.346042 119.9106,166.790022 118.6586,165.036802" id="Fill-208" fill="#FFEBD2" mask="url(#mask-2)"></path>
                                    <path d="M154.413,164.64637 C154.413,164.64637 153.176,163.80945 149.152,165.03641 C149.152,165.03641 145.684,156.37321 140.389,147.77273 C135.093,139.17323 139.494,135.59231 138.6,132.87477 C137.706,130.15919 135.354,129.17331 134.786,128.35109 C134.218,127.52887 131.178,132.52491 134.218,134.36535 C137.259,136.20579 132.877,140.67459 134.934,143.12851 C136.991,145.58243 134.844,172.13651 146.38,182.38829 C146.38,182.38829 149.161,185.65365 153.071,177.63235 C156.306,170.99579 154.413,164.64637 154.413,164.64637" id="Fill-209" fill="#FFEBD2" mask="url(#mask-2)"></path>
                                    <path d="M116.1547,210.25655 C116.1547,210.25655 115.9757,240.84137 119.9997,275.80875 C124.0237,310.77417 122.4817,318.59653 122.4817,318.59653 L129.6927,318.92483 C129.6927,318.92483 133.7017,281.59173 132.8867,274.22997 C132.0717,266.87017 134.0917,235.61307 134.1697,233.77263 C134.2477,231.93219 145.2167,278.96239 145.4857,282.90689 C145.7537,286.84943 144.8147,312.61461 145.4857,318.92483 L152.3267,318.92483 C152.3267,318.92483 158.0937,278.30579 157.5577,272.12787 C157.0217,265.94897 147.7277,213.71693 147.9897,210.25655 C147.9897,210.25655 119.5527,211.61581 116.1547,210.25655" id="Fill-210" fill="#1E41D3" mask="url(#mask-2)"></path>
                                    <path d="M129.6928,318.924536 L129.6928,321.487236 L121.2748,321.487236 C121.2748,321.487236 122.3168,320.163256 122.4818,318.596236 L129.6928,318.924536 Z" id="Fill-211" fill="#FFEBD2" mask="url(#mask-2)"></path>
                                    <path d="M130.1943,326.943484 C130.1943,326.943484 130.2643,322.014084 129.6933,321.487824 L121.2743,321.487824 C121.2743,321.487824 115.7073,325.628324 114.3663,325.825304 C113.0253,326.023264 113.9643,327.271784 115.1043,327.271784 C116.2443,327.271784 129.6573,327.600084 130.1943,326.943484" id="Fill-212" fill="#1A2982" mask="url(#mask-2)"></path>
                                    <path d="M145.4858,318.924536 L145.4858,321.487236 L153.3998,321.487236 C153.3998,321.487236 152.2358,319.569376 152.3268,318.924536 L145.4858,318.924536 Z" id="Fill-213" fill="#FFEBD2" mask="url(#mask-2)"></path>
                                    <path d="M145.2172,327.354104 C145.2172,327.354104 144.6802,323.590904 145.4862,321.487824 L153.4002,321.487824 C153.4002,321.487824 160.4422,326.318244 163.1242,327.354104 C163.1242,327.354104 163.7952,328.520304 163.1242,328.520304 C162.4532,328.520304 146.4252,328.158684 145.2172,327.354104" id="Fill-214" fill="#1A2982" mask="url(#mask-2)"></path>
                                    <path d="M128.521,120.785588 C128.595,120.777748 126.986,114.908528 131.74,113.073968 C136.927,111.072808 137.643,115.877748 145.154,110.620048 C152.666,105.362348 142.463,95.020408 136.655,99.052128 C130.846,103.083848 119.4,103.783568 119.937,110.969908 C120.473,118.156248 121.021,123.673648 126.112,128.704968 C126.112,128.704968 124.654,121.464728 125.727,120.019228 C126.8,118.572748 126.889,120.961008 128.521,120.785588" id="Fill-215" fill="#1A2982" mask="url(#mask-2)"></path>
                                    <path d="M402.0796,111.406694 C402.0796,111.406694 410.5186,118.975234 410.509607,123.096134 C410.509607,123.096134 400.4196,118.898794 402.0796,111.406694" id="Fill-216" fill="#5F8DFF" mask="url(#mask-2)"></path>
                                    <path d="M407.7456,77.728798 C407.7456,77.728798 413.5056,71.955618 419.1966,72.014418 C419.1966,72.014418 416.2936,77.499478 407.7456,77.728798" id="Fill-217" fill="#5F8DFF" mask="url(#mask-2)"></path>
                                    <path d="M383.2094,59.25521 C383.2094,59.25521 383.5344,47.07675 387.1794,44.98543 C387.1794,44.98543 389.4354,54.80013 383.2094,59.25521" id="Fill-218" fill="#5F8DFF" mask="url(#mask-2)"></path>
                                    <path d="M351.2007,71.241982 C351.2007,71.241982 349.9227,65.301222 340.4417,62.730682 C340.4417,62.730682 338.6197,69.560302 351.2007,71.241982" id="Fill-219" fill="#5F8DFF" mask="url(#mask-2)"></path>
                                    <path d="M349.3676,103.51789 C349.3676,103.51789 336.3916,105.11725 335.7226,109.92905 C335.7226,109.92905 344.7546,110.05547 349.3676,103.51789" id="Fill-220" fill="#5F8DFF" mask="url(#mask-2)"></path>
                                    <path d="M372.5483,85.85584 C369.9973,90.38736 365.8843,92.95594 363.3613,91.59276 C360.8393,90.2286 360.8623,85.44914 363.4133,80.91664 C365.9653,76.38414 370.0783,73.81654 372.6013,75.17972 C375.1233,76.54388 375.1003,81.32334 372.5483,85.85584 M381.1733,106.7367 C389.7483,100.3618 396.0573,91.00966 398.3133,79.89548 C394.9633,73.7891 388.9063,69.18408 381.4043,67.86206 C368.3513,65.56004 355.8643,74.06546 353.5173,86.8574 C352.8053,90.7333 353.1073,94.55628 354.2353,98.0686 C355.8283,103.03524 359.0763,107.3786 363.4543,110.36172 L362.6113,114.95498 C369.4063,113.61434 375.7433,110.77136 381.1733,106.7367" id="Fill-221" fill="#76ABFF" mask="url(#mask-2)"></path>
                                    <path d="M372.601,75.18021 C370.079,73.81605 365.965,76.38463 363.413,80.91713 C360.863,85.44963 360.839,90.22811 363.362,91.59227 C365.884,92.95643 369.997,90.38785 372.548,85.85633 C375.1,81.32383 375.123,76.54437 372.601,75.18021" id="Fill-222" fill="#FEFAF6" mask="url(#mask-2)"></path>
                                    <path d="M398.313,79.89548 C396.057,91.00966 389.749,100.3618 381.173,106.7367 C375.744,110.77136 369.407,113.61434 362.612,114.95498 L361.477,121.13878 L361.429,121.3975 L361.337,121.90024 L376.579,124.5874 L380.998,125.3665 L381.137,124.60406 L382.125,119.2219 L383.115,113.827 C391.932,111.6073 399.071,104.5464 400.789,95.19132 C401.787,89.75134 400.791,84.4123 398.313,79.89548" id="Fill-223" fill="#5F8DFF" mask="url(#mask-2)"></path>
                                    <path d="M376.5786,124.58789 L361.3376,121.90073 L360.0446,128.94007 C359.9526,129.44085 359.9136,129.93869 359.9206,130.42967 C359.9606,133.29617 361.6186,135.91473 364.1596,137.24851 C364.4296,137.38963 364.7086,137.51801 364.9976,137.63071 L364.8966,138.17755 C364.5506,140.06601 365.8306,141.87117 367.7576,142.21025 C369.6826,142.55031 371.5256,141.29591 371.8726,139.40745 L371.9736,138.85963 C375.7066,138.78907 379.0196,136.13719 379.7046,132.40633 L380.4806,128.17861 L380.9976,125.36699 L376.5786,124.58789 Z" id="Fill-224" fill="#4A75FF" mask="url(#mask-2)"></path>
                                    <path d="M77.4809,65.74477 C77.4809,65.74477 87.4249,65.86629 89.8529,68.54463 C89.8529,68.54463 80.8289,71.54637 77.4809,65.74477" id="Fill-225" fill="#27D6FF" mask="url(#mask-2)"></path>
                                    <path d="M68.5219,36.83771 C68.5219,36.83771 69.9079,29.95223 74.0769,27.33955 C74.0769,27.33955 74.6289,32.68349 68.5219,36.83771" id="Fill-226" fill="#27D6FF" mask="url(#mask-2)"></path>
                                    <path d="M40.1752,33.512962 C40.1752,33.512962 35.1972,24.111822 37.0742,21.018942 C37.0742,21.018942 43.0012,27.557502 40.1752,33.512962" id="Fill-227" fill="#27D6FF" mask="url(#mask-2)"></path>
                                    <path d="M22.9692,55.283466 C22.9692,55.283466 19.4482,51.289966 11.1312,53.240166 C11.1312,53.240166 12.6742,59.187786 22.9692,55.283466" id="Fill-228" fill="#27D6FF" mask="url(#mask-2)"></path>
                                    <path d="M35.4213,80.598924 C35.4213,80.598924 26.2333,87.161984 27.7893,91.098644 C27.7893,91.098644 34.7153,87.474604 35.4213,80.598924" id="Fill-229" fill="#27D6FF" mask="url(#mask-2)"></path>
                                    <path d="M45.4834,57.607144 C45.4864,62.107304 43.4584,65.755844 40.9534,65.757804 C38.4494,65.759764 36.4164,62.113184 36.4134,57.613024 C36.4104,53.112864 38.4384,49.463344 40.9424,49.461384 C43.4474,49.460404 45.4804,53.106984 45.4834,57.607144 M61.0044,69.942404 C64.7954,61.558504 65.5834,51.842784 62.5304,42.456344 C57.3624,39.190004 50.7784,38.181584 44.5024,40.267024 C33.5824,43.894004 27.7304,55.509944 31.4314,66.211544 C32.5524,69.453384 34.4224,72.239524 36.7874,74.447464 C40.1304,77.568764 44.4654,79.536604 49.0774,80.002104 L50.4064,83.843704 C55.0014,80.025624 58.6044,75.251064 61.0044,69.942404" id="Fill-230" fill="#48E5FF" mask="url(#mask-2)"></path>
                                    <path d="M40.9428,49.461874 C38.4388,49.463834 36.4098,53.113354 36.4128,57.612534 C36.4158,62.112694 38.4488,65.760254 40.9538,65.758294 C43.4578,65.756334 45.4858,62.106814 45.4838,57.607634 C45.4808,53.107474 43.4478,49.460894 40.9428,49.461874" id="Fill-231" fill="#FEFAF6" mask="url(#mask-2)"></path>
                                    <path d="M62.5307,42.456442 C65.5827,51.842882 64.7947,61.558602 61.0037,69.942502 C58.6037,75.251162 55.0017,80.025722 50.4057,83.843802 L52.1957,89.017222 L52.2697,89.232822 L52.4157,89.655202 L65.1667,85.419642 L68.8627,84.191702 L68.6427,83.554702 L67.0847,79.051602 L65.5237,74.538702 C71.2807,69.216322 73.6837,60.902002 70.9767,53.075722 C69.4037,48.524602 66.3547,44.873122 62.5307,42.456442" id="Fill-232" fill="#27D6FF" mask="url(#mask-2)"></path>
                                    <path d="M65.1665,85.419446 L52.4165,89.655006 L54.4525,95.544806 C54.5975,95.963266 54.7815,96.358206 54.9975,96.728646 C56.2575,98.893466 58.6425,100.202746 61.1475,100.170406 C61.4145,100.167466 61.6815,100.149826 61.9495,100.115526 L62.1075,100.574166 C62.6535,102.153926 64.4035,102.999666 66.0145,102.465566 C67.6255,101.929506 68.4895,100.215486 67.9435,98.635726 L67.7855,98.178066 C70.5955,96.586546 71.9795,93.202606 70.8995,90.081306 L69.6765,86.544486 L68.8625,84.191506 L65.1665,85.419446 Z" id="Fill-233" fill="#1AC1F3" mask="url(#mask-2)"></path>
                                </g>
                            </g>
                        </g>
                    </g>
                </g>
            </g>
        </g>
    </g>
</svg>