<?xml version="1.0" encoding="UTF-8"?>
<svg width="138px" height="40px" viewBox="0 0 138 40" version="1.1" xmlns="http://www.w3.org/2000/svg" xmlns:xlink="http://www.w3.org/1999/xlink">
    <!-- Generator: sketchtool 55.2 (78181) - https://sketchapp.com -->
    <title>1F23F746-F7E1-460D-994A-ACF77B9A9BBF@1.5x</title>
    <desc>Created with sketchtool.</desc>
    <defs>
        <polygon id="path-1" points="0.288733333 0.0696666667 21.3333333 0.0696666667 21.3333333 31.2743333 0.288733333 31.2743333"></polygon>
    </defs>
    <g id="Japanese-1.0" stroke="none" stroke-width="1" fill="none" fill-rule="evenodd">
        <g id="Features" transform="translate(-32.000000, -20.000000)">
            <g id="Logijob_Logo_color" transform="translate(32.000000, 20.000000)">
                <path d="M76.2365,31.0054667 L73.0968333,31.0054667 C72.7288333,31.0054667 72.4301667,30.7068 72.4301667,30.3388 L72.4301667,11.2664667 C72.4301667,10.8981333 72.7288333,10.5998 73.0968333,10.5998 L76.2365,10.5998 C76.6045,10.5998 76.9031667,10.8981333 76.9031667,11.2664667 L76.9031667,30.3388 C76.9031667,30.7068 76.6045,31.0054667 76.2365,31.0054667" id="Fill-1" fill="#225CFF"></path>
                <path d="M77.3333333,4.33326667 C77.3333333,5.80593333 76.1393333,6.99993333 74.6666667,6.99993333 C73.194,6.99993333 72,5.80593333 72,4.33326667 C72,2.8606 73.194,1.6666 74.6666667,1.6666 C76.1393333,1.6666 77.3333333,2.8606 77.3333333,4.33326667" id="Fill-3" fill="#225CFF"></path>
                <path d="M87.4337667,33.5189667 C87.4337667,37.7153 84.9627667,39.9303 81.4481,39.9303 C80.6337667,39.9303 79.7027667,39.7876333 78.9481,39.5426333 C78.6117667,39.4336333 78.4231,39.0769667 78.5151,38.7353 L79.2267667,36.0933 C79.3187667,35.7513 79.6631,35.5379667 80.0087667,35.6163 C80.3484333,35.6929667 80.7001,35.7339667 81.0434333,35.7339667 C82.1084333,35.7339667 82.9607667,35.0526333 82.9607667,33.3059667 L82.9607667,11.2663 C82.9607667,10.8983 83.2594333,10.5996333 83.6274333,10.5996333 L86.7671,10.5996333 C87.1351,10.5996333 87.4337667,10.8983 87.4337667,11.2663 L87.4337667,33.5189667 Z" id="Fill-5" fill="#225CFF"></path>
                <path d="M87.8333333,4.33326667 C87.8333333,5.80593333 86.6393333,6.99993333 85.1666667,6.99993333 C83.694,6.99993333 82.5,5.80593333 82.5,4.33326667 C82.5,2.8606 83.694,1.6666 85.1666667,1.6666 C86.6393333,1.6666 87.8333333,2.8606 87.8333333,4.33326667" id="Fill-7" fill="#225CFF"></path>
                <path d="M33,27.5201 C29.318,27.5201 26.3333333,24.5351 26.3333333,20.8534333 C26.3333333,17.1714333 29.318,14.1867667 33,14.1867667 C36.682,14.1867667 39.6666667,17.1714333 39.6666667,20.8534333 C39.6666667,24.5351 36.682,27.5201 33,27.5201 M33,10.1867667 C27.109,10.1867667 22.3333333,14.9624333 22.3333333,20.8534333 C22.3333333,26.7444333 27.109,31.5201 33,31.5201 C38.891,31.5201 43.6666667,26.7444333 43.6666667,20.8534333 C43.6666667,14.9624333 38.891,10.1867667 33,10.1867667" id="Fill-9" fill="#225CFF"></path>
                <path d="M51.4674333,20.5896 C51.4674333,24.0189333 53.7254333,26.9159333 57.4954333,26.9159333 C61.0951,26.9159333 63.5234333,24.1682667 63.5234333,20.5896 C63.5234333,17.0109333 61.0951,14.2632667 57.4954333,14.2632667 C53.7254333,14.2632667 51.4674333,17.1392667 51.4674333,20.5896 M63.1397667,11.4176 L63.1397667,11.2649333 C63.1397667,10.8976 63.4377667,10.5996 63.8051,10.5996 L66.9477667,10.5996 C67.3154333,10.5996 67.6131,10.8976 67.6131,11.2649333 L67.6131,29.5782667 C67.6131,35.9896 63.4811,39.9302667 56.6647667,39.9302667 C53.8387667,39.9302667 50.7564333,39.2152667 48.6077667,37.8876 C48.3254333,37.7129333 48.2117667,37.3596 48.3427667,37.0546 L49.4474333,34.4816 C49.6017667,34.1219333 50.0317667,33.9732667 50.3754333,34.1616 C52.2857667,35.2076 54.4234333,35.8622667 56.6647667,35.8622667 C60.8397667,35.8622667 63.1397667,33.5616 63.1397667,29.7702667 L63.1397667,29.7699333 C63.1397667,29.1992667 62.4767667,28.9036 62.0381,29.2692667 C60.5804333,30.4842667 58.6657667,31.1122667 56.3451,31.1122667 C51.6804333,31.1122667 46.8877667,27.1926 46.8877667,20.5896 C46.8877667,13.9862667 51.6804333,10.0672667 56.3451,10.0672667 C58.6664333,10.0672667 60.5814333,10.7082667 62.0394333,11.9196 C62.4781,12.2839333 63.1397667,11.9879333 63.1397667,11.4176" id="Fill-11" fill="#225CFF"></path>
                <g id="Group-15" transform="translate(116.000000, 0.263667)">
                    <mask id="mask-2" fill="white">
                        <use xlink:href="#path-1"></use>
                    </mask>
                    <g id="Clip-14"></g>
                    <path d="M4.44206667,20.539 C4.44206667,24.2663333 6.91306667,27.0786667 10.5977333,27.0786667 C14.4320667,27.0786667 16.7537333,24.117 16.7537333,20.539 C16.7537333,16.9606667 14.4320667,13.9993333 10.5977333,13.9993333 C6.91306667,13.9993333 4.44206667,16.8113333 4.44206667,20.539 M21.3334,20.539 C21.3334,26.78 16.8387333,31.2743333 11.1304,31.2743333 C8.9054,31.2743333 7.15773333,30.583 5.82973333,29.4516667 C5.40073333,29.0863333 4.7404,29.4016667 4.7404,29.9653333 L4.7404,30.075 C4.7404,30.4433333 4.44173333,30.7416667 4.07373333,30.7416667 L0.9554,30.7416667 C0.5874,30.7416667 0.288733333,30.4433333 0.288733333,30.075 L0.288733333,0.736333333 C0.288733333,0.368 0.5874,0.0696666667 0.9554,0.0696666667 L4.07373333,0.0696666667 C4.44173333,0.0696666667 4.7404,0.368 4.7404,0.736333333 L4.7404,11.1126667 C4.7404,11.6763333 5.40073333,11.9916667 5.82973333,11.6263333 C7.15773333,10.495 8.9054,9.80333333 11.1304,9.80333333 C16.8387333,9.80333333 21.3334,14.298 21.3334,20.539" id="Fill-13" fill="#225CFF" mask="url(#mask-2)"></path>
                </g>
                <path d="M18.6666667,31.0054667 L0.666666667,31.0054667 C0.298666667,31.0054667 0,30.7068 0,30.3388 L0,1.8518 C0,1.48346667 0.298666667,1.18513333 0.666666667,1.18513333 L4.147,1.18513333 C4.515,1.18513333 4.81366667,1.48346667 4.81366667,1.8518 L4.81366667,25.7808 C4.81366667,26.1488 5.112,26.4474667 5.48033333,26.4474667 L18.6666667,26.4474667 C19.0346667,26.4474667 19.3333333,26.7458 19.3333333,27.1141333 L19.3333333,30.3388 C19.3333333,30.7068 19.0346667,31.0054667 18.6666667,31.0054667" id="Fill-16" fill="#225CFF"></path>
                <path d="M101.861333,18.0479333 C100.312,18.0479333 99.0556667,19.3039333 99.0556667,20.8536 C99.0556667,22.4026 100.312,23.6589333 101.861333,23.6589333 C103.410667,23.6589333 104.666667,22.4026 104.666667,20.8536 C104.666667,19.3039333 103.410667,18.0479333 101.861333,18.0479333" id="Fill-18" fill="#00DCFF"></path>
                <path d="M101.861333,27.5201 C98.1793333,27.5201 95.1946667,24.5351 95.1946667,20.8534333 C95.1946667,17.1714333 98.1793333,14.1867667 101.861333,14.1867667 C105.543,14.1867667 108.528,17.1714333 108.528,20.8534333 C108.528,24.5351 105.543,27.5201 101.861333,27.5201 M101.861333,10.1867667 C95.9703333,10.1867667 91.1946667,14.9624333 91.1946667,20.8534333 C91.1946667,26.7444333 95.9703333,31.5201 101.861333,31.5201 C107.752333,31.5201 112.528,26.7444333 112.528,20.8534333 C112.528,14.9624333 107.752333,10.1867667 101.861333,10.1867667" id="Fill-20" fill="#225CFF"></path>
                <path d="M101.861333,26.0557667 C99.2286667,26.0557667 96.9156667,27.4184333 95.5846667,29.4757667 C97.346,30.7604333 99.5143333,31.5201 101.861333,31.5201 C104.208,31.5201 106.376333,30.7604333 108.138,29.4757667 C106.807,27.4184333 104.494,26.0557667 101.861333,26.0557667" id="Fill-22" fill="#00DCFF"></path>
            </g>
        </g>
    </g>
</svg>