<?xml version="1.0" encoding="UTF-8"?>
<svg width="74px" height="60px" viewBox="0 0 74 60" version="1.1" xmlns="http://www.w3.org/2000/svg" xmlns:xlink="http://www.w3.org/1999/xlink">
    <!-- Generator: sketchtool 55 (78076) - https://sketchapp.com -->
    <title>EAAFF8E7-9611-459F-AC80-AB183A120961@1.5x</title>
    <desc>Created with sketchtool.</desc>
    <g id="Japanese-1.0" stroke="none" stroke-width="1" fill="none" fill-rule="evenodd">
        <g id="Homepage-V2" transform="translate(-771.000000, -4251.000000)" fill="#C5D8F8">
            <g id="User-voice" transform="translate(114.000000, 3832.000000)">
                <g id="User-Voice" transform="translate(0.000000, 97.000000)">
                    <g id="Icon/Quote/Right/Color-1" transform="translate(657.000000, 322.000000)">
                        <path d="M42.549,51.801 C51.006,46.257 58.41,35.682 59.463,27.225 C58.947,27.492 57.096,27.75 56.022,27.75 C48.639,27.75 43.086,22.197 43.086,14.28 C43.086,6.606 49.413,0 57.096,0 C65.811,0 73.734,7.134 73.734,20.091 C73.734,36.21 64.221,51.273 52.32,60 L42.549,51.801 Z M-4.26325641e-14,51.801 C8.46,46.257 16.119,35.682 17.175,27.225 C16.659,27.492 14.808,27.75 13.473,27.75 C6.069,27.75 0.798,22.197 0.798,14.28 C0.798,6.606 6.867,0 14.808,0 C23.523,0 31.443,7.134 31.443,20.091 C31.443,36.21 21.93,51.273 9.771,60 L-4.26325641e-14,51.801 Z"></path>
                    </g>
                </g>
            </g>
        </g>
    </g>
</svg>