<?xml version="1.0" encoding="UTF-8"?>
<svg width="74px" height="60px" viewBox="0 0 74 60" version="1.1" xmlns="http://www.w3.org/2000/svg" xmlns:xlink="http://www.w3.org/1999/xlink">
    <!-- Generator: sketchtool 55 (78076) - https://sketchapp.com -->
    <title>5BCEFE94-D788-4E85-AEF2-31AC72045639@1.5x</title>
    <desc>Created with sketchtool.</desc>
    <g id="Japanese-1.0" stroke="none" stroke-width="1" fill="none" fill-rule="evenodd">
        <g id="Homepage-V2" transform="translate(-175.000000, -3929.000000)" fill="#C5D8F8">
            <g id="User-voice" transform="translate(114.000000, 3832.000000)">
                <g id="User-Voice" transform="translate(0.000000, 97.000000)">
                    <g id="Icon/Quote/Left/Color-1" transform="translate(61.000000, 0.000000)">
                        <path d="M73.8225102,7.96745518 C65.3277083,13.5452765 57.8906132,24.1585053 56.829893,32.6533072 C57.0920597,32.6533072 58.94832,32.394154 60.2681935,32.394154 C67.7052885,32.394154 73.2831098,37.9719753 73.2831098,45.9394305 C73.2831098,53.6326654 66.906735,60 58.94832,60 C50.1943649,60 42.4770228,52.8341118 42.4770228,39.8312491 C42.4770228,23.6281452 51.7733916,8.76600874 63.986741,0 L73.8225102,7.96745518 Z M31.3454874,7.96745518 C22.8476721,13.5452765 15.13033,24.1585053 14.3558837,32.6533072 C14.6150369,32.6533072 16.4712973,32.394154 17.7911707,32.394154 C25.2282658,32.394154 30.5439204,37.9719753 30.5439204,45.9394305 C30.5439204,53.6326654 24.4266988,60 16.4712973,60 C7.71734217,60 7.10542736e-15,52.8341118 7.10542736e-15,39.8312491 C7.10542736e-15,23.6281452 9.29636884,8.76600874 21.5097182,0 L31.3454874,7.96745518 Z"></path>
                    </g>
                </g>
            </g>
        </g>
    </g>
</svg>