<?xml version="1.0" encoding="UTF-8"?>
<svg width="92px" height="52px" viewBox="0 0 92 52" version="1.1" xmlns="http://www.w3.org/2000/svg" xmlns:xlink="http://www.w3.org/1999/xlink">
    <!-- Generator: sketchtool 55 (78076) - https://sketchapp.com -->
    <title>6C703755-E2D8-4BBA-B2BC-3D8E331D6039@1.5x</title>
    <desc>Created with sketchtool.</desc>
    <defs>
        <polygon id="path-1" points="0 51.3580247 91.8506173 51.3580247 91.8506173 0.481481481 0 0.481481481"></polygon>
    </defs>
    <g id="Japanese-1.0" stroke="none" stroke-width="1" fill="none" fill-rule="evenodd">
        <g id="Homepage-V2" transform="translate(-24.000000, -584.000000)">
            <g id="TopPage_Header_Illustration_Truck_Small" transform="translate(24.000000, 584.000000)">
                <polygon id="Fill-1" fill="#5B83F4" points="5.40479012 51.5185185 91.8512593 51.5185185 91.8512593 50.3430617 5.40479012 50.3430617"></polygon>
                <polygon id="Fill-2" fill="#061584" points="9.11797531 48.8588148 51.1596543 48.8588148 51.1596543 41.6648395 9.11797531 41.6648395"></polygon>
                <g id="Group-85" transform="translate(0.000000, 0.160494)">
                    <path d="M16.5494173,41.6462864 C19.2309481,41.6462864 21.4046765,43.8200148 21.4046765,46.5015457 C21.4046765,49.1837185 19.2309481,51.3574469 16.5494173,51.3574469 L16.5436395,51.3574469 L16.5365778,51.3574469 C16.2733679,51.354879 16.0435407,51.3574469 15.7739111,51.3574469 C13.0917383,51.3574469 10.9180099,49.1837185 10.9180099,46.5015457 C10.9180099,43.8200148 13.0917383,41.6462864 15.7739111,41.6462864 L16.5494173,41.6462864 Z" id="Fill-3" fill="#061584"></path>
                    <mask id="mask-2" fill="white">
                        <use xlink:href="#path-1"></use>
                    </mask>
                    <g id="Clip-6"></g>
                    <polygon id="Fill-5" fill="#EBFEFF" mask="url(#mask-2)" points="48.6642963 41.9338272 53.3211852 41.9338272 53.3211852 0.481481481 48.6642963 0.481481481"></polygon>
                    <polygon id="Fill-7" fill="#1515BC" mask="url(#mask-2)" points="21.8328741 48.698642 40.2646272 48.698642 40.2646272 45.3269877 20.536084 45.3269877 21.3732198 46.567284 21.4155901 46.6289136 21.4316395 46.7085185"></polygon>
                    <polygon id="Fill-8" fill="#FFFFFF" mask="url(#mask-2)" points="0 41.9338272 48.6642963 41.9338272 48.6642963 0.481481481 0 0.481481481"></polygon>
                    <path d="M61.7557136,41.6462864 C64.4372444,41.6462864 66.6109728,43.8200148 66.6109728,46.5015457 C66.6109728,49.1837185 64.4372444,51.3574469 61.7557136,51.3574469 L61.7499358,51.3574469 L61.743516,51.3574469 C61.4796642,51.354879 61.249837,51.3574469 60.9802074,51.3574469 C58.2980346,51.3574469 56.1243062,49.1837185 56.1243062,46.5015457 C56.1243062,43.8200148 58.2980346,41.6462864 60.9802074,41.6462864 L61.7557136,41.6462864 Z" id="Fill-9" fill="#061584" mask="url(#mask-2)"></path>
                    <polygon id="Fill-10" fill="#F38085" mask="url(#mask-2)" points="75.9947901 37.9618617 80.7178025 37.1356395 64.2607654 35.3708494 59.6038765 35.3708494"></polygon>
                    <polygon id="Fill-11" fill="#69DEF9" mask="url(#mask-2)" points="50.3878716 6.37025679 71.1288099 6.37025679 76.0611062 35.3702074 76.0591802 35.3708494 76.0611062 35.3708494 76.0611062 37.1356395 76.0611062 48.6988988 50.3878716 48.6988988 50.3878716 35.3708494"></polygon>
                    <polygon id="Fill-12" fill="#1AC1F3" mask="url(#mask-2)" points="53.9049333 8.28835062 53.9049333 35.370721 70.2650321 35.370721 69.4927358 8.28835062"></polygon>
                    <polygon id="Fill-13" fill="#00126D" mask="url(#mask-2)" points="54.667921 8.28835062 54.667921 35.370721 74.0992296 35.370721 69.7453531 9.77644938 69.4924148 8.28835062"></polygon>
                    <polygon id="Fill-14" fill="#45D3F4" mask="url(#mask-2)" points="73.0761136 21.3454222 72.4309284 21.3454222 72.4309284 23.3939654 73.1724099 26.1647309 73.1724099 35.7314469 73.0761136 35.3706568 72.4309284 35.3706568 72.4309284 37.1810272 73.1724099 39.9511506 73.9138914 42.721916 73.9145333 42.721916 74.6553728 45.4920395 75.300558 45.4920395 75.300558 29.6570765 74.5590765 26.8856691 73.8175951 24.1155457"></polygon>
                    <polygon id="Fill-15" fill="#061584" mask="url(#mask-2)" points="55.3293481 35.370721 74.0987802 35.370721 69.7455457 9.77644938 55.3293481 9.77644938"></polygon>
                    <polygon id="Fill-16" fill="#00126D" mask="url(#mask-2)" points="73.2563802 35.370721 74.0986519 35.370721 73.2563802 30.4172395 73.2563802 30.4172395"></polygon>
                    <polygon id="Fill-17" fill="#1AC1F3" mask="url(#mask-2)" points="76.0612346 48.3433086 80.7181235 48.3433086 80.7181235 35.3702716 76.0612346 35.3702716"></polygon>
                    <polygon id="Fill-18" fill="#45D3F4" mask="url(#mask-2)" points="71.1288741 6.37057778 74.6205778 6.37057778 80.7180593 35.3705284 76.0611704 35.3705284"></polygon>
                    <polygon id="Fill-19" fill="#1AC1F3" mask="url(#mask-2)" points="54.7416198 36.6531309 58.9902123 36.6531309 59.2611259 37.662316 59.2611259 38.8159457 55.0118914 38.8159457 54.7416198 37.8067605"></polygon>
                    <polygon id="Fill-20" fill="#AEF7FF" mask="url(#mask-2)" points="54.2180247 37.8065679 58.4666173 37.8065679 58.4666173 36.6529383 54.2180247 36.6529383"></polygon>
                    <polygon id="Fill-21" fill="#45D3F4" mask="url(#mask-2)" points="58.4666173 37.8065679 58.9904691 37.8065679 58.9904691 36.6529383 58.4666173 36.6529383"></polygon>
                    <polygon id="Fill-22" fill="#45D3F4" mask="url(#mask-2)" points="76.2486914 40.2126914 77.168642 40.2126914 77.168642 38.2925432 76.2486914 38.2925432"></polygon>
                    <polygon id="Fill-23" fill="#45D3F4" mask="url(#mask-2)" points="76.2486914 42.4120988 77.168642 42.4120988 77.168642 40.4919506 76.2486914 40.4919506"></polygon>
                    <polygon id="Fill-24" fill="#45D3F4" mask="url(#mask-2)" points="79.6100741 40.2126914 80.5306667 40.2126914 80.5306667 38.2925432 79.6100741 38.2925432"></polygon>
                    <polygon id="Fill-25" fill="#45D3F4" mask="url(#mask-2)" points="79.6100741 42.4120988 80.5306667 42.4120988 80.5306667 40.4919506 79.6100741 40.4919506"></polygon>
                    <polygon id="Fill-26" fill="#061584" mask="url(#mask-2)" points="77.3971852 48.3433086 79.3815309 48.3433086 79.3815309 39.0590617 77.3971852 39.0590617"></polygon>
                    <polygon id="Fill-27" fill="#1515BC" mask="url(#mask-2)" points="78.9860741 44.4035062 79.3815309 44.4035062 79.3815309 39.0590617 78.9860741 39.0590617"></polygon>
                    <polygon id="Fill-28" fill="#061584" mask="url(#mask-2)" points="77.3971852 38.7611852 79.3815309 38.7611852 79.3815309 38.2925432 77.3971852 38.2925432"></polygon>
                    <polygon id="Fill-29" fill="#1515BC" mask="url(#mask-2)" points="78.9860741 38.7611852 79.3815309 38.7611852 79.3815309 38.2925432 78.9860741 38.2925432"></polygon>
                    <polygon id="Fill-30" fill="#1AC1F3" mask="url(#mask-2)" points="76.6762469 48.698321 81.3331358 48.698321 81.3331358 44.4028642 76.6762469 44.4028642"></polygon>
                    <polygon id="Fill-31" fill="#45D3F4" mask="url(#mask-2)" points="75.4667654 48.698963 76.6762469 48.698963 76.6762469 44.4035062 75.4667654 44.4035062"></polygon>
                    <polygon id="Fill-32" fill="#AEF7FF" mask="url(#mask-2)" points="76.597284 40.2126914 77.5172346 40.2126914 77.5172346 38.2925432 76.597284 38.2925432"></polygon>
                    <polygon id="Fill-33" fill="#AEF7FF" mask="url(#mask-2)" points="76.597284 42.4120988 77.5172346 42.4120988 77.5172346 40.4919506 76.597284 40.4919506"></polygon>
                    <polygon id="Fill-34" fill="#AEF7FF" mask="url(#mask-2)" points="79.9586667 40.2126914 80.8792593 40.2126914 80.8792593 38.2925432 79.9586667 38.2925432"></polygon>
                    <polygon id="Fill-35" fill="#AEF7FF" mask="url(#mask-2)" points="79.9586667 42.4120988 80.8792593 42.4120988 80.8792593 40.4919506 79.9586667 40.4919506"></polygon>
                    <polygon id="Fill-36" fill="#AEF7FF" mask="url(#mask-2)" points="77.7014815 47.6153086 80.3066173 47.6153086 80.3066173 46.1053827 77.7014815 46.1053827"></polygon>
                    <polygon id="Fill-37" fill="#45D3F4" mask="url(#mask-2)" points="64.0847358 48.698642 63.3028099 48.698642 63.3028099 47.0789383 62.8694765 44.9315309 61.7030074 43.2007654 59.9716 42.0342963 57.8241926 41.600321 57.1045383 41.600321 54.9571309 42.0342963 53.2263654 43.2007654 52.0598963 44.9315309 51.625921 47.0789383 51.625921 48.698642 50.8439951 48.698642 50.8439951 47.0481235 50.8439951 47.0166667 50.8529827 46.9717284 51.3119951 44.6991358 51.3280444 44.6195309 51.3704148 44.5566173 52.6216247 42.7013086 52.6633531 42.6383951 52.7269086 42.5960247 54.5822173 41.3448148 54.6444889 41.3024444 54.7247358 41.287037 56.5351062 40.8273827 56.5806864 40.819037 56.6115012 40.819037 57.8556494 40.819037 57.8864642 40.819037 57.9320444 40.8273827 60.204637 41.287037 60.284884 41.3024444 60.3465136 41.3448148 62.2024642 42.5960247 62.2653778 42.6383951 62.3077481 42.7013086 63.3997481 43.8517284 63.6013284 44.6195309 63.6173778 44.6991358 64.0757481 46.9717284 64.0847358 47.0166667 64.0847358 47.0481235"></polygon>
                    <path d="M63.1011012,48.698642 L63.1011012,46.4260494 C63.1011012,43.0903457 60.3977432,40.3863457 57.0613975,40.3863457 C53.7256938,40.3863457 51.0216938,43.0903457 51.0216938,46.4260494 L51.0216938,48.698642 L63.1011012,48.698642 Z" id="Fill-38" fill="#061584" mask="url(#mask-2)"></path>
                    <path d="M57.8746519,41.6462864 C60.5561827,41.6462864 62.7299111,43.8200148 62.7299111,46.5021877 C62.7299111,49.1837185 60.5561827,51.3580889 57.8746519,51.3580889 L57.8688741,51.3580889 L57.8624543,51.3580889 C57.5986025,51.354879 57.3681333,51.3580889 57.0985037,51.3580889 C54.4169728,51.3580889 52.2426025,49.1837185 52.2426025,46.5021877 C52.2426025,43.8200148 54.4169728,41.6462864 57.0985037,41.6462864 L57.8746519,41.6462864 Z" id="Fill-39" fill="#061584" mask="url(#mask-2)"></path>
                    <path d="M57.0991457,51.3577679 C59.7736148,51.3577679 61.9544049,49.1763358 61.9544049,46.5018667 C61.9544049,43.8273975 59.7736148,41.6466074 57.0991457,41.6466074 C54.4246765,41.6466074 52.2432444,43.8273975 52.2432444,46.5018667 C52.2432444,49.1763358 54.4246765,51.3577679 57.0991457,51.3577679" id="Fill-40" fill="#1515BC" mask="url(#mask-2)"></path>
                    <path d="M57.0991457,49.5502864 C58.7862568,49.5502864 60.1626519,48.1738914 60.1626519,46.4861383 C60.1626519,44.7983852 58.7862568,43.4226321 57.0991457,43.4226321 C55.4113926,43.4226321 54.0349975,44.7983852 54.0349975,46.4861383 C54.0349975,48.1738914 55.4113926,49.5502864 57.0991457,49.5502864" id="Fill-41" fill="#EBFAFF" mask="url(#mask-2)"></path>
                    <path d="M57.0988247,43.7549827 C58.6074667,43.7549827 59.8304296,44.9779457 59.8304296,46.4865877 C59.8304296,47.9952296 58.6074667,49.2181926 57.0988247,49.2181926 C55.5901827,49.2181926 54.3672198,47.9952296 54.3672198,46.4865877 C54.3672198,44.9779457 55.5901827,43.7549827 57.0988247,43.7549827" id="Fill-42" fill="#061584" mask="url(#mask-2)"></path>
                    <path d="M59.7795852,45.9608099 C59.8123259,46.1309333 59.8309432,46.3068346 59.8309432,46.4865877 C59.8309432,47.9952296 58.6073383,49.2181926 57.0986963,49.2181926 C55.9014123,49.2181926 54.8845235,48.4484642 54.5153877,47.3763654 C54.4826469,47.2056 54.4653136,47.0303407 54.4653136,46.8505877 C54.4653136,45.3419457 55.6876346,44.1189827 57.1962765,44.1189827 C58.3935605,44.1189827 59.4104494,44.8893531 59.7795852,45.9608099" id="Fill-43" fill="#EBFAFF" mask="url(#mask-2)"></path>
                    <path d="M58.9376346,45.9551605 L58.9395605,45.9622222 L58.9491901,45.993679 L58.9524,46.0084444 L58.9588198,46.0321975 L58.9594617,46.0347654 L58.9607457,46.0405432 L58.9652395,46.0559506 L58.9678074,46.0662222 L58.9716593,46.0803457 L58.9723012,46.0822716 L58.978079,46.1047407 L58.978721,46.1073086 L58.9800049,46.1130864 L58.9851407,46.1291358 L58.9877086,46.1394074 L58.9915605,46.1528889 L58.9915605,46.1548148 L58.9979802,46.1779259 L58.9986222,46.1804938 L58.9999062,46.1862716 L59.0044,46.201679 L59.0069679,46.2119506 L59.0108198,46.2260741 L59.0114617,46.227358 L59.0172395,46.2498272 L59.0178815,46.253037 L59.0191654,46.2588148 L59.0236593,46.2742222 L59.0268691,46.2844938 L59.030079,46.2986173 L59.030721,46.3005432 L59.0364988,46.3230123 L59.0371407,46.3255802 L59.0384247,46.331358 L59.0435605,46.3467654 L59.0454864,46.357037 L59.0493383,46.3711605 L59.0499802,46.3730864 L59.0564,46.3961975 L59.057684,46.4006914 L59.057684,46.4045432 L59.0621778,46.4199506 L59.0673136,46.4398519 L59.0692395,46.4443457 L59.0718074,46.4565432 L59.0775852,46.4783704 L59.082079,46.4924938 L59.0846469,46.5021235 C59.1257333,46.6594074 59.1488444,46.825037 59.1488444,46.9958025 C59.1488444,48.0524938 58.2911654,48.9095309 57.2344741,48.9095309 C56.351116,48.9095309 55.6070667,48.3099259 55.3868691,47.4946173 L55.3804494,47.4740741 L55.3804494,47.4708642 L55.3785235,47.4644444 L55.3765975,47.4573827 L55.3746716,47.449679 L55.3740296,47.4464691 L55.3727457,47.4419753 L55.3708198,47.4349136 L55.3688938,47.4272099 L55.3669679,47.4220741 L55.3669679,47.4201481 L55.365684,47.4124444 L55.3611901,47.398321 L55.3611901,47.397679 L55.3592642,47.3899753 L55.3573383,47.3829136 L55.3547704,47.3758519 L55.3541284,47.3739259 L55.3528444,47.3681481 L55.3515605,47.3604444 L55.3489926,47.3527407 L55.3483506,47.3488889 L55.3470667,47.345037 L55.3451407,47.3379753 L55.3432148,47.3302716 L55.3412889,47.3251358 L55.3412889,47.3232099 L55.337437,47.3071605 L55.3348691,47.3013827 L55.3348691,47.3000988 L55.3329432,47.2917531 L55.3303753,47.2840494 L55.3284494,47.2769877 L55.3284494,47.2763457 L55.3265235,47.268642 L55.3252395,47.2615802 L55.3233136,47.2532346 L55.3226716,47.2525926 L55.3207457,47.2461728 L55.3188198,47.2391111 L55.3168938,47.2307654 L55.3162519,47.2281975 L55.3149679,47.2237037 L55.3124,47.216 L55.3104741,47.2082963 L55.3098321,47.2038025 L55.3091901,47.2005926 L55.3066222,47.1935309 L55.3053383,47.1858272 L55.3027704,47.1800494 L55.2989185,47.164 L55.2969926,47.1562963 L55.2969926,47.1556543 L55.2924988,47.1408889 L55.2905728,47.1325432 L55.2905728,47.1312593 L55.2880049,47.1248395 L55.286721,47.1171358 L55.2841531,47.1094321 L55.2835111,47.1068642 L55.2828691,47.1023704 L55.2809432,47.0953086 L55.2783753,47.0882469 L55.2770914,47.0824691 L55.2764494,47.0805432 L55.2751654,47.0741235 L55.2725975,47.0657778 L55.2706716,47.058716 L55.2687457,47.0516543 L55.2668198,47.0439506 L55.2648938,47.0362469 L55.2642519,47.034321 L55.261042,47.0214815 L55.259116,47.0137778 L55.2578321,47.0105679 L55.2571901,47.0060741 L55.2546222,46.9983704 L55.2526963,46.9913086 C55.209042,46.8308148 55.1852889,46.6613333 55.1852889,46.486716 C55.1852889,45.4293827 56.041684,44.5729877 57.0990173,44.5729877 C57.9714617,44.5729877 58.7071654,45.1565432 58.9376346,45.9551605" id="Fill-44" fill="#061584" mask="url(#mask-2)"></path>
                    <path d="M57.0991457,48.4001877 C58.1532691,48.4001877 59.0128741,47.5405827 59.0128741,46.4864593 C59.0128741,45.4316938 58.1532691,44.5720889 57.0991457,44.5720889 C56.0450222,44.5720889 55.1854173,45.4316938 55.1854173,46.4864593 C55.1854173,47.5405827 56.0450222,48.4001877 57.0991457,48.4001877" id="Fill-45" fill="#1E41D3" mask="url(#mask-2)"></path>
                    <path d="M56.8443457,48.4001877 C57.8984691,48.4001877 58.7580741,47.5405827 58.7580741,46.4864593 C58.7580741,45.4316938 57.8984691,44.5720889 56.8443457,44.5720889 C55.7902222,44.5720889 54.9306173,45.4316938 54.9306173,46.4864593 C54.9306173,47.5405827 55.7902222,48.4001877 56.8443457,48.4001877" id="Fill-46" fill="#EBFAFF" mask="url(#mask-2)"></path>
                    <polygon id="Fill-47" fill="#45D3F4" mask="url(#mask-2)" points="63.1011012 48.698642 63.1011012 46.3117778 62.6684099 44.1643704 61.5006568 42.4336049 59.7705333 41.2664938 57.6231259 40.8331605 56.9028296 40.8331605 54.7554222 41.2664938 53.0252988 42.4336049 51.8581877 44.1643704 51.4248543 46.3117778 51.4248543 48.698642 50.6422864 48.698642 50.6422864 46.280321 50.6422864 46.2495062 50.651916 46.2039259 51.1109284 43.9313333 51.1269778 43.8517284 51.1687062 43.7900988 52.419916 41.9335062 52.4622864 41.8705926 52.5252 41.8282222 54.3811506 40.5776543 54.4434222 40.535284 54.5230272 40.5192346 56.3333975 40.0602222 56.3789778 40.0512346 56.4097926 40.0512346 57.6539407 40.0512346 57.6847556 40.0512346 57.7303358 40.0602222 60.0029284 40.5192346 60.0825333 40.535284 60.1454469 40.5776543 62.0007556 41.8282222 62.0636691 41.8705926 62.1060395 41.9335062 63.3578914 43.7900988 63.3996198 43.8517284 63.4163111 43.9313333 63.8740395 46.2039259 63.8836691 46.2495062 63.8836691 46.280321 63.8836691 48.698642"></polygon>
                    <polygon id="Fill-48" fill="#45D3F4" mask="url(#mask-2)" points="60.2523358 41.5917827 59.7708543 41.2669432 59.5551506 41.2232889 56.9628543 40.051042 57.6536198 40.051042 57.6850765 40.051042 57.7300148 40.0600296 60.0032494 40.519042 60.0828543 40.5350914 60.1451259 40.5774617 62.0639901 41.871042 63.3999407 43.8521778 62.9531259 43.8521778 60.2542617 41.5924247"></polygon>
                    <polygon id="Fill-49" fill="#AEF7FF" mask="url(#mask-2)" points="62.6544148 48.698642 62.6544148 46.3117778 62.2217235 44.1643704 61.0539704 42.4336049 59.3232049 41.2664938 57.1757975 40.8331605 56.4561432 40.8331605 54.3087358 41.2664938 52.5779704 42.4336049 51.4115012 44.1643704 50.9775259 46.3117778 50.9775259 48.698642 50.1956 48.698642 50.1956 46.280321 50.1956 46.2495062 50.2045877 46.2039259 50.6636 43.9313333 50.6802914 43.8517284 50.7220198 43.7900988 51.9732296 41.9335062 52.0156 41.8705926 52.0778716 41.8282222 53.9344642 40.5776543 53.9960938 40.535284 54.0763407 40.5192346 56.3489333 40.0602222 56.3945136 40.0512346 56.4253284 40.0512346 57.2072543 40.0512346 57.2374272 40.0512346 57.2836494 40.0602222 59.556242 40.5192346 59.6358469 40.535284 59.6981185 40.5776543 61.5540691 41.8282222 61.6169827 41.8705926 61.6593531 41.9335062 62.910563 43.7900988 62.9529333 43.8517284 62.9689827 43.9313333 63.4273531 46.2039259 63.4363407 46.2495062 63.4363407 46.280321 63.4363407 48.698642"></polygon>
                    <polygon id="Fill-50" fill="#45D3F4" mask="url(#mask-2)" points="18.8784395 48.698642 18.0965136 48.698642 18.0965136 47.0789383 17.6631802 44.9315309 16.4967111 43.2007654 14.7653037 42.0342963 12.6178963 41.600321 11.898242 41.600321 9.75083457 42.0342963 8.02006914 43.2007654 6.8536 44.9315309 6.41962469 47.0789383 6.41962469 48.698642 5.63769877 48.698642 5.63769877 47.0481235 5.63769877 47.0166667 5.64668642 46.9717284 6.10569877 44.6991358 6.12174815 44.6195309 6.16411852 44.5566173 7.4153284 42.7013086 7.45705679 42.6383951 7.52061235 42.5960247 9.37592099 41.3448148 9.43819259 41.3024444 9.51843951 41.287037 11.3288099 40.8273827 11.3743901 40.819037 11.404563 40.819037 12.6493531 40.819037 12.6801679 40.819037 12.7257481 40.8273827 14.9983407 41.287037 15.0785877 41.3024444 15.1402173 41.3448148 16.9961679 42.5960247 17.0590815 42.6383951 17.1014519 42.7013086 18.1934519 43.8517284 18.3950321 44.6195309 18.4110815 44.6991358 18.8694519 46.9717284 18.8784395 47.0166667 18.8784395 47.0481235"></polygon>
                    <path d="M17.8948049,48.698642 L17.8948049,46.4260494 C17.8948049,43.0903457 15.1914469,40.3863457 11.8551012,40.3863457 C8.51939753,40.3863457 5.81539753,43.0903457 5.81539753,46.4260494 L5.81539753,48.698642 L17.8948049,48.698642 Z" id="Fill-51" fill="#061584" mask="url(#mask-2)"></path>
                    <path d="M12.6684198,41.6462864 C15.3499506,41.6462864 17.523679,43.8200148 17.523679,46.5021877 C17.523679,49.1837185 15.3499506,51.3580889 12.6684198,51.3580889 L12.662642,51.3580889 L12.6562222,51.3580889 C12.3923704,51.354879 12.1619012,51.3580889 11.8922716,51.3580889 C9.21074074,51.3580889 7.03637037,49.1837185 7.03637037,46.5021877 C7.03637037,43.8200148 9.21074074,41.6462864 11.8922716,41.6462864 L12.6684198,41.6462864 Z" id="Fill-52" fill="#061584" mask="url(#mask-2)"></path>
                    <path d="M11.8929136,51.3577679 C14.5673827,51.3577679 16.7481728,49.1763358 16.7481728,46.5018667 C16.7481728,43.8273975 14.5673827,41.6466074 11.8929136,41.6466074 C9.21844444,41.6466074 7.03701235,43.8273975 7.03701235,46.5018667 C7.03701235,49.1763358 9.21844444,51.3577679 11.8929136,51.3577679" id="Fill-53" fill="#1515BC" mask="url(#mask-2)"></path>
                    <path d="M11.8929136,49.5502864 C13.5800247,49.5502864 14.9564198,48.1738914 14.9564198,46.4861383 C14.9564198,44.7983852 13.5800247,43.4226321 11.8929136,43.4226321 C10.2051605,43.4226321 8.82876543,44.7983852 8.82876543,46.4861383 C8.82876543,48.1738914 10.2051605,49.5502864 11.8929136,49.5502864" id="Fill-54" fill="#EBFAFF" mask="url(#mask-2)"></path>
                    <path d="M11.8925926,43.7549827 C13.4012346,43.7549827 14.6241975,44.9779457 14.6241975,46.4865877 C14.6241975,47.9952296 13.4012346,49.2181926 11.8925926,49.2181926 C10.3839506,49.2181926 9.16098765,47.9952296 9.16098765,46.4865877 C9.16098765,44.9779457 10.3839506,43.7549827 11.8925926,43.7549827" id="Fill-55" fill="#061584" mask="url(#mask-2)"></path>
                    <path d="M14.5732889,45.9608099 C14.6060296,46.1309333 14.6240049,46.3068346 14.6240049,46.4865877 C14.6240049,47.9952296 13.401042,49.2181926 11.8924,49.2181926 C10.695116,49.2181926 9.67822716,48.4484642 9.30909136,47.3763654 C9.27635062,47.2056 9.25837531,47.0303407 9.25837531,46.8505877 C9.25837531,45.3419457 10.4813383,44.1189827 11.9899802,44.1189827 C13.1866222,44.1189827 14.2041531,44.8893531 14.5732889,45.9608099" id="Fill-56" fill="#EBFAFF" mask="url(#mask-2)"></path>
                    <path d="M13.7313383,45.9551605 L13.7332642,45.9622222 L13.7428938,45.993679 L13.7461037,46.0084444 L13.7525235,46.0321975 L13.7531654,46.0347654 L13.7544494,46.0405432 L13.7589432,46.0559506 L13.7615111,46.0662222 L13.765363,46.0803457 L13.7660049,46.0822716 L13.7717827,46.1047407 L13.7724247,46.1073086 L13.7737086,46.1130864 L13.7788444,46.1291358 L13.7814123,46.1394074 L13.7846222,46.1528889 L13.7852642,46.1548148 L13.791684,46.1779259 L13.791684,46.1804938 L13.7936099,46.1862716 L13.7981037,46.201679 L13.8006716,46.2119506 L13.8045235,46.2260741 L13.8051654,46.227358 L13.8109432,46.2498272 L13.8115852,46.253037 L13.8128691,46.2588148 L13.817363,46.2742222 L13.8199309,46.2844938 L13.8237827,46.2986173 L13.8244247,46.3005432 L13.8302025,46.3230123 L13.8308444,46.3255802 L13.8321284,46.331358 L13.8372642,46.3467654 L13.8391901,46.357037 L13.843042,46.3711605 L13.843684,46.3730864 L13.8501037,46.3961975 L13.8513877,46.4006914 L13.8513877,46.4045432 L13.8558815,46.4199506 L13.8610173,46.4398519 L13.8629432,46.4443457 L13.8655111,46.4565432 L13.8712889,46.4783704 L13.8757827,46.4924938 L13.8783506,46.5021235 C13.919437,46.6594074 13.9425481,46.825037 13.9425481,46.9958025 C13.9425481,48.0524938 13.0848691,48.9095309 12.0281778,48.9095309 C11.1441778,48.9095309 10.4001284,48.3099259 10.1805728,47.4946173 L10.1741531,47.4740741 L10.1741531,47.4708642 L10.1722272,47.4644444 L10.1703012,47.4573827 L10.1683753,47.449679 L10.1677333,47.4464691 L10.1664494,47.4419753 L10.1645235,47.4349136 L10.1625975,47.4272099 L10.1606716,47.4220741 L10.1606716,47.4201481 L10.1587457,47.4124444 L10.1548938,47.398321 L10.1548938,47.397679 L10.1529679,47.3899753 L10.151042,47.3829136 L10.1484741,47.3758519 L10.1478321,47.3739259 L10.1465481,47.3681481 L10.1452642,47.3604444 L10.1426963,47.3527407 L10.1420543,47.3488889 L10.1407704,47.345037 L10.1382025,47.3379753 L10.1369185,47.3302716 L10.1349926,47.3251358 L10.1349926,47.3232099 L10.1311407,47.3071605 L10.1285728,47.3013827 L10.1285728,47.3000988 L10.1266469,47.2917531 L10.124079,47.2840494 L10.1221531,47.2769877 L10.1221531,47.2763457 L10.1202272,47.268642 L10.1189432,47.2615802 L10.1170173,47.2532346 L10.1163753,47.2525926 L10.1144494,47.2461728 L10.1125235,47.2391111 L10.1105975,47.2307654 L10.1099556,47.2281975 L10.1086716,47.2237037 L10.1061037,47.216 L10.1041778,47.2082963 L10.1035358,47.2038025 L10.1028938,47.2005926 L10.1003259,47.1935309 L10.0984,47.1858272 L10.0964741,47.1800494 L10.0926222,47.164 L10.0906963,47.1562963 L10.0906963,47.1556543 L10.0862025,47.1408889 L10.0842765,47.1325432 L10.0842765,47.1312593 L10.0817086,47.1248395 L10.0804247,47.1171358 L10.0778568,47.1094321 L10.0772148,47.1068642 L10.0765728,47.1023704 L10.0746469,47.0953086 L10.072079,47.0882469 L10.0707951,47.0824691 L10.0701531,47.0805432 L10.0688691,47.0741235 L10.0663012,47.0657778 L10.0643753,47.058716 L10.0624494,47.0516543 L10.0605235,47.0439506 L10.0585975,47.0362469 L10.0579556,47.034321 L10.0547457,47.0214815 L10.0528198,47.0137778 L10.0515358,47.0105679 L10.0508938,47.0060741 L10.0483259,46.9983704 L10.0464,46.9913086 C10.0027457,46.8308148 9.97899259,46.6613333 9.97899259,46.486716 C9.97899259,45.4293827 10.8353877,44.5729877 11.892721,44.5729877 C12.7651654,44.5729877 13.5008691,45.1565432 13.7313383,45.9551605" id="Fill-57" fill="#061584" mask="url(#mask-2)"></path>
                    <path d="M11.8929136,48.4001877 C12.947037,48.4001877 13.806642,47.5405827 13.806642,46.4864593 C13.806642,45.4316938 12.947037,44.5720889 11.8929136,44.5720889 C10.8387901,44.5720889 9.97918519,45.4316938 9.97918519,46.4864593 C9.97918519,47.5405827 10.8387901,48.4001877 11.8929136,48.4001877" id="Fill-58" fill="#1E41D3" mask="url(#mask-2)"></path>
                    <path d="M11.6380494,48.4001877 C12.6921728,48.4001877 13.5511358,47.5405827 13.5511358,46.4864593 C13.5511358,45.4316938 12.6921728,44.5720889 11.6380494,44.5720889 C10.5839259,44.5720889 9.72432099,45.4316938 9.72432099,46.4864593 C9.72432099,47.5405827 10.5839259,48.4001877 11.6380494,48.4001877" id="Fill-59" fill="#EBFAFF" mask="url(#mask-2)"></path>
                    <polygon id="Fill-60" fill="#45D3F4" mask="url(#mask-2)" points="17.8948049 48.698642 17.8948049 46.3117778 17.4621136 44.1643704 16.2943605 42.4336049 14.564237 41.2664938 12.4161877 40.8331605 11.6965333 40.8331605 9.54912593 41.2664938 7.81900247 42.4336049 6.65189136 44.1643704 6.21855802 46.3117778 6.21855802 48.698642 5.43599012 48.698642 5.43599012 46.280321 5.43599012 46.2495062 5.44561975 46.2039259 5.9046321 43.9313333 5.92068148 43.8517284 5.96240988 43.7900988 7.21361975 41.9335062 7.25599012 41.8705926 7.3189037 41.8282222 9.17485432 40.5776543 9.23712593 40.535284 9.31673086 40.5192346 11.1271012 40.0602222 11.1726815 40.0512346 11.2034963 40.0512346 12.4476444 40.0512346 12.4784593 40.0512346 12.5240395 40.0602222 14.7966321 40.5192346 14.876237 40.535284 14.9391506 40.5776543 16.7944593 41.8282222 16.8573728 41.8705926 16.8997432 41.9335062 18.1515951 43.7900988 18.1933235 43.8517284 18.2100148 43.9313333 18.6677432 46.2039259 18.6773728 46.2495062 18.6773728 46.280321 18.6773728 48.698642"></polygon>
                    <polygon id="Fill-61" fill="#69DEF9" mask="url(#mask-2)" points="15.0460395 41.5917827 14.563916 41.2669432 14.3488543 41.2232889 11.756558 40.051042 12.4473235 40.051042 12.4781383 40.051042 12.5237185 40.0600296 14.7963111 40.519042 14.876558 40.5350914 14.9388296 40.5774617 16.8576938 41.871042 18.1936444 43.8521778 17.7468296 43.8521778 15.0479654 41.5924247"></polygon>
                    <path d="M17.4481185,48.698642 L17.4481185,46.3117778 L17.0154272,44.1643704 L15.8476741,42.4336049 L14.1169086,41.2664938 L11.9695012,40.8331605 L11.2498469,40.8331605 L9.10243951,41.2664938 L7.37167407,42.4336049 L6.20520494,44.1643704 L5.77122963,46.3117778 L5.77122963,48.698642 L4.72480988,48.698642 C4.72480988,47.0840741 4.72737778,45.4643704 4.72737778,43.8517284 L5.47399506,43.8517284 L5.51572346,43.7900988 L6.76629136,41.9335062 L6.8093037,41.8705926 L6.87157531,41.8282222 L8.7281679,40.5776543 L8.78979753,40.535284 L8.87004444,40.5192346 L11.142637,40.0602222 L11.1882173,40.0512346 L11.2190321,40.0512346 L12.000958,40.0512346 L12.0311309,40.0512346 L12.0773531,40.0602222 L14.3499457,40.5192346 L14.4295506,40.535284 L14.4918222,40.5776543 L16.3477728,41.8282222 L16.4106864,41.8705926 L16.4530568,41.9335062 L17.7042667,43.7900988 L17.746637,43.8517284 L17.7626864,43.9313333 L18.2210568,46.2039259 L18.2300444,46.2495062 L18.2300444,46.280321 L18.2300444,48.698642 L17.4481185,48.698642 Z" id="Fill-62" fill="#AEF7FF" mask="url(#mask-2)"></path>
                    <polygon id="Fill-63" fill="#EBFEFF" mask="url(#mask-2)" points="47.8502716 49.3178272 49.5354568 49.3178272 49.5354568 42.6001975 47.8502716 42.6001975"></polygon>
                    <polygon id="Fill-64" fill="#FFFFFF" mask="url(#mask-2)" points="30.7287901 49.3178272 48.4781235 49.3178272 48.4781235 42.6001975 30.7287901 42.6001975"></polygon>
                    <polygon id="Fill-65" fill="#EBFEFF" mask="url(#mask-2)" points="30.7287901 43.4508148 48.4781235 43.4508148 48.4781235 42.6001975 30.7287901 42.6001975"></polygon>
                    <polygon id="Fill-66" fill="#45D3F4" mask="url(#mask-2)" points="68.6365333 21.3454222 73.0764346 21.3454222 73.0764346 21.7697679 73.0764346 23.3933235 71.5960395 23.3933235 71.5960395 35.3706568 73.0764346 35.3706568 73.0764346 37.1810272 68.6365333 37.1810272"></polygon>
                    <polygon id="Fill-67" fill="#AEF7FF" mask="url(#mask-2)" points="67.9916049 37.181284 68.6367901 37.181284 68.6367901 21.345679 67.9916049 21.345679"></polygon>
                    <polygon id="Fill-68" fill="#061584" mask="url(#mask-2)" points="75.0239951 8.28835062 80.718316 35.370721 76.0614272 35.370721 71.4546123 8.28835062"></polygon>
                    <polygon id="Fill-69" fill="#1AC1F3" mask="url(#mask-2)" points="4.06948148 48.698963 4.9894321 48.698963 4.9894321 43.8520494 4.06948148 43.8520494"></polygon>
                    <polygon id="Fill-70" fill="#45D3F4" mask="url(#mask-2)" points="72.7739358 41.1802123 72.7739358 42.1611506 70.7555654 42.1611506 70.586084 41.5294469 70.586084 40.5491506 72.6044543 40.5491506"></polygon>
                    <polygon id="Fill-71" fill="#AEF7FF" mask="url(#mask-2)" points="70.2641975 41.5293827 72.2825679 41.5293827 72.2825679 40.5490864 70.2641975 40.5490864"></polygon>
                    <polygon id="Fill-72" fill="#1AC1F3" mask="url(#mask-2)" points="72.2825679 41.5293827 72.6048395 41.5293827 72.6048395 40.5490864 72.2825679 40.5490864"></polygon>
                    <polygon id="Fill-73" fill="#D4FDFF" mask="url(#mask-2)" points="47.3657728 2.42814321 47.3657728 3.40908148 45.3474025 3.40908148 45.178563 2.77737778 45.178563 1.79708148 47.1962914 1.79708148"></polygon>
                    <polygon id="Fill-74" fill="#EBFEFF" mask="url(#mask-2)" points="44.8560988 2.77718519 46.8738272 2.77718519 46.8738272 1.79688889 44.8560988 1.79688889"></polygon>
                    <polygon id="Fill-75" fill="#C2F6F9" mask="url(#mask-2)" points="46.8744691 2.77718519 47.1967407 2.77718519 47.1967407 1.79688889 46.8744691 1.79688889"></polygon>
                    <polygon id="Fill-76" fill="#D4FDFF" mask="url(#mask-2)" points="47.3657728 39.1097778 47.3657728 40.090716 45.3474025 40.090716 45.178563 39.4590123 45.178563 38.478716 47.1962914 38.478716"></polygon>
                    <polygon id="Fill-77" fill="#EBFEFF" mask="url(#mask-2)" points="44.8560988 39.4590123 46.8738272 39.4590123 46.8738272 38.478716 44.8560988 38.478716"></polygon>
                    <polygon id="Fill-78" fill="#C2F6F9" mask="url(#mask-2)" points="46.8744691 39.4590123 47.1967407 39.4590123 47.1967407 38.478716 46.8744691 38.478716"></polygon>
                    <polygon id="Fill-79" fill="#D4FDFF" mask="url(#mask-2)" points="3.5462716 39.1097778 3.5462716 40.090716 1.52790123 40.090716 1.35906173 39.4590123 1.35906173 38.478716 3.37679012 38.478716"></polygon>
                    <polygon id="Fill-80" fill="#EBFEFF" mask="url(#mask-2)" points="1.03614815 39.4590123 3.05451852 39.4590123 3.05451852 38.478716 1.03614815 38.478716"></polygon>
                    <polygon id="Fill-81" fill="#C2F6F9" mask="url(#mask-2)" points="3.05451852 39.4590123 3.37679012 39.4590123 3.37679012 38.478716 3.05451852 38.478716"></polygon>
                    <polygon id="Fill-82" fill="#D4FDFF" mask="url(#mask-2)" points="3.5462716 2.42814321 3.5462716 3.40908148 1.52790123 3.40908148 1.35906173 2.77737778 1.35906173 1.79708148 3.37679012 1.79708148"></polygon>
                    <polygon id="Fill-83" fill="#EBFEFF" mask="url(#mask-2)" points="1.03614815 2.77718519 3.05451852 2.77718519 3.05451852 1.79688889 1.03614815 1.79688889"></polygon>
                    <polygon id="Fill-84" fill="#C2F6F9" mask="url(#mask-2)" points="3.05451852 2.77718519 3.37679012 2.77718519 3.37679012 1.79688889 3.05451852 1.79688889"></polygon>
                </g>
            </g>
        </g>
    </g>
</svg>