<?xml version="1.0" encoding="UTF-8"?>
<svg width="211px" height="72px" viewBox="0 0 211 72" version="1.1" xmlns="http://www.w3.org/2000/svg" xmlns:xlink="http://www.w3.org/1999/xlink">
    <!-- Generator: sketchtool 55 (78076) - https://sketchapp.com -->
    <title>77CAAB00-CA13-4BFC-9D0D-233E86D3A66F@1.5x</title>
    <desc>Created with sketchtool.</desc>
    <defs>
        <polygon id="path-1" points="0 71.3513514 210.205622 71.3513514 210.205622 0.444324324 0 0.444324324"></polygon>
        <linearGradient x1="21.1790036%" y1="80.1085637%" x2="76.8934929%" y2="21.9056691%" id="linearGradient-3">
            <stop stop-color="#75426B" offset="0%"></stop>
            <stop stop-color="#C65770" offset="100%"></stop>
        </linearGradient>
        <polygon id="path-4" points="0.391783784 0.444324324 186.85427 0.444324324 186.85427 68.4358054 0.391783784 68.4358054"></polygon>
    </defs>
    <g id="Japanese-1.0" stroke="none" stroke-width="1" fill="none" fill-rule="evenodd">
        <g id="Homepage-V2" transform="translate(-644.000000, -555.000000)">
            <g id="TopPage_Header_Illustration_Truck_Big" transform="translate(644.000000, 555.000000)">
                <polygon id="Fill-1" fill="#0D189E" points="197.686703 67.9284324 198.616216 67.9284324 198.616216 64.9083243 197.686703 64.9083243"></polygon>
                <polygon id="Fill-2" fill="#45D3F4" points="62.8657297 55.2927568 70.3465946 55.2927568 70.3465946 0.648648649 62.8657297 0.648648649"></polygon>
                <polygon id="Fill-3" fill="#1AC1F3" points="64.6702703 55.2934054 68.5427027 55.2934054 68.5427027 38.2949189 64.6702703 38.2949189"></polygon>
                <polygon id="Fill-4" fill="#1AC1F3" points="61.6410811 55.2934054 65.5135135 55.2934054 65.5135135 38.2949189 61.6410811 38.2949189"></polygon>
                <polygon id="Fill-5" fill="#061584" points="62.4330811 55.2927568 64.7215135 55.2927568 64.7215135 44.1055135 62.4330811 44.1055135"></polygon>
                <polygon id="Fill-6" fill="#061584" points="75.491027 57.3457297 198.786162 57.3457297 198.786162 55.2927568 75.491027 55.2927568"></polygon>
                <g id="Group-105" transform="translate(0.000000, 0.204324)">
                    <path d="M63.9113514,7.72605405 L61.8934054,7.72605405 C61.4484324,8.17167568 61.0028108,8.616 60.5578378,9.06162162 L60.5578378,61.3900541 L62.1366486,61.3900541 L62.1366486,9.71481081 L62.5465946,9.30421622 L63.9113514,9.30421622 L63.9113514,7.72605405 Z" id="Fill-7" fill="#1AC1F3"></path>
                    <path d="M63.9113514,7.72605405 L61.8934054,7.72605405 C61.4484324,8.17167568 61.0028108,8.616 60.5578378,9.06162162 L62.1366486,9.06162162 L62.1366486,9.71481081 L62.5465946,9.30421622 L63.9113514,9.30421622 L63.9113514,7.72605405 Z" id="Fill-9" fill="#45D3F4"></path>
                    <path d="M64.6461405,7.72605405 L62.6281946,7.72605405 C62.1832216,8.17167568 61.7376,8.616 61.292627,9.06162162 L61.292627,61.3900541 L62.8714378,61.3900541 L62.8714378,9.71481081 L63.2813838,9.30421622 L64.6461405,9.30421622 L64.6461405,7.72605405 Z" id="Fill-11" fill="#EBFAFF"></path>
                    <path d="M58.635373,7.72605405 L56.617427,7.72605405 C56.1724541,8.17167568 55.7274811,8.616 55.2825081,9.06162162 L55.2825081,61.3900541 L56.8606703,61.3900541 L56.8606703,9.71481081 L57.2706162,9.30421622 L58.635373,9.30421622 L58.635373,7.72605405 Z" id="Fill-13" fill="#1AC1F3"></path>
                    <path d="M58.635373,7.72605405 L56.617427,7.72605405 C56.1724541,8.17167568 55.7274811,8.616 55.2825081,9.06162162 L56.8606703,9.06162162 L56.8606703,9.71481081 L57.2706162,9.30421622 L58.635373,9.30421622 L58.635373,7.72605405 Z" id="Fill-15" fill="#45D3F4"></path>
                    <path d="M59.370227,7.72605405 L57.3529297,7.72605405 C56.9073081,8.17167568 56.4623351,8.616 56.0173622,9.06162162 L56.0173622,61.3900541 L57.5955243,61.3900541 L57.5955243,9.71481081 L58.0054703,9.30421622 L59.370227,9.30421622 L59.370227,7.72605405 Z" id="Fill-17" fill="#EBFAFF"></path>
                    <polygon id="Fill-19" fill="#5B83F4" points="198.626335 71.3509622 0.000389189189 71.3509622 0.000389189189 70.1632865 198.626335 70.1632865 198.626335 70.5148541"></polygon>
                    <polygon id="Fill-21" fill="#061584" points="106.359243 67.7244973 106.359243 64.7465514 106.359243 64.7043892 106.34627 64.6427676 105.724216 61.5616865 105.702162 61.4533622 105.645081 61.3690378 103.948865 58.8529297 103.891784 58.7673081 103.806162 58.710227 99.7877838 57.0140108 99.7028108 56.9569297 99.5951351 56.9348757 96.5134054 56.3128216 96.4524324 56.3004973 96.4102703 56.3004973 80.7875676 56.3004973 80.7454054 56.3004973 80.6837838 56.3128216 77.6027027 56.9348757 77.4943784 56.9569297 77.4100541 57.0140108 74.8939459 58.710227 74.8083243 58.7673081 74.7512432 58.8529297 73.0537297 61.3690378 72.9966486 61.4533622 72.9752432 61.5616865 72.3538378 64.6427676 72.3415135 64.7043892 72.3415135 64.7465514 72.3415135 67.7244973"></polygon>
                    <polygon id="Fill-23" fill="#061584" points="191.258076 67.7244973 191.258076 64.7465514 191.258076 64.7043892 191.245751 64.6427676 190.623049 61.5616865 190.601643 61.4533622 190.544562 61.3690378 188.848346 58.8529297 188.790616 58.7673081 188.705643 58.710227 184.687265 57.0140108 184.602292 56.9569297 184.493968 56.9348757 181.412886 56.3128216 181.351265 56.3004973 181.309103 56.3004973 165.6864 56.3004973 165.644886 56.3004973 165.583265 56.3128216 162.502184 56.9348757 162.393211 56.9569297 162.308886 57.0140108 159.792778 58.710227 159.707157 58.7673081 159.650076 58.8529297 157.953211 61.3690378 157.89613 61.4533622 157.874076 61.5616865 157.25267 64.6427676 157.240995 64.7043892 157.240995 64.7465514 157.240995 67.7244973"></polygon>
                    <path d="M96.5585514,58.1629622 C92.9228757,58.1629622 89.9747676,61.1104216 89.9747676,64.7460973 C89.9747676,68.3824216 92.9228757,71.3298811 96.5585514,71.3298811 L96.5663351,71.3298811 L96.5747676,71.3298811 C96.932173,71.3259892 97.244173,71.3298811 97.6100108,71.3298811 C101.246335,71.3298811 104.193795,68.3824216 104.193795,64.7460973 C104.193795,61.1104216 101.246335,58.1629622 97.6100108,58.1629622 L96.5585514,58.1629622 Z" id="Fill-25" fill="#061584"></path>
                    <path d="M181.457384,58.1629622 C177.821708,58.1629622 174.874249,61.1104216 174.874249,64.7460973 C174.874249,68.3824216 177.821708,71.3298811 181.457384,71.3298811 L181.465816,71.3298811 L181.4736,71.3298811 C181.831654,71.3259892 182.143654,71.3298811 182.509492,71.3298811 C186.145816,71.3298811 189.092627,68.3824216 189.092627,64.7460973 C189.092627,61.1104216 186.145816,58.1629622 182.509492,58.1629622 L181.457384,58.1629622 Z" id="Fill-27" fill="#061584"></path>
                    <path d="M81.541427,58.184173 C77.9057514,58.184173 74.9582919,61.1316324 74.9582919,64.7673081 C74.9582919,68.4036324 77.9057514,71.3510919 81.541427,71.3510919 L81.5492108,71.3510919 L81.5576432,71.3510919 C81.9150486,71.3472 82.2270486,71.3510919 82.5928865,71.3510919 C86.2292108,71.3510919 89.1766703,68.4036324 89.1766703,64.7673081 C89.1766703,61.1316324 86.2292108,58.184173 82.5928865,58.184173 L81.541427,58.184173 Z" id="Fill-29" fill="#061584"></path>
                    <path d="M166.440324,58.184173 C162.804649,58.184173 159.857189,61.1316324 159.857189,64.7673081 C159.857189,68.4036324 162.804649,71.3510919 166.440324,71.3510919 L166.448757,71.3510919 L166.457189,71.3510919 C166.814595,71.3472 167.126595,71.3510919 167.492432,71.3510919 C171.128757,71.3510919 174.075568,68.4036324 174.075568,64.7673081 C174.075568,61.1316324 171.128757,58.184173 167.492432,58.184173 L166.440324,58.184173 Z" id="Fill-31" fill="#061584"></path>
                    <mask id="mask-2" fill="white">
                        <use xlink:href="#path-1"></use>
                    </mask>
                    <g id="Clip-34"></g>
                    <polygon id="Fill-33" fill="#373042" mask="url(#mask-2)" points="59.8067027 67.7455135 114.967784 67.7455135 114.967784 64.7461622 59.8067027 64.7461622"></polygon>
                    <polygon id="Fill-35" fill="#605471" mask="url(#mask-2)" points="59.8067027 67.7455135 77.6477838 67.7455135 77.6477838 64.7461622 59.8067027 64.7461622"></polygon>
                    <polygon id="Fill-36" fill="#0D189E" mask="url(#mask-2)" points="112.337514 67.7455135 114.967784 67.7455135 114.967784 64.7461622 112.337514 64.7461622"></polygon>
                    <polygon id="Fill-37" fill="#45D3F4" mask="url(#mask-2)" points="63.1087784 68.4355459 62.7332108 68.4355459 61.3217514 68.4355459 60.9461838 68.4355459 60.9461838 66.6738162 60.9461838 64.9127351 60.9461838 63.1516541 60.9461838 61.3899243 61.3224 61.3899243 62.7332108 61.3899243 63.1087784 61.3899243 63.4843459 62.8487351 63.4843459 64.9127351 63.4843459 66.9767351"></polygon>
                    <path d="M35.964973,58.1838486 C32.3292973,58.1838486 29.3818378,61.1313081 29.3818378,64.7669838 C29.3818378,68.4033081 32.3292973,71.3507676 35.964973,71.3507676 L35.9734054,71.3507676 L35.9811892,71.3507676 C36.3385946,71.3468757 36.6505946,71.3507676 37.0170811,71.3507676 C40.6534054,71.3507676 43.6002162,68.4033081 43.6002162,64.7669838 C43.6002162,61.1313081 40.6534054,58.1838486 37.0170811,58.1838486 L35.964973,58.1838486 Z" id="Fill-38" fill="#061584" mask="url(#mask-2)"></path>
                    <polygon id="Fill-39" fill="#69DEF9" mask="url(#mask-2)" points="61.9818811 19.923373 31.7924757 19.923373 31.7924757 39.5222919 31.7924757 67.7456432 61.9818811 67.7456432"></polygon>
                    <polygon id="Fill-40" fill="#061584" mask="url(#mask-2)" points="33.973427 67.7453838 35.0333189 67.7453838 35.0333189 65.5497081 35.6203459 62.6379243 37.2030486 60.2911135 39.5498595 58.7097081 42.4616432 58.1213838 43.4372108 58.1213838 46.3483459 58.7097081 48.6951568 60.2911135 50.2772108 62.6379243 50.8648865 65.5497081 50.8648865 67.7453838 51.925427 67.7453838 51.925427 65.5075459 51.925427 65.4653838 51.9124541 65.4037622 51.2904 62.3226811 51.2683459 62.2143568 51.2119135 62.1300324 49.5156973 59.6132757 49.4579676 59.5283027 49.3729946 59.4712216 46.8562378 57.7743568 46.7719135 57.7179243 46.6635892 57.6958703 44.2091027 57.0738162 44.1481297 57.0614919 44.1059676 57.0614919 42.4194811 57.0614919 42.3773189 57.0614919 42.3156973 57.0738162 39.2339676 57.6958703 39.1256432 57.7179243 39.0413189 57.7743568 36.5258595 59.4712216 36.4402378 59.5283027 36.3831568 59.6132757 34.9022919 61.1739243 34.6285622 62.2143568 34.6071568 62.3226811 33.9857514 65.4037622 33.973427 65.4653838 33.973427 65.5075459"></polygon>
                    <polygon id="Fill-41" fill="#EBFAFF" mask="url(#mask-2)" points="31.5444324 46.1299459 61.9816216 46.1299459 61.9816216 41.5952432 31.5444324 41.5952432"></polygon>
                    <polygon id="Fill-42" fill="#1AC1F3" mask="url(#mask-2)" points="51.0973622 24.3483243 36.2193081 24.3483243 50.3261189 39.5228108 51.0973622 39.5228108"></polygon>
                    <polygon id="Fill-43" fill="#061584" mask="url(#mask-2)" points="36.2198919 39.5228108 50.3260541 39.5228108 50.3260541 24.3483243 36.2198919 24.3483243"></polygon>
                    <polygon id="Fill-44" fill="#0D189E" mask="url(#mask-2)" points="36.2198919 39.5228108 49.7591351 39.5228108 49.7591351 25.6871351 36.2198919 25.6871351"></polygon>
                    <polygon id="Fill-45" fill="#1AC1F3" mask="url(#mask-2)" points="59.9688 58.536973 53.355827 58.536973 59.6263135 60.3058378 59.9688 60.3058378"></polygon>
                    <polygon id="Fill-46" fill="#1AC1F3" mask="url(#mask-2)" points="53.3558919 60.3061622 59.6263784 60.3061622 59.6263784 58.5372973 53.3558919 58.5372973"></polygon>
                    <polygon id="Fill-47" fill="#45D3F4" mask="url(#mask-2)" points="53.3558919 60.3061622 59.3740541 60.3061622 59.3740541 59.1321081 53.3558919 59.1321081"></polygon>
                    <polygon id="Fill-48" fill="#1AC1F3" mask="url(#mask-2)" points="59.9688 61.4479784 53.355827 61.4479784 59.6263135 63.2168432 59.9688 63.2168432"></polygon>
                    <polygon id="Fill-49" fill="#1AC1F3" mask="url(#mask-2)" points="53.3558919 63.2166486 59.6263784 63.2166486 59.6263784 61.4477838 53.3558919 61.4477838"></polygon>
                    <polygon id="Fill-50" fill="#45D3F4" mask="url(#mask-2)" points="53.3558919 63.2166486 59.3740541 63.2166486 59.3740541 62.0425946 53.3558919 62.0425946"></polygon>
                    <polygon id="Fill-51" fill="#1AC1F3" mask="url(#mask-2)" points="59.9688 64.3589838 53.355827 64.3589838 59.6263135 66.1278486 59.9688 66.1278486"></polygon>
                    <polygon id="Fill-52" fill="#1AC1F3" mask="url(#mask-2)" points="53.3558919 66.1277838 59.6263784 66.1277838 59.6263784 64.3589189 53.3558919 64.3589189"></polygon>
                    <polygon id="Fill-53" fill="#45D3F4" mask="url(#mask-2)" points="53.3558919 66.1277838 59.3740541 66.1277838 59.3740541 64.9537297 53.3558919 64.9537297"></polygon>
                    <polygon id="Fill-54" fill="#1AC1F3" mask="url(#mask-2)" points="33.7922595 26.8969946 34.4441514 26.8969946 34.4441514 28.3609946 33.6949622 31.1605622 33.6949622 42.6507243 33.7922595 42.2861838 34.4441514 42.2861838 34.4441514 43.7501838 33.6949622 46.5491027 32.9451243 49.3486703 32.1959351 52.1475892 31.5440432 52.1475892 31.5440432 35.2950486 32.2932324 32.4954811 33.0430703 29.6965622"></polygon>
                    <polygon id="Fill-55" fill="#45D3F4" mask="url(#mask-2)" points="33.6947027 41.5955027 33.6947027 42.6508541 33.792 42.2863135 34.4438919 42.2863135 34.4438919 43.7503135 33.8069189 46.1302054 31.5444324 46.1302054 31.5444324 41.5955027"></polygon>
                    <polygon id="Fill-56" fill="#45D3F4" mask="url(#mask-2)" points="38.2777297 26.8969946 33.7923243 26.8969946 33.7923243 27.3264 33.7923243 28.3609946 35.2874595 28.3609946 35.2874595 42.2861838 33.7923243 42.2861838 33.7923243 43.7495351 38.2777297 43.7495351"></polygon>
                    <polygon id="Fill-57" fill="#EBFAFF" mask="url(#mask-2)" points="38.2774054 43.7494054 38.9292973 43.7494054 38.9292973 26.8968649 38.2774054 26.8968649"></polygon>
                    <path d="M35.3068541,67.7453838 L35.3068541,64.6643027 C35.3068541,60.1419243 38.9723676,56.4751135 43.4953946,56.4751135 C48.0184216,56.4751135 51.6845838,60.1419243 51.6845838,64.6643027 L51.6845838,67.7453838 L35.3068541,67.7453838 Z" id="Fill-58" fill="#061584" mask="url(#mask-2)"></path>
                    <path d="M42.3932108,58.1838486 C38.7575351,58.1838486 35.8100757,61.1313081 35.8100757,64.7669838 C35.8100757,68.4033081 38.7575351,71.3507676 42.3932108,71.3507676 L42.4016432,71.3507676 L42.409427,71.3507676 C42.7674811,71.3468757 43.0794811,71.3507676 43.4453189,71.3507676 C47.0816432,71.3507676 50.0284541,68.4033081 50.0284541,64.7669838 C50.0284541,61.1313081 47.0816432,58.1838486 43.4453189,58.1838486 L42.3932108,58.1838486 Z" id="Fill-59" fill="#0D189E" mask="url(#mask-2)"></path>
                    <path d="M43.4447351,71.3509622 C39.8187892,71.3509622 36.8616,68.3931243 36.8616,64.7671784 C36.8616,61.1412324 39.8187892,58.1833946 43.4447351,58.1833946 C47.0713297,58.1833946 50.0285189,61.1412324 50.0285189,64.7671784 C50.0285189,68.3931243 47.0713297,71.3509622 43.4447351,71.3509622" id="Fill-60" fill="#1E41D3" mask="url(#mask-2)"></path>
                    <polygon id="Fill-61" fill="#061584" mask="url(#mask-2)" points="112.787416 67.724173 112.787416 64.746227 112.787416 64.7040649 112.774443 64.6424432 112.152389 61.5613622 112.130335 61.4530378 112.073903 61.3687135 110.377686 58.8526054 110.319957 58.7669838 110.234335 58.7099027 106.215957 57.0136865 106.131632 56.9566054 106.023308 56.9345514 102.941578 56.3124973 102.880605 56.300173 102.838443 56.300173 87.2157405 56.300173 87.174227 56.300173 87.1119568 56.3124973 84.0308757 56.9345514 83.9225514 56.9566054 83.838227 57.0136865 81.3221189 58.7099027 81.2364973 58.7669838 81.1794162 58.8526054 79.4819027 61.3687135 79.4248216 61.4530378 79.4034162 61.5613622 78.7820108 64.6424432 78.7696865 64.7040649 78.7696865 64.746227 78.7696865 67.724173"></polygon>
                    <polygon id="Fill-62" fill="#061584" mask="url(#mask-2)" points="197.686897 67.724173 197.686897 64.746227 197.686897 64.7040649 197.673924 64.6424432 197.05187 61.5613622 197.029816 61.4530378 196.972735 61.3687135 195.276519 58.8526054 195.218789 58.7669838 195.133816 58.7099027 191.115438 57.0136865 191.030465 56.9566054 190.922789 56.9345514 187.841059 56.3124973 187.780086 56.300173 187.737276 56.300173 172.115222 56.300173 172.073059 56.300173 172.011438 56.3124973 168.930357 56.9345514 168.821384 56.9566054 168.737708 57.0136865 166.220951 58.7099027 166.135978 58.7669838 166.078897 58.8526054 164.381384 61.3687135 164.324303 61.4530378 164.302897 61.5613622 163.681492 64.6424432 163.669168 64.7040649 163.669168 64.746227 163.669168 67.724173"></polygon>
                    <polygon id="Fill-63" fill="#0D189E" mask="url(#mask-2)" points="89.6102919 56.2999784 87.2161297 56.2999784 87.1739676 56.2999784 87.1116973 56.3123027 84.0306162 56.9350054 83.9222919 56.9564108 83.8386162 57.0134919 81.3225081 58.7097081 83.6265081 58.7097081"></polygon>
                    <polygon id="Fill-64" fill="#0D189E" mask="url(#mask-2)" points="174.509124 56.2999784 172.115611 56.2999784 172.0728 56.2999784 172.011178 56.3123027 168.930097 56.9350054 168.821124 56.9564108 168.738097 57.0134919 166.221341 58.7097081 168.525989 58.7097081"></polygon>
                    <path d="M102.986724,58.1626378 C99.3510486,58.1626378 96.4035892,61.1100973 96.4035892,64.745773 C96.4035892,68.3820973 99.3510486,71.3295568 102.986724,71.3295568 L102.995157,71.3295568 L103.002941,71.3295568 C103.360346,71.3256649 103.672346,71.3295568 104.038832,71.3295568 C107.675157,71.3295568 110.621968,68.3820973 110.621968,64.745773 C110.621968,61.1100973 107.675157,58.1626378 104.038832,58.1626378 L102.986724,58.1626378 Z" id="Fill-65" fill="#0D189E" mask="url(#mask-2)"></path>
                    <path d="M187.885622,58.1626378 C184.249946,58.1626378 181.302486,61.1100973 181.302486,64.745773 C181.302486,68.3820973 184.249946,71.3295568 187.885622,71.3295568 L187.894054,71.3295568 L187.902486,71.3295568 C188.259892,71.3256649 188.571892,71.3295568 188.93773,71.3295568 C192.574054,71.3295568 195.520865,68.3820973 195.520865,64.745773 C195.520865,61.1100973 192.574054,58.1626378 188.93773,58.1626378 L187.885622,58.1626378 Z" id="Fill-66" fill="#0D189E" mask="url(#mask-2)"></path>
                    <path d="M104.038249,71.329427 C100.412303,71.329427 97.4551135,68.3722378 97.4551135,64.7462919 C97.4551135,61.1203459 100.412303,58.1625081 104.038249,58.1625081 C107.664195,58.1625081 110.622032,61.1203459 110.622032,64.7462919 C110.622032,68.3722378 107.664195,71.329427 104.038249,71.329427" id="Fill-67" fill="#1E41D3" mask="url(#mask-2)"></path>
                    <path d="M188.937795,71.329427 C185.311849,71.329427 182.354659,68.3722378 182.354659,64.7462919 C182.354659,61.1203459 185.311849,58.1625081 188.937795,58.1625081 C192.563741,58.1625081 195.52093,61.1203459 195.52093,64.7462919 C195.52093,68.3722378 192.563741,71.329427 188.937795,71.329427" id="Fill-68" fill="#1E41D3" mask="url(#mask-2)"></path>
                    <path d="M87.9696649,58.1838486 C84.3339892,58.1838486 81.3865297,61.1313081 81.3865297,64.7669838 C81.3865297,68.4033081 84.3339892,71.3507676 87.9696649,71.3507676 L87.9780973,71.3507676 L87.9858811,71.3507676 C88.3432865,71.3468757 88.6552865,71.3507676 89.021773,71.3507676 C92.6580973,71.3507676 95.6049081,68.4033081 95.6049081,64.7669838 C95.6049081,61.1313081 92.6580973,58.1838486 89.021773,58.1838486 L87.9696649,58.1838486 Z" id="Fill-69" fill="#0D189E" mask="url(#mask-2)"></path>
                    <path d="M172.868497,58.1838486 C169.232822,58.1838486 166.285362,61.1313081 166.285362,64.7669838 C166.285362,68.4033081 169.232822,71.3507676 172.868497,71.3507676 L172.87693,71.3507676 L172.885362,71.3507676 C173.242768,71.3468757 173.554768,71.3507676 173.920605,71.3507676 C177.55693,71.3507676 180.503741,68.4033081 180.503741,64.7669838 C180.503741,61.1313081 177.55693,58.1838486 173.920605,58.1838486 L172.868497,58.1838486 Z" id="Fill-70" fill="#0D189E" mask="url(#mask-2)"></path>
                    <path d="M89.0211892,71.3509622 C85.3952432,71.3509622 82.4380541,68.3931243 82.4380541,64.7671784 C82.4380541,61.1412324 85.3952432,58.1833946 89.0211892,58.1833946 C92.6471351,58.1833946 95.604973,61.1412324 95.604973,64.7671784 C95.604973,68.3931243 92.6471351,71.3509622 89.0211892,71.3509622" id="Fill-71" fill="#1E41D3" mask="url(#mask-2)"></path>
                    <path d="M173.92067,71.3509622 C170.294724,71.3509622 167.337535,68.3931243 167.337535,64.7671784 C167.337535,61.1412324 170.294724,58.1833946 173.92067,58.1833946 C177.546616,58.1833946 180.503805,61.1412324 180.503805,64.7671784 C180.503805,68.3931243 177.546616,71.3509622 173.92067,71.3509622" id="Fill-72" fill="#1E41D3" mask="url(#mask-2)"></path>
                    <path d="M43.4447351,68.900173 C41.1569514,68.900173 39.2907892,67.0340108 39.2907892,64.746227 C39.2907892,62.4584432 41.1569514,60.5922811 43.4447351,60.5922811 C45.7325189,60.5922811 47.5986811,62.4584432 47.5986811,64.746227 C47.5986811,67.0340108 45.7325189,68.900173 43.4447351,68.900173" id="Fill-73" fill="#EBFAFF" mask="url(#mask-2)"></path>
                    <path d="M43.4447351,61.042573 C41.3995459,61.042573 39.7409514,62.7005189 39.7409514,64.7457081 C39.7409514,66.7915459 41.3995459,68.4501405 43.4447351,68.4501405 C45.490573,68.4501405 47.1485189,66.7915459 47.1485189,64.7457081 C47.1485189,62.7005189 45.490573,61.042573 43.4447351,61.042573" id="Fill-74" fill="#061584" mask="url(#mask-2)"></path>
                    <path d="M39.8100324,64.033427 C39.7652757,64.2643459 39.7412757,64.5024 39.7412757,64.7462919 C39.7412757,66.7914811 41.3992216,68.4500757 43.4450595,68.4500757 C45.0679784,68.4500757 46.4463568,67.4057514 46.9477622,65.9521297 C46.9918703,65.7218595 47.0158703,65.4831568 47.0158703,65.2392649 C47.0158703,63.1947243 45.358573,61.5361297 43.3127351,61.5361297 C41.6891676,61.5361297 40.3107892,62.5804541 39.8100324,64.033427" id="Fill-75" fill="#EBFAFF" mask="url(#mask-2)"></path>
                    <path d="M40.9521081,64.025773 L40.9482162,64.0355027 L40.9371892,64.0783135 L40.932,64.097773 L40.9229189,64.1302054 L40.9222703,64.1334486 L40.9203243,64.1412324 L40.9138378,64.1626378 L40.9105946,64.1762595 L40.9054054,64.1957189 L40.9047568,64.1976649 L40.8963243,64.2288 L40.8963243,64.2320432 L40.8937297,64.239827 L40.8872432,64.2612324 L40.884,64.2748541 L40.8788108,64.2943135 L40.8788108,64.2962595 L40.8703784,64.3267459 L40.8697297,64.3306378 L40.8677838,64.3384216 L40.8612973,64.359827 L40.8574054,64.3740973 L40.8528649,64.3929081 L40.8522162,64.3948541 L40.8437838,64.4259892 L40.8431351,64.4298811 L40.8411892,64.4370162 L40.8347027,64.4584216 L40.8308108,64.4720432 L40.8262703,64.4915027 L40.8262703,64.4934486 L40.8171892,64.5245838 L40.8171892,64.527827 L40.8145946,64.5362595 L40.8081081,64.5570162 L40.8048649,64.5706378 L40.8003243,64.5900973 L40.7996757,64.5926919 L40.7912432,64.6231784 L40.7892973,64.6303135 L40.7886486,64.6348541 L40.7821622,64.6556108 L40.7756757,64.6828541 L40.7737297,64.6886919 L40.7698378,64.7055568 L40.7614054,64.7353946 L40.7562162,64.7542054 L40.7523243,64.7671784 C40.6958919,64.9805838 40.6660541,65.2050162 40.6660541,65.4365838 C40.6660541,66.8694486 41.8284324,68.0311784 43.2612973,68.0311784 C44.4587027,68.0311784 45.468,67.2184216 45.7657297,66.1131243 L45.7741622,66.0845838 L45.7748108,66.0806919 L45.7774054,66.0722595 L45.7793514,66.0618811 L45.7825946,66.0521514 L45.7832432,66.0476108 L45.7851892,66.041773 L45.7877838,66.0320432 L45.7903784,66.0216649 L45.7923243,66.0145297 L45.792973,66.0119351 L45.7955676,66.0015568 L45.8014054,65.9820973 L45.8014054,65.9820973 L45.8033514,65.9717189 L45.8059459,65.9619892 L45.8091892,65.9516108 L45.8098378,65.9490162 L45.8117838,65.9412324 L45.8143784,65.9308541 L45.8176216,65.9204757 L45.8189189,65.9159351 L45.8202162,65.9100973 L45.8228108,65.9003676 L45.8254054,65.8906378 L45.828,65.8835027 L45.8286486,65.8802595 L45.8331892,65.8595027 L45.8357838,65.8504216 L45.8364324,65.8491243 L45.839027,65.8380973 L45.8422703,65.8277189 L45.8448649,65.8173405 L45.8448649,65.8166919 L45.8474595,65.8069622 L45.8500541,65.7965838 L45.8532973,65.7862054 L45.8532973,65.7849081 L45.8558919,65.775827 L45.8578378,65.7660973 L45.8610811,65.7557189 L45.8617297,65.751827 L45.863027,65.7453405 L45.8669189,65.7349622 L45.8688649,65.7252324 L45.8708108,65.7187459 L45.8721081,65.7148541 L45.8747027,65.7044757 L45.8772973,65.6947459 L45.8798919,65.6863135 L45.8850811,65.6649081 L45.8883243,65.6545297 L45.8883243,65.6532324 L45.8941622,65.6331243 L45.8961081,65.6220973 L45.8974054,65.6201514 L45.9,65.6117189 L45.9025946,65.6006919 L45.9051892,65.5916108 L45.9058378,65.5877189 L45.9077838,65.5812324 L45.9103784,65.5715027 L45.9123243,65.561773 L45.9142703,65.5546378 L45.9149189,65.5520432 L45.9175135,65.5423135 L45.9207568,65.5319351 L45.9233514,65.5215568 L45.9259459,65.511827 L45.9285405,65.5020973 L45.9311351,65.4917189 L45.9324324,65.4884757 L45.936973,65.4716108 L45.9389189,65.4612324 L45.9408649,65.4566919 L45.9415135,65.4508541 L45.9454054,65.4404757 L45.9473514,65.4307459 C46.007027,65.2128 46.0401081,64.983827 46.0401081,64.745773 C46.0401081,63.3122595 44.8777297,62.151827 43.4455135,62.151827 C42.2617297,62.151827 41.2641081,62.9431784 40.9521081,64.025773" id="Fill-76" fill="#061584" mask="url(#mask-2)"></path>
                    <path d="M43.4447351,67.3409514 C42.0157622,67.3409514 40.8494919,66.1753297 40.8494919,64.7463568 C40.8494919,63.3167351 42.0157622,62.1517622 43.4447351,62.1517622 C44.8737081,62.1517622 46.0393297,63.3167351 46.0393297,64.7463568 C46.0393297,66.1753297 44.8737081,67.3409514 43.4447351,67.3409514" id="Fill-77" fill="#1337BC" mask="url(#mask-2)"></path>
                    <path d="M43.7905946,67.3409514 C42.360973,67.3409514 41.1953514,66.1753297 41.1953514,64.7463568 C41.1953514,63.3167351 42.360973,62.1517622 43.7905946,62.1517622 C45.2195676,62.1517622 46.3851892,63.3167351 46.3851892,64.7463568 C46.3851892,66.1753297 45.2195676,67.3409514 43.7905946,67.3409514" id="Fill-78" fill="#EBFAFF" mask="url(#mask-2)"></path>
                    <path d="M89.0211892,68.900173 C86.7334054,68.900173 84.8672432,67.0340108 84.8672432,64.746227 C84.8672432,62.4584432 86.7334054,60.5922811 89.0211892,60.5922811 C91.3083243,60.5922811 93.1744865,62.4584432 93.1744865,64.746227 C93.1744865,67.0340108 91.3083243,68.900173 89.0211892,68.900173" id="Fill-79" fill="#EBFAFF" mask="url(#mask-2)"></path>
                    <path d="M89.0211892,61.042573 C86.976,61.042573 85.3174054,62.7005189 85.3174054,64.7457081 C85.3174054,66.7915459 86.976,68.4501405 89.0211892,68.4501405 C91.0663784,68.4501405 92.724973,66.7915459 92.724973,64.7457081 C92.724973,62.7005189 91.0663784,61.042573 89.0211892,61.042573" id="Fill-80" fill="#061584" mask="url(#mask-2)"></path>
                    <path d="M85.3864865,64.033427 C85.3417297,64.2643459 85.3177297,64.5024 85.3177297,64.7462919 C85.3177297,66.7914811 86.9756757,68.4500757 89.0215135,68.4500757 C90.6437838,68.4500757 92.0228108,67.4057514 92.5235676,65.9521297 C92.5676757,65.7218595 92.5923243,65.4831568 92.5923243,65.2392649 C92.5923243,63.1947243 90.935027,61.5361297 88.8891892,61.5361297 C87.2656216,61.5361297 85.8872432,62.5804541 85.3864865,64.033427" id="Fill-81" fill="#EBFAFF" mask="url(#mask-2)"></path>
                    <path d="M86.5279135,64.025773 L86.5246703,64.0355027 L86.5129946,64.0783135 L86.5078054,64.097773 L86.4987243,64.1302054 L86.4980757,64.1334486 L86.4967784,64.1412324 L86.4902919,64.1626378 L86.4870486,64.1762595 L86.4818595,64.1957189 L86.4812108,64.1976649 L86.4727784,64.2288 L86.4721297,64.2320432 L86.4701838,64.239827 L86.4636973,64.2612324 L86.4604541,64.2748541 L86.4552649,64.2943135 L86.4552649,64.2962595 L86.4461838,64.3267459 L86.4461838,64.3306378 L86.4435892,64.3384216 L86.4371027,64.359827 L86.4338595,64.3740973 L86.4286703,64.3929081 L86.4286703,64.3948541 L86.4202378,64.4259892 L86.4195892,64.4298811 L86.4176432,64.4370162 L86.4111568,64.4584216 L86.4072649,64.4720432 L86.4027243,64.4915027 L86.4020757,64.4934486 L86.3936432,64.5245838 L86.3929946,64.527827 L86.3910486,64.5362595 L86.3845622,64.5570162 L86.3813189,64.5706378 L86.3761297,64.5900973 L86.3761297,64.5926919 L86.3670486,64.6231784 L86.3657514,64.6303135 L86.3651027,64.6348541 L86.3586162,64.6556108 L86.3521297,64.6828541 L86.3501838,64.6886919 L86.3456432,64.7055568 L86.3378595,64.7353946 L86.3320216,64.7542054 L86.3287784,64.7671784 C86.2723459,64.9805838 86.2418595,65.2050162 86.2418595,65.4365838 C86.2418595,66.8694486 87.4042378,68.0311784 88.8371027,68.0311784 C90.0351568,68.0311784 91.0444541,67.2184216 91.3421838,66.1131243 L91.3506162,66.0845838 L91.3512649,66.0806919 L91.3532108,66.0722595 L91.3558054,66.0618811 L91.3584,66.0521514 L91.3596973,66.0476108 L91.3609946,66.041773 L91.3642378,66.0320432 L91.3661838,66.0216649 L91.3687784,66.0145297 L91.369427,66.0119351 L91.3720216,66.0015568 L91.3778595,65.9820973 L91.3778595,65.9820973 L91.3798054,65.9717189 L91.3824,65.9619892 L91.3849946,65.9516108 L91.3856432,65.9490162 L91.3882378,65.9412324 L91.3908324,65.9308541 L91.3940757,65.9204757 L91.3947243,65.9159351 L91.3966703,65.9100973 L91.3992649,65.9003676 L91.4018595,65.8906378 L91.4038054,65.8835027 L91.4044541,65.8802595 L91.4096432,65.8595027 L91.4122378,65.8504216 L91.4128865,65.8491243 L91.4154811,65.8380973 L91.4187243,65.8277189 L91.4213189,65.8173405 L91.4213189,65.8166919 L91.4239135,65.8069622 L91.4265081,65.7965838 L91.4291027,65.7862054 L91.4297514,65.7849081 L91.4323459,65.775827 L91.4342919,65.7660973 L91.4368865,65.7557189 L91.4381838,65.751827 L91.4394811,65.7453405 L91.4427243,65.7349622 L91.4453189,65.7252324 L91.4472649,65.7187459 L91.4479135,65.7148541 L91.4505081,65.7044757 L91.4537514,65.6947459 L91.4556973,65.6863135 L91.4615351,65.6649081 L91.4641297,65.6545297 L91.4641297,65.6532324 L91.4699676,65.6331243 L91.4725622,65.6220973 L91.4732108,65.6201514 L91.4764541,65.6117189 L91.4784,65.6006919 L91.4816432,65.5916108 L91.4822919,65.5877189 L91.4835892,65.5812324 L91.4868324,65.5715027 L91.4887784,65.561773 L91.4907243,65.5546378 L91.491373,65.5520432 L91.4939676,65.5423135 L91.4972108,65.5319351 L91.4998054,65.5215568 L91.5024,65.511827 L91.5049946,65.5020973 L91.5075892,65.4917189 L91.5088865,65.4884757 L91.513427,65.4716108 L91.515373,65.4612324 L91.5166703,65.4566919 L91.5179676,65.4508541 L91.5212108,65.4404757 L91.5238054,65.4307459 C91.5834811,65.2128 91.6165622,64.983827 91.6165622,64.745773 C91.6165622,63.3122595 90.4541838,62.151827 89.0219676,62.151827 C87.8381838,62.151827 86.8399135,62.9431784 86.5279135,64.025773" id="Fill-82" fill="#061584" mask="url(#mask-2)"></path>
                    <path d="M89.0211892,67.3409514 C87.5915676,67.3409514 86.4259459,66.1753297 86.4259459,64.7463568 C86.4259459,63.3167351 87.5915676,62.1517622 89.0211892,62.1517622 C90.4501622,62.1517622 91.6157838,63.3167351 91.6157838,64.7463568 C91.6157838,66.1753297 90.4501622,67.3409514 89.0211892,67.3409514" id="Fill-83" fill="#1337BC" mask="url(#mask-2)"></path>
                    <path d="M89.3664,67.3409514 C87.937427,67.3409514 86.7718054,66.1753297 86.7718054,64.7463568 C86.7718054,63.3167351 87.937427,62.1517622 89.3664,62.1517622 C90.795373,62.1517622 91.9616432,63.3167351 91.9616432,64.7463568 C91.9616432,66.1753297 90.795373,67.3409514 89.3664,67.3409514" id="Fill-84" fill="#EBFAFF" mask="url(#mask-2)"></path>
                    <path d="M173.920022,68.900173 C171.632238,68.900173 169.766076,67.0340108 169.766076,64.746227 C169.766076,62.4584432 171.632238,60.5922811 173.920022,60.5922811 C176.207805,60.5922811 178.073968,62.4584432 178.073968,64.746227 C178.073968,67.0340108 176.207805,68.900173 173.920022,68.900173" id="Fill-85" fill="#EBFAFF" mask="url(#mask-2)"></path>
                    <path d="M173.92067,61.042573 C171.875481,61.042573 170.216886,62.7005189 170.216886,64.7457081 C170.216886,66.7915459 171.875481,68.4501405 173.92067,68.4501405 C175.965859,68.4501405 177.623805,66.7915459 177.623805,64.7457081 C177.623805,62.7005189 175.965859,61.042573 173.92067,61.042573" id="Fill-86" fill="#061584" mask="url(#mask-2)"></path>
                    <path d="M170.285968,64.033427 C170.241211,64.2643459 170.217211,64.5024 170.217211,64.7462919 C170.217211,66.7914811 171.875157,68.4500757 173.920995,68.4500757 C175.543265,68.4500757 176.922292,67.4057514 177.423049,65.9521297 C177.467157,65.7218595 177.491157,65.4831568 177.491157,65.2392649 C177.491157,63.1947243 175.833859,61.5361297 173.788022,61.5361297 C172.165103,61.5361297 170.786076,62.5804541 170.285968,64.033427" id="Fill-87" fill="#EBFAFF" mask="url(#mask-2)"></path>
                    <path d="M171.427395,64.025773 L171.424151,64.0355027 L171.412476,64.0783135 L171.407286,64.097773 L171.398205,64.1302054 L171.397557,64.1334486 L171.395611,64.1412324 L171.389124,64.1626378 L171.38653,64.1762595 L171.380692,64.1957189 L171.380043,64.1976649 L171.372259,64.2288 L171.371611,64.2320432 L171.369665,64.239827 L171.363178,64.2612324 L171.359935,64.2748541 L171.354746,64.2943135 L171.354097,64.2962595 L171.345665,64.3267459 L171.345016,64.3306378 L171.34307,64.3384216 L171.336584,64.359827 L171.332692,64.3740973 L171.328151,64.3929081 L171.328151,64.3948541 L171.31907,64.4259892 L171.31907,64.4298811 L171.317124,64.4370162 L171.309989,64.4584216 L171.306746,64.4720432 L171.302205,64.4915027 L171.301557,64.4934486 L171.293124,64.5245838 L171.292476,64.527827 L171.29053,64.5362595 L171.284043,64.5570162 L171.2808,64.5706378 L171.275611,64.5900973 L171.275611,64.5926919 L171.26653,64.6231784 L171.265232,64.6303135 L171.263935,64.6348541 L171.258097,64.6556108 L171.251611,64.6828541 L171.249665,64.6886919 L171.245124,64.7055568 L171.237341,64.7353946 L171.231503,64.7542054 L171.228259,64.7671784 C171.171178,64.9805838 171.141341,65.2050162 171.141341,65.4365838 C171.141341,66.8694486 172.303719,68.0311784 173.736584,68.0311784 C174.934638,68.0311784 175.943935,67.2184216 176.241665,66.1131243 L176.250097,66.0845838 L176.250746,66.0806919 L176.252692,66.0722595 L176.255286,66.0618811 L176.257881,66.0521514 L176.259178,66.0476108 L176.260476,66.041773 L176.26307,66.0320432 L176.265665,66.0216649 L176.267611,66.0145297 L176.268259,66.0119351 L176.270854,66.0015568 L176.276692,65.9820973 L176.276692,65.9820973 L176.279286,65.9717189 L176.281232,65.9619892 L176.284476,65.9516108 L176.285124,65.9490162 L176.287719,65.9412324 L176.289665,65.9308541 L176.293557,65.9204757 L176.294205,65.9159351 L176.295503,65.9100973 L176.298746,65.9003676 L176.301341,65.8906378 L176.303286,65.8835027 L176.303935,65.8802595 L176.309124,65.8595027 L176.311719,65.8504216 L176.312368,65.8491243 L176.314962,65.8380973 L176.317557,65.8277189 L176.3208,65.8173405 L176.3208,65.8166919 L176.322746,65.8069622 L176.325989,65.7965838 L176.328584,65.7862054 L176.329232,65.7849081 L176.331827,65.775827 L176.333773,65.7660973 L176.336368,65.7557189 L176.337016,65.751827 L176.338962,65.7453405 L176.342205,65.7349622 L176.3448,65.7252324 L176.346097,65.7187459 L176.347395,65.7148541 L176.349989,65.7044757 L176.352584,65.6947459 L176.355178,65.6863135 L176.360368,65.6649081 L176.363611,65.6545297 L176.363611,65.6532324 L176.369449,65.6331243 L176.372043,65.6220973 L176.372692,65.6201514 L176.375286,65.6117189 L176.377881,65.6006919 L176.380476,65.5916108 L176.381773,65.5877189 L176.38307,65.5812324 L176.385665,65.5715027 L176.387611,65.561773 L176.390205,65.5546378 L176.390854,65.5520432 L176.3928,65.5423135 L176.396692,65.5319351 L176.399286,65.5215568 L176.401881,65.511827 L176.404476,65.5020973 L176.40707,65.4917189 L176.407719,65.4884757 L176.412259,65.4716108 L176.414854,65.4612324 L176.416151,65.4566919 L176.417449,65.4508541 L176.420692,65.4404757 L176.423286,65.4307459 C176.482314,65.2128 176.515395,64.983827 176.515395,64.745773 C176.515395,63.3122595 175.353665,62.151827 173.9208,62.151827 C172.737665,62.151827 171.739395,62.9431784 171.427395,64.025773" id="Fill-88" fill="#061584" mask="url(#mask-2)"></path>
                    <path d="M173.920022,67.3409514 C172.491049,67.3409514 171.325427,66.1753297 171.325427,64.7463568 C171.325427,63.3167351 172.491049,62.1517622 173.920022,62.1517622 C175.349643,62.1517622 176.515265,63.3167351 176.515265,64.7463568 C176.515265,66.1753297 175.349643,67.3409514 173.920022,67.3409514" id="Fill-89" fill="#1337BC" mask="url(#mask-2)"></path>
                    <path d="M174.265881,67.3409514 C172.836908,67.3409514 171.671286,66.1753297 171.671286,64.7463568 C171.671286,63.3167351 172.836908,62.1517622 174.265881,62.1517622 C175.694854,62.1517622 176.861124,63.3167351 176.861124,64.7463568 C176.861124,66.1753297 175.694854,67.3409514 174.265881,67.3409514" id="Fill-90" fill="#EBFAFF" mask="url(#mask-2)"></path>
                    <path d="M104.038249,68.900173 C101.750465,68.900173 99.8843027,67.0340108 99.8843027,64.746227 C99.8843027,62.4584432 101.750465,60.5922811 104.038249,60.5922811 C106.326032,60.5922811 108.192195,62.4584432 108.192195,64.746227 C108.192195,67.0340108 106.326032,68.900173 104.038249,68.900173" id="Fill-91" fill="#EBFAFF" mask="url(#mask-2)"></path>
                    <path d="M104.038897,61.042573 C101.993708,61.042573 100.334465,62.7005189 100.334465,64.7457081 C100.334465,66.7915459 101.993708,68.4501405 104.038897,68.4501405 C106.084086,68.4501405 107.742032,66.7915459 107.742032,64.7457081 C107.742032,62.7005189 106.084086,61.042573 104.038897,61.042573" id="Fill-92" fill="#061584" mask="url(#mask-2)"></path>
                    <path d="M100.404195,64.033427 C100.359438,64.2643459 100.334789,64.5024 100.334789,64.7462919 C100.334789,66.7914811 101.993384,68.4500757 104.039222,68.4500757 C105.661492,68.4500757 107.040519,67.4057514 107.541276,65.9521297 C107.585384,65.7218595 107.609384,65.4831568 107.609384,65.2392649 C107.609384,63.1947243 105.952086,61.5361297 103.906249,61.5361297 C102.28333,61.5361297 100.904303,62.5804541 100.404195,64.033427" id="Fill-93" fill="#EBFAFF" mask="url(#mask-2)"></path>
                    <path d="M101.545686,64.025773 L101.542443,64.0355027 L101.530768,64.0783135 L101.525578,64.097773 L101.516497,64.1302054 L101.515849,64.1334486 L101.513903,64.1412324 L101.507416,64.1626378 L101.504173,64.1762595 L101.498984,64.1957189 L101.498335,64.1976649 L101.489903,64.2288 L101.489903,64.2320432 L101.487308,64.239827 L101.480822,64.2612324 L101.478227,64.2748541 L101.473038,64.2943135 L101.472389,64.2962595 L101.463957,64.3267459 L101.463308,64.3306378 L101.461362,64.3384216 L101.454876,64.359827 L101.450984,64.3740973 L101.446443,64.3929081 L101.446443,64.3948541 L101.437362,64.4259892 L101.437362,64.4298811 L101.434768,64.4370162 L101.428281,64.4584216 L101.424389,64.4720432 L101.419849,64.4915027 L101.419849,64.4934486 L101.411416,64.5245838 L101.410768,64.527827 L101.408822,64.5362595 L101.402335,64.5570162 L101.398443,64.5706378 L101.393903,64.5900973 L101.393254,64.5926919 L101.384822,64.6231784 L101.383524,64.6303135 L101.382227,64.6348541 L101.376389,64.6556108 L101.369903,64.6828541 L101.367957,64.6886919 L101.363416,64.7055568 L101.354984,64.7353946 L101.349795,64.7542054 L101.346551,64.7671784 C101.28947,64.9805838 101.259632,65.2050162 101.259632,65.4365838 C101.259632,66.8694486 102.422011,68.0311784 103.854876,68.0311784 C105.05293,68.0311784 106.062227,67.2184216 106.359957,66.1131243 L106.368389,66.0845838 L106.369038,66.0806919 L106.370984,66.0722595 L106.373578,66.0618811 L106.376173,66.0521514 L106.376822,66.0476108 L106.378768,66.041773 L106.381362,66.0320432 L106.383957,66.0216649 L106.385903,66.0145297 L106.386551,66.0119351 L106.389146,66.0015568 L106.394984,65.9820973 L106.394984,65.9820973 L106.39693,65.9717189 L106.399524,65.9619892 L106.402768,65.9516108 L106.403416,65.9490162 L106.405362,65.9412324 L106.407957,65.9308541 L106.4112,65.9204757 L106.412497,65.9159351 L106.413795,65.9100973 L106.417038,65.9003676 L106.418984,65.8906378 L106.421578,65.8835027 L106.422227,65.8802595 L106.426768,65.8595027 L106.430011,65.8504216 L106.430659,65.8491243 L106.432605,65.8380973 L106.435849,65.8277189 L106.438443,65.8173405 L106.438443,65.8166919 L106.441038,65.8069622 L106.444281,65.7965838 L106.446876,65.7862054 L106.446876,65.7849081 L106.450119,65.775827 L106.451416,65.7660973 L106.454659,65.7557189 L106.455308,65.751827 L106.457254,65.7453405 L106.460497,65.7349622 L106.463092,65.7252324 L106.464389,65.7187459 L106.465686,65.7148541 L106.468281,65.7044757 L106.470876,65.6947459 L106.47347,65.6863135 L106.478659,65.6649081 L106.481903,65.6545297 L106.481903,65.6532324 L106.487741,65.6331243 L106.490335,65.6220973 L106.490984,65.6201514 L106.493578,65.6117189 L106.496173,65.6006919 L106.498768,65.5916108 L106.500065,65.5877189 L106.501362,65.5812324 L106.503957,65.5715027 L106.505903,65.561773 L106.507849,65.5546378 L106.508497,65.5520432 L106.511092,65.5423135 L106.514335,65.5319351 L106.51693,65.5215568 L106.520173,65.511827 L106.522119,65.5020973 L106.525362,65.4917189 L106.526011,65.4884757 L106.530551,65.4716108 L106.533146,65.4612324 L106.534443,65.4566919 L106.535741,65.4508541 L106.538984,65.4404757 L106.54093,65.4307459 C106.600605,65.2128 106.633686,64.983827 106.633686,64.745773 C106.633686,63.3122595 105.471308,62.151827 104.039092,62.151827 C102.855957,62.151827 101.857686,62.9431784 101.545686,64.025773" id="Fill-94" fill="#061584" mask="url(#mask-2)"></path>
                    <path d="M104.038249,67.3409514 C102.609276,67.3409514 101.443654,66.1753297 101.443654,64.7463568 C101.443654,63.3167351 102.609276,62.1517622 104.038249,62.1517622 C105.467222,62.1517622 106.632843,63.3167351 106.632843,64.7463568 C106.632843,66.1753297 105.467222,67.3409514 104.038249,67.3409514" id="Fill-95" fill="#1337BC" mask="url(#mask-2)"></path>
                    <path d="M104.384108,67.3409514 C102.954486,67.3409514 101.788865,66.1753297 101.788865,64.7463568 C101.788865,63.3167351 102.954486,62.1517622 104.384108,62.1517622 C105.813081,62.1517622 106.978703,63.3167351 106.978703,64.7463568 C106.978703,66.1753297 105.813081,67.3409514 104.384108,67.3409514" id="Fill-96" fill="#EBFAFF" mask="url(#mask-2)"></path>
                    <path d="M188.937795,68.900173 C186.650011,68.900173 184.783849,67.0340108 184.783849,64.746227 C184.783849,62.4584432 186.650011,60.5922811 188.937795,60.5922811 C191.225578,60.5922811 193.091741,62.4584432 193.091741,64.746227 C193.091741,67.0340108 191.225578,68.900173 188.937795,68.900173" id="Fill-97" fill="#EBFAFF" mask="url(#mask-2)"></path>
                    <path d="M188.937795,61.042573 C186.892605,61.042573 185.234011,62.7005189 185.234011,64.7457081 C185.234011,66.7915459 186.892605,68.4501405 188.937795,68.4501405 C190.983632,68.4501405 192.641578,66.7915459 192.641578,64.7457081 C192.641578,62.7005189 190.983632,61.042573 188.937795,61.042573" id="Fill-98" fill="#061584" mask="url(#mask-2)"></path>
                    <path d="M185.303027,64.033427 C185.25827,64.2643459 185.23427,64.5024 185.23427,64.7462919 C185.23427,66.7914811 186.892216,68.4500757 188.938054,68.4500757 C190.560324,68.4500757 191.939351,67.4057514 192.440108,65.9521297 C192.484865,65.7218595 192.508865,65.4831568 192.508865,65.2392649 C192.508865,63.1947243 190.851568,61.5361297 188.80573,61.5361297 C187.182162,61.5361297 185.803784,62.5804541 185.303027,64.033427" id="Fill-99" fill="#EBFAFF" mask="url(#mask-2)"></path>
                    <path d="M186.445168,64.025773 L186.441276,64.0355027 L186.430249,64.0783135 L186.424411,64.097773 L186.415978,64.1302054 L186.41533,64.1334486 L186.413384,64.1412324 L186.406897,64.1626378 L186.403654,64.1762595 L186.398465,64.1957189 L186.397816,64.1976649 L186.389384,64.2288 L186.388735,64.2320432 L186.386789,64.239827 L186.380303,64.2612324 L186.377059,64.2748541 L186.37187,64.2943135 L186.37187,64.2962595 L186.362789,64.3267459 L186.362789,64.3306378 L186.360843,64.3384216 L186.354357,64.359827 L186.350465,64.3740973 L186.345924,64.3929081 L186.345276,64.3948541 L186.336843,64.4259892 L186.336195,64.4298811 L186.334249,64.4370162 L186.327762,64.4584216 L186.32387,64.4720432 L186.31933,64.4915027 L186.31933,64.4934486 L186.310249,64.5245838 L186.310249,64.527827 L186.307654,64.5362595 L186.301168,64.5570162 L186.297924,64.5706378 L186.292735,64.5900973 L186.292735,64.5926919 L186.284303,64.6231784 L186.282357,64.6303135 L186.281708,64.6348541 L186.275222,64.6556108 L186.268735,64.6828541 L186.266789,64.6886919 L186.262897,64.7055568 L186.254465,64.7353946 L186.249276,64.7542054 L186.245384,64.7671784 C186.188951,64.9805838 186.159114,65.2050162 186.159114,65.4365838 C186.159114,66.8694486 187.321492,68.0311784 188.754357,68.0311784 C189.951762,68.0311784 190.961059,67.2184216 191.258789,66.1131243 L191.267222,66.0845838 L191.26787,66.0806919 L191.269816,66.0722595 L191.272411,66.0618811 L191.275654,66.0521514 L191.276303,66.0476108 L191.2776,66.041773 L191.280843,66.0320432 L191.283438,66.0216649 L191.285384,66.0145297 L191.286032,66.0119351 L191.288627,66.0015568 L191.294465,65.9820973 L191.294465,65.9820973 L191.296411,65.9717189 L191.299005,65.9619892 L191.302249,65.9516108 L191.302897,65.9490162 L191.304843,65.9412324 L191.307438,65.9308541 L191.310681,65.9204757 L191.31133,65.9159351 L191.313276,65.9100973 L191.31587,65.9003676 L191.318465,65.8906378 L191.320411,65.8835027 L191.321059,65.8802595 L191.326249,65.8595027 L191.328843,65.8504216 L191.329492,65.8491243 L191.332086,65.8380973 L191.33533,65.8277189 L191.337924,65.8173405 L191.337924,65.8166919 L191.340519,65.8069622 L191.343114,65.7965838 L191.346357,65.7862054 L191.346357,65.7849081 L191.348951,65.775827 L191.350897,65.7660973 L191.353492,65.7557189 L191.354789,65.751827 L191.356086,65.7453405 L191.359978,65.7349622 L191.361924,65.7252324 L191.36387,65.7187459 L191.365168,65.7148541 L191.367114,65.7044757 L191.370357,65.6947459 L191.372951,65.6863135 L191.378141,65.6649081 L191.380735,65.6545297 L191.380735,65.6532324 L191.387222,65.6331243 L191.389168,65.6220973 L191.389816,65.6201514 L191.393059,65.6117189 L191.395654,65.6006919 L191.398249,65.5916108 L191.398897,65.5877189 L191.400843,65.5812324 L191.403438,65.5715027 L191.405384,65.561773 L191.40733,65.5546378 L191.407978,65.5520432 L191.410573,65.5423135 L191.413816,65.5319351 L191.416411,65.5215568 L191.419005,65.511827 L191.4216,65.5020973 L191.424195,65.4917189 L191.425492,65.4884757 L191.430032,65.4716108 L191.431978,65.4612324 L191.433924,65.4566919 L191.434573,65.4508541 L191.437816,65.4404757 L191.440411,65.4307459 C191.500086,65.2128 191.533168,64.983827 191.533168,64.745773 C191.533168,63.3122595 190.370789,62.151827 188.938573,62.151827 C187.754789,62.151827 186.757168,62.9431784 186.445168,64.025773" id="Fill-100" fill="#061584" mask="url(#mask-2)"></path>
                    <path d="M188.937795,67.3409514 C187.508822,67.3409514 186.342551,66.1753297 186.342551,64.7463568 C186.342551,63.3167351 187.508822,62.1517622 188.937795,62.1517622 C190.366768,62.1517622 191.532389,63.3167351 191.532389,64.7463568 C191.532389,66.1753297 190.366768,67.3409514 188.937795,67.3409514" id="Fill-101" fill="#1337BC" mask="url(#mask-2)"></path>
                    <path d="M189.283005,67.3409514 C187.854032,67.3409514 186.688411,66.1753297 186.688411,64.7463568 C186.688411,63.3167351 187.854032,62.1517622 189.283005,62.1517622 C190.712627,62.1517622 191.878249,63.3167351 191.878249,64.7463568 C191.878249,66.1753297 190.712627,67.3409514 189.283005,67.3409514" id="Fill-102" fill="#EBFAFF" mask="url(#mask-2)"></path>
                    <polygon id="Fill-103" fill="#1AC1F3" mask="url(#mask-2)" points="24.312 67.7448649 31.7922162 67.7448649 31.7922162 19.9225946 24.312 19.9225946"></polygon>
                    <polygon id="Fill-104" fill="#1AC1F3" mask="url(#mask-2)" points="24.312 46.1299459 31.7922162 46.1299459 31.7922162 41.5952432 24.312 41.5952432"></polygon>
                </g>
                <polygon id="Fill-106" fill="url(#linearGradient-3)" points="24.312 67.9498378 31.7922162 67.9498378 31.7922162 65.856 24.312 65.856"></polygon>
                <g id="Group-181" transform="translate(23.351351, 0.204324)">
                    <mask id="mask-5" fill="white">
                        <use xlink:href="#path-4"></use>
                    </mask>
                    <g id="Clip-109"></g>
                    <path d="M5.07113514,39.5228108 L8.44086486,39.5228108 L8.44086486,24.3483243 L5.07113514,24.3483243 L5.07113514,39.5228108 Z M0.960648649,39.5228108 L4.33037838,39.5228108 L4.33037838,24.3483243 L0.960648649,24.3483243 L0.960648649,39.5228108 Z" id="Fill-108" fill="#061584" mask="url(#mask-5)"></path>
                    <polygon id="Fill-110" fill="#45D3F4" mask="url(#mask-5)" points="7.41016216 57.9327568 8.34032432 57.9327568 8.34032432 55.1747027 7.41016216 55.1747027"></polygon>
                    <polygon id="Fill-111" fill="#69DEF9" mask="url(#mask-5)" points="6.55394595 57.9321081 7.98745946 57.9321081 7.98745946 55.1740541 6.55394595 55.1740541"></polygon>
                    <polygon id="Fill-112" fill="#45D3F4" mask="url(#mask-5)" points="1.56648649 57.9327568 2.496 57.9327568 2.496 55.1747027 1.56648649 55.1747027"></polygon>
                    <polygon id="Fill-113" fill="#45D3F4" mask="url(#mask-5)" points="6.03113514 60.3814054 6.38335135 60.3814054 6.38335135 43.8343784 6.03113514 43.8343784"></polygon>
                    <polygon id="Fill-114" fill="#69DEF9" mask="url(#mask-5)" points="0.709621622 57.9321081 2.14378378 57.9321081 2.14378378 55.1740541 0.709621622 55.1740541"></polygon>
                    <polygon id="Fill-115" fill="#69DEF9" mask="url(#mask-5)" points="2.66724324 60.3814054 6.03113514 60.3814054 6.03113514 43.8343784 2.66724324 43.8343784"></polygon>
                    <polygon id="Fill-116" fill="#69DEF9" mask="url(#mask-5)" points="0.391783784 67.7455135 7.872 67.7455135 7.872 60.3807568 0.391783784 60.3807568"></polygon>
                    <polygon id="Fill-117" fill="#EBFAFF" mask="url(#mask-5)" points="7.872 67.7455135 9.00972973 67.7455135 9.00972973 60.3807568 7.872 60.3807568"></polygon>
                    <polygon id="Fill-118" fill="#EBFAFF" mask="url(#mask-5)" points="7.98810811 57.9327568 8.16389189 57.9327568 8.16389189 55.1747027 7.98810811 55.1747027"></polygon>
                    <polygon id="Fill-119" fill="#061584" mask="url(#mask-5)" points="2.9267027 45.6447568 5.77102703 45.6447568 5.77102703 44.7814054 2.9267027 44.7814054"></polygon>
                    <polygon id="Fill-120" fill="#061584" mask="url(#mask-5)" points="2.9267027 46.9842162 5.77102703 46.9842162 5.77102703 46.1208649 2.9267027 46.1208649"></polygon>
                    <polygon id="Fill-121" fill="#061584" mask="url(#mask-5)" points="2.9267027 48.3236757 5.77102703 48.3236757 5.77102703 47.4603243 2.9267027 47.4603243"></polygon>
                    <polygon id="Fill-122" fill="#061584" mask="url(#mask-5)" points="2.9267027 49.6637838 5.77102703 49.6637838 5.77102703 48.8004324 2.9267027 48.8004324"></polygon>
                    <polygon id="Fill-123" fill="#061584" mask="url(#mask-5)" points="2.9267027 51.0032432 5.77102703 51.0032432 5.77102703 50.1398919 2.9267027 50.1398919"></polygon>
                    <polygon id="Fill-124" fill="#061584" mask="url(#mask-5)" points="2.9267027 52.3427027 5.77102703 52.3427027 5.77102703 51.4793514 2.9267027 51.4793514"></polygon>
                    <polygon id="Fill-125" fill="#061584" mask="url(#mask-5)" points="2.9267027 53.6828108 5.77102703 53.6828108 5.77102703 52.8194595 2.9267027 52.8194595"></polygon>
                    <polygon id="Fill-126" fill="#061584" mask="url(#mask-5)" points="2.9267027 55.0222703 5.77102703 55.0222703 5.77102703 54.1589189 2.9267027 54.1589189"></polygon>
                    <polygon id="Fill-127" fill="#061584" mask="url(#mask-5)" points="2.9267027 56.3617297 5.77102703 56.3617297 5.77102703 55.4983784 2.9267027 55.4983784"></polygon>
                    <polygon id="Fill-128" fill="#061584" mask="url(#mask-5)" points="2.9267027 57.7018378 5.77102703 57.7018378 5.77102703 56.8384865 2.9267027 56.8384865"></polygon>
                    <polygon id="Fill-129" fill="#061584" mask="url(#mask-5)" points="2.9267027 59.0412973 5.77102703 59.0412973 5.77102703 58.1779459 2.9267027 58.1779459"></polygon>
                    <polygon id="Fill-130" fill="#061584" mask="url(#mask-5)" points="2.9267027 60.3814054 5.77102703 60.3814054 5.77102703 59.5180541 2.9267027 59.5180541"></polygon>
                    <polygon id="Fill-131" fill="#1E41D3" mask="url(#mask-5)" points="2.9267027 45.6447568 3.21016216 45.6447568 3.21016216 44.7814054 2.9267027 44.7814054"></polygon>
                    <polygon id="Fill-132" fill="#1E41D3" mask="url(#mask-5)" points="2.9267027 46.9842162 3.21016216 46.9842162 3.21016216 46.1208649 2.9267027 46.1208649"></polygon>
                    <polygon id="Fill-133" fill="#1E41D3" mask="url(#mask-5)" points="2.9267027 48.3236757 3.21016216 48.3236757 3.21016216 47.4603243 2.9267027 47.4603243"></polygon>
                    <polygon id="Fill-134" fill="#1E41D3" mask="url(#mask-5)" points="2.9267027 49.6637838 3.21016216 49.6637838 3.21016216 48.8004324 2.9267027 48.8004324"></polygon>
                    <polygon id="Fill-135" fill="#1E41D3" mask="url(#mask-5)" points="2.9267027 51.0032432 3.21016216 51.0032432 3.21016216 50.1398919 2.9267027 50.1398919"></polygon>
                    <polygon id="Fill-136" fill="#1E41D3" mask="url(#mask-5)" points="2.9267027 52.3427027 3.21016216 52.3427027 3.21016216 51.4793514 2.9267027 51.4793514"></polygon>
                    <polygon id="Fill-137" fill="#1E41D3" mask="url(#mask-5)" points="2.9267027 53.6828108 3.21016216 53.6828108 3.21016216 52.8194595 2.9267027 52.8194595"></polygon>
                    <polygon id="Fill-138" fill="#1E41D3" mask="url(#mask-5)" points="2.9267027 55.0222703 3.21016216 55.0222703 3.21016216 54.1589189 2.9267027 54.1589189"></polygon>
                    <polygon id="Fill-139" fill="#1E41D3" mask="url(#mask-5)" points="2.9267027 56.3617297 3.21016216 56.3617297 3.21016216 55.4983784 2.9267027 55.4983784"></polygon>
                    <polygon id="Fill-140" fill="#1E41D3" mask="url(#mask-5)" points="2.9267027 57.7018378 3.21016216 57.7018378 3.21016216 56.8384865 2.9267027 56.8384865"></polygon>
                    <polygon id="Fill-141" fill="#1E41D3" mask="url(#mask-5)" points="2.9267027 59.0412973 3.21016216 59.0412973 3.21016216 58.1779459 2.9267027 58.1779459"></polygon>
                    <polygon id="Fill-142" fill="#1E41D3" mask="url(#mask-5)" points="2.9267027 60.3814054 3.21016216 60.3814054 3.21016216 59.5180541 2.9267027 59.5180541"></polygon>
                    <polygon id="Fill-143" fill="#1AC1F3" mask="url(#mask-5)" points="27.646573 46.8027243 23.3538162 46.8027243 23.0807351 47.8224 23.0807351 48.9880216 27.3728432 48.9880216 27.646573 47.9683459"></polygon>
                    <polygon id="Fill-144" fill="#EBFAFF" mask="url(#mask-5)" points="23.8825946 47.9682162 28.1753514 47.9682162 28.1753514 46.8025946 23.8825946 46.8025946"></polygon>
                    <polygon id="Fill-145" fill="#45D3F4" mask="url(#mask-5)" points="23.3539459 47.9682162 23.8825946 47.9682162 23.8825946 46.8025946 23.3539459 46.8025946"></polygon>
                    <polygon id="Fill-146" fill="#1AC1F3" mask="url(#mask-5)" points="36.804973 27.7340757 36.0577297 27.7340757 35.4201081 30.1126703 35.4201081 49.0493189 36.168 49.0493189 36.804973 46.6700757"></polygon>
                    <polygon id="Fill-147" fill="#45D3F4" mask="url(#mask-5)" points="35.4201081 46.1299459 36.804973 46.1299459 36.804973 41.5952432 35.4201081 41.5952432"></polygon>
                    <polygon id="Fill-148" fill="#1AC1F3" mask="url(#mask-5)" points="31.1039351 27.7340757 30.3566919 27.7340757 29.7190703 30.1126703 29.7190703 49.0493189 30.4669622 49.0493189 31.1039351 46.6700757"></polygon>
                    <polygon id="Fill-149" fill="#45D3F4" mask="url(#mask-5)" points="29.7191351 46.1299459 31.104 46.1299459 31.104 41.5952432 29.7191351 41.5952432"></polygon>
                    <polygon id="Fill-150" fill="#EBFAFF" mask="url(#mask-5)" points="36.4164324 46.6702703 37.1643243 46.6702703 37.1643243 27.7342703 36.4164324 27.7342703"></polygon>
                    <polygon id="Fill-151" fill="#1AC1F3" mask="url(#mask-5)" points="36.0577297 46.6702703 36.4164324 46.6702703 36.4164324 27.7342703 36.0577297 27.7342703"></polygon>
                    <polygon id="Fill-152" fill="#EBFAFF" mask="url(#mask-5)" points="30.7154595 46.6702703 31.4633514 46.6702703 31.4633514 27.7342703 30.7154595 27.7342703"></polygon>
                    <polygon id="Fill-153" fill="#1AC1F3" mask="url(#mask-5)" points="30.3567568 46.6702703 30.7154595 46.6702703 30.7154595 27.7342703 30.3567568 27.7342703"></polygon>
                    <polygon id="Fill-154" fill="#EBFAFF" mask="url(#mask-5)" points="55.7918919 62.8485405 47.6260541 63.8837838 40.1328649 62.8485405 39.7572973 61.3903784 55.4156757 61.3903784"></polygon>
                    <polygon id="Fill-155" fill="#0D189E" mask="url(#mask-5)" points="57.9816649 67.724173 57.9816649 64.7883892 58.5680432 61.8766054 60.1513946 59.5304432 62.4975568 57.9483892 65.4093405 57.3600649 80.9477189 57.3600649 83.8595027 57.9483892 86.2063135 59.5304432 87.7877189 61.8766054 88.3753946 64.7883892 88.3753946 67.724173 89.4359351 67.724173 89.4359351 64.746227 89.4359351 64.7040649 89.4236108 64.6424432 88.8015568 61.5613622 88.7788541 61.4530378 88.7230703 61.3687135 87.0262054 58.8526054 86.9684757 58.7669838 86.8835027 58.7099027 84.3673946 57.0136865 84.2830703 56.9566054 84.1747459 56.9345514 81.0936649 56.3124973 81.0313946 56.300173 80.9898811 56.300173 65.3671784 56.300173 65.3250162 56.300173 65.2640432 56.3124973 62.1823135 56.9345514 62.0739892 56.9566054 61.9896649 57.0136865 59.4735568 58.7099027 59.3879351 58.7669838 59.3308541 58.8526054 57.6339892 61.3687135 57.5769081 61.4530378 57.5548541 61.5613622 56.9334486 64.6424432 56.9211243 64.7040649 56.9211243 64.746227 56.9211243 67.724173"></polygon>
                    <polygon id="Fill-156" fill="#0D189E" mask="url(#mask-5)" points="142.880562 67.724173 142.880562 64.7883892 143.467589 61.8766054 145.050941 59.5304432 147.397103 57.9483892 150.308886 57.3600649 165.846616 57.3600649 168.759049 57.9483892 171.105211 59.5304432 172.687265 61.8766054 173.274941 64.7883892 173.274941 67.724173 174.335481 67.724173 174.335481 64.746227 174.335481 64.7040649 174.323157 64.6424432 173.701103 61.5613622 173.6784 61.4530378 173.621968 61.3687135 171.925103 58.8526054 171.867373 58.7669838 171.783049 58.7099027 169.266941 57.0136865 169.182616 56.9566054 169.074292 56.9345514 165.992562 56.3124973 165.930941 56.300173 165.889427 56.300173 150.266724 56.300173 150.224562 56.300173 150.162941 56.3124973 147.081859 56.9345514 146.973535 56.9566054 146.889211 57.0136865 144.373103 58.7099027 144.287481 58.7669838 144.2304 58.8526054 142.532886 61.3687135 142.475805 61.4530378 142.4544 61.5613622 141.832995 64.6424432 141.820022 64.7040649 141.820022 64.746227 141.820022 67.724173"></polygon>
                    <polygon id="Fill-157" fill="#0D189E" mask="url(#mask-5)" points="11.9555027 67.7453838 11.9555027 64.508627 12.5418811 61.5974919 14.1252324 59.2506811 16.4713946 57.668627 19.3831784 57.0809514 20.3587459 57.0809514 23.2705297 57.668627 25.6173405 59.2506811 27.1987459 61.5974919 27.7870703 64.508627 27.7870703 67.7453838 28.8469622 67.7453838 28.8469622 64.4664649 28.8469622 64.4249514 28.8346378 64.3633297 28.2125838 61.2822486 28.1905297 61.1739243 28.1334486 61.0896 26.4372324 58.5728432 26.3795027 58.4878703 26.2945297 58.4307892 23.7790703 56.7339243 23.6940973 56.6774919 23.5864216 56.6554378 21.1312865 56.0333838 21.0696649 56.0210595 21.0275027 56.0210595 19.3410162 56.0210595 19.2988541 56.0210595 19.2378811 56.0333838 16.1568 56.6554378 16.047827 56.6774919 15.9635027 56.7339243 13.4473946 58.4307892 13.361773 58.4878703 13.3046919 58.5728432 11.607827 61.0896 11.5507459 61.1739243 11.5286919 61.2822486 10.9079351 64.3633297 10.8949622 64.4249514 10.8949622 64.4664649 10.8949622 67.7453838"></polygon>
                    <polygon id="Fill-158" fill="#1337BC" mask="url(#mask-5)" points="15.8176216 58.1097081 16.4714595 57.668627 16.764 57.6096 20.2777297 56.0210595 19.3410811 56.0210595 19.2989189 56.0210595 19.2372973 56.0333838 16.1562162 56.6554378 16.0472432 56.6774919 15.9635676 56.7339243 13.3618378 58.4878703 11.5508108 61.1739243 12.156 61.1739243 15.8156757 58.1110054"></polygon>
                    <polygon id="Fill-159" fill="#061584" mask="url(#mask-5)" points="12.5610811 67.7453838 12.5610811 64.508627 13.1481081 61.5974919 14.7314595 59.2506811 17.0776216 57.668627 19.9887568 57.0809514 20.964973 57.0809514 23.8761081 57.668627 26.2229189 59.2506811 27.804973 61.5974919 28.3926486 64.508627 28.3926486 67.7453838 29.4531892 67.7453838 29.4531892 64.4664649 29.4531892 64.4249514 29.4402162 64.3633297 28.8181622 61.2822486 28.7961081 61.1739243 28.7396757 61.0896 27.0434595 58.5728432 26.9857297 58.4878703 26.9001081 58.4307892 24.3846486 56.7339243 24.3003243 56.6774919 24.192 56.6554378 21.1109189 56.0333838 21.0486486 56.0210595 21.0071351 56.0210595 19.9472432 56.0210595 19.9044324 56.0210595 19.8434595 56.0333838 16.7623784 56.6554378 16.6540541 56.6774919 16.5697297 56.7339243 14.0536216 58.4307892 13.968 58.4878703 13.9102703 58.5728432 12.2134054 61.0896 12.1563243 61.1739243 12.1349189 61.2822486 11.5135135 64.3633297 11.5005405 64.4249514 11.5005405 64.4664649 11.5005405 67.7453838"></polygon>
                    <polygon id="Fill-160" fill="#EBFAFF" mask="url(#mask-5)" points="40.1325405 66.9768649 55.7915676 66.9768649 55.7915676 62.8482162 40.1325405 62.8482162"></polygon>
                    <polygon id="Fill-161" fill="#69DEF9" mask="url(#mask-5)" points="55.7918919 66.9769946 40.1328649 66.9769946 39.7572973 68.4358054 55.4156757 68.4358054"></polygon>
                    <polygon id="Fill-162" fill="#EBFAFF" mask="url(#mask-5)" points="46.9952432 55.0884324 186.85427 55.0884324 186.85427 0.443675676 46.9952432 0.443675676"></polygon>
                    <polygon id="Fill-163" fill="#69DEF9" mask="url(#mask-5)" points="72.1087784 48.7508757 72.1087784 37.0810378 143.389427 37.0810378 164.541211 0.444064865 171.507049 0.444064865 150.354616 37.0810378 154.900346 37.0810378 176.05213 0.444064865 183.017968 0.444064865 156.009535 47.2246054 155.127373 48.7508757 153.394184 48.7508757 143.616454 48.7508757 141.882616 48.7508757"></polygon>
                    <polygon id="Fill-164" fill="#69DEF9" mask="url(#mask-5)" points="183.825211 3.47344865 51.7609946 3.47344865 182.4864 52.0591784 183.825211 52.0591784"></polygon>
                    <polygon id="Fill-165" fill="#45D3F4" mask="url(#mask-5)" points="183.053708 3.47344865 50.0243027 3.47344865 50.0243027 4.81161081 182.486141 52.0591784 183.053708 52.0591784"></polygon>
                    <polygon id="Fill-166" fill="#1AC1F3" mask="url(#mask-5)" points="180.703589 3.47344865 173.7384 3.47344865 153.561535 38.4193946 149.015805 38.4193946 169.192022 3.47344865 162.226832 3.47344865 142.516346 37.6131243 157.803049 43.1376649"></polygon>
                    <polygon id="Fill-167" fill="#EBFAFF" mask="url(#mask-5)" points="50.0244324 52.0592432 182.48627 52.0592432 182.48627 4.81232432 50.0244324 4.81232432"></polygon>
                    <polygon id="Fill-168" fill="#69DEF9" mask="url(#mask-5)" points="50.0243027 38.4197189 50.0243027 50.0895568 140.544519 50.0895568 142.278357 50.0895568 152.055438 50.0895568 153.789276 50.0895568 154.670789 48.5632865 179.930465 4.81193514 172.964627 4.81193514 153.5616 38.4197189 149.01587 38.4197189 168.419546 4.81193514 161.453708 4.81193514 142.050032 38.4197189"></polygon>
                    <polygon id="Fill-169" fill="#45D3F4" mask="url(#mask-5)" points="49.2660973 53.7370378 49.2660973 54.728173 51.3054486 54.728173 51.4760432 54.0899027 51.4760432 53.0987676 49.4373405 53.0987676"></polygon>
                    <polygon id="Fill-170" fill="#69DEF9" mask="url(#mask-5)" points="49.763027 54.0895135 51.8017297 54.0895135 51.8017297 53.099027 49.763027 53.099027"></polygon>
                    <polygon id="Fill-171" fill="#1AC1F3" mask="url(#mask-5)" points="49.4374054 54.0895135 49.763027 54.0895135 49.763027 53.099027 49.4374054 53.099027"></polygon>
                    <polygon id="Fill-172" fill="#45D3F4" mask="url(#mask-5)" points="93.5452541 53.7370378 93.5452541 54.728173 95.5846054 54.728173 95.7552 54.0899027 95.7552 53.0987676 93.7164973 53.0987676"></polygon>
                    <polygon id="Fill-173" fill="#69DEF9" mask="url(#mask-5)" points="94.0417297 54.0895135 96.0810811 54.0895135 96.0810811 53.099027 94.0417297 53.099027"></polygon>
                    <polygon id="Fill-174" fill="#1AC1F3" mask="url(#mask-5)" points="93.7161081 54.0895135 94.0417297 54.0895135 94.0417297 53.099027 93.7161081 53.099027"></polygon>
                    <polygon id="Fill-175" fill="#45D3F4" mask="url(#mask-5)" points="137.663481 53.7370378 137.663481 54.728173 139.702184 54.728173 139.873427 54.0899027 139.873427 53.0987676 137.834076 53.0987676"></polygon>
                    <polygon id="Fill-176" fill="#69DEF9" mask="url(#mask-5)" points="138.159568 54.0895135 140.198919 54.0895135 140.198919 53.099027 138.159568 53.099027"></polygon>
                    <polygon id="Fill-177" fill="#1AC1F3" mask="url(#mask-5)" points="137.833946 54.0895135 138.159568 54.0895135 138.159568 53.099027 137.833946 53.099027"></polygon>
                    <polygon id="Fill-178" fill="#45D3F4" mask="url(#mask-5)" points="181.470681 53.7370378 181.470681 54.728173 183.510032 54.728173 183.680627 54.0899027 183.680627 53.0987676 181.641924 53.0987676"></polygon>
                    <polygon id="Fill-179" fill="#69DEF9" mask="url(#mask-5)" points="181.967351 54.0895135 184.006703 54.0895135 184.006703 53.099027 181.967351 53.099027"></polygon>
                    <polygon id="Fill-180" fill="#1AC1F3" mask="url(#mask-5)" points="181.64173 54.0895135 181.967351 54.0895135 181.967351 53.099027 181.64173 53.099027"></polygon>
                </g>
            </g>
        </g>
    </g>
</svg>